<?xml version="1.0" encoding="UTF-8" standalone="no"?>
<svg
   xmlns:dc="http://purl.org/dc/elements/1.1/"
   xmlns:cc="http://creativecommons.org/ns#"
   xmlns:rdf="http://www.w3.org/1999/02/22-rdf-syntax-ns#"
   xmlns:svg="http://www.w3.org/2000/svg"
   xmlns="http://www.w3.org/2000/svg"
   id="svg27"
   height="88.313198mm"
   width="129.80825mm"
   version="1.0">
  <metadata
     id="metadata31">
    <rdf:RDF>
      <cc:Work
         rdf:about="">
        <dc:format>image/svg+xml</dc:format>
        <dc:type
           rdf:resource="http://purl.org/dc/dcmitype/StillImage" />
      </cc:Work>
    </rdf:RDF>
  </metadata>
  <defs
     id="defs3">
    <pattern
       y="0"
       x="0"
       height="6"
       width="6"
       patternUnits="userSpaceOnUse"
       id="WMFhbasepattern" />
  </defs>
  <path
     id="path5"
     d="  M 108.27188,36.997502   L 109.56468,40.713408   L 111.98867,42.975264   L 114.89747,43.78307   L 118.29107,44.106192   L 121.68466,43.78307   L 125.23986,43.621509   L 128.31025,43.621509   L 131.05745,44.590876   L 132.67345,46.206487   L 134.61265,47.660537   L 136.87505,48.791465   L 139.29904,49.922393   L 141.56144,50.89176   L 143.66224,52.507372   L 145.43984,54.284544   L 146.73263,56.707962   L 151.25743,59.616062   L 156.42862,62.362602   L 161.43822,64.94758   L 166.60941,67.532558   L 171.29581,70.117536   L 175.9822,73.348759   L 180.0222,76.741543   L 183.57739,80.942133   L 186.16299,80.295889   L 188.42539,80.780572   L 190.20298,81.749939   L 191.81898,83.203989   L 193.27338,84.658039   L 194.88938,86.273651   L 196.50538,87.56614   L 198.76778,88.535507   L 202.80777,88.858629   L 206.84777,89.666435   L 210.40296,90.797363   L 214.11976,92.412974   L 217.35175,93.867025   L 220.74535,95.644197   L 224.13895,97.259809   L 227.53254,99.036981   L 229.31014,100.00635   L 231.08774,101.29884   L 232.86534,102.42977   L 234.80453,103.88382   L 236.42053,105.1763   L 238.19813,106.46879   L 239.81413,107.76128   L 241.59173,109.21533   L 243.69252,111.63875   L 246.27812,113.57748   L 249.02532,115.03153   L 252.09572,116.16246   L 255.00451,117.13183   L 258.07491,118.42432   L 260.82211,120.03993   L 263.4077,122.30179   L 265.8317,122.30179   L 266.4781,123.43271   L 267.7709,124.40208   L 269.0637,124.88676   L 270.67969,125.53301   L 271.97249,126.01769   L 273.42689,126.8255   L 274.55809,127.79486   L 275.52769,129.41048   L 277.46689,129.57204   L 278.92128,130.37984   L 280.21408,131.34921   L 281.50688,132.80326   L 282.63808,134.09575   L 283.93088,135.5498   L 285.22368,136.68073   L 287.16288,137.97322   L 288.13247,135.38824   L 289.10207,132.96482   L 289.74847,130.37984   L 290.23327,127.95643   L 290.23327,125.20989   L 290.07167,122.62491   L 289.58687,119.87837   L 289.10207,117.29339   L 289.91007,114.70841   L 291.20287,113.73905   L 292.81887,113.57748   L 294.91967,114.38529   L 296.85886,115.03153   L 299.12126,115.83934   L 301.38366,116.16246   L 303.80766,115.67778   L 308.65565,115.51622   L 313.66525,115.35466   L 318.67484,115.03153   L 323.84603,115.03153   L 328.85563,115.1931   L 333.86522,115.83934   L 338.71322,116.97027   L 343.72281,118.74744   L 345.50041,117.13183   L 347.27801,116.97027   L 348.89401,117.29339   L 350.51,118.1012   L 352.126,118.909   L 353.9036,119.55525   L 355.8428,119.55525   L 358.26679,118.74744   L 359.07479,119.87837   L 359.23639,121.0093   L 358.75159,121.8171   L 357.9436,122.78647   L 356.974,123.59428   L 356.3276,124.40208   L 356.166,125.37145   L 356.8124,126.34081   L 361.66039,130.86453   L 366.34679,136.03448   L 370.70998,141.52756   L 375.23478,147.34376   L 379.59797,152.9984   L 383.96117,158.8146   L 388.32436,164.14612   L 393.17236,169.31608   L 396.08115,174.48604   L 399.79795,180.30224   L 403.83794,186.11844   L 408.52434,192.0962   L 413.21073,197.75084   L 418.38193,203.24392   L 423.39152,208.41388   L 428.56272,213.09915   L 430.50191,218.43067   L 433.73391,223.92375   L 437.28911,229.0937   L 440.8443,234.26366   L 443.2683,239.27205   L 444.2379,244.60357   L 442.9451,249.93509   L 439.0667,255.58973   L 434.54191,258.82095   L 430.01711,262.05218   L 425.33072,264.79872   L 420.80592,267.70682   L 415.95793,270.13023   L 411.27154,272.71521   L 406.58514,275.13863   L 402.22195,277.72361   L 398.18195,277.40048   L 394.94995,278.36985   L 392.20276,279.98546   L 389.77876,282.24732   L 387.19316,284.34761   L 384.60757,285.96322   L 381.37557,286.93259   L 377.49717,286.93259   L 373.78038,290.00225   L 369.74038,292.26411   L 365.37719,293.71816   L 360.85239,295.01065   L 356.0044,296.14158   L 351.6412,297.75719   L 347.60121,300.34217   L 344.20761,304.05807   L 338.87482,304.3812   L 334.35002,305.83525   L 330.31003,307.61242   L 326.59323,310.03584   L 322.71484,312.29769   L 318.99804,314.72111   L 314.79644,316.65984   L 310.27165,318.11389   L 305.90845,320.69887   L 301.22206,323.28385   L 296.21247,325.38414   L 291.04127,326.99976   L 285.54688,327.80756   L 280.21408,327.80756   L 274.88129,326.67663   L 269.87169,324.7379   L 266.3165,326.67663   L 262.7613,327.32288   L 259.04451,327.16132   L 255.48931,326.67663   L 251.77252,325.70727   L 248.05572,325.22258   L 244.50052,325.54571   L 241.10693,326.83819   L 238.03653,325.22258   L 236.42053,323.12229   L 235.77413,320.53731   L 235.93573,317.79077   L 236.25893,314.55955   L 236.58213,311.48989   L 236.58213,308.25866   L 236.09733,305.51212   L 235.61253,301.47309   L 235.61253,297.75719   L 236.09733,294.04128   L 237.22853,290.48694   L 238.35973,286.93259   L 239.81413,283.53981   L 241.26853,280.14702   L 242.72293,276.75424   L 239.16773,276.59268   L 235.77413,276.59268   L 232.05734,276.43112   L 228.34054,276.108   L 224.46215,275.46175   L 220.90695,274.81551   L 217.51335,273.84614   L 214.44296,272.71521   L 207.97896,271.58428   L 202.48457,272.23053   L 197.47498,273.84614   L 192.95018,276.108   L 188.26379,278.20829   L 183.41579,280.14702   L 177.9214,281.11639   L 171.94221,280.79327   L 168.06381,279.33922   L 164.34701,278.69297   L 160.46862,278.53141   L 156.59022,278.85453   L 152.38863,279.17766   L 148.34863,279.8239   L 144.14704,280.30858   L 140.10704,280.79327   L 137.19824,281.60107   L 134.45105,281.9242   L 131.38065,281.9242   L 128.47185,281.76264   L 125.40146,281.43951   L 122.49266,281.60107   L 119.58386,282.08576   L 116.99827,283.37825   L 114.89747,284.67074   L 112.79667,285.47854   L 110.53428,285.6401   L 108.27188,285.96322   L 105.84788,285.96322   L 104.07028,286.60947   L 102.29268,287.7404   L 101.32309,289.84069   L 94.697493,289.84069   L 94.535893,287.90196   L 94.535893,286.44791   L 94.212693,285.15542   L 93.889494,284.18605   L 93.081495,283.21669   L 92.111896,282.40888   L 90.980697,281.60107   L 89.687899,280.79327   L 86.132703,281.76264   L 82.739106,282.08576   L 79.18391,281.60107   L 75.790314,281.27795   L 72.235118,280.63171   L 68.841522,280.63171   L 65.447926,281.43951   L 62.377529,283.37825   L 59.468733,283.21669   L 56.236736,283.21669   L 52.68154,283.21669   L 49.126344,283.21669   L 45.409549,282.89356   L 41.854353,282.57044   L 38.460757,281.76264   L 35.55196,280.79327   L 32.966363,280.47015   L 30.542365,281.11639   L 28.118368,282.24732   L 26.017571,283.37825   L 23.755173,284.02449   L 21.815975,284.02449   L 19.876778,282.57044   L 18.422379,279.33922   L 18.422379,274.16926   L 18.583979,268.9993   L 18.583979,263.66779   L 18.745579,258.33627   L 18.583979,252.52007   L 18.260779,246.86543   L 17.77598,241.04923   L 16.967981,235.39459   L 18.422379,231.194   L 19.391978,226.83185   L 20.038377,222.30813   L 20.684777,217.94598   L 20.684777,213.09915   L 20.846376,208.41388   L 20.846376,203.7286   L 21.007976,199.04333   L 20.684777,196.61991   L 20.846376,193.87337   L 21.331176,190.96527   L 21.815975,188.05717   L 21.815975,185.14907   L 21.331176,182.72565   L 19.553578,180.78692   L 16.967981,179.81755   L 18.422379,172.5473   L 19.391978,164.95393   L 19.876778,157.19899   L 19.876778,149.44406   L 19.391978,141.366   L 18.907179,133.4495   L 17.93758,125.69457   L 16.967981,118.26276   L 17.45278,112.12343   L 17.45278,106.14567   L 16.806381,100.16791   L 16.159982,94.351708   L 15.513582,88.535507   L 15.351983,82.719306   L 15.836782,77.064666   L 17.45278,71.733148   L 17.77598,69.14817   L 17.77598,66.724752   L 17.45278,64.139774   L 17.29118,61.554796   L 17.129581,58.808256   L 17.45278,56.384839   L 18.260779,53.961422   L 20.038377,52.18425   L 20.523177,50.245516   L 20.523177,48.629904   L 20.361577,47.175854   L 20.199977,45.883365   L 19.876778,44.429315   L 20.038377,43.136825   L 20.523177,41.844336   L 21.977575,40.551847   L 25.371171,38.12843   L 29.087967,36.997502   L 32.804763,36.512819   L 37.006358,36.67438   L 41.046354,36.835941   L 45.571148,37.159063   L 49.934344,36.997502   L 54.782338,36.512819   L 57.529535,35.866574   L 60.438332,35.705013   L 63.185529,35.543452   L 66.094325,35.866574   L 68.841522,35.705013   L 71.588719,35.543452   L 74.012716,34.897207   L 76.598313,33.92784   L 77.567912,34.412524   L 78.537511,34.574085   L 79.34551,34.250963   L 80.315109,33.92784   L 81.284708,33.281596   L 82.254307,32.958473   L 83.223906,32.635351   L 84.678304,32.958473   L 87.102302,32.635351   L 90.011098,32.958473   L 92.919895,33.604718   L 95.990291,34.735646   L 98.899088,35.543452   L 102.13108,36.512819   L 105.03988,36.997502   L 108.27188,36.997502  z "
     style="fill:#000000;fill-rule:evenodd;fill-opacity:1;stroke:none;" />
  <path
     id="path7"
     d="  M 101.80788,43.459948   L 99.868687,60.74699   L 97.929489,78.034033   L 96.313491,94.997953   L 95.182292,112.12343   L 94.212693,129.08735   L 94.051094,146.05127   L 94.535893,163.17676   L 96.151891,180.78692   L 97.929489,188.54186   L 98.575889,196.45835   L 98.091089,204.53641   L 96.95989,212.77603   L 95.182292,220.69252   L 93.243095,228.77058   L 91.303897,236.52551   L 89.687899,244.44201   L 90.172698,247.67323   L 90.657498,251.06602   L 90.657498,254.62036   L 90.819097,258.33627   L 90.657498,261.89061   L 90.657498,265.60652   L 90.819097,269.16087   L 91.142297,272.71521   L 89.203099,273.68458   L 87.425501,274.0077   L 85.647903,273.68458   L 84.031905,273.36146   L 82.254307,272.71521   L 80.476709,272.55365   L 78.699111,272.71521   L 77.083113,273.68458   L 72.719918,272.71521   L 68.841522,272.87677   L 64.963127,273.52302   L 61.407931,274.65394   L 57.529535,275.46175   L 53.812739,276.43112   L 49.772744,276.59268   L 45.732748,276.26956   L 43.308751,274.81551   L 40.561554,273.84614   L 37.652757,272.87677   L 35.06716,272.06897   L 32.804763,270.61492   L 31.673564,268.83774   L 31.350365,266.25277   L 32.643163,262.69842   L 30.703965,258.33627   L 29.249567,254.13568   L 28.118368,249.45041   L 27.633569,245.08826   L 27.471969,240.56454   L 27.956768,236.36395   L 28.926367,232.32493   L 31.027165,228.77058   L 30.542365,222.30813   L 29.734366,216.16881   L 28.764767,210.02949   L 27.956768,204.05172   L 26.987169,197.75084   L 26.34077,191.61152   L 26.017571,184.98751   L 26.50237,178.3635   L 27.795169,176.42477   L 28.603168,174.80916   L 28.764767,173.19355   L 28.764767,171.7395   L 28.279968,170.28545   L 27.795169,168.8314   L 26.987169,167.21578   L 26.50237,165.76173   L 25.855971,157.84524   L 25.694371,150.25186   L 25.371171,142.65849   L 25.371171,135.38824   L 25.047972,127.95643   L 24.724772,120.68617   L 24.078373,113.25436   L 23.431974,105.66099   L 24.401572,104.20694   L 24.724772,103.07601   L 24.401572,101.78352   L 24.078373,100.81415   L 23.270374,99.683226   L 22.623974,98.713859   L 22.300775,97.582931   L 22.462375,96.613564   L 21.815975,91.605169   L 22.139175,87.081457   L 22.785574,82.557745   L 23.755173,78.195594   L 24.724772,73.833443   L 25.532771,69.632853   L 26.017571,65.432263   L 26.017571,61.231674   L 26.50237,58.485134   L 26.82557,55.738595   L 27.148769,52.992055   L 27.795169,50.568638   L 28.603168,48.145221   L 30.057566,46.368048   L 31.996764,44.913998   L 35.06716,44.590876   L 39.430355,45.23712   L 44.11675,45.398681   L 48.479945,44.913998   L 53.16634,44.267753   L 57.367935,43.459948   L 61.56953,43.298387   L 65.609526,43.459948   L 69.487921,44.590876   L 72.558318,44.590876   L 75.628715,43.944631   L 78.699111,42.975264   L 81.769508,42.005897   L 84.678304,41.036531   L 87.587101,40.713408   L 90.657498,41.198092   L 93.727894,42.975264   L 101.80788,43.459948  z "
     style="fill:#990000;fill-rule:evenodd;fill-opacity:1;stroke:none;" />
  <path
     id="path9"
     d="  M 129.11825,53.6383   L 130.24945,52.345811   L 131.38065,52.022688   L 132.51185,52.18425   L 133.64305,52.992055   L 134.61265,53.799861   L 135.74385,54.607667   L 136.87505,55.415472   L 138.16784,56.223278   L 138.81424,59.29294   L 140.26864,61.877918   L 142.20784,63.978213   L 144.79344,65.755386   L 147.37903,67.370997   L 150.12623,69.14817   L 152.71183,71.248465   L 155.29742,74.318126   L 158.52942,73.025637   L 161.43822,72.864076   L 163.86221,73.671882   L 166.44781,75.449054   L 168.54861,77.226227   L 170.81101,79.326522   L 172.9118,81.426817   L 175.4974,83.36555   L 177.4366,85.465845   L 180.0222,87.243018   L 182.93099,88.212385   L 186.00139,89.181751   L 188.74859,89.827996   L 191.65738,90.958924   L 194.08138,92.412974   L 196.18218,94.997953   L 199.25257,94.997953   L 202.16137,95.96732   L 204.58537,97.098248   L 207.17097,98.87542   L 209.59496,100.32947   L 212.34216,101.62196   L 215.08936,102.2682   L 218.48295,102.10664   L 221.55335,103.88382   L 224.46215,106.14567   L 227.04774,108.40753   L 229.79494,110.66938   L 232.21894,112.76968   L 235.12773,114.70841   L 238.03653,116.16246   L 241.59173,117.29339   L 242.72293,118.74744   L 244.50052,120.20149   L 246.60132,121.17086   L 249.02532,122.30179   L 251.44932,123.10959   L 253.87331,124.07896   L 256.13571,125.04833   L 258.39811,126.34081   L 264.8621,130.05672   L 271.16449,134.25731   L 276.98209,138.61946   L 282.96128,143.4663   L 288.77887,147.99001   L 294.59647,152.67528   L 300.73726,157.03743   L 307.36285,161.23802   L 309.46365,163.17676   L 312.04925,165.11549   L 314.63484,166.7311   L 317.70524,168.18515   L 320.61404,169.15452   L 323.68443,169.6392   L 326.75483,169.6392   L 329.98683,169.31608   L 331.60283,163.66144   L 333.38042,158.16836   L 335.15802,152.67528   L 336.93562,147.34376   L 338.55162,141.68912   L 340.16762,136.19604   L 341.46041,130.5414   L 342.59161,124.88676   L 344.36921,124.24052   L 345.82361,124.40208   L 347.11641,125.20989   L 348.24761,126.50238   L 349.05561,127.95643   L 350.0252,129.7336   L 350.8332,131.34921   L 351.8028,132.96482   L 352.6108,133.93419   L 353.5804,134.90356   L 354.3884,135.87292   L 355.1964,137.00385   L 355.8428,137.81166   L 356.4892,138.78102   L 357.2972,139.58883   L 358.26679,140.39663   L 359.39799,142.49693   L 361.01399,144.59722   L 362.95319,146.3744   L 364.89239,148.15157   L 366.83159,149.76718   L 368.93238,151.70591   L 370.70998,153.64465   L 372.48758,156.06807   L 377.49717,162.69207   L 382.34517,169.80076   L 386.70836,177.07101   L 391.23316,184.34127   L 395.75795,191.44996   L 400.76755,198.23552   L 406.26194,204.37485   L 412.88753,210.19105   L 415.95793,212.4529   L 418.70513,215.361   L 421.12912,218.59223   L 423.71472,222.30813   L 425.81552,225.86248   L 428.23952,229.25526   L 430.66351,232.48649   L 433.57231,235.39459   L 435.02671,236.68708   L 435.83471,238.46425   L 435.99631,240.24142   L 435.67311,242.18015   L 435.18831,243.95733   L 434.70351,245.89606   L 434.38031,247.67323   L 434.54191,249.45041   L 430.66351,253.32787   L 426.78512,256.5591   L 422.74512,259.30564   L 418.54353,261.72905   L 414.01873,263.66779   L 409.49394,265.76808   L 404.80754,267.70682   L 400.28275,270.29179   L 398.66675,269.16087   L 394.62675,271.58428   L 390.42516,273.84614   L 386.06196,275.78487   L 381.86037,277.72361   L 377.49717,279.33922   L 373.29558,281.27795   L 369.25558,283.21669   L 365.86199,285.80166   L 361.66039,286.44791   L 357.782,287.90196   L 354.0652,289.67913   L 350.6716,291.94099   L 347.11641,293.87972   L 343.56121,295.65689   L 339.84442,296.78782   L 336.12762,297.43407   L 332.08762,299.53436   L 327.88603,301.63466   L 323.68443,303.41183   L 319.48284,305.35056   L 315.11964,307.12773   L 311.07965,309.22803   L 307.20125,311.32832   L 303.80766,314.07486   L 302.51486,313.75174   L 301.54526,313.75174   L 300.73726,314.07486   L 300.25246,314.55955   L 299.60606,315.04423   L 298.95966,315.85204   L 297.99006,316.33672   L 297.18206,317.14453   L 295.40447,317.14453   L 293.78847,317.14453   L 292.17247,317.14453   L 290.55647,317.14453   L 288.77887,317.14453   L 287.16288,317.14453   L 285.54688,317.14453   L 284.09248,317.62921   L 284.09248,304.05807   L 284.25408,303.25027   L 284.57728,302.44246   L 285.06208,301.47309   L 285.70848,300.50373   L 286.19328,299.04968   L 286.67808,297.75719   L 287.00128,296.30314   L 287.16288,295.01065   L 287.16288,280.30858   L 288.13247,280.30858   L 287.64767,277.40048   L 287.80927,274.49238   L 288.13247,271.58428   L 288.45567,268.83774   L 288.61727,265.92964   L 288.45567,263.34466   L 287.80927,260.92125   L 286.67808,258.65939   L 285.54688,258.65939   L 284.41568,258.82095   L 283.12288,259.14407   L 281.99168,259.4672   L 280.69888,259.4672   L 279.72928,259.4672   L 278.75968,259.14407   L 277.95169,258.65939   L 276.65889,259.62876   L 275.36609,260.43656   L 273.75009,260.75969   L 272.13409,261.24437   L 270.35649,261.56749   L 268.7405,262.21374   L 267.2861,263.1831   L 266.4781,264.63715   L 263.8925,262.85998   L 261.3069,262.3753   L 258.72131,262.69842   L 256.13571,263.50623   L 253.38851,264.15247   L 250.80292,264.47559   L 248.21732,263.82935   L 245.63172,262.21374   L 244.50052,262.69842   L 243.69252,263.50623   L 243.04613,264.47559   L 242.39973,265.44496   L 241.43013,266.0912   L 240.46053,266.89901   L 239.16773,267.38369   L 237.55173,267.70682   L 231.89574,268.1915   L 226.56294,268.02994   L 221.23015,267.38369   L 216.22056,266.73745   L 210.88776,265.76808   L 205.55497,265.44496   L 200.06057,265.44496   L 194.24298,266.25277   L 191.33418,268.02994   L 188.26379,268.9993   L 184.87019,269.16087   L 181.47659,269.32243   L 177.9214,269.16087   L 174.5278,269.32243   L 171.45741,269.96867   L 168.87181,271.74584   L 164.34701,270.77648   L 159.98382,270.61492   L 155.45902,270.93804   L 150.93423,271.74584   L 146.24783,272.55365   L 141.88464,273.52302   L 137.35984,274.33082   L 133.15825,275.30019   L 128.63345,274.97707   L 124.43186,275.30019   L 120.23026,275.62331   L 116.35187,276.26956   L 112.15027,276.59268   L 107.94868,276.9158   L 103.58548,276.9158   L 99.222288,276.75424   L 96.313491,265.76808   L 95.828692,254.78192   L 96.798291,243.63421   L 98.737488,232.64805   L 100.67669,221.33877   L 102.29268,210.02949   L 102.77748,198.72021   L 101.80788,187.41093   L 102.77748,187.41093   L 102.45428,183.85658   L 101.96948,180.30224   L 101.16149,176.42477   L 100.51509,172.70886   L 99.707087,168.66983   L 99.383888,164.63081   L 99.545487,160.59178   L 100.19189,156.55275   L 98.575889,151.54435   L 98.414289,146.69752   L 99.222288,141.68912   L 100.51509,136.84229   L 101.48469,131.83389   L 101.96948,126.98706   L 100.99989,122.14022   L 98.737488,117.29339   L 100.03029,111.63875   L 100.99989,106.14567   L 101.64629,100.32947   L 102.29268,94.513269   L 102.77748,88.535507   L 103.26228,82.719306   L 104.07028,77.064666   L 105.36308,71.733148   L 105.84788,68.340364   L 106.17108,65.270702   L 106.00948,62.20104   L 106.00948,59.29294   L 105.84788,56.223278   L 106.17108,53.315178   L 106.81748,50.245516   L 108.27188,47.014293   L 110.53428,48.468343   L 113.28147,49.599271   L 115.86707,50.083955   L 118.77587,50.730199   L 121.36146,50.89176   L 124.10866,51.538005   L 126.69426,52.18425   L 129.11825,53.6383  z "
     style="fill:#cc3300;fill-rule:evenodd;fill-opacity:1;stroke:none;" />
  <path
     id="path11"
     d="  M 336.61242,122.30179   L 337.09722,125.69457   L 336.93562,129.24892   L 336.12762,132.80326   L 335.15802,136.68073   L 333.70362,140.39663   L 332.41082,144.2741   L 330.95643,148.15157   L 329.98683,152.02904   L 329.01723,153.32153   L 328.69403,155.0987   L 328.37083,156.87587   L 328.20923,159.13773   L 327.56283,160.9149   L 327.07803,162.85363   L 325.94683,164.30768   L 324.49243,165.27705   L 319.32124,163.98456   L 315.28124,162.20739   L 312.04925,159.62241   L 309.30205,156.71431   L 306.55485,153.32153   L 303.64606,150.0903   L 300.25246,147.02064   L 296.21247,144.43566   L 293.46527,142.33537   L 292.33407,140.07351   L 292.17247,137.48853   L 292.98047,134.74199   L 293.78847,131.67233   L 294.43487,128.76423   L 294.43487,125.53301   L 293.62687,122.30179   L 298.79806,121.33242   L 304.13086,120.84774   L 309.62525,120.36305   L 315.28124,120.36305   L 320.61404,120.36305   L 326.10843,120.84774   L 331.44123,121.33242   L 336.61242,122.30179  z "
     style="fill:#990000;fill-rule:evenodd;fill-opacity:1;stroke:none;" />
  <path
     id="path13"
     d="  M 368.93238,205.02109   L 368.60918,210.19105   L 367.31638,215.03788   L 364.89239,219.56159   L 361.82199,223.60062   L 358.1052,226.99341   L 353.9036,230.22463   L 349.5404,232.97117   L 345.17721,235.39459   L 343.39961,234.74834   L 341.78361,234.58678   L 340.00602,234.42522   L 338.22842,234.26366   L 336.45082,233.77898   L 334.99642,233.29429   L 333.54202,232.48649   L 332.57242,231.35556   L 330.95643,229.90151   L 329.98683,228.44746   L 329.17883,226.67029   L 328.85563,224.89311   L 328.37083,222.95438   L 328.20923,221.01565   L 328.20923,219.07691   L 328.53243,217.13818   L 331.11803,212.93759   L 334.18842,209.06012   L 337.42042,205.34421   L 341.29881,202.11299   L 345.33881,199.20489   L 349.8636,197.26616   L 354.55,195.97367   L 359.88279,195.97367   L 368.93238,205.02109  z "
     style="fill:#000000;fill-rule:evenodd;fill-opacity:1;stroke:none;" />
  <path
     id="path15"
     d="  M 362.30679,205.66734   L 363.27639,206.95983   L 363.76119,208.41388   L 363.59959,210.02949   L 363.11479,211.80666   L 362.14519,213.42227   L 361.33719,215.03788   L 360.36759,216.33037   L 359.88279,217.78442   L 359.23639,216.65349   L 359.07479,215.52257   L 358.91319,214.23008   L 358.75159,212.93759   L 358.26679,211.48354   L 357.782,210.19105   L 356.974,209.06012   L 355.8428,208.09075   L 354.55,209.38324   L 353.5804,210.67573   L 352.6108,211.96822   L 351.9644,213.26071   L 351.1564,214.39164   L 350.3484,215.68413   L 349.21721,216.97662   L 348.24761,218.26911   L 349.37881,219.56159   L 350.9948,220.3694   L 351.9644,220.3694   L 352.934,220.53096   L 353.742,220.53096   L 354.7116,220.69252   L 355.8428,219.72316   L 355.0348,221.33877   L 354.0652,222.95438   L 352.7724,224.40843   L 351.4796,225.86248   L 349.5404,226.99341   L 347.76281,227.96277   L 345.98521,228.44746   L 344.20761,228.77058   L 342.43001,228.44746   L 340.97561,228.12434   L 339.35962,227.63965   L 337.90522,227.15497   L 336.45082,226.1856   L 335.15802,225.21623   L 334.18842,223.76218   L 333.54202,222.30813   L 333.86522,218.91535   L 334.83482,216.00725   L 336.28922,213.42227   L 338.39002,211.16042   L 340.49082,209.06012   L 343.07641,207.12139   L 345.50041,205.50578   L 348.24761,204.05172   L 349.8636,204.21329   L 351.6412,204.37485   L 353.4188,204.37485   L 355.358,204.37485   L 357.1356,204.37485   L 358.91319,204.53641   L 360.52919,204.85953   L 362.30679,205.66734  z "
     style="fill:#ffffff;fill-rule:evenodd;fill-opacity:1;stroke:none;" />
  <path
     id="path17"
     d="  M 396.24275,213.09915   L 396.24275,214.39164   L 396.40435,215.84569   L 396.56595,217.29974   L 396.72755,218.91535   L 396.56595,220.20784   L 396.24275,221.66189   L 395.59635,222.79282   L 394.62675,223.76218   L 393.49556,225.21623   L 392.20276,226.67029   L 390.58676,227.80121   L 388.97076,228.77058   L 387.03156,229.41682   L 385.25396,230.06307   L 383.31477,230.70931   L 381.53717,231.35556   L 378.62837,231.03244   L 375.88118,230.38619   L 373.29558,229.25526   L 371.35638,227.80121   L 369.57878,225.86248   L 368.77078,223.43906   L 368.77078,220.53096   L 369.90198,217.13818   L 370.70998,215.19944   L 371.67958,213.42227   L 372.64918,211.32198   L 373.61878,209.38324   L 374.58838,207.44451   L 376.20437,205.8289   L 378.14357,204.53641   L 380.56757,204.05172   L 382.82997,204.05172   L 385.09236,204.69797   L 387.19316,205.8289   L 389.29396,207.44451   L 391.07156,208.89856   L 392.84916,210.51417   L 394.46515,211.80666   L 396.24275,213.09915  z "
     style="fill:#000000;fill-rule:evenodd;fill-opacity:1;stroke:none;" />
  <path
     id="path19"
     d="  M 391.07156,220.69252   L 389.61716,221.82345   L 388.32436,222.95438   L 386.54676,223.76218   L 384.76917,224.56999   L 382.66837,224.89311   L 380.56757,225.21623   L 378.46677,225.05467   L 376.52757,224.73155   L 375.23478,223.43906   L 374.91158,222.30813   L 374.74998,220.85408   L 375.23478,219.56159   L 375.71958,217.94598   L 376.20437,216.33037   L 376.52757,214.71476   L 376.52757,213.09915   L 377.33557,212.29134   L 378.46677,211.6451   L 379.43637,210.83729   L 380.72917,210.35261   L 381.69877,209.86793   L 382.82997,210.02949   L 383.79957,210.51417   L 384.60757,211.6451   L 385.73876,212.61447   L 387.03156,213.74539   L 388.00116,214.71476   L 389.13236,215.84569   L 389.77876,216.81506   L 390.42516,218.10754   L 390.74836,219.23847   L 391.07156,220.69252  z "
     style="fill:#ffffff;fill-rule:evenodd;fill-opacity:1;stroke:none;" />
  <path
     id="path21"
     d="  M 385.57716,219.72316   L 382.99157,219.72316   L 382.82997,218.26911   L 382.66837,216.97662   L 382.82997,215.52257   L 384.12277,214.71476   L 385.41556,215.361   L 386.06196,216.81506   L 386.06196,218.26911   L 385.57716,219.72316  z "
     style="fill:#000000;fill-rule:evenodd;fill-opacity:1;stroke:none;" />
  <path
     id="path23"
     d="  M 307.84765,237.97957   L 311.88765,239.43362   L 316.25084,240.88767   L 320.45244,242.01859   L 324.65403,243.31108   L 328.69403,244.44201   L 332.73402,245.89606   L 336.45082,247.35011   L 340.16762,249.45041   L 345.01561,248.96572   L 349.8636,248.96572   L 354.7116,249.12728   L 359.72119,249.45041   L 364.40759,249.61197   L 369.25558,249.77353   L 374.10358,249.77353   L 378.95157,249.45041   L 381.69877,249.77353   L 384.60757,249.93509   L 387.51636,249.77353   L 390.58676,249.45041   L 393.49556,248.6426   L 396.56595,247.83479   L 399.63635,246.70387   L 402.70674,245.41138   L 402.86834,244.60357   L 403.02994,243.79577   L 403.02994,242.98796   L 403.19154,242.18015   L 403.19154,241.21079   L 403.19154,240.24142   L 403.35314,239.43362   L 403.83794,238.94893   L 407.87794,238.94893   L 408.36274,240.40298   L 408.84754,242.18015   L 409.33234,244.11889   L 409.81714,246.05762   L 409.81714,247.83479   L 409.65554,249.77353   L 409.00914,251.38914   L 407.87794,253.00475   L 404.96914,251.87382   L 402.22195,251.87382   L 399.47475,252.19695   L 396.88915,253.16631   L 394.30355,253.97412   L 391.71796,254.94349   L 389.13236,255.75129   L 386.54676,256.07441   L 378.62837,255.58973   L 370.87158,255.58973   L 362.95319,255.58973   L 355.1964,255.58973   L 347.43961,254.94349   L 340.00602,253.81256   L 332.73402,251.87382   L 325.94683,248.96572   L 324.33083,249.12728   L 323.19963,248.96572   L 322.23004,248.31948   L 321.42204,247.51167   L 320.29084,246.38074   L 319.32124,245.57294   L 318.19004,244.92669   L 316.89724,244.92669   L 314.31164,244.60357   L 311.88765,244.11889   L 309.46365,243.31108   L 307.03965,242.50328   L 304.61566,241.69547   L 302.35326,241.53391   L 300.09086,241.69547   L 298.15166,242.98796   L 297.99006,240.24142   L 298.63646,237.97957   L 299.60606,236.04083   L 301.06046,234.58678   L 302.51486,233.13273   L 304.13086,231.67868   L 305.74685,230.22463   L 307.36285,228.77058   L 308.00925,229.73995   L 308.17085,230.70931   L 307.84765,231.67868   L 307.52445,232.80961   L 307.03965,233.77898   L 306.71645,235.07146   L 306.87805,236.36395   L 307.84765,237.97957  z "
     style="fill:#000000;fill-rule:evenodd;fill-opacity:1;stroke:none;" />
  <path
     id="path25"
     d="  M 283.12288,267.22213   L 282.47648,273.36146   L 281.99168,279.50078   L 281.34528,285.47854   L 280.69888,291.4563   L 279.89088,297.43407   L 279.24448,303.57339   L 278.43649,309.87427   L 277.95169,316.65984   L 276.01249,318.43701   L 274.23489,319.24482   L 272.13409,319.40638   L 270.03329,319.24482   L 267.7709,318.76014   L 265.6701,318.76014   L 263.5693,319.24482   L 261.7917,320.69887   L 259.20611,320.53731   L 256.45891,320.21419   L 253.55011,319.89107   L 250.80292,319.7295   L 247.73252,319.40638   L 244.82372,319.56794   L 241.91493,319.89107   L 239.16773,320.69887   L 239.65253,317.30609   L 239.65253,314.07486   L 239.32933,310.84364   L 239.00613,307.77398   L 238.52133,304.54276   L 238.35973,301.47309   L 238.35973,298.24187   L 239.16773,295.01065   L 248.21732,272.23053   L 251.77252,271.74584   L 255.65091,271.90741   L 259.85251,272.23053   L 264.0541,272.55365   L 267.9325,272.23053   L 271.81089,271.58428   L 275.04289,269.96867   L 277.95169,267.22213   L 283.12288,267.22213  z "
     style="fill:#990000;fill-rule:evenodd;fill-opacity:1;stroke:none;" />
</svg>
