<?xml version="1.0" encoding="UTF-8" standalone="no"?>
<svg
   xmlns:dc="http://purl.org/dc/elements/1.1/"
   xmlns:cc="http://creativecommons.org/ns#"
   xmlns:rdf="http://www.w3.org/1999/02/22-rdf-syntax-ns#"
   xmlns:svg="http://www.w3.org/2000/svg"
   xmlns="http://www.w3.org/2000/svg"
   id="svg47"
   height="178.9736mm"
   width="129.80825mm"
   version="1.0">
  <metadata
     id="metadata51">
    <rdf:RDF>
      <cc:Work
         rdf:about="">
        <dc:format>image/svg+xml</dc:format>
        <dc:type
           rdf:resource="http://purl.org/dc/dcmitype/StillImage" />
        <dc:title></dc:title>
      </cc:Work>
    </rdf:RDF>
  </metadata>
  <defs
     id="defs3">
    <pattern
       y="0"
       x="0"
       height="6"
       width="6"
       patternUnits="userSpaceOnUse"
       id="WMFhbasepattern" />
  </defs>
  <path
     id="path5"
     d="  M 429.69391,38.136541   L 428.40112,37.81335   L 426.94672,37.328564   L 425.33072,36.520586   L 423.71472,35.712609   L 421.77552,34.743036   L 420.15953,34.096654   L 418.70513,33.450271   L 417.73553,33.450271   L 417.57393,31.834316   L 417.25073,31.187934   L 416.92753,31.026339   L 416.60433,31.026339   L 416.11953,30.864743   L 415.79633,30.703148   L 415.47313,29.89517   L 415.47313,28.602406   L 412.07953,28.279215   L 408.52434,27.794428   L 404.64594,26.986451   L 400.76755,26.178473   L 396.56595,25.2089   L 392.36436,24.562518   L 388.00116,23.916136   L 383.63797,23.916136   L 361.17559,41.691643   L 361.17559,74.657128   L 360.20599,74.980319   L 359.23639,75.949892   L 358.42839,77.242656   L 357.782,79.020207   L 356.974,80.797757   L 356.6508,82.575308   L 356.3276,84.029667   L 356.3276,85.322432   L 351.6412,87.746364   L 349.37881,92.432634   L 346.95481,92.432634   L 345.82361,92.432634   L 343.39961,94.856567   L 343.23801,96.472522   L 342.91481,98.411668   L 342.43001,100.35081   L 342.10681,102.45156   L 341.62201,104.3907   L 341.29881,106.32985   L 340.97561,108.26899   L 340.97561,110.20814   L 340.00602,110.20814   L 339.19802,110.85452   L 338.22842,111.6625   L 337.74362,112.79367   L 336.93562,113.76324   L 336.61242,115.05601   L 336.28922,116.02558   L 336.28922,117.15675   L 334.02682,119.58068   L 332.24922,119.74228   L 331.11803,120.71185   L 329.98683,121.84302   L 329.50203,123.29738   L 328.69403,124.75174   L 328.20923,126.36769   L 327.56283,127.82205   L 326.91643,129.11482   L 324.49243,129.11482   L 323.36123,130.24598   L 322.23004,132.02354   L 320.93724,134.28587   L 319.96764,136.70981   L 318.83644,138.97214   L 318.02844,141.23448   L 317.38204,143.01203   L 317.38204,144.46639   L 316.57404,144.95118   L 315.92764,146.56713   L 314.95804,148.82947   L 313.98845,151.73819   L 313.01885,154.48531   L 312.21085,157.23244   L 311.56445,159.33318   L 311.56445,160.94913   L 310.43325,161.59551   L 309.30205,163.04987   L 308.00925,164.82742   L 306.71645,166.92817   L 305.26205,168.86731   L 304.13086,170.96805   L 302.83806,172.58401   L 302.03006,173.87677   L 301.86846,175.49273   L 301.54526,177.27028   L 301.06046,178.72464   L 300.57566,180.34059   L 299.76766,181.47176   L 298.95966,182.44134   L 298.15166,183.08772   L 297.34366,183.41091   L 297.18206,184.21889   L 296.85886,185.18846   L 296.21247,186.31963   L 295.72767,187.4508   L 294.91967,188.42037   L 294.27327,189.55154   L 293.46527,190.52111   L 292.65727,191.65228   L 292.65727,201.02482   L 285.70848,209.91257   L 279.89088,220.25469   L 274.71969,231.56637   L 270.19489,243.36284   L 265.3469,254.99772   L 260.33731,266.30941   L 254.51971,276.32833   L 247.73252,284.89289   L 247.73252,292.00309   L 245.63172,292.97267   L 243.69252,295.88139   L 241.59173,299.75968   L 239.49093,304.60754   L 237.39013,309.45541   L 235.45093,313.81849   L 233.67334,317.21199   L 232.38054,319.15114   L 232.21894,320.12071   L 231.89574,321.57507   L 231.24934,323.02943   L 230.60294,324.80698   L 229.63334,326.09975   L 228.66374,327.39251   L 227.53254,328.20049   L 226.40134,328.68528   L 225.75494,333.37155   L 224.62375,339.67377   L 222.68455,346.78397   L 220.42215,354.37896   L 217.83655,361.65076   L 215.41256,368.43777   L 212.98856,374.09362   L 211.04936,378.2951   L 208.78696,378.2951   L 208.78696,380.55744   L 208.78696,382.98137   L 206.36297,382.98137   L 205.07017,385.72849   L 203.45417,390.57636   L 201.51497,396.3938   L 199.25257,402.85762   L 196.66698,408.99825   L 193.91978,414.3309   L 191.17258,418.0476   L 188.74859,419.50196   L 188.42539,420.79472   L 187.94059,422.57227   L 187.13259,424.51142   L 186.32459,426.77375   L 185.35499,428.7129   L 184.54699,430.97524   L 183.90059,432.91438   L 183.90059,435.01512   L 182.28459,435.01512   L 181.63819,435.33832   L 181.47659,435.66151   L 181.47659,436.14629   L 181.315,436.46948   L 181.1534,436.79268   L 180.3454,437.11587   L 179.2142,437.27746   L 179.2142,444.38766   L 177.9214,444.71086   L 177.1134,446.00362   L 176.3054,447.78117   L 175.9822,450.2051   L 175.659,452.62904   L 175.659,455.21456   L 175.659,457.4769   L 175.659,459.73924   L 176.9518,462.16317   L 179.699,462.48636   L 183.09259,463.45594   L 186.80939,464.91029   L 191.01098,466.84944   L 195.21258,468.4654   L 199.73737,469.91976   L 204.10057,471.05092   L 208.78696,471.53571   L 209.11016,472.82848   L 210.07976,473.63645   L 210.72616,473.63645   L 211.53416,473.79805   L 212.50376,473.79805   L 213.47336,473.95964   L 213.47336,475.09081   L 213.79656,475.89879   L 214.11976,476.06039   L 214.60456,476.22198   L 214.92776,476.22198   L 215.41256,476.38358   L 215.73576,477.02996   L 215.89736,478.64591   L 217.51335,478.64591   L 219.29095,478.80751   L 221.06855,478.9691   L 222.84615,479.45389   L 224.46215,479.93868   L 226.40134,480.58506   L 228.01734,481.23144   L 229.95654,482.20101   L 229.95654,455.05297   L 230.76454,453.59861   L 232.21894,451.49787   L 233.67334,448.75074   L 235.28933,446.16522   L 236.74373,443.2565   L 238.19813,440.67097   L 239.49093,438.40863   L 240.62213,437.27746   L 243.04613,432.59119   L 243.04613,430.16726   L 243.04613,427.90492   L 247.73252,423.05706   L 248.37892,411.74537   L 250.47972,398.65613   L 253.71171,384.43573   L 257.75171,369.89213   L 261.9533,355.18694   L 266.6397,340.96654   L 270.84129,328.03889   L 274.88129,316.8888   L 274.88129,315.75764   L 275.52769,314.62647   L 276.17409,313.3337   L 277.14369,312.36413   L 277.95169,311.23296   L 278.75968,310.42498   L 279.24448,309.7786   L 279.56768,309.7786   L 279.56768,301.53723   L 281.02208,300.89085   L 282.31488,299.59808   L 283.12288,297.49734   L 283.76928,295.235   L 284.09248,292.64948   L 284.25408,290.38714   L 284.25408,288.44799   L 284.41568,287.31682   L 284.73888,286.83204   L 285.54688,285.70087   L 286.19328,284.24651   L 286.67808,282.63055   L 287.48607,281.98417   L 288.45567,280.853   L 289.42527,278.91386   L 290.55647,276.97471   L 291.20287,274.55078   L 292.01087,272.45004   L 292.33407,270.67249   L 292.65727,269.54132   L 294.11167,268.89494   L 295.24287,267.27898   L 296.21247,265.01664   L 297.34366,262.43112   L 298.15166,259.68399   L 299.12126,257.58325   L 300.25246,255.96729   L 302.03006,255.48251   L 302.67646,251.11943   L 304.77726,246.75635   L 307.52445,242.23168   L 310.91805,237.707   L 313.98845,232.85914   L 316.89724,228.33446   L 318.99804,223.97138   L 319.80604,219.9315   L 323.19963,218.47714   L 326.75483,214.76044   L 330.14843,209.58938   L 333.70362,203.93354   L 337.09722,197.95451   L 340.49082,192.94504   L 343.72281,189.38994   L 346.95481,188.09718   L 346.95481,185.67325   L 346.95481,183.41091   L 348.40921,182.92612   L 349.5404,181.79495   L 350.51,180.179   L 351.6412,178.56304   L 352.4492,176.6239   L 353.4188,175.16954   L 354.55,174.19996   L 356.3276,173.87677   L 356.8124,170.48327   L 358.58999,166.12019   L 360.85239,160.94913   L 363.76119,155.77808   L 366.66999,150.60702   L 369.74038,145.92075   L 372.16438,142.04246   L 374.10358,139.61852   L 374.10358,137.67938   L 374.42678,135.90183   L 374.91158,133.96268   L 375.71958,132.18513   L 376.52757,130.40758   L 377.49717,128.95322   L 378.62837,127.49886   L 380.08277,126.69088   L 381.21397,126.69088   L 382.02197,125.39812   L 383.15317,123.62057   L 384.28437,121.68142   L 385.57716,119.74228   L 386.38516,117.80313   L 387.35476,116.34877   L 388.00116,115.2176   L 388.32436,114.89441   L 388.32436,107.78421   L 393.01076,104.22911   L 393.01076,101.80517   L 393.01076,99.542837   L 393.81875,98.250073   L 395.11155,96.795713   L 396.24275,95.179758   L 397.69715,93.563803   L 398.98995,91.624657   L 400.28275,90.170297   L 401.25235,88.715937   L 402.38355,87.746364   L 402.38355,85.322432   L 402.38355,83.060094   L 403.19154,82.575308   L 404.48434,81.605735   L 405.77714,80.312971   L 407.23154,78.858611   L 408.68594,77.242656   L 410.14034,75.949892   L 411.59473,74.980319   L 413.04913,74.657128   L 413.04913,73.687555   L 413.37233,72.717981   L 413.69553,71.586813   L 414.18033,70.61724   L 414.50353,69.647667   L 414.98833,68.839689   L 415.31153,68.031712   L 415.47313,67.708521   L 417.73553,65.284588   L 420.15953,65.284588   L 420.15953,62.860655   L 422.58352,62.860655   L 424.84592,59.951936   L 426.62352,57.043217   L 427.75472,53.972902   L 428.72432,50.902587   L 429.20911,47.509081   L 429.53231,44.277171   L 429.53231,41.045261   L 429.69391,38.136541  z "
     style="fill:#cc6633;fill-rule:evenodd;fill-opacity:1;stroke:none;" />
  <path
     id="path7"
     d="  M 201.67657,351.14705   L 197.31338,351.14705   L 192.95018,351.79343   L 188.42539,352.43982   L 183.90059,353.40939   L 179.2142,354.21737   L 174.6894,355.02535   L 170.32621,355.51013   L 166.28621,355.83332   L 166.12461,356.96449   L 165.80141,357.77247   L 165.31661,357.93406   L 164.99341,358.09566   L 164.50861,358.09566   L 164.18541,358.25726   L 163.86221,358.90364   L 163.86221,360.51959   L 161.59982,360.51959   L 159.17582,360.51959   L 158.04462,361.32757   L 156.91342,362.13555   L 155.62062,362.94353   L 154.65103,363.9131   L 153.51983,364.55948   L 152.71183,365.20586   L 152.06543,365.85224   L 152.06543,366.49863   L 149.64143,366.49863   L 147.37903,366.49863   L 147.37903,372.31607   L 146.24783,372.31607   L 146.24783,374.74   L 146.24783,375.87117   L 143.82384,375.87117   L 142.36944,379.42627   L 142.04624,384.43573   L 142.36944,390.41476   L 143.33904,397.04018   L 144.30864,403.18081   L 145.60144,408.67506   L 146.57103,412.71494   L 147.37903,414.81569   L 147.37903,446.8116   L 146.57103,446.8116   L 145.76304,447.45798   L 144.79344,448.26596   L 143.82384,449.23553   L 142.85424,450.2051   L 142.04624,451.17468   L 141.39984,451.82106   L 141.39984,452.62904   L 134.28945,452.62904   L 133.64305,452.79063   L 132.35025,453.7602   L 130.41105,454.89137   L 128.31025,456.34573   L 126.04786,457.80009   L 124.27026,459.41605   L 122.81586,460.87041   L 122.49266,462.16317   L 120.87666,462.16317   L 119.26067,462.48636   L 117.32147,462.97115   L 115.54387,463.77913   L 113.60467,464.5871   L 111.98867,465.87987   L 110.53428,467.33423   L 109.56468,469.11178   L 107.14068,469.11178   L 104.87828,469.11178   L 104.55508,469.91976   L 103.90868,471.21252   L 102.93908,472.34369   L 102.13108,473.79805   L 100.83829,475.09081   L 99.707087,476.38358   L 98.575889,477.51475   L 97.767889,478.64591   L 96.475091,478.64591   L 95.343892,478.64591   L 93.889494,478.80751   L 92.435096,479.1307   L 90.819097,479.2923   L 89.364699,479.45389   L 87.910301,479.61549   L 87.102302,479.77708   L 86.617502,481.23144   L 85.486303,482.6858   L 83.870305,483.81697   L 82.092707,484.94814   L 79.83031,485.75612   L 78.052712,486.4025   L 76.275114,486.72569   L 75.305515,486.88728   L 75.143915,488.01845   L 74.820715,488.82643   L 74.335916,488.98803   L 74.012716,489.14962   L 73.527917,489.14962   L 73.204717,489.31122   L 72.881518,489.9576   L 72.881518,491.57355   L 71.10392,491.57355   L 69.649521,492.21994   L 68.195123,493.02791   L 67.063924,493.99749   L 65.932725,494.80547   L 64.801527,495.61344   L 63.508728,496.09823   L 62.377529,496.42142   L 62.21593,497.55259   L 61.89273,498.36057   L 61.407931,498.52216   L 61.084731,498.68376   L 60.599931,498.68376   L 60.276732,498.84535   L 59.953532,499.49173   L 59.953532,501.10769   L 58.499134,501.10769   L 57.529535,501.43088   L 56.721536,501.75407   L 56.236736,502.40045   L 55.590337,503.04684   L 55.428737,503.85481   L 55.267138,504.82439   L 55.267138,505.79396   L 48.156746,505.79396   L 47.510346,507.08672   L 46.217548,509.51066   L 44.11675,512.25778   L 41.854353,515.48969   L 39.268756,518.39841   L 37.006358,520.98394   L 35.06716,522.76149   L 33.935962,523.56947   L 33.289562,532.45722   L 32.319963,542.79933   L 31.027165,553.62623   L 29.895966,565.09951   L 29.087967,576.08801   L 29.411167,586.91491   L 30.703965,596.61064   L 33.935962,605.01361   L 36.359959,605.01361   L 36.683159,606.30637   L 37.652757,608.56871   L 39.107156,611.15424   L 41.046354,614.38615   L 42.662352,617.29486   L 44.11675,620.20358   L 45.247949,622.30433   L 45.732748,623.92028   L 48.318345,624.24347   L 50.903942,625.05145   L 53.32794,626.34421   L 55.913537,627.96017   L 58.014334,629.41453   L 60.115132,630.70729   L 61.89273,631.67687   L 63.508728,632.16165   L 63.508728,632.96963   L 64.155127,633.77761   L 65.124726,634.58559   L 66.417525,635.39356   L 67.710323,635.87835   L 69.326322,636.36314   L 70.94232,636.68633   L 72.881518,636.84792   L 75.305515,641.69579   L 76.921513,641.69579   L 78.699111,642.01898   L 80.476709,642.34217   L 82.254307,642.82696   L 84.031905,643.15015   L 85.809503,643.47334   L 87.587101,643.79653   L 89.526299,643.95812   L 90.657498,645.57408   L 93.727894,647.35163   L 98.091089,648.80599   L 103.42388,650.42195   L 108.75668,651.55311   L 113.76627,652.52269   L 117.64467,653.16907   L 120.23026,653.49226   L 127.34066,660.60246   L 139.29904,664.31916   L 154.32783,665.28873   L 171.45741,664.48076   L 188.91019,662.21842   L 205.39337,659.79449   L 219.45255,657.85534   L 229.95654,657.04736   L 231.41094,655.26981   L 235.77413,653.16907   L 241.75333,650.42195   L 248.86372,647.35163   L 255.65091,643.47334   L 261.7917,639.43345   L 265.9933,634.74718   L 267.7709,629.73772   L 272.61889,628.60655   L 272.61889,626.18262   L 272.61889,623.92028   L 276.33569,622.78911   L 279.40608,619.88039   L 281.66848,615.67891   L 283.60768,611.15424   L 285.06208,606.30637   L 286.67808,601.94329   L 288.13247,598.38819   L 290.23327,596.77223   L 290.23327,590.30841   L 290.71807,580.93587   L 291.04127,569.46259   L 291.52607,557.50452   L 291.20287,545.54646   L 290.55647,535.20434   L 289.10207,527.44776   L 286.67808,523.56947   L 286.19328,521.14553   L 285.38528,517.91362   L 284.09248,514.19693   L 282.47648,510.48023   L 280.53728,506.76353   L 278.59809,503.85481   L 276.65889,501.75407   L 274.88129,501.10769   L 274.88129,496.42142   L 272.61889,496.42142   L 271.64929,494.96706   L 271.00289,493.02791   L 270.51809,490.44239   L 270.35649,487.85686   L 270.19489,484.94814   L 270.19489,482.52421   L 270.19489,480.26187   L 270.19489,478.64591   L 271.81089,476.86836   L 273.58849,475.414   L 275.20449,473.95964   L 276.82049,472.66688   L 278.11329,471.21252   L 279.56768,469.91976   L 280.86048,468.3038   L 281.99168,466.84944   L 283.60768,466.36465   L 285.22368,465.23349   L 286.19328,463.77913   L 286.67808,462.16317   L 288.13247,461.67838   L 289.58687,460.87041   L 290.23327,460.38562   L 290.87967,460.06243   L 291.68767,459.73924   L 292.65727,459.73924   L 293.46527,458.12328   L 295.88927,455.86095   L 299.44446,452.95223   L 303.64606,449.88191   L 307.84765,446.8116   L 311.88765,444.22607   L 315.11964,442.44852   L 317.38204,441.96373   L 317.54364,440.67097   L 318.51324,439.05501   L 319.64444,436.95427   L 321.09884,434.85353   L 322.55324,432.59119   L 324.16923,430.65205   L 325.62363,428.8745   L 326.91643,427.90492   L 326.91643,410.12942   L 325.94683,409.15984   L 324.97723,408.19027   L 324.16923,407.38229   L 323.52283,406.57431   L 322.71484,405.60474   L 322.39164,404.63517   L 322.06844,403.82719   L 322.06844,403.01921   L 320.45244,402.85762   L 319.80604,402.53443   L 319.64444,402.21124   L 319.64444,401.88804   L 319.48284,401.40326   L 319.32124,401.08007   L 318.51324,400.75688   L 317.38204,400.75688   L 317.22044,399.7873   L 317.05884,398.81773   L 316.73564,398.00975   L 316.41244,397.36337   L 315.28124,396.2322   L 313.82685,395.90901   L 313.34205,395.10103   L 312.21085,393.96986   L 310.59485,392.5155   L 308.81725,391.22274   L 306.55485,389.76838   L 304.77726,388.63721   L 302.99966,387.82923   L 302.03006,387.66764   L 301.86846,386.05168   L 301.54526,385.4053   L 301.22206,385.24371   L 300.89886,385.24371   L 300.41406,385.08211   L 300.09086,384.92052   L 299.76766,384.11254   L 299.76766,382.98137   L 298.79806,382.81977   L 297.82846,382.49658   L 297.02046,381.8502   L 296.37406,381.36541   L 295.24287,379.91105   L 294.91967,378.2951   L 292.65727,378.2951   L 290.23327,378.2951   L 289.10207,374.74   L 286.67808,374.74   L 284.41568,374.74   L 284.25408,373.12404   L 283.93088,372.47766   L 283.44608,372.31607   L 283.12288,372.31607   L 282.63808,372.15447   L 282.31488,371.99287   L 281.99168,371.1849   L 281.99168,370.05373   L 274.88129,370.05373   L 274.88129,372.15447   L 275.04289,375.06319   L 275.36609,378.45669   L 275.68929,382.33499   L 275.68929,385.89009   L 275.68929,389.44519   L 275.36609,392.35391   L 274.88129,394.77784   L 272.61889,394.77784   L 270.19489,399.62571   L 266.8013,408.83665   L 262.7613,420.63312   L 258.55971,434.04555   L 254.03491,446.97319   L 249.83332,458.28488   L 246.11652,466.04146   L 243.04613,469.11178   L 243.04613,473.95964   L 240.62213,473.95964   L 240.62213,478.64591   L 239.65253,478.64591   L 238.84453,479.1307   L 237.87493,479.61549   L 237.39013,480.58506   L 236.58213,481.55463   L 236.25893,482.52421   L 235.93573,483.49378   L 235.93573,484.46335   L 230.76454,484.14016   L 225.59334,483.49378   L 220.09895,482.52421   L 214.60456,481.55463   L 208.94856,480.42346   L 203.61577,479.45389   L 198.28298,478.80751   L 193.43498,478.64591   L 190.20298,475.89879   L 186.64779,473.63645   L 182.60779,471.53571   L 178.5678,469.75816   L 174.2046,467.98061   L 170.32621,466.52625   L 166.77101,465.23349   L 163.86221,464.42551   L 163.37742,459.09286   L 162.56942,452.79063   L 161.43822,445.68043   L 160.79182,438.57023   L 160.63022,431.46002   L 161.76142,425.31939   L 164.18541,420.30993   L 168.54861,417.23962   L 168.54861,414.81569   L 168.54861,412.55335   L 169.84141,412.39175   L 170.64941,412.06856   L 170.81101,411.58378   L 170.97261,411.26058   L 170.97261,410.7758   L 171.13421,410.45261   L 171.78061,410.12942   L 173.3966,410.12942   L 173.3966,408.83665   L 173.8814,407.54389   L 174.3662,405.76634   L 175.3358,404.15038   L 176.3054,402.37283   L 177.275,400.75688   L 178.2446,399.30252   L 179.2142,398.33294   L 179.2142,396.87858   L 179.8606,395.74741   L 180.507,394.61625   L 181.47659,393.64667   L 182.28459,392.6771   L 183.09259,391.70753   L 183.57739,390.89955   L 183.90059,390.09157   L 186.32459,385.4053   L 186.32459,382.65818   L 186.97099,380.07265   L 187.61739,377.64872   L 188.58699,375.22478   L 189.39499,372.63926   L 190.20298,370.21532   L 190.68778,367.6298   L 191.01098,365.20586   L 191.01098,364.72108   L 191.65738,363.58991   L 192.30378,361.81236   L 193.27338,359.87321   L 194.08138,357.44928   L 194.88938,355.18694   L 195.37418,352.9246   L 195.69738,351.14705   L 201.67657,351.14705  z "
     style="fill:#990099;fill-rule:evenodd;fill-opacity:1;stroke:none;" />
  <path
     id="path9"
     d="  M 186.32459,484.46335   L 187.94059,484.78654   L 189.55659,485.59452   L 190.52618,486.4025   L 191.01098,486.88728   L 195.69738,486.88728   L 195.69738,489.31122   L 199.25257,489.31122   L 204.10057,491.57355   L 206.36297,493.99749   L 206.36297,496.42142   L 208.78696,498.68376   L 209.59496,498.68376   L 210.88776,499.33014   L 212.01896,499.97652   L 213.47336,500.94609   L 214.76616,501.75407   L 216.05896,502.56205   L 217.02855,503.04684   L 218.15975,503.37003   L 218.15975,505.79396   L 218.15975,508.21789   L 219.77575,508.54108   L 221.39175,509.51066   L 223.00775,510.48023   L 224.78535,511.77299   L 226.40134,512.90416   L 228.17894,514.19693   L 230.11814,515.3281   L 232.38054,516.45926   L 232.38054,530.51807   L 222.84615,534.88115   L 212.34216,536.98189   L 201.19177,537.30509   L 189.71819,536.33551   L 177.9214,534.55796   L 166.77101,532.61882   L 155.94382,531.00286   L 146.24783,530.51807   L 144.63184,528.90212   L 142.36944,526.47819   L 139.46064,523.40787   L 136.39025,520.17596   L 132.83505,516.94405   L 129.76465,514.19693   L 126.85586,512.41938   L 124.91666,511.77299   L 124.91666,493.99749   L 127.34066,493.99749   L 127.34066,489.31122   L 128.95665,488.82643   L 130.73425,488.01845   L 131.54225,487.53367   L 132.51185,487.21048   L 133.31985,486.88728   L 134.28945,486.88728   L 134.28945,485.10973   L 134.93585,483.97857   L 135.74385,483.00899   L 136.71345,482.36261   L 137.52144,481.71623   L 138.32944,481.06985   L 138.81424,480.42346   L 139.13744,479.77708   L 140.10704,479.61549   L 141.56144,479.61549   L 143.33904,479.61549   L 145.11664,479.61549   L 146.73263,479.2923   L 148.18703,479.1307   L 149.15663,478.80751   L 149.64143,478.64591   L 151.41903,478.64591   L 153.84303,478.64591   L 156.26702,478.80751   L 159.01422,479.1307   L 161.59982,479.2923   L 164.18541,479.45389   L 166.44781,479.61549   L 168.54861,479.77708   L 173.3966,484.46335   L 174.3662,484.46335   L 175.8206,484.78654   L 177.5982,485.10973   L 179.3758,485.91771   L 180.9918,486.56409   L 182.44619,487.37207   L 183.41579,488.34164   L 183.90059,489.31122   L 191.01098,489.31122   L 191.81898,490.28079   L 192.78858,491.73515   L 193.91978,493.18951   L 195.05098,495.12866   L 196.18218,496.74461   L 197.31338,498.36057   L 198.28298,499.81493   L 199.25257,501.10769   L 197.79818,499.81493   L 196.34378,498.36057   L 194.72778,496.42142   L 193.11178,494.48227   L 191.33418,492.05834   L 189.71819,489.63441   L 187.94059,487.04888   L 186.32459,484.46335  z "
     style="fill:#336699;fill-rule:evenodd;fill-opacity:1;stroke:none;" />
  <path
     id="path11"
     d="  M 390.58676,131.37715   L 389.45556,131.86194   L 388.32436,132.83151   L 387.03156,133.80109   L 385.73876,135.09385   L 384.28437,136.22502   L 382.82997,137.51778   L 381.37557,138.48736   L 380.08277,139.61852   L 379.11317,144.62799   L 376.68917,149.15266   L 373.29558,153.51574   L 369.41718,157.87882   L 365.37719,162.0803   L 361.98359,166.44338   L 359.55959,171.12965   L 358.75159,176.30071   L 355.6812,177.75507   L 352.126,181.95655   L 348.24761,187.93558   L 344.53081,195.04579   L 340.81401,202.31758   L 337.74362,209.1046   L 335.31962,214.27565   L 334.02682,217.66916   L 329.82523,226.55691   L 325.30043,237.06062   L 320.29084,248.04911   L 315.60444,259.84559   L 311.07965,271.48046   L 307.68605,282.95375   L 305.26205,293.78065   L 304.45406,303.79957   L 298.79806,308.00105   L 295.08127,314.30328   L 292.65727,322.05986   L 291.04127,330.46283   L 289.26367,338.7042   L 287.32448,346.62238   L 284.09248,353.24779   L 279.56768,358.09566   L 279.56768,365.20586   L 280.37568,365.20586   L 281.18368,365.36746   L 281.99168,365.69065   L 282.79968,366.17544   L 283.28448,366.66022   L 283.93088,367.6298   L 284.25408,368.59937   L 284.41568,370.05373   L 286.03168,370.37692   L 287.48607,371.34649   L 287.97087,371.99287   L 288.61727,372.80085   L 288.94047,373.77042   L 289.10207,374.74   L 290.23327,375.87117   L 291.04127,375.87117   L 291.84927,376.19436   L 292.81887,376.51755   L 293.78847,377.00234   L 294.59647,377.32553   L 295.40447,377.81031   L 296.37406,378.1335   L 297.34366,378.2951   L 297.66686,380.71903   L 299.12126,382.81977   L 300.89886,384.59732   L 303.16126,386.53647   L 305.26205,388.15243   L 307.20125,390.09157   L 308.49405,392.19231   L 309.14045,394.77784   L 310.75645,395.10103   L 312.69565,396.3938   L 314.63484,398.00975   L 316.73564,400.11049   L 318.67484,401.88804   L 320.61404,403.66559   L 322.55324,404.79676   L 324.49243,405.44315   L 324.49243,406.57431   L 325.13883,408.51346   L 325.78523,410.7758   L 326.75483,413.52292   L 327.56283,416.10845   L 328.37083,418.53238   L 328.85563,420.47153   L 329.17883,421.92589   L 331.60283,421.92589   L 331.60283,425.48099   L 334.02682,425.48099   L 333.86522,427.90492   L 333.86522,431.62162   L 333.70362,436.14629   L 333.70362,441.31735   L 333.21882,446.32681   L 332.89562,450.85149   L 332.24922,454.56818   L 331.60283,457.31531   L 329.17883,457.31531   L 326.91643,458.93126   L 324.65403,460.87041   L 321.90684,462.48636   L 319.15964,464.42551   L 316.25084,466.04146   L 313.50365,467.98061   L 311.07965,469.59656   L 309.14045,471.53571   L 309.14045,473.95964   L 308.00925,474.76762   L 306.87805,475.5756   L 305.58525,476.38358   L 304.29246,477.19155   L 302.83806,477.83794   L 301.70686,478.64591   L 300.57566,479.1307   L 299.76766,479.77708   L 297.34366,479.77708   L 292.65727,484.46335   L 292.65727,486.88728   L 290.39487,488.66484   L 288.61727,491.08877   L 287.16288,493.83589   L 286.19328,497.0678   L 285.22368,500.29971   L 284.73888,503.85481   L 284.41568,507.73311   L 284.41568,511.77299   L 289.10207,516.45926   L 289.10207,528.25574   L 289.74847,529.38691   L 291.20287,532.78041   L 292.81887,537.62828   L 294.75807,543.60731   L 296.53566,549.42475   L 298.15166,555.08059   L 299.28286,559.44367   L 299.76766,562.51399   L 300.41406,563.16037   L 301.22206,563.80675   L 302.35326,564.77632   L 303.32286,565.5843   L 304.61566,566.39228   L 305.58525,566.87706   L 306.71645,567.20026   L 306.71645,569.62419   L 306.71645,571.88653   L 311.56445,575.44163   L 311.56445,587.2381   L 313.82685,587.2381   L 314.15004,590.9548   L 313.34205,595.15628   L 311.40285,599.68095   L 309.14045,604.36722   L 306.39325,608.8919   L 304.29246,613.41657   L 302.51486,617.61806   L 302.03006,621.49635   L 301.06046,621.49635   L 300.25246,622.14273   L 299.28286,622.95071   L 298.79806,624.08188   L 297.99006,625.05145   L 297.66686,626.34421   L 297.34366,627.47538   L 297.34366,628.60655   L 294.91967,629.73772   L 294.59647,629.73772   L 294.11167,630.3841   L 293.14207,631.19208   L 292.33407,632.16165   L 291.20287,632.96963   L 290.39487,633.77761   L 289.42527,634.26239   L 289.10207,634.58559   L 289.10207,636.84792   L 289.10207,639.27185   L 287.97087,639.43345   L 286.83968,640.40302   L 285.54688,641.53419   L 284.57728,642.98855   L 283.44608,644.44291   L 282.63808,646.05887   L 281.99168,647.51323   L 281.99168,648.64439   L 286.03168,648.3212   L 290.39487,647.83642   L 294.75807,647.02844   L 299.44446,646.22046   L 303.80766,645.25089   L 308.33245,644.60451   L 312.37245,643.95812   L 316.25084,643.95812   L 316.25084,642.98855   L 316.73564,642.18057   L 317.22044,641.211   L 318.19004,640.72621   L 319.15964,639.91824   L 320.12924,639.59505   L 321.09884,639.27185   L 322.06844,639.27185   L 324.49243,636.84792   L 324.49243,629.73772   L 326.91643,629.73772   L 327.56283,628.60655   L 328.20923,626.6674   L 328.69403,624.08188   L 329.17883,621.33475   L 329.50203,618.26444   L 329.98683,615.51731   L 330.63323,613.25498   L 331.60283,612.12381   L 334.02682,612.12381   L 334.67322,609.69988   L 335.31962,606.79116   L 335.80442,603.23606   L 336.28922,599.68095   L 336.61242,595.80266   L 337.09722,592.40916   L 337.74362,589.33884   L 338.71322,587.2381   L 340.97561,587.2381   L 340.97561,564.77632   L 338.71322,564.77632   L 338.71322,555.40378   L 335.96602,554.11102   L 333.70362,551.0407   L 331.44123,546.67763   L 329.50203,541.82976   L 327.40123,536.8203   L 325.62363,532.45722   L 323.68443,529.38691   L 322.06844,528.25574   L 321.74524,523.56947   L 321.26044,519.04479   L 320.45244,514.19693   L 319.64444,509.51066   L 318.67484,504.5012   L 318.02844,499.49173   L 317.38204,494.32068   L 317.38204,489.31122   L 319.80604,489.31122   L 322.06844,489.31122   L 329.17883,482.20101   L 334.02682,482.20101   L 336.28922,479.77708   L 336.93562,478.48432   L 339.03642,476.06039   L 341.78361,472.82848   L 345.17721,469.27337   L 348.24761,465.71827   L 351.1564,462.64796   L 353.2572,460.38562   L 354.0652,459.73924   L 354.0652,458.60807   L 354.7116,457.4769   L 355.358,456.18414   L 356.3276,455.21456   L 357.1356,454.0834   L 357.9436,453.27542   L 358.42839,452.62904   L 358.75159,452.62904   L 358.75159,449.07393   L 359.07479,445.35724   L 359.39799,441.31735   L 359.88279,437.27746   L 360.20599,432.91438   L 360.69079,428.8745   L 361.01399,425.1578   L 361.17559,421.92589   L 360.04439,420.47153   L 358.75159,418.53238   L 357.2972,416.10845   L 356.0044,413.84611   L 354.3884,411.42218   L 352.7724,409.48303   L 350.9948,408.02867   L 349.37881,407.70548   L 346.95481,405.44315   L 346.95481,403.01921   L 346.95481,400.75688   L 343.39961,398.33294   L 342.43001,395.42422   L 340.16762,392.19231   L 336.93562,388.47562   L 333.05722,384.75892   L 328.53243,381.20382   L 324.33083,378.45669   L 320.45244,376.51755   L 317.38204,375.87117   L 316.73564,374.74   L 315.28124,373.60883   L 314.31164,372.96245   L 313.34205,372.63926   L 312.37245,372.31607   L 311.56445,372.31607   L 310.43325,366.98341   L 307.68605,362.29714   L 304.13086,357.44928   L 300.41406,352.9246   L 297.02046,347.91514   L 294.91967,342.90568   L 294.75807,337.08824   L 297.34366,330.94761   L 299.76766,330.94761   L 299.76766,328.68528   L 299.76766,326.26134   L 302.03006,326.26134   L 302.03006,321.57507   L 306.71645,316.8888   L 306.71645,314.46487   L 306.71645,312.04094   L 316.25084,303.79957   L 316.25084,301.53723   L 316.25084,299.1133   L 317.22044,297.82053   L 318.19004,296.52777   L 318.99804,294.75022   L 319.80604,293.13426   L 320.61404,291.35671   L 321.58364,289.74076   L 322.71484,288.2864   L 324.49243,287.31682   L 324.65403,285.86246   L 325.62363,283.76172   L 326.75483,281.1762   L 328.20923,278.59067   L 329.66363,276.00514   L 331.27963,273.9044   L 332.73402,272.45004   L 334.02682,271.96525   L 334.02682,270.67249   L 334.35002,268.89494   L 334.67322,266.95579   L 335.31962,265.01664   L 335.96602,263.0775   L 336.77402,261.62314   L 337.74362,260.49197   L 338.71322,260.16878   L 339.19802,256.93687   L 340.65241,252.57379   L 342.91481,247.07954   L 345.66201,241.58529   L 348.57081,235.92945   L 351.4796,231.24318   L 354.0652,227.68808   L 356.3276,225.91053   L 356.3276,224.45617   L 356.974,223.00181   L 357.782,221.38585   L 358.75159,219.7699   L 359.55959,217.99235   L 360.36759,216.2148   L 360.85239,214.43725   L 361.17559,212.82129   L 365.21559,210.39736   L 369.09398,204.25673   L 372.48758,195.53057   L 376.04277,185.67325   L 379.11317,175.65432   L 382.18357,166.92817   L 385.09236,160.78754   L 388.32436,158.5252   L 388.32436,157.23244   L 388.64756,155.61648   L 388.97076,153.67733   L 389.61716,151.73819   L 390.26356,149.63745   L 391.07156,148.18309   L 392.04116,147.05192   L 393.01076,146.72873   L 393.01076,144.62799   L 393.65715,142.68884   L 394.46515,140.5881   L 395.59635,138.64895   L 396.56595,136.70981   L 397.85875,135.09385   L 398.98995,133.63949   L 400.12115,132.66992   L 400.12115,126.69088   L 398.02035,126.52929   L 395.91955,126.36769   L 393.49556,126.2061   L 391.71796,126.36769   L 390.10196,126.52929   L 389.29396,127.49886   L 389.29396,128.95322   L 390.58676,131.37715  z "
     style="fill:#0000ff;fill-rule:evenodd;fill-opacity:1;stroke:none;" />
  <path
     id="path13"
     d="  M 201.67657,679.34754   L 202.48457,678.86276   L 203.45417,678.53956   L 204.58537,678.21637   L 205.71657,678.21637   L 206.84777,677.89318   L 207.97896,677.56999   L 208.94856,677.2468   L 209.91816,677.08521   L 217.19015,676.11563   L 224.13895,674.82287   L 230.76454,672.88372   L 237.39013,670.62138   L 243.85412,667.71267   L 250.47972,664.80395   L 257.10531,661.41044   L 264.2157,658.17853   L 270.67969,650.42195   L 277.14369,642.82696   L 282.96128,634.74718   L 288.61727,626.50581   L 293.46527,617.77965   L 297.99006,608.8919   L 301.54526,599.51936   L 304.45406,589.66203   L 304.93886,581.58226   L 304.93886,573.98727   L 304.29246,566.23068   L 303.48446,558.95888   L 302.03006,551.52549   L 300.57566,544.0921   L 298.95966,536.6587   L 297.34366,529.38691   L 294.27327,524.21585   L 290.87967,518.39841   L 287.32448,511.77299   L 284.25408,504.98598   L 281.66848,497.87578   L 280.21408,491.25036   L 280.21408,484.94814   L 281.99168,479.77708   L 285.22368,476.70677   L 288.94047,474.28283   L 293.14207,471.8589   L 297.50526,469.75816   L 301.86846,467.33423   L 306.55485,465.07189   L 310.75645,462.48636   L 315.11964,459.73924   L 319.32124,453.9218   L 323.19963,448.42755   L 326.75483,442.77171   L 329.82523,437.27746   L 332.08762,431.29843   L 333.54202,424.9962   L 334.18842,418.37079   L 334.02682,411.26058   L 333.86522,410.29101   L 333.70362,409.48303   L 333.38042,408.51346   L 333.21882,407.70548   L 332.73402,406.73591   L 332.41082,405.92793   L 331.92602,404.95836   L 331.60283,404.15038   L 325.13883,398.33294   L 318.51324,393.00029   L 311.56445,387.66764   L 304.77726,382.98137   L 297.66686,378.2951   L 290.71807,374.09362   L 283.93088,370.05373   L 277.30529,366.49863   L 282.96128,366.33703   L 289.74847,368.27618   L 297.02046,371.34649   L 304.61566,375.54798   L 312.04925,380.07265   L 318.99804,384.92052   L 325.13883,389.44519   L 330.47163,393.64667   L 336.12762,403.3424   L 340.32922,413.36133   L 342.59161,423.21865   L 343.23801,433.23757   L 341.46041,442.77171   L 337.74362,452.46744   L 331.76442,461.51679   L 323.36123,470.40454   L 321.26044,472.0205   L 319.32124,473.79805   L 317.05884,475.414   L 314.95804,477.02996   L 312.53405,478.32272   L 310.11005,479.77708   L 307.68605,481.06985   L 305.58525,482.20101   L 300.25246,483.17059   L 295.88927,485.10973   L 292.65727,487.53367   L 290.39487,490.76558   L 289.10207,494.48227   L 288.94047,498.84535   L 289.58687,503.69322   L 291.36447,509.34906   L 296.53566,517.42884   L 301.22206,526.15499   L 305.26205,535.20434   L 308.81725,544.90007   L 311.72605,554.43421   L 314.47324,564.61473   L 316.57404,574.63365   L 318.67484,584.97576   L 318.02844,589.82363   L 317.54364,594.67149   L 316.89724,599.51936   L 316.08924,604.36722   L 314.95804,609.21509   L 313.82685,614.06295   L 312.21085,618.91082   L 310.27165,623.92028   L 307.52445,626.9906   L 304.77726,630.5457   L 302.03006,633.9392   L 299.28286,637.6559   L 296.05087,641.04941   L 292.81887,644.44291   L 289.26367,647.35163   L 285.54688,649.93716   L 282.15328,653.81545   L 275.85089,657.85534   L 267.2861,661.57204   L 257.75171,665.45033   L 247.73252,668.68224   L 238.68293,671.59096   L 231.08774,673.8533   L 226.40134,675.79244   L 223.49255,676.27723   L 220.26055,676.92361   L 216.86695,677.73159   L 213.63496,678.53956   L 210.24136,678.86276   L 207.00937,679.34754   L 204.10057,679.50914   L 201.67657,679.34754  z "
     style="fill:#000000;fill-rule:evenodd;fill-opacity:1;stroke:none;" />
  <path
     id="path15"
     d="  M 163.86221,678.21637   L 154.97422,677.08521   L 146.73263,676.11563   L 138.32944,674.98446   L 130.57265,673.6917   L 122.65426,671.75255   L 115.05907,669.81341   L 107.46388,667.06628   L 100.03029,663.99597   L 78.860711,656.23938   L 59.630333,646.05887   L 42.500752,633.13123   L 28.441568,618.26444   L 17.29118,600.97372   L 10.180788,581.90545   L 7.2719918,561.05963   L 9.2111896,538.92104   L 10.665588,534.88115   L 11.796787,531.81084   L 12.766386,529.22531   L 13.735984,527.28616   L 14.382384,525.18542   L 15.190383,523.08468   L 16.159982,520.49915   L 17.45278,517.59043   L 19.230378,513.87374   L 21.331176,510.15704   L 23.593573,506.27875   L 26.34077,502.72365   L 29.087967,499.00695   L 32.481563,495.77504   L 35.875159,492.86632   L 39.915155,490.44239   L 45.894348,483.97857   L 53.974339,478.16113   L 63.347128,472.66688   L 73.851117,467.81901   L 84.355105,463.13274   L 94.859093,458.93126   L 104.71668,454.89137   L 113.11987,451.49787   L 118.29107,447.94277   L 123.13906,445.03405   L 127.17906,441.96373   L 130.57265,439.05501   L 133.15825,435.49991   L 135.09745,431.62162   L 136.22865,426.61216   L 136.71345,420.79472   L 134.77425,415.13888   L 133.31985,409.96782   L 131.70385,404.95836   L 130.57265,400.27209   L 129.27985,395.58582   L 128.47185,391.06114   L 127.66386,386.53647   L 127.34066,381.8502   L 130.24945,371.83128   L 135.74385,364.07469   L 143.17744,358.09566   L 152.06543,354.05577   L 161.59982,351.14705   L 171.61901,349.69269   L 181.47659,348.88472   L 191.01098,348.72312   L 191.81898,348.72312   L 192.62698,348.72312   L 193.59658,348.88472   L 194.56618,349.20791   L 195.53578,349.3695   L 196.66698,349.5311   L 197.79818,349.69269   L 199.25257,349.85429   L 196.34378,350.33908   L 193.11178,351.14705   L 189.71819,351.95503   L 186.48619,353.24779   L 183.09259,354.37896   L 180.1838,355.99492   L 177.5982,357.44928   L 175.659,359.38842   L 167.57901,362.45874   L 159.98382,365.52905   L 153.03503,368.76096   L 147.05583,372.63926   L 142.04624,377.32553   L 138.65264,383.46616   L 137.03665,391.38434   L 137.84464,401.88804   L 140.26864,407.86708   L 142.53104,414.00771   L 144.30864,419.98674   L 145.27824,426.12737   L 144.95504,432.10641   L 143.82384,438.40863   L 141.07664,444.71086   L 136.71345,451.49787   L 129.44145,457.15371   L 121.52306,462.16317   L 112.95827,466.68785   L 104.23188,470.88933   L 95.182292,474.76762   L 86.294302,478.64591   L 77.567912,482.52421   L 69.326322,486.88728   L 64.478327,489.63441   L 60.276732,492.70472   L 56.236736,496.09823   L 52.68154,499.81493   L 48.964745,503.53162   L 45.571148,507.73311   L 42.015953,511.93459   L 38.622356,516.45926   L 36.683159,519.04479   L 35.06716,521.79192   L 33.612762,524.70064   L 32.158364,527.60935   L 30.703965,530.35648   L 29.411167,533.2652   L 28.118368,536.01232   L 26.82557,538.92104   L 24.239973,547.32401   L 22.462375,555.88857   L 21.331176,564.61473   L 21.331176,573.50248   L 22.139175,582.06704   L 24.239973,590.7932   L 27.795169,599.19617   L 32.804763,607.43754   L 37.329558,616.1637   L 43.470351,624.24347   L 50.580743,631.51527   L 58.822334,638.30228   L 67.548724,643.95812   L 77.083113,649.12918   L 86.617502,653.33066   L 96.636691,657.04736   L 98.575889,657.85534   L 100.67669,658.66332   L 102.61588,659.47129   L 104.71668,660.44087   L 106.65588,661.24884   L 108.75668,662.21842   L 110.69587,663.0264   L 113.11987,663.99597   L 122.00786,666.74309   L 131.21905,669.16703   L 140.75344,670.94458   L 150.44943,672.56053   L 160.14542,673.5301   L 170.16461,674.49968   L 179.8606,675.14606   L 189.87979,675.79244   L 189.87979,676.43882   L 189.87979,676.92361   L 189.87979,677.4084   L 189.87979,678.21637   L 186.64779,678.21637   L 183.41579,678.21637   L 180.0222,678.21637   L 176.7902,678.21637   L 173.3966,678.21637   L 170.16461,678.21637   L 166.77101,678.21637   L 163.86221,678.21637  z "
     style="fill:#000000;fill-rule:evenodd;fill-opacity:1;stroke:none;" />
  <path
     id="path17"
     d="  M 287.97087,663.99597   L 287.00128,663.83437   L 286.19328,663.83437   L 285.54688,663.34959   L 285.54688,662.8648   L 286.83968,662.05682   L 289.42527,660.76406   L 292.49567,658.98651   L 296.21247,657.20896   L 299.92926,655.10822   L 303.64606,653.16907   L 307.20125,651.22992   L 310.27165,649.93716   L 313.18045,647.02844   L 315.76604,644.9277   L 317.70524,643.15015   L 319.64444,641.69579   L 321.09884,640.24143   L 323.03803,638.78707   L 325.13883,636.84792   L 328.04763,634.58559   L 332.89562,626.50581   L 337.25882,618.74922   L 340.65241,610.83104   L 343.23801,602.91286   L 344.69241,594.67149   L 345.33881,586.59172   L 344.85401,578.18875   L 343.39961,569.62419   L 340.49082,562.35239   L 337.58202,555.56538   L 334.51162,548.61677   L 331.44123,541.99136   L 328.04763,535.36594   L 324.81563,528.90212   L 321.58364,522.59989   L 318.67484,516.45926   L 318.19004,514.03533   L 317.86684,511.93459   L 317.70524,509.67225   L 317.70524,507.57151   L 317.70524,505.47077   L 317.86684,503.53162   L 318.19004,501.59248   L 318.67484,499.81493   L 322.87643,494.32068   L 327.72443,489.31122   L 333.05722,484.62495   L 338.71322,480.10027   L 344.20761,475.414   L 349.8636,470.72773   L 355.0348,465.39508   L 359.88279,459.73924   L 361.66039,451.01308   L 362.30679,442.77171   L 361.49879,434.85353   L 359.88279,427.42014   L 357.1356,419.98674   L 353.9036,412.87654   L 350.0252,406.08953   L 345.82361,399.46411   L 341.29881,394.61625   L 336.45082,389.92998   L 330.79483,384.92052   L 325.13883,380.39584   L 319.15964,376.03276   L 313.34205,372.31607   L 307.36285,369.40735   L 302.03006,367.6298   L 306.71645,367.6298   L 311.24125,368.76096   L 315.60444,370.70011   L 320.12924,373.28564   L 324.33083,376.03276   L 328.69403,379.26467   L 332.89562,382.49658   L 337.42042,385.4053   L 346.14681,393.80827   L 354.8732,403.82719   L 362.62999,415.13888   L 369.09398,427.42014   L 373.13398,440.02459   L 374.58838,452.95223   L 372.64918,465.39508   L 366.99319,477.51475   L 365.05399,479.1307   L 363.43799,480.90825   L 361.66039,482.52421   L 360.04439,484.30176   L 358.26679,485.91771   L 356.8124,487.53367   L 355.358,488.98803   L 354.0652,490.44239   L 348.57081,492.38153   L 343.23801,494.80547   L 338.06682,497.71418   L 333.70362,501.10769   L 329.98683,504.98598   L 327.56283,509.51066   L 326.27003,514.35852   L 326.91643,520.01437   L 329.98683,526.47819   L 333.38042,533.1036   L 336.77402,539.89061   L 340.49082,546.67763   L 343.88441,553.30304   L 347.43961,560.25165   L 350.6716,567.03866   L 354.0652,574.31046   L 356.166,584.65257   L 357.1356,594.3483   L 356.4892,603.23606   L 354.55,611.80062   L 351.1564,619.88039   L 346.63161,628.12176   L 340.81401,636.36314   L 334.02682,645.08929   L 329.01723,647.51323   L 323.36123,650.42195   L 317.22044,653.49226   L 310.91805,656.72417   L 304.45406,659.47129   L 298.31326,661.73363   L 292.65727,663.34959   L 287.97087,663.99597  z "
     style="fill:#000000;fill-rule:evenodd;fill-opacity:1;stroke:none;" />
  <path
     id="path19"
     d="  M 209.91816,600.32734   L 200.06057,597.58021   L 190.52618,595.31788   L 180.9918,593.05554   L 171.61901,591.27799   L 162.08462,589.33884   L 152.87343,587.72289   L 143.50064,586.26853   L 134.28945,584.97576   L 131.21905,584.97576   L 127.82546,585.29895   L 124.10866,585.46055   L 120.39186,585.62214   L 116.99827,585.13736   L 114.41267,584.32938   L 112.47347,582.71342   L 111.98867,580.1279   L 119.26067,578.83513   L 126.53266,578.02715   L 133.64305,577.54237   L 140.75344,577.54237   L 147.70223,577.54237   L 154.97422,578.02715   L 162.24622,578.83513   L 169.84141,580.1279   L 173.235,580.77428   L 178.891,582.22864   L 185.67819,584.00619   L 193.27338,586.26853   L 200.22217,588.85405   L 206.36297,591.76277   L 210.56456,594.67149   L 212.34216,597.9034   L 211.37256,598.54979   L 210.72616,599.19617   L 210.24136,599.51936   L 210.07976,600.00414   L 209.91816,600.16574   L 209.91816,600.32734  z "
     style="fill:#000000;fill-rule:evenodd;fill-opacity:1;stroke:none;" />
  <path
     id="path21"
     d="  M 212.34216,592.08596   L 211.21096,591.43958   L 210.72616,589.82363   L 210.56456,587.39969   L 210.88776,584.81417   L 211.21096,581.90545   L 211.69576,579.48151   L 212.01896,577.54237   L 212.34216,576.73439   L 209.43336,574.14886   L 206.36297,572.04812   L 202.96937,570.27057   L 199.73737,568.97781   L 196.18218,567.52345   L 192.78858,566.55387   L 189.39499,565.5843   L 186.32459,564.77632   L 179.2142,563.48356   L 170.32621,561.8676   L 160.14542,560.09005   L 149.64143,558.3125   L 139.13744,556.53495   L 129.76465,555.40378   L 122.00786,554.919   L 116.67507,555.40378   L 116.83667,558.15091   L 117.15987,561.05963   L 116.99827,563.64515   L 116.99827,566.39228   L 116.35187,568.81621   L 115.70547,571.40174   L 114.57427,573.98727   L 113.11987,576.73439   L 110.85747,574.95684   L 109.72628,572.8561   L 109.07988,570.27057   L 109.40308,567.68504   L 109.72628,564.77632   L 110.53428,562.19079   L 111.18067,559.76686   L 111.98867,557.82772   L 111.98867,556.37336   L 111.98867,555.40378   L 111.98867,554.43421   L 111.98867,553.78783   L 112.31187,552.17187   L 113.11987,550.71751   L 114.08947,550.87911   L 116.19027,551.3639   L 119.42226,551.52549   L 124.10866,552.01028   L 130.41105,552.17187   L 138.81424,552.65666   L 149.31823,553.30304   L 162.73102,554.27261   L 168.71021,555.08059   L 175.1742,556.05017   L 181.96139,557.18133   L 188.91019,558.79729   L 195.53578,560.57484   L 202.16137,562.99877   L 208.14056,565.90749   L 213.47336,569.62419   L 214.28136,569.301   L 215.25096,568.97781   L 216.05896,568.49302   L 217.02855,568.33142   L 218.48295,569.94738   L 219.77575,571.56333   L 220.26055,572.37131   L 220.74535,573.66408   L 221.23015,574.95684   L 221.71495,576.73439   L 221.23015,577.38077   L 220.42215,579.31992   L 219.12935,581.90545   L 217.83655,585.13736   L 216.05896,588.04608   L 214.60456,590.47001   L 213.15016,591.92437   L 212.34216,592.08596  z "
     style="fill:#000000;fill-rule:evenodd;fill-opacity:1;stroke:none;" />
  <path
     id="path23"
     d="  M 175.659,552.97985   L 164.67021,549.58634   L 154.97422,545.86965   L 146.40943,541.50657   L 139.13744,536.33551   L 132.83505,529.87169   L 127.98706,522.2767   L 123.94706,513.06576   L 121.36146,502.23886   L 123.62386,491.89675   L 128.63345,483.65537   L 135.74385,477.02996   L 144.63184,472.34369   L 154.32783,469.11178   L 164.50861,467.49582   L 174.3662,467.49582   L 183.90059,469.11178   L 182.93099,469.11178   L 182.12299,469.11178   L 180.8302,469.11178   L 178.891,469.27337   L 175.8206,469.43497   L 171.61901,469.91976   L 165.63981,470.56614   L 158.04462,471.53571   L 151.09583,474.28283   L 145.11664,477.19155   L 139.94544,480.26187   L 135.74385,483.97857   L 132.18865,488.18005   L 129.92625,493.5127   L 128.47185,499.97652   L 128.47185,508.21789   L 130.89585,511.93459   L 133.96625,515.65129   L 137.52144,519.20639   L 141.56144,522.76149   L 145.76304,525.9934   L 150.12623,528.90212   L 154.48943,531.64924   L 159.17582,534.07318   L 166.93261,535.20434   L 174.6894,536.01232   L 182.44619,536.49711   L 190.36458,536.49711   L 198.12138,535.52753   L 205.87817,534.07318   L 213.63496,531.64924   L 221.71495,528.25574   L 228.01734,518.8832   L 228.01734,511.28821   L 223.00775,505.14758   L 214.60456,500.46131   L 203.93897,496.58302   L 192.95018,493.99749   L 182.93099,491.89675   L 175.659,490.44239   L 171.61901,490.60398   L 167.90221,491.08877   L 164.34701,491.57355   L 161.11502,492.21994   L 157.72142,493.02791   L 154.65103,494.48227   L 151.41903,496.25982   L 148.51023,498.68376   L 148.51023,499.16854   L 148.51023,499.81493   L 150.77263,501.26929   L 153.35823,502.56205   L 156.26702,503.37003   L 159.33742,504.01641   L 162.40782,504.3396   L 165.63981,504.5012   L 168.87181,504.5012   L 172.10381,504.66279   L 171.94221,505.63236   L 171.94221,506.92513   L 171.45741,508.21789   L 170.97261,509.34906   L 166.12461,509.18747   L 160.95342,509.02587   L 155.94382,508.54108   L 151.58063,507.57151   L 147.86383,505.79396   L 145.76304,503.20843   L 145.43984,499.65333   L 147.37903,495.12866   L 149.96463,492.86632   L 152.71183,491.08877   L 155.29742,489.14962   L 158.20622,487.69526   L 161.11502,486.2409   L 164.18541,484.78654   L 167.41741,483.49378   L 170.97261,482.20101   L 183.41579,482.03942   L 195.85898,483.33218   L 207.49417,486.07931   L 217.99815,490.76558   L 226.56294,497.2294   L 232.86534,506.27875   L 236.09733,518.07522   L 235.93573,532.94201   L 232.70374,537.62828   L 228.98694,541.34497   L 224.46215,544.0921   L 219.61415,546.35443   L 214.28136,547.80879   L 208.94856,549.26315   L 203.45417,550.39432   L 198.12138,551.84868   L 194.88938,551.84868   L 191.81898,551.84868   L 188.91019,552.01028   L 186.00139,552.33347   L 183.09259,552.49506   L 180.3454,552.65666   L 177.9214,552.81825   L 175.659,552.97985  z "
     style="fill:#000000;fill-rule:evenodd;fill-opacity:1;stroke:none;" />
  <path
     id="path25"
     d="  M 227.69414,492.86632   L 228.01734,486.07931   L 229.14854,479.61549   L 230.60294,473.15167   L 232.54214,466.84944   L 234.31974,460.54722   L 236.09733,454.24499   L 237.39013,448.10436   L 238.35973,441.96373   L 242.88453,430.16726   L 247.40932,418.53238   L 251.44932,406.57431   L 255.65091,394.77784   L 259.52931,382.65818   L 263.4077,370.86171   L 267.2861,359.06523   L 271.32609,347.59195   L 274.71969,339.35058   L 278.27489,331.10921   L 281.66848,322.86784   L 285.22368,314.62647   L 288.61727,306.2235   L 292.49567,298.14372   L 296.37406,290.22554   L 300.89886,282.63055   L 300.89886,281.66098   L 300.89886,280.853   L 301.06046,280.20662   L 301.38366,279.56024   L 301.70686,278.10588   L 302.03006,276.65152   L 308.17085,265.01664   L 314.63484,253.38177   L 321.26044,241.58529   L 327.88603,229.95042   L 334.18842,218.15394   L 340.65241,206.51907   L 346.79321,194.88419   L 352.934,183.41091   L 360.52919,169.67529   L 366.50839,159.33318   L 370.70998,151.73819   L 373.78038,146.56713   L 375.71958,142.85043   L 377.01237,140.5881   L 377.82037,138.81055   L 378.78997,137.35619   L 379.11317,136.38661   L 379.43637,135.90183   L 379.75957,135.57864   L 380.08277,135.57864   L 380.89077,135.25545   L 382.34517,134.93225   L 382.50677,135.41704   L 382.82997,135.74023   L 383.63797,136.06342   L 381.86037,137.51778   L 380.40597,139.61852   L 378.95157,141.88086   L 377.98197,144.62799   L 377.01237,147.21351   L 376.36597,149.96064   L 375.71958,152.54617   L 375.23478,154.9701   L 372.97238,158.3636   L 370.87158,161.91871   L 368.93238,165.47381   L 367.15478,169.1905   L 365.21559,172.58401   L 363.43799,176.13911   L 361.49879,179.69421   L 359.88279,183.41091   L 352.6108,193.59143   L 346.30841,204.74152   L 340.16762,216.37639   L 334.67322,228.49606   L 329.01723,240.61572   L 323.52283,252.73538   L 317.70524,264.37026   L 311.56445,275.52035   L 309.62525,279.56024   L 307.84765,284.08491   L 305.90845,288.93278   L 303.96926,293.78065   L 301.86846,298.46692   L 299.76766,303.31478   L 297.34366,307.67786   L 294.91967,312.04094   L 292.33407,320.6055   L 289.42527,329.17006   L 286.19328,337.41143   L 283.12288,345.65281   L 279.72928,353.89418   L 276.65889,362.13555   L 273.75009,370.53851   L 271.32609,379.42627   L 266.8013,390.41476   L 262.5997,401.72645   L 258.23651,412.87654   L 254.35811,424.51142   L 250.47972,435.9847   L 246.60132,447.78117   L 242.88453,459.41605   L 239.49093,471.53571   L 237.22853,474.44443   L 235.45093,477.02996   L 233.99654,479.1307   L 232.86534,481.23144   L 231.73414,483.17059   L 231.08774,485.75612   L 230.44134,488.82643   L 229.95654,492.86632   L 228.82534,492.86632   L 227.69414,492.86632  z "
     style="fill:#000000;fill-rule:evenodd;fill-opacity:1;stroke:none;" />
  <path
     id="path27"
     d="  M 219.45255,472.66688   L 223.00775,455.05297   L 227.20934,437.76225   L 231.89574,420.79472   L 237.06693,404.15038   L 242.56133,387.50604   L 248.54052,371.34649   L 255.00451,355.18694   L 261.9533,339.35058   L 268.4173,322.38305   L 275.36609,305.73871   L 282.31488,289.09438   L 289.58687,272.77323   L 296.85886,256.29049   L 304.61566,240.13093   L 312.53405,223.97138   L 320.93724,208.13502   L 325.62363,200.21684   L 330.31003,191.81388   L 334.83482,182.92612   L 339.68282,174.19996   L 344.36921,165.31221   L 349.5404,156.90924   L 355.0348,148.99106   L 361.17559,142.04246   L 361.66039,143.01203   L 362.30679,143.17363   L 358.26679,148.02149   L 354.55,153.03095   L 350.8332,158.20201   L 347.43961,163.53466   L 344.04601,168.86731   L 341.29881,174.36156   L 338.55162,179.85581   L 336.28922,185.67325   L 331.76442,191.81388   L 327.72443,198.60089   L 323.68443,205.3879   L 320.12924,212.4981   L 316.41244,219.6083   L 313.18045,226.8801   L 309.78685,233.9903   L 306.71645,241.2621   L 304.13086,245.62518   L 301.70686,250.14986   L 299.44446,254.83613   L 297.34366,259.68399   L 295.24287,264.37026   L 293.14207,269.21813   L 291.04127,274.06599   L 289.10207,279.07545   L 281.02208,298.46692   L 273.42689,318.18157   L 265.9933,337.89622   L 258.88291,357.93406   L 251.77252,377.97191   L 245.14692,398.33294   L 238.52133,418.85557   L 232.38054,439.70139   L 230.44134,443.0949   L 228.82534,446.97319   L 227.37094,450.85149   L 225.91654,455.21456   L 224.46215,459.41605   L 223.16935,463.77913   L 221.87655,468.14221   L 220.58375,472.66688   L 219.45255,472.66688  z "
     style="fill:#000000;fill-rule:evenodd;fill-opacity:1;stroke:none;" />
  <path
     id="path29"
     d="  M 166.28621,465.71827   L 167.90221,455.86095   L 170.48781,446.32681   L 173.5582,436.63108   L 177.275,427.42014   L 180.8302,417.886   L 184.54699,408.51346   L 187.94059,399.30252   L 191.01098,390.09157   L 195.85898,377.00234   L 199.73737,367.3066   L 202.64617,360.1964   L 204.74697,355.18694   L 206.20137,351.47024   L 207.49417,349.04631   L 208.62536,347.10716   L 209.91816,345.16802   L 214.28136,330.78602   L 219.77575,316.56561   L 225.91654,302.18361   L 232.54214,288.1248   L 239.49093,273.9044   L 246.60132,260.00718   L 253.71171,246.27156   L 260.66051,233.02073   L 261.9533,230.5968   L 263.4077,228.33446   L 264.8621,225.91053   L 266.4781,223.80979   L 267.7709,221.70905   L 269.0637,220.09309   L 270.19489,218.63873   L 271.32609,217.66916   L 278.43649,204.41833   L 286.03168,191.32909   L 293.62687,178.40145   L 301.86846,165.797   L 309.94845,153.03095   L 318.19004,140.26491   L 326.59323,127.49886   L 335.15802,114.89441   L 336.28922,114.89441   L 333.21882,119.74228   L 330.31003,124.91333   L 327.56283,130.08439   L 324.97723,135.41704   L 322.23004,140.5881   L 319.48284,145.92075   L 316.57404,151.09181   L 313.82685,156.26286   L 313.18045,156.74765   L 312.37245,158.20201   L 311.07965,160.14115   L 309.62525,162.88828   L 307.52445,166.28178   L 305.10046,170.64486   L 302.03006,175.81592   L 298.47486,182.11814   L 294.75807,188.25877   L 291.20287,194.561   L 287.48607,201.02482   L 283.76928,207.48864   L 279.89088,213.79087   L 276.17409,220.25469   L 272.45729,226.55691   L 269.0637,233.02073   L 266.4781,238.19179   L 264.0541,243.84763   L 261.3069,249.50347   L 258.55971,255.15932   L 255.48931,260.65356   L 252.58051,266.30941   L 249.51012,271.48046   L 246.60132,276.65152   L 242.72293,287.15523   L 238.68293,297.82053   L 234.48133,308.48584   L 230.27974,319.15114   L 225.59334,329.65485   L 221.23015,340.32015   L 216.70536,350.98546   L 212.34216,361.65076   L 208.62536,372.63926   L 204.58537,383.78935   L 199.73737,394.77784   L 195.05098,405.92793   L 189.87979,416.91643   L 185.19339,428.06652   L 180.6686,439.21661   L 176.9518,450.3667   L 175.8206,451.98265   L 174.6894,453.9218   L 173.3966,455.86095   L 172.26541,457.96169   L 170.97261,459.90083   L 170.00301,461.83998   L 169.03341,463.77913   L 168.54861,465.71827   L 167.41741,465.71827   L 166.28621,465.71827  z "
     style="fill:#000000;fill-rule:evenodd;fill-opacity:1;stroke:none;" />
  <path
     id="path31"
     d="  M 187.45579,465.71827   L 187.29419,463.77913   L 187.13259,462.00158   L 186.97099,460.22402   L 186.97099,458.44647   L 186.80939,456.66892   L 186.80939,454.89137   L 186.97099,453.11382   L 187.45579,451.49787   L 190.20298,442.9333   L 193.11178,434.36874   L 195.85898,425.80418   L 198.60618,417.23962   L 201.19177,408.67506   L 203.93897,400.43368   L 206.84777,392.03072   L 209.91816,384.11254   L 215.08936,371.66968   L 220.09895,359.22683   L 225.10855,346.78397   L 230.11814,334.66431   L 234.96613,322.38305   L 240.13733,310.10179   L 245.47012,297.98213   L 251.28772,286.18566   L 256.13571,275.84354   L 261.6301,265.66303   L 267.1245,255.48251   L 272.94209,245.30199   L 278.43649,235.12147   L 283.76928,224.94096   L 288.94047,214.76044   L 293.78847,204.57992   L 299.44446,194.561   L 305.26205,184.05729   L 311.07965,173.23039   L 317.38204,162.72668   L 323.52283,152.06138   L 330.14843,142.04246   L 337.09722,132.66992   L 344.53081,124.26695   L 344.53081,124.42855   L 344.53081,124.75174   L 344.53081,125.55971   L 342.59161,126.52929   L 341.46041,127.49886   L 340.81401,128.30684   L 340.81401,129.11482   L 340.97561,129.92279   L 341.62201,130.89237   L 342.43001,132.02354   L 343.39961,133.80109   L 342.26841,133.80109   L 341.29881,132.83151   L 340.65241,132.18513   L 340.16762,131.70034   L 340.00602,131.70034   L 339.84442,131.86194   L 339.84442,132.66992   L 334.18842,139.78012   L 329.01723,147.21351   L 324.00763,154.8085   L 319.32124,162.88828   L 314.63484,170.80646   L 310.11005,179.04783   L 305.58525,187.12761   L 300.89886,195.20738   L 293.46527,208.45821   L 285.87008,222.03224   L 278.27489,235.76786   L 271.00289,249.82667   L 263.8925,263.88547   L 257.26691,278.26748   L 251.44932,292.64948   L 246.60132,307.35467   L 244.98532,310.10179   L 242.72293,315.43444   L 239.97573,322.38305   L 236.90533,330.46283   L 233.51174,338.7042   L 230.60294,346.62238   L 228.01734,353.24779   L 226.40134,358.09566   L 223.49255,366.33703   L 220.42215,375.06319   L 217.19015,383.62775   L 213.95816,392.5155   L 210.56456,401.40326   L 207.49417,410.45261   L 204.42377,419.66355   L 201.67657,429.03609   L 198.92938,433.56077   L 196.66698,437.76225   L 194.56618,441.80214   L 192.95018,445.84202   L 191.33418,449.88191   L 190.04139,454.56818   L 189.07179,459.73924   L 188.74859,465.71827   L 187.94059,465.71827   L 187.61739,465.71827   L 187.45579,465.71827  z "
     style="fill:#000000;fill-rule:evenodd;fill-opacity:1;stroke:none;" />
  <path
     id="path33"
     d="  M 206.36297,459.73924   L 213.47336,428.7129   L 222.84615,398.00975   L 233.67334,367.6298   L 245.95492,337.89622   L 258.88291,308.16265   L 272.45729,279.07545   L 286.03168,250.47305   L 299.76766,222.35543   L 304.13086,213.46767   L 308.49405,204.57992   L 313.01885,195.69217   L 317.70524,186.96601   L 322.23004,178.23985   L 327.07803,169.51369   L 332.08762,160.94913   L 337.42042,152.70776   L 339.03642,149.96064   L 340.81401,147.37511   L 342.43001,144.95118   L 344.04601,142.68884   L 345.66201,140.26491   L 347.60121,138.16416   L 349.37881,135.90183   L 351.6412,133.80109   L 351.6412,134.28587   L 351.6412,134.93225   L 347.11641,140.5881   L 342.75321,146.89032   L 338.39002,153.19255   L 334.51162,159.97956   L 330.47163,166.60498   L 326.91643,173.39199   L 323.68443,180.179   L 320.93724,186.96601   L 312.69565,201.99439   L 304.61566,217.50756   L 296.53566,233.18233   L 288.77887,249.34188   L 281.18368,265.33983   L 274.07329,281.66098   L 267.4477,297.98213   L 261.9533,314.46487   L 256.45891,325.61496   L 251.44932,337.24984   L 246.92452,349.04631   L 242.72293,361.16597   L 238.35973,373.12404   L 234.15814,385.24371   L 229.79494,397.20177   L 225.27015,408.99825   L 222.19975,413.36133   L 219.61415,419.01717   L 217.02855,425.48099   L 215.08936,432.4296   L 212.98856,439.5398   L 211.04936,446.65   L 209.27176,453.43701   L 207.65577,459.73924   L 207.33257,459.73924   L 207.00937,459.73924   L 206.52457,459.73924   L 206.36297,459.73924  z "
     style="fill:#000000;fill-rule:evenodd;fill-opacity:1;stroke:none;" />
  <path
     id="path35"
     d="  M 305.58525,362.94353   L 304.29246,361.65076   L 303.48446,360.68119   L 302.67646,359.87321   L 302.35326,359.38842   L 302.03006,358.58045   L 302.03006,357.77247   L 302.03006,356.8029   L 302.03006,355.83332   L 303.80766,347.26876   L 305.74685,339.02739   L 308.00925,330.78602   L 310.43325,322.70624   L 312.69565,314.46487   L 315.11964,306.2235   L 317.38204,297.98213   L 319.80604,289.74076   L 327.56283,269.70291   L 336.12762,250.31145   L 345.33881,231.08159   L 355.0348,212.33651   L 364.89239,193.42983   L 375.23478,175.00794   L 385.90036,156.58605   L 396.56595,138.48736   L 397.21235,138.48736   L 398.02035,138.48736   L 398.98995,138.48736   L 400.92915,141.88086   L 401.09075,146.40554   L 399.79795,151.2534   L 397.69715,156.58605   L 394.62675,161.59551   L 391.55636,166.44338   L 388.32436,170.64486   L 385.90036,173.87677   L 383.47637,178.23985   L 381.05237,182.60293   L 378.46677,186.96601   L 375.88118,191.49068   L 373.29558,195.85376   L 370.87158,200.37844   L 368.77078,204.90311   L 366.99319,209.42779   L 364.08439,214.27565   L 361.98359,218.31554   L 360.20599,221.38585   L 358.75159,224.13298   L 357.2972,226.39532   L 355.8428,228.81925   L 353.9036,231.56637   L 351.6412,235.28307   L 349.21721,243.52444   L 346.47001,252.089   L 343.56121,260.81516   L 340.49082,269.54132   L 337.09722,278.10588   L 333.86522,286.67044   L 330.31003,295.235   L 326.91643,303.79957   L 324.33083,310.90977   L 321.74524,318.18157   L 318.99804,325.61496   L 316.25084,333.37155   L 313.50365,340.80494   L 310.91805,348.23833   L 308.49405,355.51013   L 306.71645,362.94353   L 306.07005,362.94353   L 305.58525,362.94353  z "
     style="fill:#000000;fill-rule:evenodd;fill-opacity:1;stroke:none;" />
  <path
     id="path37"
     d="  M 417.73553,139.61852   L 411.75633,136.70981   L 407.87794,132.83151   L 405.45394,128.14524   L 404.80754,123.29738   L 405.61554,118.44951   L 408.20114,114.24803   L 412.07953,110.85452   L 417.73553,108.91538   L 416.76593,110.20814   L 415.79633,111.98569   L 414.82673,113.92484   L 413.85713,116.18717   L 412.88753,118.44951   L 412.40273,120.87344   L 411.91793,123.13578   L 411.91793,125.55971   L 416.28113,127.01407   L 420.15953,127.49886   L 423.06832,126.85248   L 425.33072,125.39812   L 426.62352,122.97419   L 426.94672,119.74228   L 426.30032,115.70239   L 424.84592,111.33931   L 428.23952,112.14729   L 430.34031,114.89441   L 430.98671,118.61111   L 430.66351,123.29738   L 429.20911,127.98365   L 427.43152,132.66992   L 425.00752,136.54821   L 422.58352,139.61852   L 421.29072,139.61852   L 420.15953,139.61852   L 418.70513,139.61852   L 417.73553,139.61852  z "
     style="fill:#000000;fill-rule:evenodd;fill-opacity:1;stroke:none;" />
  <path
     id="path39"
     d="  M 384.76917,132.66992   L 377.82037,131.21556   L 371.51798,129.43801   L 365.53879,127.17567   L 360.04439,124.42855   L 354.55,121.03504   L 349.5404,117.64153   L 344.69241,113.92484   L 339.84442,110.20814   L 339.84442,109.40016   L 339.84442,108.91538   L 339.84442,108.26899   L 339.84442,107.78421   L 340.49082,106.97623   L 341.13721,106.65304   L 341.62201,106.65304   L 342.26841,106.65304   L 343.23801,106.65304   L 344.53081,106.65304   L 348.73241,110.04655   L 353.742,113.60165   L 359.39799,116.67196   L 365.53879,119.41909   L 371.67958,121.19664   L 378.46677,122.16621   L 385.09236,122.00461   L 391.87956,120.71185   L 392.84916,119.41909   L 393.81875,118.44951   L 394.46515,117.64153   L 395.11155,117.15675   L 395.27315,116.34877   L 395.75795,115.70239   L 396.08115,114.73282   L 396.56595,113.76324   L 398.34355,108.26899   L 400.60595,103.90592   L 403.19154,100.02762   L 406.26194,96.957309   L 409.33234,93.886994   L 413.04913,91.463061   L 416.92753,88.877533   L 421.29072,86.4536   L 424.84592,81.282544   L 428.88592,76.111487   L 432.60271,70.455644   L 435.99631,64.799801   L 438.2587,58.659172   L 439.3899,52.680138   L 438.9051,46.539508   L 436.64271,40.398879   L 428.23952,35.874204   L 420.48272,31.995912   L 412.72593,28.602406   L 405.29234,26.340069   L 397.69715,25.047305   L 390.10196,25.2089   L 382.18357,27.148046   L 374.10358,31.026339   L 371.19478,34.258249   L 368.77078,37.328564   L 366.83159,40.237283   L 365.53879,43.307598   L 364.40759,46.377913   L 363.76119,50.094609   L 363.43799,54.296093   L 363.43799,59.305554   L 362.46839,61.891082   L 361.82199,64.638206   L 360.85239,67.223734   L 360.20599,69.970858   L 359.07479,72.556386   L 357.9436,75.30351   L 356.6508,77.889038   L 355.1964,80.636162   L 351.9644,83.544881   L 349.37881,86.130409   L 347.27801,88.231151   L 345.66201,90.331893   L 344.04601,92.432634   L 342.75321,95.179758   L 341.29881,98.573264   L 339.84442,103.09794   L 338.87482,103.58272   L 338.06682,104.22911   L 337.09722,104.5523   L 336.28922,105.36028   L 334.67322,102.93634   L 334.18842,100.35081   L 334.51162,97.603691   L 335.64282,94.856567   L 337.09722,91.947848   L 338.87482,89.523915   L 340.65241,87.099982   L 342.26841,85.322432   L 346.63161,81.282544   L 349.702,76.919465   L 351.8028,71.910004   L 352.934,66.738947   L 353.4188,61.083104   L 353.5804,55.427261   L 353.742,49.609823   L 354.0652,43.95398   L 355.5196,41.045261   L 356.6508,38.944519   L 357.4588,37.328564   L 358.26679,36.197395   L 358.58999,35.066227   L 359.07479,34.258249   L 359.39799,33.12708   L 359.88279,32.157507   L 360.36759,31.511125   L 361.01399,31.026339   L 361.82199,30.218361   L 362.79159,29.410384   L 363.43799,28.440811   L 364.08439,27.471237   L 364.40759,26.178473   L 364.73079,25.047305   L 361.01399,25.047305   L 357.2972,25.370496   L 354.0652,25.855282   L 351.4796,26.824855   L 349.5404,28.11762   L 348.73241,30.056766   L 349.37881,32.480698   L 351.6412,35.712609   L 351.6412,37.166968   L 351.6412,38.621328   L 351.6412,39.26771   L 351.6412,39.914092   L 351.6412,40.72207   L 351.6412,41.691643   L 348.73241,41.045261   L 346.63161,39.914092   L 344.85401,37.974946   L 343.72281,35.712609   L 342.75321,33.12708   L 342.43001,30.541552   L 342.26841,28.11762   L 342.26841,26.340069   L 344.53081,20.199439   L 347.11641,16.482742   L 350.0252,14.543596   L 353.4188,14.382001   L 356.6508,15.189978   L 360.36759,17.129125   L 364.24599,19.714653   L 368.28598,22.784968   L 368.93238,22.461777   L 370.22518,22.138585   L 372.00278,21.330608   L 374.26518,20.684226   L 376.52757,19.553057   L 379.27477,18.583484   L 382.02197,17.613911   L 384.76917,16.805933   L 393.81875,16.644338   L 404.16114,18.098698   L 414.82673,20.845821   L 425.65392,25.2089   L 435.34991,30.703148   L 443.5915,37.81335   L 449.73229,46.054722   L 453.28749,55.750452   L 452.64109,58.659172   L 451.99469,61.567891   L 451.02509,64.315015   L 450.05549,67.062138   L 448.60109,69.324476   L 446.98509,71.748408   L 445.0459,73.84915   L 442.6219,75.949892   L 439.8747,79.343398   L 435.99631,82.413712   L 430.98671,84.837645   L 425.81552,87.423173   L 420.15953,89.68551   L 414.98833,92.271039   L 410.46354,95.018162   L 407.23154,98.411668   L 406.42354,101.48198   L 405.45394,106.00666   L 403.83794,111.17771   L 402.22195,116.67196   L 400.12115,121.84302   L 398.02035,126.69088   L 395.43475,130.40758   L 393.01076,132.66992   L 391.87956,132.66992   L 390.90996,132.66992   L 389.77876,132.66992   L 388.80916,132.66992   L 387.67796,132.66992   L 386.54676,132.66992   L 385.57716,132.66992   L 384.76917,132.66992  z "
     style="fill:#000000;fill-rule:evenodd;fill-opacity:1;stroke:none;" />
  <path
     id="path41"
     d="  M 441.4907,117.15675   L 434.86511,113.92484   L 430.50191,109.40016   L 427.91632,103.90592   L 427.26992,98.573264   L 428.07792,93.563803   L 430.50191,89.847106   L 434.21871,88.069555   L 439.0667,88.877533   L 438.7435,90.170297   L 438.4203,91.624657   L 437.77391,93.079016   L 437.12751,95.018162   L 436.15791,96.795713   L 435.51151,98.734859   L 434.70351,100.67401   L 434.38031,103.09794   L 435.83471,103.74432   L 437.9355,104.22911   L 440.0363,104.3907   L 442.4603,104.5523   L 444.5611,104.22911   L 446.6619,103.74432   L 448.43949,102.77475   L 449.73229,101.80517   L 449.73229,98.896455   L 449.73229,96.957309   L 449.57069,95.502949   L 449.57069,94.533376   L 449.08589,93.563803   L 448.60109,92.59423   L 447.63149,91.463061   L 446.1771,90.008702   L 446.1771,88.877533   L 449.24749,88.554342   L 452.31789,91.13987   L 454.74189,95.502949   L 456.19628,101.15879   L 455.87308,106.81464   L 453.61069,111.98569   L 448.92429,115.70239   L 441.4907,117.15675  z "
     style="fill:#000000;fill-rule:evenodd;fill-opacity:1;stroke:none;" />
  <path
     id="path43"
     d="  M 328.04763,97.118904   L 322.23004,93.240612   L 318.51324,88.715937   L 316.73564,83.544881   L 316.89724,78.53542   L 318.67484,73.687555   L 322.39164,69.970858   L 327.88603,67.223734   L 335.15802,66.415756   L 335.15802,64.799801   L 335.15802,64.153419   L 330.47163,59.79034   L 328.37083,54.942475   L 328.37083,49.933014   L 330.47163,45.569935   L 333.86522,42.338025   L 338.87482,41.206856   L 344.69241,42.661216   L 351.6412,47.509081   L 351.8028,48.317059   L 352.2876,49.125036   L 352.6108,49.609823   L 352.934,49.933014   L 351.8028,49.933014   L 350.8332,49.933014   L 349.702,49.933014   L 348.73241,49.933014   L 347.43961,49.933014   L 346.30841,49.933014   L 345.33881,49.933014   L 344.53081,49.933014   L 343.56121,51.225778   L 342.59161,52.033756   L 341.29881,52.195351   L 339.84442,52.356947   L 338.87482,53.649711   L 338.06682,54.780879   L 337.74362,55.265666   L 337.58202,55.912048   L 337.42042,56.881621   L 337.42042,58.174385   L 338.87482,58.982363   L 340.32922,59.951936   L 340.97561,60.275127   L 341.62201,60.759913   L 342.43001,61.2447   L 343.39961,61.729486   L 343.39961,62.214273   L 343.39961,62.860655   L 343.39961,63.345442   L 343.39961,64.153419   L 342.43001,64.315015   L 341.78361,64.638206   L 341.29881,64.961397   L 341.13721,65.284588   L 340.49082,65.607779   L 339.84442,66.415756   L 340.16762,67.870116   L 341.46041,69.324476   L 342.26841,69.970858   L 343.23801,70.61724   L 344.36921,71.425217   L 345.82361,72.39479   L 345.82361,74.172341   L 345.82361,75.626701   L 345.82361,76.757869   L 345.82361,77.565847   L 345.82361,78.53542   L 345.82361,79.504993   L 342.91481,79.504993   L 339.68282,79.504993   L 335.96602,79.828184   L 332.41082,80.474566   L 329.01723,81.282544   L 326.43163,82.898499   L 324.65403,84.837645   L 324.49243,87.746364   L 325.13883,87.746364   L 326.43163,87.746364   L 327.40123,87.746364   L 329.01723,88.069555   L 331.11803,88.392746   L 334.02682,88.877533   L 333.86522,90.816679   L 333.86522,92.432634   L 333.54202,93.563803   L 333.21882,94.694971   L 332.41082,95.341353   L 331.27963,96.149331   L 329.82523,96.634118   L 328.04763,97.118904  z "
     style="fill:#000000;fill-rule:evenodd;fill-opacity:1;stroke:none;" />
  <path
     id="path45"
     d="  M 465.08427,91.301466   L 460.07468,88.069555   L 456.68108,83.544881   L 454.74189,78.050633   L 454.25709,72.717981   L 454.90349,67.38533   L 456.84268,63.345442   L 459.75148,60.759913   L 463.95308,60.598318   L 463.62988,62.537464   L 463.14508,64.47661   L 462.33708,66.415756   L 461.52908,68.354903   L 460.55948,70.132453   L 459.75148,72.233195   L 459.10508,74.495532   L 459.10508,77.08106   L 460.72108,78.53542   L 462.49868,79.504993   L 464.11468,80.151375   L 466.05387,80.474566   L 467.83147,80.151375   L 470.09387,79.504993   L 472.67947,78.53542   L 475.74986,77.08106   L 475.26506,74.172341   L 474.78026,72.071599   L 474.29546,70.294049   L 473.97226,69.001285   L 473.16427,67.870116   L 472.35627,66.900543   L 471.22507,65.93097   L 469.77067,65.284588   L 469.12427,64.153419   L 468.63947,64.153419   L 473.48746,63.507037   L 477.04266,65.769374   L 478.98186,69.970858   L 479.62826,75.465105   L 478.33546,80.959353   L 475.58826,86.130409   L 471.06347,89.847106   L 465.08427,91.301466  z "
     style="fill:#000000;fill-rule:evenodd;fill-opacity:1;stroke:none;" />
</svg>
