<?xml version="1.0" encoding="UTF-8" standalone="no"?>
<svg
   xmlns:dc="http://purl.org/dc/elements/1.1/"
   xmlns:cc="http://creativecommons.org/ns#"
   xmlns:rdf="http://www.w3.org/1999/02/22-rdf-syntax-ns#"
   xmlns:svg="http://www.w3.org/2000/svg"
   xmlns="http://www.w3.org/2000/svg"
   id="svg39"
   height="60.299602mm"
   width="155.9052mm"
   version="1.0">
  <metadata
     id="metadata43">
    <rdf:RDF>
      <cc:Work
         rdf:about="">
        <dc:format>image/svg+xml</dc:format>
        <dc:type
           rdf:resource="http://purl.org/dc/dcmitype/StillImage" />
      </cc:Work>
    </rdf:RDF>
  </metadata>
  <defs
     id="defs3">
    <pattern
       y="0"
       x="0"
       height="6"
       width="6"
       patternUnits="userSpaceOnUse"
       id="WMFhbasepattern" />
  </defs>
  <path
     id="path5"
     d="  M 389.61358,0.29451584   L 391.52833,4.3072941   L 391.52833,10.749828   L 392.19112,14.688977   L 392.19112,18.701756   L 392.96438,21.867801   L 392.96438,30.813719   L 393.62718,40.974516   L 394.28998,55.184905   L 394.28998,61.701068   L 394.69502,61.995584   L 397.19891,60.633448   L 401.87531,59.602643   L 405.44704,59.897158   L 410.82305,61.332923   L 413.32695,62.363729   L 417.34055,59.197683   L 420.87546,57.099258   L 423.7844,55.663493   L 429.41816,55.000833   L 430.59647,55.000833   L 430.96469,54.595873   L 431.62748,55.184905   L 433.46858,55.184905   L 434.13138,56.031638   L 435.19922,56.031638   L 437.70311,57.393774   L 439.61786,57.761919   L 444.8834,63.541792   L 445.5462,67.444127   L 444.29425,72.15638   L 442.78455,74.254805   L 437.70311,79.629719   L 425.58868,91.447167   L 418.00334,97.190226   L 413.32695,99.325466   L 410.12344,99.325466   L 407.17768,95.091801   L 405.44704,85.115077   L 406.95674,75.985086   L 408.31916,72.15638   L 406.95674,71.309647   L 403.60594,72.450896   L 400.43925,74.659765   L 397.56713,78.304398   L 396.13108,81.470443   L 396.13108,82.538063   L 394.69502,86.366769   L 394.69502,88.281122   L 393.25896,95.49676   L 392.55934,106.20977   L 392.55934,122.33452   L 394.03222,123.69665   L 403.60594,122.62903   L 408.02458,122.62903   L 410.12344,121.96637   L 409.46064,118.80033   L 409.75522,116.7019   L 414.17386,114.75073   L 416.97233,114.38259   L 421.17004,113.05727   L 433.06354,111.21654   L 443.15277,109.67033   L 452.76331,108.41864   L 453.61022,107.57191   L 454.67806,102.9701   L 456.40869,100.35627   L 462.15292,97.190226   L 464.2886,96.932525   L 465.72466,96.159421   L 471.87393,95.49676   L 486.27133,95.754462   L 494.51946,96.527566   L 496.61831,96.527566   L 499.89547,97.190226   L 501.99433,97.190226   L 503.83543,97.96333   L 507.77538,97.190226   L 508.8064,96.932525   L 511.31029,94.42914   L 511.97309,92.330715   L 511.97309,89.716887   L 510.94207,88.649267   L 511.31029,88.281122   L 507.77538,84.268344   L 504.49822,78.967059   L 504.49822,77.936253   L 503.06216,75.322425   L 501.62611,66.008362   L 502.65712,60.633448   L 504.86644,55.663493   L 509.57966,49.88362   L 515.32389,44.803222   L 524.27164,40.974516   L 530.71549,39.538751   L 536.16514,38.655204   L 546.91717,38.655204   L 551.1517,39.538751   L 556.52771,42.042136   L 561.97736,46.717575   L 566.69058,53.933213   L 567.75842,58.424579   L 568.42121,62.363729   L 567.75842,73.592145   L 564.37079,83.200724   L 562.67698,86.366769   L 561.97736,88.649267   L 563.708,92.514787   L 565.14406,94.723656   L 565.84367,97.595186   L 567.35338,97.595186   L 572.36117,94.723656   L 576.00655,94.024181   L 579.54146,94.024181   L 582.33993,95.49676   L 584.54925,98.257846   L 585.98531,102.30744   L 587.05315,103.7432   L 588.4892,118.80033   L 588.4892,143.53966   L 589.152,151.71247   L 588.4892,172.91761   L 587.42137,178.66067   L 586.35353,182.23167   L 584.25467,185.21365   L 581.27209,188.74784   L 577.33214,190.84626   L 576.30112,190.84626   L 574.57049,192.39247   L 567.75842,193.64416   L 564.11304,193.64416   L 563.33978,194.52771   L 569.08401,207.67048   L 570.52007,210.61564   L 571.29333,213.78168   L 570.22549,216.76366   L 566.69058,218.49394   L 554.79707,219.9297   L 550.74665,219.9297   L 548.6478,220.62918   L 533.95582,220.33466   L 532.88798,219.56156   L 531.85697,219.56156   L 531.45193,219.9297   L 530.01587,217.83128   L 531.08371,208.70129   L 532.88798,198.35642   L 532.51976,196.99428   L 524.63986,197.2888   L 523.86659,197.2888   L 523.60884,197.69376   L 522.83558,196.99428   L 521.10494,197.69376   L 519.96346,197.2888   L 519.1902,197.2888   L 519.1902,205.9402   L 518.89562,214.66523   L 514.95567,218.12579   L 510.24245,220.33466   L 502.65712,221.36547   L 495.55048,222.06494   L 492.01556,222.06494   L 486.52909,223.09575   L 482.6996,223.57433   L 477.98638,224.64195   L 475.04062,224.64195   L 470.03283,225.70957   L 461.49013,225.70957   L 452.17416,226.37224   L 444.29425,226.74038   L 427.72435,227.43986   L 419.07118,226.74038   L 410.12344,227.14534   L 401.21251,227.808   L 393.62718,227.43986   L 390.86553,225.70957   L 387.47791,224.64195   L 379.63482,219.9297   L 365.23742,209.58483   L 359.16179,203.80496   L 358.38853,202.36919   L 357.72573,201.70653   L 356.69471,201.70653   L 356.28967,202.00105   L 354.19082,202.00105   L 351.57646,201.70653   L 350.91366,201.70653   L 350.54544,202.00105   L 337.5841,202.36919   L 327.89991,202.36919   L 325.10144,202.77415   L 320.38822,203.06867   L 315.41725,203.43681   L 305.69624,203.80496   L 304.26019,204.50443   L 302.16133,204.50443   L 298.5896,205.53524   L 296.12252,205.53524   L 291.51977,206.30834   L 286.40152,206.30834   L 276.42275,206.60286   L 242.65698,206.60286   L 238.23834,207.44959   L 232.56775,207.44959   L 197.73414,208.51721   L 179.87547,208.51721   L 156.8249,210.61564   L 148.28219,210.61564   L 138.48754,211.31511   L 137.05148,212.08822   L 132.44873,212.08822   L 130.23941,212.75088   L 127.77234,212.75088   L 115.6579,213.78168   L 104.83223,214.8493   L 95.884488,215.73285   L 61.12452,215.91692   L 47.13216,216.39551   L 43.486782,216.76366   L 32.734758,216.76366   L 26.585484,216.39551   L 18.705576,214.66523   L 15.46524,213.11902   L 13.62414,210.24749   L 10.457448,193.46009   L 7.474866,170.81919   L 6.149274,163.60355   L 4.013598,151.04981   L 4.013598,149.31953   L 3.277158,147.00022   L 2.872116,141.73575   L 2.20932,132.78983   L 1.730634,128.11439   L 1.067838,114.38259   L 0.662796,99.03095   L 0.478686,84.636489   L 0,37.992543   L 0,34.458353   L 0.478686,21.20514   L 1.546524,16.787403   L 7.879908,13.253213   L 14.029182,12.185593   L 21.872268,11.891077   L 26.953704,11.891077   L 29.4576,12.553738   L 30.820014,11.891077   L 47.13216,11.891077   L 55.674864,11.117973   L 77.473488,10.455312   L 81.892128,10.455312   L 93.380592,9.3876923   L 109.14041,9.3876923   L 115.6579,8.5409593   L 127.77234,8.5409593   L 140.69686,7.8782986   L 146.18334,7.4733394   L 159.32879,6.4425339   L 168.64476,6.4425339   L 171.62734,5.7430588   L 175.16225,5.7430588   L 191.95309,5.0067692   L 196.29808,5.0067692   L 206.35049,4.7122534   L 208.96485,4.3072941   L 225.09289,3.2764887   L 248.03299,3.2764887   L 259.15324,3.9391493   L 284.7077,3.6446335   L 293.61863,2.8715294   L 298.81053,2.8715294   L 308.60518,2.2088688   L 314.23895,2.2088688   L 319.35721,1.3253213   L 328.26813,1.3253213   L 355.62688,1.1412489   L 375.40029,1.1412489   L 379.63482,0.29451584   L 388.25117,0.29451584   L 388.54574,0   L 388.91396,0.29451584   L 389.61358,0.29451584  z "
     style="fill:#000000;fill-rule:evenodd;fill-opacity:1;stroke:none;" />
  <path
     id="path7"
     d="  M 389.31901,20.432036   L 389.31901,22.567276   L 389.9818,32.323113   L 389.9818,37.329882   L 390.35002,43.367457   L 391.04964,53.049665   L 391.04964,63.909937   L 388.91396,67.075982   L 386.15231,70.242027   L 384.71626,74.254805   L 382.80151,80.034679   L 382.58058,82.906208   L 381.4391,90.379548   L 380.66584,96.159421   L 378.9352,114.08807   L 378.56698,123.51258   L 378.56698,124.94834   L 372.12313,124.94834   L 371.34987,125.611   L 366.67348,125.611   L 354.85361,127.04677   L 350.91366,128.4089   L 349.10938,132.78983   L 348.81481,141.73575   L 348.40976,148.91457   L 348.40976,150.64485   L 350.1404,154.21586   L 353.71213,158.22863   L 352.64429,159.95891   L 353.71213,162.57274   L 354.19082,191.91388   L 355.62688,197.2888   L 355.92145,197.69376   L 349.4776,198.35642   L 330.18287,198.35642   L 326.16928,199.12952   L 320.02,199.38722   L 314.23895,200.27077   L 308.60518,200.27077   L 292.55079,202.77415   L 273.18242,203.06867   L 244.38761,203.06867   L 239.08525,204.09948   L 232.93597,204.09948   L 205.61405,204.50443   L 181.20106,204.50443   L 172.65836,205.53524   L 171.2223,205.53524   L 163.63697,206.30834   L 160.39663,206.30834   L 137.05148,207.67048   L 117.09396,209.95298   L 106.26829,211.0206   L 97.246902,211.68326   L 91.465848,212.34592   L 56.448126,212.34592   L 40.982886,213.11902   L 28.426584,213.11902   L 19.405194,211.0206   L 17.269518,209.95298   L 15.060198,202.00105   L 13.62414,193.05513   L 12.961344,187.31207   L 12.556302,184.3301   L 10.457448,168.61032   L 6.44385,146.33756   L 5.744232,139.15873   L 5.744232,136.65535   L 4.308174,115.63428   L 4.013598,95.754462   L 3.277158,72.819041   L 3.645378,22.935421   L 4.713216,19.401231   L 11.893506,16.235186   L 17.67456,15.351638   L 47.31627,15.351638   L 56.448126,15.057122   L 72.833916,14.284018   L 87.26814,13.621357   L 91.87089,12.958697   L 112.01252,12.958697   L 117.75676,12.185593   L 130.64446,12.185593   L 146.18334,11.522932   L 157.89274,10.455312   L 183.04216,9.0195475   L 196.29808,9.0195475   L 204.54621,8.3568869   L 208.55981,8.3568869   L 213.5676,7.4733394   L 220.37967,7.4733394   L 226.82352,6.8106787   L 251.19968,7.1788235   L 260.88387,7.8782986   L 283.82398,7.4733394   L 292.95583,6.8106787   L 295.34926,6.8106787   L 303.22917,6.0375747   L 315.12268,6.0375747   L 320.79326,5.374914   L 334.01236,5.374914   L 375.40029,5.0067692   L 385.37905,4.3072941   L 387.47791,4.7122534   L 389.31901,20.432036  z "
     style="fill:#ffff00;fill-rule:evenodd;fill-opacity:1;stroke:none;" />
  <path
     id="path9"
     d="  M 554.02381,43.772416   L 559.51029,47.969267   L 561.2041,50.583095   L 561.2041,51.356199   L 562.67698,52.68152   L 562.67698,53.933213   L 563.33978,54.595873   L 564.77584,60.633448   L 564.77584,69.174407   L 563.708,75.322425   L 560.54131,83.200724   L 558.33199,87.618462   L 559.6944,92.514787   L 561.2041,94.024181   L 562.27194,97.190226   L 563.0452,98.662805   L 564.11304,102.9701   L 565.84367,113.31497   L 565.5491,120.23609   L 564.37079,123.51258   L 564.11304,123.51258   L 563.33978,125.24286   L 561.2041,128.11439   L 555.09165,131.9431   L 546.1439,134.52011   L 543.38225,134.52011   L 539.33183,135.29321   L 530.42091,135.58773   L 528.28523,136.36083   L 491.64734,135.99269   L 487.59692,134.92507   L 486.27133,134.26241   L 483.95155,131.35406   L 483.76744,130.21281   L 483.76744,129.14519   L 482.88371,128.4089   L 483.76744,125.24286   L 489.03298,121.30371   L 493.0834,120.23609   L 499.23268,119.86795   L 502.39937,119.09484   L 516.6863,119.09484   L 522.541,118.43218   L 526.77553,118.43218   L 530.42091,115.81835   L 532.51976,111.21654   L 531.85697,109.67033   L 530.71549,108.63953   L 529.53718,109.11812   L 528.87439,109.11812   L 528.28523,109.67033   L 527.80655,112.28416   L 525.70769,114.38259   L 522.541,115.15569   L 518.49058,115.15569   L 510.94207,115.81835   L 498.34895,115.81835   L 489.91671,117.36456   L 492.31014,112.65231   L 493.0834,110.14892   L 493.7462,106.20977   L 493.7462,105.06852   L 490.57951,101.90248   L 485.86629,101.23982   L 483.95155,101.90248   L 480.49028,105.84163   L 477.98638,110.14892   L 476.55032,111.98965   L 474.341,116.9596   L 469.73825,116.9596   L 464.2886,115.81835   L 459.57538,113.31497   L 457.84475,110.92203   L 456.77691,107.27739   L 457.47653,105.47348   L 457.47653,104.77401   L 458.21297,104.77401   L 459.9436,102.30744   L 462.92618,100.35627   L 466.09288,99.325466   L 470.40105,98.662805   L 490.10082,98.662805   L 492.31014,99.325466   L 496.91289,99.325466   L 499.89547,100.1722   L 502.39937,100.1722   L 503.06216,100.76123   L 508.1436,100.35627   L 511.31029,99.325466   L 513.22504,98.257846   L 515.32389,95.49676   L 515.32389,88.943783   L 514.29287,86.366769   L 510.94207,83.568869   L 507.37034,78.304398   L 505.56606,72.450896   L 505.16102,68.511747   L 505.16102,64.278081   L 507.37034,58.424579   L 511.67851,52.68152   L 516.6863,48.447855   L 521.10494,45.870842   L 526.77553,43.772416   L 527.14375,44.140561   L 528.87439,43.072941   L 531.85697,42.704796   L 537.6012,41.637176   L 550.08386,42.299837   L 554.02381,43.772416  z "
     style="fill:#ffffcc;fill-rule:evenodd;fill-opacity:1;stroke:none;" />
  <path
     id="path11"
     d="  M 439.61786,60.927964   L 442.37951,64.977557   L 442.12175,68.990335   L 440.64887,71.788235   L 435.97248,76.75819   L 430.59647,81.764959   L 427.72435,84.636489   L 416.97233,94.024181   L 411.85407,96.527566   L 410.52848,93.545593   L 409.46064,87.213502   L 409.46064,81.470443   L 410.52848,77.457665   L 410.52848,76.390045   L 410.82305,76.390045   L 411.85407,73.224   L 412.25911,72.819041   L 412.25911,71.788235   L 410.82305,70.057955   L 410.12344,69.174407   L 404.3792,68.990335   L 403.31137,68.990335   L 398.89273,71.309647   L 395.06324,75.727385   L 391.52833,87.213502   L 389.9818,97.96333   L 389.31901,105.06852   L 389.31901,109.67033   L 388.25117,110.55388   L 388.91396,111.21654   L 389.61358,119.86795   L 389.61358,132.42168   L 389.9818,133.08434   L 391.04964,134.26241   L 396.4993,134.92507   L 398.70862,136.36083   L 398.89273,137.42845   L 398.89273,139.63732   L 397.86171,141.33079   L 396.4993,142.80337   L 392.96438,144.23913   L 387.88295,145.26994   L 384.71626,145.26994   L 378.9352,143.83417   L 377.49914,142.39841   L 377.49914,139.63732   L 378.16194,138.09111   L 381.07088,135.99269   L 382.10189,135.99269   L 382.80151,135.29321   L 382.80151,128.77705   L 382.58058,128.4089   L 382.58058,127.34129   L 382.80151,127.34129   L 383.64842,126.67862   L 382.58058,124.17524   L 383.16973,116.29694   L 383.16973,107.57191   L 384.31121,101.23982   L 383.83253,100.1722   L 384.71626,99.325466   L 384.90037,93.36152   L 386.15231,83.973828   L 386.81511,82.133104   L 386.81511,80.034679   L 388.54574,74.954281   L 388.91396,72.819041   L 392.19112,68.511747   L 396.79387,64.572597   L 401.87531,62.363729   L 407.65636,63.063204   L 410.82305,63.909937   L 414.35797,65.640217   L 416.97233,64.977557   L 420.13902,61.701068   L 425.22046,58.829538   L 426.65651,58.829538   L 427.31931,58.166878   L 434.13138,58.424579   L 439.61786,60.927964  z "
     style="fill:#99cccc;fill-rule:evenodd;fill-opacity:1;stroke:none;" />
  <path
     id="path13"
     d="  M 581.27209,99.325466   L 583.88645,105.47348   L 584.25467,113.05727   L 584.91747,119.46299   L 584.91747,166.76959   L 583.88645,177.33535   L 581.27209,182.59982   L 578.39998,186.24445   L 572.36117,189.4105   L 570.22549,189.81546   L 568.78943,190.47812   L 565.84367,190.47812   L 558.62656,191.54574   L 557.30097,191.54574   L 544.59738,193.05513   L 537.89578,193.46009   L 523.86659,194.52771   L 518.89562,194.12275   L 519.1902,182.59982   L 523.86659,181.93716   L 529.53718,181.56901   L 531.85697,181.16405   L 537.23298,180.13325   L 543.93458,179.06563   L 547.985,177.99801   L 551.1517,177.99801   L 557.55872,176.08366   L 559.51029,175.01604   L 561.97736,174.35338   L 566.21189,171.48185   L 568.78943,167.5427   L 569.48905,162.05734   L 569.48905,155.06259   L 568.42121,151.41795   L 567.35338,149.61405   L 563.708,147.00022   L 559.6944,145.96941   L 552.88233,144.90179   L 550.74665,145.6749   L 546.91717,145.6749   L 540.39967,146.33756   L 531.45193,145.26994   L 530.01587,143.83417   L 530.01587,142.80337   L 529.35307,142.10389   L 528.87439,139.63732   L 531.85697,138.93785   L 533.5876,138.93785   L 544.59738,138.09111   L 545.11289,138.5697   L 545.66522,137.68615   L 547.985,137.68615   L 548.6478,137.02349   L 552.88233,136.36083   L 560.94635,133.08434   L 567.35338,126.27367   L 568.78943,123.51258   L 569.85727,119.46299   L 569.48905,109.11812   L 567.75842,102.30744   L 570.22549,99.693611   L 573.68676,97.96333   L 578.1054,96.932525   L 579.54146,97.190226   L 581.27209,99.325466  z "
     style="fill:#99cc99;fill-rule:evenodd;fill-opacity:1;stroke:none;" />
  <path
     id="path15"
     d="  M 490.94773,106.20977   L 488.66476,113.31497   L 487.30235,115.63428   L 485.49807,119.09484   L 481.55812,121.59823   L 479.71702,124.17524   L 479.3488,130.6914   L 477.24994,132.78983   L 474.341,133.85745   L 473.60456,132.42168   L 472.53673,132.42168   L 471.87393,131.75902   L 472.90495,128.11439   L 473.60456,127.04677   L 473.97278,124.54338   L 480.12206,111.98965   L 482.22091,109.11812   L 484.43023,105.84163   L 486.27133,104.77401   L 490.10082,105.06852   L 490.94773,106.20977  z "
     style="fill:#ff6600;fill-rule:evenodd;fill-opacity:1;stroke:none;" />
  <path
     id="path17"
     d="  M 455.74589,114.75073   L 459.39127,117.73271   L 466.09288,120.53061   L 471.87393,121.30371   L 471.46889,123.51258   L 468.89135,128.77705   L 468.89135,134.92507   L 470.40105,137.42845   L 471.87393,138.09111   L 475.04062,137.68615   L 479.3488,135.58773   L 481.15307,133.85745   L 484.43023,136.65535   L 489.43802,138.93785   L 492.01556,139.15873   L 492.67836,140.29998   L 493.0834,142.39841   L 494.81404,145.96941   L 494.11442,146.81614   L 485.49807,147.00022   L 477.61816,148.25191   L 475.51931,148.25191   L 468.3022,149.31953   L 465.31961,149.31953   L 457.84475,150.35033   L 455.34085,150.35033   L 446.02489,151.71247   L 441.71671,152.78009   L 438.55002,153.14824   L 436.26706,154.03178   L 432.40075,154.21586   L 431.62748,154.21586   L 429.41816,151.41795   L 424.52084,140.66813   L 423.08478,138.93785   L 418.77661,130.87548   L 413.32695,121.59823   L 412.92191,119.09484   L 415.90449,117.36456   L 422.23787,115.81835   L 433.06354,114.08807   L 434.53642,114.08807   L 438.55002,113.31497   L 441.71671,113.31497   L 445.5462,112.28416   L 451.69547,111.58469   L 453.242,111.58469   L 453.61022,111.21654   L 454.67806,112.28416   L 455.74589,114.75073  z "
     style="fill:#ffffff;fill-rule:evenodd;fill-opacity:1;stroke:none;" />
  <path
     id="path19"
     d="  M 439.21282,124.17524   L 440.28065,126.67862   L 444.8834,133.4893   L 448.16056,138.5697   L 448.16056,139.15873   L 444.8834,138.93785   L 440.64887,131.9431   L 438.1818,128.77705   L 436.63528,126.27367   L 435.97248,121.96637   L 437.48218,122.33452   L 439.21282,124.17524  z "
     style="fill:#000000;fill-rule:evenodd;fill-opacity:1;stroke:none;" />
  <path
     id="path21"
     d="  M 430.59647,125.24286   L 436.26706,136.65535   L 438.8446,140.66813   L 439.61786,142.39841   L 439.21282,142.80337   L 439.21282,143.53966   L 437.11396,143.53966   L 434.53642,139.15873   L 434.53642,138.09111   L 433.06354,136.65535   L 430.96469,132.42168   L 427.72435,126.27367   L 426.95109,122.62903   L 428.75537,123.03399   L 430.59647,125.24286  z "
     style="fill:#000000;fill-rule:evenodd;fill-opacity:1;stroke:none;" />
  <path
     id="path23"
     d="  M 452.5792,125.24286   L 456.77691,131.9431   L 458.91259,134.52011   L 458.91259,135.29321   L 459.39127,135.58773   L 459.9436,136.65535   L 458.91259,138.5697   L 457.18195,137.68615   L 452.76331,132.42168   L 450.66446,128.11439   L 449.59662,126.27367   L 449.96484,123.69665   L 451.03268,123.69665   L 452.5792,125.24286  z "
     style="fill:#000000;fill-rule:evenodd;fill-opacity:1;stroke:none;" />
  <path
     id="path25"
     d="  M 407.17768,126.27367   L 410.12344,125.97915   L 411.19127,125.97915   L 412.62733,128.77705   L 414.17386,130.21281   L 418.00334,138.09111   L 419.84444,140.29998   L 420.50724,142.39841   L 423.48982,146.33756   L 428.38715,156.79287   L 430.59647,157.86049   L 437.11396,157.19783   L 437.48218,157.45553   L 438.1818,156.79287   L 444.8834,155.72525   L 449.19158,154.69444   L 458.50754,153.55319   L 461.85835,153.55319   L 468.89135,152.08062   L 474.341,152.08062   L 482.6996,150.64485   L 486.52909,150.64485   L 490.94773,149.98219   L 497.68615,149.98219   L 498.82763,148.91457   L 496.25009,140.29998   L 501.62611,139.63732   L 506.04475,140.00547   L 506.22886,141.33079   L 513.40915,149.31953   L 517.05452,153.55319   L 518.12236,154.21586   L 518.12236,155.06259   L 519.55842,156.42472   L 520.22122,158.89129   L 520.22122,159.6644   L 516.02351,161.02653   L 512.74635,161.87327   L 507.77538,162.57274   L 505.56606,163.30903   L 504.49822,163.30903   L 501.62611,164.00851   L 491.64734,165.03931   L 486.27133,166.10693   L 481.85269,166.47508   L 461.85835,169.0889   L 455.74589,170.11971   L 452.76331,170.11971   L 439.61786,171.48185   L 435.56744,171.48185   L 431.62748,172.25495   L 428.75537,172.25495   L 422.23787,172.91761   L 418.00334,172.91761   L 412.92191,173.69071   L 408.31916,173.69071   L 401.87531,174.35338   L 389.9818,174.35338   L 374.51656,157.19783   L 370.98165,151.71247   L 367.52038,147.47881   L 367.52038,147.00022   L 367.0417,146.81614   L 366.26843,146.81614   L 365.60564,145.26994   L 357.72573,137.68615   L 354.19082,132.42168   L 353.71213,131.9431   L 353.71213,131.35406   L 356.95247,130.21281   L 363.10174,129.84467   L 369.61924,129.14519   L 371.34987,129.14519   L 373.85377,128.4089   L 375.95262,128.4089   L 377.49914,128.11439   L 378.56698,128.11439   L 378.9352,133.08434   L 375.95262,134.92507   L 373.85377,138.5697   L 374.25881,143.17151   L 375.5844,145.26994   L 378.16194,147.00022   L 381.4391,148.54643   L 389.61358,148.54643   L 392.19112,147.88376   L 393.25896,147.88376   L 398.70862,145.26994   L 402.28035,141.33079   L 402.57493,138.09111   L 402.57493,137.02349   L 400.43925,133.85745   L 396.13108,130.87548   L 393.62718,130.6914   L 392.96438,127.34129   L 392.96438,127.04677   L 395.46828,126.67862   L 401.87531,125.97915   L 404.3792,126.27367   L 407.17768,126.27367  z "
     style="fill:#ffcc99;fill-rule:evenodd;fill-opacity:1;stroke:none;" />
  <path
     id="path27"
     d="  M 357.35751,142.80337   L 358.38853,143.53966   L 359.16179,144.23913   L 359.86141,145.26994   L 359.45636,145.6749   L 360.89242,145.96941   L 364.16958,149.98219   L 364.94284,149.98219   L 365.60564,152.08062   L 370.98165,158.22863   L 372.41771,160.36387   L 372.41771,161.02653   L 372.78593,161.39468   L 373.48555,161.39468   L 380.66584,170.11971   L 387.88295,177.33535   L 389.9818,178.40297   L 389.31901,187.31207   L 388.91396,187.68022   L 387.88295,187.68022   L 381.73367,182.59982   L 378.9352,179.43377   L 377.13092,178.40297   L 364.94284,165.44427   L 355.92145,155.3571   L 351.57646,150.35033   L 352.27607,137.42845   L 352.27607,135.99269   L 354.19082,139.15873   L 357.35751,142.80337  z "
     style="fill:#ff9966;fill-rule:evenodd;fill-opacity:1;stroke:none;" />
  <path
     id="path29"
     d="  M 524.93443,139.63732   L 524.93443,141.33079   L 524.63986,141.73575   L 524.93443,142.10389   L 527.14375,145.96941   L 530.01587,148.25191   L 534.2504,149.61405   L 546.54895,149.61405   L 554.02381,148.91457   L 556.52771,148.91457   L 562.67698,149.98219   L 564.11304,150.64485   L 565.14406,152.48557   L 565.84367,159.95891   L 564.77584,165.73879   L 564.37079,167.5427   L 563.0452,169.0889   L 560.17309,171.18733   L 554.02381,173.69071   L 543.56636,175.421   L 527.80655,178.40297   L 518.89562,179.06563   L 518.89562,178.40297   L 519.96346,177.99801   L 522.17278,176.4518   L 524.63986,173.69071   L 525.33947,165.73879   L 524.93443,159.95891   L 524.93443,158.89129   L 523.60884,157.45553   L 522.17278,154.21586   L 514.58745,144.60728   L 510.24245,140.29998   L 510.24245,139.63732   L 523.60884,139.63732   L 523.86659,139.15873   L 524.27164,139.63732   L 524.93443,139.63732  z "
     style="fill:#ffffcc;fill-rule:evenodd;fill-opacity:1;stroke:none;" />
  <path
     id="path31"
     d="  M 383.83253,189.04235   L 386.81511,191.36167   L 388.25117,217.05817   L 388.54574,219.56156   L 388.54574,220.62918   L 385.37905,218.8989   L 383.16973,217.42632   L 380.29762,216.39551   L 375.40029,212.34592   L 373.19097,211.31511   L 373.19097,211.0206   L 370.98165,209.58483   L 363.50678,203.43681   L 360.89242,200.27077   L 358.38853,194.78541   L 357.72573,190.10997   L 357.35751,167.91084   L 356.95247,161.87327   L 370.68707,176.4518   L 383.83253,189.04235  z "
     style="fill:#ffcc99;fill-rule:evenodd;fill-opacity:1;stroke:none;" />
  <path
     id="path33"
     d="  M 521.28905,172.25495   L 518.12236,174.75833   L 513.88783,176.08366   L 508.8064,176.4518   L 505.56606,177.33535   L 502.65712,177.33535   L 498.82763,177.99801   L 495.18226,177.99801   L 493.37798,178.66067   L 491.64734,178.66067   L 477.61816,181.56901   L 476.1821,181.56901   L 469.73825,182.59982   L 466.57156,182.59982   L 459.9436,184.14603   L 457.47653,184.14603   L 454.30984,184.73506   L 451.69547,184.73506   L 438.55002,186.24445   L 424.15262,186.94393   L 409.75522,187.31207   L 396.13108,187.97473   L 393.62718,187.68022   L 392.96438,187.68022   L 393.62718,179.43377   L 393.25896,179.06563   L 394.28998,178.40297   L 406.58852,177.51942   L 410.12344,177.33535   L 435.56744,175.421   L 440.28065,174.75833   L 444.51518,174.75833   L 449.19158,173.98523   L 451.03268,174.35338   L 451.32725,174.35338   L 452.17416,173.69071   L 457.18195,173.69071   L 461.12191,172.91761   L 467.16071,172.6231   L 471.46889,171.84999   L 473.97278,171.84999   L 478.28096,170.81919   L 481.15307,170.81919   L 481.85269,170.11971   L 485.49807,170.11971   L 495.55048,168.61032   L 505.16102,167.5427   L 507.07576,166.47508   L 513.40915,165.44427   L 513.88783,165.73879   L 514.58745,165.03931   L 517.82779,164.67117   L 521.28905,163.30903   L 522.17278,167.91084   L 521.28905,172.25495  z "
     style="fill:#ff9966;fill-rule:evenodd;fill-opacity:1;stroke:none;" />
  <path
     id="path35"
     d="  M 515.32389,181.93716   L 515.61847,197.69376   L 516.39173,211.0206   L 516.02351,212.75088   L 512.37813,215.73285   L 508.51182,217.42632   L 499.49043,218.49394   L 496.25009,218.49394   L 484.83527,219.9297   L 482.88371,219.9297   L 479.05422,220.99732   L 474.341,221.36547   L 466.09288,222.43309   L 457.18195,222.7276   L 444.29425,223.57433   L 426.25147,224.27381   L 394.03222,223.97929   L 392.55934,222.06494   L 391.89655,217.42632   L 390.86553,193.46009   L 390.35002,193.05513   L 390.35002,192.39247   L 409.46064,190.84626   L 422.71656,190.84626   L 434.53642,189.81546   L 446.42993,189.4105   L 449.19158,188.74784   L 451.32725,188.74784   L 465.06186,186.94393   L 478.686,185.21365   L 490.57951,183.00478   L 498.34895,181.56901   L 500.92649,181.56901   L 505.16102,180.79591   L 510.24245,180.50139   L 511.67851,180.13325   L 514.58745,180.13325   L 515.32389,181.93716  z "
     style="fill:#ffcc99;fill-rule:evenodd;fill-opacity:1;stroke:none;" />
  <path
     id="path37"
     d="  M 567.35338,211.31511   L 567.35338,214.18664   L 564.37079,215.73285   L 555.09165,216.39551   L 549.71564,217.05817   L 533.95582,217.05817   L 534.2504,211.68326   L 536.16514,201.33839   L 536.75429,196.99428   L 541.43069,196.22118   L 553.36102,195.96348   L 555.45987,195.19037   L 559.6944,194.78541   L 564.37079,205.53524   L 567.35338,211.31511  z "
     style="fill:#999933;fill-rule:evenodd;fill-opacity:1;stroke:none;" />
</svg>
