<?xml version="1.0" encoding="UTF-8" standalone="no"?>
<svg
   xmlns:dc="http://purl.org/dc/elements/1.1/"
   xmlns:cc="http://creativecommons.org/ns#"
   xmlns:rdf="http://www.w3.org/1999/02/22-rdf-syntax-ns#"
   xmlns:svg="http://www.w3.org/2000/svg"
   xmlns="http://www.w3.org/2000/svg"
   id="svg77"
   height="122.9614mm"
   width="150.114mm"
   version="1.0">
  <metadata
     id="metadata81">
    <rdf:RDF>
      <cc:Work
         rdf:about="">
        <dc:format>image/svg+xml</dc:format>
        <dc:type
           rdf:resource="http://purl.org/dc/dcmitype/StillImage" />
        <dc:title></dc:title>
      </cc:Work>
    </rdf:RDF>
  </metadata>
  <defs
     id="defs3">
    <pattern
       y="0"
       x="0"
       height="6"
       width="6"
       patternUnits="userSpaceOnUse"
       id="WMFhbasepattern" />
  </defs>
  <path
     id="path5"
     d="  M 256.7717,330.65228   L 252.29498,358.47312   L 251.01592,358.7929   L 249.73686,359.43246   L 248.13803,359.75224   L 246.85897,360.07202   L 245.26014,361.03136   L 243.98108,361.67092   L 242.70202,362.63025   L 241.42295,363.90937   L 240.46366,365.18849   L 239.50436,366.78739   L 238.86483,368.38629   L 238.2253,369.98519   L 237.90553,371.58409   L 237.90553,373.18299   L 238.2253,374.78189   L 238.86483,376.38078   L 237.90553,378.29946   L 236.94624,380.21814   L 235.66717,381.81704   L 234.06835,383.73572   L 232.78929,385.33462   L 231.19046,386.93352   L 229.9114,388.8522   L 228.9521,390.77087   L 227.03351,393.64889   L 225.43468,396.84669   L 224.15562,400.04449   L 222.87655,403.56206   L 221.91726,406.75986   L 221.27773,410.27744   L 220.95796,414.1148   L 220.6382,417.63237   L 220.6382,421.14995   L 220.6382,424.98731   L 220.95796,428.50489   L 221.59749,432.34224   L 222.55679,435.85982   L 223.51609,439.3774   L 224.79515,442.89498   L 226.07421,446.41255   L 227.35327,448.65101   L 228.63233,450.88947   L 230.23116,452.80815   L 232.14975,454.72683   L 234.06835,456.32573   L 236.30671,457.92462   L 238.54506,459.20374   L 241.10319,460.16308   L 246.21944,462.08176   L 251.97522,463.36088   L 257.73099,464.32022   L 263.48677,464.64   L 268.28326,464.32022   L 273.07974,463.68066   L 277.55646,462.72132   L 282.03317,461.12242   L 286.19012,458.88396   L 290.02731,456.32573   L 293.8645,453.12793   L 297.38192,449.61035   L 298.66098,447.37189   L 299.62028,445.45321   L 300.57957,443.21476   L 300.89934,440.65652   L 301.2191,438.41806   L 301.53887,435.85982   L 301.53887,433.30158   L 301.2191,430.74334   L 300.57957,425.30709   L 299.30051,420.19061   L 297.70168,415.07414   L 296.10285,410.59722   L 293.54473,406.1203   L 291.62614,401.64339   L 290.02731,396.52691   L 289.06801,391.41043   L 288.74825,386.29396   L 288.74825,380.8577   L 289.06801,375.42145   L 290.34708,369.98519   L 280.43434,358.7929   L 288.74825,338.00721   L 285.55059,337.68743   L 281.39364,336.72809   L 277.23669,335.76875   L 272.44021,334.80942   L 267.96349,333.5303   L 263.80654,332.57096   L 259.96935,331.61162   L 256.7717,330.65228  z "
     style="fill:#000000;fill-rule:evenodd;fill-opacity:1;stroke:none;" />
  <path
     id="path7"
     d="  M 337.67237,323.9369   L 337.03284,341.20501   L 335.11425,341.84457   L 332.87589,342.80391   L 330.95729,344.08303   L 329.35847,345.68193   L 327.43987,347.28083   L 326.16081,348.87972   L 324.56198,350.47862   L 323.60269,352.3973   L 322.32363,362.63025   L 322.96316,363.58959   L 323.28292,364.54893   L 323.92245,365.50827   L 324.56198,366.46761   L 325.20152,367.42695   L 326.16081,368.06651   L 326.80034,368.70607   L 327.75964,369.02585   L 326.80034,373.50277   L 325.52128,377.97968   L 324.24222,382.4566   L 323.28292,387.2533   L 322.96316,389.49175   L 322.64339,391.73021   L 322.64339,393.96867   L 322.64339,396.20713   L 322.96316,398.44559   L 323.60269,400.68405   L 324.56198,402.60273   L 325.84105,404.5214   L 325.84105,404.84118   L 326.16081,405.16096   L 326.48058,405.16096   L 326.80034,405.48074   L 327.12011,405.80052   L 327.75964,406.1203   L 328.0794,406.44008   L 328.71894,406.75986   L 334.15495,409.3181   L 339.91073,411.87634   L 345.66651,414.1148   L 351.42229,416.35326   L 357.49783,417.95215   L 363.57338,419.55105   L 369.64892,420.83017   L 376.04423,421.78951   L 382.11977,422.10929   L 388.51508,422.10929   L 394.59063,421.78951   L 400.98594,421.14995   L 407.06148,419.87083   L 413.13703,417.95215   L 418.89281,415.7137   L 424.96835,412.83568   L 427.52648,411.23678   L 430.0846,408.99832   L 432.32296,406.75986   L 434.24155,404.5214   L 435.84038,401.64339   L 437.43921,398.44559   L 438.3985,395.24779   L 439.03803,391.41043   L 438.71827,387.57308   L 437.75897,384.0555   L 436.79968,380.8577   L 435.52061,377.34012   L 433.92179,374.46211   L 431.68343,371.58409   L 429.1253,368.70607   L 425.92765,366.14783   L 423.36952,364.22915   L 420.8114,362.63025   L 417.93351,361.35114   L 415.05562,360.3918   L 412.17773,359.43246   L 408.98008,358.7929   L 406.10219,358.15334   L 402.90453,357.83356   L 396.50922,357.83356   L 390.11391,358.15334   L 383.39884,359.11268   L 377.00353,360.07202   L 377.00353,357.51378   L 377.00353,354.95554   L 376.364,352.07752   L 375.72446,349.51928   L 374.76517,346.96105   L 373.80587,344.72259   L 372.52681,342.80391   L 370.92798,341.20501   L 365.81173,338.96655   L 365.81173,338.64677   L 365.81173,338.32699   L 365.81173,338.32699   L 365.81173,338.00721   L 365.81173,337.68743   L 365.81173,337.36765   L 365.81173,337.04787   L 365.81173,336.72809   L 366.45126,332.25118   L 366.77103,328.09404   L 367.41056,324.25668   L 367.41056,320.09955   L 367.73033,316.26219   L 367.73033,312.10505   L 367.73033,307.62813   L 367.73033,302.83144   L 367.41056,303.15122   L 366.77103,303.471   L 366.45126,303.79078   L 366.1315,304.11056   L 366.1315,304.11056   L 365.81173,304.43034   L 365.81173,304.75012   L 365.81173,304.75012   L 362.29431,307.94791   L 358.77689,310.50615   L 355.57924,313.06439   L 352.06182,314.98307   L 348.5444,317.22153   L 345.02698,319.45999   L 341.18979,321.37866   L 337.67237,323.9369  z "
     style="fill:#000000;fill-rule:evenodd;fill-opacity:1;stroke:none;" />
  <path
     id="path9"
     d="  M 366.45126,317.22153   L 365.81173,321.05889   L 365.49197,325.21602   L 365.1722,329.37316   L 364.53267,333.85008   L 363.57338,338.00721   L 362.29431,342.16435   L 361.33502,344.08303   L 360.05595,345.68193   L 358.77689,347.28083   L 357.17807,348.87972   L 355.25947,349.51928   L 353.02111,350.47862   L 351.10252,351.11818   L 348.86416,351.75774   L 346.94557,352.71708   L 345.02698,353.35664   L 343.10838,353.67642   L 340.87002,354.31598   L 342.14909,328.41382   L 345.02698,327.1347   L 347.90487,325.21602   L 350.78276,323.29734   L 353.66064,321.05889   L 356.53853,319.14021   L 359.41642,317.54131   L 362.61408,316.26219   L 366.1315,315.30285   L 366.1315,315.62263   L 366.1315,315.62263   L 366.1315,315.94241   L 366.1315,316.26219   L 366.1315,316.58197   L 366.45126,316.90175   L 366.45126,317.22153   L 366.45126,317.22153  z "
     style="fill:#ffffff;fill-rule:evenodd;fill-opacity:1;stroke:none;" />
  <path
     id="path11"
     d="  M 299.62028,439.69718   L 299.62028,440.01696   L 299.62028,440.33674   L 299.62028,440.9763   L 299.62028,441.29608   L 299.62028,441.61586   L 299.62028,441.93564   L 299.62028,442.5752   L 299.30051,442.89498   L 299.30051,442.5752   L 299.30051,442.25542   L 299.30051,441.93564   L 299.62028,441.61586   L 299.62028,441.29608   L 299.62028,440.65652   L 299.62028,440.33674   L 299.62028,439.69718  z "
     style="fill:#ffffff;fill-rule:evenodd;fill-opacity:1;stroke:none;" />
  <path
     id="path13"
     d="  M 297.70168,432.66202   L 297.70168,435.85982   L 297.06215,438.73784   L 296.10285,441.61586   L 295.14356,444.17409   L 293.54473,446.73233   L 291.9459,449.29057   L 290.02731,451.20925   L 287.78895,453.12793   L 285.23083,454.72683   L 282.35294,456.32573   L 279.79481,457.28507   L 276.91692,458.2444   L 274.03903,459.20374   L 271.16115,459.8433   L 268.28326,460.16308   L 265.40537,460.16308   L 262.52748,460.16308   L 259.32982,460.16308   L 256.45193,459.8433   L 253.57404,459.20374   L 247.81826,457.92462   L 242.38225,455.68617   L 240.14389,454.72683   L 238.2253,453.44771   L 236.62647,451.84881   L 234.70788,450.56969   L 231.82999,447.37189   L 229.59163,443.85432   L 227.67304,439.69718   L 226.07421,435.85982   L 225.11491,431.3829   L 224.15562,427.22577   L 224.15562,424.02797   L 224.15562,420.51039   L 224.47538,417.63237   L 224.79515,414.43458   L 225.43468,411.55656   L 226.39398,408.67854   L 227.03351,405.80052   L 228.31257,403.24228   L 229.59163,400.68405   L 230.87069,398.12581   L 232.46952,395.56757   L 234.06835,393.32911   L 235.98694,391.09065   L 237.90553,388.8522   L 239.82413,386.93352   L 242.06248,385.01484   L 243.34155,385.97418   L 244.30084,386.61374   L 245.26014,387.57308   L 246.5392,388.21264   L 247.4985,389.17198   L 248.77756,389.49175   L 250.37639,389.81153   L 251.65545,389.81153   L 251.97522,389.17198   L 252.29498,388.8522   L 252.29498,388.21264   L 251.97522,387.89286   L 251.97522,387.57308   L 251.65545,386.93352   L 251.33568,386.61374   L 251.33568,386.61374   L 249.73686,385.6544   L 248.45779,385.01484   L 246.85897,384.0555   L 245.57991,382.77638   L 244.30084,381.49726   L 243.34155,379.89836   L 242.70202,378.29946   L 242.38225,376.061   L 242.38225,374.78189   L 242.38225,373.50277   L 242.70202,372.54343   L 243.02178,371.26431   L 243.66131,370.30497   L 243.98108,369.66541   L 244.62061,368.70607   L 245.26014,367.74673   L 245.89967,367.74673   L 246.5392,367.10717   L 247.17873,366.78739   L 247.81826,366.14783   L 248.45779,365.82805   L 249.41709,365.50827   L 250.37639,365.18849   L 251.33568,365.18849   L 251.65545,365.50827   L 251.97522,365.82805   L 251.97522,366.46761   L 252.29498,367.10717   L 252.29498,368.06651   L 252.29498,368.70607   L 252.29498,369.34563   L 252.29498,369.98519   L 252.29498,370.62475   L 252.61475,370.94453   L 252.93451,371.26431   L 253.25428,371.58409   L 253.89381,371.58409   L 254.21357,371.90387   L 254.8531,371.90387   L 255.49264,371.90387   L 255.49264,372.22365   L 255.8124,372.54343   L 255.8124,372.86321   L 255.8124,372.86321   L 255.8124,372.86321   L 255.8124,373.18299   L 256.13217,373.50277   L 256.13217,373.82255   L 259.32982,374.14233   L 262.52748,374.14233   L 265.72513,373.82255   L 268.92279,373.50277   L 272.12044,372.54343   L 274.99833,371.26431   L 277.87622,369.66541   L 280.43434,367.74673   L 280.43434,367.74673   L 280.43434,367.74673   L 280.75411,367.74673   L 281.07388,367.74673   L 281.39364,367.74673   L 281.71341,367.74673   L 282.03317,367.74673   L 282.03317,367.74673   L 282.35294,367.74673   L 282.6727,368.06651   L 282.99247,368.06651   L 282.99247,368.06651   L 283.31223,368.38629   L 283.632,368.38629   L 283.95177,368.70607   L 284.27153,369.02585   L 285.23083,369.98519   L 285.55059,371.26431   L 285.87036,372.54343   L 285.87036,374.14233   L 285.55059,375.74123   L 284.91106,377.34012   L 284.27153,378.93902   L 283.95177,380.21814   L 282.99247,381.49726   L 282.03317,382.4566   L 281.07388,383.09616   L 280.11458,383.73572   L 279.47505,384.37528   L 278.83552,385.01484   L 278.19599,385.6544   L 277.55646,386.61374   L 277.55646,386.61374   L 277.55646,386.93352   L 277.55646,387.2533   L 277.55646,387.57308   L 277.55646,387.57308   L 277.87622,387.89286   L 277.87622,387.89286   L 278.19599,388.21264   L 278.83552,388.21264   L 279.79481,388.53242   L 280.43434,388.53242   L 281.07388,388.21264   L 282.03317,388.21264   L 282.6727,387.89286   L 283.31223,387.89286   L 284.27153,387.57308   L 284.5913,387.57308   L 284.5913,387.89286   L 284.91106,387.89286   L 284.91106,387.89286   L 284.91106,387.89286   L 284.91106,388.21264   L 284.91106,388.21264   L 285.23083,388.53242   L 286.50989,396.52691   L 285.87036,396.84669   L 285.55059,396.84669   L 285.23083,396.52691   L 284.91106,396.52691   L 284.5913,396.20713   L 284.27153,396.20713   L 283.632,395.88735   L 282.99247,395.88735   L 282.99247,395.88735   L 282.6727,395.88735   L 282.35294,395.88735   L 282.35294,395.88735   L 282.03317,396.20713   L 282.03317,396.20713   L 281.71341,396.52691   L 281.39364,396.52691   L 288.10872,406.44008   L 289.70754,409.3181   L 291.30637,412.5159   L 292.9052,415.39392   L 294.18426,418.59171   L 295.46332,422.10929   L 296.42262,425.30709   L 297.06215,429.14445   L 297.70168,432.66202  z "
     style="fill:#ffffff;fill-rule:evenodd;fill-opacity:1;stroke:none;" />
  <path
     id="path15"
     d="  M 282.99247,343.44347   L 282.35294,346.64127   L 281.39364,349.51928   L 280.43434,352.71708   L 279.15528,355.5951   L 278.19599,358.47312   L 276.59716,361.03136   L 274.99833,363.58959   L 273.07974,365.50827   L 270.84138,366.14783   L 268.60302,366.78739   L 266.36466,367.10717   L 264.44607,367.10717   L 262.20771,367.42695   L 260.28912,367.74673   L 258.37053,367.74673   L 256.13217,368.38629   L 256.13217,364.54893   L 256.13217,360.71158   L 256.45193,356.87422   L 256.7717,353.03686   L 257.09146,349.1995   L 257.73099,345.36215   L 258.69029,341.52479   L 259.96935,337.68743   L 282.6727,342.48413   L 282.6727,342.48413   L 282.6727,342.48413   L 282.99247,342.80391   L 282.99247,342.80391   L 282.99247,343.12369   L 282.99247,343.44347   L 282.99247,343.44347   L 282.99247,343.44347  z "
     style="fill:#ffffff;fill-rule:evenodd;fill-opacity:1;stroke:none;" />
  <path
     id="path17"
     d="  M 435.52061,389.81153   L 435.52061,392.04999   L 435.20085,393.96867   L 434.88108,395.88735   L 434.24155,397.80603   L 433.60202,399.40493   L 432.64272,401.00383   L 431.68343,402.60273   L 430.40437,403.88184   L 427.84624,406.44008   L 424.64859,408.67854   L 421.45093,410.27744   L 417.93351,411.87634   L 411.5382,414.1148   L 405.78242,416.03348   L 400.34641,416.99281   L 394.91039,417.63237   L 389.47438,417.95215   L 384.03837,417.63237   L 378.28259,416.99281   L 372.20704,416.03348   L 366.77103,414.1148   L 360.69549,412.19612   L 354.93971,410.59722   L 348.86416,409.3181   L 343.10838,407.7192   L 337.67237,405.80052   L 335.11425,404.5214   L 332.55612,403.56206   L 330.31776,401.96317   L 328.0794,400.36427   L 327.75964,397.16647   L 327.43987,393.96867   L 327.75964,390.77087   L 328.0794,387.57308   L 328.71894,384.69506   L 329.67823,381.81704   L 330.95729,378.93902   L 332.87589,376.061   L 333.51542,376.38078   L 334.15495,376.061   L 334.79448,376.061   L 335.11425,375.74123   L 335.75378,375.10167   L 336.07354,374.78189   L 336.71307,374.14233   L 337.03284,373.82255   L 337.03284,373.50277   L 337.03284,373.18299   L 337.03284,373.18299   L 337.03284,372.86321   L 337.03284,372.54343   L 336.71307,372.22365   L 336.71307,371.90387   L 336.39331,371.58409   L 335.43401,370.94453   L 334.15495,370.30497   L 333.19565,369.66541   L 331.91659,369.02585   L 330.63753,368.06651   L 329.67823,367.10717   L 328.71894,365.82805   L 328.39917,364.54893   L 328.0794,363.26981   L 327.75964,361.9907   L 327.75964,360.71158   L 327.75964,359.43246   L 327.75964,358.15334   L 328.0794,356.87422   L 328.39917,355.27532   L 329.35847,354.31598   L 336.07354,349.51928   L 335.75378,357.51378   L 339.59096,361.03136   L 362.29431,354.31598   L 364.85244,349.1995   L 365.49197,348.55994   L 365.81173,348.24017   L 366.77103,347.92039   L 367.41056,347.92039   L 368.05009,347.92039   L 369.00939,348.24017   L 369.64892,348.55994   L 370.60822,348.87972   L 370.92798,348.87972   L 371.56751,349.1995   L 371.88728,349.83906   L 372.52681,350.47862   L 372.84657,351.11818   L 373.16634,351.75774   L 373.48611,352.3973   L 373.80587,353.03686   L 372.52681,360.3918   L 371.88728,360.71158   L 370.92798,361.35114   L 370.28845,361.67092   L 369.64892,362.31047   L 369.00939,363.26981   L 368.36986,363.90937   L 367.73033,364.86871   L 367.0908,365.82805   L 353.98041,369.98519   L 353.66064,369.98519   L 353.66064,369.98519   L 353.66064,370.30497   L 353.66064,370.62475   L 353.34088,370.62475   L 353.34088,370.94453   L 353.34088,371.26431   L 353.34088,371.58409   L 369.00939,373.50277   L 369.00939,373.82255   L 368.68962,374.46211   L 368.36986,374.78189   L 368.36986,375.10167   L 368.05009,375.42145   L 367.73033,376.061   L 367.41056,376.38078   L 367.0908,377.02034   L 367.0908,377.34012   L 367.41056,377.6599   L 367.41056,377.97968   L 367.73033,378.29946   L 368.05009,378.29946   L 368.68962,378.61924   L 369.00939,378.93902   L 369.32915,378.93902   L 370.60822,378.29946   L 371.56751,377.34012   L 372.52681,376.38078   L 373.16634,375.10167   L 373.80587,373.82255   L 374.76517,372.54343   L 375.4047,371.26431   L 376.68376,369.98519   L 379.56165,368.06651   L 382.43954,366.46761   L 385.31743,365.18849   L 388.51508,364.22915   L 392.03251,363.26981   L 395.23016,362.95003   L 398.42782,362.63025   L 401.94524,362.95003   L 405.46266,363.26981   L 408.66031,364.22915   L 412.17773,365.18849   L 415.37539,366.46761   L 418.57304,368.06651   L 421.7707,369.98519   L 424.96835,372.54343   L 428.16601,375.10167   L 430.0846,376.70056   L 431.68343,378.29946   L 432.96249,380.21814   L 433.60202,381.81704   L 434.24155,383.73572   L 434.56132,385.6544   L 435.20085,387.57308   L 435.52061,389.81153  z "
     style="fill:#ffffff;fill-rule:evenodd;fill-opacity:1;stroke:none;" />
  <path
     id="path19"
     d="  M 527.93284,163.72724   L 527.61308,163.72724   L 527.61308,163.72724   L 527.29331,163.72724   L 527.29331,163.72724   L 526.97355,164.04702   L 526.97355,164.04702   L 526.65378,164.04702   L 526.65378,164.04702   L 525.69448,163.08768   L 524.41542,162.44812   L 523.13636,161.80856   L 521.8573,161.48878   L 519.29917,160.84922   L 516.42129,160.84922   L 513.86316,161.169   L 510.98527,161.80856   L 508.42715,162.44812   L 505.86902,163.08768   L 505.86902,163.08768   L 505.86902,163.08768   L 505.86902,163.08768   L 505.54926,163.08768   L 505.54926,162.7679   L 505.22949,162.7679   L 505.22949,162.44812   L 504.90973,161.80856   L 506.18879,160.20966   L 508.10738,159.25032   L 510.02598,158.61076   L 512.26433,157.9712   L 514.50269,157.9712   L 517.06082,157.9712   L 519.29917,158.29098   L 521.53753,158.61076   L 522.8166,158.93054   L 523.77589,159.25032   L 524.73519,159.5701   L 525.69448,160.20966   L 526.33402,160.52944   L 526.97355,161.169   L 527.61308,161.80856   L 528.25261,162.44812   L 528.25261,162.7679   L 528.25261,162.7679   L 528.25261,162.7679   L 527.93284,163.08768   L 527.93284,163.40746   L 527.93284,163.40746   L 527.93284,163.72724   L 527.93284,163.72724  z "
     style="fill:#000000;fill-rule:evenodd;fill-opacity:1;stroke:none;" />
  <path
     id="path21"
     d="  M 442.23569,148.37781   L 463.34021,150.61627   L 474.532,140.38332   L 493.0784,105.52732   L 500.43301,102.32953   L 500.11324,102.32953   L 499.79348,102.32953   L 499.47371,102.32953   L 499.15395,102.32953   L 498.83418,102.6493   L 498.51442,102.6493   L 498.19465,102.96908   L 497.87489,103.28886   L 510.34574,108.40534   L 511.30504,109.68446   L 511.94457,110.6438   L 512.5841,111.92292   L 512.90386,113.20204   L 513.22363,116.08006   L 512.90386,118.63829   L 512.26433,121.51631   L 511.6248,124.39433   L 511.30504,127.27235   L 510.98527,130.15036   L 510.98527,130.47014   L 511.30504,130.78992   L 511.6248,130.78992   L 511.94457,130.78992   L 512.26433,130.78992   L 512.90386,130.78992   L 513.22363,130.47014   L 513.5434,130.47014   L 516.10152,129.51081   L 518.65964,128.87125   L 521.21777,128.23169   L 523.77589,127.59213   L 526.33402,127.59213   L 528.57237,127.27235   L 531.1305,127.59213   L 533.68862,127.59213   L 538.16534,128.55147   L 542.64206,130.15036   L 544.88041,131.1097   L 546.79901,132.06904   L 548.7176,133.34816   L 550.63619,134.62728   L 551.27572,135.9064   L 552.23502,137.18552   L 553.19432,138.46464   L 554.15361,139.74376   L 555.11291,141.02288   L 555.75244,142.302   L 556.07221,143.90089   L 555.75244,145.49979   L 567.264,155.09319   L 567.264,155.41297   L 567.264,155.41297   L 567.264,155.41297   L 567.264,155.41297   L 567.264,155.73275   L 567.264,155.73275   L 567.264,155.73275   L 567.264,155.73275   L 566.62447,164.04702   L 566.3047,164.68658   L 565.66517,165.64592   L 565.02564,166.28548   L 564.06634,166.92504   L 563.42681,167.5646   L 562.46752,168.20416   L 561.82799,168.84372   L 560.86869,169.1635   L 561.82799,171.40195   L 562.46752,173.32063   L 563.42681,175.55909   L 564.06634,178.11733   L 564.38611,180.35579   L 564.06634,182.91403   L 563.42681,185.47226   L 562.46752,187.71072   L 560.22916,189.30962   L 557.9908,190.26896   L 555.75244,190.90852   L 553.19432,191.2283   L 548.39784,191.2283   L 543.28159,190.58874   L 538.16534,189.94918   L 533.04909,189.94918   L 530.49097,190.26896   L 528.25261,190.90852   L 526.01425,192.18764   L 524.09566,193.46676   L 519.29917,194.4261   L 514.50269,194.4261   L 509.70621,194.4261   L 505.22949,193.78654   L 500.43301,192.8272   L 496.27606,191.54808   L 491.79934,189.94918   L 487.96216,188.0305   L 486.04356,188.67006   L 483.8052,189.30962   L 481.56685,189.6294   L 479.32849,189.94918   L 476.77036,189.6294   L 474.532,189.30962   L 472.29365,188.35028   L 470.37505,187.39094   L 469.41576,186.75138   L 468.77623,185.79204   L 468.45646,185.15248   L 467.81693,184.51292   L 467.49716,183.87337   L 467.1774,183.55359   L 466.53787,182.91403   L 466.2181,182.59425   L 464.93904,182.27447   L 463.65998,181.95469   L 461.74138,181.95469   L 459.50303,182.27447   L 457.58443,182.27447   L 455.66584,182.59425   L 454.06701,182.59425   L 452.78795,182.59425   L 451.82865,178.43711   L 450.54959,173.96019   L 449.27053,169.48328   L 447.99147,165.32614   L 446.71241,160.84922   L 445.43334,156.69209   L 443.83452,152.53495   L 442.23569,148.37781  z "
     style="fill:#000000;fill-rule:evenodd;fill-opacity:1;stroke:none;" />
  <path
     id="path23"
     d="  M 480.28778,166.92504   L 479.64825,173.32063   L 472.93318,178.43711   L 457.58443,178.43711   L 449.5903,153.17451   L 453.10772,153.81407   L 456.9449,154.13385   L 460.46232,154.13385   L 464.29951,154.45363   L 467.81693,155.09319   L 471.33435,155.73275   L 472.93318,156.37231   L 474.532,157.01187   L 475.81107,157.9712   L 477.40989,158.93054   L 478.04943,159.88988   L 478.36919,160.84922   L 478.68896,162.12834   L 479.00872,163.08768   L 479.32849,164.04702   L 479.64825,165.00636   L 479.96802,165.9657   L 480.28778,166.92504  z "
     style="fill:#ffffff;fill-rule:evenodd;fill-opacity:1;stroke:none;" />
  <path
     id="path25"
     d="  M 560.54892,177.47777   L 559.26986,185.47226   L 557.0315,186.4316   L 554.79315,187.07116   L 552.23502,187.07116   L 549.99666,187.39094   L 544.88041,187.07116   L 539.76417,186.4316   L 534.96768,186.11182   L 529.85144,186.4316   L 527.29331,187.07116   L 525.05495,187.71072   L 522.8166,188.98984   L 520.25847,190.58874   L 517.06082,190.58874   L 513.5434,190.58874   L 510.34574,190.58874   L 506.82832,190.26896   L 503.63067,189.6294   L 500.43301,188.98984   L 497.55512,188.0305   L 494.67723,186.75138   L 494.67723,186.4316   L 494.67723,186.4316   L 494.35747,186.11182   L 494.35747,185.79204   L 494.35747,185.47226   L 494.35747,185.15248   L 494.35747,184.8327   L 494.35747,184.51292   L 494.67723,183.87337   L 495.31676,183.23381   L 495.95629,182.59425   L 496.59582,181.95469   L 497.23536,180.99535   L 497.87489,180.35579   L 498.51442,179.39645   L 498.83418,178.43711   L 500.43301,166.92504   L 500.43301,166.92504   L 500.43301,166.92504   L 500.11324,166.92504   L 500.11324,166.60526   L 499.79348,166.60526   L 499.47371,166.60526   L 499.15395,166.60526   L 498.83418,166.28548   L 497.55512,168.84372   L 496.59582,171.40195   L 495.31676,173.96019   L 494.0377,176.51843   L 492.75864,178.75689   L 491.15981,180.67557   L 489.88075,181.31513   L 488.92145,182.27447   L 487.64239,182.91403   L 486.36333,183.23381   L 485.08427,183.55359   L 484.12497,183.55359   L 483.16567,183.23381   L 482.20638,183.23381   L 480.92731,182.91403   L 479.96802,182.91403   L 479.00872,182.91403   L 478.04943,182.91403   L 478.04943,182.91403   L 478.04943,183.23381   L 478.04943,183.23381   L 478.04943,183.55359   L 477.72966,183.87337   L 477.72966,183.87337   L 477.72966,184.19315   L 477.40989,184.51292   L 476.77036,184.51292   L 476.4506,184.51292   L 476.4506,184.19315   L 476.4506,184.19315   L 476.4506,184.19315   L 476.13083,183.87337   L 476.13083,183.55359   L 475.81107,183.23381   L 476.13083,183.23381   L 476.4506,183.23381   L 476.4506,183.23381   L 476.77036,183.23381   L 477.09013,182.91403   L 477.40989,182.91403   L 477.72966,182.91403   L 478.04943,182.91403   L 480.28778,181.63491   L 481.56685,179.71623   L 482.84591,177.47777   L 483.48544,175.23931   L 484.12497,172.36129   L 484.44474,169.48328   L 484.44474,166.60526   L 484.44474,163.72724   L 483.8052,161.169   L 482.84591,159.25032   L 481.88661,157.01187   L 480.92731,155.41297   L 479.64825,153.81407   L 478.04943,152.21517   L 476.13083,150.93605   L 473.89247,149.65693   L 473.89247,149.65693   L 473.89247,149.65693   L 473.57271,149.65693   L 473.25294,149.65693   L 472.93318,149.97671   L 472.93318,149.97671   L 472.61341,149.65693   L 472.29365,149.65693   L 472.93318,149.01737   L 473.25294,148.37781   L 473.89247,147.73825   L 474.532,147.09869   L 475.4913,146.77891   L 476.13083,146.45913   L 477.09013,145.81957   L 478.04943,145.49979   L 488.60169,147.41847   L 488.60169,148.05803   L 488.92145,148.37781   L 489.24122,148.69759   L 489.24122,149.01737   L 489.56098,149.33715   L 489.88075,149.65693   L 490.20051,149.97671   L 490.52028,150.61627   L 490.84005,150.61627   L 490.84005,150.93605   L 491.15981,150.93605   L 491.47958,150.93605   L 491.79934,150.93605   L 492.11911,150.93605   L 492.43887,150.61627   L 492.75864,150.61627   L 493.39817,149.33715   L 493.39817,148.05803   L 493.0784,146.77891   L 492.75864,145.18001   L 491.79934,143.90089   L 491.15981,142.62178   L 490.20051,141.34266   L 489.56098,140.38332   L 482.84591,137.82508   L 482.52614,137.5053   L 482.52614,137.18552   L 482.52614,136.86574   L 482.52614,136.54596   L 482.52614,136.22618   L 482.52614,135.9064   L 482.52614,135.58662   L 482.84591,135.26684   L 483.16567,134.94706   L 483.48544,134.62728   L 483.48544,134.62728   L 483.8052,134.3075   L 484.44474,134.3075   L 484.7645,133.98772   L 485.08427,133.66794   L 485.40403,133.34816   L 486.36333,132.06904   L 487.00286,130.78992   L 487.96216,129.19103   L 488.60169,127.59213   L 489.56098,124.07455   L 490.52028,120.23719   L 491.47958,116.71961   L 493.0784,113.52182   L 493.71793,111.92292   L 494.997,110.6438   L 496.27606,109.36468   L 497.55512,108.40534   L 503.95043,109.0449   L 505.22949,110.00424   L 506.82832,111.28336   L 507.78762,112.56248   L 508.74691,114.16138   L 509.70621,115.76028   L 510.02598,117.67895   L 510.02598,119.59763   L 510.02598,121.83609   L 509.70621,123.11521   L 509.38644,124.39433   L 509.38644,125.99323   L 509.06668,126.95257   L 508.74691,128.23169   L 508.42715,129.19103   L 507.78762,129.83058   L 507.14809,130.47014   L 503.3109,132.06904   L 503.3109,132.7086   L 503.63067,133.34816   L 503.95043,133.98772   L 504.2702,134.62728   L 504.90973,134.94706   L 505.54926,135.58662   L 506.18879,135.9064   L 507.14809,136.22618   L 511.94457,135.26684   L 517.06082,133.98772   L 522.49683,132.7086   L 527.61308,131.74926   L 530.49097,131.42948   L 533.04909,131.1097   L 535.60722,131.1097   L 538.16534,131.42948   L 540.4037,132.06904   L 542.64206,133.02838   L 544.88041,134.3075   L 547.11877,136.22618   L 548.07807,137.18552   L 549.03737,138.46464   L 549.6769,139.42398   L 550.31643,140.38332   L 550.95596,141.34266   L 551.27572,142.302   L 551.91526,143.26134   L 551.91526,144.54045   L 530.81073,146.77891   L 525.69448,141.66244   L 525.37472,141.66244   L 525.05495,141.66244   L 524.73519,141.66244   L 524.73519,141.66244   L 524.41542,141.98222   L 524.09566,141.98222   L 524.09566,141.98222   L 523.77589,142.302   L 523.77589,142.62178   L 523.77589,142.62178   L 523.77589,142.94156   L 523.77589,143.26134   L 523.45613,143.58111   L 523.45613,143.90089   L 523.45613,144.22067   L 523.45613,144.54045   L 525.69448,147.09869   L 527.29331,150.29649   L 528.89214,153.49429   L 529.85144,157.01187   L 531.1305,160.52944   L 532.08979,164.04702   L 533.04909,167.88438   L 534.00839,171.40195   L 534.00839,171.40195   L 534.00839,171.72173   L 534.32815,171.72173   L 534.64792,171.72173   L 534.64792,171.72173   L 534.96768,172.04151   L 535.28745,172.04151   L 535.60722,172.04151   L 536.24675,171.72173   L 536.88628,171.40195   L 537.20604,171.08217   L 537.52581,170.44262   L 537.52581,169.80306   L 537.84557,168.84372   L 537.84557,168.20416   L 538.16534,167.5646   L 540.72346,167.24482   L 543.60135,167.5646   L 546.15948,167.5646   L 549.03737,168.20416   L 551.59549,169.1635   L 554.15361,170.12284   L 556.39197,171.40195   L 558.31057,173.32063   L 558.63033,173.96019   L 559.26986,174.27997   L 559.58963,174.91953   L 559.90939,175.55909   L 560.22916,175.87887   L 560.22916,176.51843   L 560.54892,176.83821   L 560.54892,177.47777  z "
     style="fill:#ffffff;fill-rule:evenodd;fill-opacity:1;stroke:none;" />
  <path
     id="path27"
     d="  M 563.74658,159.88988   L 561.82799,164.04702   L 557.67103,165.9657   L 537.84557,163.08768   L 532.72933,150.29649   L 536.24675,149.97671   L 540.08393,149.65693   L 543.92112,149.33715   L 547.7583,149.65693   L 551.59549,149.97671   L 555.11291,150.61627   L 558.63033,151.89539   L 561.82799,153.81407   L 561.82799,154.13385   L 562.14775,154.45363   L 562.14775,154.77341   L 562.46752,155.09319   L 562.46752,155.41297   L 562.46752,155.73275   L 562.46752,155.73275   L 562.46752,155.73275   L 563.74658,159.88988  z "
     style="fill:#ffffff;fill-rule:evenodd;fill-opacity:1;stroke:none;" />
  <path
     id="path29"
     d="  M 295.14356,1.9186786   L 303.45746,2.2384584   L 311.4516,2.8780179   L 319.44574,3.8373572   L 327.43987,5.436256   L 335.11425,7.3549346   L 342.78862,9.593393   L 350.14322,12.151631   L 357.49783,15.029649   L 364.53267,18.547226   L 371.56751,22.064804   L 378.28259,26.221941   L 384.6779,30.698858   L 391.07321,35.175774   L 397.14875,40.292251   L 402.90453,45.728507   L 408.34055,51.164763   L 413.77656,56.920798   L 418.89281,62.996614   L 423.68929,69.392209   L 428.16601,76.107584   L 432.32296,82.822959   L 436.16014,89.858114   L 439.67756,97.213049   L 442.87522,104.56798   L 445.75311,112.2427   L 448.31123,119.91741   L 450.54959,127.91191   L 452.14842,135.9064   L 453.74725,144.22067   L 454.70654,152.53495   L 455.34607,161.169   L 455.66584,169.80306   L 455.34607,178.43711   L 454.70654,186.75138   L 453.74725,195.38544   L 452.14842,203.37993   L 450.54959,211.69421   L 448.31123,219.6887   L 445.75311,227.36341   L 442.87522,235.03813   L 439.67756,242.39306   L 436.16014,249.748   L 432.32296,256.78315   L 428.16601,263.49853   L 423.68929,270.2139   L 418.89281,276.28972   L 413.77656,282.68531   L 408.34055,288.44135   L 402.90453,293.8776   L 397.14875,299.31386   L 391.07321,304.11056   L 384.6779,308.90725   L 378.28259,313.38417   L 371.56751,317.22153   L 364.53267,321.05889   L 357.49783,324.25668   L 350.14322,327.45448   L 342.78862,330.01272   L 335.11425,332.25118   L 327.43987,334.16986   L 319.44574,335.76875   L 311.4516,336.72809   L 303.45746,337.36765   L 295.14356,337.68743   L 287.14942,337.36765   L 278.83552,336.72809   L 270.84138,335.76875   L 263.16701,334.16986   L 255.17287,332.25118   L 247.81826,330.01272   L 240.14389,327.45448   L 233.10905,324.25668   L 225.75444,321.05889   L 219.03937,317.22153   L 212.32429,313.38417   L 205.60922,308.90725   L 199.53367,304.11056   L 193.45813,299.31386   L 187.70235,293.8776   L 181.94657,288.44135   L 176.83032,282.68531   L 171.71407,276.28972   L 166.91759,270.2139   L 162.44087,263.49853   L 158.28392,256.78315   L 154.44674,249.748   L 150.92932,242.39306   L 147.73166,235.03813   L 144.85377,227.36341   L 142.29565,219.6887   L 140.05729,211.69421   L 138.1387,203.37993   L 136.85963,195.38544   L 135.90034,186.75138   L 135.26081,178.43711   L 134.94104,169.80306   L 135.26081,161.169   L 135.90034,152.53495   L 136.85963,144.22067   L 138.1387,135.9064   L 140.05729,127.91191   L 142.29565,119.91741   L 144.85377,112.2427   L 147.73166,104.56798   L 150.92932,97.213049   L 154.44674,89.858114   L 158.28392,82.822959   L 162.44087,76.107584   L 166.91759,69.392209   L 171.71407,62.996614   L 176.83032,56.920798   L 181.94657,51.164763   L 187.70235,45.728507   L 193.45813,40.292251   L 199.53367,35.175774   L 205.60922,30.698858   L 212.32429,26.221941   L 219.03937,22.064804   L 225.75444,18.547226   L 233.10905,15.029649   L 240.14389,12.151631   L 247.81826,9.593393   L 255.17287,7.3549346   L 263.16701,5.436256   L 270.84138,3.8373572   L 278.83552,2.8780179   L 287.14942,2.2384584   L 295.14356,1.9186786  z "
     style="fill:#ffff00;fill-rule:evenodd;fill-opacity:1;stroke:none;" />
  <path
     id="path31"
     d="  M 457.58443,169.80306   L 457.26467,161.169   L 456.62514,152.53495   L 455.66584,143.90089   L 454.06701,135.58662   L 452.14842,127.59213   L 450.22983,119.27785   L 447.6717,111.60314   L 444.79381,103.92842   L 441.27639,96.25371   L 437.75897,88.898775   L 433.92179,81.86362   L 429.76483,75.148245   L 425.28812,68.43287   L 420.49163,62.037275   L 415.37539,55.641679   L 409.93937,49.885643   L 404.18359,44.129608   L 398.42782,39.013131   L 392.35227,33.896655   L 385.95696,29.099959   L 379.24189,24.623042   L 372.52681,20.465905   L 365.49197,16.948328   L 358.45713,13.43075   L 350.78276,10.232953   L 343.42815,7.6747144   L 335.75378,5.436256   L 327.75964,3.5175774   L 319.7655,1.9186786   L 311.77136,0.9593393   L 303.45746,0.31977977   L 295.14356,0   L 295.14356,3.8373572   L 303.45746,4.157137   L 311.4516,4.7966965   L 319.44574,5.7560358   L 327.12011,7.0351549   L 334.79448,8.9538334   L 342.14909,11.192292   L 349.50369,13.75053   L 356.8583,16.948328   L 363.89314,20.146125   L 370.60822,23.983482   L 377.32329,27.82084   L 383.7186,32.297756   L 389.79415,36.774673   L 395.86969,41.891149   L 401.62547,47.007626   L 407.06148,52.443882   L 412.4975,58.199917   L 417.29398,64.275733   L 422.09046,70.671328   L 426.56718,77.066924   L 430.72413,83.782299   L 434.56132,90.817454   L 438.07874,97.852608   L 441.27639,105.20754   L 443.83452,112.88226   L 446.39264,120.55697   L 448.631,128.23169   L 450.22983,136.22618   L 451.82865,144.54045   L 452.78795,152.85473   L 453.42748,161.169   L 453.74725,169.80306  z "
     style="fill:#000000;fill-rule:nonzero;fill-opacity:1;stroke:none;" />
  <path
     id="path33"
     d="  M 295.14356,339.60611   L 303.45746,339.28633   L 311.77136,338.64677   L 319.7655,337.68743   L 327.75964,336.08853   L 335.75378,334.16986   L 343.42815,331.9314   L 350.78276,329.05338   L 358.45713,326.17536   L 365.49197,322.65778   L 372.52681,318.82043   L 379.24189,314.98307   L 385.95696,310.50615   L 392.35227,305.70946   L 398.42782,300.59298   L 404.18359,295.4765   L 409.93937,289.72047   L 415.37539,283.64465   L 420.49163,277.56884   L 425.28812,271.17324   L 429.76483,264.45787   L 433.92179,257.74249   L 437.75897,250.70734   L 441.27639,243.3524   L 444.79381,235.67769   L 447.6717,228.00297   L 450.22983,220.00848   L 452.14842,212.01398   L 454.06701,204.01949   L 455.66584,195.70522   L 456.62514,187.07116   L 457.26467,178.43711   L 457.58443,169.80306   L 453.74725,169.80306   L 453.42748,178.43711   L 452.78795,186.75138   L 451.82865,195.06566   L 450.22983,203.06015   L 448.631,211.05465   L 446.39264,219.04914   L 443.83452,226.72385   L 441.27639,234.39857   L 438.07874,241.7535   L 434.56132,248.78866   L 430.72413,255.82381   L 426.56718,262.53919   L 422.09046,268.93478   L 417.29398,275.33038   L 412.4975,281.40619   L 407.06148,287.16223   L 401.62547,292.59849   L 395.86969,297.71496   L 389.79415,302.83144   L 383.7186,307.30836   L 377.32329,311.78527   L 370.60822,315.62263   L 363.89314,319.45999   L 356.8583,322.65778   L 349.50369,325.5358   L 342.14909,328.41382   L 334.79448,330.65228   L 327.12011,332.25118   L 319.44574,333.85008   L 311.4516,334.80942   L 303.45746,335.44897   L 295.14356,335.76875  z "
     style="fill:#000000;fill-rule:nonzero;fill-opacity:1;stroke:none;" />
  <path
     id="path35"
     d="  M 133.02245,169.80306   L 133.34221,178.43711   L 133.98175,187.07116   L 134.94104,195.70522   L 136.53987,204.01949   L 138.1387,212.01398   L 140.37706,220.00848   L 142.93518,228.00297   L 145.81307,235.67769   L 149.01072,243.3524   L 152.52814,250.70734   L 156.6851,257.74249   L 160.84205,264.45787   L 165.31876,271.17324   L 170.11525,277.56884   L 175.23149,283.64465   L 180.66751,289.72047   L 186.42329,295.4765   L 192.17907,300.59298   L 198.25461,305.70946   L 204.64992,310.50615   L 211.365,314.98307   L 218.08007,318.82043   L 225.11491,322.65778   L 232.14975,326.17536   L 239.50436,329.05338   L 247.17873,331.9314   L 254.8531,334.16986   L 262.52748,336.08853   L 270.52161,337.68743   L 278.83552,338.64677   L 286.82966,339.28633   L 295.14356,339.60611   L 295.14356,335.76875   L 287.14942,335.44897   L 279.15528,334.80942   L 271.16115,333.85008   L 263.48677,332.25118   L 255.8124,330.65228   L 248.13803,328.41382   L 240.78342,325.5358   L 233.74858,322.65778   L 226.71374,319.45999   L 219.99867,315.62263   L 213.28359,311.78527   L 206.88828,307.30836   L 200.49297,302.83144   L 194.73719,297.71496   L 188.98141,292.59849   L 183.5454,287.16223   L 178.10938,281.40619   L 173.3129,275.33038   L 168.51642,268.93478   L 164.0397,262.53919   L 159.88275,255.82381   L 156.04556,248.78866   L 152.52814,241.7535   L 149.33049,234.39857   L 146.4526,226.72385   L 143.89448,219.04914   L 141.97588,211.05465   L 140.05729,203.06015   L 138.77823,195.06566   L 137.81893,186.75138   L 137.1794,178.43711   L 136.85963,169.80306  z "
     style="fill:#000000;fill-rule:nonzero;fill-opacity:1;stroke:none;" />
  <path
     id="path37"
     d="  M 295.14356,0   L 286.82966,0.31977977   L 278.83552,0.9593393   L 270.52161,1.9186786   L 262.52748,3.5175774   L 254.8531,5.436256   L 247.17873,7.6747144   L 239.50436,10.232953   L 232.14975,13.43075   L 225.11491,16.948328   L 218.08007,20.465905   L 211.365,24.623042   L 204.64992,29.099959   L 198.25461,33.896655   L 192.17907,39.013131   L 186.42329,44.129608   L 180.66751,49.885643   L 175.23149,55.641679   L 170.11525,62.037275   L 165.31876,68.43287   L 160.84205,75.148245   L 156.6851,81.86362   L 152.52814,88.898775   L 149.01072,96.25371   L 145.81307,103.92842   L 142.93518,111.60314   L 140.37706,119.27785   L 138.1387,127.59213   L 136.53987,135.58662   L 134.94104,143.90089   L 133.98175,152.53495   L 133.34221,161.169   L 133.02245,169.80306   L 136.85963,169.80306   L 137.1794,161.169   L 137.81893,152.85473   L 138.77823,144.54045   L 140.05729,136.22618   L 141.97588,128.23169   L 143.89448,120.55697   L 146.4526,112.88226   L 149.33049,105.20754   L 152.52814,97.852608   L 156.04556,90.817454   L 159.88275,83.782299   L 164.0397,77.066924   L 168.51642,70.671328   L 173.3129,64.275733   L 178.10938,58.199917   L 183.5454,52.443882   L 188.98141,47.007626   L 194.73719,41.891149   L 200.49297,36.774673   L 206.88828,32.297756   L 213.28359,27.82084   L 219.99867,23.983482   L 226.71374,20.146125   L 233.74858,16.948328   L 240.78342,13.75053   L 248.13803,11.192292   L 255.8124,8.9538334   L 263.48677,7.0351549   L 271.16115,5.7560358   L 279.15528,4.7966965   L 287.14942,4.157137   L 295.14356,3.8373572  z "
     style="fill:#000000;fill-rule:nonzero;fill-opacity:1;stroke:none;" />
  <path
     id="path39"
     d="  M 360.69549,112.2427   L 360.69549,112.56248   L 360.69549,112.88226   L 360.37572,113.20204   L 360.37572,113.52182   L 360.37572,114.16138   L 360.37572,114.48116   L 360.05595,114.80094   L 360.05595,115.12072   L 360.37572,115.4405   L 360.37572,115.76028   L 360.37572,115.76028   L 360.37572,115.76028   L 360.37572,116.08006   L 360.37572,116.08006   L 360.69549,116.39983   L 360.69549,116.71961   L 359.09666,123.11521   L 336.07354,140.06354   L 337.99214,142.62178   L 339.59096,145.81957   L 340.55026,149.33715   L 341.18979,153.17451   L 341.50956,157.01187   L 340.87002,160.84922   L 340.55026,162.7679   L 339.91073,164.3668   L 339.2712,166.28548   L 338.3119,167.88438   L 336.39331,170.12284   L 334.47471,172.04151   L 332.55612,173.96019   L 330.31776,175.23931   L 328.0794,176.19865   L 325.52128,177.15799   L 322.96316,177.47777   L 320.40503,177.79755   L 315.28878,176.51843   L 310.4923,174.59975   L 306.01559,172.68107   L 301.53887,170.12284   L 297.38192,167.5646   L 293.54473,164.68658   L 289.38778,161.80856   L 285.87036,158.61076   L 278.19599,152.53495   L 270.84138,146.45913   L 266.68443,143.58111   L 262.84724,141.02288   L 258.69029,138.78442   L 254.21357,136.54596   L 253.57404,135.9064   L 252.93451,135.58662   L 252.61475,135.26684   L 251.97522,134.62728   L 251.65545,134.3075   L 251.01592,133.98772   L 250.69615,133.66794   L 250.05662,133.34816   L 250.05662,133.34816   L 249.73686,133.34816   L 249.73686,133.34816   L 249.41709,133.34816   L 249.09733,133.34816   L 248.77756,133.34816   L 248.45779,133.34816   L 248.13803,133.34816   L 239.82413,146.13935   L 239.50436,145.49979   L 239.1846,144.54045   L 238.86483,143.90089   L 238.86483,142.94156   L 239.50436,141.34266   L 240.14389,139.74376   L 241.10319,138.14486   L 242.38225,136.54596   L 243.34155,135.26684   L 243.98108,133.98772   L 245.89967,132.06904   L 247.4985,130.47014   L 249.41709,128.87125   L 251.65545,127.59213   L 253.57404,126.31301   L 255.8124,125.67345   L 257.09146,125.67345   L 258.05076,125.67345   L 259.32982,125.99323   L 260.28912,126.63279   L 260.60888,126.63279   L 260.60888,126.95257   L 260.92865,126.95257   L 260.92865,127.27235   L 261.24841,127.59213   L 261.24841,127.91191   L 261.24841,128.23169   L 261.56818,128.55147   L 261.56818,128.87125   L 261.24841,129.19103   L 261.24841,129.51081   L 260.92865,129.83058   L 260.60888,130.15036   L 260.28912,130.47014   L 259.96935,130.47014   L 259.64959,130.78992   L 258.69029,130.47014   L 258.05076,130.15036   L 257.09146,130.15036   L 256.45193,129.83058   L 255.8124,129.83058   L 254.8531,129.83058   L 254.21357,129.83058   L 253.25428,130.15036   L 253.25428,130.15036   L 252.93451,130.15036   L 252.93451,130.15036   L 252.61475,130.47014   L 252.61475,130.78992   L 252.61475,131.1097   L 252.61475,131.42948   L 252.61475,131.74926   L 254.8531,133.66794   L 257.09146,135.58662   L 259.64959,137.5053   L 262.52748,139.1042   L 265.40537,140.38332   L 268.60302,141.66244   L 271.80068,142.94156   L 274.99833,143.90089   L 281.71341,145.49979   L 288.42848,146.45913   L 295.14356,146.77891   L 301.85863,146.77891   L 309.85277,145.49979   L 317.52714,143.58111   L 321.36433,142.302   L 325.20152,141.02288   L 329.0387,139.74376   L 332.55612,138.14486   L 336.07354,136.54596   L 339.2712,134.62728   L 342.46885,132.38882   L 345.34674,130.15036   L 348.22463,127.91191   L 351.10252,125.03389   L 353.34088,122.15587   L 355.899,119.27785   L 356.21877,117.99873   L 356.53853,116.71961   L 356.8583,115.76028   L 357.17807,114.48116   L 357.17807,113.52182   L 357.49783,112.2427   L 357.49783,111.28336   L 357.49783,110.32402   L 357.8176,109.68446   L 358.45713,109.36468   L 358.77689,109.36468   L 359.41642,109.36468   L 359.73619,109.68446   L 360.05595,110.32402   L 360.37572,110.6438   L 360.69549,110.96358   L 360.69549,110.96358   L 360.69549,110.96358   L 360.69549,111.28336   L 360.69549,111.60314   L 360.69549,111.92292   L 360.69549,111.92292   L 360.69549,112.2427   L 360.69549,112.2427  z "
     style="fill:#000000;fill-rule:evenodd;fill-opacity:1;stroke:none;" />
  <path
     id="path41"
     d="  M 337.67237,90.497674   L 337.67237,92.736132   L 337.3526,95.29437   L 336.71307,97.532829   L 336.07354,99.451507   L 335.11425,101.37019   L 334.15495,102.96908   L 332.55612,104.56798   L 330.63753,105.20754   L 328.71894,106.16688   L 326.80034,106.48666   L 325.20152,106.80644   L 323.28292,106.80644   L 320.08527,106.16688   L 316.88761,105.20754   L 314.00972,103.60864   L 311.13183,102.00975   L 308.57371,100.09107   L 306.01559,98.492168   L 304.73652,101.37019   L 303.77723,104.2482   L 302.81793,107.446   L 301.53887,110.32402   L 299.94004,112.88226   L 297.70168,115.4405   L 296.74239,116.39983   L 295.46332,117.35917   L 293.8645,118.31851   L 292.26567,119.27785   L 290.34708,120.23719   L 288.42848,120.87675   L 286.50989,120.87675   L 284.5913,120.55697   L 282.99247,119.91741   L 281.07388,119.27785   L 279.47505,118.63829   L 278.19599,117.99873   L 274.03903,114.48116   L 269.88208,110.6438   L 266.36466,106.48666   L 263.48677,102.00975   L 262.20771,99.771287   L 260.92865,97.532829   L 259.96935,94.974591   L 259.32982,92.736132   L 258.69029,90.177894   L 258.37053,87.619656   L 258.37053,85.061418   L 258.37053,82.1834   L 258.69029,79.625162   L 259.32982,76.747144   L 259.64959,73.869126   L 260.28912,71.310888   L 261.24841,69.072429   L 262.20771,66.833971   L 263.48677,64.595513   L 264.76584,62.676834   L 266.36466,61.397715   L 268.28326,60.438376   L 270.52161,60.118596   L 272.75997,59.798816   L 274.99833,60.118596   L 277.23669,60.438376   L 279.15528,61.077935   L 281.07388,61.717495   L 282.99247,62.676834   L 284.5913,63.955953   L 285.87036,65.554852   L 287.46919,67.153751   L 288.74825,68.75265   L 290.34708,70.031769   L 291.9459,71.310888   L 293.54473,72.590007   L 293.8645,70.351549   L 294.50403,67.79331   L 294.82379,65.554852   L 295.46332,62.996614   L 296.42262,60.438376   L 297.38192,58.519697   L 298.66098,56.601019   L 300.57957,55.00212   L 302.1784,54.04278   L 303.77723,53.403221   L 305.37605,52.763661   L 307.29465,52.763661   L 308.89347,52.763661   L 310.17254,53.403221   L 311.77136,53.723001   L 313.05043,54.68234   L 317.52714,57.240578   L 321.36433,60.118596   L 325.20152,63.636173   L 328.39917,67.473531   L 331.27706,71.310888   L 333.83518,75.787805   L 334.79448,78.026263   L 335.43401,80.584501   L 336.07354,82.822959   L 336.71307,85.381198   L 336.71307,86.020757   L 336.71307,86.980096   L 337.03284,87.619656   L 337.03284,88.259215   L 337.3526,88.898775   L 337.67237,89.538334   L 337.67237,90.177894   L 337.67237,90.497674  z "
     style="fill:#000000;fill-rule:evenodd;fill-opacity:1;stroke:none;" />
  <path
     id="path43"
     d="  M 333.83518,85.381198   L 333.83518,87.619656   L 333.83518,89.538334   L 333.51542,91.776793   L 333.19565,93.695471   L 332.55612,95.93393   L 331.59683,97.532829   L 330.31776,99.131727   L 328.39917,100.41085   L 326.48058,101.68997   L 324.56198,102.00975   L 322.64339,102.32953   L 320.7248,102.00975   L 318.80621,101.37019   L 317.20738,100.73063   L 315.60855,100.09107   L 314.32949,99.451507   L 312.4109,98.492168   L 310.81207,97.213049   L 309.21324,95.93393   L 307.93418,94.654811   L 305.37605,91.457013   L 303.45746,87.939436   L 301.53887,84.102078   L 300.25981,80.584501   L 298.98074,76.747144   L 298.02145,72.909787   L 298.34121,71.310888   L 298.66098,69.392209   L 298.98074,67.79331   L 299.62028,66.514191   L 299.94004,64.915292   L 300.57957,63.316394   L 301.2191,62.037275   L 301.85863,60.758156   L 302.81793,59.479036   L 304.09699,58.839477   L 305.69582,58.199917   L 307.29465,57.880138   L 308.89347,57.880138   L 310.4923,57.880138   L 312.4109,58.519697   L 314.32949,58.839477   L 317.84691,61.397715   L 321.04456,63.955953   L 323.92245,66.833971   L 326.80034,70.031769   L 329.0387,73.229566   L 330.95729,77.066924   L 332.55612,81.224061   L 333.83518,85.381198  z "
     style="fill:#ffffff;fill-rule:evenodd;fill-opacity:1;stroke:none;" />
  <path
     id="path45"
     d="  M 326.16081,161.80856   L 326.16081,161.80856   L 326.16081,162.12834   L 326.16081,162.44812   L 326.16081,162.44812   L 325.84105,162.7679   L 325.84105,163.08768   L 325.84105,163.40746   L 325.84105,163.72724   L 325.20152,165.00636   L 323.92245,166.28548   L 322.64339,167.24482   L 321.04456,167.88438   L 319.44574,168.52394   L 317.84691,168.84372   L 315.92832,168.84372   L 314.32949,168.84372   L 312.09113,168.20416   L 309.85277,167.5646   L 307.61441,166.60526   L 305.69582,165.64592   L 304.09699,164.68658   L 302.49816,163.72724   L 301.53887,162.44812   L 300.57957,160.84922   L 302.81793,157.01187   L 315.28878,159.5701   L 315.60855,159.5701   L 315.60855,159.5701   L 315.92832,159.5701   L 316.24808,159.25032   L 316.56785,159.25032   L 316.56785,158.93054   L 316.88761,158.93054   L 316.88761,158.61076   L 316.88761,157.65142   L 316.56785,157.01187   L 315.92832,156.37231   L 315.28878,155.73275   L 314.64925,155.41297   L 313.68996,154.77341   L 313.05043,154.13385   L 312.73066,153.49429   L 313.05043,152.85473   L 313.37019,152.53495   L 313.68996,152.21517   L 314.00972,152.21517   L 314.64925,151.89539   L 314.96902,151.89539   L 315.60855,151.57561   L 315.92832,151.25583   L 323.28292,154.45363   L 326.16081,161.80856  z "
     style="fill:#ffffff;fill-rule:evenodd;fill-opacity:1;stroke:none;" />
  <path
     id="path47"
     d="  M 322.32363,80.264721   L 322.32363,81.86362   L 322.32363,83.142739   L 322.32363,84.741638   L 322.00386,86.340537   L 321.68409,87.619656   L 321.04456,88.898775   L 320.08527,90.497674   L 319.44574,91.457013   L 318.16667,92.096573   L 317.20738,92.416352   L 315.92832,92.736132   L 314.64925,92.416352   L 313.37019,92.096573   L 312.09113,91.776793   L 310.81207,91.137233   L 309.85277,90.497674   L 308.57371,88.259215   L 307.29465,85.700977   L 306.33535,83.142739   L 305.69582,79.944942   L 305.37605,77.066924   L 305.69582,74.188906   L 306.01559,72.909787   L 306.65512,71.310888   L 307.29465,70.031769   L 307.93418,68.75265   L 308.25394,68.75265   L 308.57371,68.75265   L 308.89347,68.43287   L 308.89347,68.43287   L 309.21324,68.11309   L 309.53301,67.79331   L 309.85277,67.79331   L 309.85277,67.473531   L 314.32949,68.43287   L 322.32363,80.264721  z "
     style="fill:#000000;fill-rule:evenodd;fill-opacity:1;stroke:none;" />
  <path
     id="path49"
     d="  M 315.28878,77.066924   L 315.28878,77.066924   L 315.28878,77.386703   L 315.28878,77.386703   L 315.28878,77.706483   L 315.28878,77.706483   L 315.28878,78.026263   L 315.28878,78.026263   L 315.28878,78.026263   L 314.96902,78.346043   L 314.64925,78.346043   L 314.32949,78.346043   L 314.00972,78.026263   L 313.68996,78.026263   L 313.37019,77.706483   L 313.05043,77.386703   L 312.73066,77.066924   L 312.73066,73.549346   L 313.05043,73.549346   L 313.68996,73.869126   L 314.00972,74.188906   L 314.32949,74.828465   L 314.64925,75.148245   L 314.96902,75.787805   L 315.28878,76.427364   L 315.28878,77.066924  z "
     style="fill:#ffffff;fill-rule:evenodd;fill-opacity:1;stroke:none;" />
  <path
     id="path51"
     d="  M 300.57957,94.654811   L 300.89934,97.213049   L 300.57957,99.771287   L 300.25981,102.32953   L 299.62028,104.88776   L 298.66098,107.12622   L 297.38192,109.36468   L 295.78309,111.28336   L 293.54473,112.88226   L 291.30637,114.48116   L 289.38778,115.4405   L 287.14942,115.76028   L 284.91106,115.76028   L 282.6727,115.4405   L 280.75411,114.80094   L 278.83552,113.8416   L 276.91692,112.88226   L 273.3995,109.36468   L 270.20185,105.8471   L 267.32396,102.00975   L 265.0856,98.172388   L 264.1263,96.25371   L 263.16701,94.335031   L 262.52748,92.096573   L 262.20771,89.858114   L 261.88795,87.939436   L 261.56818,85.700977   L 261.88795,83.142739   L 261.88795,80.904281   L 262.52748,78.346043   L 263.16701,75.787805   L 264.1263,73.549346   L 265.0856,71.630668   L 266.0449,69.711989   L 267.64372,68.11309   L 269.24255,66.514191   L 270.84138,64.915292   L 273.07974,64.275733   L 274.99833,63.955953   L 276.91692,64.275733   L 278.51575,64.595513   L 280.11458,65.554852   L 281.71341,66.194412   L 283.31223,67.153751   L 285.23083,68.11309   L 287.78895,70.991108   L 290.34708,74.188906   L 292.9052,77.386703   L 295.14356,80.264721   L 297.06215,83.462519   L 298.66098,86.980096   L 299.94004,90.497674   L 300.57957,94.654811  z "
     style="fill:#ffffff;fill-rule:evenodd;fill-opacity:1;stroke:none;" />
  <path
     id="path53"
     d="  M 291.30637,95.61415   L 288.10872,103.92842   L 287.78895,104.2482   L 287.46919,104.56798   L 286.82966,104.88776   L 286.50989,105.20754   L 286.19012,105.20754   L 285.55059,105.52732   L 284.91106,105.8471   L 284.27153,106.16688   L 277.23669,104.2482   L 274.99833,102.32953   L 273.07974,99.771287   L 271.16115,97.213049   L 269.88208,94.335031   L 268.60302,91.137233   L 267.96349,87.939436   L 267.96349,86.340537   L 267.96349,84.741638   L 268.28326,83.142739   L 268.60302,81.54384   L 268.92279,80.584501   L 269.24255,79.625162   L 269.24255,78.985602   L 269.56232,78.346043   L 269.88208,77.706483   L 270.20185,77.066924   L 270.52161,76.427364   L 270.84138,76.107584   L 272.12044,75.468025   L 273.3995,75.148245   L 274.67857,75.148245   L 276.27739,75.148245   L 277.55646,75.468025   L 278.83552,76.107584   L 280.11458,76.747144   L 281.07388,77.386703   L 283.632,79.305382   L 285.55059,81.54384   L 287.14942,83.462519   L 288.10872,85.700977   L 289.06801,87.939436   L 289.70754,90.497674   L 290.66684,93.055912   L 291.30637,95.61415  z "
     style="fill:#000000;fill-rule:evenodd;fill-opacity:1;stroke:none;" />
  <path
     id="path55"
     d="  M 281.07388,87.619656   L 281.07388,87.939436   L 281.07388,87.939436   L 281.07388,88.259215   L 281.39364,88.898775   L 281.07388,89.218555   L 281.07388,89.538334   L 281.07388,89.858114   L 280.75411,90.177894   L 280.43434,90.497674   L 280.11458,90.497674   L 279.79481,90.497674   L 279.47505,90.497674   L 279.47505,90.177894   L 279.15528,89.858114   L 278.83552,89.858114   L 278.83552,89.538334   L 277.55646,83.462519   L 278.51575,83.462519   L 279.15528,83.462519   L 279.47505,84.102078   L 279.79481,84.421858   L 280.43434,85.061418   L 280.75411,86.020757   L 280.75411,86.660317   L 281.07388,87.619656  z "
     style="fill:#ffffff;fill-rule:evenodd;fill-opacity:1;stroke:none;" />
  <path
     id="path57"
     d="  M 266.36466,33.896655   L 266.36466,33.896655   L 266.36466,33.896655   L 266.36466,34.216435   L 266.36466,34.216435   L 266.0449,34.536215   L 266.0449,34.536215   L 266.0449,34.855994   L 266.0449,34.855994   L 253.57404,43.170268   L 247.17873,56.601019   L 247.4985,56.920798   L 247.4985,57.240578   L 247.81826,57.880138   L 247.81826,58.199917   L 248.13803,58.839477   L 248.13803,59.159257   L 248.13803,59.798816   L 247.81826,60.438376   L 247.81826,60.438376   L 247.4985,60.438376   L 247.4985,60.438376   L 247.17873,60.438376   L 247.17873,60.438376   L 246.85897,60.438376   L 246.5392,60.438376   L 246.5392,60.438376   L 246.5392,56.601019   L 247.17873,53.083441   L 248.13803,49.885643   L 249.41709,46.687846   L 251.33568,43.490048   L 253.25428,40.292251   L 255.8124,37.414233   L 258.37053,34.855994   L 259.32982,34.536215   L 260.28912,33.896655   L 260.92865,33.576875   L 261.88795,33.257096   L 262.52748,32.937316   L 263.16701,32.617536   L 264.1263,32.297756   L 264.76584,31.977977   L 264.76584,31.977977   L 265.0856,31.977977   L 265.40537,31.977977   L 265.72513,32.297756   L 266.0449,32.297756   L 266.36466,32.617536   L 266.68443,32.617536   L 266.68443,33.257096   L 266.68443,33.257096   L 266.68443,33.257096   L 266.68443,33.257096   L 266.68443,33.576875   L 266.68443,33.576875   L 266.36466,33.576875   L 266.36466,33.896655   L 266.36466,33.896655  z "
     style="fill:#000000;fill-rule:evenodd;fill-opacity:1;stroke:none;" />
  <path
     id="path59"
     d="  M 131.42362,222.24694   L 134.62128,220.96782   L 137.81893,219.6887   L 140.69682,218.40958   L 143.89448,217.13046   L 146.4526,215.85134   L 149.01072,213.93266   L 149.97002,212.97332   L 150.92932,211.69421   L 151.56885,210.41509   L 152.20838,209.13597   L 152.20838,208.81619   L 152.20838,208.17663   L 152.20838,207.85685   L 152.20838,207.53707   L 152.20838,207.21729   L 151.88861,206.89751   L 151.88861,206.25795   L 151.88861,205.93817   L 152.20838,204.33927   L 152.52814,203.06015   L 152.84791,201.78103   L 152.52814,200.50191   L 152.20838,197.6239   L 151.56885,195.06566   L 150.28979,192.8272   L 149.01072,190.26896   L 147.73166,188.0305   L 146.13283,186.11182   L 145.4933,185.47226   L 144.53401,184.8327   L 143.57471,184.19315   L 142.29565,183.87337   L 139.73752,183.55359   L 136.85963,183.55359   L 133.98175,183.55359   L 131.10386,183.87337   L 128.22597,184.51292   L 125.98761,185.15248   L 125.34808,185.47226   L 124.06901,186.11182   L 122.47019,186.75138   L 121.19113,187.39094   L 119.5923,188.0305   L 118.31324,188.67006   L 117.35394,189.30962   L 117.03417,190.26896   L 115.43535,186.75138   L 114.15628,183.87337   L 112.87722,181.31513   L 111.27839,179.07667   L 109.67957,176.51843   L 107.76097,173.96019   L 105.84238,171.40195   L 103.28426,168.84372   L 98.487775,146.13935   L 96.249416,131.74926   L 80.580906,125.35367   L 79.62161,124.07455   L 78.662313,122.47565   L 77.703017,121.19653   L 76.423955,119.59763   L 75.144893,117.99873   L 73.865831,116.71961   L 72.267003,115.76028   L 70.34841,114.80094   L 69.069348,113.8416   L 67.470521,113.20204   L 66.191459,112.56248   L 64.592631,112.2427   L 61.714742,112.2427   L 58.836852,112.56248   L 55.958963,113.20204   L 53.081073,113.8416   L 50.203184,114.80094   L 47.64506,115.76028   L 47.64506,115.76028   L 47.325294,115.76028   L 47.325294,115.4405   L 47.005529,115.12072   L 46.685763,114.80094   L 46.365998,114.80094   L 46.046232,114.48116   L 45.726467,114.16138   L 43.168343,113.20204   L 40.610219,112.2427   L 38.052095,111.92292   L 35.174205,111.60314   L 32.296316,111.60314   L 29.418426,112.2427   L 26.540537,113.20204   L 23.982413,114.80094   L 22.383585,115.76028   L 21.424289,117.03939   L 20.464992,118.31851   L 19.825461,119.91741   L 19.505696,121.51631   L 19.18593,123.43499   L 19.18593,125.03389   L 18.866165,126.63279   L 7.034841,134.94706   L 6.39531,147.09869   L 5.755779,147.73825   L 4.7964825,148.37781   L 4.1569515,148.69759   L 3.197655,149.33715   L 2.558124,149.97671   L 1.918593,150.61627   L 1.5988275,151.25583   L 1.279062,152.21517   L 1.279062,153.49429   L 0.95929651,154.77341   L 0.639531,156.05253   L 0.639531,157.33164   L 0.639531,158.61076   L 0.95929651,159.5701   L 1.279062,160.52944   L 1.918593,161.48878   L 7.674372,165.64592   L 7.9941375,165.64592   L 8.6336685,165.9657   L 8.953434,165.9657   L 9.2731995,166.28548   L 9.5929651,166.28548   L 9.9127306,166.60526   L 10.232496,166.60526   L 10.552262,166.92504   L 11.511558,169.80306   L 12.470855,172.68107   L 13.749917,175.55909   L 14.709213,178.43711   L 15.66851,181.31513   L 16.627806,184.19315   L 17.587103,187.39094   L 18.226634,190.58874   L 20.464992,195.70522   L 22.383585,201.14147   L 24.302178,206.89751   L 25.901006,212.65354   L 28.45913,224.16562   L 31.017254,235.99747   L 33.255612,247.82932   L 36.133502,259.66117   L 38.052095,265.09743   L 39.970688,270.85346   L 42.209046,276.28972   L 44.76717,281.40619   L 49.883418,284.28421   L 58.836852,283.32487   L 68.110052,281.72597   L 77.703017,280.12708   L 86.976216,277.88862   L 91.772699,276.6095   L 96.249416,275.33038   L 100.72613,273.73148   L 104.88308,272.13258   L 109.04004,270.2139   L 113.19699,268.29522   L 117.03417,266.05677   L 120.55159,263.81831   L 121.19113,261.89963   L 121.51089,259.98095   L 121.83066,257.74249   L 122.15042,255.82381   L 121.83066,251.98646   L 121.51089,247.82932   L 120.55159,243.67218   L 119.91206,239.83482   L 118.95277,235.99747   L 118.31324,231.84033   L 123.74925,223.84584   L 124.38878,223.52606   L 125.34808,223.20628   L 126.30737,222.8865   L 127.58644,222.8865   L 129.18526,222.56672   L 130.14456,222.24694   L 131.10386,222.24694   L 131.42362,222.24694  z "
     style="fill:#000000;fill-rule:evenodd;fill-opacity:1;stroke:none;" />
  <path
     id="path61"
     d="  M 113.83652,191.54808   L 112.55746,205.93817   L 105.20285,176.19865   L 113.83652,191.54808  z "
     style="fill:#ffffff;fill-rule:evenodd;fill-opacity:1;stroke:none;" />
  <path
     id="path63"
     d="  M 102.32496,269.25456   L 102.0052,269.25456   L 101.68543,269.25456   L 101.0459,269.57434   L 101.0459,269.57434   L 100.72613,269.89412   L 100.0866,269.89412   L 99.766837,270.2139   L 99.127306,270.53368   L 102.32496,269.25456  z "
     style="fill:#000000;fill-rule:evenodd;fill-opacity:1;stroke:none;" />
  <path
     id="path65"
     d="  M 94.011057,136.86574   L 94.011057,142.302   L 91.133168,142.62178   L 87.615747,142.94156   L 84.098327,143.26134   L 80.580906,143.58111   L 77.063486,143.90089   L 73.2263,144.22067   L 69.708879,145.18001   L 66.191459,146.13935   L 58.836852,147.73825   L 51.802011,149.65693   L 44.76717,151.57561   L 37.732329,153.81407   L 31.017254,156.05253   L 23.982413,158.29098   L 17.267337,160.52944   L 10.552262,162.44812   L 9.5929651,162.44812   L 8.6336685,162.12834   L 7.674372,161.80856   L 7.034841,161.169   L 6.0755445,160.20966   L 5.4360135,159.5701   L 5.116248,158.61076   L 4.476717,157.65142   L 5.116248,153.49429   L 5.4360135,152.53495   L 6.0755445,152.21517   L 6.7150755,151.57561   L 7.3546065,151.25583   L 8.313903,150.61627   L 8.953434,150.29649   L 9.9127306,149.65693   L 10.552262,149.33715   L 11.511558,134.94706   L 23.023116,129.83058   L 23.342882,129.19103   L 23.662647,128.55147   L 23.982413,127.59213   L 23.982413,126.95257   L 23.662647,125.99323   L 23.662647,125.03389   L 23.662647,124.39433   L 23.662647,123.43499   L 24.621944,122.15587   L 25.261475,120.55697   L 26.540537,119.27785   L 27.819599,117.99873   L 29.098661,116.71961   L 30.697488,115.76028   L 32.296316,115.12072   L 34.534674,114.80094   L 36.773033,115.12072   L 39.011391,116.08006   L 41.24975,117.35917   L 43.168343,118.63829   L 45.086936,119.91741   L 47.005529,120.87675   L 48.284591,121.19653   L 49.243887,121.51631   L 50.522949,121.51631   L 51.802011,121.51631   L 53.081073,120.23719   L 54.360135,118.95807   L 55.639197,117.99873   L 57.238025,117.35917   L 58.836852,116.71961   L 60.755445,116.39983   L 62.354273,116.39983   L 64.592631,116.39983   L 65.551928,116.71961   L 66.191459,117.03939   L 67.150755,117.67895   L 67.790286,117.99873   L 68.429817,118.31851   L 69.069348,118.63829   L 69.708879,118.95807   L 70.34841,119.27785   L 73.865831,127.59213   L 78.342548,130.78992   L 92.092464,132.7086   L 94.011057,136.86574  z "
     style="fill:#ffffff;fill-rule:evenodd;fill-opacity:1;stroke:none;" />
  <path
     id="path67"
     d="  M 118.95277,194.10632   L 121.19113,193.14698   L 123.74925,191.86786   L 126.62714,190.58874   L 129.18526,189.30962   L 132.06315,188.0305   L 134.94104,187.39094   L 136.2201,187.07116   L 137.49917,187.07116   L 139.09799,187.07116   L 140.37706,187.39094   L 141.33635,187.71072   L 142.29565,188.35028   L 143.25494,189.30962   L 144.21424,190.26896   L 145.17354,191.2283   L 146.13283,192.18764   L 147.09213,193.46676   L 148.37119,194.4261   L 149.01072,196.98434   L 149.33049,199.22279   L 149.65025,201.78103   L 149.33049,204.01949   L 148.69096,206.25795   L 147.73166,208.17663   L 146.77237,210.09531   L 145.4933,212.01398   L 143.57471,212.97332   L 141.33635,214.25244   L 138.77823,215.53156   L 136.53987,216.4909   L 133.66198,217.45024   L 131.10386,217.77002   L 128.54573,217.77002   L 125.98761,217.13046   L 125.34808,214.57222   L 124.70855,212.01398   L 124.06901,209.13597   L 123.10972,206.25795   L 122.47019,203.37993   L 121.19113,200.18213   L 120.23183,197.30412   L 118.95277,194.10632  z "
     style="fill:#ffffff;fill-rule:evenodd;fill-opacity:1;stroke:none;" />
  <path
     id="path69"
     d="  M 122.78995,211.05465   L 118.95277,226.72385   L 117.99347,226.72385   L 117.03417,226.40407   L 116.39464,225.44474   L 116.07488,224.4854   L 115.75511,223.52606   L 115.43535,222.24694   L 115.11558,221.2876   L 115.11558,220.64804   L 114.79582,219.6887   L 114.79582,219.04914   L 114.47605,218.40958   L 114.47605,217.45024   L 114.15628,216.81068   L 113.83652,216.4909   L 113.83652,215.85134   L 113.83652,215.21178   L 118.31324,200.82169   L 122.78995,211.05465  z "
     style="fill:#ffffff;fill-rule:evenodd;fill-opacity:1;stroke:none;" />
  <path
     id="path71"
     d="  M 118.633,250.06778   L 117.99347,261.26007   L 113.19699,266.37655   L 110.63886,268.29522   L 107.76097,269.57434   L 104.56332,271.17324   L 101.68543,272.45236   L 94.970354,274.69082   L 88.255278,276.28972   L 81.540203,277.88862   L 74.505362,279.16774   L 67.790286,280.44685   L 61.075211,281.72597   L 58.836852,281.72597   L 56.278728,281.72597   L 54.04037,281.40619   L 52.121777,281.08641   L 50.203184,280.44685   L 48.284591,279.8073   L 47.005529,278.52818   L 45.726467,276.92928   L 42.528812,268.29522   L 39.650922,259.34139   L 37.412564,250.38756   L 35.493971,241.43372   L 33.575378,232.47989   L 31.337019,223.84584   L 29.098661,215.21178   L 26.540537,206.89751   L 24.941709,201.46125   L 23.662647,196.34478   L 22.06382,191.2283   L 20.464992,186.11182   L 18.866165,181.31513   L 17.587103,176.19865   L 16.627806,171.08217   L 15.66851,165.64592   L 25.261475,162.44812   L 35.174205,158.61076   L 45.086936,155.09319   L 54.999666,151.89539   L 60.115914,150.61627   L 65.232162,149.33715   L 70.34841,148.69759   L 75.464658,148.05803   L 80.580906,147.73825   L 85.697154,148.05803   L 90.813402,148.37781   L 95.609885,149.65693   L 99.447071,169.80306   L 118.633,250.06778  z "
     style="fill:#ffffff;fill-rule:evenodd;fill-opacity:1;stroke:none;" />
  <path
     id="path73"
     d="  M 109.04004,236.63703   L 109.3598,238.23593   L 109.3598,240.1546   L 109.04004,242.07328   L 108.40051,243.99196   L 107.76097,245.59086   L 106.80168,247.18976   L 105.52262,248.46888   L 104.56332,249.42822   L 97.848244,252.30624   L 91.133168,254.86447   L 84.098327,256.78315   L 77.063486,258.38205   L 69.708879,259.66117   L 62.674038,259.98095   L 55.639197,259.98095   L 48.604356,259.66117   L 48.284591,259.34139   L 47.64506,259.02161   L 47.005529,258.38205   L 46.365998,258.06227   L 46.046232,257.42271   L 45.406701,256.78315   L 45.086936,255.82381   L 44.76717,255.18425   L 44.127639,251.02712   L 43.168343,247.18976   L 42.209046,243.03262   L 41.24975,239.19526   L 40.290453,235.03813   L 39.331157,231.20077   L 38.691626,227.36341   L 38.052095,223.20628   L 37.092798,216.4909   L 35.493971,209.77553   L 33.575378,203.06015   L 31.656785,196.34478   L 29.418426,189.6294   L 27.180068,183.23381   L 25.58124,176.51843   L 23.982413,169.80306   L 23.982413,169.48328   L 23.982413,169.1635   L 24.302178,169.1635   L 24.302178,168.84372   L 24.302178,168.52394   L 24.621944,168.52394   L 24.941709,168.20416   L 24.941709,168.20416   L 27.180068,168.84372   L 29.418426,169.48328   L 31.97655,169.80306   L 34.214909,169.80306   L 36.773033,169.48328   L 39.011391,168.84372   L 41.24975,168.20416   L 43.488108,166.92504   L 44.447405,166.60526   L 44.76717,165.9657   L 45.406701,165.32614   L 45.726467,164.68658   L 46.046232,163.72724   L 46.685763,163.08768   L 47.005529,162.12834   L 47.64506,161.48878   L 47.64506,161.48878   L 47.964825,161.169   L 48.284591,161.169   L 48.604356,161.169   L 48.604356,160.84922   L 48.924122,160.84922   L 49.243887,160.84922   L 49.883418,160.84922   L 51.802011,161.80856   L 54.360135,162.44812   L 56.598494,162.44812   L 59.156618,162.44812   L 61.394976,161.80856   L 63.9531,160.84922   L 65.871693,159.88988   L 67.790286,158.61076   L 67.790286,158.29098   L 67.790286,158.29098   L 67.790286,157.9712   L 68.110052,157.65142   L 68.110052,157.65142   L 68.110052,157.33164   L 68.429817,157.01187   L 68.749583,157.01187   L 71.307707,157.01187   L 73.546065,157.33164   L 76.104189,157.9712   L 78.662313,158.29098   L 81.220437,158.29098   L 83.778561,157.9712   L 84.737858,157.33164   L 86.01692,157.01187   L 86.976216,156.37231   L 87.935513,155.41297   L 88.255278,155.09319   L 88.575044,154.45363   L 88.575044,154.13385   L 88.894809,153.49429   L 89.214575,153.17451   L 89.854106,152.85473   L 90.173871,152.53495   L 90.813402,152.21517   L 91.452933,152.85473   L 91.452933,153.49429   L 91.452933,154.45363   L 91.133168,155.41297   L 90.493637,156.37231   L 90.173871,157.01187   L 89.53434,157.9712   L 89.214575,158.61076   L 109.04004,236.63703  z "
     style="fill:#000000;fill-rule:evenodd;fill-opacity:1;stroke:none;" />
  <path
     id="path75"
     d="  M 106.48191,231.52055   L 104.88308,246.86998   L 98.80754,249.10844   L 92.41223,251.3469   L 86.01692,253.58535   L 79.301844,255.18425   L 72.267003,256.46337   L 65.551928,257.10293   L 62.034507,257.10293   L 58.836852,257.10293   L 55.319432,257.10293   L 51.802011,256.78315   L 49.243887,252.30624   L 47.005529,247.82932   L 45.086936,243.3524   L 43.488108,238.55571   L 40.929984,228.64253   L 38.691626,218.72936   L 36.773033,208.17663   L 34.534674,197.94368   L 33.255612,193.14698   L 31.656785,188.0305   L 30.057957,183.23381   L 28.139364,178.11733   L 28.139364,177.47777   L 28.139364,176.83821   L 28.139364,176.19865   L 28.139364,175.87887   L 28.139364,175.23931   L 28.139364,174.91953   L 28.139364,174.59975   L 28.139364,173.96019   L 30.697488,173.64041   L 33.575378,173.64041   L 36.453267,173.32063   L 39.331157,173.00085   L 42.528812,172.36129   L 45.086936,171.40195   L 47.64506,169.80306   L 49.883418,168.20416   L 53.081073,167.88438   L 56.278728,167.24482   L 59.156618,166.60526   L 62.034507,165.9657   L 64.912397,164.68658   L 67.470521,163.72724   L 70.028645,162.12834   L 72.267003,160.84922   L 85.697154,160.84922   L 106.48191,231.52055  z "
     style="fill:#ffff00;fill-rule:evenodd;fill-opacity:1;stroke:none;" />
</svg>
