<?xml version="1.0" encoding="UTF-8" standalone="no"?>
<svg
   xmlns:dc="http://purl.org/dc/elements/1.1/"
   xmlns:cc="http://creativecommons.org/ns#"
   xmlns:rdf="http://www.w3.org/1999/02/22-rdf-syntax-ns#"
   xmlns:svg="http://www.w3.org/2000/svg"
   xmlns="http://www.w3.org/2000/svg"
   id="svg101"
   height="101.1936mm"
   width="70.231001mm"
   version="1.0">
  <metadata
     id="metadata105">
    <rdf:RDF>
      <cc:Work
         rdf:about="">
        <dc:format>image/svg+xml</dc:format>
        <dc:type
           rdf:resource="http://purl.org/dc/dcmitype/StillImage" />
        <dc:title></dc:title>
      </cc:Work>
    </rdf:RDF>
  </metadata>
  <defs
     id="defs3">
    <pattern
       y="0"
       x="0"
       height="6"
       width="6"
       patternUnits="userSpaceOnUse"
       id="WMFhbasepattern" />
  </defs>
  <path
     id="path5"
     d="  M 262.46678,42.201151   L 262.46678,42.201151   L 262.46678,41.881445   L 262.46678,41.881445   L 262.46678,41.561739   L 262.46678,41.242033   L 262.46678,40.922328   L 262.46678,40.922328   L 262.46678,40.922328   L 258.95017,36.126742   L 254.79418,31.650863   L 250.63819,27.814395   L 246.16251,23.977926   L 241.36713,20.461164   L 236.25207,16.944401   L 230.49762,14.06705   L 224.42348,11.189699   L 219.9478,13.747344   L 215.47212,16.30499   L 210.99643,19.182341   L 206.52075,22.379398   L 197.56939,29.093217   L 188.61802,36.126742   L 179.98635,43.799679   L 171.35468,51.15291   L 163.0427,58.825846   L 154.73072,65.859371   L 158.88671,63.941137   L 163.0427,61.383492   L 167.19869,58.50614   L 171.35468,55.309084   L 179.66666,48.595264   L 187.97864,40.922328   L 196.61031,33.569097   L 205.24199,25.896161   L 209.71767,22.379398   L 213.87366,19.182341   L 218.34934,15.985284   L 223.14471,13.427639   L 227.3007,14.706462   L 231.137,16.944401   L 234.65361,19.182341   L 237.85053,22.059692   L 241.04744,24.937043   L 244.24436,27.814395   L 247.76096,30.691746   L 251.27757,33.569097   L 252.23665,34.84792   L 253.19572,35.487331   L 254.1548,36.126742   L 254.79418,36.766154   L 255.75325,37.405565   L 256.39264,38.364682   L 257.03202,39.323799   L 257.35171,40.282916   L 202.04507,104.86346   L 202.04507,104.86346   L 201.72538,104.86346   L 201.40569,104.86346   L 201.086,104.86346   L 200.44661,104.86346   L 200.12692,104.86346   L 199.80723,104.86346   L 199.48754,104.86346   L 196.61031,102.62553   L 193.4134,100.06788   L 190.53617,97.510234   L 187.33926,95.272294   L 184.46203,92.714649   L 181.26512,90.157003   L 178.38789,87.919064   L 175.51067,86.000829   L 173.27283,84.722007   L 171.03499,83.443184   L 169.11684,82.484067   L 167.19869,81.205244   L 165.28054,80.246127   L 163.36239,79.28701   L 161.12455,78.967304   L 158.88671,78.647599   L 160.16547,79.606716   L 161.44424,80.565833   L 163.0427,81.52495   L 164.32147,82.484067   L 165.91992,83.123478   L 167.19869,84.082595   L 168.79715,85.041712   L 170.07591,86.000829   L 172.31375,87.279652   L 174.5516,88.558475   L 176.78944,90.157003   L 179.02728,91.755532   L 182.86358,95.592   L 186.69987,99.428468   L 190.21648,103.58464   L 194.05278,107.74082   L 197.56939,111.89699   L 201.40569,115.41375   L 201.40569,115.73346   L 201.40569,116.05316   L 201.40569,116.37287   L 201.40569,116.69258   L 201.72538,117.01228   L 201.72538,117.33199   L 201.72538,117.65169   L 201.72538,117.9714   L 167.83807,146.1055   L 167.19869,146.1055   L 166.23961,146.4252   L 165.60023,146.1055   L 164.96085,146.1055   L 164.32147,145.78579   L 163.68208,145.46609   L 163.0427,145.14638   L 162.40332,144.50697   L 162.08362,143.86756   L 161.76393,143.22815   L 161.44424,142.26903   L 161.12455,141.30991   L 160.48517,140.6705   L 159.84578,140.03109   L 158.88671,139.39168   L 157.60794,138.75227   L 119.56465,176.47754   L 119.56465,176.47754   L 119.56465,176.79724   L 119.56465,177.11695   L 119.56465,177.43666   L 119.56465,177.75636   L 119.56465,178.39577   L 119.56465,178.71548   L 119.56465,179.03518   L 129.15539,191.50371   L 129.47508,191.50371   L 129.79478,191.50371   L 130.11447,191.82341   L 130.43416,191.82341   L 130.75385,191.82341   L 131.07354,191.82341   L 131.71293,191.82341   L 132.03262,192.14312   L 149.29596,178.07607   L 148.33689,184.15047   L 146.73843,190.54459   L 144.82028,196.9387   L 142.58244,203.33282   L 137.46737,216.12104   L 132.03262,229.22898   L 129.47508,235.62309   L 127.23724,242.0172   L 125.31909,248.73102   L 124.04033,254.80543   L 123.40094,258.00249   L 123.08125,261.19955   L 123.08125,264.3966   L 122.76156,267.59366   L 123.08125,270.47101   L 123.40094,273.66807   L 124.04033,276.54542   L 124.9994,279.74247   L 124.9994,279.74247   L 125.31909,279.74247   L 125.63879,279.74247   L 125.95848,280.06218   L 126.27817,280.06218   L 126.59786,280.38189   L 126.91755,280.38189   L 127.23724,280.70159   L 132.99169,277.18483   L 132.99169,276.54542   L 133.31138,276.22571   L 133.31138,275.5863   L 133.63107,275.2666   L 133.95077,274.62718   L 133.95077,273.98777   L 133.63107,273.34836   L 133.31138,272.70895   L 128.8357,268.87248   L 131.71293,261.83896   L 134.27046,254.80543   L 136.5083,247.4522   L 138.10676,239.77926   L 141.30367,224.7531   L 144.1809,209.40722   L 145.77935,202.05399   L 147.6975,195.02047   L 149.93534,187.98694   L 152.81257,180.95342   L 154.09133,177.75636   L 156.00948,174.5593   L 157.60794,171.36225   L 159.84578,168.4849   L 161.76393,165.60755   L 164.32147,162.73019   L 166.879,160.17255   L 169.75622,157.6149   L 170.3956,149.62226   L 202.04507,122.44728   L 207.47983,124.04581   L 215.15242,119.25022   L 262.46678,42.201151  z "
     style="fill:#999999;fill-rule:evenodd;fill-opacity:1;stroke:none;" />
  <path
     id="path7"
     d="  M 240.72775,8.6320535   L 224.10379,0   L 207.79952,9.5911706   L 225.38255,2.8773512   L 241.68682,8.9517592   L 241.68682,8.9517592   L 241.68682,8.9517592   L 241.36713,8.9517592   L 241.36713,8.9517592   L 241.04744,8.6320535   L 241.04744,8.6320535   L 241.04744,8.6320535   L 240.72775,8.6320535  z "
     style="fill:#999999;fill-rule:evenodd;fill-opacity:1;stroke:none;" />
  <path
     id="path9"
     d="  M 212.59489,269.8316   L 211.31613,267.91336   L 209.39798,265.99513   L 207.79952,264.3966   L 205.56168,262.79807   L 203.32384,261.51925   L 200.7663,260.24043   L 198.20877,259.28131   L 195.33155,258.00249   L 212.59489,271.43013   L 212.59489,271.43013   L 212.59489,271.11042   L 212.59489,270.79072   L 212.59489,270.79072   L 212.59489,270.47101   L 212.59489,270.1513   L 212.59489,270.1513   L 212.59489,269.8316  z "
     style="fill:#999999;fill-rule:evenodd;fill-opacity:1;stroke:none;" />
  <path
     id="path11"
     d="  M 210.35705,287.41541   L 210.35705,285.49718   L 210.03736,283.89865   L 209.71767,282.30012   L 209.07828,280.70159   L 207.16013,277.50454   L 205.24199,274.94689   L 202.68445,272.38924   L 200.12692,270.1513   L 197.2497,267.91336   L 194.69216,266.31484   L 189.89679,264.3966   L 185.42111,262.47837   L 180.62573,260.56013   L 176.15005,258.96161   L 171.35468,257.68278   L 166.879,256.72367   L 162.08362,256.40396   L 157.60794,256.08425   L 157.60794,256.40396   L 157.28825,256.40396   L 157.28825,256.72367   L 157.28825,257.36308   L 157.28825,257.68278   L 157.28825,258.00249   L 157.28825,258.32219   L 157.60794,258.6419   L 189.25741,276.22571   L 188.61802,278.14395   L 187.65895,279.74247   L 186.38018,281.341   L 185.10142,282.93953   L 182.22419,285.17747   L 178.70759,287.09571   L 175.51067,289.01394   L 171.99406,290.93217   L 170.3956,292.211   L 169.11684,293.17011   L 167.51838,294.44894   L 166.55931,296.04746   L 166.879,296.36717   L 166.879,296.68688   L 166.879,296.68688   L 166.879,296.68688   L 167.19869,296.68688   L 167.19869,297.00658   L 167.51838,297.32629   L 167.83807,297.9657   L 177.10913,300.84305   L 177.10913,301.16276   L 177.10913,301.48246   L 177.10913,302.12187   L 177.10913,302.44158   L 177.10913,302.76128   L 176.78944,303.4007   L 176.46974,304.04011   L 176.46974,304.35981   L 181.58481,304.35981   L 186.69987,304.04011   L 189.25741,303.7204   L 191.81494,303.08099   L 194.05278,302.44158   L 196.61031,301.48246   L 198.52846,300.52334   L 200.7663,299.24452   L 202.68445,297.64599   L 204.6026,296.04746   L 206.52075,294.12923   L 207.79952,292.211   L 209.39798,289.97306   L 210.35705,287.41541  z "
     style="fill:#999999;fill-rule:evenodd;fill-opacity:1;stroke:none;" />
  <path
     id="path13"
     d="  M 218.98872,61.703197   L 218.98872,61.063786   L 218.98872,60.74408   L 218.66903,60.424375   L 218.66903,60.104669   L 218.34934,59.784963   L 217.70996,59.465258   L 217.39027,59.145552   L 216.75088,58.825846   L 216.43119,58.825846   L 216.43119,59.145552   L 216.1115,59.145552   L 216.1115,59.465258   L 215.79181,59.465258   L 215.79181,59.784963   L 215.47212,59.784963   L 215.47212,60.104669   L 215.47212,60.424375   L 215.47212,61.063786   L 215.79181,61.383492   L 215.79181,61.703197   L 216.1115,62.022903   L 216.75088,62.342609   L 217.07057,62.662314   L 217.70996,62.662314   L 218.02965,62.662314   L 218.02965,62.662314   L 218.34934,62.662314   L 218.66903,62.662314   L 218.98872,62.662314   L 218.98872,62.342609   L 218.98872,62.022903   L 218.98872,61.703197  z "
     style="fill:#999999;fill-rule:evenodd;fill-opacity:1;stroke:none;" />
  <path
     id="path15"
     d="  M 221.86595,29.412923   L 218.98872,24.617338   L 218.66903,24.937043   L 218.34934,25.256749   L 218.02965,25.896161   L 218.02965,26.535572   L 218.02965,27.174983   L 218.02965,27.814395   L 218.02965,28.453806   L 218.02965,29.093217   L 218.34934,29.412923   L 218.66903,30.052334   L 218.98872,30.37204   L 219.62811,30.37204   L 219.9478,30.691746   L 220.58718,30.691746   L 221.22656,30.691746   L 221.54626,30.37204   L 221.54626,30.37204   L 221.54626,30.37204   L 221.54626,30.052334   L 221.54626,30.052334   L 221.54626,29.732629   L 221.54626,29.412923   L 221.86595,29.412923   L 221.86595,29.412923  z "
     style="fill:#999999;fill-rule:evenodd;fill-opacity:1;stroke:none;" />
  <path
     id="path17"
     d="  M 213.87366,35.807037   L 213.87366,35.807037   L 213.87366,35.487331   L 213.87366,35.167625   L 213.87366,35.167625   L 213.87366,34.84792   L 213.87366,34.528214   L 213.55397,34.528214   L 213.55397,34.208508   L 213.55397,33.888803   L 213.23427,33.569097   L 212.91458,33.249391   L 212.2752,32.929686   L 211.63582,32.929686   L 210.99643,32.929686   L 210.35705,32.929686   L 209.71767,32.929686   L 209.39798,33.569097   L 209.39798,34.208508   L 209.39798,34.84792   L 209.71767,35.487331   L 210.35705,35.807037   L 210.67674,36.446448   L 211.31613,36.766154   L 211.63582,37.08586   L 211.95551,37.08586   L 212.59489,37.08586   L 213.23427,37.08586   L 213.55397,37.08586   L 214.19335,37.08586   L 214.19335,36.766154   L 214.19335,36.446448   L 213.87366,35.807037  z "
     style="fill:#999999;fill-rule:evenodd;fill-opacity:1;stroke:none;" />
  <path
     id="path19"
     d="  M 211.63582,52.751438   L 211.95551,52.751438   L 211.63582,52.431732   L 211.63582,52.112027   L 211.63582,51.792321   L 211.63582,51.792321   L 211.31613,51.472615   L 210.99643,51.15291   L 210.67674,51.15291   L 210.35705,51.15291   L 210.03736,51.472615   L 209.71767,51.472615   L 209.39798,52.112027   L 209.07828,52.431732   L 209.07828,52.751438   L 209.39798,53.390849   L 209.39798,53.710555   L 209.71767,54.030261   L 210.03736,54.349967   L 210.35705,54.349967   L 210.99643,54.030261   L 211.31613,54.030261   L 211.63582,53.710555   L 211.63582,53.390849   L 211.63582,52.751438  z "
     style="fill:#999999;fill-rule:evenodd;fill-opacity:1;stroke:none;" />
  <path
     id="path21"
     d="  M 181.26512,348.4792   L 181.26512,345.28214   L 181.26512,342.40479   L 180.62573,339.52744   L 179.66666,336.65009   L 178.0682,333.77274   L 176.46974,331.21509   L 174.5516,328.97715   L 171.99406,326.41951   L 165.91992,324.18157   L 159.52609,321.94363   L 153.13226,320.6648   L 146.73843,319.38598   L 140.3446,318.74657   L 133.95077,318.10716   L 127.55693,317.78745   L 120.84341,317.46775   L 108.05575,317.14804   L 94.948395,316.82833   L 88.554564,316.18892   L 82.160733,315.54951   L 75.44721,314.27069   L 69.053378,312.99187   L 61.380781,312.67216   L 53.708183,312.35245   L 45.715894,311.71304   L 38.362988,310.75393   L 34.526689,310.11452   L 31.010082,309.1554   L 27.493475,307.55687   L 24.296559,305.95834   L 21.099643,304.04011   L 18.222419,301.80217   L 15.664887,298.92482   L 13.427046,295.72776   L 13.107354,295.08835   L 12.787663,294.76864   L 12.467971,294.12923   L 12.467971,293.80953   L 12.14828,293.17011   L 12.14828,293.17011   L 11.828588,292.85041   L 11.828588,292.85041   L 14.705812,289.01394   L 17.583036,285.49718   L 20.779952,281.98041   L 24.296559,278.46365   L 31.649465,272.06954   L 39.322063,265.67542   L 46.99466,259.28131   L 54.027875,252.56749   L 57.544482,249.05073   L 60.741398,245.21426   L 63.618622,241.37779   L 66.495846,237.22162   L 67.135229,236.58221   L 67.774612,235.9428   L 68.413995,235.30338   L 69.053378,234.66397   L 69.692761,234.02456   L 70.332145,233.38515   L 70.971528,233.06544   L 71.930602,233.06544   L 73.52906,234.02456   L 75.127518,234.34427   L 76.725976,234.66397   L 78.324434,234.66397   L 79.922892,234.66397   L 81.841041,234.66397   L 83.439499,234.98368   L 85.357648,235.30338   L 89.513639,230.82751   L 93.669629,226.35163   L 98.145311,221.55604   L 102.62099,217.08016   L 107.09667,212.28458   L 111.57236,207.48899   L 116.04804,202.6934   L 120.20403,197.89782   L 120.52372,196.619   L 120.84341,195.65988   L 121.4828,194.70076   L 121.80249,193.74165   L 122.12218,192.78253   L 122.44187,192.14312   L 122.44187,191.184   L 122.12218,190.54459   L 118.92526,191.82341   L 115.72835,194.06135   L 112.53143,196.619   L 109.33452,199.81605   L 106.45729,202.6934   L 103.26038,205.89046   L 100.06346,208.76781   L 97.186236,211.32546   L 95.268087,213.24369   L 93.030246,215.16193   L 90.792405,217.08016   L 88.554564,218.99839   L 86.316723,220.91663   L 84.078882,222.83486   L 82.160733,224.7531   L 80.562275,226.67133   L 70.012453,222.19545   L 70.971528,218.67869   L 72.250294,215.48163   L 73.848752,212.28458   L 75.44721,209.08752   L 78.963817,203.01311   L 82.800116,196.9387   L 86.956106,191.184   L 91.112096,185.4293   L 95.268087,179.35489   L 98.784694,173.28048   L 99.743769,172.32136   L 100.38315,171.68195   L 101.34223,171.36225   L 101.98161,170.72284   L 102.62099,170.40313   L 102.94068,170.08342   L 103.58007,170.08342   L 104.21945,169.76372   L 113.49051,170.40313   L 143.54151,129.80051   L 143.54151,129.4808   L 143.54151,129.1611   L 143.54151,128.84139   L 143.22182,128.52169   L 143.22182,127.88227   L 142.90213,127.56257   L 142.58244,127.24286   L 142.26275,126.92316   L 133.95077,120.84875   L 134.59015,118.2911   L 135.54922,115.73346   L 136.5083,113.49552   L 137.78707,111.25758   L 140.66429,106.46199   L 143.54151,101.98611   L 146.73843,97.510234   L 149.29596,92.714649   L 150.57473,90.157003   L 151.21411,87.599358   L 152.17319,84.722007   L 152.49288,81.844656   L 140.02491,97.510234   L 128.19632,113.49552   L 116.36773,129.80051   L 104.85883,146.4252   L 93.669629,163.0499   L 82.480424,179.9943   L 71.291219,197.25841   L 60.102014,214.84222   L 59.14294,216.12104   L 58.503557,217.71957   L 57.864173,218.99839   L 56.905099,219.95751   L 56.265716,221.23633   L 55.626333,222.51516   L 54.667258,223.79398   L 54.027875,224.7531   L 54.667258,226.03192   L 55.626333,226.99104   L 56.585407,227.63045   L 57.544482,228.26986   L 58.823248,228.58957   L 60.102014,229.22898   L 61.380781,229.54868   L 62.659547,229.86839   L 59.462631,234.34427   L 55.946024,238.18074   L 52.109725,242.0172   L 47.953735,245.53397   L 39.322063,251.92808   L 30.69039,258.32219   L 26.5344,261.83896   L 22.37841,265.35572   L 18.542111,268.87248   L 15.025504,272.70895   L 12.14828,276.86512   L 9.2710554,281.0213   L 8.3119807,283.57894   L 7.352906,286.13659   L 6.3938313,288.69423   L 5.7544482,291.25188   L 5.7544482,295.08835   L 6.0741398,298.2854   L 7.352906,301.48246   L 8.9513639,304.35981   L 10.869513,306.91746   L 13.107354,309.4751   L 15.664887,311.71304   L 18.222419,313.63128   L 23.337484,316.50863   L 28.452549,318.74657   L 33.887306,320.6648   L 39.322063,322.26333   L 44.756819,323.22245   L 50.191576,324.18157   L 55.626333,324.82098   L 61.380781,325.14068   L 72.569986,325.78009   L 83.75919,326.73921   L 89.513639,327.05892   L 95.268087,328.01803   L 100.70284,328.97715   L 106.45729,330.25597   L 114.76927,330.57568   L 123.40094,330.57568   L 131.71293,330.57568   L 139.70521,330.57568   L 148.0172,331.21509   L 156.00948,332.17421   L 159.84578,332.81362   L 163.68208,333.77274   L 167.51838,335.05156   L 171.35468,336.33038   L 171.99406,336.65009   L 172.63345,337.2895   L 173.27283,337.92891   L 173.59252,338.56832   L 174.2319,339.52744   L 174.5516,340.48656   L 174.87129,341.44567   L 174.87129,342.40479   L 173.91221,344.96243   L 172.31375,347.52008   L 170.07591,349.75802   L 167.83807,351.67625   L 165.28054,353.27478   L 162.72301,354.87331   L 160.16547,356.15213   L 157.60794,357.43096   L 147.6975,359.6689   L 137.78707,361.90684   L 128.19632,363.18566   L 118.28588,364.46448   L 108.37544,365.4236   L 98.465002,366.06301   L 88.874255,366.38272   L 78.963817,366.70242   L 59.14294,367.02213   L 39.322063,367.66154   L 29.731316,367.98124   L 19.820877,368.62066   L 9.9104386,369.89948   L 0,371.1783   L 2.5575325,372.45712   L 5.1150651,373.09654   L 7.9922892,373.41624   L 10.549822,373.41624   L 13.107354,373.41624   L 15.984578,373.41624   L 18.861802,373.73595   L 21.739027,374.37536   L 38.362988,375.33447   L 55.306641,375.97389   L 71.930602,376.933   L 88.234872,377.57241   L 104.85883,377.89212   L 121.4828,377.57241   L 129.79478,376.933   L 138.10676,376.29359   L 146.73843,375.33447   L 155.05041,374.05565   L 159.2064,371.81771   L 163.36239,369.57977   L 167.51838,367.02213   L 171.35468,364.46448   L 173.27283,362.86595   L 174.87129,361.26742   L 176.46974,359.34919   L 177.74851,357.75066   L 179.02728,355.51272   L 179.98635,353.27478   L 180.62573,351.03684   L 181.26512,348.4792  z "
     style="fill:#999999;fill-rule:evenodd;fill-opacity:1;stroke:none;" />
  <path
     id="path23"
     d="  M 205.24199,45.717913   L 204.92229,45.078502   L 204.28291,44.43909   L 203.96322,43.799679   L 203.32384,43.160268   L 203.00414,42.520856   L 202.36476,42.201151   L 201.40569,41.881445   L 200.7663,41.561739   L 200.44661,41.561739   L 200.12692,41.561739   L 200.12692,41.881445   L 199.80723,41.881445   L 199.80723,42.201151   L 199.48754,42.201151   L 199.48754,42.201151   L 199.16785,42.520856   L 201.72538,47.636147   L 202.04507,47.955853   L 202.36476,47.955853   L 203.00414,47.955853   L 203.32384,47.955853   L 203.96322,47.636147   L 204.6026,47.316441   L 204.92229,46.996736   L 205.56168,46.357324   L 205.56168,46.357324   L 205.56168,46.357324   L 205.24199,46.357324   L 205.24199,46.037619   L 205.24199,46.037619   L 205.24199,45.717913   L 205.24199,45.717913   L 205.24199,45.717913  z "
     style="fill:#999999;fill-rule:evenodd;fill-opacity:1;stroke:none;" />
  <path
     id="path25"
     d="  M 195.97093,116.37287   L 195.97093,116.37287   L 195.97093,116.05316   L 195.97093,115.73346   L 195.97093,115.41375   L 195.97093,114.77434   L 195.97093,114.45464   L 195.65124,114.13493   L 195.65124,113.81522   L 181.58481,107.1014   L 192.13463,113.49552   L 177.10913,127.88227   L 179.98635,127.56257   L 182.86358,126.92316   L 185.42111,125.64433   L 187.97864,124.36551   L 190.53617,122.76698   L 192.45432,121.16845   L 194.37247,118.93052   L 195.97093,116.37287  z "
     style="fill:#999999;fill-rule:evenodd;fill-opacity:1;stroke:none;" />
  <path
     id="path27"
     d="  M 189.5771,55.309084   L 189.5771,54.669672   L 189.25741,54.349967   L 188.93772,54.030261   L 188.61802,53.710555   L 188.29833,53.071144   L 187.65895,52.751438   L 187.01957,52.431732   L 186.06049,52.112027   L 185.7408,52.112027   L 185.42111,52.431732   L 185.10142,52.751438   L 184.78173,53.071144   L 184.46203,53.710555   L 184.46203,54.030261   L 184.46203,54.349967   L 184.46203,54.989378   L 184.46203,55.309084   L 184.46203,55.628789   L 184.78173,55.948495   L 185.10142,56.268201   L 185.42111,56.587906   L 185.7408,57.227318   L 186.38018,57.547023   L 187.01957,57.547023   L 187.33926,57.547023   L 187.65895,57.547023   L 187.97864,57.547023   L 188.61802,57.547023   L 188.93772,57.227318   L 189.25741,56.907612   L 189.5771,56.587906   L 189.89679,55.948495   L 189.89679,55.948495   L 189.89679,55.948495   L 189.89679,55.948495   L 189.89679,55.628789   L 189.5771,55.628789   L 189.5771,55.309084   L 189.5771,55.309084   L 189.5771,55.309084  z "
     style="fill:#999999;fill-rule:evenodd;fill-opacity:1;stroke:none;" />
  <path
     id="path29"
     d="  M 156.96856,347.83979   L 156.96856,347.52008   L 156.96856,347.20037   L 156.96856,346.88067   L 156.96856,346.56096   L 156.96856,346.24126   L 156.64887,345.92155   L 156.64887,345.28214   L 156.32918,344.96243   L 152.81257,342.72449   L 148.97627,340.80626   L 144.82028,339.20773   L 140.66429,338.24862   L 136.5083,337.2895   L 132.35231,336.65009   L 127.87663,336.33038   L 123.40094,336.01068   L 114.44958,336.01068   L 105.49822,336.01068   L 96.546853,336.01068   L 87.915181,335.37126   L 95.90747,336.33038   L 103.89976,336.96979   L 112.21174,337.6092   L 120.20403,338.56832   L 128.51601,339.52744   L 136.5083,341.12597   L 140.3446,342.08508   L 144.1809,343.36391   L 148.0172,344.64273   L 151.85349,345.92155   L 152.17319,346.24126   L 152.49288,346.88067   L 152.49288,347.20037   L 152.81257,347.52008   L 153.13226,348.15949   L 153.45195,348.7989   L 153.77164,349.11861   L 154.09133,349.75802   L 154.41103,350.07773   L 155.05041,350.07773   L 155.68979,349.75802   L 156.00948,349.75802   L 156.64887,349.43831   L 156.96856,349.11861   L 156.96856,348.4792   L 156.96856,347.83979  z "
     style="fill:#999999;fill-rule:evenodd;fill-opacity:1;stroke:none;" />
  <path
     id="path31"
     d="  M 179.98635,65.21996   L 179.98635,64.900254   L 179.98635,64.260843   L 179.98635,63.941137   L 179.98635,63.621431   L 179.66666,62.98202   L 179.34697,62.662314   L 179.02728,62.342609   L 178.70759,62.022903   L 178.38789,62.022903   L 178.38789,62.022903   L 178.0682,62.022903   L 177.74851,62.022903   L 177.42882,62.022903   L 177.10913,62.022903   L 176.78944,62.022903   L 176.15005,62.342609   L 175.83036,62.98202   L 175.83036,63.621431   L 176.15005,64.260843   L 176.46974,64.900254   L 177.10913,65.21996   L 177.74851,65.859371   L 178.38789,66.179077   L 179.34697,66.498783   L 179.34697,66.498783   L 179.34697,66.179077   L 179.66666,66.179077   L 179.66666,65.859371   L 179.66666,65.539666   L 179.66666,65.21996   L 179.98635,65.21996   L 179.98635,65.21996  z "
     style="fill:#999999;fill-rule:evenodd;fill-opacity:1;stroke:none;" />
  <path
     id="path33"
     d="  M 155.68979,299.88393   L 107.09667,297.9657   L 106.45729,297.64599   L 105.81791,297.32629   L 105.49822,297.00658   L 105.17853,296.36717   L 104.53914,296.04746   L 104.21945,295.72776   L 103.89976,295.08835   L 103.26038,294.76864   L 79.922892,284.85777   L 80.242583,283.57894   L 80.562275,282.61983   L 81.521349,281.341   L 82.160733,280.70159   L 84.398573,279.10306   L 86.636414,277.82424   L 89.513639,276.54542   L 92.071171,275.5863   L 94.628704,274.30748   L 96.866545,273.02866   L 98.465002,272.70895   L 99.743769,272.38924   L 100.70284,271.74983   L 101.98161,271.11042   L 102.62099,270.47101   L 103.58007,269.8316   L 104.21945,268.87248   L 105.17853,267.91336   L 106.77698,262.79807   L 105.49822,262.15866   L 103.58007,261.83896   L 101.98161,261.51925   L 100.06346,261.19955   L 95.90747,261.19955   L 91.75148,261.83896   L 87.915181,262.79807   L 83.75919,264.0769   L 80.242583,265.67542   L 77.365359,267.59366   L 75.127518,269.19219   L 73.52906,270.79072   L 71.930602,272.38924   L 70.651836,274.30748   L 69.37307,276.22571   L 68.733687,278.14395   L 68.094304,280.38189   L 68.094304,282.61983   L 68.413995,283.57894   L 68.733687,284.53806   L 68.733687,285.49718   L 68.733687,286.45629   L 68.733687,287.41541   L 69.053378,288.05482   L 69.37307,288.69423   L 69.692761,289.33365   L 71.930602,291.89129   L 74.807827,294.12923   L 77.685051,296.04746   L 80.881966,297.64599   L 84.078882,299.24452   L 87.595489,300.20364   L 91.112096,301.16276   L 94.948395,302.12187   L 102.62099,303.4007   L 110.29359,304.35981   L 117.96619,305.63864   L 125.31909,306.91746   L 129.79478,306.91746   L 133.95077,306.91746   L 138.10676,306.27805   L 141.94306,305.63864   L 145.77935,304.67952   L 149.29596,303.4007   L 152.81257,301.80217   L 156.32918,299.88393   L 156.32918,299.88393   L 156.32918,299.88393   L 156.00948,299.88393   L 156.00948,299.88393   L 155.68979,299.88393   L 155.68979,299.88393   L 155.68979,299.88393   L 155.68979,299.88393  z "
     style="fill:#999999;fill-rule:evenodd;fill-opacity:1;stroke:none;" />
  <path
     id="path35"
     d="  M 165.60023,178.71548   L 165.28054,173.28048   L 165.28054,172.96078   L 164.96085,172.96078   L 164.96085,172.64107   L 164.64116,172.64107   L 164.32147,172.32136   L 164.00177,172.00166   L 163.68208,172.00166   L 163.0427,171.68195   L 162.40332,175.83813   L 161.44424,179.9943   L 160.80486,183.83077   L 160.16547,187.98694   L 159.2064,192.14312   L 158.24733,196.29929   L 157.28825,200.45546   L 156.00948,204.93134   L 153.45195,210.68605   L 150.89442,216.76045   L 148.97627,222.51516   L 147.05812,228.58957   L 145.45966,234.34427   L 143.8612,240.41868   L 142.26275,246.17338   L 140.66429,252.24779   L 140.3446,253.52661   L 140.02491,255.12514   L 139.70521,256.08425   L 139.06583,257.04337   L 138.42645,258.32219   L 138.10676,259.28131   L 137.46737,260.24043   L 136.82799,261.19955   L 140.3446,272.70895   L 141.94306,269.19219   L 143.54151,265.67542   L 144.82028,261.83896   L 146.09905,258.00249   L 148.33689,250.00985   L 150.25504,242.0172   L 152.49288,233.70486   L 154.73072,225.39251   L 156.32918,221.23633   L 157.60794,217.08016   L 159.52609,213.24369   L 161.44424,209.08752   L 162.72301,205.25105   L 163.36239,201.09488   L 164.00177,197.25841   L 164.32147,193.74165   L 164.32147,189.90518   L 164.64116,186.06871   L 164.96085,182.55195   L 165.60023,178.71548  z "
     style="fill:#999999;fill-rule:evenodd;fill-opacity:1;stroke:none;" />
  <path
     id="path37"
     d="  M 146.41874,59.145552   L 144.82028,59.784963   L 142.90213,60.74408   L 141.30367,61.703197   L 139.70521,62.662314   L 138.42645,63.941137   L 136.82799,65.539666   L 135.22953,66.818488   L 133.95077,68.417017   L 133.63107,69.056428   L 133.31138,69.695839   L 133.31138,70.654957   L 133.31138,71.614074   L 133.63107,72.573191   L 133.95077,73.532308   L 134.27046,74.171719   L 134.59015,75.130836   L 140.3446,78.008187   L 117.6465,112.85611   L 124.36002,108.06052   L 142.90213,80.885538   L 142.90213,80.885538   L 142.90213,80.565833   L 143.22182,80.246127   L 142.90213,79.926421   L 142.90213,79.606716   L 142.90213,79.28701   L 142.90213,78.647599   L 142.58244,78.327893   L 142.26275,77.368776   L 141.62336,76.729365   L 140.98398,75.770247   L 140.02491,75.450542   L 139.06583,74.81113   L 137.78707,73.852013   L 136.82799,73.212602   L 135.86892,72.573191   L 135.86892,72.253485   L 135.86892,71.933779   L 135.86892,71.614074   L 135.86892,71.294368   L 135.86892,70.974662   L 135.86892,70.654957   L 135.86892,70.015545   L 135.86892,69.695839   L 146.41874,59.145552  z "
     style="fill:#999999;fill-rule:evenodd;fill-opacity:1;stroke:none;" />
  <path
     id="path39"
     d="  M 138.42645,129.1611   L 138.42645,129.1611   L 138.42645,129.1611   L 138.10676,128.84139   L 138.10676,128.84139   L 138.10676,128.52169   L 137.78707,128.52169   L 137.78707,128.52169   L 137.78707,128.52169   L 137.14768,128.20198   L 136.5083,127.88227   L 135.86892,127.56257   L 134.90984,127.24286   L 134.27046,126.92316   L 133.31138,126.92316   L 132.35231,126.92316   L 131.39323,127.24286   L 107.73606,162.09078   L 108.05575,162.73019   L 108.69513,163.0499   L 109.33452,163.36961   L 110.29359,163.36961   L 111.57236,163.0499   L 112.53143,163.0499   L 113.49051,162.73019   L 114.12989,162.41049   L 138.42645,129.1611  z "
     style="fill:#999999;fill-rule:evenodd;fill-opacity:1;stroke:none;" />
  <path
     id="path41"
     d="  M 70.332145,334.09244   L 65.21708,333.77274   L 70.332145,334.09244  z "
     style="fill:#999999;fill-rule:evenodd;fill-opacity:1;stroke:none;" />
  <path
     id="path43"
     d="  M 39.002371,358.70978   L 8.9513639,362.54625   L 39.002371,358.70978  z "
     style="fill:#999999;fill-rule:evenodd;fill-opacity:1;stroke:none;" />
  <path
     id="path45"
     d="  M 49.232501,214.20281   L 47.953735,214.52252   L 46.99466,215.16193   L 46.355277,216.12104   L 45.396202,217.08016   L 44.756819,218.03928   L 43.797745,219.3181   L 43.158361,220.27722   L 42.199287,221.23633   L 42.83867,221.55604   L 44.117436,220.91663   L 45.076511,220.27722   L 46.035586,218.99839   L 47.314352,217.71957   L 48.273427,216.44075   L 49.232501,215.16193   L 49.871884,214.20281   L 49.871884,214.20281   L 49.871884,214.20281   L 49.871884,214.20281   L 49.552193,214.20281   L 49.552193,214.20281   L 49.232501,214.20281   L 49.232501,214.20281   L 49.232501,214.20281  z "
     style="fill:#999999;fill-rule:evenodd;fill-opacity:1;stroke:none;" />
  <path
     id="path47"
     d="  M 47.314352,231.46692   L 38.362988,230.18809   L 39.322063,230.5078   L 39.961446,230.5078   L 40.92052,230.82751   L 41.879595,231.14721   L 42.518978,231.46692   L 43.158361,232.10633   L 43.797745,232.74574   L 44.117436,233.38515   L 40.600829,235.62309   L 37.403913,237.54132   L 34.206998,239.45956   L 31.010082,241.37779   L 28.132858,243.61573   L 24.935942,246.17338   L 22.058718,249.37043   L 18.861802,252.8872   L 47.634043,232.10633   L 47.634043,232.10633   L 47.634043,232.10633   L 47.634043,232.10633   L 47.314352,231.78662   L 47.314352,231.78662   L 47.314352,231.78662   L 47.314352,231.46692   L 47.314352,231.46692  z "
     style="fill:#999999;fill-rule:evenodd;fill-opacity:1;stroke:none;" />
  <path
     id="path49"
     d="  M 112.85112,272.38924   L 96.546853,279.74247   L 101.66192,290.29276   L 102.62099,290.61247   L 105.17853,291.57159   L 109.01482,292.5307   L 113.17081,294.12923   L 117.6465,295.40805   L 121.1631,296.68688   L 124.04033,297.64599   L 124.9994,297.64599   L 126.27817,297.9657   L 130.11447,297.9657   L 135.54922,298.2854   L 141.62336,298.2854   L 147.6975,298.60511   L 153.13226,298.60511   L 156.64887,298.60511   L 158.24733,298.60511   L 159.2064,298.60511   L 162.40332,297.9657   L 166.55931,297.00658   L 171.35468,296.04746   L 176.15005,295.08835   L 180.62573,294.12923   L 183.50296,293.48982   L 184.78173,293.17011   L 185.10142,292.5307   L 185.7408,290.61247   L 187.01957,288.05482   L 188.61802,285.17747   L 189.89679,282.30012   L 191.17556,279.42277   L 191.81494,277.82424   L 192.13463,276.86512   L 191.49525,276.54542   L 189.25741,274.94689   L 186.38018,272.70895   L 182.86358,270.47101   L 179.34697,267.91336   L 176.15005,265.99513   L 173.91221,264.3966   L 173.27283,263.75719   L 155.3701,261.83896   L 149.61565,269.51189   L 139.06583,280.70159   L 138.10676,280.38189   L 134.90984,279.42277   L 130.75385,277.82424   L 125.95848,276.22571   L 121.1631,274.62718   L 116.68742,273.34836   L 113.8102,272.38924   L 112.85112,272.38924  z "
     style="fill:#a8b87d;fill-rule:evenodd;fill-opacity:1;stroke:none;" />
  <path
     id="path51"
     d="  M 75.766901,224.7531   L 166.55931,93.034355   L 196.93,124.36551   L 89.193947,229.54868   L 75.766901,224.7531  z "
     style="fill:#c5d997;fill-rule:evenodd;fill-opacity:1;stroke:none;" />
  <path
     id="path53"
     d="  M 265.344,43.160268   L 265.344,43.160268   L 265.344,42.840562   L 265.344,42.840562   L 265.344,42.520856   L 265.344,42.201151   L 265.344,41.881445   L 265.344,41.881445   L 265.344,41.881445   L 261.5077,37.08586   L 257.6714,32.60998   L 253.51541,28.773512   L 249.03973,24.937043   L 244.24436,21.420281   L 239.12929,17.903518   L 233.37484,15.026167   L 227.3007,12.148816   L 222.82502,14.706462   L 218.34934,17.264107   L 213.87366,20.141458   L 209.39798,23.338515   L 200.44661,30.052334   L 191.49525,37.08586   L 182.86358,44.758796   L 174.2319,52.431732   L 165.60023,59.784963   L 157.60794,66.818488   L 161.44424,64.900254   L 165.60023,62.342609   L 169.75622,59.465258   L 173.91221,56.268201   L 182.22419,49.554381   L 190.85587,41.881445   L 199.16785,34.528214   L 208.11921,26.855278   L 212.2752,23.338515   L 216.75088,20.141458   L 221.22656,16.944401   L 225.70225,14.386756   L 230.17793,15.665579   L 234.01423,17.903518   L 237.53083,20.141458   L 240.72775,23.018809   L 243.92467,25.896161   L 247.12158,28.773512   L 250.63819,31.650863   L 254.1548,34.528214   L 254.79418,35.807037   L 255.75325,36.446448   L 256.71233,37.08586   L 257.6714,37.725271   L 258.63048,38.364682   L 259.26986,39.323799   L 259.90924,40.282916   L 260.22893,41.242033   L 204.92229,105.82258   L 204.92229,105.82258   L 204.6026,105.82258   L 204.28291,105.82258   L 203.64353,105.82258   L 203.32384,105.82258   L 203.00414,105.82258   L 202.68445,105.82258   L 202.04507,105.82258   L 199.16785,103.58464   L 196.29062,101.027   L 193.09371,98.469351   L 190.21648,96.231411   L 187.01957,93.673766   L 184.14234,91.11612   L 180.94543,88.878181   L 178.0682,86.959946   L 176.15005,85.681124   L 173.91221,84.402301   L 171.99406,83.443184   L 170.07591,82.164361   L 168.15776,81.205244   L 166.23961,80.246127   L 164.00177,79.926421   L 161.76393,79.606716   L 163.0427,80.565833   L 164.32147,81.52495   L 165.60023,82.484067   L 167.19869,83.443184   L 168.47746,84.082595   L 170.07591,85.041712   L 171.35468,86.000829   L 172.63345,86.959946   L 175.19098,88.238769   L 177.42882,89.517592   L 179.66666,91.11612   L 181.58481,92.714649   L 185.7408,96.551117   L 189.5771,100.38759   L 193.09371,104.54376   L 196.61031,108.69993   L 200.44661,112.85611   L 203.96322,116.37287   L 203.96322,116.69258   L 204.28291,117.01228   L 204.28291,117.33199   L 204.28291,117.65169   L 204.28291,117.9714   L 204.6026,118.2911   L 204.6026,118.61081   L 204.6026,118.93052   L 170.7153,147.06462   L 170.07591,147.06462   L 169.11684,147.38432   L 168.47746,147.06462   L 167.83807,147.06462   L 166.879,146.74491   L 166.23961,146.4252   L 165.60023,146.1055   L 165.28054,145.46609   L 164.96085,144.82668   L 164.64116,144.18726   L 164.32147,143.22815   L 163.68208,142.26903   L 163.36239,141.62962   L 162.72301,140.99021   L 161.76393,140.3508   L 160.48517,139.71138   L 122.44187,177.43666   L 122.44187,177.43666   L 122.44187,177.75636   L 122.44187,178.07607   L 122.44187,178.39577   L 122.44187,178.71548   L 122.44187,179.35489   L 122.44187,179.6746   L 122.12218,179.9943   L 132.03262,192.46282   L 132.03262,192.46282   L 132.35231,192.46282   L 132.99169,192.78253   L 133.31138,192.78253   L 133.63107,192.78253   L 133.95077,192.78253   L 134.27046,192.78253   L 134.59015,193.10223   L 152.17319,179.03518   L 151.21411,185.10959   L 149.61565,191.50371   L 147.6975,197.89782   L 145.45966,204.29193   L 140.02491,217.08016   L 134.90984,230.18809   L 132.35231,236.58221   L 130.11447,242.97632   L 128.19632,249.69014   L 126.91755,255.76455   L 126.27817,258.96161   L 125.95848,262.15866   L 125.63879,265.35572   L 125.63879,268.55278   L 125.95848,271.43013   L 126.27817,274.62718   L 126.91755,277.50454   L 127.55693,280.70159   L 127.87663,280.70159   L 127.87663,280.70159   L 128.19632,280.70159   L 128.51601,281.0213   L 128.8357,281.0213   L 129.47508,281.341   L 129.79478,281.341   L 130.11447,281.66071   L 135.86892,278.14395   L 135.86892,277.50454   L 135.86892,277.18483   L 136.18861,276.54542   L 136.5083,276.22571   L 136.5083,275.5863   L 136.5083,274.94689   L 136.5083,274.30748   L 136.18861,273.66807   L 131.39323,269.8316   L 134.59015,262.79807   L 137.14768,255.76455   L 139.06583,248.41132   L 140.98398,240.73838   L 144.1809,225.71221   L 147.05812,210.36634   L 148.65658,203.01311   L 150.57473,195.97959   L 152.81257,188.94606   L 155.3701,181.91254   L 156.96856,178.71548   L 158.56702,175.51842   L 160.48517,172.32136   L 162.40332,169.44401   L 164.64116,166.56666   L 167.19869,163.68931   L 169.75622,161.13167   L 172.31375,158.57402   L 172.95314,150.58138   L 204.92229,123.40639   L 210.35705,125.00492   L 218.02965,120.20934   L 265.344,43.160268  z "
     style="fill:#000000;fill-rule:evenodd;fill-opacity:1;stroke:none;" />
  <path
     id="path55"
     d="  M 243.60497,9.5911706   L 226.98101,0.95911706   L 210.35705,10.550288   L 227.94009,3.8364682   L 244.56405,9.9108763   L 244.56405,9.9108763   L 244.56405,9.9108763   L 244.24436,9.9108763   L 244.24436,9.9108763   L 243.92467,9.5911706   L 243.92467,9.5911706   L 243.60497,9.5911706   L 243.60497,9.5911706  z "
     style="fill:#000000;fill-rule:evenodd;fill-opacity:1;stroke:none;" />
  <path
     id="path57"
     d="  M 215.47212,270.79072   L 213.87366,268.87248   L 212.2752,266.95425   L 210.35705,265.35572   L 208.4389,263.75719   L 205.88137,262.47837   L 203.64353,261.19955   L 200.7663,260.24043   L 198.20877,258.96161   L 215.15242,272.38924   L 215.15242,272.38924   L 215.15242,272.06954   L 215.15242,271.74983   L 215.47212,271.74983   L 215.47212,271.43013   L 215.47212,271.11042   L 215.47212,271.11042   L 215.47212,270.79072  z "
     style="fill:#000000;fill-rule:evenodd;fill-opacity:1;stroke:none;" />
  <path
     id="path59"
     d="  M 213.23427,288.37453   L 213.23427,286.45629   L 212.91458,284.85777   L 212.2752,283.25924   L 211.63582,281.66071   L 210.03736,278.46365   L 207.79952,275.90601   L 205.56168,273.34836   L 202.68445,271.11042   L 200.12692,268.87248   L 197.2497,267.27395   L 192.77401,265.35572   L 188.29833,263.43748   L 183.50296,261.51925   L 178.70759,259.92072   L 174.2319,258.6419   L 169.43653,257.68278   L 164.96085,257.36308   L 160.48517,257.04337   L 160.16547,257.36308   L 160.16547,257.36308   L 159.84578,257.68278   L 159.84578,258.32219   L 159.84578,258.6419   L 159.84578,258.96161   L 160.16547,259.28131   L 160.16547,259.60102   L 192.13463,277.18483   L 191.17556,279.10306   L 190.21648,280.70159   L 189.25741,282.30012   L 187.97864,283.89865   L 184.78173,286.13659   L 181.58481,288.05482   L 178.0682,289.97306   L 174.87129,291.89129   L 173.27283,293.17011   L 171.67437,294.12923   L 170.3956,295.40805   L 169.43653,297.00658   L 169.43653,297.32629   L 169.75622,297.64599   L 169.75622,297.64599   L 169.75622,297.64599   L 169.75622,297.64599   L 170.07591,297.9657   L 170.07591,298.2854   L 170.3956,298.92482   L 179.66666,301.80217   L 179.98635,302.12187   L 179.98635,302.44158   L 179.98635,303.08099   L 179.98635,303.4007   L 179.66666,303.7204   L 179.66666,304.35981   L 179.34697,304.99922   L 179.34697,305.31893   L 184.46203,305.31893   L 189.5771,304.99922   L 192.13463,304.67952   L 194.37247,304.04011   L 196.93,303.4007   L 199.16785,302.44158   L 201.40569,301.48246   L 203.64353,300.20364   L 205.56168,298.60511   L 207.47983,297.00658   L 209.07828,295.08835   L 210.67674,293.17011   L 211.95551,290.93217   L 213.23427,288.37453  z "
     style="fill:#000000;fill-rule:evenodd;fill-opacity:1;stroke:none;" />
  <path
     id="path61"
     d="  M 221.54626,62.662314   L 221.54626,62.022903   L 221.54626,61.703197   L 221.54626,61.383492   L 221.22656,61.063786   L 220.90687,60.74408   L 220.58718,60.424375   L 219.9478,60.104669   L 219.62811,59.784963   L 219.30841,59.784963   L 219.30841,60.104669   L 218.98872,60.104669   L 218.66903,60.424375   L 218.66903,60.424375   L 218.34934,60.74408   L 218.34934,60.74408   L 218.34934,61.063786   L 218.34934,61.383492   L 218.34934,62.022903   L 218.34934,62.342609   L 218.66903,62.662314   L 218.98872,62.98202   L 219.30841,63.301726   L 219.9478,63.621431   L 220.26749,63.621431   L 220.58718,63.621431   L 220.90687,63.621431   L 221.22656,63.621431   L 221.54626,63.621431   L 221.86595,63.621431   L 221.86595,63.301726   L 221.86595,62.98202   L 221.54626,62.662314  z "
     style="fill:#000000;fill-rule:evenodd;fill-opacity:1;stroke:none;" />
  <path
     id="path63"
     d="  M 224.42348,30.37204   L 221.86595,25.576455   L 221.54626,25.896161   L 221.22656,26.215866   L 220.90687,26.855278   L 220.90687,27.494689   L 220.90687,28.1341   L 220.90687,28.773512   L 220.90687,29.412923   L 220.90687,30.052334   L 221.22656,30.37204   L 221.54626,31.011452   L 221.86595,31.331157   L 222.18564,31.331157   L 222.82502,31.650863   L 223.4644,31.650863   L 223.7841,31.650863   L 224.42348,31.331157   L 224.42348,31.331157   L 224.42348,31.331157   L 224.42348,31.011452   L 224.42348,31.011452   L 224.42348,30.691746   L 224.42348,30.37204   L 224.42348,30.37204   L 224.42348,30.37204  z "
     style="fill:#000000;fill-rule:evenodd;fill-opacity:1;stroke:none;" />
  <path
     id="path65"
     d="  M 216.75088,36.766154   L 216.75088,36.766154   L 216.75088,36.446448   L 216.75088,36.126742   L 216.75088,36.126742   L 216.43119,35.807037   L 216.43119,35.487331   L 216.43119,35.487331   L 216.43119,35.167625   L 216.43119,34.84792   L 216.1115,34.528214   L 215.47212,34.208508   L 215.15242,33.888803   L 214.51304,33.888803   L 213.87366,33.888803   L 213.23427,33.888803   L 212.59489,33.888803   L 212.2752,34.528214   L 212.2752,35.167625   L 212.2752,35.807037   L 212.59489,36.446448   L 212.91458,36.766154   L 213.55397,37.405565   L 213.87366,37.725271   L 214.51304,38.044977   L 214.83273,38.044977   L 215.47212,38.044977   L 215.79181,38.044977   L 216.43119,38.044977   L 216.75088,38.044977   L 217.07057,37.725271   L 217.07057,37.405565   L 216.75088,36.766154  z "
     style="fill:#000000;fill-rule:evenodd;fill-opacity:1;stroke:none;" />
  <path
     id="path67"
     d="  M 214.51304,53.710555   L 214.51304,53.710555   L 214.51304,53.390849   L 214.51304,53.071144   L 214.51304,52.751438   L 214.19335,52.751438   L 214.19335,52.431732   L 213.87366,52.112027   L 213.23427,52.112027   L 212.91458,52.112027   L 212.59489,52.431732   L 212.2752,52.431732   L 212.2752,53.071144   L 211.95551,53.390849   L 211.95551,53.710555   L 211.95551,54.349967   L 212.2752,54.669672   L 212.59489,54.989378   L 212.91458,55.309084   L 213.23427,55.309084   L 213.55397,54.989378   L 214.19335,54.989378   L 214.51304,54.669672   L 214.51304,54.349967   L 214.51304,53.710555  z "
     style="fill:#000000;fill-rule:evenodd;fill-opacity:1;stroke:none;" />
  <path
     id="path69"
     d="  M 183.82265,349.43831   L 184.14234,346.24126   L 184.14234,343.36391   L 183.50296,340.48656   L 182.22419,337.6092   L 180.94543,334.73185   L 179.34697,332.17421   L 177.10913,329.93627   L 174.87129,327.37862   L 168.47746,325.14068   L 162.40332,322.90274   L 156.00948,321.62392   L 149.61565,320.3451   L 143.22182,319.70569   L 136.82799,319.06627   L 130.11447,318.74657   L 123.72064,318.42686   L 110.61328,318.10716   L 97.825619,317.78745   L 91.431788,317.14804   L 84.718265,316.50863   L 78.324434,315.22981   L 71.930602,313.95098   L 64.258005,313.63128   L 56.265716,313.31157   L 48.593118,312.67216   L 40.92052,311.71304   L 37.403913,311.07363   L 33.887306,310.11452   L 30.370699,308.51599   L 27.173783,306.91746   L 23.976867,304.99922   L 21.099643,302.76128   L 18.542111,299.88393   L 15.984578,296.68688   L 15.984578,296.04746   L 15.664887,295.72776   L 15.345195,295.08835   L 15.025504,294.76864   L 15.025504,294.12923   L 14.705812,294.12923   L 14.705812,293.80953   L 14.705812,293.80953   L 17.263345,289.97306   L 20.46026,286.45629   L 23.657176,282.93953   L 26.854092,279.42277   L 34.206998,273.02866   L 41.879595,266.63454   L 49.552193,260.24043   L 56.905099,253.52661   L 60.421706,250.00985   L 63.618622,246.17338   L 66.495846,242.33691   L 69.053378,238.18074   L 70.012453,237.54132   L 70.651836,236.90191   L 71.291219,236.2625   L 71.930602,235.62309   L 72.250294,234.98368   L 72.889677,234.34427   L 73.848752,234.02456   L 74.807827,234.02456   L 76.406284,234.98368   L 78.004742,235.30338   L 79.6032,235.62309   L 81.201658,235.62309   L 82.800116,235.62309   L 84.398573,235.62309   L 86.316723,235.9428   L 87.915181,236.2625   L 92.071171,231.78662   L 96.546853,227.31074   L 101.02253,222.51516   L 105.49822,218.03928   L 109.9739,213.24369   L 114.44958,208.44811   L 118.60557,203.65252   L 123.08125,198.85694   L 123.40094,197.57811   L 123.72064,196.619   L 124.04033,195.65988   L 124.67971,194.70076   L 124.9994,194.06135   L 124.9994,193.10223   L 124.9994,192.14312   L 124.67971,191.50371   L 121.80249,192.78253   L 118.60557,195.02047   L 115.40866,197.57811   L 112.21174,200.77517   L 109.01482,203.65252   L 106.1376,206.84958   L 102.94068,209.72693   L 100.06346,212.28458   L 98.145311,214.20281   L 95.90747,216.12104   L 93.669629,218.03928   L 91.431788,219.95751   L 89.193947,221.87575   L 86.956106,223.79398   L 85.037957,225.71221   L 83.439499,227.63045   L 72.889677,223.15457   L 73.848752,219.63781   L 75.127518,216.44075   L 76.725976,213.24369   L 78.324434,210.04664   L 81.841041,203.97223   L 85.67734,197.89782   L 89.83333,192.14312   L 93.98932,186.38841   L 98.145311,180.31401   L 101.66192,174.2396   L 102.62099,173.28048   L 103.26038,172.64107   L 103.89976,172.32136   L 104.53914,171.68195   L 105.17853,171.36225   L 105.81791,171.04254   L 106.45729,171.04254   L 107.09667,170.72284   L 116.04804,171.36225   L 146.41874,130.75963   L 146.41874,130.43992   L 146.41874,130.12021   L 146.09905,129.80051   L 146.09905,129.4808   L 146.09905,128.84139   L 145.77935,128.52169   L 145.45966,128.20198   L 145.13997,127.88227   L 136.82799,121.80787   L 137.46737,119.25022   L 138.10676,116.69258   L 139.38552,114.45464   L 140.66429,112.2167   L 143.54151,107.42111   L 146.41874,102.94523   L 149.61565,98.469351   L 152.17319,93.673766   L 153.13226,91.11612   L 154.09133,88.558475   L 154.73072,85.681124   L 155.05041,82.803773   L 142.90213,98.469351   L 131.07354,114.45464   L 119.24495,130.75963   L 107.73606,147.38432   L 96.546853,164.00902   L 85.037957,180.95342   L 73.848752,198.21753   L 62.659547,215.80134   L 62.020164,217.08016   L 61.380781,218.67869   L 60.741398,219.95751   L 59.782323,220.91663   L 59.14294,222.19545   L 58.183865,223.47427   L 57.544482,224.7531   L 56.905099,225.71221   L 57.544482,226.99104   L 58.183865,227.95015   L 59.14294,228.58957   L 60.421706,229.22898   L 61.700472,229.54868   L 62.979239,230.18809   L 64.258005,230.5078   L 65.536771,230.82751   L 62.339855,235.30338   L 58.823248,239.13985   L 54.986949,242.97632   L 50.830959,246.49308   L 42.199287,252.8872   L 33.567614,259.28131   L 29.091933,262.79807   L 25.255634,266.31484   L 21.419335,269.8316   L 17.902728,273.66807   L 14.705812,277.82424   L 12.14828,281.98041   L 10.869513,284.53806   L 9.9104386,287.09571   L 9.2710554,289.65335   L 8.3119807,292.211   L 8.3119807,296.04746   L 8.9513639,299.24452   L 10.23013,302.44158   L 11.508896,305.31893   L 13.746737,307.87658   L 15.984578,310.43422   L 18.222419,312.67216   L 21.099643,314.59039   L 26.214708,317.46775   L 31.329773,319.70569   L 36.76453,321.62392   L 42.199287,323.22245   L 47.634043,324.18157   L 53.0688,325.14068   L 58.503557,325.78009   L 64.258005,326.0998   L 75.44721,326.73921   L 86.636414,327.69833   L 92.390863,328.01803   L 97.825619,328.97715   L 103.58007,329.93627   L 109.01482,331.21509   L 117.6465,331.5348   L 125.95848,331.5348   L 134.27046,331.5348   L 142.58244,331.5348   L 150.57473,332.17421   L 158.56702,333.13332   L 162.72301,333.77274   L 166.55931,334.73185   L 170.3956,336.01068   L 174.2319,337.2895   L 174.87129,337.6092   L 175.51067,338.24862   L 175.83036,338.88803   L 176.46974,339.52744   L 176.78944,340.48656   L 177.10913,341.44567   L 177.42882,342.40479   L 177.74851,343.36391   L 176.78944,345.92155   L 175.19098,348.4792   L 172.95314,350.71714   L 170.7153,352.63537   L 168.15776,354.2339   L 165.28054,355.83243   L 162.72301,357.11125   L 160.48517,358.39007   L 150.57473,360.62801   L 140.66429,362.86595   L 130.75385,364.14478   L 121.1631,365.4236   L 111.25267,366.38272   L 101.34223,367.02213   L 91.431788,367.34183   L 81.521349,367.66154   L 62.020164,367.98124   L 42.199287,368.62066   L 32.288848,368.94036   L 22.37841,369.57977   L 12.787663,370.8586   L 2.8772241,372.13742   L 5.4347566,373.41624   L 7.9922892,374.05565   L 10.549822,374.37536   L 13.427046,374.37536   L 15.984578,374.37536   L 18.861802,374.37536   L 21.419335,374.69506   L 24.296559,375.33447   L 41.240212,376.29359   L 57.864173,376.933   L 74.488135,377.89212   L 91.112096,378.53153   L 107.73606,378.85124   L 124.36002,378.53153   L 132.672,377.89212   L 140.98398,377.25271   L 149.29596,376.29359   L 157.92763,375.01477   L 161.76393,372.77683   L 165.91992,370.53889   L 170.07591,367.98124   L 174.2319,365.4236   L 175.83036,363.82507   L 177.74851,362.22654   L 179.02728,360.30831   L 180.62573,358.70978   L 181.58481,356.47184   L 182.86358,354.2339   L 183.50296,351.99596   L 183.82265,349.43831  z "
     style="fill:#000000;fill-rule:evenodd;fill-opacity:1;stroke:none;" />
  <path
     id="path71"
     d="  M 207.79952,46.67703   L 207.47983,46.037619   L 207.16013,45.398207   L 206.84044,44.758796   L 206.20106,44.119385   L 205.56168,43.479973   L 204.92229,43.160268   L 204.28291,42.840562   L 203.32384,42.520856   L 203.32384,42.520856   L 203.00414,42.520856   L 203.00414,42.840562   L 202.68445,42.840562   L 202.68445,43.160268   L 202.36476,43.160268   L 202.04507,43.160268   L 202.04507,43.479973   L 204.28291,48.595264   L 204.6026,48.91497   L 205.24199,48.91497   L 205.56168,48.91497   L 206.20106,48.91497   L 206.84044,48.595264   L 207.47983,48.275559   L 207.79952,47.955853   L 208.11921,47.316441   L 208.11921,47.316441   L 208.11921,47.316441   L 208.11921,47.316441   L 208.11921,46.996736   L 208.11921,46.996736   L 208.11921,46.67703   L 207.79952,46.67703   L 207.79952,46.67703  z "
     style="fill:#000000;fill-rule:evenodd;fill-opacity:1;stroke:none;" />
  <path
     id="path73"
     d="  M 198.84815,117.33199   L 198.84815,117.33199   L 198.84815,117.01228   L 198.84815,116.69258   L 198.84815,116.37287   L 198.84815,115.73346   L 198.84815,115.41375   L 198.52846,115.09405   L 198.52846,114.77434   L 184.46203,108.06052   L 194.69216,114.45464   L 179.66666,128.84139   L 182.86358,128.52169   L 185.7408,127.88227   L 188.29833,126.60345   L 190.85587,125.32463   L 193.09371,123.7261   L 195.33155,122.12757   L 197.2497,119.88963   L 198.84815,117.33199  z "
     style="fill:#000000;fill-rule:evenodd;fill-opacity:1;stroke:none;" />
  <path
     id="path75"
     d="  M 192.13463,56.268201   L 192.13463,55.628789   L 192.13463,55.309084   L 191.81494,54.989378   L 191.49525,54.669672   L 190.85587,54.030261   L 190.53617,53.710555   L 189.5771,53.390849   L 188.93772,53.071144   L 188.61802,53.071144   L 187.97864,53.390849   L 187.97864,53.710555   L 187.65895,54.030261   L 187.33926,54.669672   L 187.33926,54.989378   L 187.01957,55.309084   L 187.01957,55.948495   L 187.33926,56.268201   L 187.33926,56.587906   L 187.65895,56.907612   L 187.65895,57.227318   L 187.97864,57.547023   L 188.61802,58.186435   L 189.25741,58.50614   L 189.89679,58.50614   L 190.21648,58.50614   L 190.53617,58.50614   L 190.85587,58.50614   L 191.17556,58.50614   L 191.81494,58.186435   L 192.13463,57.866729   L 192.45432,57.547023   L 192.77401,56.907612   L 192.77401,56.907612   L 192.77401,56.907612   L 192.77401,56.907612   L 192.45432,56.587906   L 192.45432,56.587906   L 192.45432,56.268201   L 192.45432,56.268201   L 192.13463,56.268201  z "
     style="fill:#000000;fill-rule:evenodd;fill-opacity:1;stroke:none;" />
  <path
     id="path77"
     d="  M 159.84578,348.7989   L 159.84578,348.4792   L 159.84578,348.15949   L 159.84578,347.83979   L 159.84578,347.52008   L 159.52609,347.20037   L 159.52609,346.88067   L 159.2064,346.24126   L 159.2064,345.92155   L 155.3701,343.68361   L 151.5338,341.76538   L 147.6975,340.16685   L 143.54151,339.20773   L 139.38552,338.24862   L 134.90984,337.6092   L 130.75385,337.2895   L 126.27817,336.96979   L 117.3268,336.96979   L 108.37544,336.96979   L 99.424077,336.96979   L 90.792405,336.33038   L 98.784694,337.2895   L 106.77698,337.92891   L 114.76927,338.56832   L 123.08125,339.52744   L 131.07354,340.48656   L 139.06583,342.08508   L 143.22182,343.0442   L 147.05812,344.32302   L 150.89442,345.60185   L 154.73072,346.88067   L 155.05041,347.20037   L 155.05041,347.83979   L 155.3701,348.15949   L 155.68979,348.4792   L 156.00948,349.11861   L 156.32918,349.75802   L 156.64887,350.07773   L 156.96856,350.71714   L 157.28825,351.03684   L 157.92763,351.03684   L 158.24733,350.71714   L 158.88671,350.71714   L 159.2064,350.39743   L 159.52609,350.07773   L 159.84578,349.43831   L 159.84578,348.7989  z "
     style="fill:#000000;fill-rule:evenodd;fill-opacity:1;stroke:none;" />
  <path
     id="path79"
     d="  M 182.54388,66.179077   L 182.86358,65.859371   L 182.86358,65.21996   L 182.86358,64.900254   L 182.54388,64.580548   L 182.54388,63.941137   L 182.22419,63.621431   L 181.9045,63.301726   L 181.58481,62.98202   L 181.26512,62.98202   L 180.94543,62.98202   L 180.94543,62.98202   L 180.62573,62.98202   L 180.30604,62.98202   L 179.98635,62.98202   L 179.34697,62.98202   L 179.02728,63.301726   L 178.70759,63.941137   L 178.70759,64.580548   L 178.70759,65.21996   L 179.34697,65.859371   L 179.66666,66.179077   L 180.62573,66.818488   L 181.26512,67.138194   L 182.22419,67.4579   L 182.22419,67.4579   L 182.22419,67.138194   L 182.22419,67.138194   L 182.54388,66.818488   L 182.54388,66.498783   L 182.54388,66.179077   L 182.54388,66.179077   L 182.54388,66.179077  z "
     style="fill:#000000;fill-rule:evenodd;fill-opacity:1;stroke:none;" />
  <path
     id="path81"
     d="  M 158.24733,300.84305   L 109.9739,298.92482   L 109.33452,298.60511   L 108.69513,298.2854   L 108.37544,297.9657   L 107.73606,297.32629   L 107.41637,297.00658   L 107.09667,296.68688   L 106.45729,296.04746   L 106.1376,295.72776   L 82.480424,285.81688   L 82.800116,284.53806   L 83.439499,283.57894   L 84.078882,282.30012   L 85.037957,281.66071   L 86.956106,280.06218   L 89.513639,278.78336   L 92.071171,277.50454   L 94.948395,276.54542   L 97.505928,275.2666   L 99.743769,273.98777   L 101.02253,273.66807   L 102.3013,273.34836   L 103.58007,272.70895   L 104.53914,272.06954   L 105.49822,271.43013   L 106.45729,270.79072   L 107.09667,269.8316   L 107.73606,268.87248   L 109.65421,263.75719   L 108.05575,263.11778   L 106.45729,262.79807   L 104.85883,262.47837   L 102.94068,262.15866   L 98.784694,262.15866   L 94.628704,262.79807   L 90.472713,263.75719   L 86.636414,265.03601   L 83.119807,266.63454   L 79.922892,268.55278   L 78.004742,270.1513   L 76.406284,271.74983   L 74.807827,273.34836   L 73.209369,275.2666   L 72.250294,277.18483   L 71.291219,279.10306   L 70.971528,281.341   L 70.971528,283.57894   L 71.291219,284.53806   L 71.291219,285.49718   L 71.610911,286.45629   L 71.610911,287.41541   L 71.610911,288.37453   L 71.930602,289.01394   L 71.930602,289.65335   L 72.569986,290.29276   L 74.807827,292.85041   L 77.365359,295.08835   L 80.242583,297.00658   L 83.439499,298.60511   L 86.956106,300.20364   L 90.472713,301.16276   L 93.98932,302.12187   L 97.825619,303.08099   L 105.49822,304.35981   L 113.17081,305.31893   L 120.84341,306.59775   L 128.19632,307.87658   L 132.35231,307.87658   L 136.82799,307.87658   L 140.66429,307.23716   L 144.82028,306.59775   L 148.33689,305.63864   L 152.17319,304.35981   L 155.68979,302.76128   L 159.2064,300.84305   L 159.2064,300.84305   L 158.88671,300.84305   L 158.88671,300.84305   L 158.88671,300.84305   L 158.56702,300.84305   L 158.56702,300.84305   L 158.24733,300.84305   L 158.24733,300.84305  z "
     style="fill:#000000;fill-rule:evenodd;fill-opacity:1;stroke:none;" />
  <path
     id="path83"
     d="  M 168.47746,179.6746   L 167.83807,174.2396   L 167.83807,173.91989   L 167.83807,173.91989   L 167.51838,173.60019   L 167.51838,173.60019   L 167.19869,173.28048   L 166.879,172.96078   L 166.23961,172.96078   L 165.91992,172.64107   L 164.96085,176.79724   L 164.32147,180.95342   L 163.68208,184.78989   L 162.72301,188.94606   L 162.08362,193.10223   L 161.12455,197.25841   L 160.16547,201.41458   L 158.88671,205.89046   L 156.00948,211.64516   L 153.77164,217.71957   L 151.85349,223.47427   L 149.93534,229.54868   L 148.33689,235.30338   L 146.73843,241.37779   L 145.13997,247.13249   L 143.22182,253.2069   L 143.22182,254.48573   L 142.90213,256.08425   L 142.26275,257.04337   L 141.94306,258.00249   L 141.30367,259.28131   L 140.66429,260.24043   L 140.3446,261.19955   L 139.70521,262.15866   L 142.90213,273.66807   L 144.82028,270.1513   L 146.09905,266.63454   L 147.6975,262.79807   L 148.65658,258.96161   L 150.89442,250.96896   L 153.13226,242.97632   L 155.05041,234.66397   L 157.60794,226.35163   L 158.88671,222.19545   L 160.48517,218.03928   L 162.40332,214.20281   L 164.32147,210.04664   L 165.28054,206.21017   L 166.23961,202.05399   L 166.55931,198.21753   L 166.879,194.70076   L 167.19869,190.86429   L 167.51838,187.02783   L 167.83807,183.51106   L 168.47746,179.6746  z "
     style="fill:#000000;fill-rule:evenodd;fill-opacity:1;stroke:none;" />
  <path
     id="path85"
     d="  M 149.29596,60.104669   L 147.37781,60.74408   L 145.77935,61.703197   L 144.1809,62.662314   L 142.58244,63.621431   L 140.98398,64.900254   L 139.70521,66.498783   L 138.10676,67.777605   L 136.5083,69.376134   L 136.18861,70.015545   L 136.18861,70.654957   L 136.18861,71.614074   L 136.18861,72.573191   L 136.5083,73.532308   L 136.82799,74.491425   L 137.14768,75.130836   L 137.46737,76.089953   L 143.22182,78.967304   L 120.52372,113.81522   L 126.91755,109.01964   L 145.77935,81.844656   L 145.77935,81.844656   L 145.77935,81.52495   L 145.77935,81.205244   L 145.77935,80.885538   L 145.77935,80.565833   L 145.77935,80.246127   L 145.45966,79.606716   L 145.45966,79.28701   L 145.13997,78.327893   L 144.50059,77.688482   L 143.54151,76.729365   L 142.90213,76.409659   L 141.62336,75.770247   L 140.66429,74.81113   L 139.70521,74.171719   L 138.74614,73.532308   L 138.74614,73.212602   L 138.74614,72.892896   L 138.74614,72.573191   L 138.74614,72.253485   L 138.74614,71.933779   L 138.74614,71.614074   L 138.74614,70.974662   L 138.74614,70.654957   L 149.29596,60.104669  z "
     style="fill:#000000;fill-rule:evenodd;fill-opacity:1;stroke:none;" />
  <path
     id="path87"
     d="  M 140.98398,130.12021   L 140.98398,130.12021   L 140.98398,130.12021   L 140.98398,129.80051   L 140.98398,129.80051   L 140.66429,129.4808   L 140.66429,129.4808   L 140.66429,129.4808   L 140.66429,129.4808   L 140.02491,129.1611   L 139.38552,128.84139   L 138.74614,128.52169   L 137.78707,128.20198   L 137.14768,127.88227   L 136.18861,127.88227   L 135.22953,127.88227   L 133.95077,128.20198   L 110.61328,163.0499   L 110.93297,163.68931   L 111.25267,164.00902   L 112.21174,164.32872   L 113.17081,164.32872   L 114.12989,164.00902   L 115.40866,164.00902   L 116.04804,163.68931   L 116.68742,163.36961   L 140.98398,130.12021  z "
     style="fill:#ffffff;fill-rule:evenodd;fill-opacity:1;stroke:none;" />
  <path
     id="path89"
     d="  M 73.209369,335.05156   L 68.094304,334.73185   L 73.209369,335.05156  z "
     style="fill:#000000;fill-rule:evenodd;fill-opacity:1;stroke:none;" />
  <path
     id="path91"
     d="  M 41.879595,359.6689   L 11.828588,363.50536   L 41.879595,359.6689  z "
     style="fill:#000000;fill-rule:evenodd;fill-opacity:1;stroke:none;" />
  <path
     id="path93"
     d="  M 52.109725,215.16193   L 50.830959,215.48163   L 49.871884,216.12104   L 48.91281,217.08016   L 48.273427,218.03928   L 47.314352,218.99839   L 46.674969,220.27722   L 45.715894,221.23633   L 45.076511,222.19545   L 45.715894,222.51516   L 46.674969,221.87575   L 47.953735,221.23633   L 48.91281,219.95751   L 49.871884,218.67869   L 51.150651,217.39987   L 52.109725,216.12104   L 52.749108,215.16193   L 52.749108,215.16193   L 52.749108,215.16193   L 52.429417,215.16193   L 52.429417,215.16193   L 52.109725,215.16193   L 52.109725,215.16193   L 52.109725,215.16193   L 52.109725,215.16193  z "
     style="fill:#000000;fill-rule:evenodd;fill-opacity:1;stroke:none;" />
  <path
     id="path95"
     d="  M 49.871884,232.42603   L 41.240212,231.14721   L 41.879595,231.46692   L 42.83867,231.46692   L 43.797745,231.78662   L 44.437128,232.10633   L 45.396202,232.42603   L 46.035586,233.06544   L 46.355277,233.70486   L 46.674969,234.34427   L 43.478053,236.58221   L 40.281137,238.50044   L 37.084222,240.41868   L 33.887306,242.33691   L 31.010082,244.57485   L 27.813166,247.13249   L 24.616251,250.32955   L 21.419335,253.84631   L 50.511267,233.06544   L 50.511267,233.06544   L 50.511267,233.06544   L 50.191576,233.06544   L 50.191576,232.74574   L 50.191576,232.74574   L 50.191576,232.74574   L 49.871884,232.42603   L 49.871884,232.42603  z "
     style="fill:#000000;fill-rule:evenodd;fill-opacity:1;stroke:none;" />
  <path
     id="path97"
     d="  M 177.10913,80.565833   L 204.6026,105.18317   L 259.58955,41.561739   L 242.32621,22.699104   L 243.28528,33.249391   L 234.01423,31.331157   L 234.65361,40.602622   L 221.54626,42.520856   L 226.34163,52.112027   L 211.31613,55.948495   L 212.2752,68.417017   L 196.93,67.4579   L 203.64353,80.565833   L 177.10913,80.565833  z "
     style="fill:#c0cf94;fill-rule:evenodd;fill-opacity:1;stroke:none;" />
  <path
     id="path99"
     d="  M 153.45195,195.65988   L 126.91755,273.34836   L 141.30367,266.63454   L 141.94306,263.11778   L 143.8612,254.48573   L 146.41874,242.0172   L 149.29596,227.63045   L 152.17319,213.5634   L 154.73072,201.09488   L 156.64887,192.14312   L 157.28825,188.62635   L 153.45195,195.65988  z "
     style="fill:#6e9e87;fill-rule:evenodd;fill-opacity:1;stroke:none;" />
</svg>
