<?xml version="1.0" encoding="UTF-8" standalone="no"?>
<svg
   xmlns:dc="http://purl.org/dc/elements/1.1/"
   xmlns:cc="http://creativecommons.org/ns#"
   xmlns:rdf="http://www.w3.org/1999/02/22-rdf-syntax-ns#"
   xmlns:svg="http://www.w3.org/2000/svg"
   xmlns="http://www.w3.org/2000/svg"
   id="svg79"
   height="101.1936mm"
   width="95.478604mm"
   version="1.0">
  <metadata
     id="metadata83">
    <rdf:RDF>
      <cc:Work
         rdf:about="">
        <dc:format>image/svg+xml</dc:format>
        <dc:type
           rdf:resource="http://purl.org/dc/dcmitype/StillImage" />
        <dc:title></dc:title>
      </cc:Work>
    </rdf:RDF>
  </metadata>
  <defs
     id="defs3">
    <pattern
       y="0"
       x="0"
       height="6"
       width="6"
       patternUnits="userSpaceOnUse"
       id="WMFhbasepattern" />
  </defs>
  <path
     id="path5"
     d="  M 152.87864,260.4582   L 156.07694,281.25646   L 173.66757,275.49694   L 175.90638,274.21705   L 181.66332,270.0574   L 189.65906,264.61785   L 198.93413,258.21839   L 208.20919,251.81893   L 216.52477,246.05941   L 222.2817,241.89976   L 224.20068,240.61986   L 241.79132,211.82227   L 268.33719,200.62321   L 311.19438,201.9031   L 320.14962,185.2645   L 276.9726,190.70404   L 248.50774,197.42348   L 225.48,211.82227   L 210.12817,226.22107   L 194.45651,243.81959   L 178.14519,252.77885   L 152.87864,260.4582  z "
     style="fill:#5ea8ba;fill-rule:evenodd;fill-opacity:1;stroke:none;" />
  <path
     id="path7"
     d="  M 173.66757,378.84829   L 181.66332,378.84829   L 181.66332,378.84829   L 181.66332,378.52832   L 181.66332,377.88837   L 181.66332,377.5684   L 181.66332,377.24843   L 181.66332,376.92846   L 181.66332,376.28851   L 181.66332,375.96854   L 181.34349,375.64856   L 181.02366,375.32859   L 180.70383,375.32859   L 180.384,375.00862   L 179.74434,375.00862   L 179.42451,374.68864   L 178.78485,374.36867   L 178.46502,374.0487   L 177.50553,370.52899   L 177.1857,366.68931   L 177.1857,362.84963   L 177.50553,358.68998   L 178.78485,350.69065   L 180.06417,342.37135   L 180.70383,338.2117   L 181.02366,334.37202   L 181.02366,330.21236   L 180.70383,326.37269   L 179.74434,322.53301   L 178.14519,319.0133   L 177.1857,317.41344   L 176.22621,315.81357   L 174.94689,314.2137   L 173.34774,312.61384   L 175.90638,297.25512   L 172.70809,290.21571   L 164.07268,291.49561   L 163.11319,293.73542   L 162.1537,295.97523   L 161.19421,298.85499   L 160.55455,301.73475   L 159.91489,304.61451   L 159.59506,307.49427   L 159.91489,310.05405   L 160.55455,312.61384   L 161.19421,313.89373   L 161.83387,315.4936   L 162.79336,316.45352   L 163.43302,317.73341   L 164.39251,318.69333   L 165.03217,319.65325   L 165.99166,320.93314   L 166.63132,322.21303   L 166.95115,325.41277   L 167.27098,328.93247   L 167.27098,332.45218   L 166.95115,335.65191   L 165.99166,342.69132   L 164.71234,349.73073   L 164.07268,353.25044   L 163.43302,356.77014   L 163.11319,360.28985   L 163.11319,363.48958   L 163.43302,366.68931   L 164.07268,369.88904   L 165.352,373.08878   L 166.95115,375.96854   L 167.59081,376.28851   L 168.23047,376.92846   L 168.87013,377.5684   L 169.82962,377.88837   L 170.78911,378.20835   L 171.7486,378.52832   L 172.70809,378.84829   L 173.66757,378.84829  z "
     style="fill:#ffb00f;fill-rule:evenodd;fill-opacity:1;stroke:none;" />
  <path
     id="path9"
     d="  M 115.13872,349.41076   L 136.56732,347.49092   L 137.20698,344.61116   L 137.84664,341.7314   L 138.16647,338.85164   L 138.4863,335.65191   L 138.16647,329.57242   L 137.84664,323.17295   L 137.20698,316.77349   L 136.56732,310.37403   L 135.92766,304.29453   L 135.288,298.53502   L 134.64834,297.89507   L 134.00868,296.93515   L 133.36902,296.2952   L 133.04919,295.97523   L 132.40953,295.65526   L 132.0897,295.33528   L 131.45004,295.01531   L 130.81038,294.69534   L 125.69311,295.97523   L 125.69311,337.89172   L 106.18349,344.29119   L 106.50332,345.25111   L 107.14298,346.21103   L 108.4223,346.85097   L 109.70162,347.49092   L 110.98094,348.13087   L 112.26026,348.45084   L 113.8594,349.09078   L 115.13872,349.41076  z "
     style="fill:#ffb00f;fill-rule:evenodd;fill-opacity:1;stroke:none;" />
  <path
     id="path11"
     d="  M 104.26451,337.89172   L 119.93617,335.97188   L 120.57583,331.17228   L 121.21549,326.05271   L 121.53532,320.61317   L 121.53532,315.4936   L 121.21549,310.05405   L 120.57583,304.61451   L 119.61634,299.49494   L 118.33702,294.69534   L 118.01719,294.37536   L 117.37753,294.05539   L 116.73787,293.73542   L 116.09821,293.41544   L 115.13872,293.41544   L 114.49906,293.09547   L 113.53957,292.7755   L 112.89991,292.13555   L 112.58009,292.13555   L 112.26026,292.45552   L 111.94043,292.45552   L 111.6206,292.45552   L 111.30077,292.7755   L 110.98094,293.09547   L 110.98094,293.09547   L 110.66111,293.41544   L 109.38179,325.73274   L 92.430809,330.85231   L 92.430809,331.49226   L 92.430809,331.81223   L 92.110979,331.81223   L 91.791149,331.81223   L 91.791149,331.81223   L 91.791149,332.1322   L 91.791149,332.45218   L 92.110979,333.09212   L 104.26451,337.89172  z "
     style="fill:#ffb00f;fill-rule:evenodd;fill-opacity:1;stroke:none;" />
  <path
     id="path13"
     d="  M 62.686638,328.93247   L 62.686638,328.93247   L 63.006468,328.6125   L 63.006468,328.6125   L 63.326298,328.6125   L 63.646128,328.29253   L 63.646128,328.29253   L 63.965957,328.29253   L 63.965957,328.29253   L 64.925447,327.01263   L 65.565106,325.41277   L 65.884936,324.13287   L 65.884936,322.21303   L 65.565106,320.61317   L 64.925447,319.0133   L 64.285787,317.41344   L 63.326298,316.13354   L 61.407319,310.05405   L 60.128,303.65459   L 59.168511,297.25512   L 58.528851,290.85566   L 57.889191,284.13622   L 57.249532,277.73676   L 56.929702,271.33729   L 55.970213,264.93783   L 55.970213,264.93783   L 55.970213,264.61785   L 56.290043,264.61785   L 56.609872,264.29788   L 56.609872,264.29788   L 56.929702,264.29788   L 57.569362,264.29788   L 57.889191,264.29788   L 89.232511,294.05539   L 90.192,294.69534   L 90.83166,294.69534   L 91.791149,295.01531   L 92.750638,295.01531   L 93.390298,295.01531   L 94.349787,294.69534   L 94.989447,294.69534   L 95.948936,294.69534   L 126.97243,280.61652   L 127.61209,279.97657   L 127.61209,279.33662   L 127.93191,278.69668   L 127.93191,277.73676   L 127.93191,276.77684   L 127.93191,276.13689   L 127.93191,275.17697   L 127.61209,274.53702   L 125.69311,274.21705   L 123.77413,274.21705   L 121.85515,274.53702   L 119.93617,275.17697   L 116.41804,276.45686   L 112.58009,278.05673   L 108.74213,280.29654   L 105.224,282.21638   L 101.06621,283.81625   L 97.228255,285.09614   L 96.588596,285.09614   L 96.268766,284.77617   L 95.948936,284.77617   L 95.309277,284.45619   L 94.989447,284.13622   L 94.669617,283.81625   L 94.349787,283.49627   L 94.029957,282.85633   L 94.349787,281.57644   L 94.669617,280.61652   L 95.629106,279.97657   L 96.588596,279.33662   L 97.548085,278.69668   L 98.827404,278.05673   L 99.786894,277.41678   L 101.06621,276.45686   L 91.471319,279.01665   L 90.83166,278.3767   L 90.192,277.73676   L 89.232511,277.09681   L 88.592851,276.45686   L 87.633362,275.81692   L 86.993702,274.857   L 86.673872,274.21705   L 86.034213,273.25713   L 86.673872,272.29721   L 87.313532,271.33729   L 87.953191,270.69735   L 88.912681,270.0574   L 89.87217,269.41745   L 90.83166,269.09748   L 91.471319,268.13756   L 92.110979,267.49761   L 91.151489,266.53769   L 90.192,266.53769   L 89.232511,266.85767   L 88.273021,267.49761   L 86.993702,268.13756   L 86.034213,269.09748   L 85.074723,269.73743   L 84.115234,270.0574   L 83.155745,270.0574   L 82.516085,269.73743   L 81.556596,269.41745   L 80.916936,268.77751   L 80.277277,268.13756   L 79.637617,267.49761   L 78.997957,266.85767   L 78.678128,266.21772   L 78.678128,264.93783   L 78.997957,264.29788   L 79.637617,263.65793   L 80.597106,263.01799   L 81.556596,262.37804   L 82.196255,261.7381   L 82.835915,261.09815   L 83.475574,260.13823   L 82.835915,259.81826   L 82.516085,259.49828   L 81.876426,259.49828   L 81.236766,259.81826   L 80.277277,260.4582   L 78.997957,261.09815   L 77.718638,262.05807   L 76.439319,262.69802   L 75.79966,263.01799   L 75.16,263.01799   L 74.200511,262.69802   L 73.560851,262.37804   L 70.682383,258.85834   L 71.002213,257.89842   L 71.961702,256.9385   L 72.921191,256.29855   L 73.880681,255.6586   L 74.84017,254.69868   L 75.79966,254.05874   L 76.439319,253.09882   L 77.078979,251.81893   L 66.204766,255.6586   L 65.884936,255.6586   L 65.565106,255.33863   L 65.245277,255.01866   L 64.925447,254.69868   L 64.605617,254.37871   L 63.965957,253.73876   L 63.646128,253.41879   L 63.326298,253.09882   L 63.326298,251.81893   L 63.646128,250.85901   L 64.285787,250.21906   L 65.245277,249.57911   L 65.884936,248.93917   L 66.844426,248.29922   L 67.803915,247.65927   L 68.443574,247.01933   L 67.803915,246.37938   L 66.844426,246.05941   L 65.884936,246.05941   L 64.605617,246.37938   L 63.646128,247.01933   L 62.366809,247.3393   L 61.407319,247.97925   L 60.128,248.29922   L 59.48834,247.97925   L 58.848681,247.97925   L 58.209021,247.65927   L 57.889191,247.65927   L 57.249532,247.3393   L 56.609872,246.69935   L 56.290043,246.37938   L 55.970213,245.73943   L 55.970213,245.09949   L 55.970213,244.13957   L 56.609872,243.81959   L 57.249532,243.17965   L 57.889191,242.85968   L 58.528851,242.21973   L 59.168511,241.57978   L 59.80817,240.93984   L 59.168511,240.29989   L 58.528851,240.29989   L 57.889191,240.29989   L 56.929702,240.61986   L 55.970213,241.25981   L 54.690894,241.89976   L 53.731404,242.21973   L 53.091745,242.5397   L 52.132255,242.85968   L 51.492596,242.5397   L 50.533106,241.89976   L 49.893447,241.57978   L 49.253787,240.61986   L 48.614128,239.97992   L 47.974468,239.33997   L 47.654638,238.70002   L 47.654638,238.06008   L 47.974468,237.42013   L 48.294298,237.10016   L 48.933957,236.78018   L 49.893447,236.46021   L 50.533106,236.14024   L 51.172766,235.50029   L 51.492596,234.86034   L 50.852936,234.54037   L 50.213277,234.2204   L 49.253787,233.90043   L 48.294298,234.2204   L 47.014979,234.2204   L 45.73566,234.54037   L 44.77617,234.86034   L 43.816681,234.86034   L 43.177021,234.86034   L 42.217532,234.86034   L 41.577872,234.86034   L 40.938213,234.54037   L 40.618383,234.2204   L 39.978723,233.90043   L 39.658894,233.26048   L 39.339064,232.94051   L 39.339064,231.66061   L 39.978723,230.38072   L 40.938213,229.74077   L 41.577872,228.78085   L 42.857191,228.14091   L 43.816681,227.50096   L 44.45634,226.54104   L 45.096,225.58112   L 43.816681,225.26115   L 42.537362,225.26115   L 41.258043,225.90109   L 39.978723,226.54104   L 38.379574,227.50096   L 37.100255,228.14091   L 35.501106,228.78085   L 33.901957,228.78085   L 33.901957,228.78085   L 33.582128,228.46088   L 33.582128,228.14091   L 33.262298,227.82093   L 32.942468,227.82093   L 32.622638,227.50096   L 32.302809,227.18099   L 31.982979,226.86101   L 31.982979,226.54104   L 31.982979,226.22107   L 31.982979,225.90109   L 31.982979,225.58112   L 32.302809,225.26115   L 32.302809,224.94117   L 32.622638,224.6212   L 32.942468,224.30123   L 39.019234,220.46155   L 39.019234,220.46155   L 39.019234,220.46155   L 39.339064,220.14158   L 39.339064,219.8216   L 39.339064,219.50163   L 39.658894,219.18166   L 39.658894,218.86168   L 39.658894,218.54171   L 38.059745,218.22174   L 36.780426,218.54171   L 35.820936,219.18166   L 34.541617,219.8216   L 33.262298,220.78152   L 31.982979,221.42147   L 30.70366,222.06142   L 29.42434,222.70136   L 24.946723,220.46155   L 25.266553,219.50163   L 25.906213,218.54171   L 26.865702,217.90176   L 28.145021,217.26182   L 29.42434,216.94184   L 30.70366,216.3019   L 31.982979,215.66195   L 32.942468,214.70203   L 32.942468,214.70203   L 32.942468,214.38206   L 32.942468,214.38206   L 32.942468,214.06209   L 32.942468,213.74211   L 32.942468,213.42214   L 32.942468,213.10217   L 32.942468,212.78219   L 17.590638,216.62187   L 17.590638,216.62187   L 17.270809,216.62187   L 17.270809,216.3019   L 16.950979,216.3019   L 16.950979,215.98192   L 16.631149,215.66195   L 16.631149,215.34198   L 16.631149,214.70203   L 33.901957,205.74278   L 34.541617,205.42281   L 34.861447,205.10284   L 35.181277,204.78286   L 35.820936,204.46289   L 36.140766,203.82294   L 36.460596,203.183   L 37.100255,202.54305   L 37.420085,201.9031   L 37.420085,201.58313   L 37.420085,201.26316   L 37.100255,200.94318   L 37.100255,200.62321   L 37.100255,200.30324   L 36.780426,199.98326   L 36.780426,199.66329   L 36.460596,199.34332   L 34.221787,198.70337   L 31.982979,198.3834   L 29.74417,199.02334   L 27.505362,199.66329   L 25.266553,200.94318   L 23.027745,202.22308   L 20.788936,203.183   L 18.550128,204.46289   L 16.631149,206.06275   L 14.39234,207.34265   L 11.833702,208.62254   L 9.5948936,209.58246   L 7.0362553,210.86235   L 5.1172766,212.14225   L 4.1577872,212.78219   L 3.5181277,213.74211   L 2.5586383,214.70203   L 2.2388085,215.98192   L 48.933957,256.61852   L 48.933957,257.57844   L 48.614128,258.21839   L 47.974468,258.53836   L 47.334809,258.85834   L 46.375319,258.85834   L 45.41583,259.17831   L 44.45634,259.17831   L 43.816681,259.81826   L 44.136511,267.81759   L 44.136511,276.45686   L 44.45634,285.09614   L 44.77617,294.05539   L 45.096,298.21504   L 45.73566,302.37469   L 46.695149,306.53435   L 47.654638,310.694   L 48.614128,314.53368   L 50.213277,318.05338   L 52.132255,321.57309   L 54.051234,324.45285   L 61.727149,329.25245   L 61.727149,329.25245   L 62.046979,329.25245   L 62.046979,329.25245   L 62.366809,329.25245   L 62.366809,328.93247   L 62.686638,328.93247   L 62.686638,328.93247   L 62.686638,328.93247  z "
     style="fill:#ffb00f;fill-rule:evenodd;fill-opacity:1;stroke:none;" />
  <path
     id="path15"
     d="  M 192.85736,324.45285   L 193.49702,294.05539   L 193.17719,293.73542   L 193.17719,293.73542   L 192.85736,293.41544   L 192.2177,293.41544   L 191.89787,293.41544   L 191.57804,293.41544   L 191.25821,293.41544   L 190.61855,293.41544   L 190.93838,325.41277   L 191.25821,325.41277   L 191.25821,325.09279   L 191.57804,325.09279   L 191.89787,325.09279   L 192.2177,324.77282   L 192.53753,324.77282   L 192.85736,324.77282   L 192.85736,324.45285  z "
     style="fill:#ffb00f;fill-rule:evenodd;fill-opacity:1;stroke:none;" />
  <path
     id="path17"
     d="  M 68.443574,309.73408   L 68.763404,309.73408   L 68.763404,309.73408   L 68.763404,309.73408   L 69.083234,309.41411   L 69.083234,309.41411   L 69.403064,309.41411   L 69.403064,309.09413   L 69.403064,309.09413   L 68.443574,284.45619   L 68.443574,284.45619   L 68.443574,284.45619   L 68.123745,284.13622   L 67.803915,284.13622   L 67.484085,284.13622   L 67.164255,284.13622   L 66.844426,284.13622   L 66.524596,284.45619   L 67.803915,310.37403   L 67.803915,310.37403   L 68.123745,310.37403   L 68.123745,310.37403   L 68.123745,310.05405   L 68.443574,310.05405   L 68.443574,310.05405   L 68.443574,309.73408   L 68.443574,309.73408  z "
     style="fill:#ffb00f;fill-rule:evenodd;fill-opacity:1;stroke:none;" />
  <path
     id="path19"
     d="  M 309.2754,288.93582   L 313.75302,286.37603   L 314.39268,279.97657   L 315.03234,273.25713   L 315.672,266.21772   L 315.672,259.49828   L 315.672,256.29855   L 315.35217,253.09882   L 314.71251,249.57911   L 314.07285,246.69935   L 312.79353,243.49962   L 311.51421,240.61986   L 309.59523,237.7401   L 307.35643,234.86034   L 307.35643,232.62053   L 307.67626,230.06075   L 307.99609,227.50096   L 308.31591,224.94117   L 307.99609,222.38139   L 307.67626,219.8216   L 307.0366,218.54171   L 306.39694,217.58179   L 305.75728,216.62187   L 304.79779,215.34198   L 295.84255,218.54171   L 296.48221,239.97992   L 296.80204,240.29989   L 297.4417,240.29989   L 297.76153,240.61986   L 298.08136,240.93984   L 298.40119,240.93984   L 299.04085,241.25981   L 299.68051,241.57978   L 300.32017,242.21973   L 300.32017,280.61652   L 300.32017,280.61652   L 300.32017,280.93649   L 300.32017,281.25646   L 300.32017,281.57644   L 300.32017,281.89641   L 300.64,282.21638   L 300.64,282.53635   L 300.95983,282.85633   L 301.59949,283.81625   L 302.55898,284.45619   L 303.51847,285.41611   L 304.47796,286.37603   L 305.43745,287.01598   L 306.71677,287.65593   L 307.99609,288.29587   L 309.2754,288.93582  z "
     style="fill:#ffb00f;fill-rule:evenodd;fill-opacity:1;stroke:none;" />
  <path
     id="path21"
     d="  M 150.95966,283.81625   L 155.75711,283.81625   L 156.39677,281.89641   L 157.03643,279.6566   L 157.67609,277.73676   L 157.99591,275.49694   L 158.31574,271.01732   L 158.31574,266.53769   L 157.99591,262.05807   L 157.35626,257.25847   L 156.7166,252.77885   L 156.07694,248.29922   L 159.27523,247.97925   L 162.1537,247.97925   L 165.03217,247.3393   L 167.91064,247.01933   L 173.34774,245.41946   L 178.46502,243.49962   L 183.5823,240.93984   L 188.37974,238.06008   L 193.17719,234.86034   L 197.65481,231.66061   L 206.61004,223.98126   L 215.56528,216.3019   L 224.20068,208.62254   L 233.15591,201.9031   L 239.55251,199.34332   L 245.94911,197.1035   L 252.02587,195.18367   L 258.42247,193.26383   L 264.49923,191.66396   L 270.89583,190.38407   L 276.9726,189.42415   L 283.36919,188.46423   L 288.48647,188.14425   L 293.60374,187.82428   L 298.72102,187.18433   L 304.15813,186.22442   L 308.95557,185.2645   L 314.07285,183.9846   L 318.8703,182.38474   L 323.66774,180.4649   L 320.46945,199.34332   L 316.63149,199.02334   L 313.11336,198.70337   L 309.2754,198.06342   L 305.75728,197.74345   L 301.91932,197.1035   L 298.08136,197.1035   L 294.2434,197.42348   L 290.40545,198.06342   L 286.56749,198.06342   L 282.4097,198.3834   L 278.25191,198.70337   L 274.09413,199.02334   L 269.93634,199.66329   L 265.77855,200.62321   L 261.9406,201.58313   L 257.78281,202.54305   L 253.94485,203.82294   L 250.42672,205.42281   L 246.58877,207.02267   L 243.39047,208.62254   L 239.87234,210.54238   L 236.99387,212.78219   L 233.79557,215.02201   L 231.23694,217.26182   L 227.39898,220.78152   L 224.20068,224.6212   L 221.00238,228.46088   L 217.80409,232.62053   L 212.04715,240.61986   L 206.29021,248.29922   L 203.41174,252.1389   L 200.53328,255.6586   L 197.33498,259.17831   L 193.81685,262.37804   L 189.97889,265.2578   L 186.14094,267.81759   L 181.98315,270.0574   L 177.1857,271.97724   L 175.90638,271.97724   L 174.62706,271.97724   L 173.66757,271.97724   L 172.38826,271.97724   L 171.42877,272.29721   L 170.46928,272.29721   L 169.50979,272.61718   L 168.87013,273.25713   L 168.87013,273.5771   L 168.87013,273.5771   L 168.5503,273.89708   L 168.5503,274.21705   L 168.5503,274.53702   L 168.5503,275.17697   L 168.5503,275.49694   L 168.5503,275.81692   L 168.87013,276.77684   L 169.82962,278.05673   L 170.78911,279.01665   L 172.06843,279.6566   L 173.66757,280.61652   L 175.26672,280.93649   L 176.86587,281.57644   L 178.46502,281.89641   L 182.94264,280.61652   L 187.10043,279.01665   L 191.25821,277.09681   L 195.09617,274.857   L 198.6143,272.61718   L 202.13243,270.0574   L 205.65055,267.17764   L 208.52902,264.29788   L 214.60579,258.21839   L 220.36272,251.49895   L 225.79983,244.77951   L 231.55677,238.06008   L 236.99387,231.66061   L 242.75081,225.58112   L 245.94911,222.38139   L 249.1474,219.8216   L 252.3457,217.26182   L 255.544,214.70203   L 259.38196,212.78219   L 263.21991,210.86235   L 267.05787,208.94251   L 271.21566,207.66262   L 275.69328,206.7027   L 280.49072,206.06275   L 285.28817,205.74278   L 290.40545,205.74278   L 293.60374,205.74278   L 296.48221,205.74278   L 299.36068,205.42281   L 302.23915,205.10284   L 304.79779,204.78286   L 307.67626,204.78286   L 310.23489,204.78286   L 313.11336,205.42281   L 322.70826,214.06209   L 327.5057,214.70203   L 330.38417,209.26249   L 332.62298,203.50297   L 334.54196,197.1035   L 336.46094,190.70404   L 337.74026,184.30458   L 338.69974,177.58514   L 339.65923,170.8657   L 340.29889,164.46624   L 339.3394,163.50632   L 338.69974,162.5464   L 338.06009,161.58648   L 337.42043,160.94653   L 336.78077,160.30658   L 336.46094,159.34666   L 336.14111,158.70672   L 335.82128,157.42683   L 335.50145,154.22709   L 334.86179,151.02736   L 333.9023,148.1476   L 332.62298,145.26784   L 331.02383,142.70806   L 328.78502,140.14827   L 326.86604,137.90846   L 324.3074,135.98862   L 326.22638,133.42883   L 329.10485,131.18902   L 331.98332,128.94921   L 334.86179,126.7094   L 338.06009,124.46958   L 340.61872,121.58982   L 341.57821,120.30993   L 342.5377,118.39009   L 343.49719,116.47025   L 343.81702,114.55041   L 344.45668,111.67065   L 345.09634,109.11087   L 345.09634,106.23111   L 345.09634,103.67132   L 344.77651,101.11154   L 344.13685,98.551752   L 343.49719,95.991967   L 342.5377,93.752154   L 341.57821,91.512341   L 340.29889,89.272529   L 339.01957,87.032716   L 337.42043,85.112877   L 334.22213,81.593172   L 331.02383,78.393439   L 325.58672,74.553761   L 319.82979,71.034055   L 314.07285,67.834323   L 307.99609,64.634591   L 301.59949,62.074805   L 295.20289,59.515019   L 288.48647,56.955233   L 282.08987,54.715421   L 282.08987,54.395448   L 281.77004,54.395448   L 281.77004,54.395448   L 281.45021,54.075474   L 281.45021,53.755501   L 281.13038,53.435528   L 281.13038,53.115555   L 280.81055,52.475608   L 284.96834,39.356706   L 279.85106,37.116894   L 274.09413,34.877081   L 268.01736,32.637269   L 261.62077,31.037403   L 254.90434,29.437536   L 248.50774,27.83767   L 241.79132,26.557777   L 235.71455,25.277885   L 231.23694,27.83767   L 226.75932,30.077483   L 222.92136,32.637269   L 218.76357,35.517028   L 214.92562,38.076813   L 211.08766,40.956572   L 207.2497,43.516358   L 203.41174,45.756171   L 188.69957,55.675341   L 174.30723,65.914484   L 159.59506,76.4736   L 145.20272,87.032716   L 130.49055,97.911806   L 116.41804,108.7909   L 102.0257,119.35001   L 88.273021,130.2291   L 89.87217,135.98862   L 89.55234,136.30859   L 89.55234,136.30859   L 89.232511,136.62857   L 88.912681,136.62857   L 88.912681,136.94854   L 88.592851,137.26851   L 88.273021,137.26851   L 88.273021,137.90846   L 97.548085,145.26784   L 107.14298,153.26717   L 116.73787,162.22642   L 126.6526,171.18567   L 136.56732,180.14492   L 146.80187,189.10417   L 151.91915,193.26383   L 157.03643,197.42348   L 162.1537,201.26316   L 167.59081,205.10284   L 168.23047,204.46289   L 168.5503,204.14292   L 169.18996,203.82294   L 169.82962,203.183   L 170.14945,202.86302   L 170.78911,202.22308   L 171.10894,201.26316   L 171.42877,200.62321   L 167.59081,196.14358   L 163.75285,191.98393   L 159.91489,187.50431   L 155.75711,183.66463   L 146.80187,175.34533   L 137.84664,167.66597   L 128.57157,159.98661   L 119.29651,152.62723   L 110.34128,145.58782   L 101.70587,138.54841   L 178.46502,81.273198   L 244.03013,37.436867   L 267.3777,45.436197   L 267.05787,50.235796   L 270.25617,59.834992   L 274.09413,61.754832   L 278.25191,63.674671   L 282.4097,65.59451   L 286.56749,67.194377   L 295.20289,70.714082   L 303.51847,73.913814   L 307.67626,75.833654   L 311.83404,78.073466   L 315.672,80.313279   L 319.19013,82.873064   L 322.70826,85.752823   L 326.22638,88.952556   L 329.10485,92.472261   L 331.98332,96.631913   L 331.98332,99.831645   L 331.66349,102.7114   L 331.02383,105.59116   L 330.38417,108.15095   L 329.10485,110.71073   L 327.82553,112.95055   L 326.54621,114.87039   L 324.94706,116.47025   L 323.66774,117.75015   L 322.0686,119.03004   L 320.46945,120.30993   L 318.8703,121.26985   L 317.59098,122.22977   L 316.31166,123.50966   L 315.35217,124.78956   L 314.39268,126.7094   L 314.39268,127.02937   L 314.39268,127.34934   L 314.71251,127.66932   L 314.71251,128.30926   L 314.71251,128.62924   L 315.03234,128.94921   L 315.03234,129.58915   L 315.03234,130.2291   L 303.51847,127.66932   L 291.68477,125.74948   L 279.53123,124.14961   L 267.69753,122.86972   L 255.544,122.22977   L 243.39047,122.22977   L 237.63353,122.22977   L 231.55677,122.86972   L 225.48,123.18969   L 219.40323,124.14961   L 242.75081,59.834992   L 242.75081,59.195046   L 242.43098,58.875073   L 242.43098,58.5551   L 242.11115,57.915153   L 241.79132,57.59518   L 241.47149,57.275207   L 240.83183,56.63526   L 240.512,56.315287   L 231.8766,56.955233   L 225.79983,72.633921   L 219.40323,88.952556   L 213.6463,105.91114   L 207.88936,123.18969   L 202.13243,140.46824   L 196.69532,157.7468   L 191.57804,175.02535   L 186.7806,191.98393   L 191.89787,189.74412   L 216.8446,128.94921   L 217.16443,128.62924   L 217.16443,128.62924   L 217.16443,128.62924   L 217.48426,128.30926   L 217.80409,128.30926   L 218.12391,127.98929   L 218.44374,127.98929   L 219.0834,127.66932   L 224.84034,129.26918   L 230.59728,130.54907   L 236.67404,131.50899   L 243.07064,132.14894   L 255.86383,132.78889   L 268.65702,133.10886   L 275.05362,133.42883   L 281.45021,133.74881   L 287.52698,134.38875   L 293.92357,135.66865   L 299.68051,136.94854   L 305.75728,138.86838   L 308.31591,140.14827   L 311.19438,141.42816   L 314.07285,142.70806   L 316.63149,144.30792   L 318.23064,147.18768   L 319.50996,150.06744   L 320.46945,153.26717   L 321.42894,156.14693   L 321.74877,159.34666   L 321.42894,162.5464   L 320.78928,165.42616   L 319.50996,168.30591   L 310.55472,170.8657   L 301.27966,173.42549   L 291.68477,175.6653   L 282.08987,177.90511   L 272.49498,180.14492   L 262.90009,182.38474   L 253.30519,184.62455   L 244.03013,187.50431   L 234.75506,190.70404   L 225.79983,194.22375   L 221.64204,196.14358   L 217.16443,198.3834   L 213.00664,200.62321   L 209.16868,203.183   L 205.01089,205.74278   L 201.17294,208.62254   L 197.33498,211.82227   L 193.81685,215.02201   L 190.29872,218.54171   L 187.10043,222.38139   L 183.90213,226.54104   L 181.02366,230.70069   L 178.46502,231.98059   L 176.22621,233.26048   L 173.66757,233.90043   L 171.42877,234.86034   L 166.31149,235.82026   L 161.51404,236.46021   L 156.39677,237.10016   L 151.59932,237.7401   L 146.48204,238.70002   L 141.6846,240.29989   L 146.16221,281.89641   L 150.95966,283.81625  z "
     style="fill:#ffb00f;fill-rule:evenodd;fill-opacity:1;stroke:none;" />
  <path
     id="path23"
     d="  M 104.26451,263.65793   L 110.34128,263.65793   L 111.30077,263.33796   L 111.94043,263.01799   L 112.26026,262.37804   L 112.89991,261.7381   L 112.89991,260.77818   L 113.21974,259.81826   L 113.53957,258.85834   L 113.53957,257.89842   L 53.091745,206.38273   L 52.452085,206.38273   L 52.132255,206.38273   L 51.812426,206.38273   L 51.492596,206.38273   L 51.172766,206.38273   L 50.533106,206.38273   L 50.213277,206.38273   L 49.573617,206.38273   L 48.933957,206.7027   L 47.974468,207.02267   L 47.334809,207.66262   L 46.695149,208.30257   L 46.055489,208.94251   L 45.73566,209.58246   L 45.41583,210.54238   L 45.096,211.5023   L 48.294298,215.66195   L 51.812426,219.50163   L 55.330553,223.02134   L 58.848681,226.22107   L 66.204766,232.62053   L 73.560851,238.38005   L 80.916936,244.13957   L 88.592851,250.21906   L 96.268766,256.61852   L 103.62485,263.65793   L 103.62485,263.65793   L 103.62485,263.65793   L 103.94468,263.65793   L 103.94468,263.65793   L 103.94468,263.65793   L 104.26451,263.65793   L 104.26451,263.65793   L 104.26451,263.65793  z "
     style="fill:#ffb00f;fill-rule:evenodd;fill-opacity:1;stroke:none;" />
  <path
     id="path25"
     d="  M 322.70826,258.53836   L 322.70826,258.53836   L 323.02809,258.21839   L 323.02809,258.21839   L 323.02809,258.21839   L 323.34791,257.89842   L 323.34791,257.89842   L 323.66774,257.89842   L 323.66774,257.89842   L 324.3074,254.37871   L 324.94706,251.17898   L 325.58672,247.65927   L 325.90655,244.13957   L 325.90655,240.93984   L 325.58672,237.42013   L 325.26689,236.14024   L 324.62723,234.54037   L 323.66774,232.94051   L 322.70826,231.66061   L 323.66774,220.46155   L 323.66774,220.14158   L 323.34791,220.14158   L 323.02809,219.8216   L 322.70826,219.50163   L 322.0686,219.50163   L 321.74877,219.50163   L 321.10911,219.8216   L 320.78928,219.8216   L 320.46945,255.33863   L 321.74877,258.85834   L 321.74877,258.85834   L 322.0686,258.85834   L 322.0686,258.85834   L 322.38843,258.85834   L 322.38843,258.53836   L 322.70826,258.53836   L 322.70826,258.53836   L 322.70826,258.53836  z "
     style="fill:#ffb00f;fill-rule:evenodd;fill-opacity:1;stroke:none;" />
  <path
     id="path27"
     d="  M 129.53106,239.97992   L 135.288,239.02   L 135.92766,238.70002   L 136.24749,238.38005   L 136.56732,237.7401   L 136.88715,237.42013   L 137.20698,236.78018   L 137.52681,236.46021   L 137.52681,235.82026   L 137.84664,234.86034   L 131.13021,228.78085   L 124.09396,222.38139   L 116.73787,215.66195   L 109.38179,208.62254   L 102.0257,201.58313   L 94.669617,194.86369   L 87.313532,188.14425   L 80.597106,181.74479   L 77.398809,178.86503   L 73.880681,176.30525   L 70.362553,174.06543   L 67.164255,171.50565   L 63.965957,169.26583   L 61.087489,166.70605   L 57.889191,164.14626   L 55.330553,161.2665   L 84.435064,143.02803   L 84.435064,143.02803   L 84.435064,142.70806   L 84.435064,142.70806   L 84.435064,142.38808   L 84.435064,142.06811   L 84.435064,141.74814   L 84.115234,141.42816   L 84.115234,141.10819   L 80.916936,141.10819   L 78.038468,141.10819   L 74.84017,141.42816   L 71.961702,142.38808   L 66.524596,144.30792   L 61.087489,146.86771   L 55.650383,149.74747   L 50.213277,152.62723   L 44.77617,155.18701   L 39.019234,157.42683   L 37.739915,159.02669   L 36.780426,160.94653   L 36.140766,162.86637   L 35.501106,164.78621   L 35.181277,169.26583   L 35.181277,174.06543   L 35.501106,178.86503   L 35.501106,183.9846   L 35.501106,188.7842   L 35.181277,193.26383   L 35.181277,194.22375   L 35.820936,194.86369   L 36.460596,195.18367   L 37.420085,195.50364   L 38.379574,195.50364   L 39.339064,195.50364   L 40.298553,195.50364   L 41.258043,195.18367   L 41.897702,195.18367   L 42.217532,194.86369   L 42.857191,194.54372   L 43.177021,194.54372   L 43.496851,194.22375   L 43.816681,193.90377   L 44.136511,193.5838   L 44.45634,193.26383   L 46.375319,168.30591   L 51.492596,171.82562   L 56.609872,175.34533   L 61.407319,179.185   L 66.204766,183.02468   L 75.47983,191.34399   L 84.754894,200.30324   L 94.029957,209.26249   L 102.98519,218.22174   L 112.26026,226.86101   L 121.85515,234.86034   L 122.49481,235.50029   L 122.81464,236.14024   L 123.13447,236.78018   L 123.4543,237.10016   L 123.77413,237.42013   L 124.09396,237.7401   L 124.41379,238.06008   L 124.41379,238.06008   L 129.53106,239.97992  z "
     style="fill:#ffb00f;fill-rule:evenodd;fill-opacity:1;stroke:none;" />
  <path
     id="path29"
     d="  M 19.829447,175.02535   L 19.829447,175.02535   L 19.829447,175.02535   L 19.829447,174.70538   L 20.149277,174.70538   L 20.149277,174.38541   L 20.149277,174.38541   L 20.469106,174.38541   L 20.469106,174.06543   L 22.388085,150.38741   L 43.816681,139.8283   L 43.816681,139.8283   L 43.816681,139.50832   L 44.136511,139.18835   L 44.136511,138.86838   L 44.136511,138.22843   L 43.816681,138.22843   L 43.177021,138.22843   L 42.537362,138.54841   L 36.460596,141.10819   L 14.072511,141.10819   L 13.113021,141.42816   L 12.793191,142.06811   L 12.153532,142.70806   L 11.833702,143.348   L 11.833702,145.26784   L 12.153532,147.18768   L 12.473362,149.10752   L 13.113021,151.34733   L 13.113021,153.26717   L 13.113021,154.86704   L 14.072511,157.7468   L 15.032,160.30658   L 15.67166,162.86637   L 16.311319,165.42616   L 16.950979,167.66597   L 17.590638,170.22575   L 18.230298,172.46557   L 18.550128,175.02535   L 18.550128,175.02535   L 18.869957,175.02535   L 18.869957,175.02535   L 19.189787,175.02535   L 19.509617,175.02535   L 19.509617,175.02535   L 19.509617,175.02535   L 19.829447,175.02535  z "
     style="fill:#ffb00f;fill-rule:evenodd;fill-opacity:1;stroke:none;" />
  <path
     id="path31"
     d="  M 134.00868,143.02803   L 178.46502,136.62857   L 179.10468,135.98862   L 179.42451,135.34867   L 179.74434,134.38875   L 179.74434,133.42883   L 179.42451,132.46891   L 179.10468,131.50899   L 178.78485,130.86905   L 178.46502,130.2291   L 172.38826,129.26918   L 165.67183,129.26918   L 159.27523,129.58915   L 152.55881,130.2291   L 145.84238,131.50899   L 139.12596,133.10886   L 133.04919,135.0287   L 126.97243,137.26851   L 126.97243,137.58849   L 126.6526,137.90846   L 126.6526,138.22843   L 126.6526,138.54841   L 126.6526,138.86838   L 126.6526,139.18835   L 126.97243,139.50832   L 126.97243,139.8283   L 134.00868,143.02803  z "
     style="fill:#ffb00f;fill-rule:evenodd;fill-opacity:1;stroke:none;" />
  <path
     id="path33"
     d="  M 346.69549,131.50899   L 349.57396,129.26918   L 352.45243,127.02937   L 354.69123,124.14961   L 356.61021,121.26985   L 358.20936,118.07012   L 359.16885,114.87039   L 360.12834,111.03071   L 360.768,107.511   L 360.768,105.27119   L 360.768,103.35135   L 360.768,101.43151   L 360.44817,99.831645   L 360.44817,97.911806   L 359.80851,96.31194   L 359.48868,94.712074   L 358.84902,93.112208   L 358.84902,92.792234   L 358.52919,92.792234   L 358.20936,92.472261   L 357.88953,92.152288   L 357.5697,92.152288   L 356.93004,92.152288   L 356.61021,92.152288   L 356.29038,92.152288   L 356.61021,95.991967   L 356.93004,100.15162   L 356.93004,104.31127   L 356.61021,108.47092   L 355.65072,112.3106   L 354.69123,116.15028   L 353.09209,119.66998   L 350.85328,122.86972   L 349.89379,124.14961   L 348.9343,125.10953   L 347.97481,126.06945   L 347.01532,127.02937   L 346.37566,127.66932   L 346.05583,128.62924   L 345.41617,129.58915   L 345.41617,130.86905   L 345.41617,130.86905   L 345.41617,130.86905   L 345.736,130.86905   L 346.05583,131.18902   L 346.05583,131.18902   L 346.37566,131.18902   L 346.37566,131.50899   L 346.69549,131.50899  z "
     style="fill:#ffb00f;fill-rule:evenodd;fill-opacity:1;stroke:none;" />
  <path
     id="path35"
     d="  M 91.471319,113.91047   L 110.34128,98.231779   L 159.27523,62.074805   L 159.27523,62.074805   L 158.9554,61.754832   L 158.9554,61.754832   L 158.63557,61.434859   L 158.63557,61.434859   L 158.31574,61.114885   L 158.31574,61.114885   L 158.31574,61.114885   L 89.232511,112.3106   L 89.55234,112.63057   L 89.55234,112.95055   L 89.55234,113.27052   L 89.87217,113.91047   L 89.87217,114.23044   L 90.192,114.23044   L 90.83166,114.23044   L 91.471319,113.91047  z "
     style="fill:#ffb00f;fill-rule:evenodd;fill-opacity:1;stroke:none;" />
  <path
     id="path37"
     d="  M 208.20919,32.317295   L 234.43523,12.158982   L 252.02587,15.358715   L 252.66553,15.358715   L 252.98536,15.358715   L 253.30519,15.038741   L 253.62502,14.718768   L 253.94485,14.718768   L 253.94485,14.398795   L 254.26468,13.758849   L 254.58451,13.438875   L 233.15591,0   L 207.2497,31.677349   L 207.2497,31.997322   L 207.2497,31.997322   L 207.56953,31.997322   L 207.88936,31.997322   L 207.88936,32.317295   L 208.20919,32.317295   L 208.20919,32.317295   L 208.20919,32.317295  z "
     style="fill:#ffb00f;fill-rule:evenodd;fill-opacity:1;stroke:none;" />
  <path
     id="path39"
     d="  M 133.04919,156.46691   L 216.52477,140.14827   L 169.50979,161.90645   L 172.70809,161.2665   L 181.02366,159.98661   L 192.85736,157.7468   L 206.61004,155.50699   L 220.36272,152.9472   L 232.51626,151.02736   L 240.83183,149.42749   L 244.03013,148.78755   L 183.5823,170.8657   L 188.37974,169.90578   L 200.53328,168.30591   L 218.12391,165.42616   L 238.27319,162.5464   L 258.10264,159.66664   L 275.69328,156.78688   L 287.84681,154.86704   L 292.64426,154.22709   L 206.61004,182.70471   L 211.08766,182.06476   L 222.2817,179.50498   L 237.95336,176.30525   L 256.18366,172.46557   L 274.41396,168.62589   L 290.40545,165.10618   L 301.59949,162.86637   L 305.75728,161.90645   L 300.95983,163.82629   L 288.8063,168.62589   L 271.21566,175.6653   L 251.38621,183.34466   L 231.23694,191.34399   L 213.96613,198.3834   L 201.49277,203.183   L 196.69532,205.10284   L 133.04919,156.46691  z "
     style="fill:#e8d9a8;fill-rule:evenodd;fill-opacity:1;stroke:none;" />
  <path
     id="path41"
     d="  M 113.21974,141.10819   L 247.54826,53.755501   L 260.66128,65.914484   L 310.23489,96.951886   L 314.71251,113.59049   L 295.84255,123.50966   L 262.90009,119.03004   L 186.7806,121.58982   L 113.21974,141.10819  z "
     style="fill:#5ea8ba;fill-rule:evenodd;fill-opacity:1;stroke:none;" />
  <path
     id="path43"
     d="  M 171.7486,382.368   L 179.42451,382.368   L 179.42451,382.04803   L 179.74434,381.72805   L 179.74434,381.40808   L 179.74434,381.08811   L 179.74434,380.44816   L 179.74434,380.12819   L 179.42451,379.80821   L 179.42451,379.48824   L 179.42451,379.16827   L 179.10468,378.84829   L 178.46502,378.52832   L 178.14519,378.52832   L 177.82536,378.20835   L 177.1857,378.20835   L 176.86587,377.88837   L 176.22621,377.5684   L 175.58655,374.0487   L 175.26672,370.20902   L 175.26672,366.36934   L 175.58655,362.20969   L 176.54604,353.89038   L 178.14519,345.57108   L 178.46502,341.7314   L 178.78485,337.57175   L 178.78485,333.73207   L 178.46502,329.89239   L 177.50553,326.05271   L 176.22621,322.53301   L 175.26672,320.61317   L 173.9874,319.0133   L 172.70809,317.41344   L 171.10894,315.81357   L 173.66757,300.45486   L 170.46928,293.73542   L 161.83387,295.01531   L 160.87438,296.93515   L 159.91489,299.49494   L 159.27523,302.05472   L 158.31574,304.93448   L 157.99591,307.81424   L 157.67609,310.694   L 157.67609,313.25378   L 158.31574,315.81357   L 158.9554,317.41344   L 159.59506,318.69333   L 160.55455,319.97322   L 161.51404,320.93314   L 162.1537,322.21303   L 163.11319,323.17295   L 163.75285,324.13287   L 164.39251,325.41277   L 165.03217,328.93247   L 165.352,332.1322   L 165.03217,335.65191   L 164.71234,339.17162   L 163.75285,346.21103   L 162.47353,353.25044   L 161.83387,356.77014   L 161.51404,360.28985   L 161.19421,363.48958   L 161.19421,367.00929   L 161.51404,370.20902   L 162.1537,373.40875   L 163.11319,376.28851   L 164.71234,379.48824   L 165.352,379.80821   L 165.99166,380.12819   L 166.95115,380.76813   L 167.59081,381.40808   L 168.5503,381.72805   L 169.50979,382.04803   L 170.46928,382.368   L 171.7486,382.368  z "
     style="fill:#000000;fill-rule:evenodd;fill-opacity:1;stroke:none;" />
  <path
     id="path45"
     d="  M 112.89991,352.93046   L 134.64834,351.01062   L 135.288,348.13087   L 135.60783,345.25111   L 135.92766,342.05137   L 136.24749,339.17162   L 136.24749,332.77215   L 135.92766,326.37269   L 134.96817,319.97322   L 134.32851,313.89373   L 133.68885,307.81424   L 133.36902,302.05472   L 132.40953,301.0948   L 131.76987,300.45486   L 131.13021,299.81491   L 130.81038,299.17496   L 130.49055,298.85499   L 129.85089,298.53502   L 129.21123,298.21504   L 128.57157,298.21504   L 123.77413,299.49494   L 123.77413,341.09145   L 103.94468,347.49092   L 104.26451,348.77081   L 105.224,349.73073   L 106.18349,350.37068   L 107.46281,351.01062   L 108.74213,351.3306   L 110.34128,351.97054   L 111.6206,352.29052   L 112.89991,352.93046  z "
     style="fill:#000000;fill-rule:evenodd;fill-opacity:1;stroke:none;" />
  <path
     id="path47"
     d="  M 102.34553,341.09145   L 117.69736,339.49159   L 118.65685,334.37202   L 118.97668,329.25245   L 119.29651,324.13287   L 119.29651,318.69333   L 118.97668,313.25378   L 118.65685,308.13421   L 117.69736,303.01464   L 116.09821,298.21504   L 115.77838,297.5751   L 115.13872,297.25512   L 114.49906,297.25512   L 113.8594,296.93515   L 113.21974,296.61518   L 112.26026,296.2952   L 111.6206,295.97523   L 110.66111,295.65526   L 110.34128,295.65526   L 110.02145,295.65526   L 109.70162,295.97523   L 109.38179,295.97523   L 109.38179,296.2952   L 109.06196,296.2952   L 108.74213,296.61518   L 108.74213,296.93515   L 107.14298,329.25245   L 90.51183,334.37202   L 90.51183,334.69199   L 90.192,335.01196   L 89.87217,335.33194   L 89.87217,335.33194   L 89.55234,335.33194   L 89.55234,335.33194   L 89.55234,335.65191   L 89.87217,336.29186   L 102.34553,341.09145  z "
     style="fill:#000000;fill-rule:evenodd;fill-opacity:1;stroke:none;" />
  <path
     id="path49"
     d="  M 60.44783,332.1322   L 60.76766,332.1322   L 60.76766,332.1322   L 61.087489,332.1322   L 61.087489,331.81223   L 61.407319,331.81223   L 61.727149,331.49226   L 61.727149,331.49226   L 61.727149,331.49226   L 63.006468,330.21236   L 63.326298,328.93247   L 63.646128,327.33261   L 63.646128,325.73274   L 63.326298,324.13287   L 63.006468,322.53301   L 62.046979,320.93314   L 61.407319,319.65325   L 59.48834,313.25378   L 57.889191,307.17429   L 56.929702,300.77483   L 56.290043,294.05539   L 55.650383,287.65593   L 55.330553,280.93649   L 54.690894,274.53702   L 53.731404,268.13756   L 53.731404,268.13756   L 54.051234,268.13756   L 54.051234,267.81759   L 54.371064,267.81759   L 54.690894,267.81759   L 55.010723,267.49761   L 55.330553,267.49761   L 55.650383,267.49761   L 87.313532,297.5751   L 87.953191,297.89507   L 88.912681,298.21504   L 89.55234,298.21504   L 90.51183,298.21504   L 91.471319,298.21504   L 92.110979,298.21504   L 93.070468,298.21504   L 93.710128,298.21504   L 125.05345,283.81625   L 125.37328,283.49627   L 125.69311,282.53635   L 125.69311,281.89641   L 126.01294,281.25646   L 126.01294,280.29654   L 126.01294,279.33662   L 125.69311,278.69668   L 125.37328,277.73676   L 123.4543,277.73676   L 121.53532,277.73676   L 119.61634,278.05673   L 118.01719,278.3767   L 114.17923,279.6566   L 110.34128,281.57644   L 106.82315,283.49627   L 102.98519,285.41611   L 99.147234,287.33595   L 94.989447,288.61585   L 94.669617,288.29587   L 94.029957,288.29587   L 93.710128,287.9759   L 93.390298,287.9759   L 93.070468,287.65593   L 92.750638,287.33595   L 92.110979,286.69601   L 91.791149,286.05606   L 92.110979,285.09614   L 92.750638,284.13622   L 93.390298,283.1763   L 94.349787,282.53635   L 95.629106,281.89641   L 96.588596,281.25646   L 97.867915,280.61652   L 98.827404,279.6566   L 89.232511,282.21638   L 88.592851,281.89641   L 87.953191,281.25646   L 87.313532,280.61652   L 86.354043,279.97657   L 85.714383,279.01665   L 85.074723,278.3767   L 84.435064,277.41678   L 84.115234,276.45686   L 84.435064,275.49694   L 85.074723,274.857   L 86.034213,273.89708   L 86.993702,273.5771   L 87.633362,272.93716   L 88.592851,272.29721   L 89.55234,271.65727   L 89.87217,270.69735   L 89.232511,270.0574   L 88.273021,270.0574   L 87.313532,270.0574   L 86.034213,270.69735   L 85.074723,271.65727   L 84.115234,272.29721   L 82.835915,272.93716   L 81.876426,273.25713   L 80.916936,273.5771   L 80.277277,273.25713   L 79.317787,272.61718   L 78.678128,272.29721   L 78.038468,271.33729   L 77.398809,270.69735   L 77.078979,270.0574   L 76.759149,269.41745   L 76.759149,268.45753   L 77.078979,267.49761   L 77.718638,266.85767   L 78.358298,266.21772   L 79.317787,265.89775   L 80.277277,265.2578   L 80.916936,264.61785   L 81.236766,263.65793   L 80.597106,263.33796   L 80.277277,263.01799   L 79.637617,263.01799   L 79.317787,263.01799   L 78.038468,263.65793   L 77.078979,264.61785   L 75.79966,265.57777   L 74.200511,266.21772   L 73.560851,266.21772   L 72.921191,266.21772   L 72.281532,266.21772   L 71.322043,265.89775   L 68.443574,262.37804   L 69.083234,261.09815   L 69.722894,260.13823   L 70.682383,259.49828   L 71.641872,258.85834   L 72.921191,258.21839   L 73.560851,257.57844   L 74.52034,256.29855   L 74.84017,255.01866   L 64.285787,259.17831   L 63.965957,258.85834   L 63.326298,258.53836   L 63.006468,258.21839   L 62.686638,257.89842   L 62.366809,257.57844   L 62.046979,257.25847   L 61.727149,256.9385   L 61.407319,256.29855   L 61.407319,255.33863   L 61.727149,254.37871   L 62.366809,253.73876   L 63.006468,252.77885   L 63.965957,252.45887   L 64.605617,251.81893   L 65.565106,251.17898   L 66.204766,250.53903   L 65.565106,249.57911   L 64.605617,249.25914   L 63.646128,249.25914   L 62.686638,249.57911   L 61.407319,250.21906   L 60.44783,250.85901   L 59.168511,251.17898   L 58.209021,251.49895   L 57.569362,251.49895   L 56.929702,251.49895   L 56.290043,251.17898   L 55.650383,250.85901   L 55.010723,250.53903   L 54.690894,250.21906   L 54.051234,249.57911   L 53.731404,249.25914   L 53.731404,248.29922   L 54.051234,247.65927   L 54.371064,247.01933   L 55.010723,246.69935   L 55.650383,246.05941   L 56.290043,245.73943   L 57.249532,245.09949   L 57.889191,244.13957   L 57.249532,243.81959   L 56.609872,243.49962   L 55.650383,243.81959   L 54.690894,244.13957   L 53.731404,244.45954   L 52.771915,245.09949   L 51.812426,245.73943   L 50.852936,246.05941   L 49.893447,246.05941   L 49.253787,245.73943   L 48.614128,245.41946   L 47.974468,244.77951   L 47.014979,244.13957   L 46.695149,243.49962   L 46.055489,242.85968   L 45.41583,242.21973   L 45.41583,241.25981   L 45.73566,240.61986   L 46.375319,240.29989   L 47.014979,239.97992   L 47.654638,239.65994   L 48.294298,239.33997   L 48.933957,239.02   L 49.253787,238.38005   L 48.933957,237.7401   L 47.974468,237.42013   L 47.014979,237.42013   L 46.055489,237.42013   L 44.77617,237.7401   L 43.816681,238.06008   L 42.537362,238.38005   L 41.577872,238.38005   L 40.938213,238.38005   L 40.298553,238.38005   L 39.658894,238.06008   L 39.019234,237.7401   L 38.379574,237.42013   L 37.739915,237.10016   L 37.420085,236.78018   L 37.100255,236.14024   L 37.420085,234.86034   L 37.739915,233.90043   L 38.699404,232.94051   L 39.658894,232.30056   L 40.618383,231.66061   L 41.577872,231.02067   L 42.537362,230.06075   L 42.857191,229.10083   L 41.897702,228.46088   L 40.618383,228.78085   L 39.019234,229.10083   L 37.739915,230.06075   L 36.460596,230.70069   L 34.861447,231.66061   L 33.582128,231.98059   L 31.663149,232.30056   L 31.663149,231.98059   L 31.663149,231.66061   L 31.343319,231.66061   L 31.023489,231.34064   L 30.70366,231.02067   L 30.38383,230.70069   L 30.064,230.38072   L 29.74417,230.06075   L 29.74417,229.74077   L 29.74417,229.4208   L 30.064,229.10083   L 30.064,228.78085   L 30.064,228.46088   L 30.38383,228.14091   L 30.38383,228.14091   L 30.70366,227.82093   L 36.780426,223.98126   L 36.780426,223.98126   L 37.100255,223.66128   L 37.100255,223.66128   L 37.420085,223.34131   L 37.420085,223.02134   L 37.420085,222.70136   L 37.420085,222.38139   L 37.420085,221.74144   L 36.140766,221.74144   L 34.861447,222.06142   L 33.582128,222.38139   L 32.302809,223.02134   L 31.023489,223.98126   L 29.74417,224.94117   L 28.464851,225.58112   L 27.185532,226.22107   L 22.707915,223.98126   L 23.027745,222.70136   L 23.667404,222.06142   L 24.626894,221.42147   L 25.906213,220.78152   L 27.185532,220.14158   L 28.464851,219.50163   L 29.74417,218.86168   L 30.70366,218.22174   L 30.70366,217.90176   L 30.70366,217.90176   L 30.70366,217.58179   L 31.023489,217.26182   L 31.023489,216.94184   L 31.023489,216.62187   L 30.70366,216.3019   L 30.70366,216.3019   L 15.35183,220.14158   L 15.35183,220.14158   L 15.032,219.8216   L 15.032,219.8216   L 15.032,219.50163   L 14.71217,219.18166   L 14.71217,218.86168   L 14.71217,218.54171   L 14.71217,218.22174   L 31.663149,208.94251   L 32.302809,208.62254   L 32.622638,208.30257   L 33.262298,207.98259   L 33.582128,207.66262   L 33.901957,207.34265   L 34.541617,206.7027   L 34.861447,206.06275   L 35.181277,205.10284   L 35.181277,204.78286   L 35.181277,204.46289   L 35.181277,204.14292   L 35.181277,203.82294   L 34.861447,203.50297   L 34.861447,203.183   L 34.541617,202.86302   L 34.221787,202.54305   L 31.982979,201.9031   L 29.74417,201.9031   L 27.505362,202.22308   L 25.266553,203.183   L 23.027745,204.14292   L 20.788936,205.42281   L 18.550128,206.7027   L 16.631149,207.66262   L 14.39234,209.58246   L 12.153532,210.86235   L 9.5948936,211.82227   L 7.3560851,213.10217   L 5.1172766,214.06209   L 2.8784681,215.34198   L 1.9189787,216.3019   L 1.2793191,217.26182   L 0.63965957,218.22174   L 0,219.50163   L 47.014979,259.81826   L 47.014979,260.77818   L 46.695149,261.41812   L 46.055489,262.05807   L 45.096,262.05807   L 44.136511,262.37804   L 43.177021,262.37804   L 42.537362,262.69802   L 41.577872,263.01799   L 41.897702,271.33729   L 41.897702,279.6566   L 42.217532,288.61585   L 42.857191,297.25512   L 43.177021,301.73475   L 43.816681,305.8944   L 44.45634,310.05405   L 45.41583,313.89373   L 46.695149,317.73341   L 48.294298,321.25311   L 49.893447,324.77282   L 52.132255,327.97255   L 59.80817,332.77215   L 59.80817,332.77215   L 59.80817,332.77215   L 60.128,332.45218   L 60.128,332.45218   L 60.44783,332.45218   L 60.44783,332.45218   L 60.44783,332.1322   L 60.44783,332.1322  z "
     style="fill:#000000;fill-rule:evenodd;fill-opacity:1;stroke:none;" />
  <path
     id="path51"
     d="  M 190.61855,327.97255   L 191.25821,297.25512   L 191.25821,297.25512   L 190.93838,296.93515   L 190.61855,296.93515   L 190.29872,296.93515   L 189.97889,296.61518   L 189.33923,296.61518   L 189.0194,296.93515   L 188.69957,296.93515   L 189.0194,328.6125   L 189.0194,328.6125   L 189.33923,328.6125   L 189.33923,328.6125   L 189.65906,328.29253   L 190.29872,328.29253   L 190.29872,327.97255   L 190.61855,327.97255   L 190.61855,327.97255  z "
     style="fill:#000000;fill-rule:evenodd;fill-opacity:1;stroke:none;" />
  <path
     id="path53"
     d="  M 66.524596,313.25378   L 66.524596,313.25378   L 66.524596,313.25378   L 66.844426,312.93381   L 66.844426,312.93381   L 67.164255,312.61384   L 67.164255,312.61384   L 67.164255,312.61384   L 67.484085,312.61384   L 66.524596,287.65593   L 66.204766,287.65593   L 66.204766,287.65593   L 65.884936,287.65593   L 65.565106,287.65593   L 65.245277,287.65593   L 65.245277,287.65593   L 64.925447,287.65593   L 64.605617,287.65593   L 65.884936,313.89373   L 65.884936,313.57376   L 65.884936,313.57376   L 65.884936,313.57376   L 66.204766,313.57376   L 66.204766,313.25378   L 66.204766,313.25378   L 66.524596,313.25378   L 66.524596,313.25378  z "
     style="fill:#000000;fill-rule:evenodd;fill-opacity:1;stroke:none;" />
  <path
     id="path55"
     d="  M 307.35643,292.13555   L 311.83404,289.89574   L 312.15387,283.1763   L 312.79353,276.45686   L 313.43319,269.73743   L 313.75302,263.01799   L 313.43319,259.49828   L 313.11336,256.29855   L 312.79353,253.09882   L 311.83404,249.89909   L 310.87455,247.01933   L 309.2754,243.81959   L 307.35643,240.93984   L 305.11762,238.38005   L 305.43745,236.14024   L 305.43745,233.58045   L 305.75728,231.02067   L 306.07711,228.46088   L 306.07711,225.58112   L 305.43745,223.34131   L 305.11762,222.06142   L 304.47796,220.78152   L 303.51847,219.8216   L 302.55898,218.86168   L 293.60374,221.74144   L 294.2434,243.49962   L 294.88306,243.49962   L 295.20289,243.81959   L 295.52272,244.13957   L 295.84255,244.13957   L 296.48221,244.45954   L 296.80204,244.77951   L 297.4417,245.09949   L 298.08136,245.41946   L 298.08136,283.81625   L 298.08136,284.13622   L 298.08136,284.13622   L 298.40119,284.45619   L 298.40119,284.77617   L 298.40119,285.09614   L 298.40119,285.41611   L 298.72102,285.73609   L 298.72102,286.05606   L 299.68051,287.01598   L 300.32017,287.9759   L 301.27966,288.93582   L 302.23915,289.57577   L 303.51847,290.53569   L 304.47796,291.17563   L 305.75728,291.81558   L 307.35643,292.13555  z "
     style="fill:#000000;fill-rule:evenodd;fill-opacity:1;stroke:none;" />
  <path
     id="path57"
     d="  M 149.04068,287.33595   L 153.5183,287.33595   L 154.47779,285.09614   L 155.11745,283.1763   L 155.43728,280.93649   L 155.75711,279.01665   L 156.07694,274.53702   L 156.07694,270.0574   L 155.75711,265.2578   L 155.11745,260.77818   L 154.47779,255.97858   L 154.15796,251.49895   L 157.03643,251.49895   L 159.91489,251.17898   L 162.79336,250.85901   L 165.67183,250.21906   L 171.10894,248.61919   L 176.54604,246.69935   L 181.34349,244.13957   L 186.46077,241.57978   L 190.93838,238.38005   L 195.73583,234.86034   L 204.69106,227.50096   L 213.32647,219.8216   L 222.2817,212.14225   L 230.91711,205.10284   L 237.3137,202.86302   L 243.7103,200.62321   L 250.10689,198.3834   L 256.18366,196.46356   L 262.58026,195.18367   L 268.65702,193.5838   L 275.05362,192.62388   L 281.13038,191.98393   L 286.24766,191.66396   L 291.68477,191.02401   L 296.80204,190.38407   L 301.91932,189.74412   L 307.0366,188.7842   L 311.83404,187.50431   L 316.95132,185.90444   L 321.74877,183.9846   L 318.23064,202.54305   L 314.71251,202.54305   L 310.87455,201.9031   L 307.35643,201.58313   L 303.51847,200.94318   L 299.68051,200.62321   L 296.16238,200.62321   L 292.32443,200.62321   L 288.48647,201.58313   L 284.32868,201.58313   L 280.17089,201.58313   L 276.01311,201.9031   L 271.85532,202.22308   L 267.69753,202.86302   L 263.85957,203.82294   L 259.70179,204.78286   L 255.86383,206.06275   L 252.02587,207.34265   L 248.18791,208.62254   L 244.66979,210.22241   L 241.15166,212.14225   L 237.95336,214.06209   L 234.75506,215.98192   L 231.8766,218.22174   L 228.99813,220.46155   L 225.48,224.30123   L 221.96187,228.14091   L 218.76357,231.98059   L 215.88511,235.82026   L 210.12817,243.81959   L 204.37123,251.81893   L 201.49277,255.33863   L 198.29447,259.17831   L 195.09617,262.37804   L 191.57804,265.57777   L 188.05991,268.45753   L 183.90213,271.01732   L 179.74434,273.5771   L 174.94689,275.49694   L 173.66757,275.49694   L 172.70809,275.49694   L 171.42877,275.49694   L 170.46928,275.49694   L 169.18996,275.49694   L 168.23047,275.81692   L 167.59081,276.13689   L 166.63132,276.45686   L 166.63132,276.77684   L 166.63132,277.09681   L 166.63132,277.41678   L 166.63132,277.73676   L 166.31149,278.05673   L 166.31149,278.3767   L 166.31149,278.69668   L 166.31149,279.01665   L 166.95115,280.29654   L 167.59081,281.25646   L 168.87013,282.21638   L 170.14945,283.1763   L 171.42877,283.81625   L 173.02791,284.45619   L 174.62706,284.77617   L 176.22621,285.09614   L 180.70383,283.81625   L 185.18145,282.21638   L 189.0194,280.29654   L 192.85736,278.3767   L 196.69532,275.81692   L 200.21345,273.25713   L 203.41174,270.69735   L 206.61004,267.81759   L 212.68681,261.41812   L 218.44374,255.01866   L 223.88085,248.29922   L 229.31796,241.57978   L 234.75506,234.86034   L 240.83183,228.78085   L 243.7103,225.90109   L 246.9086,223.02134   L 250.10689,220.46155   L 253.62502,218.22174   L 257.14315,215.98192   L 260.98111,214.06209   L 264.81906,212.46222   L 268.97685,211.18233   L 273.45447,209.90243   L 278.25191,209.26249   L 283.04936,208.94251   L 288.48647,208.94251   L 291.36494,209.26249   L 294.56323,208.94251   L 297.12187,208.62254   L 300.00034,208.62254   L 302.87881,208.30257   L 305.43745,207.98259   L 308.31591,208.30257   L 310.87455,208.62254   L 320.46945,217.26182   L 325.26689,217.90176   L 328.14536,212.46222   L 330.38417,206.7027   L 332.62298,200.62321   L 334.22213,194.22375   L 335.50145,187.50431   L 336.78077,181.10484   L 337.42043,174.38541   L 338.06009,167.66597   L 337.42043,166.70605   L 336.46094,165.74613   L 335.82128,165.10618   L 335.18162,164.46624   L 334.54196,163.50632   L 334.22213,162.86637   L 333.9023,161.90645   L 333.9023,160.94653   L 333.58247,157.7468   L 332.94281,154.54707   L 331.98332,151.66731   L 330.38417,148.78755   L 328.78502,145.90779   L 326.86604,143.66798   L 324.62723,141.42816   L 322.0686,139.50832   L 324.3074,136.62857   L 326.86604,134.38875   L 329.74451,132.46891   L 332.94281,130.2291   L 335.82128,127.98929   L 338.37991,125.10953   L 339.65923,123.50966   L 340.61872,121.9098   L 341.25838,119.98996   L 341.89804,117.75015   L 342.5377,115.19036   L 342.85753,112.3106   L 342.85753,109.75082   L 342.85753,107.19103   L 342.5377,104.63124   L 341.89804,102.07146   L 341.25838,99.511672   L 340.29889,96.951886   L 339.3394,94.712074   L 338.06009,92.472261   L 336.78077,90.552422   L 335.50145,88.312609   L 332.30315,84.792904   L 328.78502,81.913145   L 323.34791,77.753493   L 317.91081,74.233787   L 311.83404,71.034055   L 305.75728,68.154296   L 299.36068,65.274537   L 292.96409,62.714751   L 286.56749,60.474939   L 279.85106,57.915153   L 279.85106,57.915153   L 279.85106,57.915153   L 279.53123,57.59518   L 279.53123,57.275207   L 279.2114,57.275207   L 279.2114,56.955233   L 278.89157,56.315287   L 278.57174,55.995314   L 283.04936,42.876412   L 277.61226,40.316626   L 271.85532,38.076813   L 265.77855,36.156974   L 259.38196,34.237135   L 252.98536,32.637269   L 246.26894,31.357376   L 239.87234,30.077483   L 233.47574,28.79759   L 228.99813,31.037403   L 224.84034,33.597188   L 220.68255,36.156974   L 216.8446,38.71676   L 212.68681,41.596519   L 208.84885,44.156305   L 205.01089,46.71609   L 201.17294,49.275876   L 186.7806,59.195046   L 172.06843,69.434189   L 157.35626,79.673332   L 142.96391,90.552422   L 128.57157,101.11154   L 114.17923,111.99063   L 100.10672,122.86972   L 86.034213,133.42883   L 87.633362,139.50832   L 87.633362,139.50832   L 87.313532,139.8283   L 86.993702,139.8283   L 86.993702,140.14827   L 86.673872,140.14827   L 86.673872,140.46824   L 86.354043,140.78822   L 86.034213,141.10819   L 95.629106,148.46757   L 105.224,156.78688   L 114.81889,165.42616   L 124.41379,174.38541   L 134.32851,183.66463   L 144.56306,192.30391   L 149.68034,196.78353   L 154.79762,200.62321   L 160.23472,204.78286   L 165.352,208.30257   L 165.99166,207.98259   L 166.63132,207.66262   L 166.95115,207.02267   L 167.59081,206.7027   L 168.23047,206.06275   L 168.5503,205.42281   L 168.87013,204.78286   L 169.18996,203.82294   L 165.67183,199.66329   L 161.83387,195.18367   L 157.67609,191.02401   L 153.5183,186.86436   L 144.88289,178.86503   L 135.60783,170.8657   L 126.33277,163.18634   L 117.0577,155.82696   L 108.10247,148.78755   L 99.467064,141.74814   L 176.22621,84.472931   L 241.79132,40.956572   L 265.45872,48.63593   L 265.13889,53.435528   L 268.33719,63.034725   L 272.17515,65.274537   L 276.33294,67.194377   L 280.49072,68.794243   L 284.64851,70.714082   L 292.96409,73.913814   L 301.59949,77.43352   L 305.75728,79.353359   L 309.59523,81.273198   L 313.43319,83.513011   L 317.27115,86.072797   L 320.78928,88.952556   L 323.98757,92.472261   L 327.18587,95.991967   L 329.74451,100.15162   L 330.06434,103.03138   L 329.74451,106.23111   L 329.10485,109.11087   L 328.14536,111.67065   L 327.18587,113.91047   L 325.90655,116.15028   L 324.3074,118.07012   L 323.02809,119.66998   L 321.42894,121.26985   L 319.82979,122.54974   L 318.23064,123.50966   L 316.95132,124.46958   L 315.35217,125.74948   L 314.07285,127.02937   L 313.11336,128.30926   L 312.15387,129.90913   L 312.15387,130.2291   L 312.4737,130.86905   L 312.4737,131.18902   L 312.4737,131.50899   L 312.79353,131.82897   L 312.79353,132.46891   L 312.79353,132.78889   L 313.11336,133.42883   L 301.27966,131.18902   L 289.44596,128.94921   L 277.61226,127.34934   L 265.45872,126.06945   L 253.62502,125.4295   L 241.47149,125.4295   L 235.39472,125.74948   L 229.31796,126.06945   L 223.24119,126.7094   L 217.48426,127.34934   L 240.512,63.034725   L 240.512,62.714751   L 240.512,62.074805   L 240.19217,61.754832   L 239.87234,61.434859   L 239.55251,61.114885   L 239.23268,60.474939   L 238.91285,60.154966   L 238.27319,59.515019   L 229.95762,60.474939   L 223.56102,76.153627   L 217.48426,92.472261   L 211.40749,109.43084   L 205.65055,126.38942   L 199.89362,143.66798   L 194.77634,161.2665   L 189.65906,178.22508   L 184.54179,195.50364   L 189.65906,193.26383   L 214.92562,132.14894   L 214.92562,132.14894   L 214.92562,131.82897   L 215.24545,131.82897   L 215.24545,131.82897   L 215.56528,131.50899   L 215.88511,131.50899   L 216.52477,131.18902   L 216.8446,130.86905   L 222.60153,132.78889   L 228.6783,134.06878   L 234.75506,134.70873   L 240.83183,135.34867   L 253.62502,135.98862   L 266.41821,136.30859   L 272.81481,136.62857   L 279.2114,137.26851   L 285.608,137.90846   L 291.68477,138.86838   L 297.76153,140.46824   L 303.51847,142.06811   L 306.39694,143.348   L 309.2754,144.6279   L 311.83404,146.22776   L 314.71251,147.82763   L 315.99183,150.38741   L 317.59098,153.58715   L 318.55047,156.46691   L 319.19013,159.66664   L 319.50996,162.5464   L 319.19013,165.74613   L 318.55047,168.62589   L 317.27115,171.82562   L 308.31591,174.38541   L 299.04085,176.94519   L 289.44596,179.185   L 279.85106,181.10484   L 270.25617,183.34466   L 260.66128,185.58447   L 251.38621,188.14425   L 241.79132,190.70404   L 232.83609,193.90377   L 223.88085,197.42348   L 219.40323,199.66329   L 215.24545,201.58313   L 211.08766,204.14292   L 206.92987,206.38273   L 203.09191,209.26249   L 199.25396,212.14225   L 195.416,215.02201   L 191.89787,218.54171   L 188.37974,222.06142   L 184.86162,225.90109   L 181.66332,229.74077   L 178.78485,234.2204   L 176.54604,235.50029   L 173.9874,236.46021   L 171.7486,237.42013   L 169.18996,238.06008   L 164.39251,239.02   L 159.27523,239.97992   L 154.47779,240.61986   L 149.36051,241.25981   L 144.56306,242.21973   L 139.76562,243.49962   L 143.9234,285.09614   L 149.04068,287.33595  z "
     style="fill:#000000;fill-rule:evenodd;fill-opacity:1;stroke:none;" />
  <path
     id="path59"
     d="  M 102.34553,266.85767   L 108.10247,266.85767   L 109.06196,266.85767   L 109.70162,266.53769   L 110.34128,265.89775   L 110.66111,264.93783   L 110.98094,263.97791   L 110.98094,263.01799   L 111.30077,262.05807   L 111.30077,261.09815   L 50.852936,209.90243   L 50.533106,209.90243   L 50.213277,209.90243   L 49.893447,209.90243   L 49.253787,209.90243   L 48.933957,209.90243   L 48.614128,209.90243   L 47.974468,209.90243   L 47.334809,209.90243   L 46.695149,209.90243   L 46.055489,210.54238   L 45.41583,210.86235   L 44.77617,211.5023   L 44.136511,212.14225   L 43.496851,213.10217   L 43.177021,213.74211   L 42.857191,214.70203   L 46.055489,218.86168   L 49.573617,222.70136   L 53.091745,226.22107   L 56.609872,229.74077   L 63.965957,236.14024   L 71.322043,241.89976   L 78.997957,247.65927   L 86.354043,253.41879   L 94.029957,259.81826   L 101.38604,266.85767   L 101.38604,266.85767   L 101.70587,266.85767   L 101.70587,266.85767   L 101.70587,266.85767   L 102.0257,266.85767   L 102.0257,266.85767   L 102.0257,266.85767   L 102.34553,266.85767  z "
     style="fill:#000000;fill-rule:evenodd;fill-opacity:1;stroke:none;" />
  <path
     id="path61"
     d="  M 320.46945,261.7381   L 320.78928,261.7381   L 320.78928,261.7381   L 320.78928,261.7381   L 321.10911,261.41812   L 321.10911,261.41812   L 321.42894,261.09815   L 321.42894,261.09815   L 321.42894,261.09815   L 322.0686,257.89842   L 322.70826,254.37871   L 323.34791,250.85901   L 323.66774,247.65927   L 323.98757,244.13957   L 323.34791,240.93984   L 323.02809,239.33997   L 322.38843,237.7401   L 321.74877,236.46021   L 320.46945,234.86034   L 321.74877,223.98126   L 321.42894,223.66128   L 321.42894,223.34131   L 320.78928,223.02134   L 320.46945,223.02134   L 320.14962,223.02134   L 319.50996,223.02134   L 319.19013,223.02134   L 318.55047,223.34131   L 318.23064,258.53836   L 319.82979,262.37804   L 319.82979,262.37804   L 319.82979,262.37804   L 320.14962,262.05807   L 320.14962,262.05807   L 320.46945,262.05807   L 320.46945,262.05807   L 320.46945,261.7381   L 320.46945,261.7381  z "
     style="fill:#000000;fill-rule:evenodd;fill-opacity:1;stroke:none;" />
  <path
     id="path63"
     d="  M 127.29226,243.49962   L 133.36902,242.21973   L 133.68885,241.89976   L 134.00868,241.57978   L 134.64834,241.25981   L 134.64834,240.93984   L 134.96817,240.29989   L 135.288,239.65994   L 135.60783,239.02   L 135.92766,238.38005   L 129.21123,232.30056   L 122.17498,225.58112   L 114.81889,218.86168   L 107.46281,212.14225   L 99.786894,205.10284   L 92.430809,198.06342   L 85.394553,191.34399   L 78.678128,184.94452   L 75.16,182.38474   L 71.641872,179.82495   L 68.443574,177.26516   L 65.245277,175.02535   L 62.046979,172.46557   L 58.848681,169.90578   L 55.970213,167.34599   L 53.091745,164.46624   L 82.516085,146.54774   L 82.516085,146.22776   L 82.516085,146.22776   L 82.516085,145.90779   L 82.516085,145.58782   L 82.196255,145.26784   L 82.196255,144.94787   L 82.196255,144.94787   L 81.876426,144.6279   L 78.678128,144.30792   L 75.79966,144.30792   L 72.921191,144.94787   L 70.042723,145.58782   L 64.285787,147.50766   L 58.848681,150.06744   L 53.731404,152.9472   L 48.294298,156.14693   L 42.537362,158.70672   L 36.780426,160.62656   L 35.501106,162.22642   L 34.541617,164.14626   L 33.901957,166.0661   L 33.582128,168.30591   L 32.942468,172.78554   L 32.942468,177.58514   L 33.262298,182.38474   L 33.582128,187.18433   L 33.582128,191.98393   L 32.942468,196.46356   L 33.262298,197.42348   L 33.582128,198.06342   L 34.221787,198.70337   L 35.181277,198.70337   L 36.140766,199.02334   L 37.100255,199.02334   L 38.059745,198.70337   L 39.019234,198.70337   L 39.658894,198.3834   L 40.298553,198.3834   L 40.618383,198.06342   L 40.938213,197.74345   L 41.258043,197.42348   L 41.577872,197.1035   L 41.897702,196.78353   L 42.217532,196.46356   L 44.136511,171.82562   L 49.253787,175.02535   L 54.371064,178.54506   L 59.48834,182.38474   L 64.285787,186.22442   L 73.560851,194.86369   L 82.835915,203.50297   L 91.791149,212.46222   L 100.74638,221.42147   L 110.34128,230.06075   L 119.93617,238.38005   L 120.256,239.02   L 120.57583,239.65994   L 120.89566,239.97992   L 121.21549,240.29989   L 121.53532,240.61986   L 121.85515,240.93984   L 122.17498,241.25981   L 122.49481,241.57978   L 127.29226,243.49962  z "
     style="fill:#000000;fill-rule:evenodd;fill-opacity:1;stroke:none;" />
  <path
     id="path65"
     d="  M 17.590638,178.54506   L 17.590638,178.54506   L 17.590638,178.22508   L 17.910468,178.22508   L 17.910468,177.90511   L 18.230298,177.90511   L 18.230298,177.58514   L 18.230298,177.58514   L 18.230298,177.58514   L 20.149277,153.90712   L 41.577872,143.348   L 41.577872,143.02803   L 41.897702,143.02803   L 41.897702,142.38808   L 41.897702,142.06811   L 41.897702,141.74814   L 41.577872,141.42816   L 41.258043,141.42816   L 40.298553,141.74814   L 34.221787,144.30792   L 11.833702,144.30792   L 11.194043,144.94787   L 10.554383,145.26784   L 10.234553,145.90779   L 9.9147234,146.86771   L 9.5948936,148.46757   L 9.9147234,150.38741   L 10.554383,152.62723   L 10.874213,154.54707   L 11.194043,156.46691   L 10.874213,158.06677   L 12.153532,160.94653   L 12.793191,163.82629   L 13.752681,166.38608   L 14.39234,168.62589   L 15.032,171.18567   L 15.35183,173.42549   L 15.991489,175.98527   L 16.631149,178.54506   L 16.631149,178.54506   L 16.631149,178.54506   L 16.950979,178.54506   L 16.950979,178.54506   L 17.270809,178.54506   L 17.270809,178.54506   L 17.590638,178.54506   L 17.590638,178.54506  z "
     style="fill:#000000;fill-rule:evenodd;fill-opacity:1;stroke:none;" />
  <path
     id="path67"
     d="  M 132.0897,146.54774   L 176.22621,139.8283   L 176.86587,139.18835   L 177.1857,138.54841   L 177.50553,137.58849   L 177.50553,136.94854   L 177.50553,135.98862   L 177.1857,135.0287   L 176.86587,134.06878   L 176.22621,133.42883   L 170.14945,132.78889   L 163.75285,132.46891   L 157.03643,132.78889   L 150.32,133.42883   L 143.60357,134.70873   L 137.20698,136.30859   L 130.81038,138.22843   L 125.05345,140.46824   L 124.73362,140.78822   L 124.73362,141.10819   L 124.41379,141.42816   L 124.41379,141.74814   L 124.41379,142.06811   L 124.73362,142.38808   L 124.73362,142.70806   L 125.05345,143.02803   L 132.0897,146.54774  z "
     style="fill:#000000;fill-rule:evenodd;fill-opacity:1;stroke:none;" />
  <path
     id="path69"
     d="  M 344.45668,134.70873   L 347.65498,132.78889   L 350.21362,130.2291   L 352.45243,127.66932   L 354.3714,124.78956   L 355.97055,121.58982   L 357.24987,118.07012   L 358.20936,114.55041   L 358.52919,110.71073   L 358.52919,108.7909   L 358.52919,106.87106   L 358.52919,104.95122   L 358.52919,103.03138   L 358.20936,101.43151   L 357.88953,99.831645   L 357.24987,97.911806   L 356.61021,96.31194   L 356.61021,96.31194   L 356.61021,95.991967   L 356.29038,95.991967   L 355.97055,95.671993   L 355.33089,95.35202   L 355.01106,95.35202   L 354.3714,95.35202   L 354.05157,95.671993   L 354.69123,99.511672   L 355.01106,103.35135   L 354.69123,107.511   L 354.3714,111.67065   L 353.73174,115.83031   L 352.45243,119.66998   L 350.85328,123.18969   L 348.9343,126.06945   L 347.65498,127.34934   L 346.69549,128.30926   L 345.736,129.26918   L 345.09634,130.2291   L 344.45668,131.18902   L 343.81702,132.14894   L 343.49719,133.10886   L 343.17736,134.06878   L 343.17736,134.06878   L 343.49719,134.38875   L 343.49719,134.38875   L 343.81702,134.38875   L 344.13685,134.70873   L 344.13685,134.70873   L 344.45668,134.70873   L 344.45668,134.70873  z "
     style="fill:#000000;fill-rule:evenodd;fill-opacity:1;stroke:none;" />
  <path
     id="path71"
     d="  M 89.232511,117.1102   L 108.10247,101.75148   L 157.35626,65.59451   L 157.03643,65.274537   L 157.03643,65.274537   L 156.7166,64.954564   L 156.39677,64.954564   L 156.39677,64.634591   L 156.39677,64.634591   L 156.07694,64.314618   L 156.07694,64.314618   L 87.313532,115.83031   L 87.313532,115.83031   L 87.313532,116.15028   L 87.313532,116.79023   L 87.633362,117.1102   L 87.953191,117.43017   L 88.273021,117.75015   L 88.592851,117.43017   L 89.232511,117.1102  z "
     style="fill:#000000;fill-rule:evenodd;fill-opacity:1;stroke:none;" />
  <path
     id="path73"
     d="  M 206.29021,35.837001   L 232.19643,15.358715   L 250.10689,18.87842   L 250.42672,18.87842   L 250.74655,18.558447   L 251.06638,18.558447   L 251.38621,18.238474   L 251.70604,17.9185   L 252.02587,17.598527   L 252.02587,17.278554   L 252.3457,16.638608   L 230.91711,3.5197054   L 205.01089,35.197054   L 205.01089,35.197054   L 205.33072,35.197054   L 205.33072,35.197054   L 205.65055,35.517028   L 205.97038,35.517028   L 205.97038,35.517028   L 205.97038,35.837001   L 206.29021,35.837001  z "
     style="fill:#000000;fill-rule:evenodd;fill-opacity:1;stroke:none;" />
  <path
     id="path75"
     d="  M 70.362553,163.18634   L 84.754894,149.74747   L 171.42877,224.94117   L 170.14945,225.58112   L 167.27098,227.18099   L 162.79336,229.4208   L 157.67609,231.98059   L 152.55881,234.86034   L 148.40102,237.10016   L 145.20272,238.70002   L 143.9234,239.33997   L 70.362553,163.18634  z "
     style="fill:#5ea8ba;fill-rule:evenodd;fill-opacity:1;stroke:none;" />
  <path
     id="path77"
     d="  M 49.253787,206.38273   L 46.375319,175.34533   L 128.57157,243.49962   L 128.8914,245.41946   L 130.17072,249.57911   L 132.0897,255.97858   L 134.00868,263.01799   L 136.24749,270.0574   L 137.84664,276.45686   L 139.12596,280.61652   L 139.44579,282.21638   L 49.253787,206.38273  z "
     style="fill:#5ea8ba;fill-rule:evenodd;fill-opacity:1;stroke:none;" />
</svg>
