<?xml version="1.0" encoding="UTF-8" standalone="no"?>
<svg
   xmlns:dc="http://purl.org/dc/elements/1.1/"
   xmlns:cc="http://creativecommons.org/ns#"
   xmlns:rdf="http://www.w3.org/1999/02/22-rdf-syntax-ns#"
   xmlns:svg="http://www.w3.org/2000/svg"
   xmlns="http://www.w3.org/2000/svg"
   id="svg93"
   height="102.362mm"
   width="33.8074mm"
   version="1.0">
  <metadata
     id="metadata97">
    <rdf:RDF>
      <cc:Work
         rdf:about="">
        <dc:format>image/svg+xml</dc:format>
        <dc:type
           rdf:resource="http://purl.org/dc/dcmitype/StillImage" />
        <dc:title></dc:title>
      </cc:Work>
    </rdf:RDF>
  </metadata>
  <defs
     id="defs3">
    <pattern
       y="0"
       x="0"
       height="6"
       width="6"
       patternUnits="userSpaceOnUse"
       id="WMFhbasepattern" />
  </defs>
  <path
     id="path5"
     d="  M 78.08,60.145072   L 70.08,135.00649   L 66.56,171.79736   L 65.6,171.79736   L 63.04,172.75712   L 59.52,173.71688   L 55.36,174.67665   L 51.2,175.63641   L 47.68,176.59617   L 45.12,177.23601   L 44.16,177.55593   L 43.52,177.87585   L 42.56,179.15553   L 40.96,180.75514   L 39.36,182.35474   L 37.44,184.27426   L 36.16,185.55395   L 34.88,186.83363   L 34.56,187.15355   L 34.24,188.11331   L 33.92,190.35275   L 32.96,193.55196   L 32.32,197.39101   L 31.36,200.91013   L 30.72,204.10934   L 30.08,206.34878   L 29.76,207.30855   L 30.4,208.26831   L 31.68,211.46751   L 33.28,215.62648   L 35.2,220.42529   L 37.12,225.2241   L 38.72,229.38307   L 40,232.26235   L 40.64,233.22211   L 40.64,234.18188   L 40.64,236.1014   L 40.64,238.98068   L 40.64,242.49981   L 40.64,245.69902   L 40.64,248.5783   L 40.64,250.49783   L 40.64,251.13767   L 40.32,251.77751   L 39.36,253.69703   L 38.4,256.2564   L 36.8,259.13568   L 35.52,261.69505   L 34.56,264.25441   L 33.6,265.85401   L 33.6,266.49386   L 33.92,266.81378   L 34.56,267.45362   L 36.16,268.09346   L 37.44,269.05322   L 39.04,270.01298   L 40.32,270.65282   L 41.28,271.29267   L 41.6,271.29267   L 41.92,271.93251   L 42.24,273.85203   L 42.88,276.41139   L 43.52,279.29068   L 44.16,281.85004   L 44.8,284.40941   L 45.12,286.00901   L 45.12,286.64885   L 44.48,287.60862   L 42.88,289.52814   L 40.32,292.40742   L 37.44,295.60663   L 34.56,299.12576   L 32.32,302.00504   L 30.4,303.92457   L 29.76,304.56441   L 29.76,305.20425   L 29.76,306.80385   L 29.76,309.0433   L 29.76,311.92258   L 29.76,314.48195   L 29.76,316.72139   L 29.76,318.32099   L 29.76,318.96083   L 30.08,319.60067   L 30.08,321.20028   L 30.72,323.75964   L 31.04,326.63893   L 31.36,329.51821   L 31.68,332.07758   L 32,333.67718   L 32.32,334.31702   L 32.64,334.95686   L 33.28,336.23655   L 34.24,338.47599   L 35.84,341.03535   L 37.12,343.2748   L 38.08,345.51424   L 39.04,346.79393   L 39.36,347.43377   L 40,348.07361   L 41.6,349.67321   L 43.84,351.91266   L 46.4,354.47202   L 48.96,357.03138   L 51.2,359.27083   L 52.8,360.87043   L 53.44,361.51027   L 53.44,359.91067   L 53.44,355.43178   L 53.44,348.71345   L 53.44,341.35528   L 53.44,333.9971   L 53.44,327.59869   L 53.44,323.1198   L 53.44,321.20028   L 54.4,321.5202   L 57.28,322.16004   L 60.8,322.79988   L 65.28,323.75964   L 69.76,324.39948   L 73.6,325.35925   L 76.16,325.67917   L 77.12,325.99909   L 77.76,326.31901   L 79.68,326.63893   L 82.24,327.59869   L 85.44,328.55845   L 88.32,329.19829   L 90.88,330.15805   L 92.8,330.47798   L 93.44,330.7979   L 93.44,331.43774   L 93.12,333.35726   L 92.48,335.91663   L 91.84,339.11583   L 91.2,342.31504   L 90.56,344.8744   L 90.24,346.79393   L 89.92,347.43377   L 90.56,346.474   L 92.16,344.55448   L 94.4,341.35528   L 96.96,337.83615   L 99.84,334.31702   L 102.08,331.43774   L 103.68,329.19829   L 104.32,328.23853   L 104.32,327.59869   L 104.96,325.35925   L 105.92,322.16004   L 107.2,318.32099   L 108.16,314.48195   L 109.12,311.28274   L 109.76,309.0433   L 110.08,308.08353   L 109.76,307.76361   L 109.12,306.16401   L 108.16,304.24449   L 107.2,301.68512   L 105.92,299.44568   L 104.96,297.20623   L 104.32,295.60663   L 104.32,294.96679   L 103.68,294.64687   L 102.08,293.04727   L 100.16,290.80782   L 97.6,287.92854   L 95.36,285.36917   L 93.12,283.12973   L 91.84,281.53012   L 91.2,280.89028   L 91.2,280.25044   L 91.84,278.011   L 92.16,275.45163   L 92.8,271.93251   L 93.44,268.7333   L 94.08,265.85401   L 94.4,263.93449   L 94.72,262.97473   L 95.04,262.65481   L 95.36,261.69505   L 96.32,260.09544   L 96.96,258.49584   L 97.92,256.57632   L 98.88,254.97671   L 99.2,254.01695   L 99.52,253.69703   L 99.2,253.05719   L 98.24,251.45759   L 96.96,249.53806   L 95.36,246.9787   L 93.76,244.73926   L 92.48,242.49981   L 91.52,241.22013   L 91.2,240.58029   L 91.52,239.62053   L 92.48,237.06116   L 93.76,233.54203   L 95.36,229.38307   L 96.96,225.2241   L 98.24,221.38505   L 99.2,218.82569   L 99.52,217.86593   L 99.84,217.22608   L 100.16,215.62648   L 101.12,213.06712   L 101.76,210.18783   L 102.72,207.62847   L 103.36,205.0691   L 104,203.14958   L 104.32,202.50974   L 104.32,201.54998   L 104.32,199.31053   L 104.32,195.7914   L 104.32,191.95236   L 104.32,188.11331   L 104.32,184.59418   L 104.32,182.03482   L 104.32,181.07506   L 103.36,180.43522   L 101.12,178.83561   L 97.92,176.59617   L 94.08,174.0368   L 90.56,171.47744   L 87.04,169.238   L 84.8,167.63839   L 84.16,166.99855   L 83.84,162.51966   L 82.88,150.36268   L 81.92,133.40689   L 80.64,113.57181   L 79.68,94.056655   L 78.72,77.100864   L 78.08,64.943881   L 78.08,60.145072  z "
     style="fill:#a83a00;fill-rule:evenodd;fill-opacity:1;stroke:none;" />
  <path
     id="path7"
     d="  M 74.56,382.94495   L 76.16,382.94495   L 77.76,382.62503   L 79.36,382.62503   L 80.96,382.30511   L 82.56,381.98519   L 84.16,381.66527   L 85.44,381.34535   L 87.04,381.34535   L 88.96,380.70551   L 90.56,379.74575   L 92.16,379.10591   L 93.76,378.46606   L 95.36,377.82622   L 96.64,377.18638   L 98.24,376.54654   L 99.84,375.9067   L 99.84,375.58678   L 99.84,375.58678   L 100.16,375.26686   L 100.16,375.26686   L 100.16,374.94694   L 100.48,374.94694   L 100.48,374.62702   L 100.8,374.3071   L 94.4,358.31107   L 101.76,352.87242   L 102.08,352.5525   L 102.08,352.23258   L 102.4,351.91266   L 102.72,351.59273   L 102.72,351.27281   L 103.04,350.95289   L 103.04,350.63297   L 103.04,349.99313   L 92.48,357.99115   L 94.72,372.38757   L 92.16,373.98718   L 89.92,375.26686   L 87.36,376.86646   L 84.8,378.14614   L 82.24,379.10591   L 79.68,380.38559   L 77.12,381.34535   L 74.24,382.30511   L 74.24,382.30511   L 74.24,382.62503   L 74.24,382.62503   L 74.24,382.62503   L 74.56,382.62503   L 74.56,382.62503   L 74.56,382.94495   L 74.56,382.94495  z "
     style="fill:#cfb070;fill-rule:evenodd;fill-opacity:1;stroke:none;" />
  <path
     id="path9"
     d="  M 50.88,357.03138   L 51.2,357.03138   L 51.52,357.03138   L 51.84,357.03138   L 51.84,356.71146   L 52.16,356.71146   L 52.48,356.71146   L 52.8,356.71146   L 53.12,356.39154   L 53.76,352.87242   L 54.08,349.03337   L 53.76,344.8744   L 53.12,341.03535   L 52.8,336.87639   L 52.16,333.03734   L 51.84,328.87837   L 51.84,325.03933   L 64.32,325.67917   L 64.32,338.79591   L 67.84,341.99512   L 67.84,341.99512   L 67.84,341.99512   L 68.16,341.99512   L 68.48,341.99512   L 68.48,341.99512   L 68.8,341.99512   L 69.12,341.99512   L 69.12,341.99512   L 71.36,340.07559   L 74.56,322.16004   L 74.56,321.84012   L 74.56,321.5202   L 74.56,321.20028   L 74.56,321.20028   L 74.24,320.88036   L 74.24,320.56044   L 74.24,320.24052   L 73.92,319.9206   L 70.4,319.9206   L 66.56,319.28075   L 62.72,318.64091   L 58.56,318.32099   L 54.72,317.68115   L 50.88,317.68115   L 47.04,318.00107   L 43.52,318.64091   L 46.72,354.1521   L 47.04,354.79194   L 47.36,355.11186   L 48,355.43178   L 48.64,355.7517   L 48.96,356.07162   L 49.6,356.39154   L 50.24,356.71146   L 50.88,357.03138  z "
     style="fill:#cfb070;fill-rule:evenodd;fill-opacity:1;stroke:none;" />
  <path
     id="path11"
     d="  M 18.24,339.11583   L 16.32,333.67718   L 14.4,328.55845   L 12.48,322.79988   L 11.2,317.36123   L 9.92,311.60266   L 9.28,305.84409   L 8.96,302.9648   L 8.96,300.08552   L 9.28,297.20623   L 9.6,294.32695   L 9.6,294.00703   L 9.6,294.00703   L 9.28,294.00703   L 9.28,294.00703   L 8.96,294.00703   L 8.96,293.68711   L 8.64,293.68711   L 8.32,293.68711   L 7.36,294.64687   L 6.4,295.92655   L 5.76,296.88631   L 5.12,298.166   L 4.48,300.72536   L 4.16,303.60465   L 4.48,306.80385   L 4.8,309.68314   L 4.8,312.56242   L 5.12,315.12179   L 6.4,318.64091   L 7.68,322.16004   L 9.28,325.35925   L 10.88,328.23853   L 12.48,331.11782   L 14.4,333.9971   L 16.32,336.55647   L 18.24,339.43575   L 18.24,339.43575   L 18.24,339.43575   L 18.24,339.11583   L 18.24,339.11583   L 18.24,339.11583   L 18.24,339.11583   L 18.24,339.11583   L 18.24,339.11583  z "
     style="fill:#cfb070;fill-rule:evenodd;fill-opacity:1;stroke:none;" />
  <path
     id="path13"
     d="  M 24,319.9206   L 31.36,319.60067   L 33.28,318.64091   L 34.56,317.36123   L 35.84,315.76163   L 37.12,314.48195   L 39.36,310.96282   L 40.64,307.12377   L 41.92,303.28472   L 42.56,299.12576   L 42.56,294.96679   L 42.56,290.80782   L 42.24,288.8883   L 41.92,287.28869   L 41.6,285.36917   L 41.28,283.76957   L 40.64,281.85004   L 40.32,280.25044   L 39.68,278.97076   L 39.04,277.37116   L 38.4,277.05124   L 37.76,276.73132   L 37.12,276.41139   L 36.16,276.09147   L 35.2,276.09147   L 34.56,276.41139   L 33.6,276.41139   L 32.96,277.05124   L 33.6,281.53012   L 34.24,286.32893   L 34.56,291.44766   L 34.56,296.24647   L 34.56,298.80584   L 34.24,301.04528   L 33.6,303.60465   L 32.96,305.84409   L 32,308.08353   L 30.72,310.00306   L 29.12,311.92258   L 27.2,313.8421   L 27.2,313.8421   L 26.88,314.16202   L 26.56,314.16202   L 26.24,314.48195   L 26.24,314.48195   L 25.92,314.48195   L 25.92,314.48195   L 25.92,314.48195   L 25.28,314.48195   L 24.64,314.48195   L 24.32,314.16202   L 23.68,313.52218   L 23.36,313.20226   L 22.72,312.88234   L 22.4,312.56242   L 21.76,312.2425   L 17.6,312.2425   L 17.6,313.52218   L 17.92,314.48195   L 18.56,315.76163   L 19.2,316.72139   L 20.16,318.00107   L 21.44,318.64091   L 22.72,319.60067   L 24,319.9206  z "
     style="fill:#cfb070;fill-rule:evenodd;fill-opacity:1;stroke:none;" />
  <path
     id="path15"
     d="  M 83.84,312.2425   L 93.76,309.68314   L 95.04,306.16401   L 94.72,305.52417   L 94.72,304.88433   L 94.4,304.56441   L 94.08,303.92457   L 93.76,303.60465   L 93.12,303.28472   L 92.48,302.9648   L 92.16,302.64488   L 88,303.92457   L 87.68,304.24449   L 87.68,304.56441   L 87.36,304.56441   L 87.36,304.88433   L 87.04,305.20425   L 87.04,305.52417   L 86.72,305.52417   L 86.72,305.84409   L 85.44,306.16401   L 84.48,306.16401   L 83.52,305.84409   L 82.56,305.52417   L 81.6,304.88433   L 80.64,304.24449   L 79.68,303.60465   L 78.72,302.64488   L 77.76,301.04528   L 77.12,299.44568   L 76.48,297.52615   L 76.16,295.92655   L 75.52,292.40742   L 75.84,288.8883   L 76.16,285.36917   L 77.12,281.85004   L 78.4,278.65084   L 79.68,275.45163   L 80.32,274.81179   L 80.64,273.85203   L 81.28,273.21219   L 81.6,272.57235   L 82.24,271.93251   L 82.56,271.29267   L 82.56,270.65282   L 82.56,270.01298   L 82.56,269.69306   L 82.24,269.69306   L 82.24,269.69306   L 82.24,269.37314   L 82.24,269.37314   L 81.92,269.37314   L 81.92,269.05322   L 81.6,269.05322   L 76.8,267.77354   L 74.56,270.65282   L 72.32,273.85203   L 70.72,277.37116   L 69.12,280.89028   L 68.16,285.04925   L 67.84,288.8883   L 67.84,293.04727   L 68.8,297.20623   L 69.44,299.44568   L 70.4,301.68512   L 71.68,303.92457   L 72.96,305.84409   L 74.56,307.44369   L 76.48,309.0433   L 78.08,310.32298   L 80.32,311.60266   L 80.64,311.60266   L 81.28,311.60266   L 81.6,311.92258   L 82.24,311.92258   L 82.56,312.2425   L 82.88,312.2425   L 83.52,312.2425   L 83.84,312.2425  z "
     style="fill:#cfb070;fill-rule:evenodd;fill-opacity:1;stroke:none;" />
  <path
     id="path17"
     d="  M 52.16,300.40544   L 53.12,292.72734   L 53.76,285.04925   L 54.08,277.37116   L 54.08,269.69306   L 53.76,261.69505   L 53.44,254.01695   L 52.8,246.33886   L 52.48,238.66076   L 52.48,230.34283   L 52.48,222.02489   L 52.8,213.70696   L 53.44,205.38902   L 53.76,197.39101   L 53.76,189.07307   L 53.44,181.07506   L 52.48,173.07704   L 52.16,173.07704   L 52.16,172.75712   L 51.84,172.75712   L 51.52,172.4372   L 51.52,172.4372   L 51.2,172.4372   L 51.2,172.11728   L 50.88,172.11728   L 50.24,172.11728   L 49.6,172.11728   L 48.96,172.4372   L 48.64,172.75712   L 48,173.07704   L 47.68,173.39696   L 47.04,174.0368   L 46.72,174.35672   L 47.04,179.15553   L 47.36,184.27426   L 47.36,189.07307   L 47.68,194.1918   L 47.68,198.99061   L 47.68,204.10934   L 47.36,209.22807   L 47.04,214.02688   L 47.04,225.2241   L 47.36,236.1014   L 48,246.9787   L 48.64,257.856   L 49.28,268.7333   L 49.92,279.6106   L 50.56,290.4879   L 51.52,301.04528   L 51.52,301.04528   L 51.52,301.04528   L 51.52,301.04528   L 51.84,300.72536   L 51.84,300.72536   L 52.16,300.72536   L 52.16,300.40544   L 52.16,300.40544  z "
     style="fill:#cfb070;fill-rule:evenodd;fill-opacity:1;stroke:none;" />
  <path
     id="path19"
     d="  M 12.48,283.12973   L 15.36,282.48989   L 15.36,282.16997   L 15.68,282.16997   L 15.68,281.85004   L 15.68,281.53012   L 16,281.53012   L 16,281.2102   L 16,280.89028   L 16,280.57036   L 12.48,281.2102   L 9.28,279.93052   L 8.64,280.25044   L 8.64,280.57036   L 8.64,280.57036   L 8.96,280.89028   L 9.28,281.2102   L 9.92,281.85004   L 10.24,281.85004   L 10.56,282.16997   L 10.88,282.48989   L 11.2,282.48989   L 11.52,282.80981   L 11.52,282.80981   L 11.84,282.80981   L 12.16,283.12973   L 12.16,283.12973   L 12.48,283.12973  z "
     style="fill:#cfb070;fill-rule:evenodd;fill-opacity:1;stroke:none;" />
  <path
     id="path21"
     d="  M 58.56,258.49584   L 59.84,253.05719   L 61.12,247.61854   L 61.76,242.17989   L 62.08,236.74124   L 62.4,231.30259   L 62.4,225.86394   L 62.4,220.42529   L 62.08,214.98664   L 62.4,209.22807   L 62.72,203.78942   L 63.04,198.03085   L 63.04,192.5922   L 62.72,187.15355   L 62.08,182.03482   L 61.76,179.47545   L 61.12,176.91609   L 60.16,174.67665   L 59.2,172.4372   L 56.64,174.0368   L 56.32,174.0368   L 56.32,174.35672   L 56,174.35672   L 56,174.67665   L 55.68,174.67665   L 55.68,174.99657   L 55.36,175.31649   L 55.36,175.63641   L 56,178.83561   L 56.32,182.03482   L 56.32,185.23402   L 56.64,188.43323   L 56.96,191.95236   L 56.96,195.15156   L 56.96,198.35077   L 56.96,201.54998   L 56.96,204.42926   L 56.96,206.98863   L 57.28,209.22807   L 57.28,211.78743   L 57.28,214.3468   L 57.28,216.90616   L 56.96,219.14561   L 56.64,221.70497   L 56.64,225.2241   L 56.96,228.74323   L 57.28,232.26235   L 57.28,235.46156   L 57.6,238.98068   L 57.92,242.17989   L 57.92,245.69902   L 57.92,248.89822   L 57.92,250.17791   L 57.6,251.45759   L 57.6,252.73727   L 57.6,254.01695   L 57.6,255.29664   L 57.6,256.2564   L 57.92,257.53608   L 57.92,258.49584   L 57.92,258.49584   L 58.24,258.49584   L 58.24,258.49584   L 58.24,258.49584   L 58.24,258.49584   L 58.56,258.49584   L 58.56,258.49584   L 58.56,258.49584  z "
     style="fill:#cfb070;fill-rule:evenodd;fill-opacity:1;stroke:none;" />
  <path
     id="path23"
     d="  M 100.48,255.29664   L 100.48,255.29664   L 100.8,255.29664   L 100.8,255.29664   L 100.8,255.29664   L 101.12,254.97671   L 101.12,254.97671   L 101.44,254.65679   L 101.44,254.65679   L 102.08,251.13767   L 100.48,248.89822   L 99.2,246.65878   L 97.92,244.41933   L 96.96,242.17989   L 96.64,239.94045   L 96,237.701   L 96,235.14164   L 96,232.90219   L 96.64,227.78346   L 97.6,222.98466   L 99.2,217.86593   L 100.8,212.7472   L 102.4,207.62847   L 104,202.50974   L 105.6,197.39101   L 106.56,192.27228   L 106.88,189.71291   L 106.88,187.15355   L 106.88,184.59418   L 106.56,182.03482   L 105.92,179.79537   L 105.28,177.23601   L 104.32,174.67665   L 103.04,172.4372   L 100.48,168.91807   L 97.92,166.03879   L 95.04,163.1595   L 91.84,160.92006   L 88.64,158.68062   L 85.12,157.08101   L 81.28,155.80133   L 77.44,155.16149   L 76.8,155.16149   L 76.48,155.48141   L 76.16,155.48141   L 75.52,155.48141   L 75.2,155.48141   L 74.88,155.48141   L 74.56,155.48141   L 74.24,155.80133   L 74.24,156.76109   L 74.56,157.40093   L 75.2,158.04077   L 75.84,159.00054   L 76.48,159.32046   L 77.44,159.9603   L 78.08,160.60014   L 78.72,160.92006   L 81.92,161.5599   L 84.48,162.83958   L 87.04,164.43919   L 89.28,166.03879   L 91.52,168.27823   L 93.12,170.19776   L 94.72,172.75712   L 96,174.99657   L 96.96,177.55593   L 97.6,180.1153   L 98.24,182.67466   L 98.24,185.23402   L 98.24,187.79339   L 97.92,190.35275   L 97.6,192.91212   L 97.28,195.15156   L 96,201.54998   L 93.76,207.94839   L 91.52,214.66672   L 89.28,220.74521   L 88.64,223.94442   L 87.68,227.14362   L 87.36,230.34283   L 87.04,233.54203   L 87.36,236.74124   L 87.68,239.94045   L 88.64,243.13965   L 90.24,246.33886   L 91.2,247.61854   L 92.48,248.89822   L 93.44,250.49783   L 94.4,251.77751   L 95.68,252.73727   L 96.96,254.01695   L 98.24,254.97671   L 99.52,255.61656   L 99.52,255.61656   L 99.84,255.61656   L 99.84,255.61656   L 100.16,255.61656   L 100.16,255.61656   L 100.16,255.61656   L 100.48,255.61656   L 100.48,255.29664  z "
     style="fill:#cfb070;fill-rule:evenodd;fill-opacity:1;stroke:none;" />
  <path
     id="path25"
     d="  M 23.68,238.98068   L 24.96,236.1014   L 25.92,233.22211   L 26.24,230.34283   L 26.24,227.14362   L 25.92,223.94442   L 25.28,220.74521   L 24.64,217.546   L 24,214.66672   L 22.72,212.42728   L 21.44,210.18783   L 20.8,207.94839   L 20.16,205.70894   L 19.52,203.4695   L 18.88,200.91013   L 18.24,198.35077   L 17.6,195.7914   L 17.28,192.5922   L 17.28,189.39299   L 17.92,186.19379   L 18.88,182.99458   L 20.16,180.1153   L 22.08,177.55593   L 24,175.31649   L 26.56,173.07704   L 27.52,172.4372   L 28.48,171.79736   L 29.44,171.15752   L 30.4,170.51768   L 31.36,169.87784   L 32.32,169.238   L 32.96,168.27823   L 33.6,167.31847   L 33.6,167.31847   L 33.6,166.99855   L 33.6,166.99855   L 33.6,166.99855   L 33.6,166.67863   L 33.6,166.67863   L 33.28,166.35871   L 33.28,166.35871   L 31.36,166.35871   L 29.44,166.99855   L 27.52,167.63839   L 25.6,168.59815   L 24,169.87784   L 22.4,170.8376   L 20.8,172.4372   L 19.2,173.71688   L 16.96,176.27625   L 15.04,179.15553   L 13.12,182.35474   L 11.84,185.87387   L 10.88,189.39299   L 10.24,192.91212   L 10.24,194.83164   L 10.56,196.43125   L 10.88,198.35077   L 11.52,200.27029   L 13.12,205.0691   L 15.36,209.86791   L 17.92,214.66672   L 20.16,219.14561   L 21.12,221.38505   L 22.08,223.6245   L 23.04,226.18386   L 23.68,228.42331   L 24,230.98267   L 24,233.54203   L 24,236.42132   L 23.36,239.30061   L 23.36,239.30061   L 23.36,239.30061   L 23.36,239.30061   L 23.36,238.98068   L 23.36,238.98068   L 23.68,238.98068   L 23.68,238.98068   L 23.68,238.98068  z "
     style="fill:#cfb070;fill-rule:evenodd;fill-opacity:1;stroke:none;" />
  <path
     id="path27"
     d="  M 5.44,233.22211   L 5.44,233.22211   L 5.44,233.22211   L 5.44,233.22211   L 5.76,233.22211   L 5.76,232.90219   L 5.76,232.90219   L 5.76,232.90219   L 5.76,232.90219   L 6.72,230.98267   L 6.72,229.06315   L 6.72,227.14362   L 6.4,225.2241   L 5.76,223.30458   L 5.12,221.70497   L 3.84,220.10537   L 2.88,218.50577   L 2.56,218.18585   L 2.24,217.86593   L 1.92,217.546   L 1.6,217.546   L 1.28,217.22608   L 1.28,216.90616   L 0.96,216.90616   L 0.64,216.58624   L 0.64,218.18585   L 1.28,220.10537   L 2.24,222.02489   L 3.2,223.94442   L 4.16,226.18386   L 5.12,228.42331   L 5.44,230.98267   L 5.12,233.22211   L 5.12,233.22211   L 5.12,233.22211   L 5.12,233.22211   L 5.12,233.22211   L 5.12,233.22211   L 5.44,233.22211   L 5.44,233.22211   L 5.44,233.22211  z "
     style="fill:#cfb070;fill-rule:evenodd;fill-opacity:1;stroke:none;" />
  <path
     id="path29"
     d="  M 67.52,206.98863   L 68.8,201.23005   L 70.08,195.47148   L 71.04,189.71291   L 71.68,183.95434   L 72,178.19577   L 71.68,172.4372   L 71.04,166.67863   L 70.08,160.92006   L 69.76,160.60014   L 69.44,160.60014   L 68.8,160.28022   L 68.48,160.28022   L 67.84,160.60014   L 67.52,160.60014   L 66.88,160.60014   L 66.24,160.92006   L 65.92,165.71887   L 65.92,170.8376   L 65.92,175.95633   L 66.24,181.07506   L 66.24,186.19379   L 66.24,191.31252   L 66.24,196.43125   L 65.92,201.54998   L 66.24,202.50974   L 66.24,203.14958   L 66.24,203.78942   L 66.24,204.74918   L 66.24,205.38902   L 66.56,206.02886   L 66.88,206.6687   L 67.2,206.98863   L 67.2,206.98863   L 67.2,206.98863   L 67.2,206.98863   L 67.52,206.98863   L 67.52,206.98863   L 67.52,206.98863   L 67.52,206.98863   L 67.52,206.98863  z "
     style="fill:#cfb070;fill-rule:evenodd;fill-opacity:1;stroke:none;" />
  <path
     id="path31"
     d="  M 8.32,151.32244   L 10.88,149.40292   L 13.44,147.48339   L 16.32,146.20371   L 19.2,144.92403   L 22.4,143.64435   L 25.92,142.68459   L 29.12,141.72482   L 32.64,140.76506   L 36.48,101.09491   L 30.08,138.2057   L 27.52,139.8053   L 24.32,141.08498   L 21.44,142.36467   L 18.24,143.64435   L 15.04,144.92403   L 12.16,146.52363   L 10.88,147.48339   L 9.92,148.44316   L 8.96,149.72284   L 8,151.00252   L 8,151.00252   L 8,151.00252   L 8,151.00252   L 8.32,151.32244   L 8.32,151.32244   L 8.32,151.32244   L 8.32,151.32244   L 8.32,151.32244  z "
     style="fill:#cfb070;fill-rule:evenodd;fill-opacity:1;stroke:none;" />
  <path
     id="path33"
     d="  M 72.64,144.28419   L 76.16,143.96427   L 74.56,111.65229   L 69.12,108.773   L 66.88,58.86539   L 66.24,58.545469   L 65.6,58.225548   L 64.96,57.905628   L 64.32,57.905628   L 63.68,57.585707   L 63.04,57.265787   L 62.08,57.265787   L 61.44,57.585707   L 61.44,110.37261   L 63.36,112.61205   L 68.16,115.17141   L 68.48,118.69054   L 68.8,122.52959   L 68.8,126.36864   L 68.8,130.20768   L 69.12,134.04673   L 69.76,137.56586   L 70.72,141.08498   L 72.32,144.28419   L 72.32,144.28419   L 72.32,144.28419   L 72.32,144.28419   L 72.32,144.28419   L 72.32,144.28419   L 72.64,144.28419   L 72.64,144.28419   L 72.64,144.28419  z "
     style="fill:#cfb070;fill-rule:evenodd;fill-opacity:1;stroke:none;" />
  <path
     id="path35"
     d="  M 73.28,88.618005   L 73.28,85.098878   L 73.6,81.899672   L 73.92,78.380546   L 74.24,74.861419   L 74.56,71.342293   L 74.56,67.823166   L 73.92,64.30404   L 72.96,60.784913   L 73.28,88.618005  z "
     style="fill:#cfb070;fill-rule:evenodd;fill-opacity:1;stroke:none;" />
  <path
     id="path37"
     d="  M 40,41.909598   L 40.32,41.909598   L 40.96,41.909598   L 41.6,41.909598   L 42.24,41.909598   L 42.88,41.909598   L 43.52,41.589677   L 44.16,41.589677   L 44.8,41.269757   L 44.8,40.949836   L 44.8,40.629916   L 44.8,40.309995   L 44.8,39.990074   L 44.8,39.670154   L 44.8,39.670154   L 44.48,39.350233   L 44.48,39.030313   L 44.48,39.030313   L 44.48,38.710392   L 44.48,38.390471   L 44.48,38.070551   L 44.48,38.070551   L 44.48,37.75063   L 44.8,37.43071   L 44.8,37.110789   L 44.8,36.470948   L 44.48,35.831107   L 44.16,35.191266   L 43.84,34.871345   L 43.52,34.551424   L 43.2,33.911583   L 42.56,33.911583   L 41.92,33.591663   L 37.12,34.231504   L 36.8,34.551424   L 36.48,34.871345   L 36.16,35.511186   L 35.84,36.151027   L 35.84,36.470948   L 35.52,37.110789   L 35.52,37.75063   L 35.52,38.390471   L 35.84,39.030313   L 36.16,39.670154   L 36.48,40.309995   L 37.12,40.629916   L 37.76,40.949836   L 38.4,41.269757   L 39.04,41.589677   L 40,41.909598  z "
     style="fill:#cfb070;fill-rule:evenodd;fill-opacity:1;stroke:none;" />
  <path
     id="path39"
     d="  M 74.56,41.909598   L 75.52,41.909598   L 76.16,41.909598   L 77.12,41.909598   L 78.08,41.589677   L 78.72,41.589677   L 79.68,41.269757   L 80.32,40.949836   L 80.96,40.309995   L 81.28,40.309995   L 81.28,39.670154   L 81.6,39.350233   L 81.6,39.030313   L 81.92,38.390471   L 81.92,38.070551   L 81.92,37.43071   L 81.6,37.110789   L 81.28,36.790868   L 81.28,36.470948   L 80.96,36.470948   L 80.64,36.151027   L 80.64,36.151027   L 80.32,35.831107   L 80,35.831107   L 79.68,35.511186   L 76.8,35.511186   L 76.48,35.511186   L 76.48,35.191266   L 76.48,35.191266   L 76.16,34.871345   L 75.84,34.551424   L 75.84,34.551424   L 75.52,34.231504   L 75.2,33.911583   L 74.56,33.911583   L 74.24,33.911583   L 73.6,33.911583   L 72.96,34.231504   L 72.64,34.551424   L 72,34.871345   L 71.68,35.191266   L 71.04,35.511186   L 71.04,35.831107   L 70.72,36.151027   L 70.72,36.470948   L 70.72,36.470948   L 70.72,36.790868   L 70.72,36.790868   L 70.72,36.790868   L 70.72,37.110789   L 70.72,37.110789   L 70.72,37.43071   L 70.72,37.75063   L 70.72,38.070551   L 70.72,38.070551   L 70.72,38.390471   L 71.04,38.710392   L 71.04,39.030313   L 74.24,41.909598   L 74.24,41.909598   L 74.24,41.909598   L 74.24,41.909598   L 74.24,41.909598   L 74.56,41.909598   L 74.56,41.909598   L 74.56,41.909598   L 74.56,41.909598  z "
     style="fill:#cfb070;fill-rule:evenodd;fill-opacity:1;stroke:none;" />
  <path
     id="path41"
     d="  M 59.84,31.99206   L 60.8,28.472933   L 60.48,29.112774   L 60.48,29.432695   L 60.16,29.752615   L 59.84,30.072536   L 59.52,30.712377   L 59.52,31.032298   L 59.2,31.672139   L 59.2,31.99206   L 59.2,32.31198   L 59.2,32.31198   L 59.2,32.31198   L 59.52,32.31198   L 59.52,32.631901   L 59.52,32.31198   L 59.52,32.31198   L 59.84,31.99206  z "
     style="fill:#cfb070;fill-rule:evenodd;fill-opacity:1;stroke:none;" />
  <path
     id="path43"
     d="  M 40,30.072536   L 44.8,29.752615   L 45.12,29.432695   L 45.12,29.112774   L 45.44,29.112774   L 45.44,28.792854   L 45.44,28.472933   L 45.44,27.833092   L 45.44,27.513171   L 45.44,27.193251   L 43.52,25.273727   L 43.52,24.953806   L 43.52,24.633886   L 43.52,24.313965   L 43.84,24.313965   L 43.84,23.994045   L 43.84,23.674124   L 43.84,23.354203   L 44.16,23.034283   L 43.84,22.714362   L 43.84,22.394442   L 43.52,22.074521   L 43.2,21.7546   L 42.88,21.43468   L 42.56,21.114759   L 42.24,21.114759   L 41.92,20.794839   L 37.12,22.394442   L 36.8,22.714362   L 36.48,23.354203   L 36.16,23.674124   L 35.84,23.994045   L 35.52,24.633886   L 35.2,25.273727   L 34.88,25.913568   L 34.88,26.553409   L 35.52,27.193251   L 35.84,27.513171   L 36.48,28.153012   L 36.8,28.472933   L 37.44,28.792854   L 38.4,29.432695   L 39.04,29.752615   L 40,30.072536  z "
     style="fill:#cfb070;fill-rule:evenodd;fill-opacity:1;stroke:none;" />
  <path
     id="path45"
     d="  M 52.16,13.116744   L 57.92,2.8792854   L 58.24,2.5593648   L 58.56,2.5593648   L 59.2,2.5593648   L 59.52,2.2394442   L 60.16,2.2394442   L 60.48,2.2394442   L 61.12,2.2394442   L 61.44,2.2394442   L 61.76,1.9195236   L 61.76,1.599603   L 61.44,1.2796824   L 61.12,0.95976179   L 60.8,0.63984119   L 60.16,0.3199206   L 59.84,0.3199206   L 59.2,0   L 58.56,0   L 57.6,0.63984119   L 56.96,0.95976179   L 56.32,1.599603   L 56,2.5593648   L 55.68,3.199206   L 55.04,4.1589677   L 54.72,5.1187295   L 54.4,6.0784913   L 54.08,7.0382531   L 53.76,7.6780943   L 53.44,8.6378561   L 52.8,9.5976179   L 52.48,10.237459   L 52.16,11.197221   L 51.84,11.837062   L 51.84,11.837062   L 51.84,12.156983   L 51.84,12.476903   L 51.84,12.796824   L 51.84,13.116744   L 51.84,13.116744   L 51.84,13.116744   L 52.16,13.116744  z "
     style="fill:#cfb070;fill-rule:evenodd;fill-opacity:1;stroke:none;" />
  <path
     id="path47"
     d="  M 84.16,386.46408   L 85.76,386.46408   L 87.04,386.14416   L 88.96,386.14416   L 90.56,385.82424   L 92.16,385.50432   L 93.44,385.1844   L 95.04,384.86448   L 96.64,384.86448   L 98.24,384.22464   L 100.16,383.58479   L 101.76,382.62503   L 103.36,381.98519   L 104.96,381.34535   L 106.24,380.70551   L 107.84,380.06567   L 109.12,379.42583   L 109.44,379.10591   L 109.44,379.10591   L 109.44,378.78599   L 109.76,378.78599   L 109.76,378.46606   L 110.08,378.46606   L 110.08,378.14614   L 110.08,377.82622   L 104,361.83019   L 111.36,356.39154   L 111.36,356.07162   L 111.68,355.7517   L 112,355.43178   L 112,355.11186   L 112.32,354.79194   L 112.32,354.47202   L 112.64,354.1521   L 112.64,353.51226   L 101.76,361.51027   L 104,375.9067   L 101.76,377.5063   L 99.52,378.78599   L 96.96,380.38559   L 94.4,381.66527   L 91.84,382.62503   L 89.28,383.90471   L 86.4,384.86448   L 83.52,385.82424   L 83.52,385.82424   L 83.84,386.14416   L 83.84,386.14416   L 83.84,386.14416   L 83.84,386.14416   L 83.84,386.14416   L 84.16,386.46408   L 84.16,386.46408  z "
     style="fill:#000000;fill-rule:evenodd;fill-opacity:1;stroke:none;" />
  <path
     id="path49"
     d="  M 65.28,375.26686   L 69.12,375.26686   L 72.96,375.26686   L 76.8,374.94694   L 80.64,374.62702   L 84.48,374.3071   L 88.32,373.66726   L 92.16,372.38757   L 96,371.10789   L 96,371.10789   L 96.32,371.10789   L 96.32,371.10789   L 96.32,371.10789   L 96.32,371.10789   L 96.64,370.78797   L 96.64,370.46805   L 96.64,370.46805   L 94.4,360.55051   L 95.68,358.95091   L 96.96,357.67123   L 98.24,356.39154   L 99.52,355.11186   L 100.8,354.1521   L 102.08,352.87242   L 103.68,351.59273   L 104.96,350.31305   L 109.12,346.79393   L 112.64,342.95488   L 115.84,338.79591   L 118.72,334.31702   L 120.96,329.51821   L 122.88,324.39948   L 124.16,318.96083   L 125.44,313.20226   L 125.44,311.60266   L 125.44,310.32298   L 125.44,309.0433   L 125.76,307.76361   L 125.76,306.48393   L 125.76,305.20425   L 125.44,303.92457   L 125.44,302.64488   L 125.44,300.40544   L 125.12,298.48592   L 125.12,296.24647   L 125.12,294.32695   L 124.8,292.40742   L 124.48,290.16798   L 124.16,288.24846   L 123.52,286.32893   L 122.88,285.68909   L 122.24,285.36917   L 121.28,285.04925   L 120.32,284.72933   L 119.68,284.40941   L 118.72,284.40941   L 117.76,284.72933   L 117.12,285.04925   L 115.84,286.32893   L 114.56,287.28869   L 112.96,287.92854   L 111.36,287.92854   L 109.76,287.92854   L 108.16,287.92854   L 106.56,287.92854   L 105.28,287.60862   L 104.64,287.60862   L 104.32,287.28869   L 103.68,286.96877   L 103.36,286.96877   L 103.04,286.64885   L 103.04,286.64885   L 102.72,286.32893   L 102.08,286.00901   L 101.76,285.36917   L 101.44,284.72933   L 100.8,284.40941   L 100.16,283.76957   L 99.52,283.12973   L 98.88,282.80981   L 98.24,282.48989   L 97.28,282.16997   L 95.04,283.12973   L 94.72,283.76957   L 95.04,284.72933   L 95.04,285.36917   L 95.36,286.00901   L 96,286.32893   L 96.32,286.96877   L 96.96,287.60862   L 97.28,288.24846   L 99.52,289.52814   L 101.76,290.80782   L 104,291.76758   L 106.56,292.72734   L 109.12,293.36719   L 111.68,293.68711   L 114.24,293.68711   L 117.12,293.04727   L 117.76,299.12576   L 117.76,305.20425   L 117.44,311.28274   L 116.48,317.68115   L 115.84,320.56044   L 114.88,323.43972   L 113.92,326.31901   L 112.64,329.19829   L 111.36,331.75766   L 109.76,334.31702   L 108.16,336.87639   L 106.24,339.11583   L 104,341.6752   L 101.44,344.23456   L 98.88,346.474   L 96.32,348.71345   L 93.44,351.27281   L 90.88,353.51226   L 88.32,356.39154   L 86.4,359.27083   L 87.04,367.58876   L 84.16,368.22861   L 81.28,368.86845   L 78.4,369.18837   L 75.52,369.18837   L 69.44,369.18837   L 63.36,368.54853   L 57.28,367.26884   L 51.84,365.66924   L 48.96,364.38956   L 46.4,363.4298   L 43.84,361.83019   L 41.6,360.55051   L 38.08,357.67123   L 34.88,354.79194   L 31.68,351.91266   L 28.48,348.71345   L 25.92,345.51424   L 23.36,341.99512   L 20.8,338.15607   L 18.88,334.63694   L 16.96,330.7979   L 15.36,326.63893   L 14.08,322.47996   L 12.8,318.32099   L 12.16,313.8421   L 11.52,309.36322   L 11.52,304.88433   L 11.84,300.40544   L 11.84,299.44568   L 12.16,298.48592   L 12.16,297.84607   L 12.16,297.20623   L 12.16,296.56639   L 12.16,295.92655   L 12.16,295.28671   L 12.48,294.32695   L 13.44,294.00703   L 14.72,293.68711   L 16,293.68711   L 17.28,293.68711   L 20.16,294.32695   L 23.04,294.96679   L 25.92,295.60663   L 28.8,295.60663   L 30.08,295.28671   L 31.36,294.96679   L 32.32,294.00703   L 33.6,293.04727   L 34.24,291.76758   L 35.2,290.4879   L 35.52,288.8883   L 36.16,287.60862   L 36.48,284.72933   L 36.48,281.53012   L 36.16,278.65084   L 35.52,275.45163   L 34.88,272.57235   L 33.92,270.01298   L 33.28,269.05322   L 32.64,268.09346   L 31.68,267.1337   L 30.72,266.49386   L 30.08,265.85401   L 29.12,265.53409   L 28.16,265.21417   L 27.2,264.89425   L 28.8,267.45362   L 29.76,270.01298   L 30.08,272.89227   L 30.4,275.77155   L 30.08,278.65084   L 29.76,281.53012   L 29.44,284.40941   L 29.12,287.28869   L 28.8,287.92854   L 28.16,288.56838   L 27.84,289.20822   L 27.52,289.52814   L 26.88,289.84806   L 26.56,290.4879   L 25.92,290.80782   L 25.6,290.80782   L 13.76,286.64885   L 13.76,286.32893   L 13.44,286.32893   L 13.44,286.00901   L 13.44,286.00901   L 13.12,285.68909   L 12.8,285.68909   L 12.8,285.36917   L 12.48,285.04925   L 11.84,285.04925   L 11.2,285.36917   L 10.88,285.36917   L 10.24,285.68909   L 9.6,285.68909   L 9.28,286.00901   L 8.64,286.32893   L 8.32,286.64885   L 7.04,289.52814   L 6.08,292.72734   L 5.44,295.92655   L 4.8,298.80584   L 4.48,302.32496   L 4.48,305.52417   L 4.48,308.72337   L 4.8,311.92258   L 5.76,318.64091   L 7.36,325.03933   L 9.6,331.43774   L 11.84,337.51623   L 15.68,343.59472   L 19.84,349.35329   L 24.32,354.79194   L 29.44,359.59075   L 32.32,361.83019   L 34.88,364.06964   L 38.08,365.98916   L 40.96,367.90868   L 44.16,369.50829   L 47.36,370.78797   L 50.88,372.06765   L 54.4,373.02741   L 55.68,373.34733   L 57.28,373.66726   L 58.56,373.66726   L 59.84,373.98718   L 61.44,374.3071   L 62.72,374.62702   L 64,374.94694   L 65.28,375.26686  z "
     style="fill:#000000;fill-rule:evenodd;fill-opacity:1;stroke:none;" />
  <path
     id="path51"
     d="  M 60.48,360.55051   L 60.8,360.55051   L 61.12,360.55051   L 61.12,360.55051   L 61.44,360.55051   L 61.76,360.23059   L 62.08,360.23059   L 62.08,360.23059   L 62.72,360.23059   L 63.36,356.39154   L 63.36,352.5525   L 63.36,348.39353   L 62.72,344.55448   L 62.08,340.71543   L 61.76,336.55647   L 61.12,332.3975   L 61.12,328.55845   L 73.6,329.19829   L 73.6,342.31504   L 77.12,345.51424   L 77.44,345.51424   L 77.44,345.51424   L 77.76,345.51424   L 77.76,345.51424   L 78.08,345.51424   L 78.4,345.51424   L 78.4,345.51424   L 78.72,345.51424   L 80.96,343.91464   L 84.16,325.67917   L 84.16,325.35925   L 84.16,325.35925   L 84.16,325.03933   L 83.84,324.7194   L 83.84,324.39948   L 83.84,324.07956   L 83.84,323.75964   L 83.52,323.75964   L 80,323.43972   L 76.16,322.79988   L 72,322.16004   L 68.16,321.84012   L 64.32,321.20028   L 60.48,321.20028   L 56.64,321.5202   L 53.12,322.16004   L 56.32,357.67123   L 56.64,358.31107   L 56.96,358.63099   L 57.6,358.95091   L 57.92,359.27083   L 58.56,359.59075   L 59.2,359.91067   L 59.84,360.23059   L 60.48,360.55051  z "
     style="fill:#000000;fill-rule:evenodd;fill-opacity:1;stroke:none;" />
  <path
     id="path53"
     d="  M 27.52,342.63496   L 25.92,337.19631   L 24,332.07758   L 22.08,326.31901   L 20.48,320.88036   L 19.52,315.12179   L 18.56,309.36322   L 18.56,306.48393   L 18.56,303.60465   L 18.56,300.72536   L 19.2,297.84607   L 18.88,297.84607   L 18.88,297.52615   L 18.88,297.52615   L 18.88,297.52615   L 18.56,297.52615   L 18.24,297.52615   L 18.24,297.20623   L 17.92,297.20623   L 16.96,298.166   L 16,299.44568   L 15.36,300.40544   L 14.72,301.68512   L 14.08,304.24449   L 13.76,307.12377   L 13.76,310.32298   L 14.08,313.20226   L 14.4,316.08155   L 14.72,318.64091   L 15.68,322.16004   L 17.28,325.67917   L 18.56,328.87837   L 20.16,332.07758   L 22.08,334.95686   L 23.68,337.51623   L 25.6,340.39551   L 27.52,342.95488   L 27.52,342.95488   L 27.52,342.95488   L 27.52,342.95488   L 27.52,342.63496   L 27.52,342.63496   L 27.52,342.63496   L 27.52,342.63496   L 27.52,342.63496  z "
     style="fill:#000000;fill-rule:evenodd;fill-opacity:1;stroke:none;" />
  <path
     id="path55"
     d="  M 33.28,323.75964   L 40.96,323.1198   L 42.56,322.16004   L 44.16,320.88036   L 45.44,319.60067   L 46.72,318.00107   L 48.64,314.48195   L 50.24,310.6429   L 51.2,306.80385   L 51.84,302.64488   L 52.16,298.48592   L 52.16,294.32695   L 51.84,292.40742   L 51.2,290.80782   L 50.88,288.8883   L 50.56,287.28869   L 50.24,285.36917   L 49.92,283.76957   L 49.28,282.48989   L 48.64,280.89028   L 48,280.57036   L 47.36,280.25044   L 46.4,279.93052   L 45.76,279.93052   L 44.8,279.6106   L 43.84,279.93052   L 43.2,279.93052   L 42.56,280.57036   L 42.88,285.04925   L 43.52,289.84806   L 44.16,294.96679   L 44.16,299.7656   L 43.84,302.32496   L 43.52,304.56441   L 43.2,307.12377   L 42.24,309.36322   L 41.28,311.60266   L 40.32,313.52218   L 38.72,315.44171   L 36.8,317.36123   L 36.48,317.68115   L 36.16,317.68115   L 36.16,317.68115   L 35.84,318.00107   L 35.52,318.00107   L 35.52,318.00107   L 35.52,318.00107   L 35.2,318.00107   L 34.88,318.00107   L 34.24,318.00107   L 33.6,317.68115   L 33.28,317.36123   L 32.96,316.72139   L 32.32,316.40147   L 32,316.08155   L 31.36,316.08155   L 26.88,316.08155   L 26.88,317.04131   L 27.2,318.00107   L 27.84,319.28075   L 28.8,320.56044   L 29.76,321.5202   L 31.04,322.47996   L 32,323.1198   L 33.28,323.75964  z "
     style="fill:#000000;fill-rule:evenodd;fill-opacity:1;stroke:none;" />
  <path
     id="path57"
     d="  M 93.12,316.08155   L 103.36,313.20226   L 104.32,309.68314   L 104.32,309.0433   L 104.32,308.72337   L 104,308.08353   L 103.68,307.44369   L 103.36,307.12377   L 102.72,306.80385   L 102.08,306.48393   L 101.44,306.16401   L 97.28,307.76361   L 97.28,307.76361   L 96.96,308.08353   L 96.96,308.08353   L 96.64,308.40345   L 96.64,308.72337   L 96.32,309.0433   L 96.32,309.36322   L 96,309.36322   L 95.04,309.68314   L 94.08,309.68314   L 92.8,309.36322   L 91.84,309.0433   L 90.88,308.72337   L 89.92,307.76361   L 89.28,307.12377   L 88.32,306.16401   L 87.36,304.56441   L 86.72,302.9648   L 86.08,301.04528   L 85.76,299.44568   L 85.12,295.92655   L 85.12,292.40742   L 85.76,288.8883   L 86.72,285.36917   L 87.68,282.16997   L 89.28,278.97076   L 89.6,278.33092   L 90.24,277.37116   L 90.88,276.73132   L 91.2,276.09147   L 91.52,275.45163   L 91.84,274.81179   L 92.16,274.17195   L 92.16,273.53211   L 91.84,273.21219   L 91.84,273.21219   L 91.84,273.21219   L 91.84,273.21219   L 91.52,272.89227   L 91.52,272.89227   L 91.2,272.57235   L 91.2,272.57235   L 86.4,271.61259   L 83.84,274.17195   L 81.92,277.37116   L 80,280.89028   L 78.72,284.40941   L 77.76,288.56838   L 77.44,292.72734   L 77.44,296.56639   L 78.08,300.72536   L 79.04,302.9648   L 80,305.20425   L 81.28,307.44369   L 82.56,309.36322   L 84.16,310.96282   L 85.76,312.56242   L 87.68,314.16202   L 89.92,315.12179   L 90.24,315.12179   L 90.88,315.12179   L 91.2,315.44171   L 91.84,315.44171   L 92.16,315.76163   L 92.48,315.76163   L 92.8,315.76163   L 93.12,316.08155  z "
     style="fill:#000000;fill-rule:evenodd;fill-opacity:1;stroke:none;" />
  <path
     id="path59"
     d="  M 61.76,304.24449   L 62.72,296.24647   L 63.36,288.56838   L 63.68,280.89028   L 63.36,273.21219   L 63.36,265.53409   L 62.72,257.53608   L 62.4,249.85799   L 62.08,242.17989   L 61.76,233.86196   L 62.08,225.54402   L 62.4,217.22608   L 62.72,209.22807   L 63.04,200.91013   L 63.36,192.5922   L 63.04,184.59418   L 62.08,176.59617   L 61.76,176.59617   L 61.44,176.27625   L 61.44,176.27625   L 61.12,176.27625   L 61.12,175.95633   L 60.8,175.95633   L 60.8,175.63641   L 60.48,175.63641   L 59.84,175.63641   L 59.2,175.63641   L 58.56,175.95633   L 57.92,176.27625   L 57.6,176.59617   L 56.96,176.91609   L 56.64,177.55593   L 56,177.87585   L 56.32,182.67466   L 56.64,187.79339   L 56.96,192.5922   L 57.28,197.71093   L 57.28,202.82966   L 57.28,207.62847   L 56.96,212.7472   L 56.64,217.546   L 56.64,228.74323   L 56.96,239.62053   L 57.6,250.81775   L 57.92,261.69505   L 58.88,272.57235   L 59.52,283.12973   L 60.16,294.00703   L 60.8,304.56441   L 60.8,304.56441   L 61.12,304.56441   L 61.12,304.56441   L 61.12,304.24449   L 61.44,304.24449   L 61.44,304.24449   L 61.76,304.24449   L 61.76,304.24449  z "
     style="fill:#000000;fill-rule:evenodd;fill-opacity:1;stroke:none;" />
  <path
     id="path61"
     d="  M 22.08,286.64885   L 24.96,286.00901   L 24.96,285.68909   L 24.96,285.68909   L 25.28,285.36917   L 25.28,285.36917   L 25.6,285.04925   L 25.6,284.72933   L 25.6,284.40941   L 25.28,284.08949   L 22.08,284.72933   L 18.56,283.44965   L 18.24,283.76957   L 18.24,284.08949   L 18.24,284.40941   L 18.56,284.72933   L 18.88,285.04925   L 19.2,285.36917   L 19.84,285.68909   L 20.16,285.68909   L 20.48,286.00901   L 20.48,286.00901   L 20.8,286.32893   L 21.12,286.32893   L 21.44,286.32893   L 21.44,286.64885   L 21.76,286.64885   L 22.08,286.64885  z "
     style="fill:#000000;fill-rule:evenodd;fill-opacity:1;stroke:none;" />
  <path
     id="path63"
     d="  M 67.84,262.01497   L 69.44,256.57632   L 70.4,251.13767   L 71.36,245.69902   L 71.68,240.26037   L 72,234.82172   L 72,229.38307   L 72,223.94442   L 71.68,218.50577   L 72,212.7472   L 72.32,207.30855   L 72.32,201.8699   L 72.64,196.11133   L 72.32,190.67267   L 71.68,185.55395   L 71.04,182.99458   L 70.4,180.43522   L 69.76,178.19577   L 68.8,175.95633   L 66.24,177.55593   L 65.92,177.55593   L 65.6,177.87585   L 65.6,177.87585   L 65.28,178.19577   L 65.28,178.51569   L 64.96,178.51569   L 64.96,178.83561   L 64.96,179.47545   L 65.28,182.35474   L 65.6,185.55395   L 65.92,188.75315   L 66.24,192.27228   L 66.24,195.47148   L 66.56,198.67069   L 66.56,201.8699   L 66.56,205.0691   L 66.56,207.94839   L 66.56,210.50775   L 66.56,213.06712   L 66.88,215.30656   L 66.88,217.86593   L 66.56,220.42529   L 66.56,222.98466   L 66.24,225.2241   L 66.24,228.74323   L 66.24,232.26235   L 66.56,235.78148   L 66.88,238.98068   L 67.2,242.49981   L 67.52,245.69902   L 67.52,249.21814   L 67.52,252.41735   L 67.2,253.69703   L 67.2,254.97671   L 67.2,256.2564   L 67.2,257.53608   L 67.2,258.81576   L 67.2,260.09544   L 67.2,261.05521   L 67.52,262.01497   L 67.52,262.01497   L 67.52,262.01497   L 67.84,262.01497   L 67.84,262.01497   L 67.84,262.01497   L 67.84,262.01497   L 67.84,262.01497   L 67.84,262.01497  z "
     style="fill:#000000;fill-rule:evenodd;fill-opacity:1;stroke:none;" />
  <path
     id="path65"
     d="  M 110.08,259.13568   L 110.08,259.13568   L 110.08,258.81576   L 110.4,258.81576   L 110.4,258.81576   L 110.72,258.49584   L 110.72,258.49584   L 111.04,258.17592   L 111.04,258.17592   L 111.68,254.65679   L 110.08,252.41735   L 108.48,250.17791   L 107.52,247.93846   L 106.56,245.69902   L 105.92,243.45957   L 105.6,241.22013   L 105.6,238.66076   L 105.6,236.42132   L 105.92,231.62251   L 107.2,226.50378   L 108.48,221.38505   L 110.4,216.26632   L 112,211.14759   L 113.6,206.02886   L 114.88,200.91013   L 115.84,195.7914   L 116.16,193.23204   L 116.48,190.67267   L 116.16,188.11331   L 116.16,185.87387   L 115.52,183.3145   L 114.88,180.75514   L 113.92,178.19577   L 112.64,175.95633   L 110.08,172.4372   L 107.52,169.55792   L 104.64,166.67863   L 101.44,164.43919   L 98.24,162.51966   L 94.72,160.92006   L 90.88,159.64038   L 87.04,158.68062   L 86.4,158.68062   L 86.08,159.00054   L 85.44,159.00054   L 85.12,159.00054   L 84.8,159.00054   L 84.48,159.00054   L 84.16,159.00054   L 83.52,159.32046   L 83.84,160.28022   L 84.16,160.92006   L 84.48,161.87982   L 85.44,162.51966   L 86.08,163.1595   L 86.72,163.47942   L 87.68,164.11927   L 88.32,164.43919   L 91.2,165.07903   L 94.08,166.35871   L 96.64,167.95831   L 98.88,169.55792   L 100.8,171.79736   L 102.72,174.0368   L 104.32,176.27625   L 105.6,178.51569   L 106.56,181.07506   L 107.2,183.63442   L 107.52,186.19379   L 107.84,188.75315   L 107.52,191.31252   L 107.52,193.87188   L 107.2,196.43125   L 106.88,198.67069   L 105.28,205.0691   L 103.36,211.78743   L 101.12,218.18585   L 98.88,224.58426   L 97.92,227.78346   L 97.28,230.66275   L 96.96,233.86196   L 96.64,237.06116   L 96.96,240.26037   L 97.28,243.45957   L 98.24,246.65878   L 99.52,249.85799   L 100.8,251.13767   L 101.76,252.73727   L 103.04,254.01695   L 104,255.29664   L 105.28,256.2564   L 106.24,257.53608   L 107.52,258.49584   L 109.12,259.13568   L 109.12,259.13568   L 109.12,259.13568   L 109.44,259.13568   L 109.44,259.13568   L 109.76,259.13568   L 109.76,259.13568   L 109.76,259.13568   L 110.08,259.13568  z "
     style="fill:#000000;fill-rule:evenodd;fill-opacity:1;stroke:none;" />
  <path
     id="path67"
     d="  M 13.76,258.81576   L 15.68,258.49584   L 17.28,257.856   L 19.2,257.21616   L 20.8,256.2564   L 22.4,255.29664   L 24,254.01695   L 25.28,252.73727   L 26.24,251.13767   L 27.2,249.53806   L 27.84,247.61854   L 28.48,245.3791   L 29.12,243.45957   L 29.44,239.30061   L 29.44,235.14164   L 28.8,230.66275   L 27.84,226.50378   L 26.56,222.66473   L 24.96,219.14561   L 23.68,216.90616   L 22.4,214.66672   L 21.44,212.7472   L 20.48,210.50775   L 19.52,208.26831   L 18.56,206.02886   L 17.6,203.78942   L 16.64,201.54998   L 16,197.39101   L 16,193.23204   L 16.64,189.07307   L 17.92,185.23402   L 19.52,181.7149   L 21.76,178.19577   L 24,175.31649   L 26.88,172.4372   L 29.44,170.51768   L 32,168.91807   L 34.56,167.31847   L 37.44,166.03879   L 40.32,164.75911   L 43.2,164.11927   L 46.4,163.47942   L 49.28,163.47942   L 49.6,163.1595   L 49.92,162.83958   L 49.92,162.51966   L 49.92,162.19974   L 49.92,161.87982   L 49.92,161.23998   L 49.92,160.92006   L 50.24,160.28022   L 49.6,159.9603   L 49.28,159.64038   L 48.96,159.32046   L 48.64,159.00054   L 48,158.68062   L 47.68,158.36069   L 47.04,158.04077   L 46.72,157.72085   L 44.16,157.72085   L 41.92,157.72085   L 39.36,157.72085   L 37.12,158.04077   L 32.96,159.32046   L 28.8,160.92006   L 24.96,163.1595   L 21.12,166.03879   L 17.92,168.91807   L 14.72,172.4372   L 12.8,175.31649   L 10.88,178.51569   L 9.6,182.03482   L 8.32,185.55395   L 7.36,189.07307   L 7.04,192.91212   L 7.36,196.43125   L 8,199.95037   L 9.92,205.70894   L 12.48,211.14759   L 15.04,216.58624   L 17.6,222.02489   L 18.88,224.90418   L 19.84,227.78346   L 20.8,230.34283   L 21.12,233.22211   L 21.44,236.1014   L 21.12,239.30061   L 20.8,242.17989   L 19.84,245.3791   L 18.88,247.29862   L 17.6,248.5783   L 16,249.85799   L 14.72,251.13767   L 13.12,252.09743   L 11.84,253.05719   L 10.56,254.33687   L 9.6,255.29664   L 9.92,255.93648   L 10.24,256.2564   L 10.88,256.89624   L 11.2,257.21616   L 11.84,257.856   L 12.48,258.17592   L 13.12,258.49584   L 13.76,258.81576  z "
     style="fill:#000000;fill-rule:evenodd;fill-opacity:1;stroke:none;" />
  <path
     id="path69"
     d="  M 32.96,242.49981   L 34.56,239.62053   L 35.2,236.74124   L 35.84,233.86196   L 35.84,230.66275   L 35.2,227.46354   L 34.88,224.26434   L 34.24,221.38505   L 33.28,218.18585   L 32,215.9464   L 31.04,213.70696   L 30.4,211.46751   L 29.76,209.22807   L 29.12,206.98863   L 28.48,204.42926   L 27.84,201.8699   L 26.88,199.63045   L 26.56,196.11133   L 26.88,192.91212   L 27.52,189.71291   L 28.48,186.51371   L 29.76,183.95434   L 31.68,181.07506   L 33.6,178.83561   L 36.16,176.59617   L 37.12,175.95633   L 38.08,175.31649   L 39.04,174.67665   L 40,174.0368   L 40.96,173.39696   L 41.6,172.75712   L 42.56,172.11728   L 43.2,170.8376   L 43.2,170.8376   L 43.2,170.8376   L 42.88,170.51768   L 42.88,170.51768   L 42.88,170.19776   L 42.88,170.19776   L 42.88,169.87784   L 42.88,169.87784   L 40.64,169.87784   L 38.72,170.51768   L 36.8,171.15752   L 35.2,172.11728   L 33.6,173.39696   L 31.68,174.67665   L 30.4,175.95633   L 28.8,177.23601   L 26.56,179.79537   L 24.64,182.67466   L 22.72,185.87387   L 21.44,189.39299   L 20.48,192.91212   L 19.84,196.43125   L 19.84,198.35077   L 20.16,200.27029   L 20.48,201.8699   L 20.8,203.78942   L 22.72,208.90815   L 24.96,213.38704   L 27.2,218.18585   L 29.76,222.66473   L 30.72,224.90418   L 31.68,227.14362   L 32.32,229.70299   L 32.96,231.94243   L 33.28,234.5018   L 33.6,237.06116   L 33.28,239.94045   L 32.96,242.81973   L 32.96,242.81973   L 32.96,242.81973   L 32.96,242.81973   L 32.96,242.49981   L 32.96,242.49981   L 32.96,242.49981   L 32.96,242.49981   L 32.96,242.49981  z "
     style="fill:#000000;fill-rule:evenodd;fill-opacity:1;stroke:none;" />
  <path
     id="path71"
     d="  M 15.04,236.74124   L 15.04,236.74124   L 15.04,236.74124   L 15.04,236.74124   L 15.04,236.74124   L 15.36,236.74124   L 15.36,236.42132   L 15.36,236.42132   L 15.36,236.42132   L 16,234.5018   L 16.32,232.58227   L 16.32,230.66275   L 16,228.74323   L 15.36,226.8237   L 14.4,225.2241   L 13.44,223.6245   L 12.48,222.02489   L 12.16,221.70497   L 11.52,221.38505   L 11.52,221.38505   L 11.2,221.06513   L 10.88,220.74521   L 10.56,220.42529   L 10.24,220.42529   L 10.24,220.10537   L 10.24,221.70497   L 10.88,223.6245   L 11.84,225.54402   L 12.8,227.46354   L 13.76,229.70299   L 14.4,231.94243   L 14.72,234.5018   L 14.4,236.74124   L 14.4,236.74124   L 14.4,236.74124   L 14.72,236.74124   L 14.72,236.74124   L 14.72,236.74124   L 14.72,236.74124   L 15.04,236.74124   L 15.04,236.74124  z "
     style="fill:#000000;fill-rule:evenodd;fill-opacity:1;stroke:none;" />
  <path
     id="path73"
     d="  M 77.12,210.50775   L 78.4,204.74918   L 79.36,198.99061   L 80.32,193.23204   L 80.96,187.79339   L 81.28,182.03482   L 81.28,176.27625   L 80.64,170.51768   L 79.36,164.43919   L 79.04,164.11927   L 78.72,164.11927   L 78.4,163.79934   L 77.76,163.79934   L 77.44,164.11927   L 76.8,164.11927   L 76.48,164.43919   L 75.84,164.43919   L 75.52,169.238   L 75.52,174.35672   L 75.52,179.47545   L 75.52,184.59418   L 75.84,189.71291   L 75.84,194.83164   L 75.84,199.95037   L 75.2,205.0691   L 75.52,206.02886   L 75.84,206.6687   L 75.84,207.30855   L 75.84,208.26831   L 75.84,208.90815   L 75.84,209.54799   L 76.16,210.18783   L 76.8,210.50775   L 76.8,210.50775   L 76.8,210.50775   L 76.8,210.50775   L 76.8,210.50775   L 76.8,210.50775   L 77.12,210.50775   L 77.12,210.50775   L 77.12,210.50775  z "
     style="fill:#000000;fill-rule:evenodd;fill-opacity:1;stroke:none;" />
  <path
     id="path75"
     d="  M 52.16,156.12125   L 52.48,156.12125   L 53.12,156.44117   L 53.76,156.44117   L 54.4,156.44117   L 54.72,156.12125   L 55.36,156.12125   L 55.68,155.80133   L 56.32,155.48141   L 69.44,47.028328   L 75.2,46.388486   L 78.72,31.352218   L 79.68,31.352218   L 80.96,31.672139   L 82.56,32.31198   L 84.16,32.951821   L 85.76,33.271742   L 87.36,33.591663   L 89.28,33.271742   L 90.56,31.99206   L 90.56,31.99206   L 90.88,31.99206   L 90.88,31.672139   L 90.88,31.672139   L 90.88,31.352218   L 90.88,31.352218   L 91.2,31.032298   L 91.2,31.032298   L 91.2,30.392457   L 90.88,29.752615   L 90.88,29.432695   L 90.56,29.112774   L 90.24,28.792854   L 89.92,28.472933   L 89.6,28.153012   L 88.96,27.833092   L 88.96,27.833092   L 88.64,27.833092   L 88.32,27.833092   L 88.32,27.833092   L 88,27.833092   L 87.68,27.513171   L 87.36,27.513171   L 87.04,27.193251   L 84.8,23.034283   L 84.8,22.714362   L 84.48,22.714362   L 84.48,22.714362   L 84.16,22.714362   L 84.16,22.714362   L 83.84,22.714362   L 83.84,22.394442   L 83.52,22.394442   L 83.52,22.394442   L 83.2,22.394442   L 83.2,22.394442   L 82.88,22.714362   L 82.56,22.714362   L 82.56,22.714362   L 82.24,22.714362   L 82.24,23.034283   L 81.6,23.354203   L 80.96,23.994045   L 80.64,24.633886   L 80.32,25.593648   L 80,26.553409   L 79.68,27.513171   L 79.36,28.472933   L 79.04,29.432695   L 78.72,29.432695   L 78.72,29.432695   L 78.72,29.752615   L 78.72,29.752615   L 78.4,29.752615   L 78.4,29.752615   L 78.4,29.752615   L 78.08,29.432695   L 76.8,27.513171   L 76.16,25.913568   L 75.84,23.674124   L 75.84,21.7546   L 75.84,19.515156   L 75.84,17.595633   L 75.84,15.356189   L 75.2,13.436665   L 75.2,13.116744   L 74.88,12.796824   L 74.56,12.796824   L 74.24,12.476903   L 73.92,12.476903   L 73.6,12.156983   L 73.28,11.837062   L 72.96,11.837062   L 68.8,12.796824   L 61.44,23.674124   L 62.08,25.273727   L 62.08,26.87333   L 62.4,28.153012   L 62.08,29.752615   L 61.76,31.032298   L 61.44,32.31198   L 60.8,33.591663   L 59.84,34.871345   L 62.4,39.030313   L 61.12,53.74666   L 59.52,68.463007   L 57.6,82.859434   L 56,97.575782   L 54.08,112.29213   L 52.8,126.68856   L 51.84,141.4049   L 51.2,156.12125   L 51.52,156.12125   L 51.52,156.12125   L 51.52,156.12125   L 51.84,156.12125   L 51.84,156.12125   L 51.84,156.12125   L 52.16,156.12125   L 52.16,156.12125  z "
     style="fill:#000000;fill-rule:evenodd;fill-opacity:1;stroke:none;" />
  <path
     id="path77"
     d="  M 17.92,154.84157   L 20.16,152.92204   L 23.04,151.00252   L 25.92,149.72284   L 28.8,148.44316   L 32,147.16347   L 35.2,146.20371   L 38.72,145.24395   L 42.24,144.28419   L 45.76,104.61403   L 39.36,141.72482   L 36.8,143.32443   L 33.92,144.60411   L 30.72,145.88379   L 27.52,147.16347   L 24.64,148.44316   L 21.76,150.04276   L 20.48,151.00252   L 19.2,151.96228   L 18.24,153.24197   L 17.6,154.52165   L 17.6,154.52165   L 17.6,154.52165   L 17.6,154.84157   L 17.6,154.84157   L 17.92,154.84157   L 17.92,154.84157   L 17.92,154.84157   L 17.92,154.84157  z "
     style="fill:#000000;fill-rule:evenodd;fill-opacity:1;stroke:none;" />
  <path
     id="path79"
     d="  M 82.24,147.80332   L 85.44,147.48339   L 84.16,115.17141   L 78.72,112.29213   L 76.16,62.384516   L 75.84,62.064596   L 75.2,61.744675   L 74.56,61.424754   L 73.92,61.424754   L 73.28,61.104834   L 72.32,61.104834   L 71.68,60.784913   L 71.04,61.104834   L 71.04,113.89173   L 72.96,116.13118   L 77.76,118.69054   L 78.08,122.52959   L 78.08,126.04871   L 78.4,129.88776   L 78.4,133.72681   L 78.72,137.56586   L 79.36,141.08498   L 80.32,144.60411   L 81.6,147.80332   L 81.6,147.80332   L 81.6,147.80332   L 81.92,147.80332   L 81.92,147.80332   L 81.92,147.80332   L 81.92,147.80332   L 81.92,147.80332   L 82.24,147.80332  z "
     style="fill:#000000;fill-rule:evenodd;fill-opacity:1;stroke:none;" />
  <path
     id="path81"
     d="  M 82.88,92.137132   L 82.88,88.618005   L 83.2,85.418799   L 83.52,81.899672   L 83.84,78.380546   L 83.84,74.861419   L 83.84,71.342293   L 83.52,67.823166   L 82.56,64.30404   L 82.88,92.137132  z "
     style="fill:#000000;fill-rule:evenodd;fill-opacity:1;stroke:none;" />
  <path
     id="path83"
     d="  M 49.28,45.428725   L 49.92,45.428725   L 50.56,45.428725   L 51.2,45.428725   L 51.84,45.428725   L 52.48,45.428725   L 53.12,45.428725   L 53.76,45.108804   L 54.4,44.788883   L 54.4,44.468963   L 54.4,44.149042   L 54.4,43.829122   L 54.4,43.509201   L 54.4,43.18928   L 54.08,43.18928   L 54.08,42.86936   L 54.08,42.86936   L 54.08,42.549439   L 54.08,42.229519   L 54.08,41.909598   L 54.08,41.589677   L 54.08,41.589677   L 54.08,41.269757   L 54.08,40.949836   L 54.4,40.629916   L 54.08,39.990074   L 54.08,39.350233   L 53.76,39.030313   L 53.44,38.390471   L 53.12,38.070551   L 52.48,37.75063   L 51.84,37.43071   L 51.2,37.110789   L 46.72,37.75063   L 46.4,38.070551   L 46.08,38.710392   L 45.76,39.030313   L 45.44,39.670154   L 45.44,40.309995   L 45.12,40.629916   L 45.12,41.269757   L 45.12,41.909598   L 45.44,42.549439   L 45.76,43.18928   L 46.08,43.829122   L 46.72,44.149042   L 47.36,44.788883   L 48,45.108804   L 48.64,45.108804   L 49.28,45.428725  z "
     style="fill:#000000;fill-rule:evenodd;fill-opacity:1;stroke:none;" />
  <path
     id="path85"
     d="  M 84.16,45.428725   L 84.8,45.428725   L 85.76,45.428725   L 86.72,45.428725   L 87.36,45.108804   L 88.32,45.108804   L 88.96,44.788883   L 89.92,44.468963   L 90.56,43.829122   L 90.56,43.829122   L 90.88,43.509201   L 90.88,42.86936   L 91.2,42.549439   L 91.2,41.909598   L 91.2,41.589677   L 91.2,40.949836   L 91.2,40.629916   L 90.88,40.309995   L 90.56,39.990074   L 90.56,39.990074   L 90.24,39.670154   L 89.92,39.670154   L 89.92,39.670154   L 89.6,39.350233   L 88.96,39.030313   L 86.4,39.030313   L 86.08,39.030313   L 86.08,38.710392   L 85.76,38.710392   L 85.76,38.390471   L 85.44,38.390471   L 85.44,38.070551   L 85.12,37.75063   L 84.8,37.43071   L 84.16,37.43071   L 83.52,37.43071   L 83.2,37.43071   L 82.56,37.75063   L 81.92,38.070551   L 81.6,38.390471   L 80.96,38.710392   L 80.64,39.030313   L 80.64,39.350233   L 80.32,39.670154   L 80.32,39.990074   L 80.32,39.990074   L 80.32,40.309995   L 80,40.309995   L 80,40.629916   L 80,40.629916   L 80,40.949836   L 80,40.949836   L 80.32,41.269757   L 80.32,41.589677   L 80.32,41.909598   L 80.32,41.909598   L 80.32,42.229519   L 80.64,42.86936   L 83.52,45.428725   L 83.52,45.428725   L 83.84,45.428725   L 83.84,45.428725   L 83.84,45.428725   L 83.84,45.428725   L 83.84,45.428725   L 84.16,45.428725   L 84.16,45.428725  z "
     style="fill:#000000;fill-rule:evenodd;fill-opacity:1;stroke:none;" />
  <path
     id="path87"
     d="  M 69.12,35.511186   L 70.4,31.99206   L 70.08,32.631901   L 69.76,32.951821   L 69.44,33.271742   L 69.44,33.911583   L 69.12,34.231504   L 68.8,34.551424   L 68.8,35.191266   L 68.8,35.511186   L 68.8,35.831107   L 68.8,35.831107   L 68.8,35.831107   L 68.8,36.151027   L 69.12,36.151027   L 69.12,35.831107   L 69.12,35.831107   L 69.12,35.511186  z "
     style="fill:#ffffff;fill-rule:evenodd;fill-opacity:1;stroke:none;" />
  <path
     id="path89"
     d="  M 49.28,33.591663   L 54.4,33.271742   L 54.4,32.951821   L 54.72,32.631901   L 54.72,32.631901   L 55.04,32.31198   L 55.04,31.99206   L 55.04,31.672139   L 55.04,31.352218   L 55.04,31.032298   L 53.12,28.792854   L 53.12,28.472933   L 53.12,28.153012   L 53.12,27.833092   L 53.12,27.833092   L 53.12,27.513171   L 53.44,27.193251   L 53.44,26.87333   L 53.44,26.87333   L 53.44,26.233489   L 53.44,25.913568   L 53.12,25.593648   L 52.8,25.273727   L 52.48,24.953806   L 52.16,24.633886   L 51.84,24.633886   L 51.2,24.313965   L 46.72,25.913568   L 46.4,26.553409   L 46.08,26.87333   L 45.76,27.193251   L 45.44,27.833092   L 44.8,28.153012   L 44.8,28.792854   L 44.48,29.432695   L 44.48,30.072536   L 44.8,30.712377   L 45.44,31.032298   L 45.76,31.672139   L 46.4,31.99206   L 47.04,32.631901   L 47.68,32.951821   L 48.64,33.271742   L 49.28,33.591663  z "
     style="fill:#000000;fill-rule:evenodd;fill-opacity:1;stroke:none;" />
  <path
     id="path91"
     d="  M 61.76,16.635871   L 67.52,6.3984119   L 67.84,6.0784913   L 68.16,6.0784913   L 68.48,6.0784913   L 69.12,5.7585707   L 69.44,5.7585707   L 70.08,5.7585707   L 70.4,5.7585707   L 71.04,5.7585707   L 71.36,5.4386501   L 71.36,5.1187295   L 71.04,4.7988089   L 70.72,4.4788883   L 70.4,4.1589677   L 69.76,3.8390471   L 69.12,3.8390471   L 68.8,3.5191266   L 67.84,3.8390471   L 67.2,4.1589677   L 66.56,4.4788883   L 65.92,5.1187295   L 65.6,6.0784913   L 64.96,7.0382531   L 64.64,7.6780943   L 64.32,8.6378561   L 64,9.5976179   L 63.68,10.55738   L 63.04,11.517141   L 62.72,12.156983   L 62.4,13.116744   L 62.08,13.756586   L 61.76,14.716347   L 61.12,15.356189   L 61.12,15.356189   L 61.12,15.676109   L 61.12,15.99603   L 61.12,16.31595   L 61.44,16.635871   L 61.44,16.955792   L 61.44,16.635871   L 61.76,16.635871  z "
     style="fill:#000000;fill-rule:evenodd;fill-opacity:1;stroke:none;" />
</svg>
