<?xml version="1.0" encoding="UTF-8" standalone="no"?>
<svg
   xmlns:dc="http://purl.org/dc/elements/1.1/"
   xmlns:cc="http://creativecommons.org/ns#"
   xmlns:rdf="http://www.w3.org/1999/02/22-rdf-syntax-ns#"
   xmlns:svg="http://www.w3.org/2000/svg"
   xmlns="http://www.w3.org/2000/svg"
   id="svg11"
   height="97.358197mm"
   width="98.323399mm"
   version="1.0">
  <metadata
     id="metadata15">
    <rdf:RDF>
      <cc:Work
         rdf:about="">
        <dc:format>image/svg+xml</dc:format>
        <dc:type
           rdf:resource="http://purl.org/dc/dcmitype/StillImage" />
        <dc:title></dc:title>
      </cc:Work>
    </rdf:RDF>
  </metadata>
  <defs
     id="defs3">
    <pattern
       y="0"
       x="0"
       height="6"
       width="6"
       patternUnits="userSpaceOnUse"
       id="WMFhbasepattern" />
  </defs>
  <path
     id="path5"
     d="  M 128.52929,291.73849   L 127.57012,290.77882   L 125.33205,288.5396   L 121.49535,285.34072   L 117.01921,281.50205   L 114.14169,279.58272   L 111.26417,277.66339   L 108.38664,276.06394   L 105.1894,274.14461   L 101.99215,272.86506   L 98.794905,271.90539   L 95.277935,270.94573   L 92.080688,270.62584   L 84.727022,270.62584   L 76.414182,270.94573   L 67.461893,271.90539   L 58.829329,272.86506   L 50.836213,273.82472   L 44.441721,274.78439   L 40.285301,275.10428   L 38.686678,275.42417   L 37.727504,276.70372   L 34.530258,280.2225   L 30.054114,285.66061   L 25.258244,292.37827   L 22.700448,296.21693   L 20.462375,300.0556   L 18.544028,304.21415   L 16.945404,308.05281   L 15.666506,312.21137   L 14.707332,316.36992   L 14.707332,318.28925   L 14.707332,320.20858   L 14.707332,322.12792   L 15.346781,324.04725   L 15.986231,327.56602   L 17.265129,331.0848   L 18.224303,333.9638   L 19.503201,336.8428   L 20.7821,339.40191   L 22.380723,341.64113   L 23.979346,343.88035   L 25.577969,345.79968   L 27.176592,347.39912   L 29.09494,348.67868   L 31.013287,349.95823   L 32.61191,351.23779   L 36.76833,352.83723   L 40.605026,353.7969   L 44.761446,354.43667   L 49.557315,355.07645   L 54.672909,355.39634   L 59.468778,355.39634   L 63.944923,355.39634   L 67.461893,355.39634   L 70.01969,355.39634   L 70.659139,355.07645   L 70.978864,355.71623   L 71.298589,357.31567   L 71.618313,359.23501   L 72.257762,361.47423   L 72.897212,363.71345   L 73.216936,365.95267   L 73.856386,367.23222   L 73.856386,367.55211   L 78.012806,366.91233   L 88.243993,364.993   L 103.27105,362.43389   L 120.21645,359.23501   L 137.48158,356.03612   L 152.50864,353.15712   L 163.05955,350.9179   L 166.89625,350.27812   L 166.2568,343.56046   L 164.33845,326.28647   L 161.78065,301.65504   L 158.58341,273.50483   L 155.70589,245.03474   L 152.82836,220.40331   L 151.22974,202.80943   L 150.27057,196.41166   L 209.0999,198.97077   L 208.78017,165.06257   L 211.01824,164.74268   L 216.77329,164.74268   L 225.08613,164.42279   L 235.31731,163.78301   L 245.86823,163.14323   L 256.09941,162.50346   L 265.0517,161.54379   L 271.4462,160.58413   L 277.52096,158.66479   L 285.8338,155.78579   L 295.74527,151.62724   L 306.29618,147.1488   L 316.52737,142.35047   L 325.79938,137.55214   L 329.9558,135.31292   L 333.47277,133.0737   L 336.35029,131.15437   L 338.58836,129.55492   L 339.22781,128.91514   L 339.54754,128.27537   L 339.54754,127.63559   L 339.54754,126.99581   L 338.26864,126.35603   L 336.35029,126.03615   L 333.47277,125.71626   L 330.27552,125.71626   L 326.43883,126.03615   L 322.28241,126.35603   L 314.28929,127.3157   L 306.93563,128.27537   L 301.50031,129.23503   L 299.26224,129.55492   L 296.70444,129.87481   L 289.6705,130.1947   L 279.75904,131.15437   L 267.92923,131.79414   L 255.77969,132.43392   L 244.58933,133.39359   L 235.31731,133.71347   L 229.882,133.71347   L 227.96365,133.39359   L 225.08613,132.75381   L 222.20861,131.79414   L 218.69164,130.83448   L 211.01824,127.95548   L 202.7054,124.4367   L 195.03201,121.23782   L 188.63752,118.35882   L 184.16138,116.43949   L 182.24303,115.47982   L 191.19532,80.292063   L 194.07284,80.292063   L 201.42651,80.292063   L 212.61687,79.972174   L 225.40585,79.652285   L 238.83429,79.012508   L 251.30355,78.37273   L 256.73886,78.052842   L 261.21501,77.732953   L 265.0517,77.093176   L 267.92923,76.453398   L 274.96317,74.534066   L 286.79298,70.695402   L 302.13976,65.897071   L 318.76544,60.458963   L 327.07828,57.579965   L 335.07139,54.381078   L 342.74478,51.50208   L 349.459,48.623082   L 355.53377,45.424195   L 360.32964,42.865085   L 362.24799,41.58553   L 363.84661,40.305976   L 365.12551,39.026421   L 365.76496,37.746866   L 366.72413,35.827534   L 367.04386,33.908202   L 367.04386,32.628647   L 366.72413,31.668981   L 366.40441,31.029203   L 365.44523,30.709315   L 364.48606,30.389426   L 363.52688,30.389426   L 361.28881,30.709315   L 359.37046,31.349092   L 357.77184,31.98887   L 357.13239,32.308758   L 353.61542,32.628647   L 344.34341,33.908202   L 330.91497,35.187757   L 314.92874,37.107089   L 298.62279,38.386643   L 283.27601,39.34631   L 276.56179,39.666198   L 270.48702,39.666198   L 266.01088,39.34631   L 262.49391,38.706532   L 252.26272,36.147423   L 234.67787,31.668981   L 212.29714,26.550762   L 187.67835,20.792765   L 163.699,15.034769   L 143.23663,10.556327   L 128.84902,7.0375513   L 123.4137,5.7579965   L 123.4137,7.6773287   L 123.4137,12.795548   L 123.4137,19.833099   L 123.4137,28.150205   L 123.4137,36.467311   L 123.4137,43.504863   L 123.4137,48.623082   L 123.4137,50.542414   L 124.37287,55.020856   L 126.93067,67.176626   L 130.76737,84.130727   L 135.24351,103.64394   L 139.39993,123.15715   L 143.23663,140.11125   L 145.79442,152.26702   L 146.7536,156.74546   L 118.29811,160.90401   L 128.52929,291.73849  z "
     style="fill:#f0d100;fill-rule:evenodd;fill-opacity:1;stroke:none;" />
  <path
     id="path7"
     d="  M 359.05074,19.51321   L 356.81267,18.553544   L 354.5746,17.913767   L 352.0168,17.593878   L 349.77873,16.954101   L 344.66313,16.634212   L 339.86726,16.954101   L 334.75167,16.954101   L 329.31635,17.27399   L 323.88103,17.27399   L 318.44571,16.954101   L 312.69067,18.553544   L 306.6159,19.51321   L 300.86086,20.792765   L 295.10582,21.432543   L 283.59573,22.392209   L 272.08565,23.031986   L 260.57556,23.031986   L 248.74575,23.031986   L 236.91594,22.392209   L 225.08613,22.07232   L 213.89577,20.792765   L 203.34485,19.51321   L 192.47422,18.553544   L 182.24303,17.27399   L 171.69212,15.994435   L 161.1412,14.394991   L 150.27057,12.15577   L 139.08021,8.9568835   L 135.88296,8.3171061   L 132.36599,7.6773287   L 129.48847,6.7176626   L 126.29122,5.7579965   L 123.4137,5.1182191   L 120.53618,4.158553   L 117.33893,3.5187757   L 114.14169,3.198887   L 115.10086,7.6773287   L 124.37287,11.196104   L 133.64489,13.755214   L 143.55635,16.314323   L 153.46781,18.553544   L 163.37928,20.472877   L 173.29074,22.392209   L 183.2022,23.991652   L 193.11367,25.910984   L 204.94348,27.190539   L 216.45356,28.789983   L 228.28337,29.749649   L 239.79346,31.029203   L 251.30355,31.668981   L 262.81363,31.98887   L 268.24895,31.98887   L 274.00399,31.668981   L 279.75904,31.349092   L 285.19435,30.709315   L 293.50719,29.42976   L 301.82003,28.470094   L 309.81315,27.510428   L 317.80627,26.87065   L 325.79938,25.910984   L 333.7925,24.951318   L 341.46589,23.671763   L 348.81955,22.07232   L 346.58148,24.63143   L 343.70396,26.87065   L 340.82644,29.109871   L 337.62919,31.029203   L 330.59525,34.22809   L 323.24158,37.107089   L 315.56819,39.986087   L 308.21453,42.865085   L 304.37783,44.464529   L 300.86086,46.383861   L 297.66361,48.303193   L 294.46637,50.222525   L 289.6705,52.461746   L 284.87463,54.700967   L 280.07876,56.620299   L 275.28289,58.219743   L 265.37143,61.098741   L 255.14024,63.65785   L 244.58933,65.257294   L 234.35814,66.536849   L 224.12695,67.176626   L 213.89577,67.496515   L 208.14072,67.816403   L 202.38568,67.496515   L 196.63064,67.176626   L 191.19532,66.536849   L 185.76,66.21696   L 180.32468,65.897071   L 175.20909,65.577183   L 169.77377,65.577183   L 169.77377,65.577183   L 169.45404,65.897071   L 169.45404,65.897071   L 169.13432,66.21696   L 169.13432,66.536849   L 168.8146,66.856737   L 168.49487,67.176626   L 168.49487,67.496515   L 169.13432,69.735736   L 169.77377,71.974957   L 170.41322,74.214177   L 170.73294,76.453398   L 171.05267,81.251729   L 171.05267,86.369948   L 170.73294,91.488167   L 170.73294,96.606386   L 171.05267,101.40472   L 172.01184,106.52294   L 172.01184,106.84282   L 171.69212,107.4826   L 171.69212,107.80249   L 171.69212,108.12238   L 171.37239,108.44227   L 171.37239,108.76216   L 171.37239,109.08205   L 171.37239,109.08205   L 175.20909,111.96104   L 179.04578,114.84004   L 183.2022,117.07926   L 187.67835,119.31848   L 192.47422,121.23782   L 197.27009,122.51737   L 202.38568,123.79693   L 207.50127,124.75659   L 212.61687,125.71626   L 217.73246,126.35603   L 223.16778,126.67592   L 228.28337,126.99581   L 238.83429,127.3157   L 249.06547,126.99581   L 258.01776,126.35603   L 266.65033,124.75659   L 275.28289,123.15715   L 283.91546,121.23782   L 292.54802,118.99859   L 300.86086,116.75937   L 309.49343,114.84004   L 317.80627,112.92071   L 316.20764,115.47982   L 314.28929,118.03893   L 312.37095,119.95826   L 310.4526,122.19748   L 305.97645,126.03615   L 301.50031,129.23503   L 296.38472,132.11403   L 291.58885,134.99303   L 286.47325,137.87203   L 281.35766,140.75103   L 271.12647,143.31014   L 260.89528,146.18913   L 250.6641,149.06813   L 240.43291,151.62724   L 230.20172,154.18635   L 219.97053,155.78579   L 214.85494,156.42557   L 209.73935,156.74546   L 204.62375,157.06535   L 199.82788,157.06535   L 198.22926,157.06535   L 196.95036,157.06535   L 195.67146,157.06535   L 194.71229,157.06535   L 193.75312,157.06535   L 192.79394,157.06535   L 191.51504,157.06535   L 190.55587,157.06535   L 189.5967,157.70513   L 188.63752,158.66479   L 187.99807,159.62446   L 187.67835,160.90401   L 187.0389,163.14323   L 186.71917,165.70234   L 187.0389,168.58134   L 187.35862,171.46034   L 187.99807,174.01945   L 188.63752,176.57856   L 188.63752,178.49789   L 188.95725,180.09734   L 188.95725,181.69678   L 189.27697,183.29622   L 189.27697,184.57578   L 189.27697,186.17522   L 189.27697,187.77466   L 189.27697,189.05422   L 133.64489,187.77466   L 128.20957,190.97355   L 128.52929,195.77188   L 129.16874,200.8901   L 130.12792,206.00832   L 131.08709,210.80665   L 132.04627,215.92487   L 133.32516,221.04309   L 134.28434,226.16131   L 135.24351,230.95964   L 137.48158,241.51597   L 139.08021,252.07229   L 140.99855,262.62862   L 142.59718,272.86506   L 144.1958,283.42138   L 146.11415,293.65782   L 148.0325,303.89426   L 150.27057,314.45059   L 151.22974,318.28925   L 152.18892,322.12792   L 153.14809,325.96658   L 153.78754,329.80525   L 155.06644,333.32402   L 156.02561,336.8428   L 156.98478,340.68146   L 158.26368,344.20024   L 158.26368,344.52013   L 158.26368,344.84001   L 158.26368,345.1599   L 157.94396,345.47979   L 157.94396,345.47979   L 157.62423,345.79968   L 157.30451,346.11957   L 156.98478,346.43946   L 153.14809,346.43946   L 148.99167,346.75935   L 145.15497,347.39912   L 140.99855,348.35879   L 137.16186,348.99857   L 133.00544,349.95823   L 128.84902,350.59801   L 124.6926,351.23779   L 120.8559,352.83723   L 117.01921,354.11679   L 113.18251,355.07645   L 109.34582,356.03612   L 101.67243,357.31567   L 93.999036,358.27534   L 86.325645,359.23501   L 78.652255,359.87478   L 71.298589,360.83445   L 63.625198,362.114   L 59.788503,350.59801   L 39.006403,350.9179   L 34.849983,349.31846   L 30.693563,347.71901   L 26.856867,346.11957   L 23.339897,344.52013   L 20.142651,342.2809   L 16.945404,340.04168   L 14.387608,337.16269   L 12.149535,333.9638   L 11.190361,331.72458   L 10.550912,329.48536   L 9.911463,327.24614   L 9.5917384,325.00691   L 9.2720138,320.20858   L 9.2720138,315.73014   L 10.231188,311.2517   L 11.190361,306.77326   L 12.788985,302.61471   L 14.707332,299.09593   L 15.666506,295.89704   L 17.265129,293.33793   L 18.544028,290.77882   L 20.462375,288.5396   L 22.380723,286.30038   L 24.299071,284.06116   L 26.537143,282.46172   L 28.775215,280.54239   L 31.013287,278.94294   L 33.571084,277.66339   L 36.448606,276.38383   L 39.006403,275.42417   L 44.761446,273.50483   L 50.516489,271.90539   L 54.672909,271.26561   L 59.149053,270.62584   L 62.985749,270.30595   L 67.142169,269.98606   L 70.978864,269.66617   L 75.135284,269.98606   L 78.971979,270.30595   L 83.128399,271.26561   L 94.638485,279.26283   L 106.4683,282.46172   L 104.54995,280.86227   L 102.31188,279.26283   L 100.0738,277.98328   L 97.516007,277.02361   L 94.95821,275.74406   L 92.400413,274.4645   L 90.162341,272.86506   L 87.924269,270.62584   L 84.087573,269.34628   L 80.250878,268.06673   L 76.094458,267.42695   L 72.257762,266.78717   L 68.421067,266.46728   L 64.264647,266.14739   L 60.427952,266.46728   L 56.591256,266.78717   L 52.754561,267.10706   L 48.917866,267.74684   L 45.400895,268.7065   L 41.5642,269.66617   L 34.210534,271.90539   L 27.176592,274.78439   L 24.299071,277.02361   L 21.421549,279.26283   L 18.863752,281.50205   L 16.305955,284.06116   L 14.067883,286.62027   L 11.829811,289.49927   L 9.5917384,292.37827   L 7.9931153,295.25727   L 6.3944923,298.13626   L 4.7958692,301.33515   L 3.5169707,304.53404   L 2.5577969,307.73293   L 1.9183477,310.93181   L 1.5986231,314.1307   L 1.2788985,317.64947   L 1.2788985,321.16825   L 2.2380723,324.36714   L 3.1972461,327.24614   L 4.15642,330.12513   L 5.4353184,333.00413   L 7.0339415,335.88313   L 8.6325645,338.44224   L 10.231188,341.00135   L 12.149535,343.24057   L 14.067883,345.47979   L 15.986231,347.39912   L 18.224303,349.31846   L 20.462375,350.9179   L 22.700448,352.51734   L 24.93852,353.7969   L 27.496317,355.07645   L 30.054114,356.03612   L 33.25136,356.99578   L 36.448606,357.95545   L 39.645852,358.91512   L 42.523373,359.23501   L 45.72062,359.55489   L 48.598141,359.55489   L 51.475663,358.91512   L 54.672909,357.95545   L 54.992633,357.95545   L 55.632083,358.27534   L 55.951807,358.59523   L 56.271532,359.23501   L 56.271532,359.87478   L 56.591256,360.19467   L 57.230706,360.83445   L 57.55043,361.47423   L 62.666024,362.43389   L 68.101343,363.07367   L 73.216936,363.39356   L 78.652255,363.39356   L 84.087573,363.07367   L 89.522892,362.75378   L 95.277935,362.114   L 100.71325,361.15434   L 111.90361,359.23501   L 123.4137,356.99578   L 134.60406,355.07645   L 145.4747,353.15712   L 147.39305,353.15712   L 149.31139,353.15712   L 151.22974,352.83723   L 153.14809,352.51734   L 155.06644,351.87757   L 156.66506,351.23779   L 157.94396,350.27812   L 159.22286,349.31846   L 140.3591,193.53266   L 201.10678,196.09177   L 201.74623,195.77188   L 202.38568,195.45199   L 203.02513,194.81222   L 203.34485,194.17244   L 203.34485,193.53266   L 203.66458,192.57299   L 203.34485,191.61333   L 203.34485,190.97355   L 202.06596,187.13489   L 200.78706,183.61611   L 199.82788,179.77745   L 198.86871,176.25867   L 198.22926,172.7399   L 197.58981,169.22112   L 197.27009,165.70234   L 196.95036,162.18357   L 206.5421,161.54379   L 216.45356,160.58413   L 226.68475,158.98468   L 236.59621,157.38524   L 247.14713,155.14602   L 257.37831,152.9068   L 267.6095,150.34769   L 277.52096,147.46869   L 286.47325,143.94991   L 294.78609,140.11125   L 302.13976,135.63281   L 309.1737,131.15437   L 316.20764,126.35603   L 322.92186,121.23782   L 329.9558,115.79971   L 337.30947,110.04171   L 338.90809,107.4826   L 340.50671,105.24338   L 342.74478,103.00416   L 344.66313,100.76494   L 346.58148,98.525718   L 348.1801,95.966609   L 348.49983,95.006943   L 348.81955,93.407499   L 349.13928,92.127944   L 349.13928,90.84839   L 340.82644,93.727388   L 332.19387,97.246163   L 323.24158,100.44505   L 313.96957,103.64394   L 304.37783,106.84282   L 294.46637,109.40193   L 289.6705,110.68149   L 284.55491,111.64115   L 279.75904,112.28093   L 274.96317,112.92071   L 269.20812,113.88038   L 263.45308,114.84004   L 258.01776,115.79971   L 252.26272,116.43949   L 246.18795,116.75937   L 240.43291,116.75937   L 234.67787,116.75937   L 228.92282,116.75937   L 223.16778,116.1196   L 217.73246,115.47982   L 211.97742,114.52015   L 206.5421,113.2406   L 201.10678,111.64115   L 195.67146,110.04171   L 190.55587,107.80249   L 185.44028,105.56327   L 183.52193,104.92349   L 181.9233,104.28371   L 180.32468,103.64394   L 178.72606,102.68427   L 177.44716,102.04449   L 176.48799,100.76494   L 175.52881,99.165496   L 174.88936,97.566052   L 174.88936,79.332397   L 180.00496,78.692619   L 185.12055,78.052842   L 190.55587,78.052842   L 195.99119,77.732953   L 207.18155,77.732953   L 218.69164,77.732953   L 230.20172,77.413064   L 241.71181,76.773287   L 247.46685,76.13351   L 253.22189,75.173843   L 258.97694,73.894289   L 264.41225,72.614734   L 274.32372,69.735736   L 283.59573,66.856737   L 292.54802,63.337962   L 301.18059,59.819186   L 309.1737,56.30041   L 317.48654,52.461746   L 325.47966,48.303193   L 333.47277,44.14464   L 336.98974,41.58553   L 340.50671,39.34631   L 344.02368,36.7872   L 347.86038,33.908202   L 351.05762,31.029203   L 354.5746,28.150205   L 357.45212,24.63143   L 360.32964,20.792765   L 360.32964,20.792765   L 360.00991,20.472877   L 360.00991,20.472877   L 359.69019,20.152988   L 359.37046,19.833099   L 359.37046,19.833099   L 359.05074,19.51321   L 359.05074,19.51321  z "
     style="fill:#000000;fill-rule:evenodd;fill-opacity:1;stroke:none;" />
  <path
     id="path9"
     d="  M 132.36599,150.66758   L 129.48847,141.71069   L 126.93067,132.43392   L 124.05315,123.15715   L 121.49535,113.56049   L 118.93756,103.96383   L 116.69948,94.687054   L 114.14169,85.090393   L 111.58389,75.493732   L 110.62472,66.21696   L 109.34582,56.940188   L 108.38664,47.663416   L 107.10775,38.706532   L 106.4683,29.749649   L 105.50912,20.792765   L 104.86967,11.835882   L 104.54995,2.5591096   L 104.23022,1.9193322   L 103.9105,1.5994435   L 103.59077,1.5994435   L 102.95133,1.5994435   L 102.31188,1.9193322   L 101.67243,2.2392209   L 101.03298,2.5591096   L 100.71325,2.5591096   L 99.11463,7.6773287   L 98.155456,13.115437   L 97.516007,18.233656   L 97.196282,23.351875   L 97.196282,28.789983   L 97.516007,34.22809   L 98.155456,39.666198   L 99.11463,45.104306   L 101.67243,55.980522   L 104.54995,66.856737   L 107.42747,77.732953   L 110.30499,88.28928   L 112.54306,96.286497   L 114.78114,103.64394   L 117.01921,111.32127   L 119.25728,118.67871   L 121.49535,126.03615   L 123.73343,133.39359   L 125.9715,140.75103   L 128.20957,148.10847   L 128.20957,148.42835   L 128.20957,148.74824   L 128.20957,149.06813   L 127.88985,149.38802   L 127.88985,149.70791   L 127.57012,149.70791   L 127.2504,150.0278   L 126.93067,150.0278   L 99.754079,152.26702   L 98.155456,153.54657   L 97.196282,155.46591   L 96.556833,157.06535   L 95.917384,158.98468   L 95.597659,160.90401   L 95.597659,163.14323   L 95.597659,165.06257   L 95.917384,167.30179   L 96.876558,171.78023   L 97.516007,175.93878   L 98.475181,180.41722   L 98.794905,184.57578   L 100.71325,195.45199   L 102.6316,206.00832   L 104.54995,216.56465   L 106.14857,226.80109   L 107.74719,237.35741   L 109.34582,247.91374   L 110.62472,258.47007   L 111.90361,269.34628   L 112.22334,271.5855   L 112.54306,273.50483   L 112.86279,275.42417   L 113.18251,277.3435   L 113.82196,279.26283   L 114.14169,281.18216   L 114.78114,282.78161   L 115.74031,284.70094   L 115.74031,273.82472   L 115.42059,262.94851   L 114.78114,252.07229   L 113.50224,240.87619   L 112.22334,229.68008   L 110.94444,218.48398   L 109.66554,207.28787   L 108.38664,196.09177   L 107.74719,191.61333   L 107.10775,187.13489   L 106.14857,182.97633   L 105.50912,178.49789   L 104.54995,174.33934   L 103.9105,170.18079   L 103.59077,165.70234   L 103.59077,161.54379   L 133.00544,152.26702   L 133.00544,152.26702   L 133.00544,151.94713   L 133.00544,151.62724   L 132.68571,151.62724   L 132.68571,151.30735   L 132.68571,150.98746   L 132.68571,150.66758   L 132.36599,150.66758  z "
     style="fill:#000000;fill-rule:evenodd;fill-opacity:1;stroke:none;" />
</svg>
