<?xml version="1.0" encoding="UTF-8" standalone="no"?>
<svg
   xmlns:dc="http://purl.org/dc/elements/1.1/"
   xmlns:cc="http://creativecommons.org/ns#"
   xmlns:rdf="http://www.w3.org/1999/02/22-rdf-syntax-ns#"
   xmlns:svg="http://www.w3.org/2000/svg"
   xmlns="http://www.w3.org/2000/svg"
   id="svg15"
   height="102.3366mm"
   width="101.8794mm"
   version="1.0">
  <metadata
     id="metadata19">
    <rdf:RDF>
      <cc:Work
         rdf:about="">
        <dc:format>image/svg+xml</dc:format>
        <dc:type
           rdf:resource="http://purl.org/dc/dcmitype/StillImage" />
        <dc:title></dc:title>
      </cc:Work>
    </rdf:RDF>
  </metadata>
  <defs
     id="defs3">
    <pattern
       y="0"
       x="0"
       height="6"
       width="6"
       patternUnits="userSpaceOnUse"
       id="WMFhbasepattern" />
  </defs>
  <path
     id="path5"
     d="  M 111.68,308.00707   L 108.48,307.68723   L 99.84,306.40786   L 87.68,305.1285   L 73.28,303.84913   L 65.92,303.52929   L 58.56,303.20945   L 51.52,303.52929   L 44.8,303.84913   L 39.04,304.80866   L 33.92,306.08802   L 32,306.7277   L 30.4,307.68723   L 28.8,308.96659   L 27.84,310.24596   L 25.92,312.80468   L 23.68,315.04357   L 21.76,317.28246   L 19.52,319.20151   L 15.36,322.71976   L 11.52,326.55786   L 10.24,328.79674   L 8.96,331.03563   L 8,333.59436   L 7.68,336.47293   L 7.68,339.67134   L 8.32,343.50944   L 9.28,347.34753   L 11.2,352.14515   L 13.12,356.94277   L 15.04,361.1007   L 16.96,364.61896   L 18.88,367.49753   L 20.48,370.05626   L 22.08,372.29515   L 23.68,374.21419   L 25.28,375.49356   L 27.84,377.41261   L 29.76,378.37213   L 31.04,378.69197   L 31.68,378.69197   L 32.64,378.69197   L 36.16,378.69197   L 40.96,378.69197   L 46.4,378.69197   L 51.84,378.69197   L 56.64,378.69197   L 60.16,378.69197   L 61.44,378.69197   L 63.36,378.69197   L 67.84,379.01181   L 73.92,379.33165   L 81.28,379.33165   L 88.64,379.65149   L 95.04,379.97133   L 99.52,379.97133   L 101.44,379.97133   L 102.72,379.33165   L 106.56,378.05229   L 112.32,375.8134   L 118.72,372.93483   L 125.44,369.73642   L 131.84,366.21816   L 134.72,364.61896   L 137.28,362.69991   L 139.2,361.1007   L 140.8,359.5015   L 142.72,356.62293   L 144.64,353.74436   L 145.92,351.50547   L 147.2,348.94674   L 148.16,346.38801   L 149.12,343.50944   L 149.76,340.31103   L 150.4,336.47293   L 150.72,332.95468   L 151.36,329.75627   L 152,326.8777   L 152.32,324.63881   L 152,322.39992   L 151.36,320.48087   L 150.08,318.24199   L 147.84,316.0031   L 144.96,313.44437   L 142.08,310.5658   L 139.2,307.04754   L 136.32,303.20945   L 133.44,299.37135   L 130.56,295.53326   L 128.32,292.01501   L 126.4,288.8166   L 124.48,284.9785   L 122.88,280.82057   L 121.6,275.70311   L 120.32,270.58565   L 119.04,265.46819   L 118.4,260.67057   L 117.76,256.19279   L 117.76,252.67454   L 118.08,248.83645   L 118.72,243.71899   L 119.68,237.96185   L 120.96,231.88486   L 122.24,225.80788   L 123.52,220.37058   L 124.48,215.8928   L 125.12,212.69439   L 126.08,209.49598   L 128.32,204.05868   L 130.88,197.02217   L 134.08,189.34599   L 137.28,180.71027   L 140.48,172.3944   L 142.72,164.39837   L 144.32,157.36187   L 144.96,150.6452   L 144.96,143.60869   L 144.96,136.25235   L 144.64,129.53568   L 144,123.4587   L 143.68,118.34124   L 143.04,115.14283   L 143.04,114.18331   L 125.12,84.118233   L 127.36,82.519027   L 133.76,79.000774   L 142.72,73.563474   L 153.6,67.806333   L 164.48,61.72935   L 174.72,56.611891   L 178.88,54.373002   L 182.72,52.773797   L 185.6,51.814273   L 187.52,51.494432   L 192.64,51.174591   L 201.28,51.174591   L 212.8,50.534908   L 225.6,50.215067   L 238.08,49.575385   L 249.6,49.255543   L 258.56,48.935702   L 263.36,48.935702   L 269.12,48.935702   L 279.04,48.935702   L 292.48,48.935702   L 307.2,48.935702   L 321.92,48.935702   L 335.36,48.935702   L 345.6,48.935702   L 351.04,48.935702   L 352.64,48.615861   L 354.56,48.29602   L 357.12,47.656337   L 359.36,46.696814   L 365.12,44.457926   L 370.88,41.579355   L 376.32,39.020625   L 380.8,36.781737   L 383.68,35.182531   L 384.96,34.542849   L 379.84,34.542849   L 365.76,33.903166   L 345.6,33.263484   L 322.24,32.623801   L 298.24,31.024596   L 275.84,29.42539   L 266.24,28.465866   L 258.24,27.506342   L 251.84,26.226978   L 247.68,24.947613   L 243.84,23.668248   L 237.44,22.069042   L 229.76,20.789677   L 220.48,19.510313   L 198.72,17.271424   L 175.04,15.032536   L 152.32,13.113489   L 132.8,11.834124   L 119.36,10.8746   L 114.24,10.554759   L 113.28,11.194442   L 110.72,13.43333   L 106.88,16.631742   L 102.72,20.149995   L 98.24,24.307931   L 94.08,28.146025   L 92.48,30.065072   L 91.2,31.664278   L 89.92,33.263484   L 89.28,34.542849   L 88,36.781737   L 86.08,39.340467   L 85.12,40.939672   L 84.16,42.538878   L 83.2,44.457926   L 82.56,46.376973   L 82.24,48.615861   L 81.92,51.494432   L 82.24,54.373002   L 82.88,57.571414   L 83.84,61.409509   L 85.44,65.567444   L 87.68,70.365062   L 90.56,75.482521   L 96.32,85.397598   L 100.48,94.353151   L 104,101.7095   L 106.88,107.78648   L 109.12,113.22378   L 111.04,117.70156   L 112.64,121.53965   L 114.24,124.73806   L 114.88,126.65711   L 115.52,128.57616   L 116.16,130.81505   L 116.48,133.37378   L 117.12,138.49124   L 116.8,143.92854   L 116.48,149.36584   L 115.84,154.4833   L 115.2,158.96107   L 114.24,162.15948   L 112.96,165.67774   L 110.72,169.83567   L 108.16,174.95313   L 105.28,180.71027   L 102.4,186.78726   L 100.16,193.50392   L 98.88,196.70233   L 97.92,200.22059   L 97.28,203.419   L 96.64,206.93725   L 95.68,214.2936   L 95.04,222.28963   L 94.72,230.28566   L 94.4,238.28169   L 94.08,245.31819   L 94.08,251.07533   L 94.08,254.91343   L 94.08,256.19279   L 111.68,308.00707  z "
     style="fill:#ff8700;fill-rule:evenodd;fill-opacity:1;stroke:none;" />
  <path
     id="path7"
     d="  M 373.12,29.105548   L 373.12,29.105548   L 373.12,29.105548   L 372.8,28.785707   L 372.8,28.785707   L 372.48,28.465866   L 372.48,28.465866   L 372.48,28.465866   L 372.16,28.465866   L 361.92,28.146025   L 351.04,27.506342   L 340.48,26.226978   L 329.92,24.947613   L 319.04,23.668248   L 308.48,22.388883   L 297.92,21.109519   L 287.36,20.149995   L 276.8,18.550789   L 265.92,16.631742   L 255.68,14.392854   L 245.44,12.153965   L 235.2,10.234918   L 224.96,8.315871   L 215.04,6.716665   L 204.8,5.7571414   L 200.32,5.7571414   L 196.16,5.4373002   L 191.68,5.1174591   L 187.84,4.4777767   L 183.68,3.8380943   L 179.52,3.1984119   L 175.68,2.5587295   L 171.52,2.2388883   L 159.36,1.9190471   L 147.2,1.599206   L 141.12,1.599206   L 135.04,1.9190471   L 129.28,2.5587295   L 123.2,3.1984119   L 117.44,4.1579355   L 112,5.4373002   L 106.24,7.3563474   L 101.12,9.2753945   L 96,11.514283   L 91.2,14.392854   L 86.72,17.911107   L 82.56,21.42936   L 80.32,24.307931   L 78.4,27.186501   L 76.48,30.384913   L 74.88,33.583325   L 73.6,37.101578   L 72.64,40.619831   L 71.68,44.138084   L 71.36,47.656337   L 71.04,51.174591   L 71.04,55.012685   L 71.36,58.530938   L 72,62.369032   L 72.96,65.887285   L 74.24,69.405538   L 76.16,72.923792   L 78.08,76.442045   L 81.6,81.239663   L 85.12,86.03728   L 88.64,91.154739   L 91.84,96.272199   L 95.04,101.7095   L 97.92,107.1468   L 100.48,112.90394   L 102.72,118.66108   L 104.64,124.41822   L 106.24,130.17536   L 107.2,135.93251   L 107.84,142.00949   L 108.16,148.08647   L 107.52,153.84361   L 106.56,159.9206   L 104.64,165.99758   L 101.44,175.59281   L 98.24,185.18805   L 95.04,195.42297   L 92.48,205.33804   L 91.52,210.77534   L 90.56,215.8928   L 89.6,221.01026   L 88.96,226.44756   L 88.64,231.56502   L 88.64,237.00232   L 88.64,242.43962   L 88.96,247.87692   L 89.6,254.91343   L 90.88,261.94994   L 92.48,268.6666   L 94.4,275.38327   L 96.64,282.09993   L 99.2,288.8166   L 102.08,295.53326   L 104.96,301.93008   L 105.28,302.24993   L 105.6,302.56977   L 105.92,302.88961   L 106.24,303.20945   L 106.88,303.84913   L 107.52,304.16897   L 108.16,304.48881   L 108.48,304.48881   L 104.64,293.29437   L 101.12,281.46025   L 99.52,275.38327   L 97.92,269.30628   L 96.64,262.90946   L 95.68,256.83248   L 94.72,250.43565   L 94.08,244.35867   L 93.76,237.96185   L 93.76,231.56502   L 93.76,224.84836   L 94.4,218.45153   L 95.68,212.05471   L 96.96,205.65789   L 97.92,200.54043   L 99.52,195.42297   L 100.8,190.94519   L 102.72,186.14757   L 106.56,177.19202   L 110.4,168.23647   L 112,163.75869   L 113.92,159.28091   L 115.52,154.80314   L 116.8,150.00552   L 118.08,145.2079   L 119.04,140.41028   L 119.68,135.29282   L 120,129.85552   L 119.36,124.09838   L 118.72,118.66108   L 117.44,113.54362   L 115.52,108.42616   L 113.6,103.62855   L 111.36,98.830928   L 108.8,94.353151   L 106.24,89.875375   L 100.48,81.239663   L 94.4,72.923792   L 88.64,64.607921   L 83.2,55.972208   L 82.56,54.373002   L 81.92,52.773797   L 81.6,50.854749   L 81.6,49.255543   L 81.6,47.656337   L 81.92,46.376973   L 82.24,45.097608   L 82.88,43.818243   L 93.44,39.340467   L 103.68,34.223007   L 113.92,29.105548   L 124.16,24.307931   L 129.28,22.069042   L 134.72,20.149995   L 139.84,18.230948   L 145.28,16.951583   L 150.72,15.672218   L 156.48,15.032536   L 161.92,15.032536   L 167.68,15.352377   L 179.2,15.352377   L 190.4,15.352377   L 201.28,15.352377   L 212.48,15.352377   L 223.36,15.99206   L 234.56,16.951583   L 240,17.591266   L 245.44,18.230948   L 251.2,19.510313   L 256.64,20.469836   L 267.2,22.388883   L 278.08,24.307931   L 288.64,25.587295   L 299.2,26.86666   L 309.76,28.146025   L 320.32,28.785707   L 330.88,29.745231   L 341.44,30.384913   L 345.6,30.384913   L 349.76,30.384913   L 353.92,30.384913   L 358.08,30.384913   L 362.24,30.384913   L 366.08,30.384913   L 369.92,30.065072   L 374.08,29.745231   L 374.08,29.745231   L 373.76,29.42539   L 373.76,29.42539   L 373.76,29.42539   L 373.44,29.105548   L 373.44,29.105548   L 373.44,29.105548   L 373.12,29.105548  z "
     style="fill:#000000;fill-rule:evenodd;fill-opacity:1;stroke:none;" />
  <path
     id="path9"
     d="  M 359.68,37.741261   L 348.16,39.340467   L 336.64,39.980149   L 325.12,40.29999   L 313.6,40.29999   L 301.76,40.29999   L 289.92,39.980149   L 278.08,39.980149   L 266.56,40.29999   L 254.4,38.700784   L 242.56,37.421419   L 230.72,36.461896   L 218.88,36.142055   L 207.36,36.142055   L 196.16,36.781737   L 190.72,37.101578   L 185.28,37.741261   L 179.84,38.700784   L 174.4,39.660308   L 168.32,41.259514   L 162.56,43.498402   L 157.12,46.057132   L 152,48.935702   L 146.88,51.814273   L 142.08,55.012685   L 137.28,58.211097   L 132.16,61.409509   L 122.88,75.802362   L 119.04,73.563474   L 115.84,71.004744   L 112.64,68.126174   L 109.76,64.927762   L 107.2,61.409509   L 104.96,57.571414   L 103.36,53.413479   L 101.76,48.935702   L 101.44,48.29602   L 100.8,47.976179   L 100.8,47.976179   L 100.8,47.656337   L 100.48,47.656337   L 100.48,47.976179   L 100.16,47.976179   L 99.52,48.29602   L 100.48,53.73332   L 102.08,58.850779   L 104.32,63.648397   L 106.88,68.126174   L 112.32,76.442045   L 118.72,84.757916   L 121.6,88.915851   L 124.48,93.073787   L 127.36,97.231722   L 129.6,102.02934   L 131.52,106.82696   L 133.12,111.94442   L 133.76,114.82299   L 134.08,117.70156   L 134.4,120.58013   L 134.4,123.77854   L 134.08,129.53568   L 133.76,134.97298   L 133.12,140.09044   L 132.48,145.52774   L 130.56,155.76266   L 128.32,165.67774   L 125.76,175.59281   L 122.88,185.50789   L 120,195.42297   L 117.12,205.33804   L 115.52,211.73487   L 114.56,217.81185   L 113.6,224.20867   L 112.96,230.6055   L 112.64,237.32216   L 112.96,243.71899   L 113.28,249.79597   L 113.92,256.19279   L 114.88,262.26978   L 116.16,268.6666   L 118.08,274.42374   L 120,280.50072   L 122.24,286.25787   L 125.12,291.69517   L 128,297.13247   L 131.52,302.56977   L 133.44,304.48881   L 135.68,306.40786   L 137.92,308.00707   L 139.84,309.60627   L 142.08,311.20548   L 144.32,312.165   L 146.24,313.12453   L 148.48,313.76421   L 148.8,313.76421   L 149.44,313.44437   L 149.76,313.12453   L 150.4,312.80468   L 150.72,312.48484   L 151.36,311.84516   L 151.68,311.20548   L 152,310.5658   L 149.12,308.00707   L 146.56,305.44834   L 144.32,302.56977   L 142.08,299.6912   L 137.92,293.29437   L 134.4,286.57771   L 131.2,279.5412   L 128.32,271.86501   L 125.44,264.50867   L 122.88,256.83248   L 121.92,251.07533   L 120.96,245.63803   L 120.64,240.20073   L 120.64,234.76343   L 120.96,229.64598   L 121.6,224.20867   L 122.24,219.09122   L 123.2,213.65392   L 125.76,203.419   L 128.64,193.50392   L 131.84,183.90868   L 135.04,174.31345   L 136.96,168.55631   L 138.24,162.47933   L 139.84,156.40234   L 140.8,150.32536   L 141.76,143.92854   L 142.4,137.85155   L 143.04,131.45473   L 143.04,125.37775   L 142.72,119.30076   L 142.08,113.22378   L 140.8,107.46664   L 139.2,101.7095   L 136.96,96.272199   L 134.4,91.154739   L 132.8,88.915851   L 131.2,86.357122   L 129.28,84.118233   L 127.36,81.879345   L 130.88,78.680933   L 134.72,75.482521   L 138.88,72.60395   L 143.04,69.72538   L 147.52,67.16665   L 152,64.607921   L 156.8,62.049191   L 161.6,59.810303   L 166.4,57.571414   L 171.52,55.652367   L 176.64,53.73332   L 181.76,52.134114   L 192,49.255543   L 202.56,47.016655   L 214.4,46.057132   L 226.24,45.73729   L 238.08,45.417449   L 249.92,45.417449   L 261.44,45.417449   L 273.28,45.417449   L 285.12,45.097608   L 297.28,44.777767   L 305.6,44.457926   L 313.6,44.138084   L 321.6,43.818243   L 329.28,43.178561   L 336.96,42.538878   L 344.96,41.579355   L 352.64,39.980149   L 360.64,38.380943   L 360.64,38.380943   L 360.64,38.380943   L 360.32,38.061102   L 360,38.061102   L 360,38.061102   L 359.68,38.061102   L 359.68,37.741261   L 359.68,37.741261  z "
     style="fill:#000000;fill-rule:evenodd;fill-opacity:1;stroke:none;" />
  <path
     id="path11"
     d="  M 152.32,331.99516   L 152,330.71579   L 151.68,329.43643   L 151.36,328.15706   L 150.72,326.8777   L 149.76,325.59833   L 149.12,324.63881   L 147.84,323.67929   L 146.88,322.71976   L 144.64,326.8777   L 142.08,331.03563   L 139.52,334.87373   L 136.64,338.39198   L 133.44,341.91023   L 129.92,345.42849   L 126.4,348.6269   L 122.56,351.50547   L 118.4,354.38404   L 114.24,356.94277   L 109.76,359.5015   L 105.28,361.74039   L 100.48,363.65943   L 95.68,365.57848   L 90.56,367.49753   L 85.76,369.09673   L 80.96,369.73642   L 76.48,370.3761   L 71.68,370.69594   L 67.2,371.01578   L 62.4,371.01578   L 57.92,370.69594   L 53.12,370.3761   L 48.64,370.05626   L 44.16,369.09673   L 40,368.13721   L 35.52,367.17769   L 31.36,365.57848   L 27.52,363.97928   L 23.68,362.06023   L 20.16,359.82134   L 16.64,357.26261   L 14.72,355.6634   L 12.8,353.74436   L 11.52,351.82531   L 10.24,349.58642   L 8.96,347.34753   L 8.32,345.10865   L 7.68,342.86976   L 7.36,340.63087   L 7.04,338.07214   L 7.04,335.83325   L 7.04,333.27452   L 7.36,330.71579   L 8.32,325.91817   L 9.92,321.4404   L 11.84,318.88167   L 13.76,316.64278   L 15.68,314.40389   L 18.24,312.80468   L 20.48,311.20548   L 23.04,309.60627   L 25.6,308.32691   L 28.16,307.04754   L 33.6,305.1285   L 39.36,303.52929   L 44.8,301.93008   L 49.92,300.65072   L 54.72,300.65072   L 59.52,300.33088   L 64.32,300.33088   L 68.8,300.33088   L 73.28,300.33088   L 77.76,300.65072   L 82.24,300.97056   L 86.4,301.61024   L 84.8,300.33088   L 83.2,299.37135   L 81.28,298.73167   L 79.36,298.09199   L 75.2,297.45231   L 70.72,297.45231   L 65.92,297.45231   L 61.44,297.77215   L 56.64,297.77215   L 52.48,297.13247   L 46.08,298.09199   L 39.68,299.37135   L 33.28,300.97056   L 26.88,303.20945   L 24,304.48881   L 21.12,305.76818   L 18.56,307.36738   L 16,309.28643   L 13.76,311.52532   L 11.52,313.76421   L 9.92,316.32294   L 8.32,319.20151   L 6.08,323.67929   L 4.48,328.15706   L 3.52,333.27452   L 2.88,338.07214   L 2.88,340.63087   L 2.88,343.1896   L 3.2,345.74833   L 3.84,348.30706   L 4.48,350.54595   L 5.12,352.78483   L 6.4,355.02372   L 7.36,357.26261   L 8.32,358.22213   L 9.28,359.18166   L 10.24,360.14118   L 11.2,361.1007   L 11.84,362.06023   L 12.48,363.01975   L 12.8,363.97928   L 13.12,365.25864   L 17.28,368.13721   L 21.44,370.69594   L 25.6,373.25467   L 30.4,375.49356   L 34.88,377.41261   L 39.68,379.01181   L 44.48,380.61102   L 49.6,381.57054   L 54.72,382.53006   L 59.84,383.16975   L 64.96,383.80943   L 70.4,383.80943   L 75.84,383.80943   L 81.28,383.80943   L 86.72,383.16975   L 92.16,382.53006   L 99.84,380.61102   L 106.88,378.69197   L 113.92,376.45308   L 120.64,373.57451   L 127.04,370.69594   L 133.12,367.17769   L 135.68,365.25864   L 138.56,363.33959   L 141.12,361.1007   L 143.68,358.86182   L 152.32,331.99516  z "
     style="fill:#000000;fill-rule:evenodd;fill-opacity:1;stroke:none;" />
  <path
     id="path13"
     d="  M 125.76,334.23404   L 120.96,323.99913   L 113.92,329.75627   L 106.24,335.83325   L 102.08,339.03166   L 98.24,341.91023   L 94.08,344.7888   L 89.6,347.66737   L 85.12,349.90626   L 80.64,352.14515   L 75.84,354.0642   L 71.04,355.34356   L 65.92,356.62293   L 60.8,356.94277   L 55.36,356.94277   L 49.92,356.30309   L 47.36,356.30309   L 45.12,355.98325   L 42.88,355.6634   L 40.64,355.34356   L 38.72,355.02372   L 36.48,354.70388   L 34.56,354.70388   L 32.64,355.02372   L 38.08,357.26261   L 43.52,359.18166   L 49.28,360.14118   L 54.72,361.1007   L 60.8,361.42055   L 66.56,361.1007   L 72.32,360.78086   L 78.08,359.82134   L 84.16,358.54198   L 89.92,356.94277   L 95.36,354.70388   L 100.8,352.78483   L 106.24,350.2261   L 111.36,347.34753   L 116.16,344.46896   L 120.96,341.27055   L 121.92,340.31103   L 122.88,339.67134   L 123.52,338.71182   L 124.16,338.07214   L 124.8,337.43246   L 125.12,336.79277   L 125.76,336.15309   L 126.08,335.19357   L 126.08,335.19357   L 126.08,334.87373   L 126.08,334.87373   L 126.08,334.87373   L 125.76,334.55389   L 125.76,334.55389   L 125.76,334.23404   L 125.76,334.23404  z "
     style="fill:#000000;fill-rule:evenodd;fill-opacity:1;stroke:none;" />
</svg>
