<?xml version="1.0" encoding="UTF-8" standalone="no"?>
<svg
   xmlns:dc="http://purl.org/dc/elements/1.1/"
   xmlns:cc="http://creativecommons.org/ns#"
   xmlns:rdf="http://www.w3.org/1999/02/22-rdf-syntax-ns#"
   xmlns:svg="http://www.w3.org/2000/svg"
   xmlns="http://www.w3.org/2000/svg"
   id="svg17"
   height="82.600796mm"
   width="99.161599mm"
   version="1.0">
  <metadata
     id="metadata21">
    <rdf:RDF>
      <cc:Work
         rdf:about="">
        <dc:format>image/svg+xml</dc:format>
        <dc:type
           rdf:resource="http://purl.org/dc/dcmitype/StillImage" />
        <dc:title></dc:title>
      </cc:Work>
    </rdf:RDF>
  </metadata>
  <defs
     id="defs3">
    <pattern
       y="0"
       x="0"
       height="6"
       width="6"
       patternUnits="userSpaceOnUse"
       id="WMFhbasepattern" />
  </defs>
  <path
     id="path5"
     d="  M 99.831474,264.13043   L 98.551583,262.85134   L 96.631747,261.25249   L 94.391939,259.65364   L 91.512184,258.05479   L 87.992485,256.45593   L 83.83284,254.85708   L 79.673196,253.578   L 74.873605,252.29892   L 70.074015,251.33961   L 64.954453,250.70007   L 59.514917,250.70007   L 53.755409,250.70007   L 48.315874,251.65938   L 42.556365,252.93846   L 39.676611,253.89777   L 36.796857,254.85708   L 33.597131,256.13616   L 30.717377,257.41525   L 25.597814,260.29318   L 21.438169,262.85134   L 17.91847,265.08974   L 15.358688,267.00836   L 13.438852,268.92698   L 12.158962,270.52584   L 11.199044,271.80492   L 11.199044,273.084   L 11.199044,274.36308   L 11.519016,275.64216   L 12.158962,276.60148   L 12.798907,277.56079   L 14.39877,279.47941   L 15.358688,281.7178   L 15.998634,284.59574   L 16.958552,288.43298   L 18.238442,292.59   L 20.158278,296.42725   L 22.078114,300.26449   L 24.637896,303.4622   L 25.917787,304.74128   L 27.197677,305.38082   L 28.797541,306.02036   L 30.077431,306.34013   L 34.557049,306.34013   L 42.236393,306.6599   L 51.835573,306.6599   L 62.394671,306.6599   L 67.834207,306.34013   L 73.273742,306.02036   L 78.393305,305.38082   L 83.192895,304.42151   L 87.672512,303.4622   L 91.512184,302.18311   L 93.43202,301.54357   L 94.711911,300.58426   L 96.311775,299.62495   L 97.271693,298.66564   L 101.43134,295.14816   L 105.59098,291.95046   L 110.0706,288.75275   L 114.23024,285.87482   L 118.06992,283.31666   L 121.26964,280.11895   L 122.22956,278.5201   L 123.18948,276.92125   L 124.1494,275.00262   L 124.46937,273.084   L 124.78934,269.56652   L 124.78934,267.00836   L 124.78934,264.76997   L 124.78934,262.53157   L 124.78934,259.65364   L 124.46937,256.45593   L 124.46937,251.97915   L 124.46937,245.90351   L 124.78934,242.38603   L 125.42929,238.54879   L 126.38921,234.71154   L 127.6691,230.55452   L 129.26896,226.39751   L 131.1888,222.24049   L 133.4286,218.08348   L 135.66841,213.92646   L 140.468,205.9322   L 145.90754,198.57748   L 151.0271,192.18207   L 155.50672,187.06574   L 157.42656,184.82734   L 159.02642,182.58895   L 160.62628,180.35056   L 161.5862,178.11216   L 162.22615,175.87377   L 162.86609,173.95515   L 163.18606,171.71675   L 163.50604,169.47836   L 163.50604,165.32134   L 163.18606,161.16433   L 162.86609,157.00731   L 162.86609,152.8503   L 162.86609,149.01305   L 162.86609,145.1758   L 162.54612,141.65833   L 161.90617,138.14085   L 161.26623,134.30361   L 160.30631,130.14659   L 158.70645,125.6698   L 156.46664,120.87325   L 154.22683,116.07669   L 152.30699,112.55921   L 151.0271,109.36151   L 149.74721,106.48357   L 149.10727,103.60564   L 148.78729,100.40793   L 148.78729,96.250918   L 148.78729,90.81482   L 149.10727,87.936885   L 148.78729,85.058951   L 148.46732,82.181016   L 148.14735,79.622852   L 147.18743,74.186754   L 146.54748,69.390197   L 146.54748,66.832033   L 146.86746,64.273869   L 147.5074,61.715705   L 148.78729,59.157541   L 150.38716,56.919148   L 152.30699,54.360984   L 155.18675,51.80282   L 158.70645,49.244656   L 165.74584,44.448098   L 171.50535,41.250393   L 176.62492,38.69223   L 180.46459,37.093377   L 183.66431,36.134066   L 185.58415,35.494525   L 186.86404,35.174754   L 187.50399,35.174754   L 290.85516,47.006262   L 270.69688,66.512262   L 270.05694,68.430885   L 268.45707,73.547213   L 266.21726,80.901934   L 263.97746,89.855508   L 261.41767,98.809082   L 259.49784,107.44289   L 258.53792,110.96036   L 258.21795,114.15807   L 257.89797,116.71623   L 257.89797,118.63485   L 258.85789,122.4721   L 260.77773,127.9082   L 263.65748,134.30361   L 266.85721,141.65833   L 270.05694,149.01305   L 273.25666,155.72823   L 276.13642,161.80387   L 278.05625,166.60043   L 279.33614,171.07721   L 280.29606,175.87377   L 280.61603,180.9901   L 280.61603,186.10643   L 280.29606,190.90298   L 279.97609,195.37977   L 279.33614,199.21702   L 279.01617,202.09495   L 278.05625,205.29266   L 276.13642,209.1299   L 273.25666,213.92646   L 270.05694,218.72302   L 267.17718,223.51957   L 264.6174,227.35682   L 262.69756,229.91498   L 262.05762,230.8743   L 261.41767,230.55452   L 259.49784,229.59521   L 255.97814,228.6359   L 251.17855,227.35682   L 248.29879,227.03705   L 245.09907,226.71728   L 241.2594,226.39751   L 237.41972,226.39751   L 232.94011,226.39751   L 228.14052,227.03705   L 223.02095,227.67659   L 217.26144,228.6359   L 207.34229,230.8743   L 199.98292,232.79292   L 194.86336,234.072   L 191.34366,235.67085   L 189.10385,237.2697   L 187.50399,238.86856   L 185.90412,241.10695   L 184.30426,243.66511   L 183.34434,245.26397   L 183.02437,246.86282   L 182.7044,249.10121   L 182.7044,251.33961   L 183.34434,255.81639   L 184.30426,260.61295   L 185.90412,265.08974   L 187.18401,268.92698   L 188.14393,271.16538   L 188.4639,272.12469   L 189.42382,272.76423   L 191.9836,273.72354   L 195.5033,275.64216   L 199.66295,277.56079   L 203.82259,279.47941   L 207.34229,281.07826   L 209.90207,282.35734   L 210.86199,282.67711   L 211.82191,282.67711   L 214.70166,282.03757   L 218.54134,281.07826   L 223.34093,279.79918   L 228.78046,277.88056   L 234.53997,275.64216   L 237.41972,274.36308   L 239.9795,273.084   L 242.53929,271.48515   L 244.77909,269.8863   L 249.25871,266.68859   L 253.41836,263.17111   L 257.578,259.65364   L 261.0977,256.45593   L 263.97746,253.578   L 266.53724,251.01984   L 267.81713,249.42098   L 268.45707,249.10121   L 269.41699,247.82213   L 272.29674,244.62443   L 276.45639,239.82787   L 281.25598,234.39177   L 286.05557,228.95567   L 290.85516,223.51957   L 294.69483,219.04279   L 297.25461,215.84508   L 298.85448,213.60669   L 300.77431,210.40898   L 302.37418,206.57174   L 303.97404,202.73449   L 305.5739,198.57748   L 306.85379,194.42046   L 307.49374,190.58321   L 307.81371,187.06574   L 307.49374,182.58895   L 307.17377,176.51331   L 306.53382,168.83882   L 305.89388,160.84456   L 304.93396,152.8503   L 303.65407,145.1758   L 302.69415,139.10016   L 301.41426,134.62338   L 300.13437,131.42567   L 299.17445,127.58843   L 298.21453,123.43141   L 297.25461,119.27439   L 296.61467,115.11738   L 296.2947,111.28013   L 295.97472,107.44289   L 296.2947,103.92541   L 296.61467,99.768393   L 296.93464,94.012525   L 297.89456,87.617115   L 299.49442,80.582164   L 300.45434,77.064689   L 301.73423,73.547213   L 303.33409,70.029738   L 305.25393,66.832033   L 307.17377,63.954098   L 309.73355,61.076164   L 312.93327,58.83777   L 316.133,56.599377   L 324.13232,52.442361   L 332.45161,47.006262   L 341.41084,40.930623   L 349.73013,34.854984   L 357.0895,29.418885   L 363.16898,24.622328   L 367.00866,21.744393   L 368.60852,20.465311   L 364.44887,9.9128852   L 361.88909,9.9128852   L 354.84969,10.552426   L 344.93054,11.511738   L 333.7315,12.79082   L 321.89251,13.750131   L 310.69347,14.709443   L 302.37418,15.668754   L 297.25461,16.308295   L 292.45502,16.308295   L 284.77568,16.628066   L 275.1765,16.628066   L 264.93737,16.308295   L 254.37827,15.988525   L 244.77909,15.668754   L 237.41972,15.348984   L 233.26008,15.029213   L 230.06035,14.389672   L 224.94079,13.750131   L 218.86131,12.79082   L 211.18196,11.831508   L 202.86267,10.872197   L 193.58347,9.9128852   L 184.30426,9.2733443   L 174.70508,8.6338033   L 165.74584,8.3140328   L 158.0665,7.9942623   L 151.66705,7.6744918   L 146.22751,7.3547213   L 142.38784,7.0349508   L 139.50809,6.7151803   L 137.90822,6.7151803   L 137.26828,6.3954098   L 105.27101,40.610852   L 104.63106,42.529475   L 102.39126,47.965574   L 101.43134,51.80282   L 100.15145,56.279607   L 99.511501,61.395934   L 98.871556,67.151803   L 98.551583,73.227443   L 98.551583,79.942623   L 98.871556,83.460098   L 99.511501,86.657803   L 100.15145,90.495049   L 100.79139,94.012525   L 101.75131,97.53   L 103.0312,101.36725   L 104.63106,105.20449   L 106.23093,109.04174   L 108.47074,112.55921   L 110.71054,116.39646   L 113.27033,120.2337   L 115.83011,124.07095   L 121.58962,131.42567   L 126.06923,137.50131   L 129.90891,143.25718   L 133.10863,148.05374   L 135.34844,152.21075   L 137.26828,155.72823   L 138.54817,158.92593   L 139.18811,161.80387   L 139.50809,164.04226   L 139.50809,165.96089   L 139.18811,167.55974   L 138.54817,169.15859   L 136.9483,171.71675   L 135.34844,174.27492   L 133.10863,178.11216   L 129.58893,183.22849   L 125.42929,189.6239   L 120.94967,196.33908   L 116.47005,202.41472   L 112.95035,207.85082   L 110.39057,211.3683   L 109.43065,212.64738   L 99.511501,234.072   L 99.511501,235.35108   L 100.15145,237.90925   L 101.11136,241.74649   L 102.39126,246.54305   L 103.35117,251.01984   L 104.31109,254.85708   L 104.95104,257.73502   L 105.27101,258.69433   L 99.831474,264.13043  z "
     style="fill:#bcd6fc;fill-rule:evenodd;fill-opacity:1;stroke:none;" />
  <path
     id="path7"
     d="  M 374.688,9.2733443   L 374.36803,8.9535738   L 374.36803,8.6338033   L 374.04805,8.6338033   L 374.04805,8.6338033   L 374.04805,8.6338033   L 373.72808,8.3140328   L 373.40811,7.9942623   L 373.08814,7.3547213   L 365.72877,6.0756393   L 358.36939,5.4360984   L 351.32999,5.1163279   L 343.97062,4.7965574   L 329.25188,5.4360984   L 314.85311,6.7151803   L 300.13437,7.9942623   L 285.41562,8.9535738   L 278.05625,9.2733443   L 270.69688,9.2733443   L 263.33751,9.2733443   L 255.97814,8.6338033   L 249.57868,8.9535738   L 243.4992,9.2733443   L 237.41972,8.9535738   L 231.34024,8.6338033   L 219.50125,7.6744918   L 207.34229,6.0756393   L 195.5033,4.4767869   L 183.66431,2.8779344   L 171.82533,1.918623   L 159.98634,1.279082   L 172.78524,3.8372459   L 185.58415,6.0756393   L 198.38306,8.3140328   L 211.50194,10.232656   L 224.62082,11.831508   L 237.7397,12.79082   L 250.85858,13.430361   L 264.29743,13.430361   L 270.05694,14.389672   L 275.81644,14.709443   L 281.57595,15.029213   L 287.33546,14.709443   L 298.85448,14.069902   L 310.05352,12.79082   L 321.57254,11.511738   L 332.77158,10.872197   L 338.53109,10.552426   L 344.2906,10.552426   L 350.0501,11.191967   L 355.80961,11.831508   L 349.09019,17.907148   L 341.09087,23.982787   L 333.09155,30.058426   L 324.45229,36.134066   L 315.81303,42.849246   L 307.81371,49.884197   L 303.97404,53.721443   L 300.13437,57.878459   L 296.61467,62.035475   L 293.41494,66.512262   L 290.85516,69.390197   L 288.61535,72.587902   L 286.37554,75.785607   L 284.45571,78.983311   L 282.85584,82.500787   L 281.25598,86.338033   L 279.97609,89.855508   L 278.6962,93.692754   L 278.05625,97.53   L 277.41631,101.68702   L 277.09633,105.52426   L 277.09633,109.68128   L 277.09633,113.51852   L 277.73628,117.35577   L 278.37623,121.51279   L 279.65612,125.35003   L 283.49579,136.542   L 287.01549,148.05374   L 288.61535,153.80961   L 290.21521,159.56548   L 291.17513,165.64111   L 292.13505,171.39698   L 292.45502,176.83308   L 292.775,182.58895   L 292.13505,188.02505   L 291.17513,193.14138   L 290.53519,196.01931   L 289.57527,198.2577   L 288.61535,200.81587   L 287.33546,203.37403   L 286.05557,205.61243   L 284.45571,207.85082   L 282.53587,210.08921   L 280.61603,212.32761   L 281.25598,212.96715   L 282.2159,213.28692   L 283.49579,213.28692   L 284.77568,212.64738   L 285.7356,212.00784   L 287.01549,211.04852   L 288.29538,210.08921   L 289.2553,209.1299   L 292.45502,205.29266   L 295.0148,201.45541   L 296.93464,197.29839   L 298.5345,193.14138   L 299.81439,188.98436   L 300.45434,184.50757   L 301.09429,180.03079   L 301.09429,175.23423   L 300.77431,170.43767   L 300.45434,165.96089   L 300.13437,161.16433   L 299.49442,156.36777   L 297.89456,146.77466   L 296.2947,137.18154   L 294.69483,133.66407   L 293.09497,129.82682   L 291.81508,125.98957   L 290.85516,122.4721   L 290.21521,118.63485   L 289.57527,114.79761   L 289.2553,111.28013   L 288.93532,107.44289   L 289.2553,103.92541   L 289.57527,100.08816   L 289.89524,96.570689   L 290.85516,93.053213   L 291.81508,89.535738   L 293.41494,86.018262   L 294.69483,82.820557   L 296.61467,79.303082   L 300.13437,74.826295   L 303.65407,70.349508   L 307.17377,66.192492   L 311.01344,62.035475   L 319.01275,54.360984   L 327.01207,47.006262   L 335.33136,40.291082   L 343.65065,34.215443   L 351.96994,28.459574   L 360.28923,23.023475   L 362.52904,22.064164   L 364.44887,20.785082   L 366.36871,19.18623   L 368.28855,17.587377   L 370.20838,15.988525   L 371.80825,14.069902   L 373.40811,12.471049   L 374.688,10.552426   L 374.688,10.552426   L 374.688,10.232656   L 374.688,10.232656   L 374.688,9.9128852   L 374.688,9.5931148   L 374.688,9.5931148   L 374.688,9.2733443   L 374.688,9.2733443  z "
     style="fill:#000000;fill-rule:evenodd;fill-opacity:1;stroke:none;" />
  <path
     id="path9"
     d="  M 282.53587,38.372459   L 281.89592,37.732918   L 280.93601,36.773607   L 280.29606,35.814295   L 279.33614,35.174754   L 278.37623,34.535213   L 277.41631,33.895672   L 276.13642,33.256131   L 274.85653,32.936361   L 268.1371,34.215443   L 261.41767,35.174754   L 254.37827,35.494525   L 247.65885,35.814295   L 240.93942,35.494525   L 234.22,35.174754   L 227.1806,34.854984   L 220.46117,34.215443   L 207.02232,32.61659   L 193.26349,31.017738   L 186.54407,30.378197   L 179.82464,30.058426   L 173.10522,29.738656   L 166.38579,29.738656   L 177.26486,32.61659   L 189.42382,35.174754   L 202.22273,37.413148   L 215.66158,39.33177   L 229.10043,40.610852   L 242.53929,41.889934   L 255.97814,42.849246   L 268.77705,43.488787   L 270.69688,43.169016   L 272.61672,43.169016   L 274.21658,42.849246   L 276.13642,42.529475   L 277.73628,42.209705   L 279.33614,41.889934   L 280.93601,41.250393   L 282.53587,40.610852   L 282.53587,40.610852   L 282.53587,40.291082   L 282.53587,39.971311   L 282.53587,39.971311   L 282.53587,39.651541   L 282.53587,39.33177   L 282.53587,39.012   L 282.53587,38.372459  z "
     style="fill:#000000;fill-rule:evenodd;fill-opacity:1;stroke:none;" />
  <path
     id="path11"
     d="  M 280.93601,189.94367   L 281.25598,186.74597   L 281.57595,183.54826   L 281.57595,180.35056   L 281.57595,177.15285   L 280.93601,171.39698   L 279.65612,165.32134   L 278.05625,159.88525   L 275.81644,154.12938   L 273.57664,148.69328   L 271.33683,143.25718   L 266.21726,132.38498   L 261.41767,121.51279   L 259.49784,115.43715   L 258.21795,109.68128   L 256.93806,103.28587   L 256.61808,96.890459   L 257.89797,90.81482   L 259.49784,84.73918   L 261.73765,79.303082   L 263.65748,74.186754   L 265.89729,69.070426   L 268.1371,64.273869   L 270.37691,59.477311   L 272.61672,55.000525   L 272.29674,54.360984   L 272.29674,54.041213   L 271.6568,54.041213   L 271.33683,54.041213   L 270.69688,54.041213   L 270.05694,54.360984   L 269.41699,54.041213   L 269.09702,54.041213   L 266.21726,56.599377   L 263.33751,59.157541   L 260.77773,62.355246   L 258.53792,65.552951   L 255.97814,69.070426   L 254.0583,72.907672   L 251.81849,76.744918   L 250.21863,80.582164   L 248.61877,84.73918   L 247.33888,89.215967   L 246.05899,93.372984   L 245.09907,97.84977   L 244.45912,102.32656   L 244.13915,107.12311   L 243.81918,111.5999   L 244.13915,116.07669   L 245.41904,122.15233   L 247.0189,127.9082   L 249.25871,133.66407   L 251.81849,139.41993   L 257.25803,150.29213   L 263.01754,161.16433   L 265.57732,166.28066   L 267.49715,171.71675   L 269.41699,176.83308   L 270.37691,182.26918   L 270.69688,185.14711   L 270.69688,187.70528   L 270.69688,190.58321   L 270.37691,193.14138   L 269.73696,196.01931   L 268.77705,198.89725   L 267.81713,201.77518   L 266.53724,204.65311   L 263.97746,207.53105   L 261.73765,210.40898   L 259.49784,213.60669   L 257.25803,216.80439   L 255.33819,219.68233   L 253.41836,222.88003   L 251.49852,226.07774   L 249.57868,228.95567   L 246.05899,226.07774   L 242.21931,224.15911   L 238.37964,222.24049   L 233.90002,220.96141   L 229.74038,220.32187   L 225.26076,219.68233   L 220.78114,219.68233   L 215.98155,220.0021   L 211.50194,220.32187   L 206.70235,221.28118   L 202.22273,222.56026   L 197.42314,223.83934   L 192.94352,225.4382   L 188.4639,227.03705   L 184.30426,228.95567   L 180.14461,230.8743   L 176.94489,233.75223   L 174.38511,236.94993   L 172.46527,240.14764   L 170.86541,243.34534   L 169.90549,246.86282   L 169.26554,250.3803   L 169.26554,254.21754   L 169.58552,258.05479   L 171.18538,260.61295   L 172.46527,262.85134   L 174.06513,265.08974   L 175.665,267.00836   L 177.26486,268.92698   L 179.1847,270.52584   L 181.10453,272.12469   L 183.34434,273.40377   L 187.50399,275.96193   L 192.30358,278.20033   L 197.10317,280.43872   L 202.5427,282.35734   L 206.70235,282.67711   L 210.86199,282.35734   L 215.02164,282.03757   L 219.18128,281.7178   L 223.02095,281.07826   L 227.1806,280.11895   L 231.02027,279.15964   L 234.85994,277.88056   L 238.69961,276.60148   L 242.53929,275.00262   L 246.05899,273.40377   L 249.57868,271.80492   L 252.77841,269.8863   L 255.97814,267.6479   L 258.85789,265.40951   L 262.05762,263.17111   L 262.69756,261.57226   L 263.65748,260.29318   L 264.29743,258.69433   L 264.93737,257.41525   L 265.57732,256.13616   L 265.89729,254.85708   L 266.53724,253.578   L 266.85721,251.97915   L 264.29743,245.58374   L 263.97746,245.26397   L 263.65748,244.62443   L 263.01754,244.30466   L 262.37759,243.66511   L 261.73765,243.34534   L 261.0977,243.02557   L 260.13778,243.02557   L 259.17787,243.02557   L 255.97814,246.54305   L 252.45844,249.74075   L 248.93874,252.93846   L 245.41904,255.81639   L 241.57937,258.69433   L 237.7397,261.25249   L 233.90002,263.81066   L 229.74038,265.72928   L 225.58073,267.6479   L 221.42109,269.24675   L 216.94147,270.84561   L 212.46185,271.80492   L 207.66226,272.44446   L 202.86267,273.084   L 197.74311,273.40377   L 192.62355,273.084   L 189.42382,271.48515   L 186.2241,269.8863   L 183.66431,268.28744   L 181.42451,266.36882   L 179.50467,264.13043   L 177.58483,261.57226   L 175.98497,259.0141   L 174.70508,255.49662   L 175.34502,252.61869   L 175.665,249.42098   L 176.30494,246.54305   L 176.94489,243.66511   L 177.58483,241.10695   L 178.22478,238.54879   L 179.1847,235.99062   L 180.14461,233.75223   L 183.98429,231.19407   L 188.14393,229.27544   L 192.62355,227.67659   L 196.78319,226.07774   L 201.26281,224.79866   L 206.0624,223.83934   L 210.54202,223.1998   L 215.02164,222.88003   L 219.82123,222.88003   L 224.30084,222.88003   L 228.78046,223.51957   L 233.26008,224.15911   L 237.41972,225.4382   L 241.89934,227.03705   L 245.73901,228.6359   L 249.57868,230.8743   L 250.85858,230.55452   L 252.13847,230.23475   L 253.41836,229.59521   L 254.37827,228.95567   L 255.33819,227.99636   L 256.29811,227.35682   L 257.25803,226.39751   L 258.21795,225.4382   L 260.77773,220.96141   L 263.97746,216.80439   L 267.49715,212.64738   L 271.01685,208.81013   L 274.21658,204.65311   L 277.09633,200.17633   L 278.37623,197.93793   L 279.33614,195.37977   L 280.29606,192.82161   L 280.93601,189.94367  z "
     style="fill:#000000;fill-rule:evenodd;fill-opacity:1;stroke:none;" />
  <path
     id="path13"
     d="  M 161.26623,138.78039   L 159.98634,134.62338   L 158.38647,130.46636   L 156.78661,126.30934   L 154.86677,122.15233   L 150.70713,114.15807   L 146.86746,105.84403   L 144.94762,101.68702   L 143.34776,97.53   L 141.74789,93.053213   L 140.78798,88.576426   L 140.14803,84.099639   L 139.50809,79.303082   L 139.82806,74.186754   L 140.468,69.070426   L 141.74789,64.91341   L 143.02778,60.756393   L 144.62765,57.238918   L 145.90754,53.401672   L 147.5074,49.884197   L 149.10727,46.366721   L 150.70713,42.849246   L 152.30699,39.33177   L 151.98702,39.33177   L 151.66705,39.012   L 151.34707,38.69223   L 151.34707,38.69223   L 151.0271,38.372459   L 151.0271,38.372459   L 150.70713,38.052689   L 150.38716,38.052689   L 148.46732,38.69223   L 146.86746,39.651541   L 144.94762,40.610852   L 143.34776,41.889934   L 140.468,44.767869   L 137.58825,47.965574   L 135.02847,51.483049   L 133.10863,55.000525   L 130.86882,58.518   L 129.26896,61.715705   L 127.34912,66.192492   L 125.74926,70.349508   L 124.78934,74.826295   L 124.46937,78.983311   L 124.1494,83.140328   L 124.46937,87.297344   L 125.10932,91.774131   L 125.74926,95.611377   L 126.70918,99.768393   L 127.98907,103.92541   L 129.26896,108.08243   L 130.86882,111.91967   L 134.06855,119.91393   L 137.58825,127.9082   L 140.78798,132.06521   L 143.9877,136.542   L 146.54748,141.33856   L 148.14735,146.45489   L 149.10727,149.01305   L 149.42724,151.57121   L 149.74721,154.12938   L 149.74721,156.68754   L 149.74721,159.2457   L 149.10727,162.12364   L 148.46732,164.6818   L 147.5074,167.55974   L 145.90754,171.71675   L 143.9877,175.87377   L 141.42792,179.71102   L 138.86814,183.54826   L 132.78866,190.90298   L 126.38921,197.93793   L 123.50945,201.77518   L 120.6297,205.61243   L 118.06992,209.44967   L 115.83011,213.60669   L 113.91027,217.7637   L 112.63038,222.56026   L 111.99044,224.79866   L 111.67046,227.35682   L 111.67046,229.91498   L 111.67046,232.47315   L 112.95035,228.95567   L 114.55022,225.4382   L 116.79003,221.92072   L 119.34981,218.08348   L 124.78934,210.40898   L 131.1888,202.73449   L 137.58825,194.74023   L 143.9877,187.06574   L 146.86746,183.22849   L 149.42724,179.39125   L 151.98702,175.554   L 153.90686,172.03652   L 156.46664,168.19928   L 158.0665,164.04226   L 159.34639,159.88525   L 160.30631,155.72823   L 160.62628,151.25144   L 160.94625,147.09443   L 160.94625,142.93741   L 161.26623,138.78039  z "
     style="fill:#000000;fill-rule:evenodd;fill-opacity:1;stroke:none;" />
  <path
     id="path15"
     d="  M 134.06855,164.36203   L 134.7085,159.88525   L 135.02847,156.048   L 134.7085,152.21075   L 133.74858,148.37351   L 132.46869,144.85603   L 130.86882,141.33856   L 129.26896,138.14085   L 127.02915,134.62338   L 122.54953,128.22797   L 117.42997,122.15233   L 112.63038,115.75692   L 108.15076,109.04174   L 106.23093,106.80334   L 104.63106,104.56495   L 103.35117,102.32656   L 102.39126,100.08816   L 101.11136,97.84977   L 100.15145,95.931148   L 98.871556,94.012525   L 97.591665,91.774131   L 95.351857,85.378721   L 93.751993,79.303082   L 92.15213,72.907672   L 91.192212,66.512262   L 90.872239,63.634328   L 90.872239,60.436623   L 91.192212,57.558689   L 91.512184,54.360984   L 92.15213,51.483049   L 93.112048,48.605115   L 94.071966,45.72718   L 95.671829,43.169016   L 99.191529,39.33177   L 102.71123,35.174754   L 106.23093,31.337508   L 109.75063,27.500262   L 112.95035,23.663016   L 116.15008,20.145541   L 119.02983,16.628066   L 121.90959,13.750131   L 122.54953,13.11059   L 123.18948,12.471049   L 123.82942,11.511738   L 124.1494,10.872197   L 124.78934,9.9128852   L 125.10932,8.6338033   L 125.74926,7.6744918   L 126.38921,6.3954098   L 126.06923,5.7558689   L 126.06923,5.4360984   L 125.74926,5.1163279   L 125.42929,4.7965574   L 124.78934,4.4767869   L 124.46937,4.1570164   L 123.82942,4.1570164   L 123.50945,3.8372459   L 120.30973,5.4360984   L 117.11,7.3547213   L 114.23024,9.2733443   L 111.03052,11.831508   L 104.95104,16.947836   L 98.871556,23.023475   L 93.43202,29.099115   L 87.992485,35.494525   L 83.512868,41.889934   L 79.993168,47.965574   L 78.393305,52.12259   L 77.113414,56.279607   L 76.473469,60.756393   L 75.833523,64.91341   L 75.833523,69.070426   L 75.833523,73.227443   L 76.473469,77.384459   L 77.113414,81.541475   L 77.75336,85.698492   L 79.03325,89.855508   L 80.313141,93.692754   L 81.593032,97.84977   L 84.792758,105.20449   L 88.312458,112.55921   L 90.552266,116.07669   L 93.112048,119.59416   L 95.991802,123.11164   L 98.871556,126.62911   L 105.27101,133.3443   L 111.35049,140.69902   L 113.91027,144.21649   L 116.47005,148.05374   L 118.38989,151.89098   L 119.98975,155.72823   L 120.6297,157.96662   L 121.26964,159.88525   L 121.58962,162.12364   L 121.58962,164.04226   L 121.58962,166.28066   L 121.26964,168.51905   L 120.94967,170.75744   L 120.30973,173.31561   L 118.38989,177.47262   L 116.15008,181.62964   L 113.27033,185.46689   L 110.39057,189.30413   L 104.31109,196.65885   L 98.231611,204.01357   L 95.671829,207.85082   L 93.112048,211.68807   L 90.872239,215.52531   L 88.952403,219.68233   L 87.672512,224.15911   L 87.032567,228.6359   L 86.712594,231.19407   L 87.032567,233.75223   L 87.032567,235.99062   L 87.672512,238.86856   L 88.312458,240.78718   L 88.952403,243.02557   L 89.272376,245.26397   L 89.912321,247.18259   L 90.232294,249.10121   L 90.552266,251.33961   L 90.872239,253.25823   L 91.192212,254.85708   L 87.35254,253.25823   L 83.512868,251.65938   L 79.673196,250.3803   L 75.513551,249.10121   L 71.033933,248.1419   L 66.554316,247.18259   L 62.074699,246.54305   L 57.595081,246.22328   L 53.115464,245.90351   L 48.635846,245.90351   L 44.156229,246.22328   L 39.676611,246.86282   L 35.196994,247.82213   L 30.717377,249.10121   L 26.237759,250.3803   L 22.078114,252.29892   L 18.558415,254.53731   L 15.038716,256.7757   L 11.838989,259.0141   L 8.9592348,261.57226   L 7.6793442,262.85134   L 6.3994535,264.4502   L 5.4395354,266.04905   L 4.4796174,267.6479   L 3.5196994,269.56652   L 2.8797541,271.48515   L 2.5597814,273.72354   L 2.2398087,275.96193   L 2.5597814,279.47941   L 3.1997267,282.99689   L 4.1596447,286.51436   L 5.1195628,289.3923   L 6.7194261,292.27023   L 8.3192895,294.82839   L 10.559098,297.06679   L 13.11888,298.98541   L 18.878388,301.2238   L 24.637896,302.82266   L 30.397404,304.10174   L 36.156912,305.06105   L 42.236393,305.38082   L 47.995901,305.38082   L 53.755409,305.06105   L 59.83489,304.42151   L 65.594398,303.4622   L 71.353906,302.18311   L 76.793442,300.58426   L 82.55295,298.66564   L 87.992485,296.74702   L 93.112048,294.50862   L 98.231611,291.95046   L 103.35117,289.3923   L 106.23093,287.1539   L 109.11068,284.91551   L 111.67046,282.35734   L 114.23024,279.79918   L 116.47005,276.92125   L 118.38989,273.72354   L 119.66978,270.52584   L 120.6297,267.00836   L 120.6297,266.36882   L 120.30973,266.04905   L 120.30973,265.40951   L 120.30973,265.08974   L 119.98975,264.76997   L 119.98975,264.4502   L 119.98975,264.13043   L 119.66978,264.13043   L 119.34981,263.81066   L 118.70986,263.17111   L 118.06992,262.85134   L 117.42997,262.85134   L 116.47005,262.53157   L 115.83011,262.53157   L 114.87019,262.53157   L 114.23024,262.53157   L 111.03052,267.00836   L 107.51082,271.16538   L 103.99112,275.00262   L 99.831474,278.5201   L 95.671829,282.03757   L 91.192212,284.91551   L 86.392622,287.79344   L 81.593032,290.03184   L 76.793442,292.27023   L 71.673879,294.18885   L 66.234343,296.10748   L 60.794808,297.38656   L 55.355272,298.66564   L 49.915737,299.30518   L 44.156229,299.94472   L 38.396721,300.26449   L 34.557049,299.94472   L 30.717377,299.30518   L 26.557732,298.66564   L 22.71806,298.0261   L 18.878388,296.74702   L 15.678661,295.14816   L 14.078798,294.18885   L 12.798907,292.90977   L 11.519016,291.63069   L 10.559098,290.03184   L 9.9191529,286.51436   L 9.2792075,282.99689   L 8.9592348,279.15964   L 8.6392622,275.64216   L 8.9592348,272.12469   L 9.2792075,268.92698   L 10.239126,266.04905   L 11.519016,263.17111   L 13.758825,261.25249   L 15.998634,259.33387   L 18.558415,257.73502   L 20.798224,256.13616   L 23.677978,254.85708   L 26.237759,253.578   L 29.117513,252.61869   L 31.997267,251.65938   L 37.756775,250.3803   L 43.836256,249.10121   L 49.595764,248.46167   L 55.675245,247.82213   L 60.474835,248.46167   L 64.954453,249.42098   L 69.754043,250.70007   L 74.23366,251.97915   L 78.393305,253.25823   L 82.55295,255.17685   L 86.392622,256.7757   L 90.232294,258.69433   L 91.192212,258.69433   L 91.832157,258.37456   L 92.15213,258.05479   L 92.792075,257.73502   L 93.112048,257.09548   L 93.751993,256.7757   L 94.391939,256.13616   L 95.351857,255.81639   L 94.711911,249.74075   L 93.751993,243.34534   L 93.112048,236.63016   L 92.792075,230.23475   L 92.792075,227.03705   L 93.112048,223.83934   L 93.43202,220.96141   L 94.391939,217.7637   L 95.671829,214.88577   L 97.271693,212.32761   L 99.191529,209.76944   L 101.75131,207.21128   L 106.87087,202.09495   L 111.99044,196.97862   L 116.79003,191.8623   L 120.94967,186.74597   L 125.10932,181.62964   L 128.62901,176.19354   L 130.22888,173.31561   L 131.82874,170.43767   L 133.10863,167.23997   L 134.06855,164.36203  z "
     style="fill:#000000;fill-rule:evenodd;fill-opacity:1;stroke:none;" />
</svg>
