<?xml version="1.0" encoding="UTF-8" standalone="no"?>
<svg
   xmlns:dc="http://purl.org/dc/elements/1.1/"
   xmlns:cc="http://creativecommons.org/ns#"
   xmlns:rdf="http://www.w3.org/1999/02/22-rdf-syntax-ns#"
   xmlns:svg="http://www.w3.org/2000/svg"
   xmlns="http://www.w3.org/2000/svg"
   id="svg85"
   height="60.299602mm"
   width="102.2604mm"
   version="1.0">
  <metadata
     id="metadata89">
    <rdf:RDF>
      <cc:Work
         rdf:about="">
        <dc:format>image/svg+xml</dc:format>
        <dc:type
           rdf:resource="http://purl.org/dc/dcmitype/StillImage" />
        <dc:title></dc:title>
      </cc:Work>
    </rdf:RDF>
  </metadata>
  <defs
     id="defs3">
    <pattern
       y="0"
       x="0"
       height="6"
       width="6"
       patternUnits="userSpaceOnUse"
       id="WMFhbasepattern" />
  </defs>
  <path
     id="path5"
     d="  M 129.86623,109.10467   L 129.22649,110.06454   L 128.58675,111.0244   L 128.26689,111.66431   L 127.94702,112.30422   L 127.94702,112.62418  "
     style="fill:none;stroke:#000000;stroke-width:0.31986755px;stroke-linecap:round;stroke-linejoin:round;stroke-miterlimit:4;stroke-dasharray:none;stroke-opacity:1;" />
  <path
     id="path7"
     d="  M 35.825166,38.394607   L 162.81258,103.34548   L 164.09205,95.346607   L 158.6543,92.786966   L 144.58013,85.747955   L 124.74834,75.509393   L 101.71788,63.991011   L 78.687417,52.472629   L 58.855629,42.554022   L 44.781457,35.515011   L 39.343709,32.635416   L 35.825166,38.394607  z "
     style="fill:#f0d100;fill-rule:evenodd;fill-opacity:1;stroke:none;" />
  <path
     id="path9"
     d="  M 262.61126,106.22508   L 294.27815,118.06342   L 312.83046,122.86274   L 312.83046,123.50265   L 313.4702,124.46252   L 314.4298,125.74234   L 315.70927,127.34211   L 316.66887,128.94189   L 317.62848,130.22171   L 318.26821,131.18157   L 318.26821,131.50153   L 318.90795,131.50153   L 320.50728,131.18157   L 322.74636,130.86162   L 324.98543,130.54166   L 327.54437,130.22171   L 329.78344,129.90175   L 331.06291,129.5818   L 331.70265,129.26184   L 331.70265,129.90175   L 331.70265,131.50153   L 331.38278,133.42126   L 331.38278,135.9809   L 331.38278,138.22058   L 331.06291,140.14031   L 331.06291,141.42013   L 331.06291,142.06004   L 331.70265,142.06004   L 333.30199,141.74009   L 335.86093,141.42013   L 338.41987,140.78022   L 341.29868,140.14031   L 343.53775,139.82036   L 345.13709,139.5004   L 345.77682,139.18045   L 345.45695,140.14031   L 344.49735,142.38   L 343.21788,145.57955   L 341.93841,149.41901   L 340.65894,152.93852   L 339.37947,156.13807   L 338.41987,158.37775   L 338.1,159.01766   L 338.73974,159.01766   L 340.65894,158.69771   L 343.53775,158.0578   L 346.73642,157.41789   L 350.25497,156.77798   L 352.81391,156.13807   L 355.05298,155.81811   L 355.69272,155.49816   L 355.37285,156.45802   L 354.73311,158.69771   L 353.45364,161.5773   L 352.17417,165.09681   L 350.8947,168.61631   L 349.61523,171.81587   L 348.9755,173.7356   L 348.65563,174.69546   L 348.9755,173.41564   L 350.57483,169.57618   L 352.49404,164.77685   L 354.73311,158.69771   L 356.97219,152.93852   L 358.89139,147.81924   L 360.17086,144.29973   L 360.49073,142.69996   L 360.49073,142.38   L 359.85099,141.10018   L 359.21126,139.5004   L 358.57152,137.58067   L 357.61192,135.66094   L 356.97219,134.06117   L 356.65232,132.78135   L 356.33245,132.14144   L 356.65232,131.82148   L 357.29205,130.54166   L 358.25166,128.62193   L 359.21126,126.38225   L 360.17086,124.14256   L 361.13046,122.22283   L 361.7702,120.62306   L 362.09007,120.3031   L 361.13046,120.62306   L 358.25166,121.58292   L 354.41325,122.86274   L 349.9351,124.14256   L 345.77682,125.74234   L 341.93841,126.7022   L 339.0596,127.66207   L 338.1,127.98202   L 337.46026,127.66207   L 335.54106,127.34211   L 333.30199,126.38225   L 330.42318,125.42238   L 327.54437,124.78247   L 324.98543,123.82261   L 323.38609,123.1827   L 322.74636,122.86274   L 321.46689,122.54279   L 318.90795,121.58292   L 315.3894,120.3031   L 310.91126,118.38337   L 306.75298,116.7836   L 302.91457,115.50378   L 300.35563,114.22396   L 299.39603,113.904   L 298.11656,113.26409   L 294.59801,111.98427   L 289.48013,109.74458   L 283.72252,107.18494   L 278.28477,104.94526   L 273.16689,102.70557   L 269.64834,101.1058   L 268.36887,100.46589   L 268.04901,100.78584   L 267.72914,101.42575   L 266.76954,102.38562   L 265.80993,103.34548   L 264.85033,104.6253   L 263.89073,105.26521   L 263.25099,105.90512   L 262.61126,106.22508  z "
     style="fill:#5ea8ba;fill-rule:evenodd;fill-opacity:1;stroke:none;" />
  <path
     id="path11"
     d="  M 313.4702,207.33088   L 351.53444,190.37326   L 332.34238,189.09344   L 339.37947,173.41564   L 322.74636,165.09681   L 336.82053,147.81924   L 325.3053,150.69883   L 326.90464,135.34099   L 315.3894,137.26072   L 309.31192,125.42238   L 308.99205,125.10243   L 308.03245,125.10243   L 306.75298,125.10243   L 305.47351,125.10243   L 304.19404,124.78247   L 302.91457,124.78247   L 301.95497,124.78247   L 301.6351,124.46252   L 300.6755,124.46252   L 298.11656,123.50265   L 294.59801,122.22283   L 290.43974,120.94301   L 286.28146,119.66319   L 282.44305,118.70333   L 280.20397,117.74346   L 279.24437,117.42351   L 277.64503,116.7836   L 273.48675,114.86387   L 268.04901,112.30422   L 261.33179,109.10467   L 254.93444,105.90512   L 249.49669,103.34548   L 245.33841,101.42575   L 244.05894,100.46589   L 243.73907,100.78584   L 243.41921,101.42575   L 243.09934,102.38562   L 242.77947,103.34548   L 242.4596,104.6253   L 242.13974,105.26521   L 241.81987,105.90512   L 241.81987,106.22508   L 243.41921,107.18494   L 247.25762,109.10467   L 253.01523,112.30422   L 259.41258,115.82373   L 265.80993,119.34324   L 271.56755,122.22283   L 275.40596,124.46252   L 277.0053,125.42238   L 277.64503,126.06229   L 279.24437,128.30198   L 281.80331,131.18157   L 284.68212,134.38112   L 287.56093,137.90063   L 290.11987,140.78022   L 291.71921,143.01991   L 292.35894,143.65982   L 293.31854,145.2596   L 294.91788,149.41901   L 297.79669,155.1782   L 300.6755,161.89726   L 303.87417,168.29636   L 306.75298,174.05555   L 308.67219,178.21497   L 309.31192,179.81474   L 313.4702,207.33088  z "
     style="fill:#f0d100;fill-rule:evenodd;fill-opacity:1;stroke:none;" />
  <path
     id="path13"
     d="  M 228.38543,127.66207   L 250.45629,142.38   L 265.80993,159.33762   L 265.80993,160.29748   L 265.49007,161.89726   L 264.85033,164.77685   L 264.53046,167.65645   L 263.89073,170.53604   L 263.57086,173.09569   L 263.25099,175.01542   L 262.93113,175.65533   L 260.69205,174.69546   L 254.93444,172.45578   L 246.29801,169.57618   L 236.70199,165.73672   L 227.10596,162.21721   L 218.46954,159.01766   L 212.71192,156.77798   L 210.47285,155.81811   L 209.83311,155.81811   L 208.87351,156.13807   L 207.59404,156.13807   L 205.67483,156.13807   L 204.0755,156.45802   L 202.79603,156.45802   L 201.51656,156.45802   L 201.19669,156.45802   L 199.91722,156.13807   L 196.71854,154.85825   L 191.92053,152.93852   L 186.80265,151.01879   L 181.3649,148.7791   L 176.88675,147.17933   L 173.68808,145.89951   L 172.40861,145.2596   L 171.12914,144.61969   L 167.6106,142.38   L 162.81258,139.5004   L 157.37483,136.30085   L 151.93709,132.78135   L 147.45894,129.90175   L 143.9404,127.98202   L 142.66093,127.02216   L 142.98079,126.7022   L 142.98079,126.06229   L 143.62053,125.10243   L 144.26026,123.82261   L 144.58013,122.86274   L 145.21987,121.58292   L 145.53974,120.94301   L 145.53974,120.62306   L 143.9404,119.66319   L 139.46225,116.7836   L 133.38477,112.94413   L 126.02781,108.46476   L 118.99073,103.66544   L 112.91325,99.825978   L 108.4351,96.946382   L 106.83576,95.986517   L 106.19603,95.026652   L 104.27682,92.786966   L 101.39801,89.267461   L 98.199338,85.428   L 95.32053,81.588539   L 92.441722,78.069034   L 90.522517,75.509393   L 89.882781,74.869483   L 89.562914,74.229573   L 88.603311,73.269708   L 87.323841,71.989888   L 86.044371,70.390112   L 84.445033,69.110292   L 83.48543,67.510517   L 82.525828,66.550652   L 82.20596,66.230697   L 81.886093,66.870607   L 81.566225,67.830472   L 80.92649,69.750202   L 80.286755,71.669933   L 79.64702,73.589663   L 79.327152,75.189438   L 78.687417,76.469258   L 78.687417,76.789213   L 79.007285,77.429124   L 79.966887,79.348854   L 81.566225,81.908494   L 83.165563,85.108045   L 84.764901,87.98764   L 86.364238,90.547281   L 87.323841,92.467011   L 87.963576,93.106921   L 88.923179,94.066787   L 91.482119,95.986517   L 95.000662,98.866112   L 99.478808,102.06566   L 103.63709,105.26521   L 107.4755,108.14481   L 110.03444,110.06454   L 110.99404,110.70445   L 111.95364,111.66431   L 114.83245,113.58404   L 118.67086,116.46364   L 122.82914,119.66319   L 127.30728,122.86274   L 131.1457,125.74234   L 134.0245,127.66207   L 134.98411,128.30198   L 135.94371,128.94189   L 138.82252,130.54166   L 142.66093,133.1013   L 147.45894,135.9809   L 151.93709,138.54054   L 155.7755,140.78022   L 158.6543,142.69996   L 159.61391,143.33987   L 161.21325,143.97978   L 165.37152,146.21946   L 171.12914,149.09906   L 177.84636,152.29861   L 184.56358,155.81811   L 190.64106,158.69771   L 194.79934,160.61744   L 196.39868,161.5773   L 197.03841,161.89726   L 199.27748,163.49703   L 202.15629,165.09681   L 205.67483,167.33649   L 209.19338,169.25622   L 212.39205,171.17596   L 214.31126,172.45578   L 215.27086,172.77573   L 216.8702,173.41564   L 221.02848,175.01542   L 227.10596,177.2551   L 233.82318,180.1347   L 240.5404,182.69434   L 246.61788,184.93402   L 250.77616,186.5338   L 252.3755,186.85375   L 253.01523,187.17371   L 254.93444,187.49366   L 257.49338,187.81362   L 260.69205,188.45353   L 263.57086,189.09344   L 266.1298,189.41339   L 268.04901,189.73335   L 268.68874,189.73335   L 269.00861,189.41339   L 269.64834,188.45353   L 270.92781,187.17371   L 272.20728,185.57393   L 273.48675,183.97416   L 274.76623,182.69434   L 275.40596,181.73447   L 275.72583,181.41452   L 276.0457,181.09456   L 276.36556,180.1347   L 277.0053,178.85488   L 277.64503,177.2551   L 277.9649,175.65533   L 278.60464,174.37551   L 278.9245,173.41564   L 279.24437,172.77573   L 278.9245,172.13582   L 278.28477,170.21609   L 277.32517,167.65645   L 276.36556,164.77685   L 275.40596,161.89726   L 274.44636,159.01766   L 273.80662,157.41789   L 273.80662,156.45802   L 272.84702,155.81811   L 271.24768,154.53829   L 268.36887,152.29861   L 265.49007,149.41901   L 262.61126,146.85937   L 260.05232,144.61969   L 258.13311,143.01991   L 257.49338,142.38   L 256.21391,141.74009   L 253.3351,139.5004   L 249.17682,136.30085   L 244.37881,132.78135   L 239.58079,128.94189   L 235.42252,126.06229   L 232.54371,123.82261   L 231.26424,122.86274   L 228.38543,127.66207  z "
     style="fill:#f0d100;fill-rule:evenodd;fill-opacity:1;stroke:none;" />
  <path
     id="path15"
     d="  M 322.74636,222.68872   L 322.74636,222.68872   L 322.74636,222.68872   L 322.74636,222.68872   L 322.74636,222.36876   L 322.74636,222.36876   L 322.74636,222.36876   L 323.06623,222.36876   L 323.06623,222.04881   L 306.75298,224.60845   L 307.07285,221.72885   L 307.07285,218.84926   L 306.75298,215.64971   L 306.43311,212.45016   L 305.79338,209.25061   L 305.15364,206.05106   L 304.51391,202.85151   L 303.5543,199.97191   L 303.23444,199.332   L 302.91457,199.332   L 302.5947,199.332   L 302.27483,199.65196   L 301.95497,200.29187   L 301.95497,200.61182   L 301.6351,201.25173   L 301.6351,201.57169   L 301.6351,204.77124   L 301.31523,207.65083   L 300.99536,210.53043   L 300.35563,213.41002   L 299.71589,215.96966   L 299.07616,218.84926   L 298.43642,221.72885   L 298.11656,224.60845   L 298.43642,225.24836   L 299.07616,225.88827   L 299.39603,226.52818   L 300.35563,226.84813   L 300.99536,227.48804   L 301.6351,227.48804   L 302.5947,227.808   L 303.23444,227.808   L 322.74636,222.68872  z "
     style="fill:#000000;fill-rule:evenodd;fill-opacity:1;stroke:none;" />
  <path
     id="path17"
     d="  M 329.78344,208.93065   L 334.90132,207.33088   L 339.69934,205.09119   L 344.17748,202.85151   L 348.65563,199.97191   L 352.81391,197.09231   L 356.97219,193.89276   L 360.8106,190.37326   L 364.32914,186.5338   L 367.52781,182.69434   L 370.72649,178.53492   L 373.92517,174.37551   L 376.48411,170.21609   L 379.04305,165.73672   L 381.60199,161.25735   L 383.52119,156.77798   L 385.76026,152.29861   L 385.4404,149.41901   L 385.4404,146.53942   L 385.12053,143.97978   L 385.12053,141.10018   L 384.80066,138.86049   L 383.84106,136.30085   L 382.88146,134.38112   L 381.28212,132.46139   L 367.52781,132.78135   L 367.52781,129.5818   L 367.84768,126.38225   L 368.16755,123.1827   L 368.48742,119.98315   L 368.80728,116.46364   L 368.80728,112.94413   L 368.48742,109.42463   L 367.52781,105.90512   L 359.53113,116.14369   L 355.05298,117.74346   L 350.25497,119.02328   L 345.77682,119.66319   L 340.97881,119.98315   L 336.18079,119.66319   L 331.70265,119.34324   L 327.2245,119.02328   L 322.74636,118.38337   L 314.10993,115.18382   L 305.15364,111.34436   L 296.19735,107.82485   L 287.24106,103.66544   L 278.28477,99.825978   L 269.32848,95.666562   L 260.69205,91.827101   L 252.3755,88.307596   L 247.89735,87.98764   L 247.89735,88.307596   L 247.89735,88.307596   L 247.57748,88.307596   L 247.57748,88.627551   L 247.25762,88.627551   L 246.93775,88.947506   L 246.93775,88.947506   L 246.61788,89.267461   L 246.61788,89.267461   L 246.61788,89.267461   L 246.29801,89.267461   L 246.29801,89.587416   L 246.29801,89.587416   L 246.29801,89.907371   L 246.29801,90.227326   L 246.29801,90.547281   L 257.17351,96.626427   L 268.68874,102.70557   L 274.44636,105.90512   L 280.52384,108.78472   L 286.60132,111.34436   L 292.99868,113.904   L 299.07616,116.14369   L 305.47351,118.06342   L 311.87086,119.98315   L 318.26821,121.26297   L 324.66556,122.22283   L 331.38278,122.86274   L 337.78013,122.86274   L 344.17748,122.22283   L 347.05629,121.58292   L 349.9351,120.62306   L 352.49404,119.66319   L 355.05298,118.70333   L 357.61192,117.42351   L 359.85099,115.82373   L 362.09007,114.22396   L 364.32914,112.62418   L 365.60861,134.38112   L 376.80397,136.94076   L 377.12384,140.46027   L 377.12384,143.65982   L 376.80397,146.85937   L 376.16424,150.05892   L 375.5245,153.25847   L 374.24503,156.45802   L 372.96556,159.33762   L 371.36623,162.53717   L 371.36623,162.53717   L 371.04636,162.53717   L 371.04636,162.53717   L 370.72649,162.85712   L 370.72649,162.85712   L 370.40662,162.85712   L 370.40662,162.85712   L 370.08675,162.85712   L 372.6457,143.01991   L 370.08675,139.5004   L 367.20795,148.13919   L 363.6894,156.77798   L 362.09007,160.93739   L 360.17086,165.09681   L 357.93179,168.93627   L 356.01258,173.09569   L 353.45364,176.93515   L 350.8947,180.77461   L 348.01589,184.29411   L 345.13709,188.13357   L 341.61854,191.33312   L 338.1,194.85263   L 334.26159,197.73222   L 330.10331,200.93178   L 333.30199,199.65196   L 336.18079,198.05218   L 339.0596,196.4524   L 341.61854,194.53267   L 347.05629,190.37326   L 351.8543,185.89389   L 356.33245,180.77461   L 360.8106,175.97528   L 364.64901,170.856   L 368.48742,166.37663   L 366.88808,170.856   L 364.96887,175.01542   L 362.7298,179.17483   L 359.85099,183.01429   L 356.65232,186.85375   L 353.45364,190.37326   L 349.61523,194.21272   L 345.45695,197.73222   L 341.93841,200.29187   L 338.41987,202.2116   L 334.58146,203.81137   L 330.74305,205.09119   L 326.58477,206.37101   L 322.74636,207.33088   L 318.58808,208.29074   L 314.4298,208.93065   L 314.10993,209.25061   L 313.79007,209.25061   L 313.79007,209.57056   L 313.79007,209.57056   L 313.79007,209.89052   L 313.79007,210.21047   L 314.10993,210.21047   L 314.4298,210.53043   L 329.78344,208.93065  z "
     style="fill:#000000;fill-rule:evenodd;fill-opacity:1;stroke:none;" />
  <path
     id="path19"
     d="  M 311.55099,208.29074   L 311.55099,202.53155   L 311.55099,196.77236   L 311.23113,191.01317   L 310.59139,185.25398   L 309.63179,179.49479   L 308.35232,173.7356   L 307.07285,168.29636   L 305.15364,162.53717   L 303.23444,157.09793   L 300.6755,151.97865   L 297.79669,146.85937   L 294.91788,142.06004   L 291.39934,137.26072   L 287.56093,133.1013   L 283.40265,128.94189   L 278.9245,125.10243   L 274.44636,122.54279   L 269.96821,119.98315   L 265.80993,117.42351   L 261.33179,114.86387   L 257.17351,112.30422   L 252.69536,110.38449   L 247.89735,108.46476   L 243.09934,106.86499   L 238.30132,108.78472   L 237.98146,109.42463   L 237.98146,110.38449   L 238.30132,111.0244   L 238.94106,111.98427   L 239.58079,112.62418   L 240.5404,113.26409   L 241.5,113.904   L 242.13974,114.54391   L 248.53709,117.74346   L 254.93444,121.26297   L 261.01192,125.42238   L 267.0894,129.90175   L 273.16689,134.70108   L 278.60464,139.82036   L 284.04238,145.2596   L 289.16026,151.01879   L 293.63841,157.09793   L 297.79669,163.81699   L 301.6351,170.53604   L 304.51391,177.57506   L 306.11325,181.41452   L 307.07285,185.25398   L 308.35232,189.09344   L 309.31192,192.9329   L 309.95166,196.77236   L 310.59139,200.93178   L 310.91126,205.09119   L 310.91126,209.25061   L 310.91126,208.93065   L 311.23113,208.93065   L 311.23113,208.93065   L 311.23113,208.6107   L 311.23113,208.6107   L 311.55099,208.6107   L 311.55099,208.29074   L 311.55099,208.29074  z "
     style="fill:#000000;fill-rule:evenodd;fill-opacity:1;stroke:none;" />
  <path
     id="path21"
     d="  M 269.64834,199.01204   L 273.16689,197.73222   L 276.36556,195.81249   L 279.56424,193.57281   L 282.44305,191.01317   L 285.00199,188.45353   L 287.24106,185.57393   L 289.48013,182.69434   L 291.07947,179.81474   L 291.39934,176.61519   L 291.71921,173.41564   L 291.39934,170.21609   L 290.7596,167.01654   L 289.8,163.81699   L 288.20066,160.93739   L 286.60132,158.0578   L 284.68212,155.49816   L 282.12318,152.93852   L 279.56424,150.37888   L 277.32517,147.49928   L 275.08609,144.61969   L 272.84702,142.06004   L 270.60795,139.5004   L 267.72914,137.58067   L 264.85033,135.9809   L 263.25099,134.70108   L 261.65166,133.42126   L 260.05232,132.14144   L 258.45298,131.18157   L 256.53377,130.22171   L 254.93444,129.26184   L 253.3351,127.98202   L 251.73576,127.02216   L 249.49669,125.74234   L 247.57748,124.46252   L 245.65828,123.50265   L 243.73907,122.22283   L 242.13974,121.26297   L 240.22053,119.98315   L 238.30132,119.02328   L 236.06225,118.06342   L 235.10265,117.42351   L 234.46291,116.7836   L 233.50331,116.14369   L 232.86358,115.82373   L 231.90397,115.50378   L 230.94437,115.18382   L 230.30464,115.18382   L 229.34503,115.50378   L 229.02517,115.18382   L 228.7053,115.18382   L 228.38543,114.86387   L 228.06556,114.54391   L 227.7457,114.54391   L 227.42583,114.54391   L 226.78609,114.54391   L 226.14636,114.86387   L 229.6649,118.38337   L 233.50331,121.58292   L 237.66159,124.78247   L 241.81987,127.66207   L 250.77616,133.1013   L 259.41258,138.86049   L 263.89073,141.74009   L 267.72914,144.93964   L 271.88742,148.45915   L 275.40596,152.29861   L 278.60464,156.45802   L 281.48344,160.93739   L 282.44305,163.49703   L 283.72252,166.05667   L 284.68212,168.93627   L 285.32185,171.81587   L 285.32185,175.33537   L 285.00199,178.53492   L 283.72252,181.41452   L 282.44305,184.29411   L 280.52384,186.85375   L 278.28477,189.09344   L 276.0457,191.33312   L 273.80662,193.89276   L 267.72914,193.57281   L 261.33179,192.61294   L 255.2543,191.33312   L 249.17682,189.73335   L 242.77947,187.49366   L 236.70199,184.93402   L 230.94437,182.37438   L 224.86689,179.17483   L 209.83311,174.69546   L 216.55033,178.85488   L 223.58742,182.69434   L 230.6245,186.85375   L 238.30132,190.69321   L 242.13974,192.29299   L 245.97815,193.89276   L 249.81656,195.49254   L 253.97483,196.77236   L 257.81325,197.73222   L 261.97152,198.37213   L 265.80993,199.01204   L 269.64834,199.01204  z "
     style="fill:#000000;fill-rule:evenodd;fill-opacity:1;stroke:none;" />
  <path
     id="path23"
     d="  M 317.94834,181.41452   L 318.26821,177.2551   L 318.26821,173.09569   L 318.26821,168.93627   L 317.94834,164.4569   L 317.62848,159.97753   L 316.98874,155.49816   L 316.34901,151.33874   L 315.3894,146.85937   L 315.06954,144.61969   L 314.4298,142.69996   L 313.4702,140.78022   L 312.5106,139.5004   L 310.27152,136.62081   L 307.39272,134.38112   L 304.51391,132.46139   L 301.31523,130.54166   L 298.11656,128.30198   L 295.23775,125.74234   L 293.63841,124.78247   L 292.35894,124.14256   L 291.07947,123.1827   L 289.8,122.86274   L 288.52053,122.22283   L 286.92119,121.90288   L 285.64172,121.90288   L 284.04238,121.58292   L 287.24106,124.14256   L 290.43974,127.02216   L 293.31854,130.22171   L 296.19735,133.42126   L 299.07616,136.94076   L 301.6351,140.78022   L 304.19404,144.61969   L 306.43311,148.45915   L 308.67219,152.61856   L 310.59139,156.77798   L 312.5106,160.93739   L 314.10993,165.09681   L 315.3894,169.25622   L 316.66887,173.41564   L 317.30861,177.57506   L 317.94834,181.41452  z "
     style="fill:#000000;fill-rule:evenodd;fill-opacity:1;stroke:none;" />
  <path
     id="path25"
     d="  M 252.69536,173.7356   L 261.33179,165.09681   L 261.97152,162.53717   L 261.97152,159.65757   L 261.33179,157.09793   L 260.37219,154.53829   L 259.09272,151.97865   L 257.49338,149.73897   L 255.57417,147.49928   L 253.65497,145.89951   L 249.17682,142.38   L 245.01854,139.18045   L 240.5404,135.9809   L 235.74238,133.1013   L 231.26424,130.54166   L 226.78609,127.98202   L 221.98808,125.42238   L 217.8298,123.1827   L 217.50993,122.86274   L 217.19007,122.86274   L 216.55033,122.86274   L 216.23046,122.86274   L 215.9106,122.86274   L 215.27086,123.1827   L 214.95099,123.1827   L 214.31126,123.50265   L 214.31126,123.82261   L 214.31126,123.82261   L 213.99139,123.82261   L 213.99139,123.82261   L 213.99139,124.14256   L 213.99139,124.14256   L 213.99139,124.46252   L 213.67152,124.78247   L 215.9106,127.02216   L 218.46954,128.94189   L 221.02848,130.86162   L 223.90728,132.46139   L 229.34503,135.66094   L 235.10265,138.86049   L 237.98146,140.46027   L 240.5404,142.38   L 243.41921,144.29973   L 245.97815,146.21946   L 248.21722,148.7791   L 250.45629,151.33874   L 252.3755,153.89838   L 254.2947,157.09793   L 255.2543,158.69771   L 255.89404,159.97753   L 256.21391,161.25735   L 256.53377,162.85712   L 256.53377,164.13694   L 256.21391,165.73672   L 255.57417,167.01654   L 254.93444,168.29636   L 253.3351,168.93627   L 251.41589,169.25622   L 249.81656,169.25622   L 247.89735,169.25622   L 244.37881,168.61631   L 240.86026,167.65645   L 237.34172,166.05667   L 233.82318,164.4569   L 230.30464,162.85712   L 226.78609,161.25735   L 224.54702,160.29748   L 222.30795,159.01766   L 220.38874,158.0578   L 218.14967,157.09793   L 216.23046,155.81811   L 213.99139,154.85825   L 212.07219,153.57843   L 209.83311,152.61856   L 208.87351,152.29861   L 207.91391,151.6587   L 206.9543,151.33874   L 206.31457,151.01879   L 205.35497,150.37888   L 204.71523,150.05892   L 203.75563,150.05892   L 202.79603,149.73897   L 205.0351,151.97865   L 207.59404,153.89838   L 210.15298,155.81811   L 213.03179,157.73784   L 215.9106,159.65757   L 218.7894,161.25735   L 221.34834,163.17708   L 224.22715,165.09681   L 227.42583,167.01654   L 230.94437,168.61631   L 234.46291,170.21609   L 238.30132,171.49591   L 241.81987,172.77573   L 245.65828,173.7356   L 249.17682,174.05555   L 252.69536,173.7356  z "
     style="fill:#000000;fill-rule:evenodd;fill-opacity:1;stroke:none;" />
  <path
     id="path27"
     d="  M 323.06623,159.65757   L 323.06623,157.09793   L 322.74636,154.21834   L 322.74636,151.01879   L 322.74636,148.13919   L 322.42649,145.2596   L 322.10662,142.38   L 321.46689,139.5004   L 320.18742,136.94076   L 320.18742,136.94076   L 320.18742,136.94076   L 319.86755,136.94076   L 319.86755,136.62081   L 319.54768,136.62081   L 319.22781,136.62081   L 319.22781,136.62081   L 318.90795,136.62081   L 317.94834,137.26072   L 317.62848,137.90063   L 317.30861,138.54054   L 316.98874,139.5004   L 316.98874,140.46027   L 316.98874,141.42013   L 316.98874,142.38   L 317.30861,143.65982   L 318.58808,145.2596   L 319.54768,147.17933   L 320.18742,148.7791   L 320.50728,150.69883   L 320.82715,152.61856   L 321.14702,154.85825   L 321.46689,156.77798   L 321.46689,158.69771   L 321.78675,158.69771   L 321.78675,159.01766   L 321.78675,159.33762   L 322.10662,159.65757   L 322.10662,159.65757   L 322.42649,159.97753   L 322.74636,160.29748   L 322.74636,160.29748   L 322.74636,160.29748   L 323.06623,160.29748   L 323.06623,160.29748   L 323.06623,159.97753   L 323.06623,159.97753   L 323.06623,159.97753   L 323.06623,159.97753   L 323.06623,159.65757  z "
     style="fill:#000000;fill-rule:evenodd;fill-opacity:1;stroke:none;" />
  <path
     id="path29"
     d="  M 373.6053,105.90512   L 373.28543,89.907371   L 368.80728,91.827101   L 364.00927,94.066787   L 359.85099,96.626427   L 355.37285,99.506022   L 350.8947,102.38562   L 346.73642,105.58517   L 342.57815,108.78472   L 338.41987,111.66431   L 365.92848,96.626427   L 366.88808,96.626427   L 367.52781,96.946382   L 368.16755,97.266337   L 368.48742,97.906247   L 369.44702,99.186067   L 370.08675,100.46589   L 370.72649,102.06566   L 371.36623,103.66544   L 372.32583,104.94526   L 373.6053,105.90512   L 373.6053,105.90512   L 373.6053,105.90512   L 373.6053,105.90512   L 373.6053,105.90512   L 373.6053,105.90512   L 373.6053,105.90512   L 373.6053,105.90512   L 373.6053,105.90512  z "
     style="fill:#000000;fill-rule:evenodd;fill-opacity:1;stroke:none;" />
  <path
     id="path31"
     d="  M 127.94702,112.62418   L 129.86623,109.10467   L 127.30728,107.5049   L 124.74834,106.22508   L 122.1894,104.6253   L 119.63046,103.34548   L 117.07152,101.74571   L 114.19272,100.46589   L 111.31391,99.186067   L 108.4351,97.586292   L 105.87616,95.666562   L 103.63709,93.426876   L 101.71788,90.867236   L 100.11854,87.98764   L 98.839073,84.78809   L 97.87947,81.908494   L 97.559603,80.308719   L 97.559603,78.708944   L 97.87947,77.109169   L 97.87947,75.509393   L 161.85298,106.22508   L 153.21656,122.22283   L 153.21656,122.22283   L 152.89669,122.54279   L 152.89669,122.54279   L 152.57682,122.86274   L 152.57682,122.86274   L 152.25695,123.1827   L 152.25695,123.1827   L 152.25695,123.1827   L 149.37815,121.26297   L 146.49934,119.66319   L 143.9404,117.74346   L 141.06159,115.82373   L 138.18278,114.22396   L 135.30397,112.30422   L 132.42517,110.70445   L 129.86623,109.10467   L 127.94702,112.62418   L 129.54636,113.904   L 131.1457,114.86387   L 133.0649,116.14369   L 134.66424,117.10355   L 136.58344,118.38337   L 138.18278,119.34324   L 140.10199,120.62306   L 142.02119,121.58292   L 142.98079,122.22283   L 144.26026,122.86274   L 145.21987,123.1827   L 146.49934,123.50265   L 147.45894,123.82261   L 148.09868,124.46252   L 149.05828,124.78247   L 150.01788,125.42238   L 147.77881,131.82148   L 156.09536,138.22058   L 156.41523,138.22058   L 156.7351,138.22058   L 157.05497,138.54054   L 157.6947,138.54054   L 158.01457,138.54054   L 158.6543,138.54054   L 158.97417,138.54054   L 159.61391,138.22058   L 159.61391,138.22058   L 159.61391,138.22058   L 159.61391,137.90063   L 159.61391,137.90063   L 159.61391,137.58067   L 159.61391,137.26072   L 159.61391,136.94076   L 159.61391,136.62081   L 150.97748,131.18157   L 155.7755,124.46252   L 160.57351,118.06342   L 165.37152,111.66431   L 170.16954,104.94526   L 174.64768,98.226202   L 178.80596,91.187191   L 180.72517,87.667685   L 182.64437,83.828225   L 184.24371,79.988764   L 185.84305,75.829348   L 186.80265,73.589663   L 188.40199,71.349978   L 189.68146,69.110292   L 190.96093,66.870607   L 192.2404,64.630921   L 193.2,62.391236   L 194.1596,59.831596   L 195.11921,57.59191   L 195.43907,57.271955   L 196.07881,57.271955   L 196.39868,57.59191   L 196.71854,57.911865   L 197.03841,58.23182   L 197.35828,58.551775   L 197.99801,58.87173   L 198.31788,59.191685   L 202.79603,59.191685   L 203.11589,58.87173   L 203.11589,58.87173   L 203.43576,58.87173   L 203.43576,58.551775   L 203.75563,58.23182   L 203.75563,58.23182   L 203.75563,57.911865   L 203.75563,57.59191   L 203.75563,56.31209   L 203.11589,55.352225   L 202.47616,54.39236   L 201.83642,53.432494   L 200.87682,52.792584   L 199.91722,51.832719   L 198.95762,51.512764   L 197.67815,50.872854   L 196.07881,50.872854   L 194.1596,51.192809   L 192.56026,52.152674   L 190.96093,53.112539   L 189.68146,54.072404   L 188.40199,55.352225   L 187.44238,56.632045   L 186.48278,58.23182   L 184.56358,62.391236   L 182.64437,66.230697   L 181.04503,70.070157   L 179.12583,73.589663   L 177.52649,77.109169   L 175.60728,80.308719   L 173.68808,83.828225   L 171.76887,87.34773   L 157.37483,83.50827   L 169.84967,90.547281   L 165.05166,101.74571   L 164.73179,101.74571   L 164.73179,101.74571   L 164.41192,102.06566   L 164.09205,102.06566   L 164.09205,102.06566   L 163.77219,102.06566   L 163.45232,102.06566   L 163.13245,102.06566   L 160.89338,99.506022   L 158.33444,97.266337   L 155.45563,95.346607   L 152.25695,93.426876   L 149.37815,91.507146   L 146.17947,89.907371   L 143.30066,87.98764   L 140.42185,85.747955   L 126.34768,79.668809   L 113.23311,73.269708   L 100.43841,66.870607   L 87.963576,60.471506   L 75.488742,54.39236   L 63.333775,48.633169   L 56.936424,45.753573   L 50.539073,43.193933   L 43.821854,40.954247   L 37.424503,38.714562   L 72.609934,58.87173   L 71.650331,63.031146   L 70.690728,67.510517   L 70.370861,72.309843   L 70.690728,77.429124   L 71.010596,79.988764   L 71.650331,82.228449   L 72.290066,84.78809   L 72.929801,87.34773   L 73.889404,89.587416   L 75.168874,91.827101   L 76.448344,94.066787   L 78.047682,95.986517   L 84.445033,102.70557   L 91.162252,109.10467   L 97.87947,114.86387   L 104.91656,120.3031   L 112.27351,125.74234   L 119.63046,130.54166   L 126.98742,135.34099   L 134.66424,139.82036   L 150.33775,148.45915   L 166.33113,156.45802   L 182.64437,164.13694   L 198.95762,172.13582   L 199.27748,172.13582   L 199.27748,172.13582   L 199.59735,172.13582   L 199.59735,172.13582   L 199.91722,172.13582   L 199.91722,171.81587   L 199.91722,171.81587   L 199.91722,171.81587   L 200.23709,171.81587   L 200.55695,171.49591   L 200.55695,171.49591   L 200.87682,171.17596   L 200.87682,170.856   L 200.87682,170.53604   L 200.87682,170.21609   L 200.87682,169.57618   L 186.48278,161.5773   L 172.08874,153.89838   L 157.37483,146.21946   L 142.98079,138.54054   L 135.94371,134.38112   L 128.90662,130.54166   L 122.1894,126.06229   L 115.15232,121.90288   L 108.75497,117.10355   L 102.03775,112.30422   L 95.640397,107.5049   L 89.562914,102.06566   L 86.364238,98.866112   L 83.805298,95.346607   L 81.566225,91.507146   L 79.64702,87.98764   L 78.36755,84.14818   L 77.088079,80.308719   L 76.128477,76.149303   L 75.488742,71.989888   L 75.488742,70.710067   L 75.488742,69.110292   L 75.488742,67.830472   L 75.488742,66.550652   L 75.488742,65.270831   L 75.168874,63.991011   L 74.849007,62.711191   L 74.529139,61.751326   L 74.529139,60.791461   L 75.168874,60.471506   L 75.808609,60.471506   L 76.448344,60.791461   L 77.407947,61.111416   L 78.36755,61.431371   L 79.007285,62.071281   L 79.64702,62.071281   L 81.886093,63.671056   L 83.805298,64.630921   L 86.044371,65.910742   L 87.963576,66.870607   L 90.202649,68.150427   L 92.121854,69.110292   L 93.721192,70.390112   L 95.32053,71.989888   L 95.32053,72.309843   L 95.000662,72.309843   L 95.000662,72.629798   L 94.680795,72.949753   L 94.360927,73.269708   L 94.360927,73.589663   L 94.04106,73.909618   L 93.721192,74.229573   L 93.401325,77.429124   L 93.721192,80.628674   L 94.360927,83.50827   L 95.640397,86.70782   L 97.239735,89.587416   L 98.839073,92.467011   L 101.07815,95.026652   L 103.31722,97.266337   L 106.51589,99.186067   L 109.71457,101.1058   L 112.91325,103.02553   L 116.11192,104.94526   L 118.99073,106.86499   L 122.1894,108.78472   L 125.06821,110.70445   L 127.94702,112.62418  z "
     style="fill:#000000;fill-rule:evenodd;fill-opacity:1;stroke:none;" />
  <path
     id="path33"
     d="  M 205.35497,160.61744   L 205.67483,160.61744   L 205.67483,160.61744   L 205.9947,160.61744   L 205.9947,160.61744   L 206.31457,160.29748   L 206.31457,160.29748   L 206.63444,160.29748   L 206.9543,159.97753   L 208.23377,156.77798   L 210.15298,153.57843   L 212.07219,150.37888   L 213.99139,147.17933   L 215.59073,144.29973   L 217.50993,140.78022   L 218.7894,137.26072   L 219.74901,133.42126   L 231.58411,109.74458   L 231.90397,105.90512   L 230.94437,105.90512   L 230.30464,105.90512   L 229.34503,106.54503   L 228.7053,107.18494   L 228.06556,108.14481   L 227.7457,108.78472   L 227.10596,109.74458   L 226.78609,110.06454   L 223.58742,115.82373   L 220.70861,121.90288   L 218.14967,127.98202   L 215.9106,134.06117   L 213.35166,140.14031   L 210.79272,145.89951   L 207.91391,151.6587   L 204.71523,156.77798   L 198.31788,156.13807   L 198.63775,157.09793   L 199.27748,157.73784   L 200.23709,158.37775   L 200.87682,159.01766   L 201.83642,159.33762   L 202.79603,159.97753   L 203.75563,160.61744   L 204.71523,160.93739   L 204.71523,160.93739   L 205.0351,160.93739   L 205.0351,160.93739   L 205.0351,160.93739   L 205.35497,160.93739   L 205.35497,160.61744   L 205.35497,160.61744   L 205.35497,160.61744  z "
     style="fill:#000000;fill-rule:evenodd;fill-opacity:1;stroke:none;" />
  <path
     id="path35"
     d="  M 192.2404,154.21834   L 198.31788,146.21946   L 204.0755,137.90063   L 209.51325,128.94189   L 214.63113,119.66319   L 219.42914,110.38449   L 224.22715,101.1058   L 229.02517,91.507146   L 233.82318,82.228449   L 233.82318,81.268584   L 234.14305,80.628674   L 234.46291,79.988764   L 234.78278,79.348854   L 235.10265,78.708944   L 235.42252,78.069034   L 235.74238,77.749079   L 236.38212,77.109169   L 236.70199,77.429124   L 237.34172,77.429124   L 237.66159,77.429124   L 237.98146,77.749079   L 238.30132,78.069034   L 238.62119,78.388989   L 238.94106,78.708944   L 239.26093,79.028899   L 238.62119,82.86836   L 238.62119,83.188315   L 238.94106,83.188315   L 238.94106,83.188315   L 239.26093,83.188315   L 239.58079,83.188315   L 239.90066,82.86836   L 239.90066,82.86836   L 240.22053,82.548404   L 240.5404,81.908494   L 240.86026,81.588539   L 241.18013,80.948629   L 241.5,80.628674   L 241.81987,79.988764   L 241.81987,79.348854   L 242.13974,78.708944   L 241.81987,78.069034   L 238.30132,74.869483   L 237.34172,74.869483   L 236.38212,74.549528   L 235.42252,74.549528   L 234.46291,74.869483   L 233.18344,75.189438   L 232.54371,75.509393   L 231.58411,76.149303   L 231.26424,76.789213   L 226.14636,86.70782   L 221.02848,96.626427   L 215.9106,106.22508   L 210.79272,116.14369   L 205.67483,125.74234   L 200.55695,135.02103   L 195.75894,144.61969   L 190.96093,154.21834   L 191.28079,154.21834   L 191.28079,154.53829   L 191.28079,154.53829   L 191.28079,154.53829   L 191.60066,154.85825   L 191.60066,154.85825   L 191.92053,154.53829   L 192.2404,154.21834  z "
     style="fill:#000000;fill-rule:evenodd;fill-opacity:1;stroke:none;" />
  <path
     id="path37"
     d="  M 307.07285,105.26521   L 262.29139,85.747955   L 263.89073,87.667685   L 266.1298,89.267461   L 268.36887,90.867236   L 270.92781,92.147056   L 276.36556,95.026652   L 282.44305,97.266337   L 288.8404,99.506022   L 295.23775,101.74571   L 301.31523,103.66544   L 306.75298,105.58517   L 306.75298,105.58517   L 306.75298,105.58517   L 307.07285,105.58517   L 307.07285,105.58517   L 307.07285,105.58517   L 307.07285,105.26521   L 307.07285,105.26521   L 307.07285,105.26521  z "
     style="fill:#000000;fill-rule:evenodd;fill-opacity:1;stroke:none;" />
  <path
     id="path39"
     d="  M 156.7351,160.61744   L 152.25695,158.37775   L 148.09868,155.1782   L 143.9404,151.97865   L 140.10199,148.7791   L 135.94371,145.89951   L 131.78543,143.01991   L 129.54636,142.06004   L 126.98742,140.78022   L 124.42848,140.14031   L 121.86954,139.5004   L 123.78874,141.74009   L 126.02781,143.65982   L 128.58675,145.2596   L 131.1457,147.17933   L 133.70464,148.7791   L 136.58344,150.37888   L 139.14238,151.97865   L 141.38146,153.89838   L 143.62053,155.1782   L 145.53974,156.13807   L 147.45894,157.09793   L 149.37815,157.73784   L 150.97748,158.69771   L 152.89669,159.33762   L 154.81589,160.29748   L 156.7351,160.93739   L 156.7351,160.93739   L 156.7351,160.93739   L 156.7351,160.93739   L 156.7351,160.93739   L 156.7351,160.93739   L 156.7351,160.93739   L 156.7351,160.61744   L 156.7351,160.61744  z "
     style="fill:#000000;fill-rule:evenodd;fill-opacity:1;stroke:none;" />
  <path
     id="path41"
     d="  M 181.68477,151.01879   L 216.55033,100.78584   L 216.55033,100.46589   L 216.55033,100.46589   L 216.8702,100.14593   L 216.8702,100.14593   L 216.8702,99.825978   L 216.8702,99.506022   L 216.8702,99.186067   L 216.8702,98.866112   L 213.35166,95.986517   L 213.67152,94.066787   L 214.31126,92.467011   L 215.27086,90.867236   L 216.55033,89.267461   L 218.14967,87.667685   L 219.74901,86.06791   L 221.34834,84.78809   L 222.62781,83.188315   L 222.62781,82.86836   L 222.62781,82.548404   L 222.94768,82.228449   L 222.94768,81.908494   L 222.94768,81.588539   L 222.62781,81.268584   L 222.62781,80.948629   L 222.62781,80.628674   L 222.30795,80.308719   L 221.98808,79.988764   L 221.66821,79.988764   L 221.34834,79.988764   L 221.02848,79.988764   L 220.38874,79.988764   L 220.06887,79.988764   L 219.42914,79.988764   L 218.14967,82.228449   L 216.23046,84.468135   L 214.31126,87.027775   L 212.71192,89.267461   L 210.79272,91.827101   L 209.83311,94.706697   L 209.51325,95.986517   L 209.19338,97.586292   L 209.19338,99.186067   L 209.51325,101.1058   L 181.68477,148.45915   L 180.72517,148.45915   L 179.76556,148.45915   L 178.80596,147.81924   L 178.16623,147.17933   L 177.20662,146.53942   L 176.24702,145.89951   L 175.28742,145.2596   L 174.32781,144.93964   L 179.12583,135.66094   L 184.24371,126.7022   L 189.68146,117.74346   L 195.43907,108.78472   L 200.87682,99.825978   L 206.63444,90.547281   L 212.07219,81.268584   L 217.19007,71.669933   L 217.8298,71.669933   L 218.46954,71.669933   L 219.10927,71.989888   L 219.74901,72.629798   L 220.06887,73.269708   L 220.70861,73.589663   L 221.34834,74.229573   L 221.98808,74.549528   L 222.30795,74.549528   L 222.94768,74.549528   L 223.26755,74.549528   L 223.90728,74.549528   L 224.54702,74.549528   L 224.86689,74.229573   L 225.50662,73.909618   L 226.14636,73.909618   L 226.14636,73.589663   L 226.46623,73.269708   L 226.46623,72.949753   L 226.46623,72.629798   L 226.14636,72.309843   L 226.14636,71.989888   L 225.82649,71.349978   L 225.82649,71.030022   L 218.7894,66.550652   L 216.23046,67.190562   L 214.31126,68.150427   L 212.71192,69.750202   L 211.43245,71.349978   L 210.15298,73.269708   L 208.87351,75.189438   L 207.91391,77.109169   L 206.63444,79.028899   L 202.15629,87.027775   L 197.35828,95.026652   L 192.56026,103.02553   L 187.76225,111.34436   L 182.96424,119.34324   L 178.48609,127.98202   L 174.64768,136.62081   L 170.80927,145.57955   L 174.64768,149.09906   L 174.96755,149.41901   L 175.28742,149.41901   L 175.60728,149.73897   L 175.92715,149.73897   L 176.56689,149.73897   L 176.88675,149.73897   L 177.52649,150.05892   L 177.84636,150.05892   L 178.16623,150.05892   L 178.48609,149.73897   L 178.48609,149.73897   L 178.80596,149.73897   L 179.12583,149.41901   L 179.4457,149.41901   L 179.76556,149.09906   L 180.08543,149.09906   L 180.72517,149.09906   L 181.04503,149.09906   L 181.04503,149.73897   L 181.04503,150.05892   L 180.72517,150.37888   L 181.04503,150.69883   L 181.04503,151.01879   L 181.68477,151.01879  z "
     style="fill:#000000;fill-rule:evenodd;fill-opacity:1;stroke:none;" />
  <path
     id="path43"
     d="  M 165.69139,133.1013   L 169.20993,127.98202   L 172.40861,122.54279   L 175.60728,117.10355   L 178.80596,111.66431   L 182.00464,106.22508   L 185.20331,100.78584   L 189.04172,95.666562   L 192.88013,90.867236   L 194.1596,87.667685   L 195.75894,85.108045   L 197.67815,82.548404   L 199.27748,79.988764   L 200.87682,77.429124   L 202.15629,74.869483   L 202.79603,71.989888   L 203.11589,68.790337   L 200.55695,66.550652   L 195.75894,74.549528   L 190.96093,82.548404   L 186.16291,90.547281   L 181.68477,98.546157   L 177.20662,106.86499   L 173.04834,115.18382   L 169.20993,124.14256   L 165.69139,133.1013  z "
     style="fill:#000000;fill-rule:evenodd;fill-opacity:1;stroke:none;" />
  <path
     id="path45"
     d="  M 235.42252,101.74571   L 239.90066,90.227326   L 239.90066,90.227326   L 239.90066,90.227326   L 239.90066,89.907371   L 239.58079,89.907371   L 239.58079,89.587416   L 239.58079,89.587416   L 239.26093,89.267461   L 239.26093,88.947506   L 237.98146,89.907371   L 237.02185,90.867236   L 236.38212,92.467011   L 235.74238,93.746831   L 235.10265,95.666562   L 234.78278,97.266337   L 234.14305,98.546157   L 233.82318,99.825978   L 233.82318,100.14593   L 233.82318,100.46589   L 233.82318,100.78584   L 233.82318,101.1058   L 234.14305,101.42575   L 234.14305,101.42575   L 234.14305,101.74571   L 234.14305,101.74571   L 234.14305,101.74571   L 234.46291,102.06566   L 234.46291,102.06566   L 234.78278,102.06566   L 235.10265,102.06566   L 235.10265,102.06566   L 235.42252,101.74571   L 235.42252,101.74571  z "
     style="fill:#000000;fill-rule:evenodd;fill-opacity:1;stroke:none;" />
  <path
     id="path47"
     d="  M 240.86026,72.949753   L 240.86026,72.949753   L 241.18013,72.949753   L 241.5,72.629798   L 241.5,72.629798   L 241.81987,72.629798   L 242.13974,72.309843   L 242.13974,72.309843   L 242.4596,71.989888   L 242.4596,71.669933   L 242.4596,71.349978   L 242.4596,70.710067   L 242.4596,70.390112   L 242.13974,69.750202   L 241.81987,69.430247   L 241.81987,68.790337   L 241.81987,68.150427   L 241.18013,68.150427   L 240.5404,68.470382   L 240.22053,68.790337   L 239.90066,69.430247   L 239.58079,70.390112   L 239.58079,71.030022   L 239.26093,71.989888   L 239.26093,72.629798   L 239.26093,72.949753   L 239.58079,73.269708   L 239.58079,73.269708   L 239.90066,73.269708   L 240.22053,73.269708   L 240.22053,73.269708   L 240.5404,73.269708   L 240.86026,72.949753  z "
     style="fill:#000000;fill-rule:evenodd;fill-opacity:1;stroke:none;" />
  <path
     id="path49"
     d="  M 254.2947,66.870607   L 257.17351,64.310966   L 257.17351,63.671056   L 257.17351,62.711191   L 256.85364,62.071281   L 256.21391,61.111416   L 255.89404,60.471506   L 255.2543,59.831596   L 254.61457,59.191685   L 253.97483,58.551775   L 247.25762,58.23182   L 247.57748,59.191685   L 248.21722,59.831596   L 248.85695,60.151551   L 249.49669,60.791461   L 250.45629,61.111416   L 251.41589,61.431371   L 252.05563,62.071281   L 252.69536,62.711191   L 252.69536,63.031146   L 252.69536,63.031146   L 253.01523,63.351101   L 252.69536,63.351101   L 252.69536,63.671056   L 252.69536,63.991011   L 252.69536,63.991011   L 252.3755,64.310966   L 252.3755,64.310966   L 252.3755,64.310966   L 252.05563,64.630921   L 252.05563,64.630921   L 251.73576,64.950876   L 251.41589,64.950876   L 251.41589,64.950876   L 251.09603,65.270831   L 249.81656,64.950876   L 248.85695,64.630921   L 247.57748,64.310966   L 246.61788,63.991011   L 245.33841,63.351101   L 244.37881,62.391236   L 243.73907,61.751326   L 242.77947,60.471506   L 242.4596,60.151551   L 242.13974,59.831596   L 241.81987,59.51164   L 241.5,59.191685   L 241.18013,59.191685   L 240.5404,58.87173   L 240.22053,58.87173   L 239.58079,58.87173   L 239.26093,59.831596   L 239.26093,60.471506   L 239.58079,61.431371   L 240.22053,62.391236   L 240.86026,63.031146   L 241.5,63.671056   L 242.13974,64.310966   L 242.77947,64.950876   L 244.05894,65.910742   L 245.65828,66.870607   L 246.93775,67.510517   L 248.21722,67.830472   L 249.81656,67.830472   L 251.09603,67.830472   L 252.69536,67.510517   L 254.2947,66.870607  z "
     style="fill:#000000;fill-rule:evenodd;fill-opacity:1;stroke:none;" />
  <path
     id="path51"
     d="  M 222.94768,63.991011   L 226.46623,60.151551   L 226.78609,59.831596   L 226.78609,59.831596   L 226.78609,59.51164   L 226.78609,59.191685   L 226.78609,59.191685   L 226.78609,58.87173   L 226.78609,58.551775   L 226.78609,58.23182   L 226.78609,57.911865   L 226.46623,57.911865   L 226.46623,57.59191   L 226.14636,57.59191   L 226.14636,57.271955   L 225.82649,57.271955   L 225.82649,57.271955   L 225.50662,57.271955   L 225.50662,57.271955   L 225.18675,57.271955   L 225.18675,57.271955   L 224.86689,57.271955   L 224.54702,57.271955   L 224.22715,57.59191   L 223.90728,57.59191   L 223.90728,57.59191   L 223.26755,58.23182   L 222.62781,58.87173   L 222.30795,59.51164   L 221.98808,60.151551   L 221.98808,61.111416   L 221.98808,61.751326   L 221.98808,62.711191   L 221.98808,63.671056   L 221.98808,63.991011   L 221.98808,63.991011   L 221.98808,64.310966   L 222.30795,64.310966   L 222.30795,64.310966   L 222.62781,64.310966   L 222.62781,64.310966   L 222.94768,63.991011  z "
     style="fill:#000000;fill-rule:evenodd;fill-opacity:1;stroke:none;" />
  <path
     id="path53"
     d="  M 237.66159,54.712315   L 237.98146,54.712315   L 237.98146,54.712315   L 238.30132,54.39236   L 238.62119,54.39236   L 238.62119,54.072404   L 238.94106,54.072404   L 238.94106,53.752449   L 239.26093,53.752449   L 239.58079,53.112539   L 239.58079,52.152674   L 239.90066,51.512764   L 239.90066,50.552899   L 239.90066,49.593034   L 239.90066,48.633169   L 239.58079,47.673303   L 239.26093,47.033393   L 229.98477,44.473753   L 229.98477,45.433618   L 229.98477,46.073528   L 230.6245,47.033393   L 231.26424,47.673303   L 232.22384,48.313213   L 232.86358,48.953124   L 233.82318,49.912989   L 234.14305,50.552899   L 234.14305,50.872854   L 233.82318,51.512764   L 233.82318,51.832719   L 233.50331,52.472629   L 233.50331,52.792584   L 233.18344,53.432494   L 232.54371,53.752449   L 232.22384,54.072404   L 231.90397,54.072404   L 231.90397,54.39236   L 231.58411,54.39236   L 231.26424,54.072404   L 231.26424,54.072404   L 230.94437,54.072404   L 230.6245,54.072404   L 230.6245,54.072404   L 223.90728,48.953124   L 223.58742,48.953124   L 223.58742,48.953124   L 223.26755,49.273079   L 223.26755,49.273079   L 222.94768,49.273079   L 222.94768,49.593034   L 222.94768,49.593034   L 222.94768,49.912989   L 223.26755,51.192809   L 223.90728,52.472629   L 224.54702,53.432494   L 225.50662,54.072404   L 226.78609,55.03227   L 228.06556,55.67218   L 229.34503,55.992135   L 230.6245,56.31209   L 231.58411,56.31209   L 232.54371,55.992135   L 233.50331,55.992135   L 234.46291,55.67218   L 235.42252,55.352225   L 236.38212,55.352225   L 237.02185,55.03227   L 237.66159,54.712315  z "
     style="fill:#000000;fill-rule:evenodd;fill-opacity:1;stroke:none;" />
  <path
     id="path55"
     d="  M 145.21987,80.948629   L 145.21987,80.948629   L 145.21987,80.948629   L 145.21987,80.948629   L 145.21987,80.948629   L 145.21987,80.628674   L 145.53974,80.628674   L 145.53974,80.628674   L 145.53974,80.628674   L 139.46225,76.469258   L 133.0649,72.629798   L 126.98742,68.790337   L 120.59007,65.270831   L 107.15563,58.23182   L 93.721192,51.832719   L 80.286755,45.433618   L 66.53245,39.034517   L 52.778146,32.315461   L 39.343709,25.276449   L 23.670199,0.31995506   L 23.350331,0.31995506   L 23.030464,0.31995506   L 22.710596,0.31995506   L 22.390728,0.31995506   L 22.070861,0.31995506   L 21.750993,0   L 21.431126,0   L 20.791391,0.31995506   L 35.18543,27.83609   L 35.505298,28.476   L 36.145033,28.476   L 36.464901,28.156045   L 36.784768,27.83609   L 37.424503,27.516135   L 37.744371,27.19618   L 38.384106,26.876225   L 39.023841,26.55627   L 51.498675,33.595281   L 64.293377,40.634292   L 76.768212,47.673303   L 89.882781,54.712315   L 102.99735,61.431371   L 116.43179,68.470382   L 130.18609,74.869483   L 144.58013,81.268584   L 144.58013,81.268584   L 144.58013,81.268584   L 144.9,81.268584   L 144.9,81.268584   L 144.9,81.268584   L 145.21987,81.268584   L 145.21987,80.948629   L 145.21987,80.948629  z "
     style="fill:#000000;fill-rule:evenodd;fill-opacity:1;stroke:none;" />
  <path
     id="path57"
     d="  M 172.40861,69.430247   L 172.40861,69.430247   L 172.40861,69.430247   L 172.40861,69.430247   L 172.72848,69.110292   L 172.72848,69.110292   L 172.72848,68.790337   L 172.72848,68.790337   L 172.72848,68.790337   L 170.16954,63.351101   L 165.69139,59.831596   L 160.57351,56.632045   L 155.13576,53.432494   L 149.69801,50.552899   L 143.62053,47.993258   L 137.54305,46.073528   L 131.46556,44.793708   L 125.38808,44.153798   L 123.14901,44.793708   L 120.59007,45.433618   L 118.03113,45.753573   L 115.79205,46.713438   L 113.55298,47.353348   L 111.63377,48.313213   L 109.71457,49.912989   L 108.11523,51.512764   L 111.63377,50.232944   L 115.47219,49.593034   L 119.3106,49.273079   L 123.14901,49.593034   L 126.98742,50.232944   L 130.82583,51.512764   L 134.66424,53.112539   L 138.50265,55.03227   L 142.02119,56.952   L 145.53974,58.87173   L 149.05828,60.791461   L 152.89669,62.391236   L 156.41523,63.991011   L 159.93377,65.590787   L 163.45232,67.510517   L 166.97086,69.430247   L 172.08874,70.070157   L 172.08874,70.070157   L 172.08874,70.070157   L 172.40861,69.750202   L 172.40861,69.750202   L 172.40861,69.750202   L 172.40861,69.430247   L 172.40861,69.430247   L 172.40861,69.430247  z "
     style="fill:#000000;fill-rule:evenodd;fill-opacity:1;stroke:none;" />
  <path
     id="path59"
     d="  M 202.47616,48.953124   L 207.27417,38.714562   L 212.71192,37.114787   L 213.35166,36.474876   L 213.35166,35.515011   L 213.35166,34.555146   L 213.03179,33.595281   L 212.71192,32.635416   L 212.39205,31.995506   L 211.75232,31.355596   L 211.11258,31.03564   L 210.15298,30.39573   L 209.51325,30.075775   L 208.55364,29.75582   L 207.91391,29.435865   L 207.27417,28.795955   L 206.63444,28.476   L 205.9947,28.476   L 205.35497,28.156045   L 202.15629,28.476   L 202.47616,29.11591   L 203.43576,30.075775   L 204.39536,30.39573   L 205.67483,31.03564   L 206.9543,31.675551   L 208.23377,32.315461   L 209.19338,32.955371   L 210.15298,33.595281   L 210.15298,34.235191   L 210.47285,34.555146   L 210.47285,35.195056   L 210.15298,35.515011   L 210.15298,35.834966   L 209.83311,36.154921   L 209.51325,36.474876   L 208.87351,36.794831   L 208.23377,37.114787   L 207.27417,37.114787   L 206.31457,36.794831   L 205.35497,36.794831   L 204.39536,36.154921   L 203.43576,35.834966   L 202.79603,35.195056   L 201.83642,34.555146   L 198.63775,31.03564   L 198.31788,31.03564   L 198.31788,31.03564   L 197.99801,31.03564   L 197.99801,31.03564   L 197.67815,31.355596   L 197.67815,31.355596   L 197.35828,31.675551   L 197.35828,31.995506   L 197.67815,32.955371   L 198.31788,34.235191   L 198.95762,35.195056   L 199.91722,35.834966   L 200.87682,36.794831   L 201.83642,37.754697   L 202.79603,38.394607   L 204.0755,39.034517   L 203.75563,40.314337   L 203.43576,41.594157   L 202.79603,42.554022   L 202.15629,43.513888   L 201.51656,44.793708   L 201.19669,45.753573   L 200.87682,47.033393   L 200.87682,48.313213   L 200.87682,48.313213   L 200.87682,48.633169   L 200.87682,48.633169   L 201.19669,48.953124   L 201.19669,49.273079   L 201.51656,49.273079   L 201.83642,49.593034   L 202.15629,49.593034   L 202.15629,49.593034   L 202.15629,49.273079   L 202.15629,49.273079   L 202.15629,49.273079   L 202.47616,49.273079   L 202.47616,48.953124   L 202.47616,48.953124   L 202.47616,48.953124  z "
     style="fill:#000000;fill-rule:evenodd;fill-opacity:1;stroke:none;" />
  <path
     id="path61"
     d="  M 67.492053,102.06566   L 65.25298,97.906247   L 63.653642,93.426876   L 62.374172,88.947506   L 61.094702,84.14818   L 60.454967,79.348854   L 60.135099,74.549528   L 60.454967,70.070157   L 61.094702,65.270831   L 60.774834,65.270831   L 60.774834,64.950876   L 60.454967,64.950876   L 60.135099,64.630921   L 60.135099,64.310966   L 59.815232,63.991011   L 59.495364,63.991011   L 59.175497,63.671056   L 58.855629,63.991011   L 58.215894,64.310966   L 58.215894,64.630921   L 57.896026,64.950876   L 57.576159,65.270831   L 57.576159,65.590787   L 57.256291,65.910742   L 56.616556,66.230697   L 56.296689,67.830472   L 55.976821,70.070157   L 55.656954,71.989888   L 55.656954,74.229573   L 56.296689,78.388989   L 57.256291,82.86836   L 58.535762,87.027775   L 60.135099,91.187191   L 61.734437,95.346607   L 63.333775,99.186067   L 63.97351,99.825978   L 64.613245,100.14593   L 64.933113,100.78584   L 65.572848,101.1058   L 65.892715,101.42575   L 66.212583,102.06566   L 66.852318,102.38562   L 67.172185,102.70557   L 67.172185,102.70557   L 67.172185,102.70557   L 67.492053,102.70557   L 67.492053,102.38562   L 67.492053,102.38562   L 67.492053,102.38562   L 67.492053,102.06566   L 67.492053,102.06566  z "
     style="fill:#000000;fill-rule:evenodd;fill-opacity:1;stroke:none;" />
  <path
     id="path63"
     d="  M 141.06159,70.710067   L 124.42848,57.911865   L 124.42848,57.911865   L 124.42848,57.911865   L 124.42848,57.911865   L 124.74834,57.59191   L 124.74834,57.59191   L 125.06821,57.271955   L 125.06821,57.271955   L 125.38808,56.952   L 137.54305,59.191685   L 135.30397,57.911865   L 133.0649,56.952   L 130.82583,55.992135   L 128.58675,55.352225   L 126.34768,54.712315   L 123.78874,54.39236   L 121.54967,54.39236   L 119.3106,54.712315   L 118.67086,55.352225   L 118.03113,55.67218   L 117.71126,55.67218   L 117.07152,55.992135   L 116.75166,55.992135   L 116.11192,55.992135   L 115.47219,55.992135   L 115.15232,55.992135   L 115.15232,55.992135   L 115.15232,55.992135   L 114.83245,56.31209   L 114.83245,56.31209   L 114.83245,56.632045   L 114.83245,56.952   L 114.83245,57.271955   L 114.83245,57.59191   L 141.38146,71.030022   L 141.38146,71.030022   L 141.38146,71.030022   L 141.38146,70.710067   L 141.06159,70.710067   L 141.06159,70.710067   L 141.06159,70.710067   L 141.06159,70.710067   L 141.06159,70.710067  z "
     style="fill:#000000;fill-rule:evenodd;fill-opacity:1;stroke:none;" />
  <path
     id="path65"
     d="  M 184.88344,52.152674   L 184.88344,52.152674   L 185.20331,51.832719   L 185.20331,51.832719   L 185.52318,51.512764   L 185.52318,51.512764   L 185.52318,51.192809   L 185.84305,50.872854   L 185.84305,50.552899   L 182.3245,48.313213   L 178.80596,45.753573   L 174.96755,43.513888   L 171.12914,41.274202   L 162.81258,37.114787   L 154.49603,33.595281   L 145.53974,30.39573   L 136.90331,27.83609   L 128.26689,25.596404   L 119.63046,23.676674   L 114.83245,23.996629   L 109.71457,24.956494   L 104.91656,26.55627   L 100.43841,28.476   L 95.960265,30.715685   L 92.121854,33.595281   L 88.603311,36.794831   L 85.404636,40.314337   L 85.404636,40.314337   L 85.724503,40.634292   L 85.724503,40.634292   L 85.724503,40.954247   L 85.724503,41.274202   L 86.044371,41.274202   L 86.044371,41.594157   L 86.044371,41.914112   L 88.283444,39.994382   L 90.202649,38.394607   L 92.441722,37.114787   L 94.360927,35.834966   L 98.839073,33.915236   L 102.99735,32.635416   L 107.4755,31.675551   L 111.95364,31.675551   L 116.43179,31.995506   L 120.90993,32.635416   L 125.70795,33.915236   L 130.18609,35.195056   L 134.66424,36.794831   L 139.14238,38.714562   L 148.41854,42.554022   L 157.37483,46.393483   L 158.33444,47.033393   L 159.29404,47.673303   L 160.25364,47.993258   L 161.53311,48.633169   L 162.49272,48.953124   L 163.45232,49.593034   L 164.09205,49.912989   L 165.05166,50.552899   L 165.05166,50.872854   L 165.05166,51.192809   L 165.37152,51.192809   L 165.37152,51.512764   L 165.37152,51.832719   L 165.37152,52.152674   L 165.69139,52.472629   L 165.69139,52.792584   L 165.69139,53.112539   L 166.01126,53.432494   L 166.01126,53.432494   L 166.33113,53.752449   L 166.33113,53.752449   L 166.65099,53.752449   L 166.97086,54.072404   L 166.97086,54.072404   L 169.20993,53.752449   L 171.44901,54.072404   L 173.68808,54.072404   L 175.92715,54.072404   L 178.16623,54.072404   L 180.4053,54.072404   L 182.64437,53.112539   L 184.88344,52.152674  z "
     style="fill:#000000;fill-rule:evenodd;fill-opacity:1;stroke:none;" />
  <path
     id="path67"
     d="  M 71.330464,34.555146   L 46.700662,19.517258   L 46.060927,15.677798   L 40.303311,11.838337   L 44.141722,16.317708   L 45.101325,22.076899   L 71.330464,34.875101   L 71.330464,34.875101   L 71.330464,34.875101   L 71.330464,34.875101   L 71.330464,34.555146   L 71.330464,34.555146   L 71.330464,34.555146   L 71.330464,34.555146   L 71.330464,34.555146  z "
     style="fill:#000000;fill-rule:evenodd;fill-opacity:1;stroke:none;" />
  <path
     id="path69"
     d="  M 70.370861,29.435865   L 70.370861,29.435865   L 70.370861,29.435865   L 70.370861,29.11591   L 70.370861,29.11591   L 70.370861,28.795955   L 70.370861,28.795955   L 70.370861,28.476   L 70.370861,28.476   L 59.495364,22.716809   L 70.050993,29.75582   L 70.050993,29.75582   L 70.050993,29.75582   L 70.050993,29.75582   L 70.050993,29.435865   L 70.370861,29.435865   L 70.370861,29.435865   L 70.370861,29.435865   L 70.370861,29.435865  z "
     style="fill:#000000;fill-rule:evenodd;fill-opacity:1;stroke:none;" />
  <path
     id="path71"
     d="  M 29.747682,43.513888   L 30.707285,42.873978   L 31.666887,42.234067   L 32.306623,41.594157   L 33.266225,40.634292   L 34.225828,39.674427   L 34.545695,38.714562   L 35.18543,37.754697   L 35.18543,36.794831   L 35.18543,35.834966   L 35.18543,34.875101   L 35.18543,33.915236   L 35.18543,33.275326   L 34.865563,32.315461   L 34.865563,31.675551   L 34.865563,31.03564   L 34.545695,30.075775   L 34.545695,30.075775   L 34.225828,29.75582   L 34.225828,29.75582   L 33.90596,29.75582   L 33.90596,29.75582   L 33.586093,29.75582   L 33.266225,29.75582   L 32.946358,29.75582   L 26.868874,40.954247   L 26.229139,40.954247   L 25.909272,40.954247   L 25.589404,40.634292   L 24.949669,40.314337   L 24.629801,39.994382   L 23.990066,39.674427   L 23.670199,39.354472   L 23.030464,39.034517   L 22.070861,38.714562   L 21.111258,38.394607   L 20.151656,38.394607   L 19.192053,38.394607   L 17.272848,39.034517   L 15.67351,39.994382   L 13.754305,41.274202   L 11.835099,42.234067   L 10.235762,43.193933   L 8.3165563,43.513888   L 7.0370861,42.554022   L 6.0774834,41.594157   L 5.4377483,40.314337   L 4.7980132,39.354472   L 3.8384106,36.474876   L 3.518543,33.595281   L 3.518543,30.715685   L 3.8384106,27.516135   L 4.1582781,24.636539   L 4.1582781,21.756944   L 4.4781457,20.477124   L 4.4781457,19.517258   L 4.7980132,18.237438   L 5.1178808,16.957618   L 5.4377483,15.997753   L 5.7576159,15.037888   L 6.0774834,14.078022   L 6.0774834,13.118157   L 5.1178808,13.118157   L 4.4781457,13.758067   L 4.1582781,14.717933   L 3.8384106,15.997753   L 3.518543,17.597528   L 3.518543,18.877348   L 3.1986755,20.477124   L 2.8788079,21.436989   L 2.8788079,24.636539   L 2.5589404,27.516135   L 2.5589404,30.39573   L 2.2390728,33.275326   L 2.2390728,35.834966   L 2.8788079,38.714562   L 3.1986755,39.994382   L 3.8384106,41.274202   L 4.4781457,42.554022   L 5.4377483,43.513888   L 6.397351,44.153798   L 7.6768212,44.473753   L 8.9562914,44.793708   L 10.235762,44.793708   L 11.835099,44.473753   L 13.11457,44.153798   L 14.39404,43.513888   L 15.67351,42.873978   L 16.313245,42.234067   L 16.633113,41.914112   L 16.95298,41.594157   L 17.272848,41.274202   L 17.592715,41.274202   L 17.912583,40.954247   L 18.552318,40.954247   L 18.872185,40.954247   L 29.747682,43.513888  z "
     style="fill:#000000;fill-rule:evenodd;fill-opacity:1;stroke:none;" />
  <path
     id="path73"
     d="  M 13.754305,37.754697   L 20.791391,26.876225   L 20.791391,24.316584   L 21.111258,22.076899   L 21.750993,20.157169   L 22.390728,17.917483   L 23.030464,15.357843   L 23.030464,13.118157   L 23.030464,10.878472   L 22.070861,8.3188315   L 21.750993,7.6789213   L 21.431126,7.3589663   L 21.111258,7.0390112   L 20.791391,6.7190562   L 20.471523,6.3991011   L 20.151656,6.0791461   L 19.831788,5.759191   L 19.511921,5.759191   L 18.23245,5.759191   L 16.633113,6.0791461   L 15.353642,6.7190562   L 14.074172,7.3589663   L 12.474834,7.9988764   L 11.195364,8.9587416   L 10.235762,10.238562   L 9.2761589,11.198427   L 8.6364238,12.798202   L 8.3165563,14.078022   L 7.9966887,15.357843   L 7.6768212,16.637663   L 7.3569536,17.917483   L 7.3569536,19.197303   L 7.3569536,20.477124   L 7.3569536,21.436989   L 14.39404,10.558517   L 14.39404,10.558517   L 14.713907,10.558517   L 15.033775,10.558517   L 15.033775,10.558517   L 15.353642,10.558517   L 15.67351,10.558517   L 15.67351,10.878472   L 15.993377,10.878472   L 16.633113,13.118157   L 17.272848,15.357843   L 17.272848,17.917483   L 17.272848,20.157169   L 16.95298,22.396854   L 16.313245,24.636539   L 15.67351,26.876225   L 14.713907,29.11591   L 14.074172,29.75582   L 13.754305,30.715685   L 13.754305,31.355596   L 13.434437,32.315461   L 13.11457,32.955371   L 12.794702,33.595281   L 12.474834,34.235191   L 11.835099,34.875101   L 11.515232,34.875101   L 11.515232,34.875101   L 11.195364,34.875101   L 10.875497,34.875101   L 10.875497,34.875101   L 10.555629,34.875101   L 10.555629,34.875101   L 10.235762,34.555146   L 8.9562914,28.476   L 8.3165563,28.476   L 7.9966887,28.795955   L 7.6768212,29.11591   L 7.6768212,29.75582   L 7.6768212,30.39573   L 7.6768212,31.03564   L 7.6768212,31.675551   L 7.3569536,31.995506   L 7.6768212,32.955371   L 7.9966887,33.915236   L 7.9966887,34.555146   L 8.3165563,35.195056   L 8.6364238,35.834966   L 9.2761589,36.474876   L 9.5960265,36.794831   L 10.235762,37.434742   L 13.754305,37.754697  z "
     style="fill:#000000;fill-rule:evenodd;fill-opacity:1;stroke:none;" />
  <path
     id="path75"
     d="  M 201.51656,65.910742   L 195.11921,62.391236   L 157.05497,131.50153   L 158.97417,128.62193   L 164.41192,121.26297   L 171.44901,110.70445   L 179.76556,98.866112   L 188.08212,86.70782   L 195.11921,76.149303   L 199.91722,68.790337   L 201.51656,65.910742  z "
     style="fill:#f0d100;fill-rule:evenodd;fill-opacity:1;stroke:none;" />
  <path
     id="path77"
     d="  M 181.04503,147.17933   L 176.24702,143.65982   L 216.8702,75.189438   L 224.86689,78.708944   L 181.04503,147.17933  z "
     style="fill:#f0d100;fill-rule:evenodd;fill-opacity:1;stroke:none;" />
  <path
     id="path79"
     d="  M 204.39536,155.81811   L 200.87682,152.93852   L 236.06225,84.14818   L 240.86026,87.027775   L 204.39536,155.81811  z "
     style="fill:#f0d100;fill-rule:evenodd;fill-opacity:1;stroke:none;" />
  <path
     id="path81"
     d="  M 103.63709,49.593034   L 115.47219,44.793708   L 141.38146,46.713438   L 168.89007,62.071281   L 169.5298,62.391236   L 169.84967,62.391236   L 169.84967,62.391236   L 169.5298,61.751326   L 168.25033,60.151551   L 165.69139,57.59191   L 162.17285,54.712315   L 158.01457,51.512764   L 153.21656,47.993258   L 147.77881,44.793708   L 144.9,43.193933   L 142.02119,41.914112   L 139.14238,40.954247   L 136.26358,39.994382   L 133.0649,39.034517   L 129.86623,38.394607   L 126.98742,38.074652   L 123.78874,37.754697   L 104.27682,36.154921   L 100.75828,43.833843   L 100.75828,44.153798   L 101.07815,44.793708   L 101.71788,46.073528   L 102.03775,47.033393   L 102.67748,47.993258   L 102.99735,48.953124   L 103.31722,49.593034   L 103.63709,49.593034  z "
     style="fill:#f0d100;fill-rule:evenodd;fill-opacity:1;stroke:none;" />
  <path
     id="path83"
     d="  M 3.518543,27.19618   L 3.518543,38.074652   L 9.2761589,43.833843   L 9.5960265,43.513888   L 10.555629,42.873978   L 11.835099,41.914112   L 13.434437,40.634292   L 15.033775,39.674427   L 16.313245,38.394607   L 17.272848,37.754697   L 17.592715,37.434742   L 17.912583,37.754697   L 18.23245,38.074652   L 19.192053,38.714562   L 20.151656,39.354472   L 20.791391,39.994382   L 21.750993,40.634292   L 22.390728,40.954247   L 22.390728,40.954247   L 22.710596,40.954247   L 23.350331,40.954247   L 24.629801,40.954247   L 25.589404,40.954247   L 26.868874,40.954247   L 27.828477,40.954247   L 28.468212,40.954247   L 28.788079,40.954247   L 29.107947,40.634292   L 29.747682,39.034517   L 30.707285,37.114787   L 31.986755,35.195056   L 33.266225,32.955371   L 34.225828,31.03564   L 34.865563,29.435865   L 35.18543,29.11591   L 34.865563,29.11591   L 34.225828,28.795955   L 33.266225,28.476   L 31.986755,28.476   L 30.707285,28.156045   L 29.747682,27.83609   L 29.107947,27.516135   L 28.788079,27.516135   L 28.788079,27.19618   L 28.468212,25.91636   L 28.148344,23.996629   L 27.828477,22.076899   L 27.508609,19.837213   L 27.188742,18.237438   L 26.868874,16.957618   L 26.549007,16.317708   L 21.111258,34.555146   L 20.791391,34.875101   L 19.511921,35.195056   L 18.23245,35.834966   L 16.633113,36.474876   L 14.713907,37.114787   L 13.434437,37.754697   L 12.474834,38.074652   L 11.835099,38.074652   L 11.835099,37.754697   L 11.195364,36.794831   L 10.235762,35.515011   L 8.9562914,33.915236   L 7.9966887,32.315461   L 7.0370861,31.03564   L 6.397351,30.075775   L 6.397351,29.75582   L 6.0774834,29.75582   L 6.0774834,29.435865   L 5.4377483,29.11591   L 5.1178808,28.795955   L 4.7980132,28.156045   L 4.1582781,27.83609   L 3.8384106,27.516135   L 3.518543,27.19618  z "
     style="fill:#a8a8a8;fill-rule:evenodd;fill-opacity:1;stroke:none;" />
</svg>
