<?xml version="1.0" encoding="UTF-8" standalone="no"?>
<svg
   xmlns:dc="http://purl.org/dc/elements/1.1/"
   xmlns:cc="http://creativecommons.org/ns#"
   xmlns:rdf="http://www.w3.org/1999/02/22-rdf-syntax-ns#"
   xmlns:svg="http://www.w3.org/2000/svg"
   xmlns="http://www.w3.org/2000/svg"
   id="svg153"
   height="99.6442mm"
   width="102.9462mm"
   version="1.0">
  <metadata
     id="metadata157">
    <rdf:RDF>
      <cc:Work
         rdf:about="">
        <dc:format>image/svg+xml</dc:format>
        <dc:type
           rdf:resource="http://purl.org/dc/dcmitype/StillImage" />
        <dc:title></dc:title>
      </cc:Work>
    </rdf:RDF>
  </metadata>
  <defs
     id="defs3">
    <pattern
       y="0"
       x="0"
       height="6"
       width="6"
       patternUnits="userSpaceOnUse"
       id="WMFhbasepattern" />
  </defs>
  <path
     id="path5"
     d="  M 87.651158,372.67331   L 91.809789,372.67331   L 95.648526,372.35341   L 99.487263,372.03352   L 103.00611,371.39374   L 106.84484,370.43407   L 110.68358,369.47439   L 114.20242,368.51472   L 117.72126,367.23515   L 124.75895,364.03624   L 131.47674,360.83733   L 137.87463,357.31853   L 143.95263,353.79972   L 146.19189,351.88037   L 148.11126,349.96103   L 150.03063,348.04168   L 151.95,346.12233   L 153.22958,343.88309   L 154.50916,341.32396   L 155.78874,339.08472   L 156.74842,336.2057   L 158.98768,332.04712   L 159.62747,328.20842   L 159.94737,324.36973   L 159.94737,320.53103   L 159.94737,316.37245   L 159.62747,312.53375   L 159.30758,308.69506   L 158.34789,305.17625   L 157.38821,301.65745   L 157.06832,301.33756   L 156.74842,301.33756   L 156.74842,301.01767   L 156.42853,300.69777   L 156.10863,300.69777   L 155.78874,300.69777   L 155.46884,300.69777   L 155.14895,300.69777   L 143.95263,332.04712   L 141.39347,335.56592   L 138.83432,338.76483   L 135.95526,341.64385   L 133.07621,344.52288   L 130.19716,347.08201   L 127.31811,349.64114   L 124.11916,351.88037   L 120.60032,354.11961   L 117.40137,356.03896   L 113.56263,357.63842   L 110.04379,359.23787   L 106.20505,360.83733   L 102.36632,362.11689   L 98.207684,363.07657   L 94.049053,364.35613   L 89.570526,364.99592   L 86.691474,365.31581   L 84.132316,364.99592   L 81.573158,364.67602   L 79.333895,364.35613   L 74.535474,362.75668   L 70.056947,361.15722   L 65.898316,358.91798   L 61.739684,356.67874   L 57.261158,354.7594   L 53.102526,352.84005   L 50.863263,351.88037   L 48.624,350.60081   L 46.704632,349.32124   L 45.105158,348.04168   L 43.185789,346.44222   L 41.586316,345.16266   L 39.986842,343.5632   L 38.067474,341.96375   L 48.304105,333.64657   L 45.744947,325.64929   L 42.546,317.65201   L 39.027158,309.33484   L 35.828211,300.69777   L 34.548632,296.53919   L 33.588947,292.06071   L 32.629263,287.90212   L 32.309368,283.42365   L 32.309368,278.94517   L 32.949158,274.46669   L 33.908842,270.30811   L 35.188421,265.82963   L 39.027158,260.07159   L 42.865895,253.99365   L 47.664316,248.5555   L 52.462737,243.11735   L 55.341789,240.55822   L 57.900947,238.31898   L 60.78,236.07974   L 63.978947,233.8405   L 67.177895,231.92116   L 70.056947,230.3217   L 73.575789,228.72224   L 76.774737,227.44268   L 77.094632,227.44268   L 77.414526,227.44268   L 77.734421,227.44268   L 78.054316,227.44268   L 78.054316,227.44268   L 78.374211,227.44268   L 78.374211,227.44268   L 78.374211,227.44268   L 77.734421,227.12279   L 76.774737,226.8029   L 75.175263,226.483   L 73.575789,226.8029   L 71.656421,226.8029   L 69.737053,227.12279   L 68.137579,227.44268   L 66.538105,227.76257   L 63.019263,229.04213   L 59.820316,230.64159   L 56.301474,232.56094   L 53.422421,234.48029   L 50.223474,236.39963   L 47.344421,238.63887   L 44.465368,241.198   L 41.586316,243.75713   L 36.787895,249.51517   L 31.989474,255.27322   L 28.150737,261.35115   L 24.631895,267.42908   L 23.352316,273.18713   L 22.712526,278.62528   L 22.712526,284.06343   L 22.712526,289.82147   L 23.352316,295.25962   L 24.312,300.69777   L 25.591579,306.13593   L 26.871158,311.57408   L 27.830842,313.17353   L 28.470632,314.77299   L 29.110421,316.37245   L 30.070105,317.9719   L 30.709895,319.25147   L 31.669579,320.53103   L 32.309368,322.13049   L 33.269053,323.41005   L 32.949158,325.3294   L 31.989474,326.92886   L 31.029789,328.52831   L 30.070105,330.12777   L 29.110421,331.72723   L 28.150737,333.32668   L 27.830842,335.24603   L 27.830842,337.16538   L 30.709895,340.36429   L 33.269053,343.5632   L 36.468,346.44222   L 39.347053,349.00135   L 42.546,351.56048   L 45.744947,354.11961   L 48.943895,356.35885   L 52.462737,358.2782   L 59.500421,362.43679   L 66.858,365.6357   L 74.535474,368.83461   L 82.852737,372.03352   L 83.492526,371.71363   L 84.132316,372.03352   L 84.772105,372.03352   L 85.411895,372.03352   L 86.051684,372.35341   L 86.691474,372.35341   L 87.331263,372.67331   L 87.651158,372.67331  z "
     style="fill:#cfb070;fill-rule:evenodd;fill-opacity:1;stroke:none;" />
  <path
     id="path7"
     d="  M 139.794,371.39374   L 141.39347,371.07385   L 142.99295,370.75396   L 144.27253,370.11418   L 145.872,369.1545   L 148.43116,367.23515   L 150.99032,364.67602   L 153.54947,362.11689   L 155.78874,359.55776   L 158.028,356.99863   L 160.58716,355.07929   L 163.14632,351.56048   L 165.70547,348.36157   L 167.94474,344.84277   L 169.86411,341.32396   L 171.46358,337.48527   L 172.74316,333.32668   L 173.38295,329.1681   L 173.38295,324.68962   L 172.74316,323.72994   L 172.10337,322.77027   L 171.78347,322.13049   L 171.46358,321.17081   L 171.14368,320.21114   L 170.50389,319.25147   L 169.86411,318.61168   L 169.22432,317.33212   L 168.90442,317.65201   L 168.90442,317.65201   L 168.90442,317.65201   L 168.90442,317.9719   L 168.90442,317.9719   L 168.58453,317.9719   L 168.58453,317.9719   L 168.26463,318.29179   L 167.94474,322.13049   L 167.30495,325.96918   L 166.34526,329.80788   L 165.70547,333.32668   L 164.42589,337.16538   L 163.46621,340.68418   L 161.86674,343.88309   L 160.26726,347.4019   L 158.66779,350.60081   L 156.74842,353.79972   L 154.50916,356.67874   L 152.26989,359.55776   L 150.03063,362.43679   L 147.15158,365.31581   L 144.59242,367.87494   L 141.39347,370.11418   L 140.75368,370.43407   L 140.43379,370.43407   L 140.11389,370.43407   L 139.794,370.75396   L 139.47411,370.75396   L 139.47411,371.07385   L 139.15421,371.07385   L 139.15421,371.39374   L 139.15421,371.39374   L 139.15421,371.39374   L 139.15421,371.39374   L 139.47411,371.39374   L 139.47411,371.39374   L 139.47411,371.39374   L 139.47411,371.39374   L 139.794,371.39374  z "
     style="fill:#cfb070;fill-rule:evenodd;fill-opacity:1;stroke:none;" />
  <path
     id="path9"
     d="  M 87.651158,353.15994   L 87.971053,353.15994   L 88.290947,353.15994   L 88.610842,353.15994   L 88.930737,353.15994   L 89.250632,352.84005   L 89.570526,352.84005   L 89.890421,352.84005   L 90.530211,352.52016   L 90.850105,352.52016   L 91.489895,351.88037   L 92.129684,351.24059   L 92.449579,350.60081   L 92.769474,349.96103   L 93.089368,349.00135   L 93.089368,348.04168   L 92.769474,347.08201   L 92.449579,346.44222   L 92.449579,345.80244   L 92.449579,345.16266   L 92.129684,344.52288   L 92.129684,344.20298   L 91.809789,343.5632   L 91.809789,343.24331   L 91.17,342.92342   L 91.17,342.92342   L 91.17,342.92342   L 90.850105,342.60353   L 90.530211,342.60353   L 90.530211,342.60353   L 90.210316,342.60353   L 89.890421,342.28364   L 89.570526,342.28364   L 83.492526,348.68146   L 83.492526,348.68146   L 83.172632,348.68146   L 82.852737,348.68146   L 82.852737,348.68146   L 82.532842,348.68146   L 82.212947,348.36157   L 82.212947,348.36157   L 81.893053,348.04168   L 83.492526,337.80516   L 83.172632,337.48527   L 83.172632,337.16538   L 82.852737,336.84549   L 82.532842,336.84549   L 82.212947,336.52559   L 81.893053,336.52559   L 81.573158,336.52559   L 80.933368,336.2057   L 77.414526,338.12505   L 77.094632,339.08472   L 76.454842,339.72451   L 76.134947,340.68418   L 75.495158,341.64385   L 75.175263,342.60353   L 75.175263,343.5632   L 75.175263,344.52288   L 75.175263,345.48255   L 76.454842,347.08201   L 77.734421,348.36157   L 79.333895,349.64114   L 80.613474,350.60081   L 82.532842,351.24059   L 84.132316,351.88037   L 86.051684,352.52016   L 87.651158,353.15994  z "
     style="fill:#cfb070;fill-rule:evenodd;fill-opacity:1;stroke:none;" />
  <path
     id="path11"
     d="  M 30.070105,351.56048   L 30.070105,351.56048   L 30.070105,351.56048   L 30.39,351.56048   L 30.39,351.24059   L 30.39,351.24059   L 30.709895,351.24059   L 30.709895,351.24059   L 30.709895,351.24059   L 30.39,349.64114   L 29.750211,347.72179   L 28.470632,346.12233   L 26.871158,344.84277   L 25.271684,343.24331   L 23.672211,341.96375   L 22.072737,340.36429   L 20.793158,339.08472   L 19.833474,338.76483   L 18.873789,338.12505   L 17.914105,337.80516   L 17.274316,337.16538   L 16.314632,336.52559   L 15.674842,335.56592   L 15.354947,334.92614   L 15.035053,333.64657   L 15.354947,332.6869   L 15.674842,332.04712   L 16.314632,331.40733   L 17.274316,330.76755   L 17.914105,330.44766   L 18.873789,329.80788   L 19.833474,329.48799   L 20.793158,329.1681   L 23.672211,325.64929   L 12.156,328.8482   L 9.9167368,334.60625   L 10.876421,336.2057   L 11.836105,337.80516   L 12.795789,339.40462   L 13.755474,341.00407   L 15.035053,342.28364   L 16.314632,343.5632   L 17.914105,344.84277   L 19.833474,345.48255   L 20.153368,345.48255   L 20.473263,345.48255   L 20.793158,345.48255   L 21.113053,345.48255   L 21.113053,345.48255   L 21.432947,345.48255   L 21.432947,345.48255   L 21.432947,345.48255   L 30.070105,351.56048  z "
     style="fill:#cfb070;fill-rule:evenodd;fill-opacity:1;stroke:none;" />
  <path
     id="path13"
     d="  M 104.92547,348.04168   L 106.52495,348.04168   L 107.80453,348.04168   L 109.404,347.72179   L 110.68358,347.4019   L 112.28305,346.76211   L 113.56263,345.80244   L 114.52232,344.84277   L 115.482,343.88309   L 115.80189,343.5632   L 115.80189,343.24331   L 116.12179,342.92342   L 116.44168,342.60353   L 116.44168,342.28364   L 116.76158,342.28364   L 116.76158,341.96375   L 116.76158,341.96375   L 116.76158,341.32396   L 116.76158,340.68418   L 116.44168,340.36429   L 116.44168,339.72451   L 116.12179,339.08472   L 115.80189,338.44494   L 115.482,337.80516   L 114.84221,337.48527   L 104.92547,345.48255   L 104.28568,345.48255   L 103.96579,345.16266   L 103.64589,345.16266   L 103.326,344.84277   L 103.00611,344.52288   L 102.68621,343.88309   L 102.68621,343.5632   L 102.36632,342.92342   L 105.88516,335.56592   L 105.56526,335.24603   L 105.56526,335.24603   L 105.24537,334.92614   L 105.24537,334.92614   L 105.24537,334.92614   L 104.92547,334.60625   L 104.92547,334.60625   L 104.92547,334.60625   L 103.96579,334.60625   L 103.00611,334.92614   L 102.04642,335.56592   L 101.40663,336.2057   L 100.44695,337.16538   L 99.807158,337.80516   L 99.167368,338.76483   L 98.847474,339.72451   L 99.487263,344.84277   L 104.92547,348.04168  z "
     style="fill:#cfb070;fill-rule:evenodd;fill-opacity:1;stroke:none;" />
  <path
     id="path15"
     d="  M 130.19716,337.80516   L 134.35579,336.84549   L 135.31547,335.56592   L 135.95526,334.28636   L 135.95526,333.00679   L 135.95526,331.72723   L 135.95526,330.12777   L 135.31547,329.1681   L 134.67568,327.88853   L 134.03589,326.92886   L 133.716,326.60897   L 133.39611,326.28907   L 133.07621,325.96918   L 132.75632,325.64929   L 132.75632,325.64929   L 132.43642,325.3294   L 132.11653,325.00951   L 132.11653,324.68962   L 131.15684,325.3294   L 130.83695,326.28907   L 130.51705,327.24875   L 130.19716,328.52831   L 130.19716,329.48799   L 129.87726,330.76755   L 129.23747,332.04712   L 128.59768,332.6869   L 128.59768,332.6869   L 128.27779,332.6869   L 128.27779,333.00679   L 127.95789,333.00679   L 127.638,333.00679   L 127.638,333.00679   L 127.31811,333.00679   L 126.99821,332.6869   L 126.99821,327.56864   L 126.99821,326.92886   L 126.67832,326.28907   L 126.03853,326.28907   L 125.39874,325.96918   L 124.75895,325.96918   L 124.11916,325.96918   L 123.15947,325.96918   L 122.51968,325.96918   L 121.56,326.60897   L 121.24011,327.24875   L 120.92021,327.88853   L 120.92021,328.8482   L 120.92021,330.12777   L 121.24011,331.08744   L 121.24011,331.72723   L 121.56,332.6869   L 122.51968,333.64657   L 123.47937,334.60625   L 124.43905,335.24603   L 125.71863,335.88581   L 126.67832,336.52559   L 127.95789,337.16538   L 128.91758,337.48527   L 130.19716,337.80516  z "
     style="fill:#cfb070;fill-rule:evenodd;fill-opacity:1;stroke:none;" />
  <path
     id="path17"
     d="  M 63.339158,321.17081   L 72.616105,293.66017   L 72.296211,293.34028   L 72.296211,293.34028   L 72.296211,293.02038   L 71.976316,292.70049   L 71.976316,292.70049   L 71.656421,292.3806   L 71.336526,292.06071   L 71.016632,292.06071   L 70.056947,292.06071   L 69.417158,292.3806   L 68.777368,292.70049   L 68.137579,293.34028   L 67.177895,293.66017   L 66.538105,293.66017   L 65.898316,293.98006   L 64.938632,293.66017   L 67.497789,273.18713   L 67.497789,272.86724   L 67.497789,272.54734   L 67.177895,272.22745   L 67.177895,271.90756   L 67.177895,271.58767   L 66.858,271.26778   L 66.858,271.26778   L 66.538105,270.94789   L 66.538105,270.628   L 66.218211,270.628   L 65.898316,270.30811   L 65.578421,270.30811   L 65.258526,269.98821   L 64.938632,269.98821   L 64.618737,269.66832   L 63.978947,269.66832   L 63.978947,269.66832   L 63.659053,269.66832   L 63.659053,269.34843   L 63.659053,269.34843   L 63.659053,269.02854   L 63.339158,268.70865   L 63.339158,268.70865   L 63.339158,268.38876   L 71.336526,245.67648   L 62.379474,245.99637   L 52.142842,270.94789   L 53.742316,274.1468   L 54.382105,274.46669   L 55.021895,274.78658   L 55.661684,275.10647   L 56.301474,275.10647   L 56.941263,275.42637   L 57.581053,275.42637   L 58.220842,275.10647   L 58.860632,275.10647   L 59.180526,275.10647   L 59.500421,275.10647   L 59.820316,275.42637   L 60.140211,275.42637   L 60.140211,275.74626   L 60.460105,276.06615   L 60.460105,276.38604   L 60.78,276.70593   L 56.621368,292.06071   L 56.621368,292.70049   L 56.941263,293.34028   L 56.941263,293.98006   L 57.581053,294.61984   L 57.900947,295.25962   L 58.540737,295.57951   L 59.180526,296.2193   L 59.820316,296.2193   L 60.460105,296.53919   L 61.099895,296.85908   L 61.739684,296.85908   L 62.059579,296.85908   L 62.699368,296.85908   L 63.019263,296.53919   L 63.659053,296.53919   L 63.978947,296.53919   L 62.699368,321.49071   L 62.699368,321.49071   L 62.699368,321.49071   L 62.699368,321.49071   L 63.019263,321.17081   L 63.019263,321.17081   L 63.019263,321.17081   L 63.339158,321.17081   L 63.339158,321.17081  z "
     style="fill:#cfb070;fill-rule:evenodd;fill-opacity:1;stroke:none;" />
  <path
     id="path19"
     d="  M 96.288316,312.53375   L 101.72653,312.21386   L 106.84484,311.89397   L 111.96316,310.93429   L 116.76158,309.65473   L 121.56,308.05527   L 126.03853,305.49614   L 127.95789,304.21658   L 129.87726,302.61712   L 131.79663,301.01767   L 133.716,299.09832   L 135.63537,298.13864   L 137.55474,296.85908   L 139.15421,295.25962   L 140.43379,293.98006   L 141.71337,292.3806   L 142.99295,290.46125   L 143.95263,288.8618   L 144.59242,286.94245   L 144.91232,284.38332   L 145.23221,281.82419   L 144.91232,279.26506   L 144.59242,277.02582   L 144.27253,274.46669   L 143.31284,272.22745   L 142.67305,270.30811   L 141.39347,268.38876   L 139.15421,266.7893   L 136.59505,265.82963   L 134.03589,265.18985   L 131.15684,265.18985   L 127.95789,265.18985   L 125.07884,265.82963   L 122.19979,266.46941   L 119.32074,267.10919   L 117.72126,269.02854   L 116.44168,270.94789   L 115.16211,273.18713   L 113.88253,275.42637   L 113.24274,277.9855   L 112.60295,280.86452   L 112.28305,283.42365   L 112.60295,285.98278   L 113.24274,288.22202   L 113.56263,290.78115   L 113.24274,293.02038   L 112.60295,295.25962   L 111.96316,297.17897   L 111.00347,299.09832   L 109.72389,300.69777   L 108.76421,302.29723   L 107.16474,304.21658   L 105.24537,305.81603   L 103.326,307.0956   L 101.40663,308.05527   L 99.167368,308.69506   L 96.928105,309.33484   L 95.008737,310.29451   L 92.769474,310.93429   L 96.288316,312.53375  z "
     style="fill:#cfb070;fill-rule:evenodd;fill-opacity:1;stroke:none;" />
  <path
     id="path21"
     d="  M 98.847474,297.17897   L 98.847474,297.17897   L 99.167368,297.17897   L 99.487263,296.85908   L 99.487263,296.85908   L 99.807158,296.85908   L 100.12705,296.85908   L 100.44695,296.53919   L 100.44695,296.53919   L 104.92547,291.42093   L 104.92547,291.10104   L 104.60558,290.78115   L 104.60558,290.46125   L 104.28568,290.46125   L 103.96579,290.14136   L 103.64589,290.14136   L 103.326,290.14136   L 103.00611,290.14136   L 97.887789,293.34028   L 80.293579,278.62528   L 81.893053,280.86452   L 84.132316,283.10376   L 86.051684,285.66289   L 88.290947,288.22202   L 90.850105,290.78115   L 93.409263,293.02038   L 95.968421,295.25962   L 98.847474,297.17897  z "
     style="fill:#cfb070;fill-rule:evenodd;fill-opacity:1;stroke:none;" />
  <path
     id="path23"
     d="  M 172.42326,296.85908   L 172.42326,293.66017   L 172.42326,290.78115   L 173.06305,287.90212   L 173.70284,285.34299   L 174.34263,282.78386   L 175.62221,280.22473   L 176.90179,277.6656   L 178.18137,275.42637   L 181.38032,271.26778   L 185.21905,267.42908   L 189.37768,263.91028   L 193.53632,260.71137   L 193.53632,260.39148   L 193.53632,260.07159   L 193.53632,260.07159   L 193.53632,259.75169   L 193.53632,259.75169   L 193.53632,259.4318   L 193.21642,259.4318   L 193.21642,259.4318   L 188.09811,259.4318   L 184.57926,262.63072   L 181.06042,265.50974   L 178.18137,269.02854   L 175.30232,272.54734   L 173.06305,276.38604   L 171.46358,280.54463   L 170.82379,282.46397   L 170.50389,284.70321   L 170.184,287.26234   L 170.184,289.50158   L 170.50389,290.46125   L 170.82379,291.74082   L 170.82379,292.70049   L 170.82379,293.66017   L 171.14368,294.61984   L 171.14368,295.25962   L 171.46358,296.2193   L 171.78347,296.85908   L 171.78347,296.85908   L 172.10337,296.85908   L 172.10337,296.85908   L 172.10337,296.85908   L 172.10337,296.85908   L 172.42326,296.85908   L 172.42326,296.85908   L 172.42326,296.85908  z "
     style="fill:#cfb070;fill-rule:evenodd;fill-opacity:1;stroke:none;" />
  <path
     id="path25"
     d="  M 155.78874,294.29995   L 158.66779,288.54191   L 161.86674,282.78386   L 165.38558,277.02582   L 169.22432,271.26778   L 173.70284,265.50974   L 178.50126,260.39148   L 181.06042,257.83235   L 183.61958,255.59311   L 186.49863,253.35387   L 189.37768,251.11463   L 192.25674,249.19528   L 195.13579,246.95604   L 197.69495,244.39691   L 200.25411,241.83778   L 202.49337,239.27865   L 204.73263,236.39963   L 206.97189,233.52061   L 208.89126,230.3217   L 210.81063,227.44268   L 212.41011,224.24377   L 213.68968,220.72496   L 214.96926,217.20616   L 215.92895,213.68735   L 216.56874,210.16855   L 217.20853,206.64975   L 217.52842,202.81105   L 216.56874,199.93203   L 215.28916,197.69279   L 214.00958,195.45355   L 212.09021,193.8541   L 210.17084,192.25464   L 208.25147,190.97508   L 206.01221,189.69551   L 204.09284,188.41595   L 202.49337,187.77616   L 200.89389,187.77616   L 199.29442,187.77616   L 197.69495,187.77616   L 196.41537,188.41595   L 194.81589,188.73584   L 193.53632,189.37562   L 192.57663,190.33529   L 190.65726,195.45355   L 184.89916,198.01268   L 185.85884,198.97236   L 186.81853,199.29225   L 188.09811,199.29225   L 189.69758,199.29225   L 190.97716,198.65247   L 192.25674,198.33257   L 193.53632,198.01268   L 194.81589,197.69279   L 195.77558,197.3729   L 196.41537,196.73312   L 197.37505,196.09334   L 198.01484,195.45355   L 198.65463,194.81377   L 199.29442,194.17399   L 199.93421,193.53421   L 200.89389,193.21431   L 202.17347,194.17399   L 203.45305,195.45355   L 204.41274,196.73312   L 205.05253,198.33257   L 205.37242,200.25192   L 206.01221,201.85138   L 206.33211,203.77073   L 206.652,205.37018   L 206.01221,211.12822   L 204.73263,216.24648   L 203.13316,221.04485   L 200.89389,225.52333   L 198.33474,229.68192   L 195.45568,233.52061   L 191.93684,237.35931   L 188.09811,240.87811   L 182.02011,245.99637   L 175.94211,251.11463   L 170.184,256.55278   L 164.74579,261.99093   L 162.18663,264.86995   L 159.94737,268.06887   L 158.028,271.26778   L 156.42853,274.46669   L 154.82905,278.30539   L 153.86937,281.82419   L 153.22958,285.66289   L 153.22958,289.82147   L 153.54947,290.78115   L 153.54947,291.42093   L 153.54947,291.74082   L 153.54947,292.3806   L 153.86937,292.70049   L 153.86937,293.34028   L 154.18926,293.66017   L 154.50916,294.29995   L 154.82905,294.29995   L 154.82905,294.29995   L 154.82905,294.29995   L 155.14895,294.29995   L 155.14895,294.29995   L 155.46884,294.29995   L 155.46884,294.29995   L 155.78874,294.29995  z "
     style="fill:#cfb070;fill-rule:evenodd;fill-opacity:1;stroke:none;" />
  <path
     id="path27"
     d="  M 179.46095,286.30267   L 185.85884,276.38604   L 185.53895,276.38604   L 185.53895,276.38604   L 185.53895,276.06615   L 185.53895,276.06615   L 185.21905,276.06615   L 185.21905,276.06615   L 184.89916,276.06615   L 184.57926,276.38604   L 183.61958,277.34571   L 182.65989,278.30539   L 181.70021,279.58495   L 180.74053,280.86452   L 180.10074,282.14408   L 179.46095,283.42365   L 179.14105,285.0231   L 179.14105,286.62256   L 179.14105,286.62256   L 179.14105,286.62256   L 179.14105,286.62256   L 179.14105,286.62256   L 179.14105,286.30267   L 179.46095,286.30267   L 179.46095,286.30267   L 179.46095,286.30267  z "
     style="fill:#cfb070;fill-rule:evenodd;fill-opacity:1;stroke:none;" />
  <path
     id="path29"
     d="  M 88.610842,274.78658   L 93.089368,269.98821   L 96.928105,264.86995   L 100.44695,260.07159   L 103.96579,254.95333   L 107.16474,249.83507   L 111.00347,244.71681   L 115.16211,239.91844   L 119.64063,235.12007   L 123.15947,230.64159   L 126.67832,226.16311   L 130.19716,221.36474   L 134.03589,216.88627   L 137.55474,212.40779   L 141.07358,207.92931   L 144.27253,203.45083   L 146.83168,198.65247   L 142.35316,202.81105   L 137.87463,207.28953   L 133.716,211.76801   L 129.55737,216.24648   L 121.56,225.84322   L 114.52232,235.43996   L 107.48463,245.35659   L 100.76684,255.27322   L 94.368947,264.86995   L 87.651158,274.78658   L 87.971053,274.78658   L 87.971053,274.78658   L 87.971053,274.78658   L 88.290947,274.78658   L 88.290947,274.78658   L 88.610842,274.78658   L 88.610842,274.78658   L 88.610842,274.78658  z "
     style="fill:#cfb070;fill-rule:evenodd;fill-opacity:1;stroke:none;" />
  <path
     id="path31"
     d="  M 102.36632,273.82691   L 142.35316,224.88355   L 135.95526,230.64159   L 130.19716,236.39963   L 124.75895,242.47757   L 119.64063,248.5555   L 114.84221,254.63343   L 110.04379,260.71137   L 105.88516,267.10919   L 101.40663,273.18713   L 101.40663,273.50702   L 101.40663,273.50702   L 101.40663,273.82691   L 101.40663,274.1468   L 101.72653,274.1468   L 101.72653,274.1468   L 102.04642,274.1468   L 102.36632,273.82691  z "
     style="fill:#cfb070;fill-rule:evenodd;fill-opacity:1;stroke:none;" />
  <path
     id="path33"
     d="  M 110.68358,272.86724   L 139.47411,235.12007   L 110.04379,273.18713   L 110.04379,273.18713   L 110.04379,272.86724   L 110.04379,272.86724   L 110.36368,272.86724   L 110.68358,272.86724   L 110.68358,272.86724   L 110.68358,272.86724   L 110.68358,272.86724  z "
     style="fill:#cfb070;fill-rule:evenodd;fill-opacity:1;stroke:none;" />
  <path
     id="path35"
     d="  M 98.527579,270.628   L 101.08674,266.7893   L 103.96579,263.2705   L 107.48463,259.75169   L 110.68358,255.913   L 113.88253,252.0743   L 117.08147,248.23561   L 119.64063,244.39691   L 121.87989,240.23833   L 121.87989,239.91844   L 121.56,239.91844   L 121.56,239.59855   L 121.24011,239.59855   L 121.24011,239.59855   L 120.92021,239.91844   L 120.60032,239.91844   L 120.28042,240.23833   L 97.887789,270.628   L 98.207684,270.628   L 98.207684,270.628   L 98.207684,270.628   L 98.207684,270.628   L 98.527579,270.628   L 98.527579,270.628   L 98.527579,270.628   L 98.527579,270.628  z "
     style="fill:#cfb070;fill-rule:evenodd;fill-opacity:1;stroke:none;" />
  <path
     id="path37"
     d="  M 90.530211,217.20616   L 91.17,213.36746   L 92.129684,209.52877   L 93.089368,205.37018   L 94.368947,201.85138   L 95.968421,198.01268   L 97.567895,194.49388   L 99.487263,190.65518   L 101.40663,187.45627   L 103.64589,183.93747   L 106.20505,181.05845   L 108.76421,177.85953   L 111.64326,175.3004   L 114.52232,172.74127   L 117.72126,170.18214   L 120.92021,168.2628   L 124.43905,166.34345   L 126.35842,165.38378   L 128.27779,164.4241   L 130.19716,163.46443   L 132.11653,162.82465   L 134.35579,161.86497   L 136.27516,161.22519   L 138.51442,160.58541   L 140.43379,160.26552   L 142.35316,161.54508   L 144.59242,162.50475   L 146.83168,163.46443   L 149.07095,163.78432   L 151.63011,164.10421   L 154.18926,164.10421   L 156.74842,164.10421   L 158.98768,163.46443   L 159.62747,162.82465   L 159.94737,162.18486   L 159.94737,161.54508   L 159.62747,160.58541   L 159.30758,159.94562   L 158.98768,159.30584   L 158.66779,158.34617   L 158.34789,158.02628   L 156.10863,157.0666   L 154.18926,156.10693   L 151.95,155.46715   L 150.03063,155.14726   L 145.55211,154.82736   L 140.75368,154.82736   L 136.27516,155.46715   L 131.79663,156.74671   L 127.638,158.34617   L 123.47937,160.26552   L 117.72126,163.78432   L 112.28305,167.62301   L 109.72389,169.86225   L 107.48463,172.10149   L 104.92547,174.66062   L 102.68621,177.21975   L 100.76684,179.77888   L 98.847474,182.33801   L 96.928105,185.21703   L 95.328632,188.09605   L 94.049053,191.29497   L 92.769474,194.49388   L 92.129684,197.69279   L 91.17,201.2116   L 91.17,203.13094   L 90.850105,205.37018   L 90.530211,207.28953   L 90.210316,209.52877   L 89.570526,211.44812   L 89.570526,213.36746   L 89.250632,215.28681   L 89.570526,217.20616   L 89.570526,217.20616   L 89.570526,217.20616   L 89.890421,217.20616   L 89.890421,217.20616   L 90.210316,217.20616   L 90.210316,217.20616   L 90.530211,217.20616   L 90.530211,217.20616  z "
     style="fill:#cfb070;fill-rule:evenodd;fill-opacity:1;stroke:none;" />
  <path
     id="path39"
     d="  M 176.262,195.45355   L 179.14105,194.49388   L 182.34,193.21431   L 184.89916,191.29497   L 187.45832,189.69551   L 192.57663,185.21703   L 197.37505,180.73856   L 202.17347,175.6203   L 206.97189,171.14182   L 209.53105,168.90258   L 212.09021,166.98323   L 214.96926,165.38378   L 217.84832,163.78432   L 221.04726,160.58541   L 224.56611,157.70639   L 227.76505,154.50747   L 230.964,151.62845   L 234.16295,148.74943   L 237.36189,145.87041   L 240.56084,142.99139   L 244.07968,139.79248   L 253.99642,140.75215   L 257.83516,134.99411   L 261.99379,129.55596   L 266.15242,124.1178   L 270.31105,118.67965   L 274.78958,113.56139   L 279.588,108.44313   L 284.06653,103.64476   L 288.86495,98.526505   L 298.78168,89.249658   L 309.33821,80.292703   L 320.21463,71.975531   L 331.41095,63.97825   L 333.33032,63.97825   L 334.92979,63.658359   L 336.52926,63.658359   L 338.12874,63.338467   L 339.72821,63.338467   L 341.32768,62.698685   L 342.60726,62.378794   L 344.20674,61.739011   L 346.446,60.779337   L 348.68526,59.179881   L 350.28474,57.260534   L 351.88421,55.341186   L 353.48368,53.101947   L 355.08316,50.862709   L 356.68263,48.943361   L 358.28211,46.704122   L 359.56168,43.50521   L 361.16116,40.306297   L 362.44074,37.427276   L 364.04021,34.548255   L 365.63968,31.989125   L 367.23916,29.110104   L 369.15853,26.550974   L 371.39779,23.671952   L 372.99726,22.072496   L 374.59674,20.47304   L 376.19621,19.193475   L 377.47579,18.233801   L 379.07526,16.954236   L 380.35484,15.994562   L 381.95432,15.034889   L 383.23389,14.395106   L 383.87368,13.435432   L 384.51347,12.475759   L 385.15326,11.196194   L 385.47316,9.9166287   L 385.79305,8.6370637   L 385.79305,7.67739   L 385.47316,6.397825   L 385.15326,5.4381512   L 383.23389,3.838695   L 380.99463,2.55913   L 379.07526,1.9193475   L 376.836,1.279565   L 374.59674,0.95967375   L 372.35747,0.95967375   L 370.11821,1.279565   L 367.87895,1.9193475   L 359.88158,6.0779337   L 351.88421,10.23652   L 344.20674,14.395106   L 336.52926,18.873584   L 329.17168,23.352061   L 321.81411,27.830539   L 314.45653,32.628907   L 306.77905,37.427276   L 311.57747,36.147711   L 316.056,34.868146   L 320.53453,32.948799   L 324.69316,30.70956   L 333.33032,26.231082   L 341.96747,21.112822   L 350.60463,15.994562   L 359.24179,11.196194   L 364.04021,8.956955   L 368.51874,7.3574987   L 373.31716,5.4381512   L 378.11558,4.1585862   L 379.07526,4.7983687   L 379.39516,5.4381512   L 379.71505,6.0779337   L 380.03495,7.0376075   L 379.71505,8.3171725   L 379.71505,9.2768462   L 379.39516,10.23652   L 379.07526,10.876302   L 375.55642,13.435432   L 372.35747,16.314454   L 369.47842,19.193475   L 366.59937,22.392387   L 361.80095,28.790212   L 357.32242,35.188037   L 352.84389,41.585862   L 348.04547,47.343905   L 345.48632,49.903035   L 342.60726,52.462165   L 339.40832,54.701404   L 335.88947,56.940642   L 333.65021,57.580425   L 331.73084,57.900316   L 329.81147,57.900316   L 327.89211,57.900316   L 325.97274,57.900316   L 324.05337,57.900316   L 322.45389,58.220207   L 320.53453,58.85999   L 320.21463,58.85999   L 319.89474,59.179881   L 319.89474,59.819664   L 319.57484,60.139555   L 319.57484,60.459446   L 319.57484,61.099229   L 319.57484,61.41912   L 319.25495,61.739011   L 314.45653,65.577706   L 309.33821,69.416401   L 304.53979,73.574987   L 299.74137,78.053465   L 294.94295,82.531942   L 290.46442,87.01042   L 286.30579,91.808788   L 281.82726,96.607157   L 273.51,106.84368   L 265.83253,116.76031   L 258.47495,126.99683   L 251.75716,136.59356   L 249.198,136.59356   L 246.95874,136.27367   L 244.39958,135.63389   L 241.84042,135.314   L 239.60116,134.99411   L 237.042,135.314   L 236.08232,135.63389   L 235.12263,136.27367   L 234.16295,136.91345   L 233.20326,137.87313   L 225.52579,144.91074   L 217.52842,152.26823   L 209.53105,158.98595   L 201.85358,166.02356   L 194.496,173.06117   L 187.45832,180.09877   L 184.25937,183.93747   L 181.06042,187.45627   L 178.18137,191.29497   L 175.30232,195.45355   L 175.30232,195.45355   L 175.62221,195.45355   L 175.62221,195.45355   L 175.62221,195.45355   L 175.94211,195.45355   L 175.94211,195.45355   L 175.94211,195.45355   L 176.262,195.45355  z "
     style="fill:#cfb070;fill-rule:evenodd;fill-opacity:1;stroke:none;" />
  <path
     id="path41"
     d="  M 148.11126,181.69823   L 151.95,180.09877   L 155.46884,178.49932   L 159.30758,176.89986   L 162.82642,174.98051   L 169.86411,170.82193   L 176.58189,166.02356   L 183.29968,160.9053   L 189.69758,155.14726   L 196.09547,149.38921   L 202.49337,143.31128   L 214.64937,130.83552   L 227.12526,118.67965   L 233.52316,112.60172   L 239.92105,106.84368   L 246.31895,101.72542   L 253.03674,96.607157   L 260.71421,90.209332   L 268.07179,84.131398   L 275.42937,78.373356   L 282.78695,72.615314   L 290.46442,66.857271   L 297.822,61.099229   L 305.17958,55.021295   L 312.53716,48.943361   L 304.21989,40.626189   L 303.9,41.265971   L 303.9,41.585862   L 303.9,42.225645   L 304.21989,42.865427   L 304.53979,43.185319   L 304.85968,43.825101   L 304.85968,44.464884   L 305.17958,45.104666   L 288.86495,57.900316   L 272.23042,71.335749   L 255.59589,85.730855   L 238.64147,100.44585   L 222.00695,115.80063   L 205.37242,131.4753   L 188.73789,147.78976   L 172.74316,163.78432   L 169.86411,166.34345   L 166.98505,168.58269   L 164.42589,171.14182   L 161.86674,173.38106   L 158.98768,175.3004   L 156.10863,177.21975   L 153.22958,178.81921   L 149.71074,180.09877   L 149.39084,180.09877   L 149.07095,180.09877   L 148.75105,179.77888   L 148.43116,179.77888   L 148.11126,179.77888   L 147.79137,179.45899   L 147.47147,179.45899   L 147.47147,179.1391   L 146.83168,178.49932   L 146.51179,178.17943   L 146.51179,177.21975   L 146.51179,176.57997   L 146.83168,175.94019   L 146.83168,174.98051   L 147.15158,174.02084   L 146.83168,173.38106   L 146.19189,173.70095   L 145.872,174.34073   L 145.55211,174.98051   L 145.55211,175.94019   L 145.55211,176.57997   L 145.55211,177.53964   L 145.23221,178.49932   L 145.23221,179.1391   L 147.47147,181.69823   L 147.47147,181.69823   L 147.47147,181.69823   L 147.79137,181.69823   L 147.79137,181.69823   L 147.79137,181.69823   L 147.79137,181.69823   L 148.11126,181.69823   L 148.11126,181.69823  z "
     style="fill:#cfb070;fill-rule:evenodd;fill-opacity:1;stroke:none;" />
  <path
     id="path43"
     d="  M 154.18926,174.02084   L 157.38821,172.42138   L 156.74842,172.10149   L 156.42853,172.10149   L 155.78874,172.10149   L 155.46884,172.42138   L 154.82905,172.74127   L 154.50916,173.06117   L 153.86937,173.38106   L 153.54947,173.70095   L 153.54947,173.70095   L 153.54947,173.70095   L 153.54947,173.70095   L 153.86937,174.02084   L 153.86937,174.02084   L 153.86937,174.02084   L 154.18926,174.02084   L 154.18926,174.02084  z "
     style="fill:#cfb070;fill-rule:evenodd;fill-opacity:1;stroke:none;" />
  <path
     id="path45"
     d="  M 178.50126,171.46171   L 207.29179,142.6715   L 203.45305,145.55052   L 199.61432,148.74943   L 195.77558,152.26823   L 191.93684,155.78704   L 188.09811,159.62573   L 184.25937,163.78432   L 180.74053,167.62301   L 177.54158,171.46171   L 177.54158,171.7816   L 177.86147,171.7816   L 177.86147,171.7816   L 177.86147,171.7816   L 178.18137,171.7816   L 178.18137,171.7816   L 178.50126,171.7816   L 178.50126,171.46171  z "
     style="fill:#cfb070;fill-rule:evenodd;fill-opacity:1;stroke:none;" />
  <path
     id="path47"
     d="  M 222.00695,167.94291   L 223.28653,166.98323   L 224.56611,166.34345   L 225.84568,165.70367   L 227.44516,165.06388   L 228.72474,164.4241   L 230.32421,163.46443   L 231.60379,162.82465   L 233.20326,162.18486   L 235.12263,160.9053   L 237.042,159.62573   L 238.64147,158.34617   L 240.56084,156.74671   L 242.16032,155.46715   L 243.75979,153.86769   L 245.67916,152.26823   L 247.27863,150.98867   L 262.63358,154.82736   L 272.55032,131.4753   L 270.63095,133.07476   L 269.03147,134.99411   L 267.432,137.23335   L 265.83253,139.47258   L 264.55295,141.71182   L 263.27337,144.59084   L 261.99379,147.14997   L 260.71421,150.34889   L 259.75453,150.66878   L 258.79484,150.66878   L 257.51526,150.66878   L 256.23568,150.34889   L 253.99642,149.7091   L 251.43726,149.06932   L 248.87811,148.42954   L 246.63884,148.42954   L 245.35926,148.74943   L 244.39958,149.06932   L 243.43989,149.7091   L 242.48021,150.34889   L 239.60116,152.90802   L 237.042,155.46715   L 234.16295,157.70639   L 231.60379,160.26552   L 229.04463,162.18486   L 226.48547,164.10421   L 223.92632,166.02356   L 221.36716,167.94291   L 221.36716,167.94291   L 221.68705,167.94291   L 221.68705,167.94291   L 221.68705,167.94291   L 221.68705,167.94291   L 222.00695,167.94291   L 222.00695,167.94291   L 222.00695,167.94291  z "
     style="fill:#cfb070;fill-rule:evenodd;fill-opacity:1;stroke:none;" />
  <path
     id="path49"
     d="  M 106.52495,163.46443   L 108.44432,161.54508   L 110.68358,159.94562   L 112.92284,158.34617   L 115.482,156.74671   L 120.28042,154.18758   L 125.71863,151.94834   L 131.47674,150.66878   L 137.23484,149.7091   L 142.99295,149.06932   L 148.75105,149.38921   L 148.75105,148.74943   L 148.11126,148.42954   L 147.15158,148.10965   L 146.19189,147.78976   L 144.91232,147.46987   L 143.63274,147.46987   L 142.35316,147.14997   L 141.39347,147.14997   L 135.95526,147.46987   L 130.83695,148.42954   L 126.03853,149.7091   L 121.24011,151.62845   L 116.76158,153.86769   L 112.60295,156.42682   L 111.00347,158.02628   L 109.08411,159.62573   L 107.48463,161.54508   L 105.88516,163.46443   L 105.88516,163.46443   L 105.88516,163.46443   L 105.88516,163.46443   L 106.20505,163.46443   L 106.20505,163.46443   L 106.52495,163.46443   L 106.52495,163.46443   L 106.52495,163.46443  z "
     style="fill:#cfb070;fill-rule:evenodd;fill-opacity:1;stroke:none;" />
  <path
     id="path51"
     d="  M 200.89389,156.42682   L 237.042,120.599   L 232.24358,124.1178   L 227.44516,128.27639   L 222.32684,132.75487   L 217.52842,137.23335   L 213.04989,142.03171   L 208.57137,146.83008   L 204.09284,151.62845   L 199.93421,156.74671   L 199.93421,156.74671   L 199.93421,156.74671   L 200.25411,156.74671   L 200.25411,156.74671   L 200.574,156.42682   L 200.574,156.42682   L 200.574,156.42682   L 200.89389,156.42682  z "
     style="fill:#cfb070;fill-rule:evenodd;fill-opacity:1;stroke:none;" />
  <path
     id="path53"
     d="  M 129.55737,144.27095   L 134.35579,142.99139   L 128.91758,143.63117   L 128.91758,143.63117   L 128.91758,143.63117   L 128.91758,143.95106   L 129.23747,143.95106   L 129.23747,144.27095   L 129.23747,144.27095   L 129.23747,144.27095   L 129.55737,144.27095  z "
     style="fill:#cfb070;fill-rule:evenodd;fill-opacity:1;stroke:none;" />
  <path
     id="path55"
     d="  M 222.00695,140.75215   L 234.48284,128.27639   L 222.00695,140.75215  z "
     style="fill:#cfb070;fill-rule:evenodd;fill-opacity:1;stroke:none;" />
  <path
     id="path57"
     d="  M 279.588,80.612595   L 294.30316,68.776619   L 278.94821,80.292703   L 278.94821,80.292703   L 279.26811,80.292703   L 279.26811,80.292703   L 279.26811,80.612595   L 279.588,80.612595   L 279.588,80.612595   L 279.588,80.612595   L 279.588,80.612595  z "
     style="fill:#cfb070;fill-rule:evenodd;fill-opacity:1;stroke:none;" />
  <path
     id="path59"
     d="  M 291.42411,76.134117   L 312.85705,58.540099   L 290.78432,76.134117   L 290.78432,76.134117   L 290.78432,76.134117   L 291.10421,76.134117   L 291.10421,76.134117   L 291.42411,76.134117   L 291.42411,76.134117   L 291.42411,76.134117   L 291.42411,76.134117  z "
     style="fill:#cfb070;fill-rule:evenodd;fill-opacity:1;stroke:none;" />
  <path
     id="path61"
     d="  M 358.602,65.257815   L 361.80095,63.658359   L 361.80095,63.658359   L 362.12084,63.338467   L 362.12084,63.018576   L 362.12084,63.018576   L 362.12084,62.698685   L 362.12084,62.378794   L 361.80095,62.058902   L 361.80095,61.739011   L 361.48105,61.739011   L 361.16116,61.739011   L 360.84126,61.739011   L 360.84126,61.739011   L 360.52137,61.739011   L 360.20147,61.739011   L 359.88158,62.058902   L 359.56168,62.058902   L 359.56168,62.058902   L 359.24179,62.058902   L 358.92189,62.058902   L 358.92189,62.058902   L 358.602,62.058902   L 358.28211,62.058902   L 357.96221,62.058902   L 357.96221,62.058902   L 357.32242,61.739011   L 357.00253,61.41912   L 356.36274,61.099229   L 356.04284,60.779337   L 355.72295,60.139555   L 355.08316,59.819664   L 354.44337,59.499772   L 353.48368,59.499772   L 353.48368,59.499772   L 353.48368,59.499772   L 353.16379,59.819664   L 353.16379,59.819664   L 353.16379,59.819664   L 352.84389,60.139555   L 352.84389,60.139555   L 352.84389,60.139555   L 352.84389,60.459446   L 352.84389,60.779337   L 352.84389,61.099229   L 352.84389,61.739011   L 353.16379,62.058902   L 353.16379,62.378794   L 353.48368,62.378794   L 353.48368,62.698685   L 358.602,65.257815  z "
     style="fill:#cfb070;fill-rule:evenodd;fill-opacity:1;stroke:none;" />
  <path
     id="path63"
     d="  M 367.23916,52.782056   L 367.55905,52.782056   L 367.87895,52.782056   L 368.19884,52.462165   L 368.51874,52.462165   L 368.83863,52.462165   L 369.15853,52.142274   L 369.47842,52.142274   L 369.79832,51.822382   L 369.79832,51.822382   L 369.79832,51.502491   L 370.11821,51.1826   L 370.11821,50.862709   L 370.43811,50.542817   L 370.43811,50.222926   L 370.43811,49.903035   L 370.11821,49.583144   L 367.23916,50.222926   L 363.08053,48.62347   L 362.76063,48.62347   L 362.44074,48.62347   L 362.12084,48.943361   L 362.12084,49.263252   L 362.12084,49.263252   L 361.80095,49.583144   L 361.80095,49.903035   L 361.80095,50.222926   L 362.12084,50.542817   L 362.76063,51.1826   L 363.40042,51.502491   L 364.04021,51.822382   L 364.68,52.142274   L 365.63968,52.142274   L 366.27947,52.462165   L 367.23916,52.782056  z "
     style="fill:#cfb070;fill-rule:evenodd;fill-opacity:1;stroke:none;" />
  <path
     id="path65"
     d="  M 338.44863,50.222926   L 338.76853,50.222926   L 339.08842,50.222926   L 339.40832,49.903035   L 339.72821,49.903035   L 340.04811,49.903035   L 340.368,49.583144   L 340.68789,49.583144   L 340.68789,49.263252   L 341.00779,49.263252   L 341.00779,48.943361   L 341.32768,48.943361   L 341.32768,48.62347   L 341.32768,48.62347   L 341.32768,48.303579   L 341.64758,47.983687   L 341.64758,47.663796   L 341.32768,47.663796   L 341.32768,47.343905   L 341.00779,47.343905   L 341.00779,47.024014   L 340.68789,46.704122   L 340.368,46.704122   L 340.368,46.384231   L 340.04811,46.06434   L 336.84916,46.704122   L 337.48895,49.903035   L 337.48895,49.903035   L 337.48895,49.903035   L 337.80884,49.903035   L 337.80884,49.903035   L 338.12874,50.222926   L 338.12874,50.222926   L 338.44863,50.222926   L 338.44863,50.222926  z "
     style="fill:#cfb070;fill-rule:evenodd;fill-opacity:1;stroke:none;" />
  <path
     id="path67"
     d="  M 295.90263,43.50521   L 292.06389,35.82782   L 309.978,23.671952   L 290.14453,34.868146   L 295.58274,43.825101   L 295.58274,43.825101   L 295.58274,43.825101   L 295.58274,43.825101   L 295.58274,43.50521   L 295.58274,43.50521   L 295.58274,43.50521   L 295.90263,43.50521   L 295.90263,43.50521  z "
     style="fill:#cfb070;fill-rule:evenodd;fill-opacity:1;stroke:none;" />
  <path
     id="path69"
     d="  M 374.91663,39.986406   L 379.07526,39.346624   L 379.07526,39.346624   L 379.07526,39.346624   L 379.39516,39.346624   L 379.39516,39.026732   L 379.71505,39.026732   L 379.71505,38.706841   L 379.71505,38.706841   L 380.03495,38.38695   L 379.71505,37.747167   L 379.07526,37.427276   L 378.75537,37.427276   L 378.11558,37.427276   L 377.47579,37.747167   L 376.836,37.747167   L 376.19621,37.747167   L 375.55642,37.427276   L 375.23653,36.787494   L 374.91663,36.467602   L 374.91663,35.82782   L 374.91663,34.868146   L 374.91663,34.228364   L 374.91663,33.588581   L 374.91663,32.948799   L 374.91663,32.309016   L 374.59674,32.309016   L 374.59674,32.309016   L 374.27684,31.989125   L 374.27684,31.989125   L 373.95695,31.989125   L 373.63705,31.989125   L 373.31716,31.989125   L 373.31716,31.989125   L 372.67737,31.989125   L 372.35747,32.309016   L 372.03758,32.628907   L 371.71768,32.948799   L 371.39779,33.26869   L 371.39779,33.908472   L 371.07789,34.228364   L 370.758,34.868146   L 370.758,35.507929   L 371.07789,36.467602   L 371.39779,37.107385   L 371.71768,37.747167   L 372.35747,38.38695   L 372.99726,38.706841   L 373.63705,39.346624   L 374.27684,39.986406   L 374.27684,39.986406   L 374.27684,39.986406   L 374.27684,39.986406   L 374.59674,39.986406   L 374.59674,39.986406   L 374.59674,39.986406   L 374.91663,39.986406   L 374.91663,39.986406  z "
     style="fill:#cfb070;fill-rule:evenodd;fill-opacity:1;stroke:none;" />
  <path
     id="path71"
     d="  M 348.36537,37.427276   L 348.68526,37.427276   L 348.68526,37.427276   L 349.00516,37.427276   L 349.00516,37.427276   L 349.32505,37.427276   L 349.64495,37.427276   L 349.96484,37.107385   L 350.28474,37.107385   L 349.96484,37.107385   L 349.32505,36.787494   L 349.00516,36.467602   L 348.36537,36.147711   L 348.04547,35.82782   L 347.40568,35.82782   L 346.76589,35.507929   L 346.12611,35.82782   L 346.12611,36.147711   L 346.12611,36.147711   L 346.12611,36.467602   L 346.446,36.787494   L 346.446,37.107385   L 346.76589,37.427276   L 347.08579,37.747167   L 347.08579,38.067059   L 347.40568,38.067059   L 347.40568,37.747167   L 347.72558,37.747167   L 347.72558,37.747167   L 348.04547,37.747167   L 348.36537,37.747167   L 348.36537,37.747167   L 348.36537,37.427276  z "
     style="fill:#cfb070;fill-rule:evenodd;fill-opacity:1;stroke:none;" />
  <path
     id="path73"
     d="  M 384.19358,28.15043   L 388.35221,27.190756   L 388.35221,27.190756   L 388.67211,26.870865   L 388.67211,26.870865   L 388.67211,26.550974   L 388.992,26.550974   L 388.992,26.231082   L 388.992,25.911191   L 388.992,25.5913   L 388.67211,24.951517   L 388.03232,24.951517   L 387.39253,24.951517   L 386.75274,25.271409   L 386.11295,25.5913   L 385.47316,25.911191   L 384.83337,25.911191   L 384.19358,25.5913   L 383.87368,25.271409   L 383.55379,24.951517   L 383.55379,24.311735   L 383.87368,23.991844   L 383.87368,23.352061   L 384.19358,23.03217   L 384.51347,22.712279   L 384.83337,22.072496   L 384.83337,22.072496   L 384.83337,21.752605   L 384.51347,21.432714   L 384.51347,21.112822   L 384.51347,20.792931   L 384.19358,20.47304   L 384.19358,20.153149   L 383.87368,19.833257   L 383.55379,19.833257   L 382.914,19.833257   L 382.59411,20.153149   L 382.27421,20.153149   L 381.95432,20.47304   L 381.63442,20.792931   L 381.31453,20.792931   L 380.99463,21.112822   L 380.67474,25.5913   L 380.67474,25.911191   L 380.99463,26.550974   L 381.31453,26.870865   L 381.95432,27.190756   L 382.27421,27.510647   L 382.914,27.830539   L 383.55379,27.830539   L 384.19358,28.15043  z "
     style="fill:#cfb070;fill-rule:evenodd;fill-opacity:1;stroke:none;" />
  <path
     id="path75"
     d="  M 370.43811,12.155867   L 370.43811,12.155867   L 370.758,11.835976   L 370.758,11.835976   L 371.07789,11.835976   L 371.07789,11.835976   L 371.39779,11.835976   L 371.39779,11.516085   L 371.39779,11.516085   L 371.71768,11.516085   L 372.03758,11.196194   L 372.03758,10.876302   L 372.35747,10.23652   L 372.67737,9.9166287   L 372.67737,9.5967375   L 372.67737,8.956955   L 372.67737,8.6370637   L 372.35747,8.3171725   L 372.35747,8.3171725   L 372.35747,8.3171725   L 372.35747,7.9972812   L 372.03758,7.9972812   L 372.03758,7.9972812   L 371.71768,8.3171725   L 371.39779,8.6370637   L 371.07789,8.6370637   L 370.758,8.956955   L 370.43811,9.2768462   L 370.43811,9.5967375   L 370.11821,9.9166287   L 369.79832,10.23652   L 369.47842,10.556411   L 369.47842,11.196194   L 369.47842,11.516085   L 369.47842,11.835976   L 369.47842,11.835976   L 369.79832,11.835976   L 369.79832,11.835976   L 370.11821,11.835976   L 370.11821,11.835976   L 370.43811,12.155867  z "
     style="fill:#cfb070;fill-rule:evenodd;fill-opacity:1;stroke:none;" />
  <path
     id="path77"
     d="  M 84.452211,282.46397   L 92.449579,293.34028   L 165.38558,202.17127   L 189.37768,169.22247   L 238.32158,140.11237   L 257.19537,124.1178   L 295.26284,75.814226   L 320.21463,59.819664   L 333.97011,61.099229   L 347.08579,41.905754   L 360.20147,22.712279   L 372.99726,10.876302   L 364.04021,4.7983687   L 325.01305,29.749886   L 306.13926,43.825101   L 308.05863,55.980969   L 250.15768,94.048027   L 231.28389,117.0802   L 196.41537,147.14997   L 150.35053,189.37562   L 124.43905,221.36474   L 122.83958,223.92387   L 118.36105,230.96148   L 111.96316,240.55822   L 104.92547,251.75441   L 97.567895,263.2705   L 91.17,272.86724   L 86.371579,279.90484   L 84.452211,282.46397  z "
     style="fill:#e8d9a8;fill-rule:evenodd;fill-opacity:1;stroke:none;" />
  <path
     id="path79"
     d="  M 145.23221,173.06117   L 127.638,171.14182   L 111.64326,172.10149   L 111.32337,172.74127   L 110.04379,174.34073   L 108.44432,176.57997   L 106.52495,179.1391   L 104.92547,181.69823   L 103.326,183.93747   L 102.04642,185.53692   L 101.72653,186.17671   L 101.08674,186.81649   L 99.487263,188.09605   L 97.567895,190.33529   L 95.008737,192.57453   L 92.769474,195.13366   L 90.530211,197.05301   L 89.250632,198.65247   L 88.610842,198.97236   L 88.610842,199.93203   L 88.290947,201.53149   L 87.971053,204.41051   L 87.651158,207.28953   L 87.331263,210.16855   L 87.011368,212.72768   L 86.691474,214.64703   L 86.691474,215.28681   L 86.371579,215.6067   L 85.731789,216.88627   L 85.092,218.80561   L 84.132316,220.72496   L 83.172632,222.64431   L 82.212947,224.56366   L 81.893053,225.84322   L 81.573158,226.16311   L 80.933368,226.483   L 79.333895,227.44268   L 77.094632,228.72224   L 74.535474,230.3217   L 71.976316,231.60126   L 69.737053,232.88083   L 68.137579,233.8405   L 67.817684,234.16039   L 66.538105,234.48029   L 63.978947,235.12007   L 60.140211,236.07974   L 55.661684,237.35931   L 51.183158,238.31898   L 47.344421,239.27865   L 44.785263,239.91844   L 43.825579,240.23833   L 42.865895,240.87811   L 41.266421,242.47757   L 38.707263,245.0367   L 35.508316,247.91572   L 32.629263,250.47485   L 30.070105,253.03398   L 28.470632,254.63343   L 27.830842,255.27322   L 27.510947,255.913   L 26.551263,257.83235   L 25.591579,260.39148   L 24.312,263.2705   L 23.032421,266.14952   L 21.752842,268.70865   L 21.113053,270.628   L 20.793158,271.26778   L 20.793158,272.22745   L 21.432947,275.42637   L 22.072737,279.58495   L 22.712526,284.38332   L 23.352316,289.18169   L 23.992105,293.34028   L 24.631895,296.2193   L 24.951789,297.49886   L 24.951789,298.13864   L 25.591579,300.37788   L 26.551263,303.89669   L 27.830842,307.41549   L 28.790526,311.25419   L 29.750211,314.4531   L 30.39,316.69234   L 30.709895,317.33212   L 31.029789,318.29179   L 32.309368,320.85092   L 33.908842,324.36973   L 35.508316,328.52831   L 37.427684,332.36701   L 39.027158,335.88581   L 40.306737,338.44494   L 40.626632,339.40462   L 39.986842,339.72451   L 38.707263,340.36429   L 36.468,341.32396   L 34.228737,342.60353   L 31.669579,343.5632   L 29.750211,344.52288   L 28.150737,345.16266   L 27.830842,345.48255   L 28.470632,345.80244   L 30.709895,347.08201   L 33.588947,349.00135   L 37.107789,350.9207   L 40.626632,353.15994   L 43.825579,354.7594   L 45.744947,356.03896   L 46.704632,356.35885   L 47.344421,356.99863   L 49.583684,357.95831   L 52.782632,359.23787   L 55.981579,360.51744   L 59.500421,362.11689   L 62.699368,363.39646   L 64.938632,364.35613   L 65.578421,364.67602   L 66.218211,364.67602   L 67.497789,364.99592   L 69.737053,365.6357   L 71.976316,365.95559   L 74.535474,366.59537   L 76.454842,367.23515   L 78.054316,367.55505   L 78.694105,367.55505   L 79.333895,367.23515   L 80.933368,366.91526   L 83.492526,365.95559   L 86.691474,364.99592   L 89.570526,364.03624   L 92.129684,363.39646   L 94.049053,362.75668   L 94.688842,362.43679   L 95.648526,362.11689   L 98.207684,361.47711   L 101.40663,360.51744   L 105.56526,359.23787   L 109.72389,357.95831   L 113.24274,356.67874   L 115.80189,355.71907   L 116.76158,355.39918   L 117.40137,354.7594   L 119.32074,353.15994   L 121.87989,350.9207   L 125.07884,348.04168   L 128.27779,345.16266   L 130.83695,342.92342   L 132.75632,341.00407   L 133.39611,340.36429   L 133.716,339.40462   L 134.67568,336.52559   L 135.63537,332.36701   L 136.91495,327.56864   L 138.19453,322.77027   L 139.47411,318.61168   L 140.11389,315.41277   L 140.43379,314.4531   L 140.75368,313.81332   L 141.07358,311.89397   L 141.39347,309.33484   L 142.03326,306.45582   L 142.67305,303.5768   L 142.99295,301.01767   L 143.31284,299.09832   L 143.63274,298.45854   L 143.63274,297.49886   L 143.95263,295.25962   L 144.59242,292.06071   L 145.55211,288.54191   L 146.19189,284.70321   L 146.83168,281.5043   L 147.15158,279.26506   L 147.47147,278.30539   L 147.79137,277.6656   L 149.39084,275.74626   L 151.31021,273.18713   L 153.86937,270.30811   L 156.10863,267.42908   L 158.34789,264.86995   L 159.62747,262.95061   L 160.26726,262.31082   L 160.90705,261.67104   L 162.82642,260.07159   L 165.38558,257.51246   L 168.26463,254.95333   L 171.14368,252.0743   L 173.70284,249.51517   L 175.62221,247.91572   L 176.262,247.27594   L 176.90179,246.63615   L 178.82116,245.35659   L 181.06042,243.43724   L 183.93947,241.198   L 186.49863,238.95876   L 189.05779,237.03942   L 190.65726,235.75985   L 191.29705,235.12007   L 191.61695,234.48029   L 192.57663,232.56094   L 193.53632,229.68192   L 194.81589,226.16311   L 196.09547,222.9642   L 197.37505,220.08518   L 198.01484,217.84594   L 198.33474,217.20616   L 198.33474,216.88627   L 197.69495,215.6067   L 197.37505,213.68735   L 196.73526,211.76801   L 196.09547,209.84866   L 195.77558,207.92931   L 195.45568,206.64975   L 195.13579,206.00996   L 195.13579,206.00996   L 194.496,205.37018   L 193.85621,204.41051   L 193.21642,203.13094   L 192.57663,202.17127   L 191.93684,201.2116   L 191.61695,200.25192   L 191.29705,199.93203   L 190.65726,200.25192   L 188.73789,200.25192   L 185.85884,200.57181   L 182.97979,200.57181   L 179.78084,200.8917   L 176.90179,200.8917   L 174.98242,201.2116   L 174.34263,201.2116   L 170.82379,205.37018   L 161.54684,216.24648   L 148.11126,231.60126   L 133.07621,249.19528   L 117.72126,267.10919   L 104.60558,282.46397   L 95.328632,293.34028   L 91.809789,297.49886   L 90.850105,296.85908   L 88.610842,295.57951   L 85.731789,293.66017   L 82.212947,291.42093   L 78.694105,289.18169   L 75.495158,287.26234   L 73.255895,285.98278   L 72.616105,285.34299   L 75.815053,280.54463   L 83.812421,267.74898   L 95.328632,249.51517   L 108.76421,228.72224   L 121.87989,207.92931   L 133.716,190.0154   L 138.19453,182.97779   L 142.03326,177.53964   L 144.27253,174.02084   L 145.23221,173.06117  z "
     style="fill:#b89900;fill-rule:evenodd;fill-opacity:1;stroke:none;" />
  <path
     id="path81"
     d="  M 77.734421,375.55233   L 81.573158,375.55233   L 85.411895,375.55233   L 89.250632,374.91254   L 93.089368,374.27276   L 96.928105,373.63298   L 100.76684,372.67331   L 104.28568,371.39374   L 107.80453,370.11418   L 114.84221,367.23515   L 121.56,363.71635   L 127.95789,360.19755   L 133.716,356.67874   L 136.27516,355.07929   L 138.19453,353.15994   L 140.11389,350.9207   L 142.03326,349.00135   L 143.31284,346.76211   L 144.59242,344.52288   L 145.872,341.96375   L 146.51179,339.40462   L 149.07095,334.92614   L 149.71074,331.08744   L 150.03063,327.24875   L 150.03063,323.41005   L 150.03063,319.57136   L 149.71074,315.73266   L 149.39084,311.89397   L 148.43116,308.05527   L 147.15158,304.53647   L 147.15158,304.21658   L 146.83168,304.21658   L 146.83168,303.89669   L 146.51179,303.89669   L 146.19189,303.5768   L 145.872,303.5768   L 145.55211,303.5768   L 145.23221,303.89669   L 133.716,334.92614   L 131.47674,338.44494   L 128.59768,341.64385   L 126.03853,344.84277   L 123.15947,347.4019   L 120.28042,350.28092   L 117.08147,352.52016   L 113.88253,355.07929   L 110.68358,356.99863   L 107.16474,358.91798   L 103.64589,360.83733   L 100.12705,362.43679   L 96.288316,363.71635   L 92.129684,364.99592   L 88.290947,366.27548   L 83.812421,367.23515   L 79.653789,367.87494   L 76.774737,368.19483   L 74.215579,367.87494   L 71.656421,367.55505   L 69.417158,367.23515   L 64.618737,365.95559   L 60.140211,364.03624   L 55.981579,361.797   L 51.503053,359.87766   L 47.344421,357.63842   L 42.865895,356.03896   L 40.626632,354.7594   L 38.707263,353.79972   L 36.787895,352.52016   L 34.868526,350.9207   L 33.269053,349.64114   L 31.669579,348.04168   L 29.750211,346.44222   L 28.150737,345.16266   L 38.387368,336.52559   L 35.828211,328.8482   L 32.309368,320.53103   L 29.110421,312.21386   L 25.911474,303.89669   L 24.631895,299.41821   L 23.672211,294.93973   L 22.712526,290.78115   L 22.392632,286.30267   L 22.392632,281.82419   L 22.712526,277.6656   L 23.672211,273.18713   L 25.271684,268.70865   L 28.790526,262.95061   L 32.949158,257.19256   L 37.427684,251.43452   L 42.546,245.99637   L 45.425053,243.75713   L 47.984211,241.198   L 50.863263,238.95876   L 54.062211,237.03942   L 56.941263,235.12007   L 60.140211,233.20072   L 63.659053,231.92116   L 66.858,230.64159   L 67.177895,230.64159   L 67.497789,230.64159   L 67.817684,230.64159   L 67.817684,230.64159   L 68.137579,230.64159   L 68.137579,230.64159   L 68.457474,230.64159   L 68.457474,230.64159   L 67.817684,230.00181   L 66.858,229.68192   L 65.258526,229.68192   L 63.659053,229.68192   L 61.739684,230.00181   L 59.820316,230.3217   L 58.220842,230.64159   L 56.621368,230.96148   L 53.102526,232.24105   L 49.903579,233.52061   L 46.384737,235.43996   L 43.185789,237.35931   L 40.306737,239.59855   L 37.427684,241.83778   L 34.548632,244.07702   L 31.669579,246.95604   L 26.551263,252.3942   L 22.072737,258.15224   L 17.914105,264.23017   L 14.395263,270.30811   L 13.435579,276.06615   L 12.795789,281.5043   L 12.795789,287.26234   L 12.795789,292.70049   L 13.435579,298.13864   L 14.395263,303.5768   L 15.354947,309.33484   L 16.954421,314.77299   L 17.594211,316.37245   L 18.553895,317.9719   L 19.193684,319.25147   L 20.153368,320.85092   L 20.793158,322.13049   L 21.432947,323.72994   L 22.392632,325.00951   L 23.032421,326.28907   L 22.712526,328.20842   L 22.072737,330.12777   L 21.113053,331.72723   L 20.153368,333.00679   L 19.193684,334.60625   L 18.234,336.2057   L 17.914105,338.12505   L 17.914105,340.0444   L 20.473263,343.24331   L 23.352316,346.44222   L 26.231368,349.32124   L 29.430316,352.20027   L 32.629263,354.7594   L 35.828211,356.99863   L 39.027158,359.23787   L 42.546,361.47711   L 49.583684,365.31581   L 56.941263,368.83461   L 64.618737,372.03352   L 72.616105,374.91254   L 73.575789,374.91254   L 74.215579,374.91254   L 74.855368,374.91254   L 75.495158,375.23244   L 76.134947,375.23244   L 76.774737,375.55233   L 77.094632,375.55233   L 77.734421,375.55233  z "
     style="fill:#000000;fill-rule:evenodd;fill-opacity:1;stroke:none;" />
  <path
     id="path83"
     d="  M 129.55737,374.27276   L 131.47674,373.95287   L 133.07621,373.63298   L 134.35579,372.9932   L 135.95526,372.35341   L 138.51442,370.11418   L 141.07358,367.87494   L 143.31284,364.99592   L 145.872,362.43679   L 148.11126,359.87766   L 150.67042,357.95831   L 153.22958,354.7594   L 155.78874,351.24059   L 158.028,347.72179   L 159.94737,344.20298   L 161.54684,340.36429   L 162.50653,336.52559   L 163.14632,332.04712   L 163.46621,327.88853   L 162.82642,326.92886   L 162.18663,325.96918   L 161.86674,325.00951   L 161.54684,324.04984   L 160.90705,323.41005   L 160.58716,322.45038   L 159.94737,321.49071   L 159.30758,320.53103   L 158.98768,320.53103   L 158.98768,320.85092   L 158.66779,320.85092   L 158.66779,320.85092   L 158.66779,320.85092   L 158.66779,320.85092   L 158.66779,321.17081   L 158.34789,321.49071   L 157.70811,325.3294   L 157.38821,329.1681   L 156.42853,332.6869   L 155.46884,336.52559   L 154.50916,340.0444   L 153.22958,343.5632   L 151.95,347.08201   L 150.35053,350.28092   L 148.75105,353.47983   L 146.83168,356.67874   L 144.59242,359.55776   L 142.35316,362.75668   L 139.794,365.31581   L 137.23484,368.19483   L 134.35579,370.75396   L 131.47674,373.31309   L 130.83695,373.31309   L 130.51705,373.31309   L 130.19716,373.63298   L 129.87726,373.63298   L 129.55737,373.63298   L 129.55737,373.95287   L 129.23747,373.95287   L 129.23747,374.27276   L 129.23747,374.27276   L 129.23747,374.27276   L 129.23747,374.27276   L 129.55737,374.27276   L 129.55737,374.27276   L 129.55737,374.27276   L 129.55737,374.27276   L 129.55737,374.27276  z "
     style="fill:#000000;fill-rule:evenodd;fill-opacity:1;stroke:none;" />
  <path
     id="path85"
     d="  M 77.734421,356.03896   L 78.054316,356.03896   L 78.374211,356.03896   L 78.694105,356.03896   L 79.014,356.03896   L 79.333895,356.03896   L 79.653789,355.71907   L 79.973684,355.71907   L 80.613474,355.71907   L 80.933368,355.39918   L 81.573158,354.7594   L 81.893053,354.4395   L 82.532842,353.47983   L 82.852737,352.84005   L 82.852737,351.88037   L 82.852737,350.9207   L 82.852737,350.28092   L 82.532842,349.32124   L 82.532842,348.68146   L 82.212947,348.04168   L 82.212947,347.72179   L 82.212947,347.08201   L 81.893053,346.76211   L 81.573158,346.12233   L 81.253263,345.80244   L 81.253263,345.80244   L 80.933368,345.80244   L 80.933368,345.80244   L 80.613474,345.48255   L 80.293579,345.48255   L 80.293579,345.48255   L 79.973684,345.48255   L 79.653789,345.48255   L 73.575789,351.56048   L 73.255895,351.56048   L 73.255895,351.56048   L 72.936,351.56048   L 72.616105,351.56048   L 72.616105,351.56048   L 72.296211,351.56048   L 72.296211,351.24059   L 71.976316,350.9207   L 73.255895,340.68418   L 73.255895,340.36429   L 73.255895,340.0444   L 72.936,339.72451   L 72.616105,339.72451   L 72.296211,339.72451   L 71.976316,339.72451   L 71.336526,339.40462   L 71.016632,339.40462   L 67.497789,341.32396   L 67.177895,341.96375   L 66.538105,342.60353   L 65.898316,343.5632   L 65.578421,344.52288   L 65.258526,345.48255   L 65.258526,346.44222   L 65.258526,347.4019   L 65.258526,348.68146   L 66.538105,350.28092   L 67.817684,351.56048   L 69.097263,352.52016   L 70.696737,353.47983   L 72.296211,354.4395   L 74.215579,355.07929   L 75.815053,355.71907   L 77.734421,356.03896  z "
     style="fill:#000000;fill-rule:evenodd;fill-opacity:1;stroke:none;" />
  <path
     id="path87"
     d="  M 20.153368,354.4395   L 20.153368,354.4395   L 20.153368,354.4395   L 20.473263,354.4395   L 20.473263,354.4395   L 20.473263,354.4395   L 20.793158,354.4395   L 20.793158,354.11961   L 20.793158,354.11961   L 20.473263,352.52016   L 19.513579,350.9207   L 18.553895,349.32124   L 16.954421,347.72179   L 15.354947,346.44222   L 13.755474,344.84277   L 12.156,343.5632   L 10.876421,341.96375   L 9.9167368,341.64385   L 8.9570526,341.00407   L 7.9973684,340.68418   L 7.0376842,340.0444   L 6.3978947,339.40462   L 5.7581053,338.76483   L 5.4382105,337.80516   L 4.7984211,336.52559   L 5.4382105,335.88581   L 5.7581053,334.92614   L 6.3978947,334.28636   L 7.0376842,333.96646   L 7.9973684,333.32668   L 8.9570526,333.00679   L 9.9167368,332.36701   L 10.876421,332.04712   L 13.755474,328.52831   L 2.2392632,331.72723   L 0,337.48527   L 0.95968421,339.08472   L 1.5994737,340.68418   L 2.5591579,342.28364   L 3.8387368,343.88309   L 4.7984211,345.48255   L 6.3978947,346.76211   L 7.9973684,347.72179   L 9.9167368,348.68146   L 10.236632,348.68146   L 10.556526,348.68146   L 10.876421,348.68146   L 11.196316,348.68146   L 11.196316,348.68146   L 11.516211,348.68146   L 11.516211,348.68146   L 11.516211,348.68146   L 20.153368,354.4395  z "
     style="fill:#000000;fill-rule:evenodd;fill-opacity:1;stroke:none;" />
  <path
     id="path89"
     d="  M 95.008737,350.9207   L 96.288316,351.24059   L 97.887789,350.9207   L 99.487263,350.60081   L 100.76684,350.28092   L 102.36632,349.64114   L 103.326,349.00135   L 104.60558,348.04168   L 105.56526,346.76211   L 105.88516,346.44222   L 105.88516,346.12233   L 106.20505,345.80244   L 106.52495,345.48255   L 106.52495,345.48255   L 106.52495,345.16266   L 106.84484,345.16266   L 106.84484,345.16266   L 106.84484,344.52288   L 106.84484,343.88309   L 106.52495,343.24331   L 106.52495,342.60353   L 106.20505,341.96375   L 105.88516,341.32396   L 105.56526,340.68418   L 104.92547,340.36429   L 95.008737,348.68146   L 94.368947,348.36157   L 94.049053,348.36157   L 93.729158,348.04168   L 93.409263,347.72179   L 93.089368,347.4019   L 92.769474,347.08201   L 92.449579,346.44222   L 92.449579,345.80244   L 95.648526,338.44494   L 95.648526,338.44494   L 95.648526,338.12505   L 95.328632,338.12505   L 95.328632,337.80516   L 95.328632,337.80516   L 95.008737,337.80516   L 95.008737,337.48527   L 95.008737,337.48527   L 94.049053,337.80516   L 93.089368,338.12505   L 92.129684,338.44494   L 91.489895,339.08472   L 90.530211,340.0444   L 89.890421,341.00407   L 89.250632,341.64385   L 88.930737,342.60353   L 89.570526,347.72179   L 95.008737,350.9207  z "
     style="fill:#000000;fill-rule:evenodd;fill-opacity:1;stroke:none;" />
  <path
     id="path91"
     d="  M 120.28042,340.68418   L 124.43905,339.72451   L 125.39874,338.76483   L 125.71863,337.48527   L 126.03853,335.88581   L 126.03853,334.60625   L 125.71863,333.32668   L 125.39874,332.04712   L 124.75895,330.76755   L 124.11916,329.80788   L 123.79926,329.48799   L 123.47937,329.1681   L 123.15947,329.1681   L 122.83958,328.8482   L 122.51968,328.52831   L 122.51968,328.20842   L 122.19979,327.88853   L 122.19979,327.88853   L 121.24011,328.20842   L 120.60032,329.1681   L 120.28042,330.12777   L 120.28042,331.40733   L 119.96053,332.6869   L 119.96053,333.64657   L 119.32074,334.92614   L 118.68095,335.88581   L 118.36105,335.88581   L 118.36105,335.88581   L 118.04116,335.88581   L 118.04116,335.88581   L 117.72126,335.88581   L 117.40137,335.88581   L 117.40137,335.88581   L 117.08147,335.88581   L 117.08147,330.44766   L 116.76158,329.80788   L 116.44168,329.48799   L 116.12179,329.1681   L 115.482,329.1681   L 114.84221,328.8482   L 113.88253,329.1681   L 113.24274,329.1681   L 112.60295,329.1681   L 111.64326,329.48799   L 111.32337,330.12777   L 111.00347,331.08744   L 111.00347,332.04712   L 111.00347,333.00679   L 111.32337,333.96646   L 111.32337,334.92614   L 111.64326,335.56592   L 112.60295,336.52559   L 113.56263,337.48527   L 114.52232,338.12505   L 115.80189,339.08472   L 116.76158,339.40462   L 118.04116,340.0444   L 119.00084,340.36429   L 120.28042,340.68418  z "
     style="fill:#000000;fill-rule:evenodd;fill-opacity:1;stroke:none;" />
  <path
     id="path93"
     d="  M 53.102526,324.04984   L 62.379474,296.53919   L 62.379474,296.53919   L 62.379474,296.2193   L 62.379474,295.89941   L 62.059579,295.89941   L 61.739684,295.57951   L 61.739684,295.25962   L 61.419789,295.25962   L 61.099895,294.93973   L 60.140211,295.25962   L 59.500421,295.25962   L 58.860632,295.89941   L 57.900947,296.2193   L 57.261158,296.53919   L 56.621368,296.85908   L 55.661684,296.85908   L 55.021895,296.53919   L 57.581053,276.38604   L 57.581053,276.06615   L 57.261158,275.74626   L 57.261158,275.42637   L 57.261158,275.10647   L 57.261158,274.78658   L 56.941263,274.46669   L 56.941263,274.1468   L 56.621368,273.82691   L 56.621368,273.50702   L 56.301474,273.50702   L 55.981579,273.18713   L 55.661684,273.18713   L 55.341789,273.18713   L 55.021895,272.86724   L 54.382105,272.86724   L 54.062211,272.54734   L 54.062211,272.54734   L 53.742316,272.54734   L 53.742316,272.54734   L 53.742316,272.22745   L 53.422421,271.90756   L 53.422421,271.90756   L 53.422421,271.58767   L 53.102526,271.26778   L 61.419789,248.5555   L 52.462737,249.19528   L 42.226105,273.82691   L 43.825579,277.02582   L 44.465368,277.34571   L 45.105158,277.6656   L 45.744947,277.9855   L 46.384737,278.30539   L 47.024526,278.30539   L 47.664316,278.30539   L 48.304105,278.30539   L 48.943895,277.9855   L 49.263789,277.9855   L 49.583684,278.30539   L 49.903579,278.30539   L 49.903579,278.30539   L 50.223474,278.62528   L 50.543368,278.94517   L 50.543368,279.26506   L 50.863263,279.58495   L 46.704632,294.93973   L 46.704632,295.89941   L 46.704632,296.53919   L 47.024526,297.17897   L 47.344421,297.81875   L 47.984211,298.13864   L 48.624,298.77843   L 49.263789,299.09832   L 49.903579,299.41821   L 50.543368,299.41821   L 51.183158,299.7381   L 51.822947,299.7381   L 52.142842,299.7381   L 52.782632,299.7381   L 53.102526,299.7381   L 53.742316,299.7381   L 54.062211,299.41821   L 52.782632,324.36973   L 52.782632,324.36973   L 52.782632,324.36973   L 52.782632,324.36973   L 52.782632,324.36973   L 53.102526,324.04984   L 53.102526,324.04984   L 53.102526,324.04984   L 53.102526,324.04984  z "
     style="fill:#000000;fill-rule:evenodd;fill-opacity:1;stroke:none;" />
  <path
     id="path95"
     d="  M 86.371579,315.41277   L 91.489895,315.09288   L 96.928105,314.77299   L 102.04642,313.81332   L 106.84484,312.53375   L 111.64326,310.93429   L 116.12179,308.69506   L 118.04116,307.0956   L 119.96053,305.81603   L 121.87989,303.89669   L 123.47937,301.97734   L 125.71863,301.01767   L 127.31811,299.7381   L 128.91758,298.45854   L 130.51705,296.85908   L 131.79663,295.25962   L 133.07621,293.66017   L 133.716,291.74082   L 134.67568,289.82147   L 134.99558,287.26234   L 134.99558,284.70321   L 134.99558,282.46397   L 134.67568,279.90484   L 134.03589,277.6656   L 133.39611,275.42637   L 132.43642,273.18713   L 131.47674,271.26778   L 129.23747,269.66832   L 126.67832,268.70865   L 124.11916,268.38876   L 121.24011,268.06887   L 118.04116,268.38876   L 115.16211,268.70865   L 112.28305,269.34843   L 109.404,270.30811   L 107.80453,271.90756   L 106.52495,273.82691   L 105.24537,276.06615   L 103.96579,278.62528   L 103.00611,281.18441   L 102.68621,283.74354   L 102.36632,286.30267   L 102.68621,288.8618   L 103.326,291.42093   L 103.64589,293.66017   L 103.326,295.89941   L 102.68621,298.13864   L 101.72653,300.05799   L 100.76684,301.97734   L 99.807158,303.5768   L 98.847474,305.17625   L 97.248,307.0956   L 95.328632,308.69506   L 93.409263,309.97462   L 91.17,310.93429   L 89.250632,311.57408   L 87.011368,312.53375   L 84.772105,313.17353   L 82.852737,314.13321   L 86.371579,315.41277  z "
     style="fill:#000000;fill-rule:evenodd;fill-opacity:1;stroke:none;" />
  <path
     id="path97"
     d="  M 88.930737,300.05799   L 88.930737,300.05799   L 89.250632,300.05799   L 89.250632,300.05799   L 89.570526,300.05799   L 89.890421,299.7381   L 90.210316,299.7381   L 90.530211,299.7381   L 90.530211,299.41821   L 95.008737,294.29995   L 94.688842,293.98006   L 94.688842,293.66017   L 94.368947,293.34028   L 94.368947,293.34028   L 94.049053,293.02038   L 93.729158,293.02038   L 93.409263,293.02038   L 93.089368,293.02038   L 87.971053,296.2193   L 70.056947,281.5043   L 71.976316,283.74354   L 73.895684,285.98278   L 76.134947,288.54191   L 78.374211,291.10104   L 80.613474,293.66017   L 83.172632,296.2193   L 86.051684,298.13864   L 88.930737,300.05799  z "
     style="fill:#000000;fill-rule:evenodd;fill-opacity:1;stroke:none;" />
  <path
     id="path99"
     d="  M 162.50653,299.7381   L 162.50653,296.85908   L 162.50653,293.66017   L 163.14632,291.10104   L 163.78611,288.22202   L 164.42589,285.66289   L 165.70547,283.10376   L 166.66516,280.86452   L 168.26463,278.62528   L 171.46358,274.1468   L 175.30232,270.30811   L 179.46095,266.7893   L 183.61958,263.59039   L 183.61958,263.2705   L 183.61958,263.2705   L 183.61958,262.95061   L 183.61958,262.95061   L 183.61958,262.63072   L 183.61958,262.63072   L 183.29968,262.31082   L 183.29968,262.31082   L 178.18137,262.63072   L 174.66253,265.50974   L 171.14368,268.70865   L 167.94474,271.90756   L 165.38558,275.42637   L 163.14632,279.26506   L 161.54684,283.42365   L 160.90705,285.66289   L 160.26726,287.90212   L 160.26726,290.14136   L 160.26726,292.3806   L 160.58716,293.66017   L 160.90705,294.61984   L 160.90705,295.57951   L 160.90705,296.53919   L 161.22695,297.49886   L 161.22695,298.45854   L 161.54684,299.09832   L 161.86674,299.7381   L 161.86674,299.7381   L 161.86674,299.7381   L 162.18663,299.7381   L 162.18663,299.7381   L 162.18663,299.7381   L 162.50653,299.7381   L 162.50653,299.7381   L 162.50653,299.7381  z "
     style="fill:#000000;fill-rule:evenodd;fill-opacity:1;stroke:none;" />
  <path
     id="path101"
     d="  M 145.872,297.17897   L 148.75105,291.74082   L 151.95,285.98278   L 155.46884,279.90484   L 159.30758,274.1468   L 163.78611,268.70865   L 168.58453,263.2705   L 171.14368,260.71137   L 173.70284,258.47213   L 176.58189,256.23289   L 179.46095,253.99365   L 182.34,252.0743   L 185.21905,249.83507   L 187.77821,247.27594   L 190.33737,244.71681   L 192.57663,242.15768   L 194.81589,239.27865   L 197.05516,236.39963   L 198.97453,233.52061   L 200.574,230.3217   L 202.17347,227.12279   L 203.77295,223.60398   L 205.05253,220.40507   L 206.01221,216.88627   L 206.652,213.36746   L 207.29179,209.52877   L 207.61168,205.69007   L 206.652,202.81105   L 205.37242,200.57181   L 203.77295,198.33257   L 202.17347,196.73312   L 200.25411,195.13366   L 198.33474,193.8541   L 196.09547,192.57453   L 194.17611,191.29497   L 192.57663,190.97508   L 190.97716,190.65518   L 189.37768,190.65518   L 187.77821,190.97508   L 186.17874,191.29497   L 184.89916,191.93475   L 183.61958,192.57453   L 182.65989,193.21431   L 180.42063,198.33257   L 174.98242,201.2116   L 175.94211,201.85138   L 176.90179,202.17127   L 178.18137,202.49116   L 179.46095,202.17127   L 181.06042,201.85138   L 182.34,201.2116   L 183.61958,200.8917   L 184.89916,200.8917   L 185.85884,200.25192   L 186.49863,199.61214   L 187.13842,198.97236   L 188.09811,198.33257   L 188.73789,197.69279   L 189.37768,197.05301   L 190.01747,196.73312   L 190.65726,196.09334   L 192.25674,197.05301   L 193.53632,198.33257   L 194.496,199.93203   L 195.13579,201.53149   L 195.45568,203.13094   L 196.09547,205.05029   L 196.41537,206.64975   L 196.73526,208.56909   L 196.09547,214.00725   L 194.81589,219.12551   L 193.21642,223.92387   L 190.97716,228.40235   L 188.418,232.56094   L 185.53895,236.39963   L 182.02011,240.23833   L 178.18137,243.75713   L 172.10337,248.87539   L 166.02537,253.99365   L 160.26726,259.4318   L 154.82905,265.18985   L 152.26989,268.06887   L 150.03063,270.94789   L 148.11126,274.1468   L 146.19189,277.6656   L 144.91232,281.18441   L 143.95263,284.70321   L 143.31284,288.8618   L 143.31284,293.02038   L 143.31284,293.66017   L 143.63274,294.29995   L 143.63274,294.93973   L 143.63274,295.25962   L 143.63274,295.89941   L 143.95263,296.2193   L 144.27253,296.85908   L 144.59242,297.17897   L 144.59242,297.17897   L 144.91232,297.17897   L 144.91232,297.17897   L 145.23221,297.17897   L 145.23221,297.17897   L 145.55211,297.17897   L 145.55211,297.17897   L 145.872,297.17897  z "
     style="fill:#000000;fill-rule:evenodd;fill-opacity:1;stroke:none;" />
  <path
     id="path103"
     d="  M 169.54421,289.18169   L 175.94211,279.58495   L 175.62221,279.26506   L 175.62221,279.26506   L 175.30232,279.26506   L 175.30232,278.94517   L 175.30232,278.94517   L 175.30232,278.94517   L 174.98242,279.26506   L 174.66253,279.58495   L 173.70284,280.22473   L 172.74316,281.5043   L 171.78347,282.46397   L 170.82379,283.74354   L 169.86411,285.0231   L 169.54421,286.62256   L 168.90442,287.90212   L 168.90442,289.82147   L 168.90442,289.82147   L 169.22432,289.50158   L 169.22432,289.50158   L 169.22432,289.50158   L 169.22432,289.50158   L 169.22432,289.18169   L 169.22432,289.18169   L 169.54421,289.18169  z "
     style="fill:#000000;fill-rule:evenodd;fill-opacity:1;stroke:none;" />
  <path
     id="path105"
     d="  M 78.694105,277.6656   L 83.172632,272.86724   L 87.011368,268.06887   L 90.530211,262.95061   L 93.729158,257.83235   L 97.248,252.71409   L 101.08674,247.91572   L 105.24537,242.79746   L 109.72389,238.31898   L 112.92284,233.52061   L 116.44168,229.04213   L 120.28042,224.56366   L 123.79926,220.08518   L 127.638,215.6067   L 131.15684,210.80833   L 134.35579,206.32986   L 136.91495,201.53149   L 132.43642,206.00996   L 127.95789,210.16855   L 123.47937,214.64703   L 119.64063,219.4454   L 111.64326,228.72224   L 104.60558,238.31898   L 97.567895,248.23561   L 90.850105,258.15224   L 84.452211,268.06887   L 77.734421,277.6656   L 77.734421,277.6656   L 78.054316,277.6656   L 78.054316,277.6656   L 78.374211,277.6656   L 78.374211,277.6656   L 78.694105,277.6656   L 78.694105,277.6656   L 78.694105,277.6656  z "
     style="fill:#000000;fill-rule:evenodd;fill-opacity:1;stroke:none;" />
  <path
     id="path107"
     d="  M 92.449579,276.70593   L 132.43642,228.08246   L 126.03853,233.52061   L 120.28042,239.59855   L 114.84221,245.35659   L 109.72389,251.43452   L 104.92547,257.51246   L 100.12705,263.91028   L 95.648526,269.98821   L 91.489895,276.38604   L 91.489895,276.38604   L 91.489895,276.70593   L 91.489895,276.70593   L 91.489895,277.02582   L 91.809789,277.02582   L 91.809789,277.02582   L 92.129684,277.02582   L 92.449579,276.70593  z "
     style="fill:#000000;fill-rule:evenodd;fill-opacity:1;stroke:none;" />
  <path
     id="path109"
     d="  M 100.76684,275.74626   L 129.55737,238.31898   L 99.807158,276.06615   L 100.12705,276.06615   L 100.12705,276.06615   L 100.12705,276.06615   L 100.44695,276.06615   L 100.44695,275.74626   L 100.76684,275.74626   L 100.76684,275.74626   L 100.76684,275.74626  z "
     style="fill:#000000;fill-rule:evenodd;fill-opacity:1;stroke:none;" />
  <path
     id="path111"
     d="  M 88.610842,273.50702   L 91.17,269.98821   L 94.049053,266.14952   L 97.248,262.63072   L 100.76684,258.79202   L 103.96579,255.27322   L 107.16474,251.43452   L 109.72389,247.27594   L 111.96316,243.11735   L 111.64326,243.11735   L 111.64326,242.79746   L 111.64326,242.79746   L 111.32337,242.47757   L 111.00347,242.79746   L 111.00347,242.79746   L 110.68358,243.11735   L 110.04379,243.11735   L 87.971053,273.50702   L 87.971053,273.50702   L 88.290947,273.50702   L 88.290947,273.50702   L 88.290947,273.50702   L 88.610842,273.50702   L 88.610842,273.50702   L 88.610842,273.50702   L 88.610842,273.50702  z "
     style="fill:#000000;fill-rule:evenodd;fill-opacity:1;stroke:none;" />
  <path
     id="path113"
     d="  M 80.613474,220.08518   L 81.253263,216.24648   L 82.212947,212.40779   L 83.172632,208.56909   L 84.452211,204.7304   L 86.051684,200.8917   L 87.651158,197.3729   L 89.570526,193.8541   L 91.489895,190.33529   L 93.729158,187.13638   L 96.288316,183.93747   L 98.847474,181.05845   L 101.40663,178.17943   L 104.60558,175.6203   L 107.48463,173.38106   L 111.00347,171.14182   L 114.20242,169.22247   L 116.12179,168.2628   L 118.36105,167.30312   L 120.28042,166.66334   L 122.19979,165.70367   L 124.11916,164.74399   L 126.35842,164.10421   L 128.27779,163.78432   L 130.51705,163.14454   L 132.43642,164.4241   L 134.35579,165.70367   L 136.59505,166.34345   L 139.15421,166.98323   L 141.71337,167.30312   L 143.95263,167.30312   L 146.51179,166.98323   L 149.07095,166.34345   L 149.71074,166.02356   L 150.03063,165.06388   L 150.03063,164.4241   L 149.71074,163.78432   L 149.39084,162.82465   L 149.07095,162.18486   L 148.75105,161.54508   L 148.11126,160.9053   L 146.19189,159.94562   L 144.27253,158.98595   L 142.03326,158.66606   L 139.794,158.02628   L 135.31547,157.70639   L 130.83695,158.02628   L 126.35842,158.66606   L 121.87989,159.62573   L 117.40137,161.22519   L 113.56263,163.14454   L 107.80453,166.66334   L 102.36632,170.82193   L 99.807158,172.74127   L 97.248,175.3004   L 95.008737,177.53964   L 92.769474,180.09877   L 90.530211,182.6579   L 88.610842,185.53692   L 87.011368,188.09605   L 85.411895,191.29497   L 84.132316,194.17399   L 82.852737,197.3729   L 81.893053,200.57181   L 81.253263,204.09062   L 81.253263,206.32986   L 80.933368,208.2492   L 80.613474,210.48844   L 79.973684,212.40779   L 79.653789,214.32714   L 79.333895,216.24648   L 79.333895,218.16583   L 79.653789,220.08518   L 79.653789,220.08518   L 79.653789,220.08518   L 79.973684,220.08518   L 79.973684,220.08518   L 80.293579,220.08518   L 80.293579,220.08518   L 80.293579,220.08518   L 80.613474,220.08518  z "
     style="fill:#000000;fill-rule:evenodd;fill-opacity:1;stroke:none;" />
  <path
     id="path115"
     d="  M 166.34526,198.33257   L 169.22432,197.3729   L 172.10337,196.09334   L 174.98242,194.49388   L 177.54158,192.57453   L 182.65989,188.41595   L 187.45832,183.61758   L 191.93684,178.81921   L 197.05516,174.02084   L 199.61432,172.10149   L 202.17347,170.18214   L 205.05253,168.2628   L 207.93158,166.98323   L 211.13053,163.78432   L 214.32947,160.58541   L 217.84832,157.70639   L 221.04726,154.82736   L 224.24621,151.62845   L 227.44516,148.74943   L 230.64411,145.87041   L 234.16295,142.99139   L 244.07968,143.63117   L 247.91842,137.87313   L 252.07705,132.43498   L 256.23568,126.99683   L 260.39432,121.55867   L 264.87284,116.44041   L 269.35137,111.32215   L 274.14979,106.52379   L 278.94821,101.72542   L 288.86495,92.12868   L 299.42147,83.491616   L 310.29789,74.854552   L 321.49421,66.857271   L 323.09368,66.857271   L 325.01305,66.857271   L 326.61253,66.53738   L 328.212,66.53738   L 329.81147,66.217489   L 331.09105,65.897597   L 332.69053,65.257815   L 334.29,64.937924   L 336.52926,63.658359   L 338.44863,62.058902   L 340.368,60.139555   L 341.96747,58.220207   L 343.56695,55.980969   L 345.16642,54.061621   L 346.76589,51.822382   L 348.36537,49.903035   L 349.64495,46.384231   L 350.92453,43.185319   L 352.524,40.306297   L 353.80358,37.427276   L 355.72295,34.868146   L 357.32242,32.309016   L 359.24179,29.429995   L 361.48105,26.870865   L 363.08053,24.951517   L 364.68,23.671952   L 365.95958,22.392387   L 367.55905,21.112822   L 369.15853,20.153149   L 370.43811,19.193475   L 372.03758,18.233801   L 373.31716,17.274127   L 373.95695,16.634345   L 374.59674,15.35478   L 375.23653,14.395106   L 375.55642,13.115541   L 375.87632,11.835976   L 375.87632,10.556411   L 375.55642,9.2768462   L 375.23653,8.3171725   L 373.31716,7.0376075   L 371.07789,5.7580425   L 368.83863,4.7983687   L 366.59937,4.1585862   L 364.36011,3.838695   L 362.12084,3.838695   L 360.20147,4.1585862   L 357.96221,4.7983687   L 349.96484,8.956955   L 341.96747,13.115541   L 334.29,17.594019   L 326.61253,21.752605   L 319.25495,26.231082   L 311.89737,31.029451   L 304.21989,35.507929   L 296.86232,40.306297   L 301.66074,39.346624   L 306.13926,37.747167   L 310.61779,35.82782   L 314.77642,33.908472   L 323.41358,29.110104   L 332.05074,23.991844   L 340.68789,18.873584   L 349.32505,14.075215   L 353.80358,12.155867   L 358.602,10.23652   L 363.40042,8.6370637   L 368.19884,7.3574987   L 369.15853,7.67739   L 369.47842,8.3171725   L 369.79832,9.2768462   L 369.79832,10.23652   L 369.79832,11.196194   L 369.79832,12.155867   L 369.47842,13.115541   L 369.15853,13.755324   L 365.63968,16.314454   L 362.44074,19.193475   L 359.24179,22.392387   L 356.68263,25.271409   L 351.88421,31.669234   L 347.40568,38.38695   L 342.92716,44.464884   L 338.12874,50.222926   L 335.56958,53.101947   L 332.69053,55.661077   L 329.17168,57.900316   L 325.65284,59.819664   L 323.73347,60.459446   L 321.81411,60.779337   L 319.89474,61.099229   L 317.97537,61.099229   L 316.056,60.779337   L 314.13663,61.099229   L 312.21726,61.099229   L 310.29789,61.739011   L 309.978,62.058902   L 309.978,62.378794   L 309.65811,62.698685   L 309.65811,63.018576   L 309.65811,63.658359   L 309.65811,63.97825   L 309.65811,64.298141   L 309.33821,64.937924   L 304.21989,68.456727   L 299.42147,72.615314   L 294.62305,76.454008   L 289.82463,80.932486   L 285.02621,85.410963   L 280.54768,90.209332   L 276.06916,95.007701   L 271.91053,99.80607   L 263.59326,109.7227   L 255.91579,119.63933   L 248.55821,129.87585   L 241.84042,139.79248   L 239.28126,139.47258   L 237.042,139.15269   L 234.48284,138.8328   L 231.92368,138.19302   L 229.36453,138.19302   L 227.12526,138.51291   L 226.16558,138.8328   L 224.886,139.15269   L 223.92632,139.79248   L 223.28653,140.75215   L 215.28916,148.10965   L 207.61168,155.14726   L 199.61432,162.18486   L 191.93684,168.90258   L 184.57926,175.94019   L 177.54158,183.29769   L 174.34263,186.81649   L 171.14368,190.65518   L 167.94474,194.49388   L 165.38558,198.33257   L 165.38558,198.33257   L 165.38558,198.33257   L 165.70547,198.33257   L 165.70547,198.33257   L 165.70547,198.33257   L 166.02537,198.33257   L 166.02537,198.33257   L 166.34526,198.33257  z "
     style="fill:#000000;fill-rule:evenodd;fill-opacity:1;stroke:none;" />
  <path
     id="path117"
     d="  M 137.87463,184.57725   L 141.71337,183.29769   L 145.55211,181.69823   L 149.39084,179.77888   L 152.90968,177.85953   L 159.94737,173.70095   L 166.66516,168.90258   L 173.38295,163.78432   L 179.78084,158.34617   L 186.17874,152.26823   L 192.57663,146.1903   L 204.73263,134.03443   L 217.20853,121.55867   L 223.60642,115.48074   L 230.00432,110.04259   L 236.40221,104.60444   L 243.12,99.80607   L 250.47758,93.408245   L 258.15505,87.330311   L 265.51263,81.252377   L 272.87021,75.494335   L 280.22779,69.736292   L 287.90526,63.97825   L 295.26284,58.220207   L 302.62042,52.142274   L 294.30316,43.825101   L 293.98326,44.144992   L 293.66337,44.784775   L 293.98326,45.104666   L 293.98326,45.744449   L 294.30316,46.384231   L 294.94295,46.704122   L 294.94295,47.343905   L 295.26284,47.983687   L 278.94821,60.779337   L 262.31368,74.534661   L 245.67916,88.609876   L 228.72474,103.64476   L 212.09021,118.99954   L 195.45568,134.67422   L 178.82116,150.66878   L 162.82642,166.98323   L 159.94737,169.22247   L 157.06832,171.7816   L 154.50916,174.02084   L 151.63011,176.26008   L 149.07095,178.17943   L 146.19189,180.09877   L 142.99295,181.69823   L 139.794,182.97779   L 139.47411,182.97779   L 139.15421,182.97779   L 138.83432,182.97779   L 138.51442,182.6579   L 138.19453,182.6579   L 137.87463,182.6579   L 137.55474,182.33801   L 137.23484,182.01812   L 136.91495,181.69823   L 136.59505,181.05845   L 136.59505,180.41866   L 136.59505,179.45899   L 136.91495,178.81921   L 136.91495,177.85953   L 136.91495,177.21975   L 136.91495,176.26008   L 136.27516,176.89986   L 135.95526,177.21975   L 135.63537,177.85953   L 135.63537,178.81921   L 135.63537,179.45899   L 135.31547,180.41866   L 135.31547,181.37834   L 134.99558,182.01812   L 137.55474,184.57725   L 137.55474,184.57725   L 137.55474,184.57725   L 137.55474,184.57725   L 137.87463,184.57725   L 137.87463,184.57725   L 137.87463,184.57725   L 137.87463,184.57725   L 137.87463,184.57725  z "
     style="fill:#000000;fill-rule:evenodd;fill-opacity:1;stroke:none;" />
  <path
     id="path119"
     d="  M 143.95263,177.21975   L 147.15158,175.3004   L 146.83168,174.98051   L 146.19189,174.98051   L 145.872,174.98051   L 145.23221,175.3004   L 144.91232,175.6203   L 144.27253,175.94019   L 143.95263,176.26008   L 143.31284,176.57997   L 143.63274,176.57997   L 143.63274,176.89986   L 143.63274,176.89986   L 143.63274,176.89986   L 143.95263,176.89986   L 143.95263,176.89986   L 143.95263,177.21975   L 143.95263,177.21975  z "
     style="fill:#000000;fill-rule:evenodd;fill-opacity:1;stroke:none;" />
  <path
     id="path121"
     d="  M 168.58453,174.34073   L 197.37505,145.55052   L 193.53632,148.42954   L 189.69758,151.62845   L 185.85884,155.14726   L 182.02011,158.98595   L 178.18137,162.82465   L 174.34263,166.66334   L 170.82379,170.50204   L 167.62484,174.34073   L 167.62484,174.66062   L 167.94474,174.66062   L 167.94474,174.66062   L 167.94474,174.66062   L 168.26463,174.66062   L 168.26463,174.66062   L 168.58453,174.66062   L 168.58453,174.34073  z "
     style="fill:#000000;fill-rule:evenodd;fill-opacity:1;stroke:none;" />
  <path
     id="path123"
     d="  M 212.09021,170.82193   L 213.04989,169.86225   L 214.32947,169.22247   L 215.92895,168.58269   L 217.20853,167.94291   L 218.808,167.30312   L 220.40747,166.66334   L 221.68705,166.02356   L 223.28653,165.06388   L 225.20589,163.78432   L 227.12526,162.50475   L 228.72474,161.22519   L 230.64411,159.94562   L 232.24358,158.34617   L 233.84305,156.74671   L 235.76242,155.46715   L 237.36189,154.18758   L 252.71684,157.70639   L 262.63358,134.35432   L 260.71421,136.27367   L 259.11474,138.19302   L 257.51526,140.11237   L 255.91579,142.35161   L 254.31632,144.91074   L 253.03674,147.46987   L 252.07705,150.34889   L 250.79747,153.22791   L 249.83779,153.5478   L 248.55821,153.5478   L 247.59853,153.5478   L 246.31895,153.5478   L 243.75979,152.90802   L 241.52053,152.26823   L 238.96137,151.62845   L 236.40221,151.30856   L 235.44253,151.62845   L 234.48284,151.94834   L 233.20326,152.58813   L 232.24358,153.5478   L 229.68442,156.10693   L 226.80537,158.34617   L 224.24621,160.9053   L 221.36716,163.14454   L 218.808,165.06388   L 216.24884,167.30312   L 214.00958,169.22247   L 211.45042,170.82193   L 211.45042,170.82193   L 211.45042,170.82193   L 211.77032,170.82193   L 211.77032,170.82193   L 211.77032,170.82193   L 212.09021,170.82193   L 212.09021,170.82193   L 212.09021,170.82193  z "
     style="fill:#000000;fill-rule:evenodd;fill-opacity:1;stroke:none;" />
  <path
     id="path125"
     d="  M 96.608211,166.34345   L 98.527579,164.4241   L 100.76684,162.82465   L 103.00611,161.22519   L 105.24537,159.62573   L 110.36368,157.0666   L 115.80189,155.14726   L 121.56,153.5478   L 127.31811,152.58813   L 133.07621,152.26823   L 138.83432,152.26823   L 138.83432,151.94834   L 138.19453,151.30856   L 137.23484,150.98867   L 136.27516,150.66878   L 134.99558,150.34889   L 133.716,150.34889   L 132.43642,150.34889   L 131.47674,150.029   L 126.03853,150.66878   L 120.92021,151.30856   L 116.12179,152.58813   L 111.32337,154.50747   L 106.84484,156.74671   L 102.68621,159.62573   L 100.76684,160.9053   L 99.167368,162.82465   L 97.248,164.4241   L 95.648526,166.34345   L 95.648526,166.34345   L 95.968421,166.34345   L 95.968421,166.34345   L 96.288316,166.34345   L 96.288316,166.34345   L 96.608211,166.34345   L 96.608211,166.34345   L 96.608211,166.34345  z "
     style="fill:#000000;fill-rule:evenodd;fill-opacity:1;stroke:none;" />
  <path
     id="path127"
     d="  M 190.65726,159.62573   L 226.80537,123.47802   L 222.00695,127.31672   L 217.20853,131.4753   L 212.41011,135.63389   L 207.61168,140.11237   L 203.13316,144.91074   L 198.33474,149.7091   L 194.17611,154.82736   L 190.01747,159.62573   L 190.01747,159.62573   L 190.01747,159.62573   L 190.01747,159.62573   L 190.33737,159.62573   L 190.33737,159.62573   L 190.65726,159.62573   L 190.65726,159.62573   L 190.65726,159.62573  z "
     style="fill:#000000;fill-rule:evenodd;fill-opacity:1;stroke:none;" />
  <path
     id="path129"
     d="  M 119.32074,147.46987   L 124.43905,146.1903   L 119.00084,146.51019   L 119.00084,146.51019   L 119.00084,146.83008   L 119.00084,146.83008   L 119.32074,146.83008   L 119.32074,147.14997   L 119.32074,147.14997   L 119.32074,147.46987   L 119.32074,147.46987  z "
     style="fill:#000000;fill-rule:evenodd;fill-opacity:1;stroke:none;" />
  <path
     id="path131"
     d="  M 212.09021,143.63117   L 224.56611,131.15541   L 212.09021,143.63117  z "
     style="fill:#000000;fill-rule:evenodd;fill-opacity:1;stroke:none;" />
  <path
     id="path133"
     d="  M 269.67126,83.491616   L 284.38642,71.65564   L 269.03147,83.171725   L 269.03147,83.491616   L 269.03147,83.491616   L 269.35137,83.491616   L 269.35137,83.491616   L 269.35137,83.491616   L 269.67126,83.491616   L 269.67126,83.491616   L 269.67126,83.491616  z "
     style="fill:#000000;fill-rule:evenodd;fill-opacity:1;stroke:none;" />
  <path
     id="path135"
     d="  M 281.50737,79.013138   L 302.94032,61.41912   L 280.86758,79.013138   L 280.86758,79.013138   L 280.86758,79.013138   L 280.86758,79.013138   L 281.18747,79.013138   L 281.18747,79.013138   L 281.50737,79.013138   L 281.50737,79.013138   L 281.50737,79.013138  z "
     style="fill:#000000;fill-rule:evenodd;fill-opacity:1;stroke:none;" />
  <path
     id="path137"
     d="  M 348.68526,68.136836   L 351.88421,66.53738   L 351.88421,66.53738   L 351.88421,66.217489   L 351.88421,66.217489   L 351.88421,65.897597   L 351.88421,65.577706   L 351.88421,65.257815   L 351.88421,65.257815   L 351.88421,64.937924   L 351.56432,64.618032   L 351.24442,64.618032   L 350.92453,64.618032   L 350.60463,64.618032   L 350.28474,64.618032   L 349.96484,64.937924   L 349.96484,64.937924   L 349.64495,65.257815   L 349.64495,65.257815   L 349.32505,65.257815   L 349.00516,65.257815   L 348.68526,65.257815   L 348.68526,65.257815   L 348.36537,65.257815   L 348.04547,65.257815   L 348.04547,65.257815   L 347.40568,64.937924   L 347.08579,64.618032   L 346.446,63.97825   L 346.12611,63.658359   L 345.48632,63.338467   L 345.16642,62.698685   L 344.52663,62.378794   L 343.56695,62.378794   L 343.56695,62.378794   L 343.24705,62.378794   L 343.24705,62.698685   L 343.24705,62.698685   L 342.92716,63.018576   L 342.92716,63.018576   L 342.92716,63.018576   L 342.60726,63.338467   L 342.60726,63.658359   L 342.92716,63.97825   L 342.92716,64.298141   L 342.92716,64.618032   L 342.92716,64.937924   L 343.24705,65.257815   L 343.24705,65.577706   L 343.56695,65.897597   L 348.68526,68.136836  z "
     style="fill:#000000;fill-rule:evenodd;fill-opacity:1;stroke:none;" />
  <path
     id="path139"
     d="  M 357.00253,55.661077   L 357.32242,55.661077   L 357.96221,55.661077   L 358.28211,55.661077   L 358.602,55.341186   L 358.92189,55.341186   L 359.24179,55.341186   L 359.56168,55.021295   L 359.88158,54.701404   L 359.88158,54.701404   L 359.88158,54.381512   L 360.20147,54.061621   L 360.20147,54.061621   L 360.20147,53.74173   L 360.52137,53.101947   L 360.52137,52.782056   L 360.20147,52.462165   L 357.00253,53.101947   L 352.84389,51.502491   L 352.524,51.502491   L 352.524,51.822382   L 352.20411,51.822382   L 352.20411,52.142274   L 351.88421,52.462165   L 351.88421,52.782056   L 351.88421,52.782056   L 351.88421,53.101947   L 352.20411,53.74173   L 352.84389,54.061621   L 353.16379,54.381512   L 354.12347,54.701404   L 354.76326,55.021295   L 355.72295,55.341186   L 356.36274,55.341186   L 357.00253,55.661077  z "
     style="fill:#000000;fill-rule:evenodd;fill-opacity:1;stroke:none;" />
  <path
     id="path141"
     d="  M 328.53189,53.101947   L 328.85179,53.101947   L 329.17168,53.101947   L 329.49158,53.101947   L 329.81147,52.782056   L 330.13137,52.782056   L 330.45126,52.782056   L 330.45126,52.462165   L 330.77116,52.142274   L 331.09105,52.142274   L 331.09105,52.142274   L 331.09105,51.822382   L 331.41095,51.822382   L 331.41095,51.502491   L 331.41095,51.1826   L 331.41095,50.862709   L 331.41095,50.542817   L 331.41095,50.542817   L 331.41095,50.222926   L 331.09105,50.222926   L 330.77116,49.903035   L 330.77116,49.903035   L 330.45126,49.583144   L 330.13137,49.263252   L 330.13137,49.263252   L 326.93242,49.903035   L 327.57221,53.101947   L 327.57221,53.101947   L 327.57221,53.101947   L 327.89211,53.101947   L 327.89211,53.101947   L 328.212,53.101947   L 328.212,53.101947   L 328.212,53.101947   L 328.53189,53.101947  z "
     style="fill:#000000;fill-rule:evenodd;fill-opacity:1;stroke:none;" />
  <path
     id="path143"
     d="  M 285.666,46.384231   L 282.14716,38.706841   L 300.06126,26.870865   L 280.22779,37.747167   L 285.666,47.024014   L 285.666,46.704122   L 285.666,46.704122   L 285.666,46.704122   L 285.666,46.704122   L 285.666,46.384231   L 285.666,46.384231   L 285.666,46.384231   L 285.666,46.384231  z "
     style="fill:#000000;fill-rule:evenodd;fill-opacity:1;stroke:none;" />
  <path
     id="path145"
     d="  M 364.99989,42.865427   L 369.15853,42.225645   L 369.15853,42.225645   L 369.15853,42.225645   L 369.47842,42.225645   L 369.47842,42.225645   L 369.47842,41.905754   L 369.79832,41.905754   L 369.79832,41.585862   L 370.11821,41.265971   L 369.79832,40.626189   L 369.15853,40.306297   L 368.83863,40.306297   L 368.19884,40.306297   L 367.55905,40.626189   L 366.91926,40.626189   L 366.27947,40.626189   L 365.63968,40.306297   L 364.99989,39.986406   L 364.99989,39.346624   L 364.68,38.706841   L 364.99989,38.067059   L 364.99989,37.427276   L 364.99989,36.467602   L 364.99989,35.82782   L 364.99989,35.507929   L 364.68,35.188037   L 364.68,35.188037   L 364.36011,35.188037   L 364.36011,34.868146   L 364.04021,34.868146   L 363.72032,34.868146   L 363.40042,34.868146   L 363.08053,34.868146   L 362.76063,35.188037   L 362.44074,35.188037   L 362.12084,35.507929   L 361.80095,35.82782   L 361.48105,36.467602   L 361.16116,36.787494   L 361.16116,37.107385   L 360.84126,37.747167   L 360.84126,38.706841   L 361.16116,39.346624   L 361.48105,39.986406   L 361.80095,40.626189   L 362.44074,41.265971   L 362.76063,41.905754   L 363.40042,42.225645   L 364.36011,42.865427   L 364.36011,42.865427   L 364.36011,42.865427   L 364.36011,42.865427   L 364.68,42.865427   L 364.68,42.865427   L 364.68,42.865427   L 364.68,42.865427   L 364.99989,42.865427  z "
     style="fill:#000000;fill-rule:evenodd;fill-opacity:1;stroke:none;" />
  <path
     id="path147"
     d="  M 338.44863,40.626189   L 338.76853,40.626189   L 338.76853,40.626189   L 339.08842,40.626189   L 339.08842,40.306297   L 339.40832,40.306297   L 339.72821,40.306297   L 340.04811,40.306297   L 340.368,39.986406   L 339.72821,39.986406   L 339.40832,39.666515   L 338.76853,39.346624   L 338.44863,39.026732   L 338.12874,38.706841   L 337.48895,38.706841   L 336.84916,38.706841   L 336.20937,38.706841   L 336.20937,39.026732   L 336.20937,39.346624   L 336.20937,39.666515   L 336.52926,39.666515   L 336.52926,39.986406   L 336.84916,40.306297   L 337.16905,40.626189   L 337.16905,40.94608   L 337.16905,40.94608   L 337.48895,40.94608   L 337.80884,40.94608   L 337.80884,40.626189   L 338.12874,40.626189   L 338.44863,40.626189   L 338.44863,40.626189   L 338.44863,40.626189  z "
     style="fill:#000000;fill-rule:evenodd;fill-opacity:1;stroke:none;" />
  <path
     id="path149"
     d="  M 374.27684,31.029451   L 378.43547,30.069777   L 378.43547,30.069777   L 378.75537,30.069777   L 378.75537,29.749886   L 378.75537,29.749886   L 378.75537,29.429995   L 379.07526,29.110104   L 379.07526,28.790212   L 379.07526,28.470321   L 378.43547,28.15043   L 378.11558,27.830539   L 377.47579,28.15043   L 376.836,28.15043   L 376.19621,28.470321   L 375.55642,28.790212   L 374.91663,28.790212   L 374.27684,28.470321   L 373.95695,28.15043   L 373.63705,27.830539   L 373.63705,27.510647   L 373.63705,26.870865   L 373.95695,26.550974   L 374.27684,25.911191   L 374.59674,25.5913   L 374.59674,25.271409   L 374.59674,24.951517   L 374.59674,24.631626   L 374.59674,24.311735   L 374.59674,23.991844   L 374.59674,23.671952   L 374.27684,23.352061   L 373.95695,23.03217   L 373.95695,22.712279   L 373.31716,22.712279   L 372.99726,23.03217   L 372.67737,23.03217   L 372.35747,23.352061   L 372.03758,23.352061   L 371.71768,23.671952   L 371.39779,23.991844   L 371.07789,24.311735   L 370.758,28.470321   L 370.758,29.110104   L 371.07789,29.429995   L 371.39779,29.749886   L 372.03758,30.069777   L 372.35747,30.389669   L 372.99726,30.70956   L 373.63705,31.029451   L 374.27684,31.029451  z "
     style="fill:#000000;fill-rule:evenodd;fill-opacity:1;stroke:none;" />
  <path
     id="path151"
     d="  M 360.52137,15.034889   L 360.52137,15.034889   L 360.52137,15.034889   L 360.84126,15.034889   L 360.84126,14.714997   L 361.16116,14.714997   L 361.16116,14.714997   L 361.48105,14.714997   L 361.48105,14.714997   L 361.80095,14.395106   L 361.80095,14.075215   L 362.12084,13.755324   L 362.44074,13.435432   L 362.44074,12.79565   L 362.76063,12.475759   L 362.76063,11.835976   L 362.76063,11.516085   L 362.44074,11.516085   L 362.44074,11.196194   L 362.12084,11.196194   L 362.12084,11.196194   L 362.12084,10.876302   L 362.12084,10.876302   L 361.80095,11.196194   L 361.48105,11.516085   L 361.16116,11.835976   L 360.84126,12.155867   L 360.52137,12.475759   L 360.20147,12.475759   L 359.88158,12.79565   L 359.88158,13.115541   L 359.56168,13.755324   L 359.24179,14.075215   L 359.56168,14.395106   L 359.56168,14.714997   L 359.56168,14.714997   L 359.56168,14.714997   L 359.88158,14.714997   L 359.88158,14.714997   L 360.20147,14.714997   L 360.52137,15.034889  z "
     style="fill:#000000;fill-rule:evenodd;fill-opacity:1;stroke:none;" />
</svg>
