<?xml version="1.0" encoding="UTF-8" standalone="no"?>
<svg
   xmlns:dc="http://purl.org/dc/elements/1.1/"
   xmlns:cc="http://creativecommons.org/ns#"
   xmlns:rdf="http://www.w3.org/1999/02/22-rdf-syntax-ns#"
   xmlns:svg="http://www.w3.org/2000/svg"
   xmlns="http://www.w3.org/2000/svg"
   id="svg107"
   height="99.9236mm"
   width="100.7364mm"
   version="1.0">
  <metadata
     id="metadata111">
    <rdf:RDF>
      <cc:Work
         rdf:about="">
        <dc:format>image/svg+xml</dc:format>
        <dc:type
           rdf:resource="http://purl.org/dc/dcmitype/StillImage" />
        <dc:title></dc:title>
      </cc:Work>
    </rdf:RDF>
  </metadata>
  <defs
     id="defs3">
    <pattern
       y="0"
       x="0"
       height="6"
       width="6"
       patternUnits="userSpaceOnUse"
       id="WMFhbasepattern" />
  </defs>
  <path
     id="path5"
     d="  M 158.97318,377.568   L 159.29304,377.568   L 159.61291,377.568   L 159.61291,377.568   L 159.93277,377.2483   L 159.93277,376.9286   L 160.25264,376.60889   L 160.25264,376.28919   L 160.25264,375.96949   L 159.29304,374.05128   L 158.65331,371.81336   L 157.69371,369.57545   L 157.05398,367.33754   L 155.77452,365.41933   L 154.81492,363.18141   L 153.2156,361.5829   L 151.61627,359.98439   L 151.2964,359.98439   L 151.2964,359.98439   L 150.97654,359.98439   L 150.65667,360.30409   L 150.65667,360.30409   L 150.33681,360.30409   L 150.01694,360.30409   L 149.69708,360.6238   L 149.05734,361.2632   L 148.73748,361.9026   L 148.41761,362.86171   L 148.41761,363.82082   L 148.41761,364.77992   L 148.41761,365.73903   L 148.73748,366.69813   L 149.05734,367.65724   L 149.37721,368.29664   L 149.69708,368.93605   L 150.01694,369.25575   L 150.33681,369.57545   L 150.65667,369.89515   L 150.97654,370.21486   L 150.97654,370.53456   L 151.2964,371.17396   L 158.33345,377.568   L 158.33345,377.568   L 158.33345,377.568   L 158.65331,377.568   L 158.65331,377.568   L 158.97318,377.568   L 158.97318,377.568   L 158.97318,377.568   L 158.97318,377.568  z "
     style="fill:#8759ff;fill-rule:evenodd;fill-opacity:1;stroke:none;" />
  <path
     id="path7"
     d="  M 173.68699,371.17396   L 175.28632,371.17396   L 176.88565,370.53456   L 178.48497,369.89515   L 179.76444,368.93605   L 181.36376,368.29664   L 182.64323,367.97694   L 184.56242,367.97694   L 186.48161,368.61635   L 186.80148,367.97694   L 187.12134,367.97694   L 187.44121,367.65724   L 187.76108,367.33754   L 188.40081,367.01784   L 188.72067,367.01784   L 189.3604,366.69813   L 190.00013,366.69813   L 190.00013,366.37843   L 190.32,366.37843   L 190.32,366.37843   L 190.32,366.05873   L 190.63987,366.05873   L 190.63987,366.05873   L 190.32,365.73903   L 190.00013,365.41933   L 177.84524,366.05873   L 173.04726,370.21486   L 173.04726,370.21486   L 173.04726,370.53456   L 173.04726,370.53456   L 173.04726,370.85426   L 173.36713,371.17396   L 173.36713,371.17396   L 173.36713,371.17396   L 173.68699,371.17396  z "
     style="fill:#8759ff;fill-rule:evenodd;fill-opacity:1;stroke:none;" />
  <path
     id="path9"
     d="  M 227.74427,361.9026   L 232.22239,361.9026   L 277.00356,348.79482   L 277.64329,348.15542   L 277.96316,347.83572   L 277.96316,346.87661   L 277.96316,346.23721   L 277.96316,345.59781   L 277.96316,344.6387   L 278.28303,343.9993   L 278.60289,343.04019   L 282.44128,333.44913   L 281.48168,333.44913   L 280.52208,333.76883   L 279.56249,334.08854   L 278.60289,334.40824   L 277.96316,335.04764   L 277.00356,335.68704   L 276.36383,336.64615   L 276.04397,337.28555   L 275.08437,338.88406   L 274.12477,340.48257   L 273.48504,342.08108   L 272.84531,343.67959   L 272.20558,344.9584   L 271.56585,346.55691   L 270.28639,347.51602   L 269.00692,348.47512   L 266.12813,349.43423   L 262.92948,350.39333   L 260.05069,351.35244   L 257.1719,351.99184   L 254.29311,352.95095   L 251.73418,353.91006   L 248.85539,354.86916   L 245.97661,355.82827   L 243.73755,356.46767   L 241.17862,356.78737   L 238.93956,357.42678   L 236.7005,358.06618   L 234.46145,358.70559   L 232.22239,359.02529   L 229.98333,359.34499   L 227.74427,359.98439   L 227.4244,359.98439   L 227.10454,359.98439   L 227.10454,360.30409   L 227.10454,360.6238   L 226.78467,360.9435   L 226.78467,361.2632   L 226.78467,361.5829   L 227.10454,361.9026   L 227.10454,361.9026   L 227.10454,361.9026   L 227.10454,361.9026   L 227.4244,361.9026   L 227.4244,361.9026   L 227.4244,361.9026   L 227.74427,361.9026   L 227.74427,361.9026  z "
     style="fill:#8759ff;fill-rule:evenodd;fill-opacity:1;stroke:none;" />
  <path
     id="path11"
     d="  M 166.33008,359.98439   L 171.12807,359.98439   L 176.24592,359.66469   L 181.0439,359.02529   L 185.84188,358.38588   L 190.63987,357.10708   L 195.43785,356.14797   L 200.23583,354.86916   L 205.03382,353.27065   L 208.8722,352.31155   L 213.03045,351.35244   L 216.86884,350.39333   L 220.70723,349.11453   L 224.54561,348.15542   L 228.384,347.19631   L 232.22239,345.91751   L 235.74091,344.9584   L 236.06077,344.6387   L 236.38064,344.6387   L 236.38064,344.319   L 236.7005,344.319   L 236.7005,343.9993   L 237.02037,343.9993   L 237.34024,343.67959   L 237.6601,343.35989   L 261.33015,335.68704   L 270.60625,330.25211   L 270.92612,329.93241   L 270.92612,329.61271   L 271.24598,329.29301   L 271.24598,328.9733   L 271.56585,328.6536   L 271.88571,328.3339   L 272.20558,328.0142   L 272.52545,327.6945   L 279.88235,325.13688   L 280.20222,324.81718   L 280.52208,324.49748   L 280.52208,324.17777   L 280.52208,323.85807   L 280.52208,323.21867   L 280.52208,322.57927   L 280.84195,321.93986   L 281.16182,321.62016   L 282.76114,321.30046   L 284.68034,321.30046   L 286.59953,321.30046   L 288.51872,321.30046   L 290.75778,320.98076   L 292.67697,320.66105   L 294.59617,319.70195   L 296.1955,318.42314   L 299.71402,318.10344   L 303.23254,317.46403   L 306.43119,316.50493   L 309.30998,315.54582   L 312.18877,314.26701   L 315.38743,312.98821   L 318.26622,311.3897   L 321.14501,310.11089   L 322.74434,308.51238   L 324.66353,307.55327   L 326.26286,306.27447   L 327.86218,305.31536   L 329.46151,304.03655   L 330.74097,303.07745   L 332.3403,301.79864   L 333.2999,300.51983   L 335.21909,299.88043   L 336.49855,299.24102   L 338.09788,298.28192   L 339.37734,297.32281   L 341.6164,295.4046   L 343.85546,293.16669   L 346.09452,290.92877   L 348.65345,289.01056   L 349.93291,288.37116   L 351.21237,287.41205   L 352.8117,287.09235   L 354.41103,286.77265   L 358.56928,288.37116   L 363.04739,271.10725   L 363.04739,270.78755   L 363.04739,270.46785   L 363.04739,270.14815   L 362.72753,269.82844   L 362.72753,269.50874   L 362.40766,269.18904   L 362.0878,268.86934   L 362.0878,268.54964   L 368.48511,245.21139   L 365.28645,240.73557   L 363.04739,237.85825   L 363.04739,157.61306   L 362.72753,155.05544   L 362.40766,152.17813   L 362.72753,149.30081   L 363.04739,146.42349   L 363.36726,143.54617   L 363.68713,140.34915   L 363.68713,137.47184   L 363.04739,134.59452   L 363.36726,132.35661   L 363.68713,130.43839   L 364.00699,128.52018   L 364.00699,126.60197   L 364.64672,124.68376   L 364.96659,123.08525   L 365.60632,121.48674   L 366.56592,119.56853   L 364.00699,114.4533   L 368.48511,108.05926   L 369.12484,105.50164   L 369.44471,102.62433   L 369.44471,100.06671   L 369.12484,97.189392   L 368.48511,94.312075   L 367.20565,92.074161   L 365.92618,89.836247   L 364.00699,87.598334   L 362.40766,86.95893   L 360.80834,85.999824   L 359.52887,85.36042   L 357.92955,84.401314   L 356.33022,84.081612   L 355.05076,83.442208   L 353.45143,83.442208   L 351.53224,83.442208   L 350.25277,82.163401   L 348.97331,81.204295   L 347.69385,80.564891   L 346.09452,79.925487   L 342.576,79.286083   L 339.05748,78.966381   L 335.53896,79.286083   L 331.70057,79.605785   L 327.86218,79.605785   L 324.34366,79.925487   L 321.14501,80.245189   L 317.62649,80.884593   L 314.10797,81.204295   L 310.90931,81.843699   L 307.71066,82.483102   L 304.19213,83.122506   L 300.99348,83.76191   L 298.11469,84.401314   L 262.60961,93.033267   L 256.85203,94.631776   L 250.77459,96.230286   L 245.01701,98.148498   L 239.25943,100.06671   L 233.50185,102.30462   L 227.74427,104.22283   L 221.98669,106.46075   L 216.22911,108.37896   L 211.43113,110.93658   L 206.31328,113.17449   L 201.19543,115.4124   L 196.39745,117.97002   L 193.83852,119.24883   L 191.59946,120.52763   L 189.68027,122.12614   L 187.44121,123.72465   L 185.84188,125.32316   L 183.92269,127.56108   L 182.64323,129.47929   L 181.36376,132.0369   L 181.36376,132.99601   L 181.36376,133.95512   L 181.0439,134.59452   L 180.72403,135.55363   L 180.72403,136.19303   L 180.72403,137.15214   L 180.40417,137.79154   L 180.40417,138.75065   L 170.48834,141.62796   L 160.5725,144.50528   L 150.33681,147.7023   L 140.42097,150.89932   L 130.50514,154.41604   L 120.58931,157.93276   L 110.99334,162.08889   L 101.39738,166.24501   L 99.79805,166.88442   L 98.198723,167.52382   L 96.599395,168.16322   L 95.319933,169.12233   L 93.720605,169.76173   L 92.441143,170.72084   L 90.841815,171.36024   L 89.242487,171.99965   L 87.64316,172.95875   L 86.363697,173.91786   L 85.084235,175.19667   L 83.804773,176.15577   L 81.88558,178.71339   L 80.286252,181.59071   L 78.686924,184.46802   L 77.407462,187.66504   L 76.447866,190.54236   L 75.168403,193.41968   L 76.767731,199.17431   L 78.367059,204.60925   L 79.966387,210.04418   L 81.88558,215.47911   L 86.363697,226.02928   L 91.161681,236.57944   L 95.959664,246.8099   L 101.07751,256.72066   L 106.19536,266.63142   L 110.99334,275.90278   L 136.58259,322.57927   L 136.58259,322.57927   L 136.58259,322.89897   L 136.58259,323.21867   L 136.58259,323.21867   L 136.58259,323.53837   L 136.58259,323.85807   L 136.58259,323.85807   L 136.58259,324.17777   L 134.34353,326.73539   L 134.34353,327.05509   L 134.34353,327.37479   L 134.02366,327.37479   L 134.02366,327.6945   L 134.02366,328.0142   L 133.7038,328.3339   L 133.7038,328.6536   L 133.38393,329.29301   L 133.7038,329.29301   L 134.02366,329.61271   L 134.02366,329.61271   L 134.02366,329.93241   L 134.02366,329.93241   L 134.02366,329.93241   L 134.34353,329.93241   L 134.66339,330.25211   L 135.62299,332.17032   L 136.58259,334.40824   L 137.22232,336.64615   L 138.18192,338.88406   L 139.46138,340.80228   L 140.74084,342.72049   L 142.34017,344.6387   L 144.57923,345.91751   L 145.85869,345.91751   L 146.81829,346.23721   L 148.09775,346.55691   L 149.05734,346.87661   L 150.01694,346.87661   L 151.2964,347.19631   L 152.256,347.51602   L 153.2156,347.51602   L 154.17519,349.75393   L 155.45466,351.67214   L 156.73412,353.59035   L 158.33345,355.18886   L 159.93277,356.78737   L 161.85197,358.38588   L 163.77116,359.34499   L 166.33008,359.98439  z "
     style="fill:#000000;fill-rule:evenodd;fill-opacity:1;stroke:none;" />
  <path
     id="path13"
     d="  M 145.85869,358.70559   L 145.85869,358.70559   L 146.17855,358.70559   L 146.49842,358.70559   L 146.81829,358.70559   L 147.13815,358.70559   L 147.45802,358.38588   L 147.45802,358.38588   L 147.45802,358.06618   L 147.45802,358.06618   L 147.45802,357.74648   L 147.45802,357.42678   L 147.77788,357.42678   L 147.77788,357.10708   L 147.77788,356.78737   L 147.77788,356.78737   L 147.77788,356.46767   L 136.58259,352.31155   L 128.26608,340.80228   L 127.94622,338.56436   L 127.62635,336.64615   L 127.62635,334.40824   L 127.62635,332.17032   L 127.94622,330.25211   L 128.58595,328.0142   L 129.54555,326.09599   L 130.50514,324.17777   L 129.86541,322.57927   L 128.58595,321.30046   L 127.30649,320.34135   L 126.02703,319.38225   L 124.4277,318.42314   L 122.82837,317.78374   L 120.90918,317.46403   L 118.98998,316.82463   L 118.67012,316.82463   L 118.35025,317.14433   L 118.35025,317.14433   L 118.03039,317.14433   L 118.03039,317.14433   L 117.71052,317.14433   L 117.71052,317.14433   L 117.71052,317.14433   L 117.71052,317.78374   L 117.71052,318.42314   L 117.71052,318.74284   L 117.71052,319.38225   L 118.03039,320.02165   L 118.35025,320.66105   L 118.67012,320.98076   L 118.98998,321.62016   L 123.14824,324.17777   L 122.82837,326.73539   L 122.5085,329.61271   L 122.5085,332.49003   L 122.5085,335.36734   L 122.5085,338.24466   L 122.82837,341.12198   L 123.4681,343.67959   L 124.4277,346.23721   L 126.02703,348.15542   L 127.30649,349.75393   L 128.90582,351.03274   L 130.18528,352.63125   L 131.78461,353.91006   L 133.06407,354.86916   L 134.34353,356.14797   L 135.62299,357.42678   L 136.90245,357.10708   L 138.18192,356.78737   L 139.46138,356.78737   L 140.74084,357.10708   L 142.0203,357.42678   L 143.29976,357.74648   L 144.57923,358.06618   L 145.85869,358.70559  z "
     style="fill:#8759ff;fill-rule:evenodd;fill-opacity:1;stroke:none;" />
  <path
     id="path15"
     d="  M 175.28632,355.82827   L 182.96309,354.54946   L 190.32,352.95095   L 197.99677,351.35244   L 205.35368,349.11453   L 212.39072,347.19631   L 220.0675,344.9584   L 227.4244,343.04019   L 235.10118,341.44168   L 240.21903,339.20377   L 245.65674,337.28555   L 250.77459,335.04764   L 255.89244,333.12943   L 260.69042,330.89152   L 265.4884,328.3339   L 269.64666,325.77628   L 273.48504,322.57927   L 273.80491,321.93986   L 273.80491,321.30046   L 274.12477,320.66105   L 274.12477,320.34135   L 274.12477,319.70195   L 274.12477,319.38225   L 274.12477,319.06254   L 274.12477,318.42314   L 276.04397,315.22612   L 254.93284,324.81718   L 254.61297,324.81718   L 254.29311,324.81718   L 253.97324,324.81718   L 253.65338,324.81718   L 253.33351,324.81718   L 253.33351,324.81718   L 253.01365,324.81718   L 252.37392,324.81718   L 250.45472,326.41569   L 248.21566,327.6945   L 245.65674,328.6536   L 243.09782,329.61271   L 240.21903,330.57181   L 237.6601,331.21122   L 235.10118,332.17032   L 232.22239,333.12943   L 229.66346,333.76883   L 227.10454,334.72794   L 224.22575,335.36734   L 221.66682,336.32645   L 218.78803,337.28555   L 216.22911,337.92496   L 213.67018,338.88406   L 211.11126,339.84317   L 208.8722,340.48257   L 206.95301,341.12198   L 204.71395,341.44168   L 202.79476,341.76138   L 200.5557,342.08108   L 198.6365,342.72049   L 196.39745,343.35989   L 194.47825,343.9993   L 190.32,344.9584   L 186.48161,345.59781   L 182.32336,346.23721   L 178.48497,346.55691   L 174.32672,347.19631   L 170.16847,347.51602   L 166.01022,348.15542   L 162.17183,348.79482   L 165.37049,354.54946   L 175.28632,355.82827  z "
     style="fill:#a86300;fill-rule:evenodd;fill-opacity:1;stroke:none;" />
  <path
     id="path17"
     d="  M 73.888941,344.319   L 73.888941,344.319   L 73.888941,344.319   L 73.888941,344.319   L 73.888941,344.319   L 74.208807,344.319   L 74.208807,344.319   L 74.208807,343.9993   L 74.208807,343.9993   L 74.528672,343.67959   L 74.848538,343.35989   L 74.848538,342.72049   L 75.168403,342.08108   L 75.168403,341.76138   L 75.168403,341.12198   L 75.168403,340.48257   L 75.168403,339.84317   L 76.128,339.20377   L 77.087597,338.24466   L 78.367059,337.60526   L 79.326655,336.64615   L 80.606118,336.00675   L 81.565714,335.36734   L 82.525311,334.72794   L 83.484908,334.08854   L 84.76437,333.44913   L 85.723966,333.12943   L 86.683563,332.80973   L 87.64316,332.80973   L 88.602756,332.49003   L 89.242487,332.17032   L 90.202084,331.85062   L 90.841815,331.21122   L 91.161681,331.21122   L 91.161681,331.21122   L 91.481546,331.21122   L 91.481546,330.89152   L 91.481546,330.89152   L 91.481546,330.57181   L 91.481546,330.25211   L 91.481546,330.25211   L 88.602756,330.25211   L 86.043832,330.57181   L 83.165042,331.53092   L 80.286252,332.80973   L 77.727328,334.08854   L 75.168403,335.68704   L 72.929345,337.28555   L 70.690286,338.88406   L 70.690286,339.20377   L 70.690286,339.20377   L 70.690286,339.52347   L 70.690286,339.52347   L 70.690286,339.84317   L 70.37042,340.16287   L 70.37042,340.48257   L 70.37042,340.80228   L 70.37042,341.44168   L 70.37042,341.76138   L 70.690286,342.40079   L 71.010151,343.04019   L 71.330017,343.35989   L 71.969748,343.9993   L 72.289613,344.319   L 72.929345,344.9584   L 72.929345,344.9584   L 73.24921,344.6387   L 73.24921,344.6387   L 73.24921,344.6387   L 73.569076,344.6387   L 73.569076,344.319   L 73.888941,344.319   L 73.888941,344.319  z "
     style="fill:#8759ff;fill-rule:evenodd;fill-opacity:1;stroke:none;" />
  <path
     id="path19"
     d="  M 156.41425,343.04019   L 159.93277,342.72049   L 163.77116,342.40079   L 167.28968,342.08108   L 170.8082,341.76138   L 174.64659,341.44168   L 178.16511,341.12198   L 181.68363,340.80228   L 184.88229,340.48257   L 190.32,339.52347   L 195.43785,338.56436   L 200.87556,337.28555   L 205.99341,336.00675   L 211.11126,334.72794   L 215.90924,333.44913   L 221.02709,331.85062   L 225.82508,330.25211   L 229.02373,329.61271   L 231.90252,328.6536   L 234.78131,328.0142   L 237.34024,327.05509   L 240.21903,326.09599   L 242.77795,325.13688   L 245.65674,324.17777   L 248.21566,323.21867   L 252.37392,320.66105   L 256.53217,319.38225   L 260.37055,317.78374   L 263.88908,315.86552   L 267.4076,313.94731   L 270.60625,311.7094   L 273.80491,309.47149   L 277.00356,306.91387   L 279.88235,304.03655   L 280.52208,302.75774   L 280.84195,301.79864   L 281.16182,300.51983   L 281.16182,299.56072   L 281.16182,298.60162   L 281.16182,297.32281   L 281.16182,296.36371   L 281.16182,295.0849   L 237.6601,314.26701   L 237.34024,314.26701   L 237.02037,314.26701   L 236.7005,314.26701   L 236.38064,314.26701   L 236.06077,314.26701   L 235.74091,314.26701   L 235.42104,314.26701   L 235.10118,314.26701   L 234.78131,314.26701   L 234.46145,314.26701   L 234.14158,314.58672   L 233.82171,314.58672   L 233.50185,314.90642   L 233.18198,315.22612   L 232.86212,315.54582   L 232.22239,315.54582   L 230.30319,315.54582   L 228.06413,315.86552   L 225.82508,316.18523   L 223.90588,316.82463   L 221.66682,317.46403   L 219.42776,318.10344   L 217.18871,319.06254   L 215.26951,319.70195   L 211.11126,320.66105   L 206.95301,321.30046   L 202.79476,321.93986   L 198.6365,322.57927   L 194.47825,323.21867   L 190.32,323.85807   L 186.16175,324.81718   L 182.0035,325.77628   L 179.44457,326.73539   L 176.56578,327.05509   L 174.00686,327.37479   L 171.12807,327.6945   L 168.24928,328.0142   L 165.69035,328.3339   L 162.81156,328.6536   L 160.25264,329.29301   L 141.70044,329.29301   L 141.70044,330.89152   L 142.0203,332.49003   L 142.66003,334.40824   L 143.61963,336.32645   L 144.57923,337.92496   L 145.85869,339.84317   L 147.13815,341.12198   L 148.73748,342.40079   L 156.41425,343.04019  z "
     style="fill:#ff7d00;fill-rule:evenodd;fill-opacity:1;stroke:none;" />
  <path
     id="path21"
     d="  M 295.55576,337.92496   L 301.31334,336.64615   L 320.18541,328.3339   L 322.74434,327.6945   L 325.30326,326.73539   L 327.54232,325.45658   L 329.78138,324.17777   L 333.61976,320.66105   L 337.45815,316.50493   L 340.97667,312.3488   L 344.49519,308.19268   L 346.73425,306.27447   L 348.65345,304.35625   L 350.8925,302.75774   L 353.45143,301.15923   L 353.45143,301.15923   L 353.77129,301.15923   L 353.77129,301.15923   L 354.09116,301.15923   L 354.41103,301.15923   L 354.41103,301.15923   L 354.73089,301.15923   L 355.05076,301.47894   L 355.69049,301.79864   L 355.69049,302.43804   L 356.01035,303.07745   L 356.01035,303.71685   L 355.69049,304.35625   L 355.69049,305.31536   L 356.01035,305.95476   L 356.33022,306.91387   L 356.33022,306.91387   L 356.33022,306.91387   L 356.65008,306.91387   L 356.65008,306.91387   L 356.96995,307.23357   L 356.96995,307.23357   L 357.28982,307.55327   L 357.60968,307.55327   L 370.4043,295.0849   L 370.4043,295.0849   L 370.4043,294.7652   L 370.4043,294.44549   L 370.4043,294.44549   L 370.4043,294.44549   L 370.08444,294.12579   L 370.08444,294.12579   L 370.08444,294.12579   L 358.56928,299.56072   L 358.24941,299.56072   L 357.60968,299.56072   L 357.28982,299.24102   L 356.96995,299.24102   L 356.65008,298.92132   L 356.33022,298.60162   L 356.33022,297.96222   L 356.01035,297.64251   L 355.37062,297.32281   L 354.41103,297.00311   L 353.77129,297.00311   L 352.8117,297.00311   L 351.8521,297.32281   L 350.8925,297.64251   L 349.93291,298.28192   L 349.29318,298.60162   L 347.69385,299.56072   L 346.09452,300.83953   L 344.81506,301.79864   L 343.5356,302.75774   L 341.93627,303.71685   L 340.65681,304.67596   L 339.05748,305.31536   L 337.45815,306.27447   L 336.49855,308.51238   L 334.89923,310.75029   L 333.61976,312.6685   L 332.02044,314.58672   L 328.50192,317.78374   L 324.66353,320.98076   L 320.18541,323.53837   L 315.70729,326.09599   L 310.90931,328.0142   L 305.79146,330.25211   L 304.512,329.93241   L 303.87227,330.25211   L 302.91267,330.25211   L 302.27294,330.57181   L 301.63321,330.89152   L 300.99348,331.21122   L 300.35375,331.21122   L 299.71402,331.21122   L 296.1955,329.29301   L 296.1955,329.29301   L 295.87563,329.29301   L 295.87563,329.29301   L 295.55576,329.29301   L 295.2359,329.29301   L 295.2359,329.29301   L 294.91603,329.29301   L 294.59617,329.29301   L 294.2763,330.25211   L 293.95644,331.21122   L 293.95644,332.17032   L 293.95644,333.44913   L 293.95644,334.72794   L 293.95644,335.68704   L 294.2763,336.96585   L 294.2763,337.92496   L 294.2763,337.92496   L 294.59617,337.92496   L 294.59617,337.92496   L 294.91603,337.92496   L 295.2359,337.92496   L 295.2359,337.92496   L 295.55576,337.92496   L 295.55576,337.92496  z "
     style="fill:#8759ff;fill-rule:evenodd;fill-opacity:1;stroke:none;" />
  <path
     id="path23"
     d="  M 335.85882,330.89152   L 356.01035,319.70195   L 355.69049,319.70195   L 355.69049,319.38225   L 355.69049,319.38225   L 355.69049,319.38225   L 355.69049,319.38225   L 355.69049,319.38225   L 355.37062,319.06254   L 355.05076,318.74284   L 352.17197,319.38225   L 349.29318,320.34135   L 346.73425,321.30046   L 343.85546,322.57927   L 341.29654,324.17777   L 339.05748,325.77628   L 336.81842,327.37479   L 334.57936,329.29301   L 334.57936,329.29301   L 334.57936,329.61271   L 334.89923,329.93241   L 334.89923,330.25211   L 335.21909,330.57181   L 335.21909,330.89152   L 335.53896,330.89152   L 335.85882,330.89152  z "
     style="fill:#8759ff;fill-rule:evenodd;fill-opacity:1;stroke:none;" />
  <path
     id="path25"
     d="  M 146.17855,323.21867   L 170.8082,321.62016   L 169.84861,319.38225   L 168.56914,317.14433   L 167.60955,314.90642   L 166.33008,312.6685   L 165.05062,310.43059   L 164.09103,308.19268   L 162.81156,305.63506   L 161.85197,303.39715   L 156.41425,292.52728   L 150.97654,281.65742   L 145.85869,270.78755   L 140.42097,259.59798   L 135.62299,248.40841   L 131.14487,237.21885   L 128.90582,231.46421   L 126.98662,225.38987   L 125.06743,219.31554   L 123.4681,213.2412   L 123.78797,212.9215   L 124.10783,212.9215   L 124.4277,212.6018   L 124.74756,212.28209   L 125.06743,212.28209   L 125.38729,211.96239   L 125.70716,212.28209   L 126.02703,212.28209   L 142.34017,252.24484   L 149.69708,268.54964   L 162.17183,292.52728   L 163.45129,294.7652   L 164.73076,297.00311   L 165.69035,299.24102   L 166.64995,301.47894   L 167.60955,304.03655   L 168.88901,306.27447   L 170.16847,308.19268   L 171.7678,310.11089   L 172.40753,311.7094   L 173.04726,312.98821   L 174.00686,314.58672   L 174.96645,315.86552   L 175.92605,317.14433   L 176.88565,318.10344   L 178.16511,319.06254   L 179.44457,319.70195   L 239.25943,305.63506   L 237.34024,301.47894   L 235.42104,296.68341   L 234.14158,291.88788   L 232.86212,287.09235   L 231.58266,281.97712   L 230.62306,276.86189   L 229.3436,271.74666   L 228.06413,266.95113   L 226.78467,258.31917   L 225.18534,249.36752   L 222.94629,240.73557   L 221.02709,232.10361   L 218.78803,223.47166   L 216.86884,214.83971   L 216.22911,210.36388   L 215.58938,206.20776   L 215.26951,202.05163   L 215.26951,197.5758   L 215.26951,197.2561   L 215.26951,196.9364   L 215.58938,196.9364   L 215.58938,196.6167   L 215.90924,196.297   L 215.90924,196.297   L 216.22911,195.97729   L 216.54897,195.97729   L 216.86884,195.97729   L 217.18871,195.97729   L 217.50857,195.97729   L 217.50857,195.97729   L 217.82844,196.297   L 217.82844,196.297   L 218.1483,196.6167   L 218.1483,196.6167   L 229.3436,246.4902   L 230.30319,253.52364   L 231.58266,260.87679   L 232.86212,268.22993   L 234.46145,275.58308   L 236.38064,282.61652   L 238.6197,289.64996   L 240.85876,296.36371   L 243.73755,302.75774   L 243.73755,302.75774   L 243.73755,302.75774   L 243.73755,303.07745   L 244.05741,303.07745   L 244.37728,303.07745   L 244.37728,303.07745   L 244.69714,303.39715   L 245.01701,303.39715   L 249.17526,302.11834   L 253.01365,301.15923   L 257.1719,299.56072   L 261.01029,297.96222   L 265.16854,296.36371   L 268.68706,294.44549   L 272.20558,292.20758   L 275.40424,289.64996   L 274.7645,285.81354   L 274.44464,282.29682   L 274.44464,278.4604   L 274.44464,274.62397   L 274.12477,271.10725   L 273.80491,267.27083   L 273.16518,265.67232   L 272.52545,264.07381   L 271.88571,262.4753   L 270.60625,261.19649   L 270.60625,260.87679   L 270.60625,260.87679   L 270.60625,260.55709   L 270.60625,260.55709   L 270.60625,260.23739   L 270.60625,259.91768   L 270.60625,259.59798   L 270.60625,259.27828   L 270.60625,258.95858   L 270.92612,258.63888   L 271.56585,257.99947   L 271.88571,257.67977   L 272.20558,257.36007   L 272.52545,256.72066   L 272.84531,256.08126   L 273.16518,255.44186   L 260.37055,170.40114   L 260.37055,170.08144   L 260.37055,170.08144   L 260.05069,169.76173   L 260.05069,169.76173   L 259.73082,169.76173   L 259.41096,169.76173   L 259.41096,169.76173   L 259.09109,169.76173   L 249.81499,176.15577   L 248.85539,176.15577   L 247.8958,176.15577   L 247.25607,176.47548   L 246.29647,176.79518   L 245.33687,177.11488   L 244.37728,177.11488   L 243.41768,177.43458   L 242.45808,177.75428   L 239.25943,178.39369   L 236.06077,179.35279   L 233.18198,179.9922   L 229.98333,180.9513   L 227.10454,181.59071   L 223.90588,182.23011   L 221.02709,182.86951   L 217.82844,183.50892   L 215.58938,184.46802   L 213.67018,185.42713   L 211.43113,186.06653   L 209.51193,186.70594   L 207.59274,187.02564   L 205.67355,187.66504   L 203.75435,188.30445   L 202.15503,188.94385   L 196.39745,189.90296   L 190.95973,190.86206   L 185.52202,192.14087   L 180.40417,193.09998   L 174.96645,194.37878   L 169.84861,195.65759   L 164.41089,196.6167   L 158.97318,197.5758   L 155.77452,198.53491   L 152.89573,199.17431   L 149.69708,199.49402   L 146.49842,199.81372   L 143.61963,200.13342   L 140.74084,200.77282   L 137.54218,201.41223   L 134.66339,202.37133   L 131.46474,203.01074   L 128.26608,203.65014   L 125.06743,203.96984   L 121.86877,204.28954   L 118.67012,204.60925   L 115.47146,205.24865   L 112.27281,205.88805   L 109.07415,206.84716   L 85.723966,207.80627   L 86.683563,213.2412   L 87.64316,217.71703   L 88.922622,221.55345   L 90.52195,225.07017   L 92.121277,228.58689   L 94.040471,232.10361   L 95.959664,235.62034   L 97.878857,239.13706   L 99.478185,242.65378   L 110.03375,238.81735   L 110.03375,239.13706   L 110.35361,239.13706   L 110.35361,239.45676   L 110.35361,239.45676   L 110.35361,239.77646   L 110.35361,240.09616   L 110.35361,240.41586   L 110.35361,240.73557   L 102.67684,244.89169   L 102.35697,245.21139   L 102.03711,245.8508   L 101.71724,246.4902   L 101.71724,247.12961   L 101.71724,247.76901   L 101.71724,248.40841   L 102.03711,249.04782   L 102.35697,249.36752   L 103.63644,248.72812   L 104.9159,247.76901   L 106.51523,247.12961   L 108.11455,246.4902   L 109.71388,245.8508   L 111.31321,245.8508   L 113.2324,245.5311   L 115.1516,245.8508   L 115.79133,245.21139   L 116.75092,244.89169   L 117.39066,244.89169   L 118.35025,244.89169   L 119.30985,245.21139   L 119.94958,245.5311   L 120.90918,246.1705   L 121.54891,246.4902   L 121.54891,246.8099   L 121.86877,247.12961   L 121.86877,247.76901   L 121.54891,248.08871   L 121.54891,248.40841   L 121.22904,248.72812   L 120.90918,249.04782   L 120.58931,249.36752   L 120.58931,249.36752   L 120.26945,249.36752   L 119.94958,249.36752   L 119.62971,249.36752   L 119.30985,249.36752   L 118.98998,249.04782   L 118.67012,249.04782   L 118.35025,248.72812   L 105.8755,251.92513   L 105.23576,252.24484   L 105.23576,252.56454   L 105.23576,253.20394   L 105.23576,253.84335   L 105.55563,254.48275   L 105.55563,255.12215   L 105.8755,255.76156   L 105.8755,256.40096   L 108.11455,256.08126   L 110.35361,255.44186   L 112.91254,254.80245   L 115.1516,254.16305   L 117.39066,253.52364   L 119.62971,253.52364   L 120.90918,253.52364   L 121.86877,253.52364   L 122.82837,254.16305   L 123.78797,254.80245   L 124.10783,254.80245   L 124.10783,254.80245   L 124.10783,255.12215   L 124.10783,255.44186   L 124.10783,255.44186   L 124.10783,255.76156   L 124.10783,256.08126   L 123.78797,256.40096   L 111.63308,258.95858   L 109.39402,260.87679   L 115.47146,271.74666   L 121.54891,268.22993   L 121.86877,268.22993   L 122.18864,268.22993   L 122.5085,268.22993   L 122.82837,268.22993   L 123.14824,268.22993   L 123.4681,268.22993   L 123.78797,268.22993   L 124.10783,268.22993   L 124.4277,268.22993   L 124.4277,268.22993   L 124.74756,268.22993   L 124.74756,268.22993   L 125.06743,268.22993   L 125.38729,268.22993   L 125.70716,268.22993   L 126.02703,268.22993   L 126.02703,268.22993   L 126.34689,268.54964   L 126.34689,268.86934   L 126.66676,269.18904   L 126.98662,269.50874   L 127.30649,269.82844   L 127.62635,270.14815   L 127.62635,270.46785   L 127.62635,270.46785   L 127.62635,270.78755   L 127.62635,270.78755   L 127.62635,271.10725   L 127.62635,271.42695   L 127.62635,271.42695   L 127.30649,271.74666   L 127.30649,272.06636   L 117.39066,275.58308   L 128.58595,297.00311   L 128.90582,297.00311   L 129.22568,296.68341   L 129.54555,296.68341   L 129.86541,296.68341   L 130.18528,296.36371   L 130.82501,296.36371   L 131.14487,296.36371   L 131.78461,296.36371   L 132.10447,296.36371   L 132.10447,296.68341   L 132.42434,296.68341   L 132.42434,297.00311   L 132.7442,297.32281   L 132.7442,297.64251   L 133.06407,297.96222   L 133.06407,298.28192   L 133.06407,298.92132   L 132.7442,299.24102   L 132.7442,299.24102   L 132.42434,299.56072   L 132.10447,299.56072   L 131.78461,299.88043   L 131.46474,299.88043   L 131.14487,300.20013   L 132.7442,308.51238   L 133.7038,309.15178   L 134.66339,309.15178   L 135.62299,309.15178   L 136.58259,308.83208   L 137.86205,308.51238   L 139.14151,308.19268   L 140.42097,308.19268   L 141.70044,308.51238   L 142.0203,308.51238   L 142.34017,308.51238   L 142.34017,308.83208   L 142.66003,308.83208   L 142.9799,309.15178   L 142.9799,309.47149   L 142.9799,309.47149   L 142.9799,310.11089   L 142.34017,310.43059   L 142.0203,310.75029   L 141.38057,311.06999   L 140.74084,311.06999   L 140.42097,311.3897   L 139.46138,311.3897   L 138.82165,311.7094   L 138.18192,312.0291   L 138.18192,312.0291   L 137.86205,312.0291   L 137.86205,312.3488   L 137.86205,312.3488   L 137.54218,312.6685   L 137.54218,312.98821   L 137.54218,312.98821   L 137.54218,313.30791   L 143.29976,320.66105   L 143.61963,320.34135   L 144.25936,320.34135   L 144.57923,320.34135   L 145.21896,320.02165   L 145.85869,320.02165   L 146.49842,320.02165   L 146.81829,320.02165   L 147.45802,320.34135   L 147.45802,320.34135   L 147.45802,320.34135   L 147.45802,320.34135   L 147.77788,320.66105   L 147.77788,320.66105   L 147.77788,320.98076   L 147.77788,321.30046   L 147.77788,321.62016   L 147.77788,321.93986   L 147.45802,322.25956   L 147.13815,322.57927   L 146.81829,322.89897   L 146.17855,322.89897   L 146.17855,323.21867   L 146.17855,323.21867   L 146.17855,323.21867  z "
     style="fill:#a86300;fill-rule:evenodd;fill-opacity:1;stroke:none;" />
  <path
     id="path27"
     d="  M 284.04061,316.18523   L 289.47832,315.22612   L 294.59617,314.26701   L 299.39415,312.98821   L 304.19213,311.3897   L 308.99012,309.79119   L 313.46824,307.87298   L 317.94635,305.63506   L 322.10461,303.39715   L 326.26286,300.83953   L 330.10124,298.28192   L 334.2595,295.4046   L 338.09788,292.52728   L 345.45479,286.13324   L 353.13156,279.4195   L 353.45143,278.4604   L 354.09116,277.50129   L 354.41103,276.54218   L 354.73089,275.58308   L 355.37062,274.94367   L 355.69049,273.98457   L 356.01035,273.34517   L 356.01035,272.38606   L 353.13156,274.30427   L 348.65345,277.18159   L 344.17533,280.37861   L 340.01708,283.57563   L 335.53896,286.45294   L 331.06084,289.64996   L 326.26286,292.52728   L 321.14501,295.0849   L 315.70729,297.64251   L 315.06756,298.28192   L 314.10797,299.24102   L 313.14837,299.88043   L 312.18877,300.51983   L 310.90931,301.15923   L 309.94971,301.79864   L 308.67025,302.43804   L 307.71066,303.07745   L 306.11133,304.03655   L 304.19213,304.67596   L 302.59281,305.63506   L 300.67361,306.27447   L 299.07429,306.91387   L 297.47496,307.55327   L 295.55576,308.19268   L 293.63657,308.51238   L 292.35711,309.15178   L 291.07765,309.47149   L 289.79818,309.79119   L 288.83859,310.43059   L 287.87899,310.75029   L 286.91939,311.3897   L 285.9598,311.7094   L 284.68034,312.3488   L 284.36047,312.6685   L 284.36047,312.6685   L 284.04061,312.98821   L 283.72074,313.62761   L 283.72074,313.94731   L 283.40087,314.26701   L 283.08101,314.58672   L 282.44128,315.22612   L 282.44128,315.22612   L 282.76114,315.54582   L 282.76114,315.86552   L 282.76114,316.18523   L 283.08101,316.50493   L 283.40087,316.50493   L 283.72074,316.50493   L 284.04061,316.18523  z "
     style="fill:#a86300;fill-rule:evenodd;fill-opacity:1;stroke:none;" />
  <path
     id="path29"
     d="  M 215.58938,310.11089   L 215.90924,309.79119   L 216.22911,309.47149   L 216.22911,309.47149   L 216.22911,309.15178   L 216.22911,308.51238   L 216.22911,308.19268   L 216.22911,307.87298   L 216.22911,307.55327   L 214.62978,305.63506   L 213.35032,303.71685   L 212.07086,301.47894   L 211.43113,298.92132   L 210.47153,296.36371   L 209.51193,294.12579   L 208.55234,291.56818   L 207.27287,289.64996   L 206.63314,287.09235   L 205.99341,284.53473   L 205.35368,282.29682   L 204.39408,280.05891   L 203.75435,277.82099   L 203.11462,275.58308   L 202.15503,273.34517   L 201.51529,271.10725   L 199.27624,265.03291   L 197.03718,258.95858   L 195.11798,252.88424   L 193.19879,246.8099   L 191.2796,240.73557   L 189.68027,234.34153   L 188.40081,228.26719   L 187.12134,221.87315   L 186.80148,221.87315   L 186.48161,221.87315   L 186.16175,221.87315   L 186.16175,221.87315   L 185.84188,222.19285   L 185.52202,222.51256   L 185.52202,222.83226   L 185.52202,223.15196   L 187.76108,234.02183   L 190.63987,244.89169   L 193.19879,255.76156   L 196.39745,266.63142   L 199.5961,277.50129   L 203.43449,288.37116   L 207.59274,298.60162   L 212.07086,308.51238   L 212.71059,308.83208   L 213.03045,308.83208   L 213.67018,309.15178   L 213.99005,309.47149   L 214.62978,309.79119   L 214.94965,309.79119   L 215.26951,309.79119   L 215.58938,310.11089  z "
     style="fill:#000000;fill-rule:evenodd;fill-opacity:1;stroke:none;" />
  <path
     id="path31"
     d="  M 116.11119,308.51238   L 116.11119,308.51238   L 116.11119,308.51238   L 116.43106,308.51238   L 116.43106,308.51238   L 116.43106,308.19268   L 116.75092,308.19268   L 116.75092,308.19268   L 116.75092,308.19268   L 117.07079,307.55327   L 117.39066,306.91387   L 117.71052,306.27447   L 118.03039,305.63506   L 118.35025,304.99566   L 118.35025,304.35625   L 118.35025,303.39715   L 118.03039,302.75774   L 115.47146,300.51983   L 113.2324,297.96222   L 111.31321,295.0849   L 109.71388,292.20758   L 108.11455,289.01056   L 106.83509,285.49384   L 105.55563,281.97712   L 104.59603,278.4604   L 104.59603,277.82099   L 104.27617,277.50129   L 104.27617,276.86189   L 104.27617,276.54218   L 103.9563,276.22248   L 103.63644,275.90278   L 103.63644,275.58308   L 103.31657,275.58308   L 100.43778,272.70576   L 97.558992,269.50874   L 95.319933,266.31172   L 92.761008,262.4753   L 90.841815,258.95858   L 88.602756,255.12215   L 87.003429,250.96603   L 85.084235,246.8099   L 81.88558,238.17795   L 78.686924,229.546   L 75.488269,220.91405   L 71.969748,212.28209   L 71.969748,211.96239   L 71.969748,211.64269   L 71.969748,211.32299   L 71.969748,211.00329   L 71.969748,210.68358   L 71.969748,210.36388   L 71.649882,210.04418   L 71.649882,210.04418   L 71.649882,209.72448   L 71.649882,209.72448   L 71.330017,209.72448   L 71.330017,209.40478   L 71.010151,209.40478   L 71.010151,209.40478   L 70.690286,209.08507   L 70.37042,209.08507   L 69.730689,210.36388   L 69.410824,211.64269   L 69.410824,212.9215   L 69.410824,214.2003   L 69.730689,217.07762   L 70.37042,219.63524   L 71.330017,222.51256   L 72.289613,225.38987   L 72.929345,227.94749   L 73.24921,230.82481   L 64.292975,212.28209   L 64.292975,212.28209   L 63.973109,212.28209   L 63.653244,211.96239   L 63.333378,211.96239   L 63.013513,211.64269   L 62.373782,211.64269   L 62.053916,211.64269   L 61.414185,211.96239   L 62.053916,215.79881   L 63.013513,219.95494   L 64.292975,223.79136   L 65.572437,227.94749   L 67.49163,231.78391   L 69.410824,235.62034   L 71.330017,239.13706   L 73.888941,242.33408   L 74.208807,242.65378   L 74.528672,242.97348   L 74.848538,243.29318   L 74.848538,243.29318   L 75.168403,243.61288   L 75.488269,243.61288   L 75.808134,243.61288   L 76.128,243.61288   L 76.447866,243.61288   L 76.767731,243.61288   L 77.087597,243.61288   L 77.087597,243.61288   L 77.407462,243.61288   L 77.727328,243.93259   L 78.047193,243.93259   L 78.367059,243.93259   L 95.319933,276.86189   L 96.919261,278.14069   L 98.198723,279.7392   L 99.79805,281.33771   L 100.75765,282.93622   L 102.99671,286.77265   L 104.9159,290.92877   L 106.51523,295.0849   L 108.43442,299.24102   L 110.35361,303.07745   L 112.91254,306.91387   L 112.91254,306.91387   L 113.2324,307.23357   L 113.55227,307.55327   L 113.87213,307.87298   L 114.51187,307.87298   L 114.83173,308.19268   L 115.47146,308.51238   L 116.11119,308.51238  z "
     style="fill:#8759ff;fill-rule:evenodd;fill-opacity:1;stroke:none;" />
  <path
     id="path33"
     d="  M 288.83859,304.03655   L 295.87563,301.15923   L 302.91267,298.28192   L 309.62985,294.7652   L 316.02716,291.56818   L 322.42447,288.05145   L 328.82178,284.21503   L 334.89923,280.69831   L 340.97667,276.86189   L 343.21573,275.58308   L 345.13492,274.30427   L 347.05412,273.02546   L 348.97331,271.42695   L 352.17197,267.91023   L 355.05076,264.39351   L 357.28982,260.23739   L 359.20901,256.08126   L 361.1282,251.60543   L 362.72753,247.12961   L 362.40766,246.8099   L 362.40766,246.8099   L 362.0878,246.8099   L 362.0878,246.8099   L 362.0878,246.8099   L 362.0878,246.8099   L 362.0878,246.4902   L 362.0878,246.4902   L 357.28982,250.96603   L 352.8117,254.80245   L 348.33358,258.95858   L 343.5356,262.4753   L 338.73761,265.99202   L 333.61976,269.50874   L 328.50192,272.38606   L 322.74434,275.58308   L 321.14501,276.86189   L 319.22582,278.14069   L 317.30662,279.0998   L 315.70729,280.05891   L 313.7881,281.01801   L 312.18877,281.97712   L 310.26958,282.93622   L 308.67025,284.53473   L 306.11133,285.81354   L 303.87227,287.09235   L 301.31334,288.05145   L 298.43455,289.33026   L 295.87563,290.28937   L 293.31671,291.24847   L 290.75778,292.52728   L 288.19886,293.48639   L 288.19886,304.03655   L 288.19886,304.03655   L 288.19886,304.03655   L 288.51872,304.03655   L 288.51872,304.03655   L 288.83859,304.03655   L 288.83859,304.03655   L 288.83859,304.03655   L 288.83859,304.03655  z "
     style="fill:#ff7d00;fill-rule:evenodd;fill-opacity:1;stroke:none;" />
  <path
     id="path35"
     d="  M 87.003429,287.73175   L 87.323294,288.05145   L 87.323294,287.73175   L 87.64316,287.73175   L 87.963025,287.73175   L 88.282891,287.41205   L 88.602756,287.09235   L 88.602756,286.77265   L 88.922622,286.77265   L 88.922622,284.53473   L 88.602756,282.29682   L 87.963025,280.37861   L 87.003429,278.4604   L 85.723966,276.54218   L 84.76437,274.62397   L 83.484908,273.02546   L 82.525311,271.10725   L 81.88558,270.46785   L 81.565714,270.14815   L 80.925983,269.50874   L 80.286252,269.18904   L 79.966387,268.54964   L 79.326655,268.22993   L 79.00679,268.22993   L 78.367059,267.91023   L 78.367059,267.91023   L 78.047193,267.91023   L 77.727328,267.91023   L 77.407462,267.91023   L 77.087597,267.91023   L 77.087597,267.91023   L 76.767731,267.91023   L 76.447866,268.22993   L 76.767731,270.46785   L 77.087597,273.02546   L 77.727328,275.58308   L 78.686924,278.14069   L 79.966387,280.37861   L 81.245849,282.61652   L 82.525311,284.85444   L 84.444504,286.77265   L 84.76437,286.77265   L 85.084235,287.09235   L 85.404101,287.09235   L 85.723966,287.41205   L 85.723966,287.73175   L 86.043832,287.73175   L 86.683563,287.73175   L 87.003429,287.73175  z "
     style="fill:#8759ff;fill-rule:evenodd;fill-opacity:1;stroke:none;" />
  <path
     id="path37"
     d="  M 286.59953,286.77265   L 302.27294,281.01801   L 302.27294,280.37861   L 302.27294,280.05891   L 302.27294,279.4195   L 301.95308,279.0998   L 301.95308,278.4604   L 301.63321,277.82099   L 301.63321,277.50129   L 301.31334,276.86189   L 302.27294,273.66487   L 302.91267,270.78755   L 303.5524,267.59053   L 303.87227,264.71321   L 304.19213,258.63888   L 303.87227,252.56454   L 303.5524,246.1705   L 303.23254,240.09616   L 302.91267,234.02183   L 302.59281,228.26719   L 301.63321,221.55345   L 301.31334,215.15941   L 300.99348,208.44567   L 300.99348,202.05163   L 300.67361,195.65759   L 300.67361,189.26355   L 300.67361,182.86951   L 300.35375,176.79518   L 300.67361,176.47548   L 300.67361,176.15577   L 300.99348,176.15577   L 300.99348,175.83607   L 301.31334,175.51637   L 301.63321,175.51637   L 301.95308,175.19667   L 302.27294,174.87697   L 302.27294,175.19667   L 302.59281,175.19667   L 302.91267,175.19667   L 302.91267,175.19667   L 303.23254,175.51637   L 303.5524,175.51637   L 303.5524,175.83607   L 303.87227,176.15577   L 307.39079,215.79881   L 307.07092,223.47166   L 307.39079,231.46421   L 308.03052,239.13706   L 308.35039,247.12961   L 308.67025,254.80245   L 308.35039,262.795   L 308.03052,266.63142   L 307.39079,270.46785   L 306.75106,274.62397   L 305.79146,278.4604   L 310.58945,276.22248   L 315.38743,273.66487   L 319.86555,270.78755   L 324.66353,267.91023   L 329.46151,264.71321   L 333.93963,261.8359   L 338.73761,258.63888   L 343.5356,255.44186   L 345.45479,253.84335   L 347.69385,252.24484   L 349.61304,250.96603   L 351.53224,249.36752   L 353.13156,247.44931   L 354.41103,245.5311   L 355.37062,243.29318   L 356.01035,240.73557   L 356.01035,231.46421   L 356.01035,222.51256   L 356.01035,213.2412   L 356.01035,204.28954   L 356.33022,195.33789   L 356.33022,186.38624   L 356.33022,177.43458   L 356.01035,168.48293   L 356.33022,162.08889   L 356.65008,156.01455   L 356.96995,149.62051   L 357.60968,143.54617   L 357.92955,137.47184   L 358.24941,131.0778   L 358.88914,125.00346   L 359.20901,118.60942   L 327.86218,134.59452   L 324.66353,135.87333   L 321.46487,137.15214   L 318.26622,138.43094   L 315.06756,139.70975   L 311.54904,140.98856   L 308.35039,142.26737   L 304.83187,143.54617   L 301.31334,145.14468   L 298.11469,145.78409   L 294.91603,146.42349   L 291.71738,147.0629   L 288.51872,147.3826   L 285.0002,147.7023   L 281.80155,148.022   L 278.60289,148.66141   L 275.40424,149.30081   L 274.44464,149.62051   L 273.80491,149.62051   L 272.84531,149.62051   L 271.88571,149.94021   L 271.24598,150.25992   L 270.28639,150.57962   L 269.64666,150.89932   L 269.00692,151.21902   L 268.04733,153.77664   L 267.4076,156.01455   L 266.76787,158.57217   L 266.448,161.12978   L 266.12813,166.24501   L 266.12813,171.67995   L 266.76787,176.79518   L 267.4076,182.23011   L 268.36719,187.34534   L 269.32679,192.46057   L 269.32679,193.73938   L 269.64666,195.33789   L 269.96652,196.6167   L 270.28639,197.89551   L 270.60625,199.17431   L 270.92612,200.45312   L 271.56585,201.73193   L 271.56585,203.01074   L 273.48504,203.33044   L 275.08437,203.96984   L 276.6837,204.60925   L 278.28303,205.56835   L 279.56249,206.52746   L 280.84195,207.80627   L 281.80155,209.08507   L 282.44128,210.68358   L 282.44128,215.15941   L 283.08101,219.95494   L 284.04061,224.75047   L 285.0002,229.546   L 286.27966,234.34153   L 287.55913,239.13706   L 289.15845,243.61288   L 290.43792,248.40841   L 289.79818,250.00692   L 288.83859,251.92513   L 287.55913,253.52364   L 286.27966,255.12215   L 284.68034,256.40096   L 283.08101,257.99947   L 281.48168,259.27828   L 279.88235,260.23739   L 281.16182,284.53473   L 281.48168,284.53473   L 281.48168,284.53473   L 281.80155,284.85444   L 281.80155,284.85444   L 282.12141,285.17414   L 282.44128,285.17414   L 282.76114,285.49384   L 283.08101,285.49384   L 286.59953,286.77265  z "
     style="fill:#a86300;fill-rule:evenodd;fill-opacity:1;stroke:none;" />
  <path
     id="path39"
     d="  M 125.06743,285.49384   L 125.38729,285.49384   L 125.70716,285.49384   L 126.02703,285.49384   L 126.34689,285.17414   L 126.66676,285.17414   L 126.98662,284.85444   L 127.30649,284.85444   L 127.30649,284.53473   L 133.06407,283.57563   L 133.38393,283.57563   L 133.7038,283.25593   L 133.7038,283.25593   L 133.7038,282.93622   L 134.02366,282.61652   L 134.02366,282.61652   L 133.7038,282.29682   L 133.7038,281.97712   L 132.7442,281.33771   L 131.46474,281.01801   L 130.18528,281.01801   L 128.90582,281.33771   L 127.62635,281.65742   L 126.34689,282.29682   L 125.38729,282.93622   L 124.4277,283.57563   L 124.4277,283.89533   L 124.10783,283.89533   L 124.10783,284.21503   L 124.10783,284.53473   L 124.10783,284.85444   L 124.10783,285.17414   L 124.4277,285.49384   L 124.4277,285.49384   L 124.4277,285.49384   L 124.4277,285.49384   L 124.4277,285.49384   L 124.74756,285.49384   L 124.74756,285.49384   L 124.74756,285.49384   L 124.74756,285.49384   L 125.06743,285.49384  z "
     style="fill:#000000;fill-rule:evenodd;fill-opacity:1;stroke:none;" />
  <path
     id="path41"
     d="  M 329.46151,262.1556   L 329.78138,261.8359   L 329.78138,261.8359   L 329.78138,261.8359   L 329.78138,261.8359   L 329.78138,261.51619   L 330.10124,261.51619   L 330.10124,261.51619   L 330.42111,261.19649   L 331.38071,255.44186   L 331.70057,249.36752   L 332.02044,243.61288   L 331.70057,237.53855   L 331.38071,231.78391   L 330.74097,225.70957   L 330.10124,219.95494   L 329.46151,214.2003   L 329.46151,213.8806   L 329.14165,213.8806   L 329.14165,213.8806   L 328.82178,213.8806   L 328.82178,213.8806   L 328.50192,213.8806   L 328.18205,213.8806   L 327.86218,214.2003   L 328.82178,223.15196   L 328.82178,223.47166   L 328.50192,223.79136   L 328.50192,224.11107   L 328.18205,224.11107   L 327.86218,224.43077   L 327.86218,224.11107   L 327.54232,224.11107   L 326.90259,223.79136   L 326.26286,216.11852   L 325.94299,208.12597   L 325.30326,200.13342   L 324.98339,192.46057   L 324.98339,184.46802   L 324.98339,176.47548   L 324.98339,168.48293   L 325.30326,160.49038   L 325.30326,160.17068   L 324.98339,159.85097   L 324.66353,159.53127   L 324.34366,159.53127   L 324.0238,159.21157   L 323.70393,159.53127   L 323.38407,159.53127   L 322.74434,159.85097   L 323.38407,225.07017   L 323.70393,225.07017   L 323.70393,225.38987   L 324.0238,225.70957   L 324.34366,226.02928   L 324.34366,226.34898   L 324.66353,226.66868   L 324.98339,226.66868   L 325.30326,226.98838   L 325.62313,226.98838   L 325.94299,226.98838   L 326.26286,226.66868   L 326.58272,226.66868   L 326.90259,226.66868   L 327.22245,226.66868   L 327.54232,226.66868   L 327.86218,226.66868   L 328.18205,226.66868   L 328.18205,226.66868   L 328.50192,226.66868   L 328.50192,226.66868   L 328.82178,226.66868   L 328.82178,226.98838   L 328.82178,226.98838   L 329.14165,227.30808   L 328.82178,261.8359   L 328.82178,261.8359   L 328.82178,261.8359   L 329.14165,261.8359   L 329.14165,261.8359   L 329.14165,261.8359   L 329.46151,262.1556   L 329.46151,262.1556   L 329.46151,262.1556  z "
     style="fill:#000000;fill-rule:evenodd;fill-opacity:1;stroke:none;" />
  <path
     id="path43"
     d="  M 179.44457,257.99947   L 179.76444,257.99947   L 179.76444,257.99947   L 180.0843,257.99947   L 180.0843,257.99947   L 180.40417,257.99947   L 180.72403,257.99947   L 180.72403,257.67977   L 181.0439,257.67977   L 167.28968,215.15941   L 166.96982,214.83971   L 166.96982,214.52001   L 166.96982,214.2003   L 166.64995,213.8806   L 166.33008,213.5609   L 166.01022,213.5609   L 165.69035,213.5609   L 165.37049,213.5609   L 178.48497,258.31917   L 178.48497,258.31917   L 178.80484,258.31917   L 178.80484,258.31917   L 179.12471,258.31917   L 179.12471,258.31917   L 179.44457,257.99947   L 179.44457,257.99947   L 179.44457,257.99947  z "
     style="fill:#000000;fill-rule:evenodd;fill-opacity:1;stroke:none;" />
  <path
     id="path45"
     d="  M 253.33351,252.88424   L 253.33351,252.88424   L 253.65338,252.88424   L 253.65338,252.88424   L 253.97324,252.88424   L 253.97324,252.88424   L 254.29311,252.88424   L 254.61297,252.88424   L 254.61297,252.56454   L 254.61297,251.28573   L 254.29311,249.68722   L 253.97324,248.08871   L 253.65338,246.4902   L 253.33351,244.89169   L 253.01365,243.29318   L 252.69378,241.69467   L 252.37392,239.77646   L 251.09445,237.21885   L 250.45472,234.98093   L 250.13486,232.42332   L 249.49513,230.1854   L 249.17526,227.94749   L 248.85539,225.70957   L 248.21566,223.15196   L 247.25607,220.59434   L 247.25607,218.35643   L 247.25607,215.79881   L 247.25607,213.5609   L 246.9362,211.32299   L 246.9362,209.08507   L 246.61634,206.52746   L 246.61634,204.60925   L 246.29647,202.37133   L 246.29647,202.37133   L 246.29647,202.37133   L 245.97661,202.37133   L 245.97661,202.37133   L 245.65674,202.37133   L 245.65674,202.37133   L 245.33687,202.37133   L 245.01701,202.37133   L 250.77459,250.32662   L 250.77459,250.64633   L 251.09445,251.28573   L 251.09445,251.60543   L 251.41432,251.92513   L 251.73418,252.24484   L 252.05405,252.56454   L 252.69378,252.88424   L 253.33351,252.88424  z "
     style="fill:#000000;fill-rule:evenodd;fill-opacity:1;stroke:none;" />
  <path
     id="path47"
     d="  M 279.88235,252.24484   L 284.68034,245.21139   L 284.04061,241.05527   L 283.08101,236.89914   L 281.80155,232.42332   L 280.84195,227.94749   L 279.56249,223.47166   L 277.96316,219.31554   L 276.04397,215.15941   L 274.12477,211.64269   L 273.80491,211.64269   L 273.48504,211.64269   L 273.48504,211.64269   L 273.16518,211.64269   L 272.84531,211.64269   L 272.84531,211.64269   L 272.52545,211.64269   L 272.52545,211.64269   L 278.60289,252.56454   L 278.60289,252.56454   L 278.92276,252.56454   L 278.92276,252.56454   L 279.24262,252.56454   L 279.56249,252.24484   L 279.56249,252.24484   L 279.88235,252.24484   L 279.88235,252.24484  z "
     style="fill:#7d3800;fill-rule:evenodd;fill-opacity:1;stroke:none;" />
  <path
     id="path49"
     d="  M 56.936067,237.21885   L 56.936067,237.21885   L 57.255933,237.21885   L 57.575798,237.21885   L 57.895664,237.21885   L 57.895664,237.21885   L 58.215529,237.21885   L 58.535395,236.89914   L 58.535395,236.89914   L 58.855261,236.89914   L 58.855261,236.89914   L 58.855261,236.89914   L 59.175126,236.57944   L 59.175126,236.25974   L 59.494992,236.25974   L 59.494992,235.94004   L 59.814857,235.62034   L 49.57916,215.15941   L 49.259294,214.52001   L 48.939429,214.2003   L 48.619563,213.5609   L 48.299697,213.2412   L 47.659966,212.9215   L 47.340101,212.9215   L 46.70037,212.6018   L 46.380504,212.28209   L 46.060639,213.8806   L 45.740773,215.15941   L 46.060639,216.75792   L 46.060639,218.03673   L 47.020235,220.91405   L 48.299697,223.79136   L 49.57916,226.66868   L 50.858622,229.2263   L 52.138084,232.10361   L 52.777815,234.66123   L 53.097681,234.98093   L 53.097681,235.30063   L 53.417546,235.30063   L 53.417546,235.62034   L 53.737412,235.62034   L 53.737412,235.94004   L 53.737412,235.94004   L 53.737412,235.94004   L 56.936067,237.21885  z "
     style="fill:#8759ff;fill-rule:evenodd;fill-opacity:1;stroke:none;" />
  <path
     id="path51"
     d="  M 97.239126,226.98838   L 97.239126,226.66868   L 97.558992,226.66868   L 97.558992,226.66868   L 97.878857,226.34898   L 98.198723,226.34898   L 98.198723,226.02928   L 98.518588,226.02928   L 98.518588,225.70957   L 106.51523,223.47166   L 105.55563,223.15196   L 104.59603,223.15196   L 103.63644,223.15196   L 102.35697,223.15196   L 101.07751,223.47166   L 100.11792,223.47166   L 98.838454,223.79136   L 97.558992,224.11107   L 97.239126,224.43077   L 97.239126,224.75047   L 96.919261,225.38987   L 96.919261,225.70957   L 96.919261,226.02928   L 96.919261,226.66868   L 96.919261,226.98838   L 97.239126,227.30808   L 97.239126,227.30808   L 97.239126,227.30808   L 97.239126,227.30808   L 97.239126,226.98838   L 97.239126,226.98838   L 97.239126,226.98838   L 97.239126,226.98838   L 97.239126,226.98838  z "
     style="fill:#000000;fill-rule:evenodd;fill-opacity:1;stroke:none;" />
  <path
     id="path53"
     d="  M 59.814857,203.96984   L 62.693647,203.96984   L 63.333378,203.65014   L 63.973109,203.33044   L 64.292975,202.69103   L 64.61284,202.05163   L 64.61284,201.41223   L 64.292975,200.45312   L 63.973109,199.81372   L 63.653244,199.49402   L 61.094319,198.21521   L 58.535395,196.9364   L 56.296336,195.33789   L 53.737412,193.41968   L 51.498353,191.50147   L 49.259294,189.26355   L 46.70037,187.02564   L 44.461311,184.46802   L 41.262655,183.50892   L 40.94279,184.14832   L 40.622924,185.10743   L 40.622924,186.06653   L 40.94279,187.02564   L 40.94279,187.98475   L 41.582521,188.62415   L 41.902387,189.58325   L 42.222252,189.90296   L 44.141445,192.14087   L 46.060639,194.37878   L 48.299697,196.297   L 50.218891,198.21521   L 52.45795,200.13342   L 54.697008,201.41223   L 56.936067,203.01074   L 59.814857,203.96984  z "
     style="fill:#8759ff;fill-rule:evenodd;fill-opacity:1;stroke:none;" />
  <path
     id="path55"
     d="  M 87.64316,202.37133   L 97.558992,201.73193   L 107.47482,200.77282   L 117.71052,199.49402   L 127.62635,198.21521   L 137.54218,196.6167   L 147.77788,194.69849   L 158.01358,192.78027   L 168.24928,190.86206   L 169.52874,190.22266   L 170.8082,189.58325   L 172.40753,189.58325   L 173.68699,189.26355   L 174.96645,189.26355   L 176.24592,188.94385   L 177.52538,188.62415   L 178.80484,187.98475   L 186.80148,186.38624   L 194.79812,184.78773   L 202.79476,182.54981   L 210.79139,180.3119   L 218.78803,178.39369   L 226.46481,176.47548   L 234.46145,174.55726   L 242.45808,172.95875   L 244.69714,171.04054   L 246.9362,169.44203   L 249.49513,167.84352   L 251.73418,166.56471   L 253.97324,164.9662   L 256.2123,163.3677   L 258.1315,161.44948   L 259.73082,159.21157   L 259.73082,148.66141   L 254.61297,151.85843   L 249.17526,154.73574   L 243.09782,157.29336   L 236.38064,159.85097   L 229.66346,162.40859   L 222.94629,164.6465   L 215.90924,166.56471   L 209.19207,168.48293   L 208.8722,168.80263   L 208.8722,168.80263   L 208.55234,169.12233   L 208.55234,169.12233   L 208.23247,169.44203   L 208.23247,169.44203   L 207.91261,169.76173   L 207.91261,169.76173   L 200.5557,171.36024   L 134.02366,186.06653   L 128.58595,187.02564   L 123.14824,188.30445   L 117.39066,189.26355   L 111.31321,190.22266   L 105.23576,190.86206   L 99.478185,191.50147   L 93.400739,191.82117   L 87.64316,191.82117   L 86.683563,191.50147   L 85.723966,191.18176   L 85.084235,190.54236   L 84.444504,190.22266   L 83.804773,189.90296   L 83.165042,189.26355   L 82.525311,189.26355   L 81.88558,188.94385   L 81.245849,189.58325   L 80.925983,190.22266   L 80.286252,191.18176   L 79.966387,192.14087   L 79.646521,193.09998   L 79.646521,194.05908   L 79.646521,195.01819   L 79.646521,195.97729   L 80.286252,197.2561   L 80.925983,198.21521   L 81.88558,199.17431   L 82.845176,200.13342   L 84.124639,200.77282   L 85.084235,201.41223   L 86.363697,201.73193   L 87.64316,202.37133  z "
     style="fill:#e3b575;fill-rule:evenodd;fill-opacity:1;stroke:none;" />
  <path
     id="path57"
     d="  M 343.5356,199.49402   L 343.5356,199.49402   L 343.5356,199.49402   L 343.5356,199.49402   L 343.85546,199.49402   L 343.85546,199.49402   L 343.85546,199.49402   L 343.85546,199.49402   L 343.85546,199.49402   L 342.89587,195.01819   L 341.93627,190.54236   L 341.6164,186.06653   L 341.29654,181.271   L 341.29654,176.47548   L 341.29654,171.99965   L 341.29654,167.20412   L 340.97667,162.72829   L 341.29654,161.76919   L 341.6164,160.81008   L 341.6164,159.85097   L 341.6164,158.89187   L 341.6164,158.25246   L 341.93627,157.29336   L 341.93627,156.65395   L 341.93627,156.01455   L 341.6164,155.69485   L 341.6164,155.37515   L 341.6164,155.05544   L 341.29654,155.05544   L 341.29654,155.05544   L 340.97667,155.05544   L 340.65681,155.05544   L 340.33694,155.37515   L 340.33694,160.81008   L 340.33694,166.56471   L 340.01708,171.99965   L 340.01708,177.75428   L 340.01708,183.18922   L 340.33694,188.94385   L 341.29654,194.37878   L 342.576,199.49402   L 342.576,199.49402   L 342.576,199.49402   L 342.89587,199.49402   L 342.89587,199.49402   L 342.89587,199.49402   L 343.21573,199.49402   L 343.21573,199.49402   L 343.5356,199.49402  z "
     style="fill:#000000;fill-rule:evenodd;fill-opacity:1;stroke:none;" />
  <path
     id="path59"
     d="  M 28.148168,197.89551   L 28.468034,197.89551   L 28.787899,197.89551   L 28.787899,197.89551   L 29.107765,197.5758   L 29.107765,197.5758   L 29.42763,197.2561   L 29.42763,196.9364   L 29.42763,196.6167   L 25.589244,188.94385   L 25.269378,188.94385   L 24.949513,188.94385   L 24.309782,188.62415   L 23.989916,188.62415   L 23.350185,188.30445   L 22.710454,188.30445   L 22.070723,188.30445   L 21.750857,188.30445   L 21.111126,189.90296   L 21.430992,191.18176   L 21.750857,192.46057   L 22.710454,193.73938   L 23.67005,195.01819   L 24.949513,196.297   L 26.228975,197.2561   L 27.508437,198.21521   L 27.508437,198.21521   L 27.508437,198.21521   L 27.828303,198.21521   L 27.828303,198.21521   L 28.148168,197.89551   L 28.148168,197.89551   L 28.148168,197.89551   L 28.148168,197.89551  z "
     style="fill:#8759ff;fill-rule:evenodd;fill-opacity:1;stroke:none;" />
  <path
     id="path61"
     d="  M 63.653244,189.58325   L 63.973109,189.26355   L 63.973109,189.26355   L 63.973109,189.26355   L 64.292975,188.94385   L 64.292975,188.94385   L 64.292975,188.62415   L 64.61284,188.62415   L 64.61284,188.30445   L 62.693647,185.42713   L 60.454588,182.86951   L 58.215529,180.3119   L 55.656605,177.75428   L 53.097681,175.19667   L 50.538756,172.63905   L 47.979832,169.76173   L 45.101042,167.20412   L 44.781176,166.56471   L 44.141445,166.24501   L 43.82158,165.92531   L 43.181849,165.60561   L 42.861983,165.28591   L 42.542118,164.9662   L 41.902387,164.6465   L 41.262655,164.3268   L 40.94279,164.3268   L 40.94279,164.3268   L 40.622924,164.6465   L 40.303059,164.6465   L 39.983193,164.6465   L 39.663328,164.6465   L 39.343462,164.9662   L 39.023597,165.28591   L 40.303059,167.84352   L 41.902387,170.72084   L 43.82158,172.95875   L 46.060639,175.19667   L 48.299697,177.75428   L 50.538756,179.9922   L 52.777815,182.54981   L 54.697008,185.10743   L 55.656605,185.74683   L 56.616202,186.38624   L 57.575798,187.02564   L 58.535395,187.66504   L 59.494992,187.98475   L 60.454588,188.62415   L 61.73405,189.26355   L 62.693647,189.90296   L 62.693647,189.90296   L 63.013513,189.58325   L 63.013513,189.58325   L 63.333378,189.58325   L 63.333378,189.58325   L 63.653244,189.58325   L 63.653244,189.58325   L 63.653244,189.58325  z "
     style="fill:#8759ff;fill-rule:evenodd;fill-opacity:1;stroke:none;" />
  <path
     id="path63"
     d="  M 95.319933,186.38624   L 100.75765,185.74683   L 106.51523,185.10743   L 112.27281,184.46802   L 118.03039,183.50892   L 123.4681,182.54981   L 129.22568,181.91041   L 134.66339,180.9513   L 140.10111,180.3119   L 152.89573,177.11488   L 165.69035,174.23756   L 178.16511,171.04054   L 190.63987,168.16322   L 202.79476,164.6465   L 215.26951,161.12978   L 227.4244,157.29336   L 239.89916,153.13723   L 241.81835,152.49783   L 243.41768,151.85843   L 245.01701,151.21902   L 246.61634,150.57962   L 248.21566,149.62051   L 249.81499,148.66141   L 251.73418,147.7023   L 253.65338,147.0629   L 255.25271,143.86588   L 253.33351,139.70975   L 252.05405,138.75065   L 250.77459,138.11124   L 249.81499,137.47184   L 248.21566,136.83243   L 245.65674,136.51273   L 242.77795,136.19303   L 239.57929,136.19303   L 236.7005,136.19303   L 233.50185,136.19303   L 230.62306,135.87333   L 229.02373,135.87333   L 227.4244,135.87333   L 225.82508,135.55363   L 224.22575,135.55363   L 222.62642,135.23392   L 221.02709,135.23392   L 219.42776,135.55363   L 217.82844,135.87333   L 217.50857,135.87333   L 217.18871,135.87333   L 216.86884,135.87333   L 216.54897,135.55363   L 216.22911,135.55363   L 216.22911,135.55363   L 216.22911,135.55363   L 216.22911,135.55363   L 207.91261,137.15214   L 199.27624,139.07035   L 190.95973,140.66886   L 182.32336,142.58707   L 173.68699,144.50528   L 165.37049,146.74319   L 157.05398,148.98111   L 148.73748,151.85843   L 144.89909,153.13723   L 141.06071,154.09634   L 137.54218,155.37515   L 134.02366,156.65395   L 130.50514,158.25246   L 126.98662,159.53127   L 123.4681,160.81008   L 119.94958,162.08889   L 115.47146,164.6465   L 110.67348,167.20412   L 105.8755,169.44203   L 101.07751,171.36024   L 96.599395,173.91786   L 92.441143,176.79518   L 90.841815,178.39369   L 88.922622,180.3119   L 87.64316,182.23011   L 86.363697,184.46802   L 95.319933,186.38624  z "
     style="fill:#e3b575;fill-rule:evenodd;fill-opacity:1;stroke:none;" />
  <path
     id="path65"
     d="  M 9.9158319,165.92531   L 10.235697,165.92531   L 10.555563,165.92531   L 10.555563,165.60561   L 10.875429,165.60561   L 10.875429,165.28591   L 11.195294,164.9662   L 11.195294,164.6465   L 11.51516,164.3268   L 11.51516,164.3268   L 11.51516,164.0071   L 11.51516,163.6874   L 11.195294,163.3677   L 11.195294,163.3677   L 11.195294,163.04799   L 10.875429,163.04799   L 10.875429,162.72829   L 2.2390588,160.17068   L 2.2390588,160.17068   L 1.9191933,160.17068   L 1.9191933,160.17068   L 1.5993277,160.17068   L 1.5993277,160.17068   L 1.2794622,160.17068   L 0.95959664,160.49038   L 0.95959664,160.49038   L 0.95959664,160.49038   L 0.63973109,160.49038   L 0.63973109,160.81008   L 0.31986555,160.81008   L 0.31986555,161.12978   L 0.31986555,161.12978   L 0,161.44948   L 0,161.76919   L 0,162.08889   L 0,162.40859   L 0,162.40859   L 0.31986555,162.72829   L 0.31986555,163.04799   L 0.63973109,163.04799   L 0.63973109,163.3677   L 0.95959664,163.3677   L 9.2761008,166.24501   L 9.2761008,166.24501   L 9.2761008,166.24501   L 9.5959664,166.24501   L 9.5959664,165.92531   L 9.5959664,165.92531   L 9.9158319,165.92531   L 9.9158319,165.92531   L 9.9158319,165.92531  z "
     style="fill:#8759ff;fill-rule:evenodd;fill-opacity:1;stroke:none;" />
  <path
     id="path67"
     d="  M 60.134723,161.12978   L 60.454588,160.81008   L 60.774454,160.81008   L 60.774454,160.81008   L 60.774454,160.81008   L 60.774454,160.81008   L 61.094319,160.81008   L 61.094319,160.81008   L 61.414185,160.49038   L 61.414185,159.53127   L 61.414185,158.89187   L 61.094319,158.25246   L 60.774454,157.61306   L 60.454588,156.97366   L 59.814857,156.65395   L 59.494992,156.01455   L 59.175126,155.37515   L 58.855261,155.05544   L 58.535395,154.73574   L 58.215529,154.41604   L 57.575798,154.09634   L 56.936067,154.09634   L 56.616202,153.77664   L 55.976471,153.77664   L 55.656605,153.77664   L 55.336739,153.77664   L 55.016874,154.09634   L 55.016874,154.09634   L 55.016874,154.09634   L 55.016874,154.09634   L 54.697008,154.09634   L 54.697008,154.41604   L 54.057277,154.73574   L 54.057277,154.73574   L 54.057277,154.73574   L 54.057277,155.05544   L 54.057277,155.05544   L 54.057277,155.37515   L 53.737412,155.69485   L 53.737412,156.01455   L 53.737412,156.01455   L 54.377143,156.97366   L 55.016874,157.93276   L 55.656605,158.57217   L 56.616202,159.21157   L 57.255933,159.85097   L 58.215529,160.17068   L 59.175126,160.49038   L 60.134723,161.12978  z "
     style="fill:#8759ff;fill-rule:evenodd;fill-opacity:1;stroke:none;" />
  <path
     id="path69"
     d="  M 76.128,156.01455   L 79.326655,156.01455   L 79.966387,156.01455   L 80.286252,155.69485   L 80.286252,155.37515   L 79.966387,155.05544   L 79.966387,154.73574   L 79.646521,154.41604   L 79.646521,154.09634   L 79.326655,153.77664   L 78.686924,153.45693   L 78.047193,153.13723   L 77.087597,152.81753   L 76.128,152.49783   L 75.488269,152.49783   L 74.528672,152.17813   L 73.569076,152.17813   L 72.609479,152.17813   L 72.609479,152.17813   L 72.609479,152.17813   L 72.609479,152.49783   L 72.289613,152.49783   L 72.289613,152.81753   L 72.289613,153.13723   L 72.289613,153.45693   L 72.289613,153.77664   L 72.609479,154.09634   L 72.929345,154.41604   L 73.24921,154.73574   L 73.888941,155.37515   L 74.208807,155.69485   L 74.848538,155.69485   L 75.168403,156.01455   L 76.128,156.01455  z "
     style="fill:#8759ff;fill-rule:evenodd;fill-opacity:1;stroke:none;" />
  <path
     id="path71"
     d="  M 123.14824,147.0629   L 128.26608,145.46439   L 133.38393,143.54617   L 138.18192,141.94766   L 143.29976,140.02945   L 148.09775,138.43094   L 153.2156,137.15214   L 158.33345,135.87333   L 163.77116,135.55363   L 165.37049,134.27482   L 166.64995,132.99601   L 167.92941,131.3975   L 168.56914,129.79899   L 169.52874,127.88078   L 170.16847,126.28227   L 170.8082,124.36406   L 171.7678,122.76555   L 172.08766,122.76555   L 172.72739,122.44585   L 173.04726,122.44585   L 173.36713,122.12614   L 173.68699,121.80644   L 174.00686,121.48674   L 174.00686,121.16704   L 174.00686,120.52763   L 173.68699,120.20793   L 173.68699,119.88823   L 173.36713,119.56853   L 173.04726,119.24883   L 172.72739,119.24883   L 172.08766,118.92912   L 171.7678,118.92912   L 171.44793,118.60942   L 168.56914,120.20793   L 166.33008,122.12614   L 163.77116,124.36406   L 161.5321,126.60197   L 159.29304,128.52018   L 156.73412,130.11869   L 155.45466,130.7581   L 153.85533,131.3975   L 152.256,131.7172   L 150.33681,131.7172   L 147.45802,133.63541   L 143.9395,135.23392   L 140.74084,136.83243   L 137.22232,138.11124   L 133.7038,139.07035   L 130.18528,140.34915   L 126.66676,141.62796   L 123.14824,143.22647   L 123.14824,143.54617   L 122.82837,143.86588   L 122.82837,144.18558   L 122.5085,144.50528   L 122.5085,144.82498   L 122.18864,145.14468   L 122.18864,145.78409   L 122.18864,146.10379   L 122.18864,146.42349   L 122.18864,146.74319   L 122.18864,146.74319   L 122.5085,146.74319   L 122.5085,146.74319   L 122.82837,146.74319   L 122.82837,146.74319   L 123.14824,147.0629  z "
     style="fill:#8759ff;fill-rule:evenodd;fill-opacity:1;stroke:none;" />
  <path
     id="path73"
     d="  M 267.08773,146.10379   L 267.08773,145.78409   L 267.08773,145.46439   L 267.08773,145.46439   L 267.08773,145.46439   L 267.08773,145.46439   L 267.4076,145.46439   L 267.4076,145.14468   L 267.4076,144.82498   L 269.96652,143.86588   L 272.84531,142.90677   L 275.40424,142.26737   L 278.28303,141.62796   L 280.84195,140.98856   L 283.72074,140.34915   L 286.27966,139.70975   L 288.83859,138.75065   L 292.67697,138.43094   L 296.1955,137.79154   L 300.03388,137.15214   L 303.5524,135.87333   L 307.07092,134.91422   L 310.58945,133.95512   L 314.42783,133.31571   L 317.94635,132.67631   L 324.34366,129.79899   L 330.42111,127.24138   L 336.81842,125.00346   L 342.89587,122.44585   L 348.65345,119.56853   L 353.77129,116.37151   L 356.33022,114.4533   L 358.88914,112.21538   L 361.1282,109.65777   L 363.04739,107.10015   L 362.0878,95.27118   L 361.76793,96.230286   L 361.44807,97.189392   L 360.80834,97.828796   L 360.16861,98.787902   L 358.24941,99.747008   L 356.33022,100.70611   L 354.09116,101.98492   L 352.17197,102.94403   L 350.25277,104.22283   L 348.65345,106.14105   L 346.41439,107.73956   L 344.17533,109.01836   L 341.6164,109.97747   L 339.05748,110.93658   L 336.49855,111.57598   L 333.93963,112.53509   L 331.70057,113.49419   L 329.46151,114.4533   L 326.26286,115.7321   L 322.74434,116.69121   L 319.22582,117.65032   L 315.70729,118.60942   L 312.18877,119.24883   L 308.67025,120.20793   L 305.4716,121.48674   L 302.27294,122.76555   L 298.11469,123.40495   L 293.95644,124.36406   L 290.11805,125.64287   L 286.27966,126.60197   L 282.44128,127.88078   L 278.60289,128.83988   L 274.7645,129.79899   L 270.92612,130.43839   L 269.00692,131.0778   L 267.08773,131.7172   L 265.16854,132.0369   L 263.56921,132.35661   L 261.65002,132.67631   L 260.05069,132.99601   L 258.45136,132.99601   L 256.85203,132.99601   L 256.85203,133.63541   L 257.1719,134.27482   L 257.49176,134.91422   L 258.1315,135.23392   L 258.77123,135.87333   L 259.09109,136.51273   L 259.41096,137.15214   L 259.73082,137.79154   L 261.01029,138.43094   L 262.28975,139.07035   L 263.56921,139.70975   L 264.20894,140.98856   L 265.16854,141.94766   L 265.80827,143.22647   L 266.448,144.50528   L 267.08773,146.10379  z "
     style="fill:#e3b575;fill-rule:evenodd;fill-opacity:1;stroke:none;" />
  <path
     id="path75"
     d="  M 40.622924,135.87333   L 40.94279,135.87333   L 40.94279,135.87333   L 41.262655,135.87333   L 41.582521,135.87333   L 41.902387,135.87333   L 41.902387,135.55363   L 42.222252,135.55363   L 42.542118,135.23392   L 42.861983,134.91422   L 42.861983,134.27482   L 42.861983,133.95512   L 42.542118,133.63541   L 42.222252,133.31571   L 41.902387,132.99601   L 41.582521,132.67631   L 41.262655,132.35661   L 40.94279,132.35661   L 40.622924,132.67631   L 40.622924,132.67631   L 40.303059,132.67631   L 39.983193,132.67631   L 39.663328,132.67631   L 39.343462,132.99601   L 38.703731,132.99601   L 38.383866,132.99601   L 38.064,132.67631   L 37.744134,132.67631   L 37.424269,132.35661   L 36.784538,132.35661   L 36.464672,132.35661   L 35.824941,132.67631   L 35.505076,132.67631   L 35.505076,132.67631   L 35.505076,132.67631   L 35.18521,132.99601   L 35.18521,132.99601   L 35.18521,132.99601   L 34.865345,133.31571   L 34.865345,133.31571   L 34.545479,133.63541   L 34.865345,133.95512   L 34.865345,133.95512   L 35.18521,133.95512   L 35.18521,134.27482   L 35.18521,134.27482   L 35.18521,134.27482   L 35.18521,134.27482   L 35.505076,134.59452   L 39.983193,136.19303   L 39.983193,136.19303   L 39.983193,136.19303   L 39.983193,136.19303   L 40.303059,136.19303   L 40.303059,135.87333   L 40.303059,135.87333   L 40.622924,135.87333   L 40.622924,135.87333  z "
     style="fill:#8759ff;fill-rule:evenodd;fill-opacity:1;stroke:none;" />
  <path
     id="path77"
     d="  M 104.9159,135.55363   L 109.07415,135.55363   L 109.39402,135.23392   L 109.71388,135.23392   L 110.03375,134.91422   L 110.03375,134.91422   L 110.35361,134.59452   L 110.67348,134.27482   L 110.67348,133.95512   L 110.99334,133.63541   L 107.79469,131.7172   L 105.23576,129.15959   L 102.99671,126.60197   L 101.07751,124.04436   L 99.158319,121.16704   L 97.558992,117.97002   L 95.959664,114.773   L 94.040471,111.57598   L 94.040471,111.25628   L 93.720605,110.93658   L 93.080874,110.93658   L 92.761008,110.61687   L 92.441143,110.29717   L 92.121277,110.29717   L 91.481546,110.29717   L 90.841815,109.97747   L 90.52195,111.25628   L 90.52195,112.53509   L 90.52195,113.49419   L 90.841815,114.4533   L 91.481546,116.69121   L 92.441143,118.92912   L 93.720605,120.84734   L 95.000067,123.08525   L 95.959664,125.00346   L 96.919261,127.24138   L 96.919261,127.56108   L 96.919261,127.56108   L 96.919261,127.88078   L 96.599395,127.88078   L 96.599395,128.20048   L 96.279529,128.20048   L 96.279529,128.52018   L 95.959664,128.52018   L 77.087597,120.84734   L 79.00679,123.08525   L 81.245849,125.00346   L 83.484908,126.92167   L 86.043832,128.52018   L 88.922622,129.79899   L 92.121277,130.43839   L 95.319933,131.0778   L 98.518588,131.3975   L 99.158319,131.3975   L 99.478185,131.7172   L 99.478185,132.0369   L 99.79805,132.35661   L 100.11792,132.67631   L 100.43778,132.99601   L 100.75765,133.31571   L 101.07751,133.63541   L 104.9159,135.55363  z "
     style="fill:#8759ff;fill-rule:evenodd;fill-opacity:1;stroke:none;" />
  <path
     id="path79"
     d="  M 190.95973,135.55363   L 205.03382,132.99601   L 210.15166,132.0369   L 215.58938,131.0778   L 220.70723,130.11869   L 226.14494,129.79899   L 231.58266,129.47929   L 236.7005,129.47929   L 242.13822,129.79899   L 247.25607,130.43839   L 250.77459,129.15959   L 254.29311,128.20048   L 257.81163,127.56108   L 261.33015,127.24138   L 264.84867,126.60197   L 268.36719,125.96257   L 271.88571,125.32316   L 275.40424,124.04436   L 279.56249,123.40495   L 283.40087,122.44585   L 287.55913,121.48674   L 291.39751,120.52763   L 295.55576,119.56853   L 299.39415,118.28972   L 303.23254,117.33061   L 307.39079,116.05181   L 313.14837,114.4533   L 319.22582,112.53509   L 325.30326,110.93658   L 331.38071,108.69866   L 337.13829,106.46075   L 342.576,103.90313   L 344.81506,102.62433   L 347.37398,101.02582   L 349.61304,99.427306   L 351.53224,97.828796   L 352.17197,97.828796   L 352.49183,97.509094   L 352.8117,97.509094   L 353.13156,97.189392   L 353.45143,97.189392   L 353.77129,97.189392   L 354.09116,96.86969   L 354.41103,96.86969   L 354.41103,96.549988   L 354.73089,96.230286   L 355.05076,95.910584   L 355.37062,95.910584   L 355.69049,95.590882   L 355.69049,94.951478   L 355.69049,94.631776   L 355.69049,93.992373   L 351.53224,91.434757   L 347.05412,87.278632   L 342.89587,85.680122   L 341.6164,84.721016   L 340.65681,84.081612   L 339.37734,83.76191   L 338.41775,83.442208   L 335.85882,83.122506   L 332.98003,83.122506   L 330.10124,83.442208   L 327.22245,84.081612   L 324.66353,84.401314   L 321.78474,84.401314   L 317.62649,85.040718   L 313.14837,85.680122   L 308.99012,86.319526   L 304.512,86.95893   L 300.03388,87.278632   L 295.55576,88.237738   L 291.39751,88.877141   L 287.23926,89.836247   L 258.1315,98.4682   L 258.1315,98.4682   L 258.1315,98.4682   L 257.81163,98.4682   L 257.49176,98.4682   L 257.1719,98.4682   L 257.1719,98.4682   L 256.85203,98.4682   L 256.85203,98.4682   L 252.05405,100.38641   L 246.9362,102.30462   L 241.81835,103.90313   L 236.7005,105.50164   L 231.58266,107.10015   L 226.46481,109.01836   L 221.34696,110.93658   L 216.54897,113.17449   L 214.94965,113.81389   L 213.35032,114.773   L 211.75099,115.4124   L 210.15166,116.05181   L 208.55234,116.69121   L 206.95301,117.65032   L 205.67355,118.60942   L 204.39408,119.56853   L 201.83516,120.52763   L 199.5961,121.48674   L 197.67691,122.44585   L 195.43785,123.72465   L 193.51866,125.00346   L 191.59946,126.60197   L 189.68027,128.20048   L 187.76108,130.43839   L 187.76108,130.7581   L 187.76108,131.0778   L 187.76108,131.3975   L 187.76108,131.3975   L 187.76108,131.7172   L 187.76108,132.0369   L 187.76108,132.67631   L 187.76108,132.99601   L 188.08094,133.31571   L 188.40081,133.63541   L 188.72067,133.95512   L 189.04054,134.27482   L 189.68027,134.59452   L 190.00013,134.91422   L 190.32,135.23392   L 190.95973,135.55363  z "
     style="fill:#e3b575;fill-rule:evenodd;fill-opacity:1;stroke:none;" />
  <path
     id="path81"
     d="  M 119.94958,132.0369   L 120.26945,132.0369   L 120.58931,132.0369   L 120.58931,132.0369   L 120.90918,132.0369   L 121.22904,131.7172   L 121.54891,131.7172   L 121.54891,131.3975   L 121.86877,131.3975   L 121.86877,131.0778   L 121.86877,131.0778   L 121.86877,130.7581   L 121.86877,130.7581   L 122.18864,130.43839   L 122.18864,130.11869   L 122.5085,130.11869   L 122.5085,129.79899   L 97.558992,100.38641   L 97.558992,100.38641   L 97.239126,100.38641   L 96.919261,100.38641   L 96.599395,100.38641   L 96.279529,100.70611   L 95.959664,100.70611   L 95.639798,100.70611   L 95.319933,101.02582   L 95.319933,102.62433   L 95.639798,104.22283   L 96.279529,105.50164   L 97.239126,107.10015   L 97.878857,108.37896   L 98.838454,109.97747   L 99.79805,111.25628   L 100.43778,113.17449   L 102.35697,116.05181   L 104.59603,118.92912   L 106.83509,121.48674   L 109.07415,124.04436   L 111.63308,126.28227   L 114.192,128.52018   L 117.07079,130.43839   L 119.94958,132.0369  z "
     style="fill:#8759ff;fill-rule:evenodd;fill-opacity:1;stroke:none;" />
  <path
     id="path83"
     d="  M 123.14824,121.80644   L 126.66676,121.80644   L 126.66676,121.80644   L 126.98662,121.80644   L 126.98662,121.80644   L 126.98662,121.48674   L 127.30649,121.48674   L 127.30649,121.16704   L 127.30649,120.84734   L 127.30649,120.52763   L 119.94958,110.61687   L 105.8755,92.074161   L 105.55563,92.074161   L 105.55563,92.074161   L 105.55563,92.074161   L 105.23576,92.074161   L 104.9159,92.393863   L 104.9159,92.393863   L 104.59603,92.393863   L 104.59603,92.393863   L 104.9159,94.951478   L 105.55563,96.86969   L 106.51523,99.107604   L 107.79469,101.02582   L 109.07415,102.94403   L 110.67348,104.86224   L 111.95294,106.78045   L 112.91254,109.01836   L 114.51187,110.61687   L 115.79133,112.53509   L 116.75092,114.1336   L 118.03039,116.05181   L 118.98998,117.65032   L 120.26945,119.24883   L 121.54891,120.84734   L 123.14824,121.80644  z "
     style="fill:#8759ff;fill-rule:evenodd;fill-opacity:1;stroke:none;" />
  <path
     id="path85"
     d="  M 126.66676,105.82134   L 126.66676,105.82134   L 126.98662,105.82134   L 126.98662,105.82134   L 127.30649,105.82134   L 127.30649,105.50164   L 127.62635,105.50164   L 127.62635,105.50164   L 127.94622,105.50164   L 127.94622,104.22283   L 127.94622,102.94403   L 127.30649,101.66522   L 126.98662,100.38641   L 126.34689,99.427306   L 125.70716,98.148498   L 125.06743,96.86969   L 124.4277,95.590882   L 123.78797,94.951478   L 123.14824,94.312075   L 122.18864,93.672671   L 121.54891,93.352969   L 120.90918,92.713565   L 120.26945,92.393863   L 119.94958,92.074161   L 119.62971,91.434757   L 119.30985,91.434757   L 119.30985,91.115055   L 118.98998,90.795353   L 118.98998,90.475651   L 118.98998,90.155949   L 118.98998,89.836247   L 118.98998,89.836247   L 118.67012,89.516545   L 118.35025,89.516545   L 118.35025,89.196843   L 118.35025,89.196843   L 118.35025,88.877141   L 118.03039,88.877141   L 118.03039,88.877141   L 117.71052,89.196843   L 117.39066,89.516545   L 116.75092,91.115055   L 117.07079,93.033267   L 117.39066,94.631776   L 118.35025,96.230286   L 119.30985,97.828796   L 120.58931,99.427306   L 121.54891,100.70611   L 122.5085,102.30462   L 123.14824,102.94403   L 123.4681,103.58343   L 123.78797,103.90313   L 124.10783,104.54254   L 124.74756,104.86224   L 125.06743,105.18194   L 125.38729,105.50164   L 126.02703,105.82134   L 126.02703,105.82134   L 126.02703,105.82134   L 126.02703,105.82134   L 126.34689,105.82134   L 126.34689,105.82134   L 126.66676,105.82134   L 126.66676,105.82134   L 126.66676,105.82134  z "
     style="fill:#8759ff;fill-rule:evenodd;fill-opacity:1;stroke:none;" />
  <path
     id="path87"
     d="  M 170.8082,96.230286   L 170.8082,96.230286   L 171.12807,96.230286   L 171.44793,96.230286   L 171.7678,96.230286   L 172.08766,95.910584   L 172.40753,95.910584   L 172.72739,95.910584   L 173.04726,95.910584   L 173.04726,95.910584   L 173.36713,95.590882   L 173.36713,95.590882   L 173.68699,95.590882   L 173.68699,95.590882   L 174.00686,95.27118   L 174.32672,95.27118   L 174.96645,95.27118   L 174.96645,94.951478   L 175.28632,94.631776   L 175.28632,93.992373   L 175.28632,93.352969   L 175.28632,93.033267   L 175.60618,92.393863   L 175.60618,91.754459   L 175.92605,91.434757   L 176.56578,91.434757   L 176.88565,91.434757   L 177.20551,91.434757   L 177.52538,91.434757   L 177.84524,91.434757   L 178.16511,91.434757   L 178.48497,91.434757   L 178.80484,91.434757   L 179.12471,91.434757   L 179.44457,91.434757   L 179.76444,91.434757   L 180.0843,91.434757   L 180.40417,91.115055   L 180.72403,91.115055   L 181.0439,90.795353   L 181.36376,90.795353   L 181.36376,87.278632   L 180.0843,85.999824   L 178.80484,84.401314   L 177.84524,82.802804   L 177.20551,81.204295   L 175.60618,77.687573   L 174.64659,73.85115   L 174.00686,70.014727   L 173.36713,66.178303   L 172.72739,62.022178   L 171.7678,58.185754   L 171.7678,58.185754   L 171.7678,57.866052   L 171.7678,57.866052   L 171.7678,57.546351   L 171.44793,57.226649   L 171.12807,57.226649   L 171.12807,57.226649   L 170.8082,56.906947   L 170.48834,57.226649   L 170.16847,57.226649   L 170.16847,57.226649   L 170.16847,57.226649   L 170.16847,57.226649   L 169.84861,57.226649   L 169.52874,57.226649   L 169.20887,57.546351   L 171.7678,82.483102   L 171.44793,82.802804   L 171.44793,83.122506   L 171.44793,83.122506   L 171.12807,83.122506   L 170.8082,83.442208   L 170.8082,83.442208   L 170.8082,83.76191   L 170.8082,84.401314   L 170.48834,84.721016   L 170.48834,84.721016   L 170.48834,85.040718   L 170.48834,85.36042   L 170.48834,85.680122   L 170.48834,85.999824   L 170.48834,86.319526   L 170.48834,86.639228   L 169.84861,86.95893   L 169.84861,86.95893   L 169.52874,86.95893   L 169.52874,87.278632   L 169.52874,87.278632   L 169.52874,87.278632   L 169.20887,86.95893   L 168.88901,86.639228   L 162.81156,61.063072   L 162.4917,61.063072   L 162.4917,60.74337   L 162.17183,60.74337   L 162.17183,60.74337   L 162.17183,60.423668   L 162.17183,60.423668   L 161.85197,60.74337   L 161.21224,61.063072   L 160.5725,64.899495   L 160.5725,69.375323   L 160.89237,73.85115   L 161.5321,78.326977   L 162.4917,82.802804   L 163.77116,86.95893   L 165.37049,91.115055   L 167.28968,94.951478   L 169.84861,96.549988   L 169.84861,96.549988   L 170.16847,96.549988   L 170.16847,96.549988   L 170.16847,96.230286   L 170.48834,96.230286   L 170.48834,96.230286   L 170.48834,96.230286   L 170.8082,96.230286  z "
     style="fill:#8759ff;fill-rule:evenodd;fill-opacity:1;stroke:none;" />
  <path
     id="path89"
     d="  M 156.41425,95.590882   L 159.61291,93.992373   L 159.93277,94.312075   L 160.25264,94.312075   L 160.5725,94.312075   L 161.21224,94.312075   L 161.5321,94.312075   L 162.17183,94.312075   L 162.4917,94.312075   L 163.13143,93.992373   L 163.13143,93.992373   L 163.13143,93.992373   L 163.13143,93.992373   L 163.45129,93.992373   L 163.45129,93.992373   L 163.45129,93.672671   L 163.77116,93.352969   L 163.77116,93.033267   L 156.41425,85.040718   L 151.93613,59.14486   L 151.93613,59.14486   L 151.93613,59.14486   L 151.61627,59.14486   L 151.61627,59.14486   L 151.2964,59.14486   L 151.2964,59.14486   L 150.97654,59.14486   L 150.65667,59.14486   L 151.93613,85.040718   L 149.69708,83.122506   L 147.45802,80.884593   L 145.53882,78.326977   L 143.9395,75.44966   L 142.66003,72.572342   L 141.06071,69.695025   L 139.46138,66.817707   L 137.86205,63.94039   L 136.90245,65.219197   L 136.58259,66.498005   L 136.90245,68.096515   L 137.22232,69.695025   L 138.18192,71.293534   L 138.82165,72.892044   L 139.46138,74.490554   L 139.78124,75.769362   L 141.38057,78.646679   L 143.29976,81.204295   L 144.89909,84.081612   L 146.81829,86.639228   L 148.73748,88.877141   L 150.97654,91.115055   L 153.2156,93.352969   L 155.77452,95.590882   L 155.77452,95.590882   L 156.09439,95.590882   L 156.09439,95.590882   L 156.09439,95.590882   L 156.09439,95.590882   L 156.41425,95.590882   L 156.41425,95.590882   L 156.41425,95.590882  z "
     style="fill:#8759ff;fill-rule:evenodd;fill-opacity:1;stroke:none;" />
  <path
     id="path91"
     d="  M 205.99341,91.434757   L 220.70723,89.516545   L 221.02709,89.196843   L 221.02709,89.196843   L 221.34696,88.877141   L 221.34696,88.877141   L 221.66682,88.877141   L 221.66682,88.557439   L 221.98669,88.557439   L 222.30655,88.237738   L 221.66682,85.040718   L 220.0675,84.401314   L 218.78803,84.081612   L 217.18871,84.401314   L 215.58938,84.721016   L 214.30992,85.36042   L 212.71059,85.999824   L 211.43113,86.95893   L 210.15166,87.918036   L 205.03382,88.877141   L 205.03382,89.196843   L 204.71395,89.516545   L 204.71395,89.836247   L 204.71395,90.155949   L 204.71395,90.475651   L 204.71395,90.795353   L 204.71395,91.115055   L 205.03382,91.434757   L 205.03382,91.434757   L 205.03382,91.434757   L 205.35368,91.434757   L 205.35368,91.434757   L 205.67355,91.434757   L 205.67355,91.434757   L 205.99341,91.434757   L 205.99341,91.434757  z "
     style="fill:#8759ff;fill-rule:evenodd;fill-opacity:1;stroke:none;" />
  <path
     id="path93"
     d="  M 62.053916,79.925487   L 65.252571,78.966381   L 64.292975,75.769362   L 61.414185,74.490554   L 58.215529,72.572342   L 55.656605,70.334428   L 52.777815,68.096515   L 50.218891,65.858601   L 47.340101,63.94039   L 45.740773,62.981284   L 44.141445,62.34188   L 42.222252,62.022178   L 40.622924,61.702476   L 40.303059,62.022178   L 39.983193,62.022178   L 39.663328,62.34188   L 39.663328,62.34188   L 39.343462,62.661582   L 39.023597,62.661582   L 39.023597,62.981284   L 38.703731,63.300986   L 39.983193,66.178303   L 41.582521,68.416217   L 43.82158,70.334428   L 46.060639,71.932938   L 48.619563,73.531448   L 51.178487,75.129958   L 53.737412,76.728467   L 56.296336,78.326977   L 56.936067,78.326977   L 57.575798,78.326977   L 58.215529,78.646679   L 58.855261,78.646679   L 59.494992,78.966381   L 60.134723,79.286083   L 60.774454,79.605785   L 61.414185,79.925487   L 61.414185,79.925487   L 61.414185,79.925487   L 61.73405,79.925487   L 61.73405,79.925487   L 61.73405,79.925487   L 61.73405,79.925487   L 62.053916,79.925487   L 62.053916,79.925487  z "
     style="fill:#8759ff;fill-rule:evenodd;fill-opacity:1;stroke:none;" />
  <path
     id="path95"
     d="  M 364.96659,76.408765   L 368.48511,76.089064   L 369.12484,75.769362   L 369.44471,75.129958   L 369.76457,74.490554   L 369.76457,73.85115   L 369.76457,73.211746   L 369.76457,72.572342   L 369.44471,71.613236   L 369.44471,70.973832   L 360.16861,65.219197   L 358.24941,63.620688   L 356.65008,62.34188   L 354.41103,61.382774   L 352.49183,60.423668   L 350.25277,59.784264   L 348.01371,59.784264   L 345.45479,60.103966   L 342.89587,61.063072   L 340.33694,60.74337   L 338.09788,60.74337   L 335.85882,60.74337   L 333.93963,60.74337   L 331.70057,60.74337   L 329.78138,60.74337   L 327.54232,61.063072   L 325.30326,61.063072   L 321.78474,61.382774   L 318.26622,62.022178   L 314.7477,62.981284   L 311.22918,63.620688   L 308.03052,64.579793   L 304.512,65.219197   L 301.31334,66.178303   L 298.11469,66.817707   L 298.11469,66.817707   L 297.79482,67.137409   L 297.79482,67.457111   L 297.47496,67.776813   L 297.47496,68.096515   L 297.15509,68.416217   L 297.15509,68.735919   L 297.15509,68.735919   L 303.87227,68.096515   L 310.58945,67.137409   L 317.30662,66.178303   L 324.34366,65.219197   L 327.54232,65.219197   L 331.06084,65.219197   L 334.2595,65.219197   L 337.77802,65.538899   L 340.97667,66.178303   L 344.17533,67.137409   L 347.37398,68.096515   L 350.25277,69.695025   L 351.53224,71.293534   L 353.13156,72.572342   L 354.73089,73.85115   L 356.33022,74.810256   L 358.24941,75.44966   L 360.48847,76.089064   L 362.72753,76.408765   L 364.96659,76.408765  z "
     style="fill:#8759ff;fill-rule:evenodd;fill-opacity:1;stroke:none;" />
  <path
     id="path97"
     d="  M 265.4884,73.85115   L 265.80827,74.170852   L 266.12813,74.170852   L 266.448,74.170852   L 266.76787,74.170852   L 267.08773,73.85115   L 267.08773,73.85115   L 267.4076,73.531448   L 267.4076,73.211746   L 268.36719,69.375323   L 268.68706,69.055621   L 269.32679,68.735919   L 269.64666,68.735919   L 270.60625,68.416217   L 271.24598,68.416217   L 271.88571,68.416217   L 272.52545,68.416217   L 273.16518,68.416217   L 273.80491,68.735919   L 274.44464,69.055621   L 275.08437,69.055621   L 275.7241,69.055621   L 276.36383,69.055621   L 277.32343,69.055621   L 277.96316,68.735919   L 278.92276,68.735919   L 279.56249,68.096515   L 280.20222,67.776813   L 280.52208,67.137409   L 280.84195,66.178303   L 281.16182,65.538899   L 281.48168,64.579793   L 281.48168,63.620688   L 281.16182,62.661582   L 280.84195,61.382774   L 280.20222,60.74337   L 279.56249,59.784264   L 278.92276,59.14486   L 277.96316,58.505456   L 277.64329,57.866052   L 277.00356,56.906947   L 277.00356,55.947841   L 280.20222,29.092877   L 276.6837,28.133771   L 270.60625,59.784264   L 270.60625,59.784264   L 270.28639,59.784264   L 269.96652,59.784264   L 269.96652,59.784264   L 269.64666,59.464562   L 269.64666,59.464562   L 269.32679,59.464562   L 269.32679,59.14486   L 270.92612,28.133771   L 270.92612,28.133771   L 270.92612,27.814069   L 270.92612,27.814069   L 270.60625,27.494367   L 270.60625,27.494367   L 270.28639,27.174666   L 269.96652,26.854964   L 269.64666,26.854964   L 269.64666,26.854964   L 269.32679,26.854964   L 269.32679,26.854964   L 269.00692,27.174666   L 268.68706,27.174666   L 268.68706,27.494367   L 268.36719,27.814069   L 268.36719,28.133771   L 265.4884,32.289897   L 264.84867,23.977646   L 263.56921,27.814069   L 262.60961,32.289897   L 261.96988,36.765724   L 261.65002,41.880955   L 261.33015,46.996186   L 261.01029,52.111417   L 261.01029,57.226649   L 261.01029,62.34188   L 261.33015,63.94039   L 261.33015,65.538899   L 261.65002,67.137409   L 261.96988,68.735919   L 262.28975,70.334428   L 262.92948,71.613236   L 263.88908,72.892044   L 265.16854,73.85115   L 265.16854,73.85115   L 265.4884,73.85115   L 265.4884,73.85115   L 265.4884,73.85115   L 265.4884,73.85115   L 265.4884,73.85115   L 265.4884,73.85115   L 265.4884,73.85115  z "
     style="fill:#8759ff;fill-rule:evenodd;fill-opacity:1;stroke:none;" />
  <path
     id="path99"
     d="  M 362.72753,58.185754   L 362.72753,58.185754   L 362.72753,58.185754   L 362.72753,58.185754   L 363.04739,58.185754   L 363.04739,58.185754   L 363.04739,58.185754   L 363.04739,58.185754   L 363.04739,58.185754   L 362.72753,55.308437   L 362.72753,52.431119   L 363.04739,49.2341   L 363.68713,45.717378   L 364.32686,42.520359   L 365.28645,39.643041   L 366.56592,36.446022   L 368.16524,33.568704   L 368.16524,33.249003   L 368.16524,32.929301   L 368.16524,32.609599   L 368.16524,32.289897   L 368.16524,32.289897   L 368.16524,31.970195   L 368.16524,31.970195   L 368.16524,31.970195   L 368.16524,31.970195   L 367.84538,31.650493   L 367.84538,31.650493   L 367.52551,31.650493   L 367.52551,31.330791   L 367.20565,31.330791   L 366.88578,31.011089   L 366.56592,31.011089   L 360.48847,39.643041   L 360.16861,39.643041   L 360.16861,39.643041   L 359.84874,39.962743   L 359.84874,39.962743   L 359.84874,39.962743   L 359.84874,39.962743   L 359.52887,39.962743   L 359.20901,39.643041   L 364.00699,19.182117   L 363.68713,18.862415   L 363.36726,18.862415   L 363.04739,18.862415   L 362.72753,18.862415   L 362.40766,19.182117   L 362.40766,19.182117   L 362.0878,19.182117   L 362.0878,19.501819   L 360.16861,22.698838   L 358.56928,26.21556   L 356.96995,29.732281   L 355.69049,33.568704   L 354.73089,37.405128   L 354.09116,41.241551   L 354.09116,42.840061   L 354.41103,44.758273   L 354.73089,46.676484   L 355.05076,48.274994   L 356.01035,49.873504   L 356.65008,51.152312   L 357.28982,52.750821   L 357.92955,54.029629   L 358.56928,55.308437   L 359.20901,56.587245   L 360.48847,57.546351   L 362.0878,58.185754   L 362.0878,58.185754   L 362.0878,58.185754   L 362.0878,58.185754   L 362.40766,58.185754   L 362.40766,58.185754   L 362.72753,58.185754   L 362.72753,58.185754   L 362.72753,58.185754  z "
     style="fill:#8759ff;fill-rule:evenodd;fill-opacity:1;stroke:none;" />
  <path
     id="path101"
     d="  M 288.19886,55.947841   L 288.51872,55.947841   L 288.83859,55.947841   L 288.83859,55.947841   L 289.15845,55.947841   L 289.47832,55.947841   L 289.79818,55.947841   L 290.11805,55.628139   L 290.43792,55.628139   L 291.71738,40.282445   L 292.03724,39.962743   L 292.35711,39.32334   L 292.67697,39.003638   L 293.31671,38.683936   L 293.63657,38.364234   L 293.95644,38.044532   L 294.2763,37.405128   L 294.59617,36.765724   L 294.2763,36.446022   L 294.2763,36.12632   L 293.63657,36.12632   L 293.31671,36.12632   L 292.67697,36.12632   L 292.35711,36.12632   L 291.71738,36.12632   L 291.07765,36.446022   L 284.68034,51.791715   L 284.68034,52.431119   L 285.0002,53.070523   L 285.0002,53.709927   L 285.32007,54.029629   L 285.9598,54.669033   L 286.27966,54.988735   L 286.91939,55.628139   L 287.55913,55.947841   L 287.55913,55.947841   L 287.55913,55.947841   L 287.55913,55.947841   L 287.87899,55.947841   L 287.87899,55.947841   L 288.19886,55.947841   L 288.19886,55.947841   L 288.19886,55.947841  z "
     style="fill:#8759ff;fill-rule:evenodd;fill-opacity:1;stroke:none;" />
  <path
     id="path103"
     d="  M 374.88242,55.947841   L 375.20229,55.947841   L 375.52215,55.628139   L 375.84202,55.628139   L 376.16188,55.308437   L 376.48175,55.308437   L 376.80161,54.988735   L 376.80161,54.669033   L 377.12148,54.349331   L 376.80161,52.111417   L 376.48175,49.873504   L 376.48175,47.315888   L 377.12148,45.077975   L 377.44134,43.159763   L 378.40094,40.921849   L 379.36054,39.003638   L 380.64,36.765724   L 380.64,36.765724   L 380.64,36.446022   L 380.64,36.446022   L 380.32013,36.446022   L 380.32013,36.446022   L 380.32013,36.446022   L 380.00027,36.12632   L 380.00027,35.806618   L 379.36054,35.806618   L 378.72081,36.12632   L 378.08108,36.12632   L 377.44134,36.446022   L 376.80161,36.446022   L 376.16188,37.085426   L 375.84202,37.405128   L 375.20229,37.72483   L 374.24269,39.643041   L 373.60296,41.561253   L 372.64336,43.479465   L 371.68376,45.397677   L 371.3639,47.315888   L 371.3639,49.553802   L 371.68376,51.472014   L 372.64336,53.709927   L 372.96323,54.349331   L 373.28309,54.669033   L 373.28309,54.669033   L 373.60296,54.988735   L 373.60296,54.988735   L 373.92282,54.988735   L 373.92282,55.308437   L 374.24269,55.628139   L 374.24269,55.628139   L 374.24269,55.628139   L 374.24269,55.628139   L 374.56255,55.947841   L 374.56255,55.947841   L 374.56255,55.947841   L 374.56255,55.947841   L 374.88242,55.947841  z "
     style="fill:#8759ff;fill-rule:evenodd;fill-opacity:1;stroke:none;" />
  <path
     id="path105"
     d="  M 298.75442,35.486916   L 298.75442,35.486916   L 298.75442,35.486916   L 299.07429,35.167214   L 299.39415,35.167214   L 299.39415,35.167214   L 299.71402,35.167214   L 299.71402,35.167214   L 299.71402,35.167214   L 302.27294,2.5576156   L 301.95308,2.2379136   L 301.95308,1.9182117   L 301.63321,1.2788078   L 301.63321,0.95910584   L 301.31334,0.95910584   L 300.99348,0.95910584   L 300.67361,0.95910584   L 300.35375,1.2788078   L 300.03388,5.4349331   L 299.07429,9.5910584   L 298.11469,14.066886   L 297.15509,18.223011   L 296.1955,22.698838   L 295.87563,26.854964   L 296.1955,29.092877   L 296.51536,31.011089   L 296.83523,33.249003   L 297.79482,35.167214   L 297.79482,35.167214   L 298.11469,35.167214   L 298.11469,35.167214   L 298.11469,35.167214   L 298.43455,35.167214   L 298.43455,35.167214   L 298.43455,35.167214   L 298.75442,35.486916  z "
     style="fill:#8759ff;fill-rule:evenodd;fill-opacity:1;stroke:none;" />
</svg>
