<?xml version="1.0" encoding="UTF-8" standalone="no"?>
<svg
   xmlns:dc="http://purl.org/dc/elements/1.1/"
   xmlns:cc="http://creativecommons.org/ns#"
   xmlns:rdf="http://www.w3.org/1999/02/22-rdf-syntax-ns#"
   xmlns:svg="http://www.w3.org/2000/svg"
   xmlns="http://www.w3.org/2000/svg"
   id="svg115"
   height="60.121799mm"
   width="58.115199mm"
   version="1.0">
  <metadata
     id="metadata119">
    <rdf:RDF>
      <cc:Work
         rdf:about="">
        <dc:format>image/svg+xml</dc:format>
        <dc:type
           rdf:resource="http://purl.org/dc/dcmitype/StillImage" />
        <dc:title></dc:title>
      </cc:Work>
    </rdf:RDF>
  </metadata>
  <defs
     id="defs3">
    <pattern
       y="0"
       x="0"
       height="6"
       width="6"
       patternUnits="userSpaceOnUse"
       id="WMFhbasepattern" />
  </defs>
  <path
     id="path5"
     d="  M 51.52751,196.74456   L 34.565038,194.50519   L 7.6811195,0   L 16.642426,2.239369   L 40.005831,7.9977465   L 72.970636,16.315403   L 111.05619,25.912699   L 148.82169,35.509994   L 181.7865,43.827651   L 205.1499,49.586028   L 214.11121,51.825397   L 169.94477,196.74456   L 51.52751,196.74456  z "
     style="fill:#9ee8ff;fill-rule:evenodd;fill-opacity:1;stroke:none;" />
  <path
     id="path7"
     d="  M 40.965971,227.136   L 43.526344,226.49618   L 46.086717,226.17627   L 48.64709,226.17627   L 51.207464,225.85636   L 53.767837,225.53645   L 56.32821,224.89663   L 58.888583,224.25681   L 61.448956,223.29708   L 61.448956,223.29708   L 61.448956,223.29708   L 61.448956,223.29708   L 61.448956,222.97717   L 61.769003,222.97717   L 61.769003,222.97717   L 61.769003,222.65726   L 61.769003,222.65726   L 43.846391,220.7378   L 42.886251,219.13825   L 42.246157,217.5387   L 41.606064,215.93915   L 41.286017,214.0197   L 40.645924,212.10024   L 40.325878,210.50069   L 39.685784,208.58123   L 39.365738,206.66177   L 39.045691,206.66177   L 39.045691,206.66177   L 39.045691,206.34186   L 38.725644,206.34186   L 38.725644,206.34186   L 38.405598,206.34186   L 38.085551,206.34186   L 38.085551,206.34186   L 39.045691,222.97717   L 40.325878,224.89663   L 40.325878,227.136   L 40.645924,227.136   L 40.645924,227.136   L 40.645924,227.136   L 40.645924,227.136   L 40.645924,227.136   L 40.645924,227.136   L 40.965971,227.136   L 40.965971,227.136  z "
     style="fill:#000000;fill-rule:evenodd;fill-opacity:1;stroke:none;" />
  <path
     id="path9"
     d="  M 93.453621,221.69753   L 134.73964,220.41789   L 144.34104,213.05997   L 144.34104,206.34186   L 144.66108,206.34186   L 144.66108,206.34186   L 144.98113,206.02195   L 144.98113,206.02195   L 145.30118,206.02195   L 145.30118,205.70204   L 145.62122,205.70204   L 145.94127,205.70204   L 146.26132,206.02195   L 146.26132,206.34186   L 146.26132,206.98168   L 146.26132,207.30159   L 145.94127,207.94141   L 145.94127,208.26132   L 145.94127,208.90114   L 145.94127,209.22105   L 154.26248,205.70204   L 154.26248,205.70204   L 154.58253,206.02195   L 154.58253,206.02195   L 154.58253,206.02195   L 154.58253,206.34186   L 154.58253,206.34186   L 154.58253,206.66177   L 154.58253,206.66177   L 154.58253,206.66177   L 154.90258,206.66177   L 154.90258,206.34186   L 154.90258,206.34186   L 154.90258,206.02195   L 154.90258,206.02195   L 154.90258,205.70204   L 154.90258,205.70204   L 154.90258,205.38213   L 154.90258,205.38213   L 154.90258,205.06222   L 155.22262,205.06222   L 155.22262,205.06222   L 155.54267,205.06222   L 155.86272,204.74231   L 155.86272,204.74231   L 156.50281,201.86312   L 156.82286,198.66402   L 157.1429,195.46492   L 157.1429,192.26583   L 157.46295,189.06673   L 157.783,185.86763   L 158.10304,182.66853   L 158.74314,179.46943   L 160.02332,174.03096   L 160.98346,168.5925   L 162.26365,162.83412   L 163.86388,157.39565   L 165.46412,151.95718   L 167.06435,146.51872   L 168.98463,141.08025   L 170.90491,135.64178   L 171.545,133.0825   L 172.50514,130.84313   L 173.46528,128.60376   L 174.74547,126.36439   L 175.70561,124.44494   L 176.66575,122.20557   L 177.30584,119.9662   L 177.94594,117.40692   L 175.70561,116.12728   L 174.10538,114.52773   L 172.50514,112.60827   L 170.90491,110.68881   L 168.66458,106.21007   L 166.42426,101.41143   L 164.82402,95.972958   L 163.22379,90.8544   L 161.30351,85.415932   L 159.38323,80.617285   L 157.46295,75.818637   L 155.22262,71.339899   L 152.66225,67.18107   L 149.46178,63.022242   L 145.94127,59.183324   L 142.10071,55.984225   L 138.26015,52.785127   L 134.09955,50.225848   L 130.89908,48.626299   L 127.69861,47.346659   L 124.49815,46.06702   L 121.29768,45.10729   L 118.09721,44.46747   L 114.89675,43.827651   L 111.37623,43.507741   L 108.17577,43.187831   L 104.65525,43.187831   L 101.13474,43.507741   L 97.934274,43.507741   L 94.413761,44.147561   L 90.893248,44.78738   L 87.692781,45.4272   L 84.492315,46.38693   L 80.971802,47.666569   L 76.491149,49.905938   L 72.330542,52.465217   L 68.169936,55.024496   L 64.009329,57.903685   L 60.16877,61.102783   L 56.648257,64.621792   L 53.44779,68.46071   L 50.56737,72.619538   L 49.287184,73.899177   L 48.327044,75.178817   L 47.366904,76.778366   L 46.72681,78.377915   L 46.086717,79.977465   L 45.446624,81.577014   L 45.126577,83.176563   L 44.486484,84.776113   L 42.566204,89.89467   L 40.965971,95.333138   L 39.365738,100.77161   L 38.085551,106.21007   L 36.165271,111.32863   L 34.244991,116.44719   L 33.284851,118.68656   L 32.004665,120.92593   L 30.724478,123.1653   L 29.124245,125.08475   L 28.484152,125.72457   L 28.164105,126.36439   L 27.844058,127.00421   L 27.844058,127.64403   L 27.524012,128.28385   L 27.524012,128.92367   L 27.203965,129.8834   L 27.203965,130.52322   L 28.804198,133.40241   L 29.764338,136.60151   L 31.044525,139.80061   L 32.004665,142.99971   L 32.964805,146.51872   L 33.924945,149.71781   L 34.565038,152.91691   L 35.845224,156.11601   L 36.805364,159.31511   L 38.085551,165.3934   L 39.685784,171.47168   L 40.645924,177.23006   L 41.926111,183.30835   L 42.886251,189.06673   L 43.526344,194.8251   L 44.486484,200.90339   L 45.126577,206.98168   L 45.126577,208.26132   L 45.446624,209.54096   L 45.446624,210.8206   L 45.766671,212.10024   L 45.766671,213.37988   L 46.086717,214.65952   L 46.72681,215.93915   L 47.366904,217.21879   L 49.60723,218.17852   L 53.127743,218.49843   L 56.648257,218.49843   L 60.16877,218.49843   L 63.689283,218.17852   L 67.529843,218.17852   L 71.050356,218.17852   L 74.570869,218.49843   L 78.091382,219.45816   L 79.051522,218.49843   L 79.691615,217.5387   L 80.331708,216.25906   L 80.651755,214.65952   L 80.651755,213.37988   L 80.971802,211.78033   L 81.291848,210.50069   L 81.611895,208.90114   L 94.413761,209.86087   L 92.173434,221.05771   L 93.453621,221.69753  z "
     style="fill:#000000;fill-rule:evenodd;fill-opacity:1;stroke:none;" />
  <path
     id="path11"
     d="  M 93.453621,221.69753   L 135.37973,221.37762   L 147.5415,219.13825   L 150.42192,217.21879   L 150.74197,217.21879   L 150.74197,217.21879   L 151.06202,217.21879   L 151.38206,217.21879   L 151.38206,217.21879   L 151.70211,217.21879   L 152.02216,217.21879   L 152.3422,217.21879   L 152.3422,217.21879   L 152.3422,217.21879   L 152.02216,217.5387   L 152.02216,217.5387   L 151.70211,217.5387   L 151.38206,217.85861   L 151.06202,217.85861   L 151.06202,218.17852   L 160.66342,216.89888   L 160.66342,216.89888   L 160.66342,217.21879   L 160.66342,217.21879   L 160.66342,217.21879   L 160.66342,217.21879   L 160.66342,217.21879   L 160.66342,217.21879   L 160.66342,217.21879   L 160.66342,217.21879   L 160.66342,217.21879   L 160.98346,217.21879   L 160.98346,217.21879   L 160.98346,217.21879   L 160.98346,217.21879   L 161.30351,217.21879   L 161.30351,216.89888   L 161.30351,216.89888   L 161.62356,216.89888   L 161.62356,216.89888   L 161.9436,216.89888   L 161.9436,216.89888   L 162.26365,216.89888   L 162.5837,216.89888   L 162.5837,216.89888   L 164.50398,215.93915   L 166.10421,214.97943   L 167.70444,214.0197   L 168.98463,213.05997   L 170.58486,212.42015   L 172.1851,211.46042   L 173.78533,210.50069   L 175.70561,209.54096   L 178.90608,207.94141   L 182.42659,206.34186   L 185.9471,204.74231   L 189.46762,203.14276   L 193.30817,201.54321   L 197.14873,199.94366   L 201.30934,198.34411   L 205.1499,196.74456   L 207.07018,196.10474   L 208.99046,195.46492   L 210.91074,194.8251   L 212.83102,194.18528   L 214.43125,193.54546   L 216.35153,192.90565   L 217.95177,192.26583   L 219.552,191.62601   L 217.95177,191.3061   L 216.99163,190.66628   L 216.03149,190.34637   L 215.39139,189.70655   L 215.07135,189.06673   L 214.7513,188.42691   L 214.7513,187.78709   L 214.7513,186.82736   L 215.07135,185.54772   L 215.39139,183.94817   L 216.03149,182.34862   L 216.03149,181.06898   L 216.03149,179.78934   L 215.39139,178.5097   L 214.43125,177.23006   L 212.83102,175.95042   L 210.91074,174.99069   L 208.67041,174.03096   L 205.78999,173.07123   L 202.58953,172.1115   L 197.46878,171.47168   L 192.02799,170.83186   L 185.9471,170.51195   L 179.22612,170.19205   L 172.50514,170.19205   L 165.46412,170.51195   L 158.10304,170.83186   L 150.74197,171.47168   L 145.30118,172.1115   L 139.86038,172.75132   L 134.73964,173.71105   L 129.61889,174.35087   L 124.49815,175.3106   L 119.3774,176.27033   L 114.5767,177.54997   L 110.09605,178.82961   L 108.49581,179.14952   L 106.89558,179.46943   L 105.29535,179.78934   L 104.01516,180.42916   L 102.73497,180.74907   L 101.77483,181.38889   L 100.49465,181.7088   L 99.214461,182.02871   L 95.373901,183.62826   L 91.533341,185.22781   L 88.012828,186.82736   L 84.172268,188.42691   L 80.331708,190.02646   L 76.491149,191.3061   L 72.330542,192.58574   L 67.529843,193.86537   L 66.889749,194.18528   L 66.249656,194.18528   L 65.609563,194.50519   L 65.289516,194.50519   L 64.969469,194.8251   L 64.329376,194.8251   L 64.009329,195.14501   L 63.689283,195.46492   L 64.009329,196.10474   L 63.689283,197.06447   L 63.689283,198.0242   L 63.369236,198.98393   L 63.04919,199.94366   L 62.729143,200.90339   L 62.08905,201.86312   L 61.769003,202.82285   L 61.448956,203.78258   L 60.808863,205.38213   L 59.848723,207.30159   L 58.568536,208.90114   L 57.28835,210.50069   L 56.008163,212.10024   L 54.40793,214.0197   L 52.807697,215.61925   L 50.887417,217.21879   L 50.56737,217.85861   L 50.247324,218.17852   L 49.927277,218.49843   L 49.287184,218.81834   L 48.967137,219.13825   L 48.967137,219.77807   L 48.967137,220.09798   L 49.287184,220.41789   L 50.887417,220.7378   L 54.40793,220.7378   L 57.928443,220.7378   L 61.448956,220.7378   L 65.289516,220.7378   L 68.810029,220.7378   L 72.330542,220.7378   L 75.851055,220.7378   L 79.051522,221.05771   L 80.331708,220.7378   L 81.611895,220.41789   L 82.572035,220.09798   L 83.212128,219.77807   L 84.172268,219.13825   L 84.812362,218.81834   L 85.772501,218.49843   L 86.732641,217.85861   L 99.214461,218.17852   L 92.173434,221.37762   L 93.453621,221.69753  z "
     style="fill:#000000;fill-rule:evenodd;fill-opacity:1;stroke:none;" />
  <path
     id="path13"
     d="  M 33.924945,221.05771   L 33.924945,221.05771   L 33.924945,221.05771   L 33.924945,221.05771   L 33.924945,221.05771   L 33.924945,221.05771   L 33.924945,221.05771   L 34.244991,221.05771   L 34.244991,221.05771   L 33.924945,201.54321   L 33.604898,201.2233   L 32.964805,201.2233   L 32.644758,201.2233   L 32.324711,201.2233   L 31.684618,201.54321   L 31.364571,201.54321   L 31.044525,201.54321   L 30.404431,201.54321   L 30.084385,201.86312   L 29.764338,201.86312   L 29.764338,202.50294   L 29.764338,202.82285   L 29.764338,203.14276   L 29.764338,203.78258   L 29.764338,204.10249   L 29.764338,204.4224   L 30.404431,206.66177   L 31.044525,208.90114   L 31.364571,210.8206   L 31.684618,213.05997   L 32.004665,214.97943   L 32.324711,216.89888   L 32.964805,219.13825   L 33.284851,221.05771   L 33.284851,221.05771   L 33.604898,221.05771   L 33.604898,221.05771   L 33.604898,221.05771   L 33.604898,221.05771   L 33.604898,221.05771   L 33.924945,221.05771   L 33.924945,221.05771  z "
     style="fill:#000000;fill-rule:evenodd;fill-opacity:1;stroke:none;" />
  <path
     id="path15"
     d="  M 99.854554,216.25906   L 130.89908,215.93915   L 136.65992,212.10024   L 132.17927,213.37988   L 127.69861,214.0197   L 123.21796,214.33961   L 118.73731,214.65952   L 113.93661,214.65952   L 109.45595,214.33961   L 104.65525,214.33961   L 100.1746,214.33961   L 99.854554,214.33961   L 99.854554,214.65952   L 99.534507,214.97943   L 99.534507,214.97943   L 99.534507,215.29934   L 99.534507,215.61925   L 99.534507,215.93915   L 99.534507,216.25906   L 99.534507,216.25906   L 99.534507,216.25906   L 99.534507,216.25906   L 99.534507,216.25906   L 99.534507,216.25906   L 99.854554,216.25906   L 99.854554,216.25906   L 99.854554,216.25906  z "
     style="fill:#e84200;fill-rule:evenodd;fill-opacity:1;stroke:none;" />
  <path
     id="path17"
     d="  M 150.74197,214.33961   L 164.18393,207.6215   L 163.86388,205.70204   L 163.22379,204.10249   L 162.90374,202.18303   L 162.26365,199.94366   L 161.9436,198.0242   L 161.62356,195.78483   L 161.62356,193.86537   L 161.9436,191.94592   L 161.9436,191.62601   L 161.9436,191.62601   L 161.62356,191.3061   L 161.62356,191.3061   L 161.62356,191.3061   L 161.62356,191.3061   L 161.30351,191.3061   L 161.30351,191.3061   L 160.98346,194.8251   L 160.66342,198.34411   L 160.34337,201.54321   L 159.38323,204.4224   L 157.783,207.30159   L 155.86272,209.86087   L 153.62239,212.10024   L 150.42192,214.33961   L 150.42192,214.33961   L 150.42192,214.33961   L 150.42192,214.33961   L 150.42192,214.33961   L 150.74197,214.33961   L 150.74197,214.33961   L 150.74197,214.33961   L 150.74197,214.33961  z "
     style="fill:#000000;fill-rule:evenodd;fill-opacity:1;stroke:none;" />
  <path
     id="path19"
     d="  M 74.570869,213.05997   L 75.531009,211.14051   L 50.247324,208.90114   L 50.247324,211.78033   L 53.127743,212.42015   L 56.008163,212.42015   L 59.20863,212.42015   L 62.409096,212.42015   L 65.289516,212.10024   L 68.489983,212.42015   L 71.690449,212.42015   L 74.570869,213.05997  z "
     style="fill:#e84200;fill-rule:evenodd;fill-opacity:1;stroke:none;" />
  <path
     id="path21"
     d="  M 101.45479,210.18078   L 127.37857,209.22105   L 127.69861,208.58123   L 127.69861,207.6215   L 128.01866,206.66177   L 128.01866,205.70204   L 128.01866,204.4224   L 128.33871,203.46267   L 128.65875,202.50294   L 128.65875,201.54321   L 129.93894,195.78483   L 130.89908,190.02646   L 132.17927,184.26808   L 133.45945,178.5097   L 134.73964,172.75132   L 136.01983,167.31286   L 137.30001,161.55448   L 138.5802,155.7961   L 139.54034,152.597   L 140.50048,149.71781   L 141.46062,146.51872   L 142.42076,143.31962   L 143.06085,140.12052   L 143.70094,136.92142   L 144.34104,133.72232   L 144.66108,130.52322   L 142.7408,129.24358   L 140.82052,127.96394   L 138.90024,126.04448   L 137.62006,123.80512   L 136.33987,121.56575   L 135.37973,119.32638   L 134.41959,116.7671   L 133.7795,113.88791   L 132.17927,108.44944   L 131.21913,102.69106   L 130.25899,96.932687   L 128.9788,91.17431   L 128.01866,85.415932   L 126.41843,79.977465   L 125.45829,77.418186   L 124.49815,74.858907   L 123.21796,72.299628   L 121.93777,70.060259   L 119.69745,67.18107   L 117.77717,64.621792   L 115.21679,62.382423   L 112.65642,60.143054   L 109.776,58.223594   L 106.89558,56.304135   L 103.69511,55.024496   L 100.1746,53.744856   L 97.294181,53.424946   L 94.093714,53.105037   L 91.533341,53.105037   L 88.652921,53.424946   L 85.772501,54.064766   L 83.212128,54.384676   L 80.651755,55.344406   L 78.091382,56.304135   L 73.290682,58.543504   L 68.810029,61.422693   L 64.649423,64.621792   L 60.808863,68.1408   L 57.608397,72.299628   L 54.40793,76.458456   L 51.847557,80.937194   L 49.60723,85.735842   L 47.68695,90.8544   L 45.766671,95.972958   L 44.486484,101.09152   L 42.886251,106.52998   L 42.246157,109.72908   L 40.965971,112.92818   L 40.005831,116.12728   L 38.725644,119.00647   L 37.445458,121.88566   L 35.845224,124.76485   L 34.244991,127.32412   L 32.324711,129.56349   L 33.924945,133.72232   L 35.205131,137.56124   L 36.485318,141.72007   L 37.765504,145.8789   L 39.045691,150.03772   L 40.325878,154.19655   L 41.606064,158.67529   L 42.566204,162.83412   L 43.846391,167.95268   L 45.126577,173.07123   L 46.086717,178.5097   L 47.046857,183.62826   L 47.68695,188.74682   L 48.64709,193.86537   L 49.287184,198.98393   L 49.927277,204.10249   L 67.849889,205.70204   L 75.531009,206.02195   L 75.851055,205.70204   L 76.171102,205.06222   L 76.491149,204.74231   L 76.811195,204.4224   L 77.131242,204.10249   L 77.451289,204.10249   L 78.091382,203.78258   L 78.731475,203.78258   L 81.291848,204.4224   L 84.172268,204.4224   L 87.372735,204.74231   L 90.253155,204.74231   L 93.133574,204.74231   L 95.693948,205.38213   L 98.254321,206.02195   L 100.81469,206.98168   L 101.13474,207.6215   L 101.13474,207.94141   L 101.13474,208.26132   L 101.13474,208.58123   L 100.81469,208.90114   L 100.81469,209.22105   L 101.13474,209.54096   L 101.13474,209.86087   L 101.13474,209.86087   L 101.13474,209.86087   L 101.13474,209.86087   L 101.45479,209.86087   L 101.45479,209.86087   L 101.45479,209.86087   L 101.45479,209.86087   L 101.45479,210.18078  z "
     style="fill:#b00000;fill-rule:evenodd;fill-opacity:1;stroke:none;" />
  <path
     id="path23"
     d="  M 132.49931,207.30159   L 132.81936,207.30159   L 132.81936,206.98168   L 132.81936,206.66177   L 132.81936,206.34186   L 132.81936,206.02195   L 132.81936,205.70204   L 132.81936,205.38213   L 132.81936,205.38213   L 132.49931,207.30159  z "
     style="fill:#ffffff;fill-rule:evenodd;fill-opacity:1;stroke:none;" />
  <path
     id="path25"
     d="  M 137.62006,206.34186   L 137.9401,206.02195   L 137.9401,206.02195   L 137.9401,206.02195   L 138.26015,206.02195   L 138.26015,206.02195   L 138.5802,206.02195   L 138.5802,206.02195   L 138.90024,205.70204   L 139.54034,203.46267   L 146.90141,197.70429   L 146.90141,194.50519   L 147.22146,190.98619   L 147.5415,187.46718   L 147.86155,183.94817   L 148.50164,180.74907   L 149.14174,177.23006   L 149.78183,173.71105   L 150.42192,170.19205   L 151.70211,164.75358   L 152.9823,159.31511   L 154.58253,153.55673   L 155.86272,148.11826   L 157.783,142.99971   L 159.38323,137.56124   L 160.98346,132.12277   L 162.90374,126.6843   L 163.22379,125.40466   L 163.22379,124.44494   L 163.22379,123.48521   L 162.90374,122.20557   L 162.5837,121.24584   L 162.26365,120.28611   L 161.9436,119.32638   L 161.30351,118.36665   L 160.02332,115.80737   L 158.42309,113.24809   L 157.1429,110.3689   L 155.86272,107.48971   L 154.58253,104.61052   L 153.30234,101.41143   L 152.3422,98.532237   L 151.06202,95.333138   L 149.46178,90.21458   L 147.5415,85.096023   L 145.62122,79.977465   L 143.70094,75.178817   L 141.46062,70.700079   L 138.5802,66.541251   L 135.69978,62.382423   L 132.17927,58.543504   L 131.21913,57.903685   L 130.57903,57.263865   L 129.93894,56.624045   L 128.9788,56.304135   L 128.33871,55.664315   L 127.37857,55.344406   L 126.73847,55.024496   L 125.77833,54.704586   L 127.37857,56.624045   L 128.9788,58.543504   L 130.25899,60.462963   L 131.53917,63.022242   L 133.45945,67.82089   L 135.37973,72.939448   L 136.97997,78.377915   L 138.5802,83.816383   L 140.18043,88.934941   L 141.46062,94.373408   L 142.7408,98.852146   L 144.02099,103.33088   L 145.62122,107.48971   L 147.22146,111.32863   L 149.14174,115.16755   L 151.38206,118.68656   L 153.94244,121.88566   L 156.82286,124.76485   L 157.1429,124.76485   L 157.46295,125.08475   L 157.783,125.08475   L 158.42309,125.40466   L 158.74314,125.40466   L 159.06318,125.72457   L 159.38323,125.72457   L 159.70328,126.04448   L 158.42309,131.16304   L 157.1429,136.2816   L 155.54267,141.40016   L 153.62239,146.83863   L 152.02216,152.27709   L 150.42192,157.71556   L 148.82169,163.15403   L 147.22146,168.91241   L 146.26132,171.47168   L 145.62122,174.03096   L 144.66108,176.59024   L 143.70094,179.14952   L 143.06085,181.7088   L 142.42076,184.26808   L 141.78066,187.14727   L 141.14057,189.70655   L 140.50048,191.62601   L 140.18043,193.86537   L 139.54034,196.10474   L 139.22029,198.0242   L 138.5802,200.26357   L 138.26015,202.18303   L 137.9401,204.4224   L 137.62006,206.34186   L 137.62006,206.34186   L 137.62006,206.34186   L 137.62006,206.34186   L 137.62006,206.34186   L 137.62006,206.34186   L 137.62006,206.34186   L 137.62006,206.34186   L 137.62006,206.34186  z "
     style="fill:#b00000;fill-rule:evenodd;fill-opacity:1;stroke:none;" />
  <path
     id="path27"
     d="  M 51.207464,200.26357   L 51.52751,200.26357   L 51.52751,200.26357   L 51.52751,200.26357   L 51.52751,200.26357   L 51.52751,200.26357   L 51.52751,200.26357   L 51.847557,200.26357   L 51.847557,200.26357   L 51.52751,194.18528   L 51.207464,188.107   L 50.56737,182.02871   L 49.60723,175.95042   L 48.327044,169.87214   L 47.366904,163.79385   L 46.406764,157.71556   L 45.446624,151.63727   L 44.486484,148.43817   L 43.526344,145.23908   L 42.566204,142.03998   L 41.286017,138.84088   L 40.005831,135.96169   L 39.045691,132.76259   L 38.405598,129.8834   L 38.085551,127.00421   L 38.085551,126.6843   L 37.765504,126.6843   L 37.765504,126.36439   L 37.765504,126.36439   L 37.765504,126.36439   L 37.765504,126.04448   L 37.765504,126.04448   L 37.445458,126.04448   L 37.125411,126.04448   L 36.805364,126.36439   L 36.485318,127.00421   L 36.165271,127.64403   L 35.845224,128.28385   L 35.525178,128.92367   L 35.205131,129.56349   L 34.885085,129.8834   L 37.125411,135.00196   L 39.045691,140.44043   L 40.645924,145.8789   L 42.246157,151.31736   L 43.846391,156.75583   L 45.126577,162.1943   L 46.406764,167.95268   L 47.68695,173.39114   L 47.68695,174.35087   L 48.006997,175.3106   L 48.327044,176.27033   L 48.327044,176.91015   L 48.64709,177.86988   L 48.64709,178.82961   L 48.967137,179.78934   L 49.287184,180.74907   L 49.287184,183.30835   L 49.60723,185.54772   L 49.927277,188.107   L 50.247324,190.66628   L 50.56737,192.90565   L 50.887417,195.46492   L 50.887417,197.70429   L 50.887417,200.26357   L 50.887417,200.26357   L 50.887417,200.26357   L 51.207464,200.26357   L 51.207464,200.26357   L 51.207464,200.26357   L 51.207464,200.26357   L 51.207464,200.26357   L 51.207464,200.26357  z "
     style="fill:#000000;fill-rule:evenodd;fill-opacity:1;stroke:none;" />
  <path
     id="path29"
     d="  M 134.09955,199.62375   L 134.41959,197.38438   L 134.09955,199.62375  z "
     style="fill:#ffffff;fill-rule:evenodd;fill-opacity:1;stroke:none;" />
  <path
     id="path31"
     d="  M 135.05969,193.54546   L 136.01983,190.98619   L 135.05969,193.54546  z "
     style="fill:#ffffff;fill-rule:evenodd;fill-opacity:1;stroke:none;" />
  <path
     id="path33"
     d="  M 61.769003,192.90565   L 63.04919,192.90565   L 64.649423,192.90565   L 66.249656,192.90565   L 67.529843,192.58574   L 69.130076,192.26583   L 70.410262,191.62601   L 71.370402,190.98619   L 72.330542,190.02646   L 72.970636,188.74682   L 73.290682,187.78709   L 73.610729,186.82736   L 73.930776,185.54772   L 73.930776,184.58799   L 73.930776,183.30835   L 73.610729,182.34862   L 73.290682,181.38889   L 72.330542,180.42916   L 71.690449,179.78934   L 70.730309,179.14952   L 69.450122,178.5097   L 68.489983,178.18979   L 67.209796,177.54997   L 65.929609,177.23006   L 64.649423,176.91015   L 63.369236,176.91015   L 62.409096,177.23006   L 61.12891,177.54997   L 60.16877,177.86988   L 59.20863,178.5097   L 58.24849,179.46943   L 57.28835,180.10925   L 56.648257,181.06898   L 56.32821,181.7088   L 55.688117,182.66853   L 55.36807,183.62826   L 55.048023,184.58799   L 55.048023,185.54772   L 54.727977,186.50745   L 55.048023,187.14727   L 55.36807,188.107   L 55.688117,189.06673   L 56.32821,190.02646   L 56.968303,190.66628   L 57.928443,191.3061   L 58.568536,191.94592   L 59.848723,192.26583   L 60.808863,192.58574   L 61.769003,192.90565  z "
     style="fill:#000000;fill-rule:evenodd;fill-opacity:1;stroke:none;" />
  <path
     id="path35"
     d="  M 114.25665,191.94592   L 115.21679,191.94592   L 116.17693,191.62601   L 117.13707,191.3061   L 118.09721,190.98619   L 119.05735,190.98619   L 120.01749,190.66628   L 120.97763,190.34637   L 122.25782,190.34637   L 123.21796,189.70655   L 124.1781,189.38664   L 125.13824,188.74682   L 125.77833,188.107   L 126.73847,187.46718   L 127.05852,186.50745   L 127.69861,185.54772   L 128.01866,184.26808   L 128.01866,183.30835   L 128.01866,182.34862   L 127.69861,181.38889   L 127.37857,180.74907   L 127.05852,179.78934   L 126.41843,179.14952   L 125.77833,178.5097   L 125.13824,177.86988   L 123.53801,177.23006   L 121.93777,176.59024   L 120.01749,176.59024   L 118.41726,176.59024   L 116.81703,176.59024   L 114.89675,177.23006   L 113.29651,177.54997   L 112.01633,178.18979   L 111.05619,179.14952   L 110.09605,180.10925   L 109.45595,181.06898   L 109.13591,182.02871   L 108.49581,183.30835   L 108.17577,184.26808   L 108.17577,185.54772   L 107.85572,186.50745   L 108.49581,187.78709   L 108.81586,188.42691   L 109.776,189.38664   L 110.41609,190.02646   L 111.37623,190.66628   L 112.33637,191.3061   L 113.29651,191.62601   L 114.25665,191.94592  z "
     style="fill:#000000;fill-rule:evenodd;fill-opacity:1;stroke:none;" />
  <path
     id="path37"
     d="  M 136.33987,189.70655   L 154.26248,129.56349   L 150.74197,126.04448   L 147.86155,122.20557   L 145.30118,117.72683   L 142.7408,113.24809   L 140.82052,108.44944   L 138.90024,103.33088   L 137.30001,98.212327   L 136.01983,92.773859   L 135.05969,89.254851   L 134.09955,85.415932   L 132.81936,81.896924   L 131.85922,78.697825   L 130.57903,75.178817   L 129.29885,71.659808   L 128.33871,68.46071   L 127.05852,64.941701   L 125.45829,62.062513   L 123.53801,59.823144   L 121.61773,57.263865   L 119.3774,55.024496   L 116.81703,53.105037   L 114.25665,51.505487   L 111.37623,50.225848   L 108.17577,49.266118   L 107.21563,49.266118   L 106.25549,49.266118   L 105.29535,49.266118   L 104.33521,49.266118   L 103.37507,49.586028   L 102.41493,49.586028   L 101.45479,49.586028   L 100.49465,49.586028   L 105.61539,51.505487   L 110.09605,53.744856   L 114.5767,56.624045   L 118.41726,59.503234   L 121.93777,63.022242   L 124.81819,66.861161   L 127.69861,71.339899   L 129.61889,75.818637   L 131.53917,80.297375   L 132.81936,85.096023   L 133.7795,89.89467   L 134.73964,94.693318   L 135.37973,99.491966   L 136.33987,104.29061   L 137.30001,109.40917   L 138.5802,113.88791   L 139.22029,115.48746   L 139.54034,117.08701   L 139.86038,118.68656   L 140.50048,119.9662   L 141.14057,121.24584   L 141.78066,122.52548   L 142.7408,123.80512   L 143.70094,124.76485   L 143.70094,124.76485   L 144.02099,124.76485   L 144.02099,124.76485   L 144.02099,124.76485   L 144.34104,124.76485   L 144.34104,124.76485   L 144.66108,124.76485   L 144.66108,125.08475   L 144.98113,125.08475   L 144.98113,125.08475   L 144.98113,125.08475   L 144.98113,125.40466   L 145.30118,125.40466   L 145.30118,125.72457   L 145.30118,125.72457   L 145.30118,126.04448   L 150.42192,128.92367   L 149.78183,132.12277   L 149.14174,135.32187   L 148.50164,138.52097   L 147.86155,141.72007   L 146.90141,145.23908   L 145.94127,148.43817   L 144.98113,151.63727   L 143.70094,154.83637   L 143.06085,157.71556   L 142.42076,160.27484   L 141.78066,163.15403   L 141.14057,165.71331   L 140.50048,168.5925   L 139.86038,171.15177   L 139.22029,174.03096   L 138.90024,176.59024   L 138.5802,178.18979   L 138.26015,179.78934   L 137.9401,181.38889   L 137.62006,183.30835   L 137.30001,184.9079   L 136.97997,186.50745   L 136.65992,188.107   L 136.33987,189.70655  z "
     style="fill:#e84200;fill-rule:evenodd;fill-opacity:1;stroke:none;" />
  <path
     id="path39"
     d="  M 61.12891,188.107   L 61.448956,188.107   L 62.08905,188.107   L 62.729143,187.78709   L 63.04919,187.78709   L 63.689283,187.46718   L 64.009329,187.14727   L 64.649423,186.50745   L 64.969469,186.18754   L 64.969469,185.86763   L 65.289516,185.22781   L 65.609563,184.9079   L 65.929609,184.58799   L 65.929609,183.94817   L 66.249656,183.62826   L 66.249656,182.98844   L 66.249656,182.34862   L 66.249656,182.34862   L 65.929609,182.02871   L 65.929609,181.7088   L 65.609563,181.7088   L 65.609563,181.38889   L 65.289516,181.38889   L 64.969469,181.06898   L 64.649423,181.06898   L 63.04919,181.38889   L 60.488816,183.30835   L 59.20863,187.46718   L 61.12891,188.107  z "
     style="fill:#ffd90f;fill-rule:evenodd;fill-opacity:1;stroke:none;" />
  <path
     id="path41"
     d="  M 113.61656,187.78709   L 114.25665,187.78709   L 114.89675,187.46718   L 115.85689,187.46718   L 116.49698,187.14727   L 117.13707,186.50745   L 117.77717,186.18754   L 118.09721,185.54772   L 118.73731,185.22781   L 118.73731,184.9079   L 119.05735,184.58799   L 119.05735,184.26808   L 119.05735,184.26808   L 119.05735,183.94817   L 119.05735,183.62826   L 119.05735,183.62826   L 119.3774,183.30835   L 118.41726,181.7088   L 118.09721,181.7088   L 117.77717,181.38889   L 117.45712,181.38889   L 117.13707,181.06898   L 116.81703,181.06898   L 116.17693,181.06898   L 115.85689,181.06898   L 115.53684,181.06898   L 114.89675,181.38889   L 114.25665,182.02871   L 113.93661,182.66853   L 113.29651,183.62826   L 113.29651,184.26808   L 112.97647,185.22781   L 112.65642,186.18754   L 112.65642,186.82736   L 112.65642,187.14727   L 112.65642,187.14727   L 112.97647,187.46718   L 112.97647,187.46718   L 112.97647,187.46718   L 113.29651,187.78709   L 113.29651,187.78709   L 113.61656,187.78709  z "
     style="fill:#ffd90f;fill-rule:evenodd;fill-opacity:1;stroke:none;" />
  <path
     id="path43"
     d="  M 91.853388,184.58799   L 109.13591,176.27033   L 109.776,171.15177   L 110.09605,166.03322   L 110.73614,160.59475   L 110.73614,155.47619   L 111.05619,150.03772   L 111.37623,144.59926   L 111.37623,139.4807   L 111.37623,134.04223   L 114.25665,130.20331   L 116.81703,126.04448   L 119.05735,121.56575   L 120.97763,116.7671   L 122.57787,111.96845   L 123.53801,106.84989   L 124.1781,101.41143   L 124.1781,95.972958   L 123.85805,93.733589   L 123.53801,91.17431   L 122.89791,88.615031   L 121.93777,86.375662   L 120.01749,81.896924   L 117.45712,78.058006   L 114.5767,74.538997   L 111.37623,71.019989   L 107.53567,68.46071   L 103.69511,66.221341   L 102.73497,65.261611   L 101.45479,64.621792   L 100.1746,64.301882   L 98.894414,63.662062   L 97.614227,63.342152   L 96.013994,63.342152   L 94.733808,63.022242   L 93.453621,63.022242   L 89.613061,63.022242   L 85.452455,63.662062   L 81.931942,64.621792   L 78.411429,65.901431   L 75.210962,67.50098   L 72.330542,69.740349   L 69.450122,72.299628   L 66.889749,75.178817   L 65.609563,77.418186   L 64.009329,79.657555   L 62.729143,81.577014   L 61.448956,83.816383   L 60.16877,86.375662   L 58.888583,88.615031   L 57.928443,91.17431   L 57.28835,94.053499   L 56.32821,98.532237   L 56.008163,103.33088   L 56.008163,108.12953   L 56.32821,112.92818   L 57.28835,117.40692   L 58.888583,121.88566   L 59.848723,123.80512   L 61.12891,125.72457   L 62.08905,127.64403   L 63.689283,129.24358   L 64.329376,130.20331   L 64.969469,131.16304   L 65.929609,132.12277   L 66.569703,132.76259   L 67.529843,133.72232   L 68.169936,134.36214   L 69.130076,135.32187   L 70.090216,135.96169   L 70.090216,140.76034   L 70.410262,145.55899   L 70.730309,150.67754   L 71.050356,155.47619   L 71.050356,160.27484   L 71.050356,165.3934   L 70.730309,170.19205   L 70.410262,174.99069   L 73.290682,175.95042   L 76.171102,176.91015   L 79.051522,178.18979   L 81.611895,179.14952   L 84.492315,180.42916   L 87.052688,182.02871   L 89.613061,183.30835   L 91.853388,184.58799  z "
     style="fill:#000000;fill-rule:evenodd;fill-opacity:1;stroke:none;" />
  <path
     id="path45"
     d="  M 91.213294,178.5097   L 104.01516,172.43141   L 107.53567,137.56124   L 104.65525,138.84088   L 104.01516,143.63953   L 104.01516,149.07799   L 104.01516,154.51646   L 104.01516,159.63502   L 103.69511,162.1943   L 103.37507,164.75358   L 102.41493,166.99295   L 101.77483,168.91241   L 100.49465,170.83186   L 98.894414,172.43141   L 96.654087,173.71105   L 94.093714,174.99069   L 93.773668,174.99069   L 93.453621,175.3106   L 93.453621,175.63051   L 93.133574,175.63051   L 92.813528,175.95042   L 92.493481,175.95042   L 92.173434,175.95042   L 91.853388,175.95042   L 77.771335,168.5925   L 77.451289,166.03322   L 77.131242,163.47394   L 76.811195,160.59475   L 76.811195,158.03547   L 76.491149,155.15628   L 76.491149,152.27709   L 76.491149,149.3979   L 76.171102,146.83863   L 76.491149,145.8789   L 76.811195,144.91917   L 76.811195,143.95944   L 76.811195,142.99971   L 76.491149,142.03998   L 76.491149,141.40016   L 76.491149,140.44043   L 76.491149,139.80061   L 74.250822,138.84088   L 75.531009,172.1115   L 91.213294,178.5097  z "
     style="fill:#e84200;fill-rule:evenodd;fill-opacity:1;stroke:none;" />
  <path
     id="path47"
     d="  M 60.808863,174.67078   L 62.08905,174.67078   L 63.04919,169.55223   L 61.12891,169.23232   L 60.488816,174.67078   L 60.488816,174.67078   L 60.488816,174.67078   L 60.488816,174.67078   L 60.488816,174.67078   L 60.488816,174.67078   L 60.488816,174.67078   L 60.808863,174.67078   L 60.808863,174.67078  z "
     style="fill:#000000;fill-rule:evenodd;fill-opacity:1;stroke:none;" />
  <path
     id="path49"
     d="  M 118.09721,173.39114   L 119.3774,173.39114   L 120.33754,168.27259   L 120.33754,168.27259   L 120.33754,168.27259   L 120.01749,167.95268   L 119.69745,167.95268   L 119.3774,167.95268   L 119.3774,167.95268   L 119.05735,167.95268   L 118.73731,167.95268   L 118.09721,168.5925   L 117.77717,168.91241   L 117.77717,169.55223   L 117.77717,170.19205   L 117.77717,171.15177   L 117.77717,171.79159   L 117.77717,172.43141   L 117.77717,173.07123   L 117.77717,173.07123   L 117.77717,173.07123   L 117.77717,173.07123   L 117.77717,173.07123   L 117.77717,173.07123   L 118.09721,173.39114   L 118.09721,173.39114   L 118.09721,173.39114  z "
     style="fill:#000000;fill-rule:evenodd;fill-opacity:1;stroke:none;" />
  <path
     id="path51"
     d="  M 91.213294,170.51195   L 96.974134,166.03322   L 98.894414,141.08025   L 82.251988,140.76034   L 82.251988,140.76034   L 81.931942,140.76034   L 81.931942,140.76034   L 81.931942,141.08025   L 81.931942,141.08025   L 81.611895,141.08025   L 81.611895,141.08025   L 81.611895,141.08025   L 81.931942,166.03322   L 82.572035,166.99295   L 83.532175,167.63277   L 84.812362,168.27259   L 85.772501,168.5925   L 87.052688,169.23232   L 88.332875,169.55223   L 89.613061,170.19205   L 90.893248,170.51195   L 90.893248,170.51195   L 90.893248,170.51195   L 90.893248,170.51195   L 91.213294,170.51195   L 91.213294,170.51195   L 91.213294,170.51195   L 91.213294,170.51195   L 91.213294,170.51195  z "
     style="fill:#b89900;fill-rule:evenodd;fill-opacity:1;stroke:none;" />
  <path
     id="path53"
     d="  M 155.22262,170.19205   L 156.82286,164.75358   L 155.22262,170.19205  z "
     style="fill:#ffffff;fill-rule:evenodd;fill-opacity:1;stroke:none;" />
  <path
     id="path55"
     d="  M 89.613061,168.27259   L 89.613061,168.27259   L 89.933108,168.27259   L 89.933108,168.27259   L 89.933108,168.27259   L 89.933108,168.27259   L 90.253155,168.27259   L 90.253155,168.27259   L 90.253155,168.27259   L 96.974134,145.55899   L 96.974134,145.55899   L 96.974134,145.55899   L 96.974134,145.55899   L 96.654087,145.23908   L 96.654087,145.23908   L 96.654087,145.23908   L 96.654087,145.23908   L 96.334041,144.91917   L 84.812362,144.59926   L 83.532175,145.23908   L 87.372735,165.71331   L 87.372735,166.03322   L 87.372735,166.03322   L 87.692781,166.03322   L 87.692781,166.35313   L 87.692781,166.35313   L 88.012828,166.35313   L 88.012828,166.67304   L 88.332875,166.67304   L 89.293015,168.27259   L 89.293015,168.27259   L 89.293015,168.27259   L 89.293015,168.27259   L 89.293015,168.27259   L 89.613061,168.27259   L 89.613061,168.27259   L 89.613061,168.27259   L 89.613061,168.27259  z "
     style="fill:#000000;fill-rule:evenodd;fill-opacity:1;stroke:none;" />
  <path
     id="path57"
     d="  M 130.57903,167.63277   L 136.01983,145.55899   L 137.9401,135.64178   L 115.53684,137.88115   L 115.21679,137.88115   L 115.21679,137.88115   L 115.21679,137.88115   L 114.89675,138.20106   L 114.89675,138.20106   L 114.89675,138.20106   L 114.5767,138.52097   L 114.5767,138.52097   L 114.5767,138.84088   L 114.89675,138.84088   L 114.89675,138.84088   L 114.89675,138.84088   L 114.89675,138.84088   L 114.89675,138.84088   L 114.89675,138.84088   L 114.89675,139.16079   L 129.61889,141.08025   L 129.61889,141.08025   L 129.61889,141.08025   L 129.61889,141.08025   L 129.61889,141.08025   L 129.61889,141.08025   L 129.61889,141.40016   L 129.61889,141.40016   L 129.61889,141.40016   L 115.85689,144.27935   L 115.85689,144.27935   L 115.53684,144.27935   L 115.53684,144.27935   L 115.53684,144.59926   L 115.53684,144.59926   L 115.53684,144.59926   L 115.53684,144.91917   L 115.53684,144.91917   L 115.53684,144.91917   L 115.53684,144.91917   L 115.53684,144.91917   L 115.53684,145.23908   L 115.53684,145.23908   L 115.53684,145.23908   L 115.53684,145.23908   L 115.85689,145.55899   L 127.37857,146.51872   L 127.37857,146.51872   L 127.37857,146.51872   L 127.37857,146.83863   L 127.37857,146.83863   L 127.37857,146.83863   L 127.37857,146.83863   L 127.37857,146.83863   L 127.37857,147.15854   L 115.53684,149.71781   L 115.21679,149.71781   L 115.21679,149.71781   L 115.21679,150.03772   L 115.21679,150.03772   L 114.89675,150.35763   L 114.89675,150.35763   L 115.21679,150.67754   L 115.21679,150.67754   L 127.37857,152.27709   L 127.69861,152.27709   L 127.69861,152.597   L 127.69861,152.597   L 127.69861,152.91691   L 127.69861,152.91691   L 127.69861,153.23682   L 127.37857,153.23682   L 127.37857,153.23682   L 125.77833,153.55673   L 124.1781,154.19655   L 122.57787,154.51646   L 120.97763,154.83637   L 119.3774,155.15628   L 117.77717,155.47619   L 116.49698,155.7961   L 114.89675,156.43592   L 114.89675,156.43592   L 114.89675,156.75583   L 114.89675,156.75583   L 114.89675,156.75583   L 114.89675,156.75583   L 114.89675,156.75583   L 114.89675,157.07574   L 114.89675,157.07574   L 127.05852,158.03547   L 127.05852,158.03547   L 127.37857,158.03547   L 127.37857,158.03547   L 127.37857,158.03547   L 127.37857,158.35538   L 127.37857,158.35538   L 127.37857,158.35538   L 127.37857,158.67529   L 114.89675,160.59475   L 114.89675,160.59475   L 114.89675,160.59475   L 114.5767,160.59475   L 114.5767,160.91466   L 114.5767,160.91466   L 114.25665,160.91466   L 114.25665,161.23457   L 114.25665,161.23457   L 114.25665,161.55448   L 114.25665,161.55448   L 114.25665,161.55448   L 114.25665,161.55448   L 114.25665,161.55448   L 114.5767,161.55448   L 114.5767,161.55448   L 114.5767,161.87439   L 121.61773,162.83412   L 121.93777,162.83412   L 121.93777,162.83412   L 121.93777,162.83412   L 122.25782,163.15403   L 122.25782,163.15403   L 122.25782,163.15403   L 122.25782,163.47394   L 121.93777,163.47394   L 120.65759,164.11376   L 120.65759,164.11376   L 120.65759,164.11376   L 120.33754,164.11376   L 120.33754,164.11376   L 120.33754,164.43367   L 120.33754,164.43367   L 120.33754,164.43367   L 120.33754,164.75358   L 120.33754,164.75358   L 120.33754,164.75358   L 120.33754,164.75358   L 120.33754,164.75358   L 120.33754,164.75358   L 120.33754,164.75358   L 120.65759,165.07349   L 120.65759,165.07349   L 129.29885,166.99295   L 129.29885,166.99295   L 129.61889,166.99295   L 129.61889,166.99295   L 129.93894,167.31286   L 129.93894,167.31286   L 129.93894,167.63277   L 130.25899,167.63277   L 130.57903,167.63277  z "
     style="fill:#000000;fill-rule:evenodd;fill-opacity:1;stroke:none;" />
  <path
     id="path59"
     d="  M 52.48765,165.3934   L 66.889749,164.11376   L 67.209796,163.79385   L 67.209796,163.79385   L 67.529843,163.79385   L 67.529843,163.47394   L 67.529843,163.47394   L 67.849889,163.15403   L 67.849889,163.15403   L 67.529843,162.83412   L 57.928443,160.27484   L 68.489983,156.75583   L 68.489983,156.75583   L 68.489983,156.75583   L 68.489983,156.75583   L 68.489983,156.43592   L 68.489983,156.43592   L 68.489983,156.43592   L 68.489983,156.43592   L 68.489983,156.11601   L 56.968303,153.87664   L 57.928443,153.23682   L 59.20863,152.91691   L 60.488816,152.597   L 61.769003,152.597   L 63.369236,152.597   L 64.649423,152.597   L 65.929609,152.27709   L 67.529843,151.95718   L 67.529843,151.95718   L 67.529843,151.63727   L 67.529843,151.63727   L 67.529843,151.63727   L 67.529843,151.31736   L 67.849889,151.31736   L 67.529843,150.99745   L 67.529843,150.99745   L 52.807697,147.47845   L 52.807697,147.15854   L 52.807697,147.15854   L 52.807697,146.83863   L 53.127743,146.83863   L 53.44779,146.51872   L 53.44779,146.51872   L 53.767837,146.51872   L 54.087883,146.51872   L 55.688117,146.19881   L 56.968303,145.8789   L 58.568536,145.55899   L 60.16877,145.55899   L 61.448956,145.23908   L 63.04919,145.23908   L 64.329376,145.23908   L 65.929609,144.91917   L 65.929609,144.91917   L 65.929609,144.59926   L 66.249656,144.59926   L 66.249656,144.59926   L 66.249656,144.27935   L 66.249656,144.27935   L 66.249656,143.95944   L 66.249656,143.95944   L 52.807697,140.76034   L 65.609563,139.4807   L 65.609563,139.4807   L 65.609563,139.16079   L 65.929609,139.16079   L 65.929609,139.16079   L 65.929609,139.16079   L 66.249656,138.84088   L 66.249656,138.84088   L 66.249656,138.52097   L 52.807697,135.96169   L 52.807697,135.64178   L 52.807697,135.64178   L 52.807697,135.64178   L 52.807697,135.64178   L 52.48765,135.64178   L 52.48765,135.64178   L 52.807697,135.32187   L 52.807697,135.32187   L 62.08905,134.36214   L 62.409096,134.36214   L 62.409096,134.36214   L 62.729143,134.36214   L 62.729143,134.04223   L 62.729143,134.04223   L 62.729143,133.72232   L 62.729143,133.40241   L 62.409096,133.40241   L 60.488816,133.0825   L 58.24849,133.0825   L 56.008163,132.76259   L 54.087883,132.44268   L 51.847557,132.12277   L 49.60723,131.48295   L 47.366904,130.84313   L 45.446624,130.20331   L 45.126577,130.20331   L 44.806531,130.20331   L 44.486484,130.20331   L 44.166437,130.52322   L 44.166437,130.52322   L 43.846391,130.52322   L 43.846391,130.84313   L 43.526344,130.84313   L 43.526344,131.16304   L 43.206297,131.16304   L 43.206297,131.48295   L 43.526344,131.80286   L 43.526344,131.80286   L 43.846391,132.12277   L 43.846391,132.44268   L 43.846391,132.76259   L 43.846391,132.76259   L 43.846391,132.76259   L 43.846391,132.76259   L 43.846391,133.0825   L 43.846391,133.0825   L 43.846391,133.0825   L 43.846391,133.40241   L 43.526344,133.40241   L 43.846391,133.40241   L 43.846391,133.72232   L 43.846391,133.72232   L 43.846391,133.72232   L 44.166437,133.72232   L 44.166437,134.04223   L 44.166437,134.04223   L 44.166437,134.04223   L 45.766671,137.56124   L 47.366904,141.40016   L 48.327044,145.23908   L 49.287184,149.3979   L 50.247324,153.23682   L 50.887417,157.39565   L 51.52751,161.55448   L 51.847557,165.3934   L 52.167603,165.3934   L 52.167603,165.3934   L 52.167603,165.3934   L 52.167603,165.3934   L 52.167603,165.3934   L 52.167603,165.3934   L 52.48765,165.3934   L 52.48765,165.3934  z "
     style="fill:#000000;fill-rule:evenodd;fill-opacity:1;stroke:none;" />
  <path
     id="path61"
     d="  M 157.1429,163.15403   L 158.10304,157.71556   L 159.38323,152.27709   L 160.98346,147.15854   L 162.90374,142.03998   L 164.82402,136.60151   L 166.7443,131.48295   L 168.66458,126.36439   L 169.94477,120.92593   L 170.26482,120.60602   L 170.58486,120.28611   L 170.58486,119.9662   L 170.90491,119.64629   L 171.22496,119.32638   L 171.22496,119.00647   L 171.545,118.36665   L 171.545,118.04674   L 168.98463,115.48746   L 166.7443,112.28836   L 164.82402,108.76935   L 163.22379,104.93043   L 161.62356,101.09152   L 160.34337,96.932687   L 159.06318,92.773859   L 157.783,88.615031   L 156.82286,85.415932   L 155.54267,82.536744   L 154.26248,79.337645   L 152.9823,76.778366   L 151.38206,73.899177   L 150.10188,71.339899   L 148.50164,68.78062   L 146.90141,66.541251   L 145.62122,64.941701   L 144.34104,63.662062   L 143.3809,62.702332   L 142.10071,61.742603   L 140.82052,60.462963   L 139.86038,59.503234   L 138.5802,58.543504   L 137.62006,57.583775   L 140.82052,60.782873   L 143.3809,64.621792   L 145.94127,68.46071   L 147.86155,72.619538   L 149.78183,77.098276   L 151.70211,81.257104   L 153.30234,86.055752   L 155.22262,90.53449   L 156.18276,94.373408   L 157.783,98.212327   L 159.06318,102.05125   L 160.66342,105.89016   L 162.26365,109.40917   L 163.86388,112.92818   L 165.78416,116.44719   L 167.3844,119.64629   L 167.70444,119.64629   L 167.70444,119.64629   L 168.02449,119.9662   L 168.02449,119.9662   L 168.34454,120.28611   L 168.34454,120.28611   L 168.66458,120.60602   L 168.66458,120.60602   L 167.06435,126.04448   L 165.46412,131.16304   L 163.86388,136.60151   L 162.26365,141.72007   L 160.66342,147.15854   L 159.38323,152.27709   L 158.10304,157.71556   L 157.1429,163.15403  z "
     style="fill:#e84200;fill-rule:evenodd;fill-opacity:1;stroke:none;" />
  <path
     id="path63"
     d="  M 89.933108,157.39565   L 91.533341,148.75808   L 88.332875,149.07799   L 89.933108,157.39565   L 89.933108,157.39565   L 89.933108,157.39565   L 89.933108,157.39565   L 89.933108,157.39565   L 89.933108,157.39565   L 89.933108,157.39565   L 89.933108,157.39565   L 89.933108,157.39565  z "
     style="fill:#ffd90f;fill-rule:evenodd;fill-opacity:1;stroke:none;" />
  <path
     id="path65"
     d="  M 177.94594,141.40016   L 186.90724,127.00421   L 186.5872,126.6843   L 186.26715,126.36439   L 185.9471,126.04448   L 185.62706,126.04448   L 185.30701,125.72457   L 184.98696,125.40466   L 184.98696,124.76485   L 184.66692,124.44494   L 184.66692,124.44494   L 184.66692,124.44494   L 184.66692,124.44494   L 184.66692,124.12503   L 184.66692,124.12503   L 184.34687,124.12503   L 184.34687,124.12503   L 184.02682,124.44494   L 184.02682,124.44494   L 184.02682,124.44494   L 184.02682,124.44494   L 184.02682,124.44494   L 184.02682,124.44494   L 183.70678,124.76485   L 183.70678,124.76485   L 183.70678,124.76485   L 177.62589,140.76034   L 177.62589,140.76034   L 177.62589,141.08025   L 177.62589,141.08025   L 177.62589,141.40016   L 177.62589,141.40016   L 177.62589,141.40016   L 177.62589,141.40016   L 177.94594,141.40016  z "
     style="fill:#000000;fill-rule:evenodd;fill-opacity:1;stroke:none;" />
  <path
     id="path67"
     d="  M 86.732641,136.92142   L 89.613061,136.92142   L 92.493481,136.92142   L 95.373901,136.60151   L 97.934274,135.64178   L 100.49465,134.68205   L 103.05502,133.72232   L 105.29535,132.44268   L 107.53567,130.84313   L 110.73614,126.04448   L 113.93661,120.60602   L 115.21679,117.72683   L 116.17693,114.84764   L 117.13707,111.64854   L 118.09721,108.76935   L 118.73731,105.57025   L 119.05735,102.37115   L 119.3774,99.172056   L 119.05735,95.972958   L 119.05735,92.773859   L 118.41726,89.574761   L 117.45712,86.695572   L 116.49698,83.496473   L 115.21679,81.257104   L 113.93661,79.337645   L 112.33637,77.738096   L 110.73614,76.138546   L 108.81586,74.538997   L 106.89558,73.259358   L 104.9753,71.659808   L 103.05502,70.380169   L 100.1746,69.420439   L 97.294181,68.78062   L 94.093714,68.46071   L 91.213294,68.46071   L 88.332875,68.78062   L 85.452455,69.420439   L 82.572035,70.060259   L 79.691615,71.019989   L 76.171102,73.259358   L 72.970636,75.818637   L 70.410262,78.697825   L 67.849889,81.896924   L 65.929609,85.096023   L 64.009329,88.615031   L 62.409096,92.453949   L 61.448956,96.612777   L 60.488816,101.41143   L 60.488816,106.21007   L 60.808863,111.00872   L 61.448956,115.80737   L 62.08905,118.04674   L 63.04919,120.28611   L 64.009329,122.52548   L 64.969469,124.44494   L 66.249656,126.36439   L 67.529843,128.28385   L 69.130076,129.8834   L 70.730309,131.48295   L 72.330542,133.0825   L 74.250822,134.04223   L 76.171102,135.00196   L 78.091382,135.64178   L 80.331708,136.2816   L 82.251988,136.60151   L 84.492315,136.92142   L 86.732641,136.92142  z "
     style="fill:#e84200;fill-rule:evenodd;fill-opacity:1;stroke:none;" />
  <path
     id="path69"
     d="  M 88.652921,132.44268   L 91.533341,132.12277   L 94.413761,131.80286   L 97.294181,131.16304   L 100.1746,129.8834   L 102.73497,128.60376   L 104.65525,127.00421   L 106.57553,125.08475   L 108.17577,122.52548   L 109.13591,120.92593   L 109.776,119.32638   L 110.41609,117.40692   L 111.05619,115.80737   L 111.69628,113.88791   L 112.33637,111.96845   L 112.97647,110.3689   L 113.29651,108.44944   L 114.25665,104.29061   L 114.89675,100.13179   L 114.89675,95.653048   L 114.25665,91.49422   L 113.93661,89.574761   L 113.29651,87.655301   L 112.33637,85.735842   L 111.37623,83.816383   L 110.41609,82.216834   L 109.13591,80.617285   L 107.53567,79.017735   L 105.93544,77.738096   L 104.9753,76.778366   L 103.69511,76.138546   L 102.09488,75.498727   L 100.81469,75.178817   L 99.214461,74.858907   L 97.614227,74.858907   L 96.334041,74.538997   L 94.733808,74.219087   L 91.853388,73.899177   L 88.652921,73.899177   L 85.452455,73.899177   L 82.572035,74.538997   L 79.691615,75.498727   L 76.811195,76.778366   L 74.570869,78.377915   L 72.330542,80.297375   L 70.410262,83.176563   L 68.489983,86.695572   L 66.569703,90.21458   L 64.969469,94.053499   L 63.689283,97.892417   L 63.04919,102.05125   L 62.729143,105.89016   L 63.04919,110.04899   L 64.009329,113.24809   L 64.969469,116.44719   L 66.569703,119.32638   L 68.489983,121.88566   L 70.730309,124.44494   L 72.970636,126.6843   L 75.531009,128.60376   L 78.091382,130.52322   L 79.691615,130.84313   L 80.971802,131.16304   L 82.251988,131.48295   L 83.532175,131.80286   L 84.812362,132.12277   L 86.092548,132.12277   L 87.372735,132.44268   L 88.652921,132.44268  z "
     style="fill:#000000;fill-rule:evenodd;fill-opacity:1;stroke:none;" />
  <path
     id="path71"
     d="  M 178.26598,129.8834   L 178.26598,129.8834   L 178.26598,129.8834   L 178.26598,129.8834   L 178.26598,129.8834   L 178.58603,129.56349   L 178.58603,129.56349   L 178.58603,129.56349   L 178.58603,129.56349   L 186.90724,110.04899   L 186.90724,110.04899   L 186.90724,109.72908   L 186.90724,109.72908   L 186.90724,109.72908   L 186.90724,109.40917   L 186.90724,109.40917   L 186.90724,109.40917   L 186.90724,109.08926   L 185.62706,108.44944   L 184.34687,107.80962   L 182.74664,107.1698   L 181.46645,106.84989   L 179.86622,106.21007   L 178.26598,105.89016   L 176.66575,105.89016   L 175.06552,105.57025   L 175.06552,105.89016   L 175.06552,105.89016   L 174.74547,105.89016   L 174.74547,105.89016   L 174.74547,105.89016   L 174.74547,105.89016   L 174.74547,105.89016   L 175.06552,106.21007   L 181.7865,110.68881   L 181.7865,113.24809   L 181.46645,115.48746   L 181.1464,118.04674   L 180.50631,120.28611   L 179.86622,122.84539   L 179.22612,125.08475   L 178.58603,127.64403   L 177.94594,129.8834   L 177.94594,129.8834   L 177.94594,129.8834   L 177.94594,129.8834   L 177.94594,129.8834   L 178.26598,129.8834   L 178.26598,129.8834   L 178.26598,129.8834   L 178.26598,129.8834  z "
     style="fill:#000000;fill-rule:evenodd;fill-opacity:1;stroke:none;" />
  <path
     id="path73"
     d="  M 83.212128,128.28385   L 83.532175,128.28385   L 83.532175,128.28385   L 83.532175,128.28385   L 83.852222,128.28385   L 83.852222,128.28385   L 84.172268,128.28385   L 84.172268,127.96394   L 84.492315,127.96394   L 84.492315,122.20557   L 80.011662,124.76485   L 80.011662,124.76485   L 79.691615,124.76485   L 79.691615,125.08475   L 79.371569,125.08475   L 79.371569,125.40466   L 79.371569,125.40466   L 79.051522,125.72457   L 79.051522,126.04448   L 83.212128,128.28385  z "
     style="fill:#cfb070;fill-rule:evenodd;fill-opacity:1;stroke:none;" />
  <path
     id="path75"
     d="  M 89.293015,128.28385   L 92.813528,127.64403   L 93.773668,119.00647   L 93.453621,118.36665   L 93.133574,118.04674   L 92.493481,117.72683   L 92.173434,117.40692   L 91.853388,117.08701   L 91.213294,116.7671   L 90.893248,116.44719   L 90.573201,116.12728   L 88.972968,128.28385   L 88.972968,128.28385   L 88.972968,128.28385   L 89.293015,128.28385   L 89.293015,128.28385   L 89.293015,128.28385   L 89.293015,128.28385   L 89.293015,128.28385   L 89.293015,128.28385  z "
     style="fill:#cfb070;fill-rule:evenodd;fill-opacity:1;stroke:none;" />
  <path
     id="path77"
     d="  M 98.254321,125.72457   L 99.854554,123.80512   L 101.45479,121.56575   L 102.41493,119.00647   L 103.05502,116.44719   L 103.69511,113.88791   L 104.01516,111.32863   L 104.33521,108.44944   L 104.33521,105.57025   L 104.33521,99.491966   L 104.01516,93.733589   L 104.33521,87.975211   L 104.9753,82.536744   L 104.65525,81.896924   L 104.33521,81.257104   L 104.01516,80.617285   L 103.37507,80.297375   L 103.05502,79.977465   L 102.41493,79.657555   L 102.09488,79.337645   L 101.45479,79.337645   L 97.934274,125.72457   L 97.934274,125.72457   L 97.934274,125.72457   L 97.934274,125.72457   L 97.934274,125.72457   L 98.254321,125.72457   L 98.254321,125.72457   L 98.254321,125.72457   L 98.254321,125.72457  z "
     style="fill:#cfb070;fill-rule:evenodd;fill-opacity:1;stroke:none;" />
  <path
     id="path79"
     d="  M 74.570869,122.52548   L 74.570869,118.36665   L 74.890915,114.52773   L 74.890915,110.3689   L 75.210962,106.21007   L 75.531009,102.37115   L 75.531009,98.212327   L 75.851055,94.373408   L 75.851055,90.21458   L 75.531009,89.574761   L 75.531009,88.934941   L 75.531009,88.295121   L 75.531009,87.975211   L 75.531009,87.335392   L 75.531009,86.695572   L 75.531009,86.375662   L 75.531009,85.735842   L 75.210962,85.735842   L 74.890915,85.735842   L 74.570869,86.055752   L 74.250822,86.375662   L 73.610729,86.375662   L 73.290682,86.695572   L 72.970636,87.015482   L 72.330542,87.335392   L 72.010496,88.615031   L 72.330542,91.17431   L 72.650589,93.413679   L 72.650589,95.972958   L 72.650589,98.532237   L 72.650589,101.09152   L 72.650589,103.65079   L 72.650589,106.21007   L 72.650589,108.76935   L 72.650589,110.3689   L 72.650589,111.96845   L 72.330542,113.568   L 72.330542,115.16755   L 72.010496,116.7671   L 72.330542,118.36665   L 72.330542,119.64629   L 72.970636,120.92593   L 73.290682,121.24584   L 73.290682,121.56575   L 73.610729,121.88566   L 73.930776,121.88566   L 73.930776,122.20557   L 74.250822,122.20557   L 74.250822,122.52548   L 74.570869,122.52548   L 74.570869,122.52548   L 74.570869,122.52548   L 74.570869,122.52548   L 74.570869,122.52548   L 74.570869,122.52548   L 74.570869,122.52548   L 74.570869,122.52548   L 74.570869,122.52548  z "
     style="fill:#cfb070;fill-rule:evenodd;fill-opacity:1;stroke:none;" />
  <path
     id="path81"
     d="  M 123.21796,122.52548   L 123.21796,122.52548   L 123.53801,122.52548   L 123.53801,122.52548   L 123.53801,122.52548   L 123.85805,122.52548   L 123.85805,122.52548   L 123.85805,122.20557   L 124.1781,122.20557   L 125.77833,118.68656   L 127.37857,114.52773   L 128.33871,110.3689   L 128.9788,106.21007   L 128.9788,101.73134   L 128.33871,97.572507   L 128.01866,95.333138   L 127.37857,93.413679   L 126.73847,91.49422   L 125.77833,89.574761   L 125.77833,89.574761   L 125.77833,89.574761   L 125.77833,89.574761   L 125.45829,89.574761   L 125.45829,89.574761   L 125.45829,89.574761   L 125.13824,89.574761   L 125.13824,89.574761   L 125.45829,93.093769   L 125.77833,96.932687   L 126.09838,100.4517   L 126.09838,104.29061   L 126.09838,107.80962   L 125.77833,111.64854   L 125.13824,115.16755   L 124.1781,119.00647   L 123.85805,119.32638   L 123.85805,119.9662   L 123.85805,120.28611   L 123.53801,120.92593   L 123.53801,121.24584   L 123.21796,121.56575   L 122.89791,122.20557   L 122.89791,122.52548   L 122.89791,122.52548   L 122.89791,122.52548   L 122.89791,122.52548   L 122.89791,122.52548   L 123.21796,122.52548   L 123.21796,122.52548   L 123.21796,122.52548   L 123.21796,122.52548  z "
     style="fill:#000000;fill-rule:evenodd;fill-opacity:1;stroke:none;" />
  <path
     id="path83"
     d="  M 54.727977,122.20557   L 53.44779,118.04674   L 52.48765,113.88791   L 51.847557,109.72908   L 51.847557,105.25034   L 51.847557,101.09152   L 52.167603,96.612777   L 52.807697,92.134039   L 53.767837,87.975211   L 53.44779,87.975211   L 53.44779,87.975211   L 53.44779,87.975211   L 53.127743,87.975211   L 53.127743,87.975211   L 53.127743,87.975211   L 52.807697,87.975211   L 52.807697,87.975211   L 51.207464,91.81413   L 49.927277,95.653048   L 48.967137,99.811876   L 48.64709,103.9707   L 48.967137,108.12953   L 49.60723,112.28836   L 50.887417,116.44719   L 52.48765,119.9662   L 52.807697,120.28611   L 53.127743,120.60602   L 53.127743,120.92593   L 53.44779,121.24584   L 53.767837,121.56575   L 53.767837,121.88566   L 54.087883,121.88566   L 54.40793,122.20557   L 54.40793,122.20557   L 54.40793,122.20557   L 54.40793,122.20557   L 54.40793,122.20557   L 54.727977,122.20557   L 54.727977,122.20557   L 54.727977,122.20557   L 54.727977,122.20557  z "
     style="fill:#000000;fill-rule:evenodd;fill-opacity:1;stroke:none;" />
  <path
     id="path85"
     d="  M 79.691615,119.9662   L 84.812362,115.80737   L 85.452455,108.76935   L 79.691615,112.60827   L 79.371569,120.28611   L 79.371569,120.28611   L 79.371569,120.28611   L 79.371569,120.28611   L 79.371569,120.28611   L 79.371569,120.28611   L 79.691615,119.9662   L 79.691615,119.9662   L 79.691615,119.9662  z "
     style="fill:#cfb070;fill-rule:evenodd;fill-opacity:1;stroke:none;" />
  <path
     id="path87"
     d="  M 94.093714,113.24809   L 94.413761,111.96845   L 94.413761,110.68881   L 94.733808,109.08926   L 94.733808,107.80962   L 94.733808,106.52998   L 94.733808,104.93043   L 94.733808,103.65079   L 94.093714,102.69106   L 93.773668,102.37115   L 93.453621,102.05125   L 92.813528,101.73134   L 92.493481,101.41143   L 92.173434,101.41143   L 91.853388,101.09152   L 91.533341,100.77161   L 91.213294,100.4517   L 90.573201,111.00872   L 90.893248,111.64854   L 91.213294,111.96845   L 91.533341,112.28836   L 92.173434,112.60827   L 92.493481,112.60827   L 93.133574,112.92818   L 93.453621,113.24809   L 94.093714,113.568   L 94.093714,113.568   L 94.093714,113.568   L 94.093714,113.568   L 94.093714,113.568   L 94.093714,113.24809   L 94.093714,113.24809   L 94.093714,113.24809   L 94.093714,113.24809  z "
     style="fill:#cfb070;fill-rule:evenodd;fill-opacity:1;stroke:none;" />
  <path
     id="path89"
     d="  M 68.169936,112.28836   L 68.489983,97.572507   L 67.849889,99.491966   L 67.529843,101.41143   L 67.209796,103.01097   L 67.209796,104.93043   L 67.209796,106.84989   L 67.209796,108.44944   L 67.529843,110.3689   L 68.169936,112.28836  z "
     style="fill:#cfb070;fill-rule:evenodd;fill-opacity:1;stroke:none;" />
  <path
     id="path91"
     d="  M 108.17577,107.80962   L 108.81586,105.89016   L 109.13591,103.9707   L 109.776,102.05125   L 110.09605,99.811876   L 110.41609,97.892417   L 110.41609,95.972958   L 110.09605,94.053499   L 109.776,92.134039   L 109.45595,91.81413   L 109.45595,91.17431   L 109.45595,90.8544   L 109.45595,90.53449   L 109.45595,90.21458   L 109.45595,89.89467   L 109.13591,89.574761   L 109.13591,89.254851   L 108.17577,107.80962  z "
     style="fill:#cfb070;fill-rule:evenodd;fill-opacity:1;stroke:none;" />
  <path
     id="path93"
     d="  M 80.011662,107.1698   L 86.092548,101.73134   L 86.732641,91.49422   L 80.331708,94.693318   L 79.691615,107.48971   L 79.691615,107.48971   L 79.691615,107.48971   L 79.691615,107.48971   L 79.691615,107.48971   L 80.011662,107.48971   L 80.011662,107.48971   L 80.011662,107.48971   L 80.011662,107.1698  z "
     style="fill:#cfb070;fill-rule:evenodd;fill-opacity:1;stroke:none;" />
  <path
     id="path95"
     d="  M 95.373901,98.212327   L 96.013994,88.615031   L 91.853388,85.096023   L 91.533341,86.375662   L 91.213294,87.335392   L 91.213294,88.615031   L 91.213294,89.89467   L 91.213294,91.49422   L 91.213294,92.773859   L 91.213294,94.053499   L 91.213294,95.333138   L 95.373901,98.212327  z "
     style="fill:#cfb070;fill-rule:evenodd;fill-opacity:1;stroke:none;" />
  <path
     id="path97"
     d="  M 80.331708,89.254851   L 86.732641,84.776113   L 86.412595,78.058006   L 85.452455,78.377915   L 84.492315,78.377915   L 83.532175,79.017735   L 82.572035,79.337645   L 81.611895,79.977465   L 80.971802,80.617285   L 80.331708,81.257104   L 79.691615,81.896924   L 80.011662,89.89467   L 80.011662,89.574761   L 80.011662,89.574761   L 80.011662,89.574761   L 80.331708,89.574761   L 80.331708,89.574761   L 80.331708,89.574761   L 80.331708,89.574761   L 80.331708,89.254851  z "
     style="fill:#cfb070;fill-rule:evenodd;fill-opacity:1;stroke:none;" />
  <path
     id="path99"
     d="  M 96.334041,83.176563   L 96.334041,78.697825   L 91.853388,78.058006   L 91.853388,78.058006   L 91.853388,78.058006   L 91.533341,78.377915   L 91.533341,78.377915   L 91.533341,78.377915   L 91.533341,78.697825   L 91.533341,79.017735   L 91.533341,79.017735   L 94.093714,81.896924   L 96.334041,83.176563  z "
     style="fill:#cfb070;fill-rule:evenodd;fill-opacity:1;stroke:none;" />
  <path
     id="path101"
     d="  M 8.6412595,124.12503   L 34.244991,104.29061   L 36.805364,100.77161   L 34.244991,100.77161   L 31.364571,101.41143   L 28.804198,102.37115   L 26.243825,103.33088   L 23.683452,104.61052   L 21.123079,105.89016   L 18.242659,106.84989   L 15.682286,107.80962   L 14.082052,108.44944   L 12.481819,109.08926   L 11.201633,109.72908   L 9.6013994,110.3689   L 8.0011662,111.00872   L 6.7209796,111.64854   L 5.440793,112.28836   L 3.8405598,112.92818   L 8.0011662,124.12503   L 8.0011662,124.12503   L 8.0011662,124.12503   L 8.3212128,124.12503   L 8.3212128,124.12503   L 8.3212128,124.12503   L 8.3212128,124.12503   L 8.3212128,124.12503   L 8.6412595,124.12503  z "
     style="fill:#ffd90f;fill-rule:evenodd;fill-opacity:1;stroke:none;" />
  <path
     id="path103"
     d="  M 0.32004665,91.49422   L 4.1606064,90.8544   L 7.6811195,90.21458   L 11.521679,88.934941   L 15.362239,87.975211   L 18.882752,86.695572   L 22.723312,85.735842   L 26.563872,85.096023   L 30.084385,84.776113   L 30.084385,84.456203   L 30.404431,84.456203   L 30.404431,84.456203   L 30.404431,84.136293   L 30.404431,84.136293   L 30.724478,83.816383   L 30.724478,83.816383   L 31.044525,83.496473   L 33.604898,82.856654   L 33.604898,82.856654   L 33.604898,82.856654   L 33.604898,82.856654   L 33.604898,82.856654   L 33.604898,82.856654   L 33.604898,82.536744   L 33.924945,82.536744   L 33.924945,82.536744   L 33.924945,82.216834   L 33.604898,82.216834   L 33.604898,82.216834   L 33.604898,82.216834   L 33.604898,82.216834   L 33.604898,82.216834   L 33.604898,81.896924   L 33.604898,81.896924   L 2.5603732,79.657555   L 0,88.615031   L 0,91.17431   L 0,91.17431   L 0,91.17431   L 0,91.17431   L 0.32004665,91.17431   L 0.32004665,91.17431   L 0.32004665,91.17431   L 0.32004665,91.49422   L 0.32004665,91.49422  z "
     style="fill:#ffd90f;fill-rule:evenodd;fill-opacity:1;stroke:none;" />
  <path
     id="path105"
     d="  M 37.445458,75.818637   L 37.445458,75.178817   L 37.125411,74.219087   L 36.805364,73.579268   L 36.485318,72.939448   L 36.165271,72.299628   L 35.845224,71.659808   L 35.525178,70.700079   L 35.525178,69.740349   L 33.604898,66.861161   L 31.364571,63.981972   L 29.124245,61.422693   L 26.883918,58.543504   L 24.963638,55.984225   L 23.043359,53.105037   L 21.123079,50.225848   L 19.202799,47.346659   L 19.202799,47.346659   L 18.882752,47.346659   L 18.882752,47.026749   L 18.562706,47.026749   L 18.562706,47.026749   L 18.562706,46.706839   L 18.242659,46.706839   L 18.242659,46.706839   L 9.9214461,54.384676   L 9.9214461,54.384676   L 9.9214461,54.704586   L 9.9214461,54.704586   L 9.9214461,54.704586   L 9.9214461,55.024496   L 9.9214461,55.024496   L 9.6013994,55.024496   L 9.6013994,55.344406   L 12.801866,58.223594   L 16.322379,61.102783   L 19.522845,63.662062   L 23.043359,66.221341   L 26.563872,68.78062   L 30.084385,71.339899   L 33.604898,73.579268   L 37.125411,75.818637   L 37.125411,75.818637   L 37.125411,75.818637   L 37.125411,76.138546   L 37.445458,75.818637   L 37.445458,75.818637   L 37.445458,75.818637   L 37.445458,75.818637   L 37.445458,75.818637  z "
     style="fill:#ffd90f;fill-rule:evenodd;fill-opacity:1;stroke:none;" />
  <path
     id="path107"
     d="  M 197.46878,110.04899   L 171.86505,90.53449   L 169.30468,86.695572   L 171.86505,86.695572   L 174.42542,87.335392   L 177.30584,88.295121   L 179.86622,89.574761   L 182.42659,90.53449   L 184.98696,91.81413   L 187.54734,92.773859   L 190.42776,93.733589   L 191.70794,94.693318   L 193.30817,95.333138   L 194.90841,95.653048   L 196.50864,96.292868   L 197.78883,96.932687   L 199.38906,97.572507   L 200.66925,98.212327   L 201.94943,98.852146   L 197.78883,110.04899   L 197.78883,110.04899   L 197.78883,110.04899   L 197.78883,110.04899   L 197.78883,110.04899   L 197.78883,110.04899   L 197.46878,110.04899   L 197.46878,110.04899   L 197.46878,110.04899  z "
     style="fill:#ffd90f;fill-rule:evenodd;fill-opacity:1;stroke:none;" />
  <path
     id="path109"
     d="  M 205.46995,77.418186   L 201.94943,76.778366   L 198.10887,76.138546   L 194.58836,75.178817   L 190.7478,73.899177   L 186.90724,72.939448   L 183.38673,71.659808   L 179.54617,71.019989   L 176.02566,70.700079   L 175.70561,70.380169   L 175.70561,70.380169   L 175.70561,70.380169   L 175.38556,70.060259   L 175.38556,70.060259   L 175.38556,70.060259   L 175.06552,69.740349   L 175.06552,69.740349   L 172.50514,68.78062   L 172.50514,68.78062   L 172.50514,68.78062   L 172.50514,68.78062   L 172.50514,68.78062   L 172.1851,68.78062   L 172.1851,68.46071   L 172.1851,68.46071   L 172.1851,68.46071   L 172.1851,68.1408   L 172.1851,68.1408   L 172.1851,68.1408   L 172.1851,68.1408   L 172.1851,68.1408   L 172.1851,68.1408   L 172.50514,68.1408   L 172.50514,67.82089   L 203.22962,65.901431   L 206.11004,74.858907   L 206.11004,77.098276   L 206.11004,77.098276   L 205.78999,77.098276   L 205.78999,77.098276   L 205.78999,77.098276   L 205.78999,77.418186   L 205.78999,77.418186   L 205.46995,77.418186   L 205.46995,77.418186  z "
     style="fill:#ffd90f;fill-rule:evenodd;fill-opacity:1;stroke:none;" />
  <path
     id="path111"
     d="  M 168.66458,62.062513   L 168.66458,61.102783   L 168.66458,60.462963   L 168.98463,59.503234   L 169.30468,58.863414   L 169.94477,58.223594   L 170.26482,57.583775   L 170.26482,56.624045   L 170.26482,55.664315   L 172.50514,52.785127   L 174.74547,49.905938   L 176.9858,47.346659   L 178.90608,44.46747   L 181.1464,41.908192   L 183.06668,39.029003   L 184.98696,36.149814   L 186.5872,33.270625   L 186.90724,33.270625   L 187.22729,33.270625   L 187.22729,32.950715   L 187.22729,32.950715   L 187.54734,32.950715   L 187.54734,32.950715   L 187.54734,32.630806   L 187.86738,32.630806   L 196.18859,40.308642   L 196.18859,40.628552   L 196.18859,40.628552   L 196.18859,40.628552   L 196.18859,40.948462   L 196.18859,40.948462   L 196.18859,40.948462   L 196.18859,41.268372   L 196.18859,41.268372   L 192.98813,44.147561   L 189.78766,47.026749   L 186.26715,49.905938   L 182.74664,52.465217   L 179.22612,55.024496   L 175.70561,57.263865   L 172.1851,59.503234   L 168.98463,62.062513   L 168.98463,62.062513   L 168.66458,62.062513   L 168.66458,62.062513   L 168.66458,62.062513   L 168.66458,62.062513   L 168.66458,62.062513   L 168.66458,62.062513   L 168.66458,62.062513  z "
     style="fill:#ffd90f;fill-rule:evenodd;fill-opacity:1;stroke:none;" />
  <path
     id="path113"
     d="  M 218.27181,47.986479   L 218.91191,46.706839   L 218.91191,46.706839   L 218.91191,47.026749   L 218.91191,47.346659   L 218.59186,47.346659   L 218.59186,47.666569   L 218.27181,47.666569   L 218.27181,47.986479   L 218.27181,47.986479  z "
     style="fill:#ffffff;fill-rule:evenodd;fill-opacity:1;stroke:none;" />
</svg>
