<?xml version="1.0" encoding="UTF-8" standalone="no"?>
<svg
   xmlns:dc="http://purl.org/dc/elements/1.1/"
   xmlns:cc="http://creativecommons.org/ns#"
   xmlns:rdf="http://www.w3.org/1999/02/22-rdf-syntax-ns#"
   xmlns:svg="http://www.w3.org/2000/svg"
   xmlns="http://www.w3.org/2000/svg"
   id="svg37"
   height="22.986999mm"
   width="38.074602mm"
   version="1.0">
  <metadata
     id="metadata41">
    <rdf:RDF>
      <cc:Work
         rdf:about="">
        <dc:format>image/svg+xml</dc:format>
        <dc:type
           rdf:resource="http://purl.org/dc/dcmitype/StillImage" />
        <dc:title></dc:title>
      </cc:Work>
    </rdf:RDF>
  </metadata>
  <defs
     id="defs3">
    <pattern
       y="0"
       x="0"
       height="6"
       width="6"
       patternUnits="userSpaceOnUse"
       id="WMFhbasepattern" />
  </defs>
  <path
     id="path5"
     d="  M 14.412829,86.784   L 29.145942,85.503055   L 43.879056,83.581638   L 58.612169,81.980458   L 73.665568,80.379277   L 88.398682,78.778096   L 103.1318,77.497151   L 118.18519,76.536443   L 132.91831,75.89597   L 133.23859,75.89597   L 133.55888,76.216207   L 133.55888,76.216207   L 133.87916,76.536443   L 133.87916,76.536443   L 134.19945,76.856679   L 134.51973,76.856679   L 134.84002,77.176915   L 136.12116,74.615026   L 137.4023,71.7329   L 138.68344,69.171011   L 139.96458,66.288886   L 141.24572,63.726996   L 142.20657,60.844871   L 142.84714,57.962745   L 143.16743,54.760384   L 143.16743,54.760384   L 142.84714,54.760384   L 142.84714,54.440148   L 142.84714,54.440148   L 142.52686,54.440148   L 142.52686,54.119911   L 142.20657,54.119911   L 142.20657,54.119911   L 141.566,47.074716   L 141.88629,46.75448   L 141.88629,46.75448   L 141.88629,46.75448   L 141.88629,46.434244   L 142.20657,46.434244   L 142.20657,46.434244   L 142.20657,46.75448   L 142.52686,47.074716   L 142.84714,47.394952   L 143.16743,48.035424   L 143.48771,48.675897   L 143.48771,49.316369   L 143.48771,49.956841   L 143.48771,50.597314   L 143.48771,51.237786   L 143.48771,51.878258   L 141.88629,45.793771   L 140.60515,39.068812   L 139.96458,32.343852   L 139.32401,25.939129   L 138.36315,19.21417   L 137.08201,12.809446   L 136.44144,9.6070849   L 135.48059,6.4047232   L 134.19945,3.5225978   L 132.91831,0.64047232   L 118.50548,0.64047232   L 104.09265,1.6011808   L 90.000107,2.5618893   L 75.587278,4.1630701   L 61.17445,5.7642509   L 47.081906,7.3654317   L 32.669078,8.9666125   L 18.256249,10.247557   L 17.935964,9.927321   L 17.935964,9.927321   L 17.615679,9.927321   L 17.615679,9.927321   L 17.295394,9.6070849   L 16.975109,9.6070849   L 16.975109,9.2868487   L 16.654824,8.9666125   L 16.654824,9.2868487   L 16.654824,9.2868487   L 16.654824,9.2868487   L 16.334539,9.2868487   L 16.334539,9.6070849   L 16.334539,9.6070849   L 16.334539,9.927321   L 16.014254,10.247557   L 10.889693,12.168974   L 6.4057016,17.933225   L 0.32028508,23.697476   L 0.32028508,27.54031   L 0.64057016,31.383144   L 0.96085523,35.225978   L 1.6014254,39.068812   L 3.2028508,46.75448   L 5.1245612,54.760384   L 7.0462717,62.446052   L 8.6476971,70.13172   L 10.249122,77.817387   L 11.209978,85.823292   L 11.209978,85.503055   L 11.209978,85.503055   L 11.530263,85.182819   L 11.530263,85.182819   L 11.850548,85.182819   L 11.850548,84.862583   L 12.170833,84.862583   L 12.491118,84.542347   L 12.811403,84.862583   L 12.811403,84.862583   L 13.131688,85.182819   L 13.131688,85.503055   L 13.131688,85.823292   L 13.451973,86.143528   L 13.451973,86.463764   L 13.772258,86.784   L 13.772258,86.784   L 13.772258,86.784   L 14.092543,86.784   L 14.092543,86.784   L 14.092543,86.784   L 14.412829,86.784   L 14.412829,86.784   L 14.412829,86.784  z "
     style="fill:#000000;fill-rule:evenodd;fill-opacity:1;stroke:none;" />
  <path
     id="path7"
     d="  M 17.615679,84.222111   L 49.003617,81.339985   L 49.323902,81.339985   L 49.644187,81.339985   L 49.964472,81.339985   L 49.964472,81.339985   L 50.284757,81.339985   L 50.605042,81.339985   L 50.925327,81.660221   L 51.245612,81.660221   L 54.448463,80.699513   L 131.63717,73.013845   L 136.44144,65.007941   L 133.55888,63.40676   L 124.27061,63.40676   L 114.98234,64.047232   L 105.69408,64.687705   L 96.405808,65.648413   L 87.117541,66.609122   L 77.829274,67.56983   L 68.541007,68.850775   L 58.932454,69.491247   L 50.605042,71.412664   L 23.380811,73.654317   L 16.975109,83.581638   L 16.975109,83.581638   L 16.975109,83.901875   L 16.975109,83.901875   L 16.975109,84.222111   L 16.975109,84.222111   L 17.295394,84.222111   L 17.295394,84.222111   L 17.615679,84.222111  z "
     style="fill:#00ccff;fill-rule:evenodd;fill-opacity:1;stroke:none;" />
  <path
     id="path9"
     d="  M 13.451973,81.660221   L 18.89682,73.334081   L 18.89682,73.013845   L 18.576535,72.693609   L 18.576535,72.053137   L 18.256249,71.7329   L 18.256249,71.412664   L 18.256249,70.772192   L 18.256249,70.451956   L 18.576535,70.13172   L 17.615679,67.56983   L 17.615679,67.249594   L 17.935964,66.929358   L 17.935964,66.609122   L 17.935964,66.288886   L 17.935964,65.968649   L 17.615679,65.648413   L 17.615679,65.328177   L 17.615679,65.007941   L 17.295394,64.687705   L 17.295394,64.687705   L 17.295394,64.367469   L 17.615679,64.047232   L 17.615679,63.726996   L 17.615679,63.726996   L 17.615679,63.40676   L 17.615679,63.086524   L 17.295394,62.766288   L 17.295394,62.766288   L 17.295394,62.766288   L 16.975109,62.766288   L 16.975109,62.766288   L 16.975109,62.766288   L 16.654824,62.446052   L 16.654824,62.446052   L 10.569408,17.933225   L 3.2028508,23.697476   L 3.8434209,31.062908   L 4.4839911,38.108103   L 5.7651314,45.473535   L 7.0462717,52.838967   L 8.327412,60.204399   L 9.9288374,67.249594   L 11.850548,74.615026   L 13.451973,81.660221  z "
     style="fill:#6699ff;fill-rule:evenodd;fill-opacity:1;stroke:none;" />
  <path
     id="path11"
     d="  M 27.864802,80.059041   L 46.121051,76.856679   L 44.519626,73.974554   L 35.871929,74.615026   L 26.903947,77.176915   L 26.903947,77.497151   L 26.583661,77.817387   L 26.583661,78.137624   L 26.583661,78.45786   L 26.583661,78.778096   L 26.583661,79.098332   L 26.583661,79.418568   L 26.583661,79.738804   L 26.583661,79.738804   L 26.903947,79.738804   L 26.903947,80.059041   L 26.903947,80.059041   L 27.224232,80.059041   L 27.544517,80.379277   L 27.544517,80.379277   L 27.864802,80.059041  z "
     style="fill:#000000;fill-rule:evenodd;fill-opacity:1;stroke:none;" />
  <path
     id="path13"
     d="  M 115.62291,71.412664   L 129.07489,70.772192   L 129.39517,70.451956   L 129.39517,70.451956   L 129.71546,70.451956   L 130.03574,70.451956   L 130.03574,70.13172   L 130.03574,70.13172   L 130.03574,69.811483   L 130.03574,69.491247   L 128.7546,68.530539   L 127.15318,67.890066   L 125.55175,67.56983   L 123.63004,67.56983   L 122.02861,67.890066   L 119.78662,68.210303   L 117.86491,68.210303   L 115.9432,68.530539   L 115.62291,68.850775   L 115.30263,68.850775   L 114.98234,69.171011   L 114.66206,69.171011   L 114.34177,69.171011   L 114.02149,69.491247   L 113.7012,69.491247   L 113.06063,69.491247   L 113.38092,70.13172   L 113.38092,70.451956   L 113.7012,70.451956   L 114.02149,70.772192   L 114.34177,71.092428   L 114.66206,71.092428   L 115.30263,71.412664   L 115.62291,71.412664  z "
     style="fill:#000000;fill-rule:evenodd;fill-opacity:1;stroke:none;" />
  <path
     id="path15"
     d="  M 22.09967,70.13172   L 51.245612,67.56983   L 58.291884,50.91755   L 64.057016,51.237786   L 64.377301,51.237786   L 64.377301,51.237786   L 64.697586,51.237786   L 65.017871,50.91755   L 65.338156,50.91755   L 65.338156,50.597314   L 65.658441,50.597314   L 65.978726,50.277077   L 66.299011,50.277077   L 66.299011,50.277077   L 66.619296,50.277077   L 66.939581,50.597314   L 66.939581,50.597314   L 67.259866,50.597314   L 67.580151,50.597314   L 67.900437,50.91755   L 91.601532,48.035424   L 101.21008,61.805579   L 138.68344,60.204399   L 130.9966,3.2023616   L 127.79375,2.8821255   L 124.5909,2.8821255   L 121.38804,3.2023616   L 117.86491,3.2023616   L 114.66206,3.5225978   L 111.45921,3.5225978   L 107.93607,3.8428339   L 104.73322,4.1630701   L 100.56951,4.1630701   L 96.726094,4.4833063   L 92.562388,4.4833063   L 88.718967,4.8035424   L 84.875546,5.1237786   L 80.71184,5.4440148   L 76.868419,6.0844871   L 73.024998,7.0451956   L 65.658441,7.6856679   L 58.612169,8.3261402   L 51.245612,8.9666125   L 44.199341,9.6070849   L 37.153069,10.567793   L 30.106797,11.208266   L 22.740241,12.48921   L 15.693969,13.770155   L 15.053399,14.730863   L 14.733114,15.691572   L 14.412829,16.972517   L 14.412829,18.253461   L 14.092543,19.21417   L 14.092543,20.495114   L 14.092543,21.776059   L 13.772258,23.057004   L 14.733114,29.141491   L 15.373684,34.905742   L 16.334539,40.990229   L 17.295394,46.75448   L 18.256249,52.518731   L 19.217105,58.603218   L 20.498245,64.367469   L 21.779385,70.13172   L 21.779385,70.13172   L 21.779385,70.13172   L 21.779385,70.13172   L 21.779385,70.13172   L 22.09967,70.13172   L 22.09967,70.13172   L 22.09967,70.13172   L 22.09967,70.13172  z "
     style="fill:#00ffff;fill-rule:evenodd;fill-opacity:1;stroke:none;" />
  <path
     id="path17"
     d="  M 55.729604,67.56983   L 98.007234,62.766288   L 90.960962,51.237786   L 60.213595,54.440148   L 59.252739,55.721092   L 58.291884,57.002037   L 57.651314,58.603218   L 57.010744,60.524635   L 56.370174,62.125815   L 55.729604,64.047232   L 55.409318,65.648413   L 55.089033,67.56983   L 55.089033,67.56983   L 55.409318,67.56983   L 55.409318,67.56983   L 55.409318,67.56983   L 55.409318,67.56983   L 55.409318,67.56983   L 55.409318,67.56983   L 55.729604,67.56983  z "
     style="fill:#ffff00;fill-rule:evenodd;fill-opacity:1;stroke:none;" />
  <path
     id="path19"
     d="  M 32.028508,61.165107   L 40.35592,59.24369   L 30.427082,58.603218   L 30.106797,54.119911   L 29.466227,49.636605   L 29.145942,45.153299   L 28.825657,40.669993   L 28.505372,35.86645   L 28.505372,31.383144   L 29.145942,26.899838   L 29.786512,22.416531   L 40.35592,20.174878   L 50.605042,18.253461   L 61.494735,16.972517   L 72.064143,15.691572   L 82.63355,15.0511   L 93.523243,14.410627   L 104.09265,14.090391   L 114.98234,13.770155   L 116.26348,15.371336   L 117.22434,16.972517   L 118.18519,18.573697   L 119.14605,20.495114   L 120.1069,24.658185   L 120.74747,28.821255   L 121.38804,33.304561   L 121.70833,37.787867   L 122.02861,42.271173   L 122.66918,46.114007   L 122.66918,46.75448   L 122.3489,47.074716   L 122.3489,47.394952   L 122.3489,47.715188   L 122.02861,47.715188   L 122.02861,48.035424   L 122.02861,48.035424   L 122.02861,48.035424   L 118.82576,49.956841   L 118.50548,49.956841   L 118.18519,49.956841   L 117.86491,49.956841   L 117.86491,49.636605   L 117.54462,49.636605   L 117.22434,49.636605   L 116.90405,49.956841   L 116.58377,49.956841   L 116.58377,50.277077   L 116.58377,50.277077   L 116.58377,50.597314   L 116.58377,50.597314   L 116.58377,50.91755   L 116.58377,50.91755   L 116.58377,51.237786   L 116.58377,51.237786   L 124.5909,48.035424   L 124.5909,45.153299   L 124.27061,41.950937   L 123.95033,38.428339   L 123.30976,35.225978   L 122.98947,32.023616   L 122.3489,28.821255   L 121.70833,25.618893   L 121.06776,22.416531   L 121.06776,21.135587   L 120.74747,19.854642   L 120.42719,18.573697   L 120.1069,17.292753   L 119.78662,16.011808   L 119.14605,15.0511   L 118.50548,14.090391   L 117.86491,13.449919   L 107.2955,12.809446   L 96.405808,12.48921   L 85.516116,13.129683   L 74.306138,13.770155   L 63.416445,15.0511   L 52.526753,16.65228   L 41.316775,18.253461   L 30.427082,20.495114   L 30.106797,20.815351   L 29.466227,20.815351   L 29.145942,21.135587   L 28.825657,21.455823   L 28.505372,21.455823   L 28.185087,21.776059   L 27.864802,22.096295   L 27.544517,22.416531   L 26.903947,25.618893   L 26.583661,28.501018   L 26.583661,31.70338   L 26.903947,34.585506   L 27.224232,37.787867   L 27.544517,40.669993   L 27.544517,43.872354   L 27.224232,47.074716   L 27.864802,48.675897   L 27.864802,50.597314   L 27.864802,52.198494   L 27.864802,54.119911   L 27.864802,55.721092   L 27.864802,57.322273   L 28.505372,58.923454   L 29.145942,60.204399   L 32.028508,61.165107  z "
     style="fill:#ff0000;fill-rule:evenodd;fill-opacity:1;stroke:none;" />
  <path
     id="path21"
     d="  M 139.96458,48.996133   L 138.68344,35.86645   L 139.96458,48.996133  z "
     style="fill:#ffffff;fill-rule:evenodd;fill-opacity:1;stroke:none;" />
  <path
     id="path23"
     d="  M 42.27763,48.996133   L 49.003617,48.035424   L 50.284757,47.394952   L 51.565898,46.434244   L 52.526753,45.473535   L 53.487608,44.19259   L 54.128178,42.911646   L 54.768748,41.630701   L 55.089033,40.02952   L 55.089033,38.748576   L 54.768748,37.147395   L 54.128178,35.546214   L 53.167323,34.585506   L 52.206468,33.304561   L 50.925327,32.343852   L 49.644187,31.70338   L 48.683332,31.062908   L 47.402192,30.422435   L 46.441336,30.422435   L 45.800766,30.422435   L 45.160196,30.422435   L 44.519626,30.422435   L 43.879056,30.422435   L 43.238486,30.422435   L 42.9182,30.102199   L 42.27763,29.781963   L 40.99649,30.102199   L 40.035635,30.422435   L 39.07478,31.062908   L 38.113924,32.023616   L 37.153069,32.984325   L 36.512499,33.945033   L 35.871929,34.905742   L 35.231359,35.86645   L 34.911073,37.467631   L 34.590788,38.748576   L 34.590788,40.349756   L 34.590788,41.630701   L 34.911073,42.911646   L 35.551644,44.19259   L 36.192214,45.153299   L 36.832784,46.114007   L 37.473354,46.75448   L 37.793639,47.074716   L 38.113924,47.394952   L 38.434209,47.394952   L 38.434209,47.715188   L 38.754494,47.715188   L 39.07478,48.035424   L 39.395065,48.035424   L 42.27763,48.996133  z "
     style="fill:#000000;fill-rule:evenodd;fill-opacity:1;stroke:none;" />
  <path
     id="path25"
     d="  M 42.9182,46.114007   L 42.9182,46.114007   L 43.238486,46.114007   L 43.238486,46.114007   L 43.238486,45.793771   L 43.558771,45.793771   L 43.558771,45.473535   L 43.879056,45.473535   L 43.879056,45.153299   L 44.199341,45.153299   L 44.199341,45.153299   L 44.199341,44.833063   L 44.199341,44.833063   L 44.199341,44.512827   L 44.519626,44.19259   L 44.519626,44.19259   L 44.519626,43.872354   L 44.839911,43.872354   L 44.839911,43.552118   L 45.160196,43.552118   L 45.480481,43.552118   L 45.800766,43.552118   L 46.121051,43.552118   L 46.441336,43.552118   L 46.761621,43.552118   L 46.761621,43.872354   L 47.081906,44.19259   L 47.081906,44.512827   L 47.402192,44.512827   L 47.402192,44.833063   L 47.722477,45.153299   L 48.042762,45.153299   L 48.363047,45.153299   L 48.683332,43.231882   L 49.003617,42.59141   L 49.323902,42.59141   L 49.644187,42.59141   L 49.964472,42.59141   L 50.605042,42.59141   L 50.925327,42.271173   L 51.245612,42.271173   L 51.565898,41.630701   L 51.565898,41.310465   L 51.245612,41.310465   L 51.245612,41.310465   L 50.925327,40.990229   L 50.605042,40.990229   L 50.284757,40.990229   L 49.964472,40.990229   L 49.964472,40.669993   L 49.644187,40.669993   L 49.644187,40.669993   L 49.644187,40.669993   L 49.644187,40.669993   L 49.323902,40.349756   L 49.323902,40.349756   L 49.323902,40.02952   L 49.003617,39.709284   L 49.323902,39.709284   L 49.323902,39.389048   L 49.323902,39.389048   L 49.323902,39.068812   L 49.323902,39.068812   L 49.644187,38.748576   L 49.644187,38.748576   L 49.964472,38.748576   L 49.964472,38.428339   L 49.964472,38.108103   L 50.284757,38.108103   L 50.605042,38.108103   L 50.925327,38.108103   L 51.245612,37.787867   L 51.565898,37.787867   L 51.886183,37.787867   L 51.886183,37.467631   L 51.886183,37.147395   L 51.886183,36.827159   L 51.886183,36.506923   L 51.886183,36.186686   L 51.565898,35.86645   L 51.245612,35.86645   L 51.245612,35.546214   L 48.363047,37.147395   L 48.363047,37.147395   L 48.042762,37.147395   L 47.722477,37.147395   L 47.722477,36.827159   L 47.402192,36.827159   L 47.402192,36.506923   L 47.402192,36.186686   L 47.402192,35.86645   L 47.402192,35.546214   L 47.402192,35.546214   L 47.402192,35.225978   L 47.402192,34.905742   L 47.402192,34.905742   L 47.722477,34.585506   L 47.722477,34.265269   L 47.722477,33.945033   L 47.722477,33.624797   L 47.722477,33.624797   L 47.722477,33.304561   L 47.402192,33.304561   L 47.402192,32.984325   L 47.081906,32.984325   L 47.081906,32.664089   L 46.761621,32.664089   L 46.441336,32.984325   L 46.121051,32.984325   L 46.121051,33.304561   L 46.121051,33.945033   L 45.800766,34.265269   L 45.800766,34.585506   L 45.480481,34.905742   L 45.160196,35.225978   L 45.160196,35.546214   L 45.160196,35.546214   L 44.839911,35.546214   L 44.839911,35.546214   L 44.519626,35.546214   L 44.519626,35.546214   L 44.199341,35.546214   L 43.879056,35.86645   L 43.879056,35.546214   L 43.558771,35.546214   L 43.238486,35.225978   L 43.238486,34.905742   L 42.9182,34.585506   L 42.9182,34.265269   L 42.9182,33.624797   L 42.9182,33.304561   L 42.597915,33.304561   L 42.27763,33.304561   L 41.957345,33.304561   L 41.957345,33.624797   L 41.63706,33.624797   L 41.316775,33.624797   L 40.99649,33.945033   L 40.676205,33.945033   L 40.676205,33.945033   L 40.35592,33.945033   L 40.35592,33.945033   L 40.035635,33.624797   L 39.71535,33.624797   L 39.71535,33.945033   L 39.395065,33.945033   L 39.07478,33.945033   L 39.07478,34.585506   L 39.07478,35.225978   L 39.395065,35.546214   L 39.71535,35.86645   L 40.035635,36.186686   L 40.676205,36.506923   L 40.99649,36.827159   L 41.316775,37.147395   L 41.316775,37.467631   L 41.316775,37.787867   L 40.99649,38.108103   L 40.99649,38.108103   L 40.676205,38.428339   L 40.676205,38.748576   L 40.35592,39.068812   L 40.035635,39.389048   L 39.71535,39.389048   L 39.395065,39.389048   L 39.07478,39.389048   L 38.434209,39.068812   L 38.113924,38.748576   L 37.793639,38.748576   L 37.473354,39.068812   L 36.832784,39.389048   L 37.153069,39.709284   L 37.473354,39.709284   L 38.113924,39.709284   L 38.754494,39.709284   L 39.07478,39.709284   L 39.71535,39.709284   L 40.35592,39.709284   L 40.676205,39.709284   L 40.99649,39.709284   L 41.316775,40.02952   L 41.63706,40.02952   L 41.63706,40.349756   L 41.957345,40.349756   L 41.957345,40.669993   L 41.957345,40.669993   L 41.957345,40.990229   L 41.63706,41.630701   L 41.316775,41.950937   L 40.99649,41.950937   L 40.676205,42.271173   L 40.035635,42.271173   L 39.395065,42.271173   L 39.07478,42.271173   L 38.434209,42.59141   L 38.434209,42.59141   L 38.754494,42.911646   L 38.754494,42.911646   L 39.07478,43.231882   L 39.07478,43.552118   L 39.07478,43.872354   L 38.754494,44.19259   L 38.754494,44.512827   L 39.07478,44.19259   L 39.395065,43.872354   L 40.035635,43.552118   L 40.35592,43.231882   L 40.99649,43.231882   L 41.63706,42.911646   L 42.27763,42.911646   L 42.9182,43.231882   L 42.9182,43.231882   L 43.238486,43.552118   L 43.238486,43.872354   L 43.238486,44.19259   L 43.238486,44.833063   L 42.9182,45.153299   L 42.9182,45.473535   L 42.9182,46.114007   L 42.597915,46.114007   L 42.597915,46.114007   L 42.597915,46.434244   L 42.597915,46.434244   L 42.597915,46.434244   L 42.597915,46.434244   L 42.597915,46.434244   L 42.9182,46.114007  z "
     style="fill:#ff99cc;fill-rule:evenodd;fill-opacity:1;stroke:none;" />
  <path
     id="path27"
     d="  M 97.046379,45.473535   L 98.647804,45.473535   L 100.24923,45.473535   L 102.17094,45.473535   L 103.77237,45.153299   L 105.37379,44.833063   L 106.97522,44.19259   L 108.57664,43.231882   L 109.5375,41.630701   L 110.17807,40.669993   L 110.81864,39.709284   L 111.13892,38.428339   L 111.45921,37.147395   L 111.45921,35.86645   L 111.45921,34.585506   L 111.45921,33.304561   L 111.13892,32.023616   L 110.49835,30.742672   L 109.5375,29.781963   L 108.57664,28.821255   L 107.2955,28.180782   L 105.69408,27.54031   L 104.41294,27.220074   L 102.81151,26.899838   L 101.21008,26.579601   L 100.24923,26.899838   L 99.288374,27.220074   L 98.327519,27.860546   L 97.366664,28.180782   L 96.726094,28.501018   L 95.765238,29.141491   L 95.124668,29.781963   L 94.163813,30.102199   L 93.202958,31.383144   L 92.562388,32.664089   L 91.921817,34.265269   L 91.601532,35.86645   L 91.601532,37.467631   L 91.601532,39.068812   L 92.242102,40.669993   L 93.202958,42.59141   L 93.843528,42.911646   L 94.163813,43.231882   L 94.484098,43.872354   L 94.804383,44.19259   L 95.124668,44.512827   L 95.444953,44.833063   L 96.085523,45.473535   L 96.405808,45.473535   L 96.405808,45.473535   L 96.405808,45.473535   L 96.405808,45.473535   L 96.726094,45.473535   L 96.726094,45.473535   L 96.726094,45.473535   L 97.046379,45.473535   L 97.046379,45.473535  z "
     style="fill:#000000;fill-rule:evenodd;fill-opacity:1;stroke:none;" />
  <path
     id="path29"
     d="  M 100.24923,43.552118   L 100.24923,43.552118   L 100.24923,43.552118   L 100.24923,43.552118   L 100.56951,43.552118   L 100.56951,43.552118   L 100.8898,43.552118   L 100.8898,43.552118   L 101.21008,43.552118   L 101.21008,42.911646   L 101.21008,42.271173   L 101.21008,41.630701   L 101.21008,40.669993   L 101.53037,40.349756   L 101.53037,39.709284   L 102.17094,39.068812   L 102.49122,38.748576   L 102.81151,38.428339   L 102.81151,38.428339   L 103.1318,38.428339   L 103.1318,38.428339   L 103.45208,38.428339   L 103.77237,38.428339   L 103.77237,38.428339   L 104.09265,38.748576   L 104.09265,38.748576   L 104.41294,39.068812   L 104.41294,39.709284   L 104.41294,40.02952   L 104.41294,40.349756   L 104.41294,40.990229   L 104.41294,41.310465   L 104.73322,41.630701   L 104.73322,41.950937   L 105.05351,41.950937   L 105.37379,41.950937   L 105.69408,41.950937   L 106.01436,41.950937   L 106.33465,41.630701   L 106.65493,41.310465   L 106.65493,40.990229   L 105.37379,38.748576   L 105.37379,38.428339   L 105.37379,38.108103   L 105.37379,38.108103   L 105.69408,37.787867   L 105.69408,37.787867   L 106.01436,37.467631   L 106.01436,37.147395   L 106.01436,36.827159   L 106.01436,36.827159   L 106.01436,36.506923   L 105.69408,36.506923   L 105.69408,36.186686   L 105.69408,35.86645   L 105.69408,35.86645   L 105.69408,35.546214   L 106.01436,35.225978   L 108.57664,34.265269   L 108.57664,34.265269   L 108.57664,34.265269   L 108.57664,33.945033   L 108.57664,33.945033   L 108.89693,33.945033   L 108.89693,33.624797   L 108.89693,33.624797   L 108.89693,33.304561   L 108.89693,32.984325   L 108.89693,32.984325   L 108.89693,32.664089   L 108.89693,32.343852   L 108.57664,32.343852   L 108.57664,32.023616   L 108.25636,32.023616   L 107.93607,32.023616   L 106.01436,33.945033   L 105.37379,33.624797   L 105.05351,33.624797   L 104.73322,33.624797   L 104.73322,33.304561   L 104.41294,32.984325   L 104.41294,32.664089   L 104.09265,32.343852   L 104.09265,32.023616   L 104.09265,31.70338   L 104.09265,31.70338   L 104.09265,31.383144   L 104.41294,31.062908   L 104.41294,30.742672   L 104.41294,30.422435   L 104.41294,30.102199   L 104.41294,29.781963   L 104.09265,29.461727   L 103.77237,29.781963   L 103.45208,29.781963   L 103.45208,30.102199   L 103.45208,30.422435   L 103.77237,30.742672   L 103.77237,31.062908   L 104.09265,31.383144   L 103.77237,31.70338   L 103.77237,32.023616   L 103.77237,32.343852   L 103.45208,32.343852   L 103.45208,32.664089   L 103.1318,32.664089   L 102.81151,32.984325   L 102.49122,32.984325   L 102.49122,32.984325   L 102.49122,32.984325   L 102.17094,32.984325   L 102.17094,32.984325   L 101.85065,32.984325   L 101.53037,32.984325   L 101.53037,32.984325   L 101.21008,32.664089   L 101.21008,32.664089   L 100.8898,32.343852   L 100.8898,32.023616   L 100.8898,31.70338   L 100.8898,31.383144   L 100.8898,31.062908   L 100.8898,30.422435   L 100.8898,30.102199   L 98.007234,30.422435   L 98.007234,30.422435   L 98.007234,30.742672   L 98.007234,30.742672   L 98.007234,30.742672   L 97.686949,30.742672   L 97.686949,31.062908   L 97.686949,31.383144   L 97.366664,31.383144   L 99.288374,33.945033   L 99.288374,34.265269   L 98.968089,34.585506   L 98.968089,34.905742   L 98.647804,35.225978   L 98.327519,35.546214   L 98.007234,35.546214   L 97.686949,35.86645   L 97.366664,35.86645   L 97.046379,35.86645   L 96.726094,35.86645   L 96.405808,35.546214   L 96.405808,35.225978   L 96.085523,35.225978   L 95.765238,34.905742   L 95.444953,34.905742   L 94.804383,34.905742   L 94.804383,35.225978   L 94.804383,35.546214   L 95.124668,36.186686   L 95.765238,36.506923   L 96.405808,36.827159   L 97.046379,37.147395   L 97.366664,37.787867   L 97.366664,38.748576   L 97.366664,38.748576   L 97.366664,39.068812   L 97.366664,39.068812   L 97.046379,39.389048   L 97.046379,39.389048   L 96.726094,39.709284   L 96.726094,39.709284   L 96.405808,40.02952   L 96.405808,40.349756   L 96.405808,40.669993   L 96.085523,40.669993   L 96.085523,40.990229   L 96.085523,41.310465   L 96.085523,41.630701   L 96.085523,41.950937   L 96.405808,42.271173   L 96.405808,41.950937   L 96.726094,41.950937   L 96.726094,41.630701   L 96.726094,41.630701   L 96.726094,41.310465   L 96.726094,41.310465   L 96.726094,40.990229   L 97.046379,40.669993   L 97.366664,40.669993   L 97.366664,40.349756   L 97.686949,40.02952   L 98.007234,40.02952   L 98.327519,39.709284   L 98.647804,39.389048   L 98.968089,39.389048   L 99.608659,39.389048   L 99.608659,39.389048   L 99.928944,39.709284   L 99.928944,40.02952   L 100.24923,40.349756   L 100.24923,40.669993   L 100.24923,40.990229   L 100.56951,41.310465   L 100.56951,41.630701   L 100.24923,41.950937   L 100.24923,41.950937   L 100.24923,42.271173   L 99.928944,42.271173   L 99.928944,42.59141   L 99.608659,42.911646   L 99.608659,43.231882   L 99.608659,43.552118   L 99.608659,43.552118   L 99.608659,43.552118   L 99.608659,43.552118   L 99.928944,43.552118   L 99.928944,43.552118   L 99.928944,43.552118   L 100.24923,43.552118   L 100.24923,43.552118  z "
     style="fill:#ff99cc;fill-rule:evenodd;fill-opacity:1;stroke:none;" />
  <path
     id="path31"
     d="  M 108.89693,38.428339   L 108.89693,38.428339   L 109.21721,38.108103   L 109.21721,38.108103   L 109.21721,38.108103   L 109.21721,37.787867   L 109.5375,37.787867   L 109.5375,37.467631   L 109.5375,37.147395   L 109.5375,37.147395   L 109.21721,36.827159   L 109.21721,36.827159   L 108.89693,36.827159   L 108.57664,37.147395   L 108.25636,37.147395   L 108.25636,37.467631   L 107.93607,37.467631   L 107.93607,37.467631   L 107.93607,37.787867   L 107.93607,38.108103   L 108.25636,38.108103   L 108.25636,38.428339   L 108.57664,38.428339   L 108.57664,38.428339   L 108.89693,38.428339  z "
     style="fill:#ffffff;fill-rule:evenodd;fill-opacity:1;stroke:none;" />
  <path
     id="path33"
     d="  M 137.4023,26.259365   L 137.08201,23.057004   L 137.4023,26.259365  z "
     style="fill:#ffffff;fill-rule:evenodd;fill-opacity:1;stroke:none;" />
  <path
     id="path35"
     d="  M 136.12116,15.371336   L 134.51973,6.4047232   L 135.80087,15.691572   L 135.80087,15.691572   L 136.12116,15.691572   L 136.12116,15.691572   L 136.12116,15.691572   L 136.12116,15.371336   L 136.12116,15.371336   L 136.12116,15.371336   L 136.12116,15.371336  z "
     style="fill:#ffffff;fill-rule:evenodd;fill-opacity:1;stroke:none;" />
</svg>
