<?xml version="1.0" encoding="UTF-8" standalone="no"?>
<svg
   xmlns:dc="http://purl.org/dc/elements/1.1/"
   xmlns:cc="http://creativecommons.org/ns#"
   xmlns:rdf="http://www.w3.org/1999/02/22-rdf-syntax-ns#"
   xmlns:svg="http://www.w3.org/2000/svg"
   xmlns="http://www.w3.org/2000/svg"
   id="svg101"
   height="49.936398mm"
   width="96.316803mm"
   version="1.0">
  <metadata
     id="metadata105">
    <rdf:RDF>
      <cc:Work
         rdf:about="">
        <dc:format>image/svg+xml</dc:format>
        <dc:type
           rdf:resource="http://purl.org/dc/dcmitype/StillImage" />
        <dc:title></dc:title>
      </cc:Work>
    </rdf:RDF>
  </metadata>
  <defs
     id="defs3">
    <pattern
       y="0"
       x="0"
       height="6"
       width="6"
       patternUnits="userSpaceOnUse"
       id="WMFhbasepattern" />
  </defs>
  <path
     id="path5"
     d="  M 73.554728,188.64   L 25.584253,62.132699   L 34.538742,58.28944   L 43.813033,54.125908   L 53.407128,50.282649   L 63.321026,46.119117   L 68.437877,44.517759   L 73.234924,42.596129   L 78.351775,41.315042   L 83.788429,40.033956   L 88.905279,38.752869   L 94.341933,37.792054   L 99.458784,37.471783   L 104.89544,37.151511   L 116.40835,84.551715   L 228.65926,78.786825   L 235.37513,33.948795   L 242.09099,32.98798   L 248.48706,32.667708   L 255.20292,32.347436   L 261.59899,32.347436   L 268.31485,32.667708   L 275.03072,32.98798   L 281.42678,33.628523   L 288.14265,34.589338   L 294.85852,35.550153   L 301.25458,36.831239   L 307.97045,38.112326   L 314.36651,39.713684   L 321.08238,41.635314   L 327.47844,43.556944   L 333.8745,45.798846   L 340.27057,48.040747   L 300.61497,153.73039   L 299.01596,156.93311   L 298.05655,160.13582   L 297.41694,163.33854   L 297.09714,166.54126   L 296.77734,169.4237   L 296.45753,172.30615   L 295.81793,175.18859   L 294.85852,178.07104   L 267.99505,178.71158   L 240.81178,179.03185   L 213.62851,179.35212   L 186.12544,179.99267   L 172.37391,180.31294   L 158.94217,180.95348   L 145.19064,181.59402   L 131.1193,182.55484   L 117.36776,183.51565   L 103.61622,185.11701   L 89.864689,186.71837   L 76.113153,188.64   L 73.554728,188.64  z "
     style="fill:#000000;fill-rule:evenodd;fill-opacity:1;stroke:none;" />
  <path
     id="path7"
     d="  M 76.752759,184.1562   L 34.538742,61.492156   L 99.138981,42.916401   L 102.33701,51.243463   L 104.89544,59.250255   L 107.45386,67.577317   L 109.37268,75.90438   L 111.2915,84.231443   L 112.57071,92.558506   L 114.16973,100.88557   L 115.44894,109.21263   L 117.68756,126.18703   L 120.24599,143.16143   L 121.84501,151.80876   L 123.44402,160.13582   L 125.04304,168.78316   L 127.28166,177.43049   L 76.752759,184.1562  z "
     style="fill:#ff0000;fill-rule:evenodd;fill-opacity:1;stroke:none;" />
  <path
     id="path9"
     d="  M 131.1193,178.71158   L 117.04796,91.917963   L 123.76382,90.636876   L 130.47969,89.035518   L 137.19556,88.074703   L 143.91142,87.113888   L 157.34316,85.51253   L 170.77489,84.871986   L 184.52643,84.551715   L 197.95816,84.551715   L 211.70969,85.192258   L 225.14143,85.832801   L 221.9434,171.02506   L 220.66418,171.6656   L 219.06517,172.30615   L 217.14635,172.94669   L 215.54733,173.58723   L 211.70969,174.22778   L 207.55225,174.54805   L 203.39481,175.18859   L 198.91757,175.82913   L 194.76013,176.46968   L 190.60269,178.07104   L 131.1193,178.71158  z "
     style="fill:#ffff00;fill-rule:evenodd;fill-opacity:1;stroke:none;" />
  <path
     id="path11"
     d="  M 228.65926,177.43049   L 237.29395,39.073141   L 243.0504,37.471783   L 248.80686,36.510968   L 254.56332,36.190696   L 260.31978,35.870424   L 266.07623,35.870424   L 271.83269,36.510968   L 277.58915,37.151511   L 283.3456,38.112326   L 295.17832,40.674499   L 306.69123,43.556944   L 318.20415,46.439389   L 330.03686,49.321834   L 329.07746,56.688081   L 327.47844,64.054329   L 325.55962,71.420577   L 323.321,79.107097   L 317.88434,94.480136   L 311.80808,110.17345   L 305.41202,125.86676   L 299.97537,141.88034   L 297.41694,150.2074   L 295.17832,158.21419   L 293.5793,166.54126   L 292.30009,174.86832   L 228.65926,177.43049  z "
     style="fill:#ff00ff;fill-rule:evenodd;fill-opacity:1;stroke:none;" />
  <path
     id="path13"
     d="  M 143.27182,167.82234   L 141.353,166.22098   L 141.9926,160.4561   L 142.95201,159.81555   L 144.23123,159.49528   L 145.83024,159.17501   L 147.42926,159.49528   L 148.70847,160.13582   L 149.98768,160.77637   L 150.94709,161.73718   L 151.5867,163.33854   L 143.27182,167.82234  z "
     style="fill:#000000;fill-rule:evenodd;fill-opacity:1;stroke:none;" />
  <path
     id="path15"
     d="  M 158.62237,166.22098   L 154.78473,162.37772   L 160.54119,157.57365   L 166.29764,162.05745   L 165.01843,165.26017   L 158.62237,166.22098  z "
     style="fill:#000000;fill-rule:evenodd;fill-opacity:1;stroke:none;" />
  <path
     id="path17"
     d="  M 175.25213,166.22098   L 170.13528,162.37772   L 171.4145,158.85474   L 172.69371,157.57365   L 174.29272,156.61284   L 175.89174,156.29256   L 177.81056,156.29256   L 179.72938,156.61284   L 181.32839,157.57365   L 182.2878,158.21419   L 182.60761,158.85474   L 183.24721,159.81555   L 183.56702,160.4561   L 182.92741,163.97908   L 175.25213,166.22098  z "
     style="fill:#000000;fill-rule:evenodd;fill-opacity:1;stroke:none;" />
  <path
     id="path19"
     d="  M 198.27796,166.22098   L 197.63836,133.87355   L 198.59776,132.59246   L 199.55717,131.95192   L 200.83639,131.63165   L 202.1156,131.31138   L 203.39481,131.31138   L 204.99383,131.31138   L 206.59284,131.31138   L 207.87206,130.9911   L 211.07009,163.97908   L 209.79088,164.61963   L 208.19186,164.9399   L 206.59284,165.26017   L 204.99383,165.26017   L 203.39481,165.26017   L 201.7958,165.26017   L 199.87698,165.58044   L 198.27796,166.22098  z "
     style="fill:#000000;fill-rule:evenodd;fill-opacity:1;stroke:none;" />
  <path
     id="path21"
     d="  M 85.707248,165.58044   L 83.148822,165.26017   L 80.9102,164.29935   L 79.311185,163.01827   L 77.392366,161.41691   L 76.113153,159.81555   L 74.83394,157.89392   L 73.554728,155.65202   L 72.275515,153.73039   L 71.635909,150.84795   L 70.996302,148.28577   L 70.676499,145.7236   L 70.676499,143.16143   L 70.996302,140.59925   L 71.316105,138.03708   L 71.635909,135.47491   L 72.595318,132.91273   L 73.554728,130.67083   L 74.514137,128.42893   L 75.79335,126.18703   L 77.072562,123.94513   L 78.351775,122.0235   L 80.270594,120.42214   L 81.86961,118.50051   L 83.788429,117.21942   L 85.387445,115.61806   L 87.626067,114.65725   L 89.544886,114.01671   L 91.783508,114.01671   L 94.341933,114.33698   L 96.580555,114.65725   L 98.819178,115.29779   L 101.0578,115.93834   L 102.97662,116.89915   L 105.21524,118.50051   L 106.81426,120.10187   L 108.41327,122.0235   L 110.01229,124.2654   L 110.9717,126.82757   L 111.93111,129.06947   L 112.57071,131.95192   L 101.69741,160.4561   L 100.09839,161.41691   L 98.179571,162.05745   L 96.260752,163.01827   L 94.341933,163.65881   L 92.423114,164.29935   L 90.184492,164.9399   L 87.94587,165.26017   L 85.707248,165.58044  z "
     style="fill:#000000;fill-rule:evenodd;fill-opacity:1;stroke:none;" />
  <path
     id="path23"
     d="  M 260.31978,165.26017   L 257.44155,164.61963   L 254.88312,163.97908   L 252.00489,163.01827   L 249.44647,161.73718   L 247.20785,160.4561   L 244.96922,158.85474   L 243.0504,156.61284   L 241.77119,154.05066   L 240.49198,121.38295   L 265.43663,105.68964   L 268.63466,105.68964   L 271.51289,106.00992   L 274.71092,106.65046   L 277.90895,107.61127   L 280.78718,108.89236   L 283.3456,110.81399   L 285.58422,112.73562   L 287.18324,115.29779   L 288.14265,119.7816   L 289.10206,124.58567   L 289.74167,130.03029   L 289.74167,135.47491   L 289.74167,138.03708   L 289.42186,140.59925   L 288.78226,143.4817   L 288.14265,146.04387   L 287.18324,148.60604   L 286.22383,150.84795   L 284.94462,153.41012   L 283.3456,155.65202   L 281.42678,157.89392   L 279.18816,159.81555   L 276.62974,161.41691   L 273.75151,162.698   L 270.55348,163.65881   L 267.35544,164.61963   L 263.83761,164.9399   L 260.31978,165.26017  z "
     style="fill:#000000;fill-rule:evenodd;fill-opacity:1;stroke:none;" />
  <path
     id="path25"
     d="  M 145.19064,164.29935   L 143.27182,163.97908   L 143.59162,163.33854   L 143.91142,162.698   L 144.87083,162.05745   L 145.51044,161.41691   L 146.46985,161.41691   L 147.10946,161.41691   L 147.74906,162.05745   L 147.74906,163.33854   L 145.19064,164.29935  z "
     style="fill:#ffffff;fill-rule:evenodd;fill-opacity:1;stroke:none;" />
  <path
     id="path27"
     d="  M 158.62237,163.97908   L 163.73922,162.37772   L 158.62237,163.97908  z "
     style="fill:#ffffff;fill-rule:evenodd;fill-opacity:1;stroke:none;" />
  <path
     id="path29"
     d="  M 85.707248,163.33854   L 84.428035,162.37772   L 82.829019,161.73718   L 81.86961,160.77637   L 80.590397,159.49528   L 78.671578,156.93311   L 77.072562,154.05066   L 76.113153,150.84795   L 75.473547,147.32496   L 75.153743,143.80197   L 75.473547,139.95871   L 75.79335,137.39654   L 76.432956,134.51409   L 77.392366,131.63165   L 78.351775,129.06947   L 79.950791,126.5073   L 81.549807,123.94513   L 83.468626,121.38295   L 85.707248,119.14105   L 87.626067,118.18024   L 89.864689,117.53969   L 92.103311,117.21942   L 94.341933,116.89915   L 96.580555,117.21942   L 98.819178,117.53969   L 101.0578,118.50051   L 102.97662,119.7816   L 105.21524,121.38295   L 106.81426,123.30458   L 108.09347,125.54649   L 108.73308,128.10866   L 109.05288,130.9911   L 109.37268,133.87355   L 109.05288,136.75599   L 108.73308,139.63844   L 93.382524,161.41691   L 85.707248,163.33854  z "
     style="fill:#ffffff;fill-rule:evenodd;fill-opacity:1;stroke:none;" />
  <path
     id="path31"
     d="  M 260.95938,163.33854   L 257.76135,162.698   L 254.88312,161.41691   L 252.00489,160.13582   L 249.76627,158.21419   L 247.84745,155.97229   L 245.92863,153.41012   L 244.64942,150.52767   L 243.69001,147.32496   L 242.7306,145.08306   L 242.09099,142.52088   L 241.13159,139.95871   L 240.81178,137.71681   L 240.81178,135.15463   L 240.81178,132.59246   L 241.77119,130.35056   L 243.0504,128.10866   L 261.59899,110.17345   L 264.47722,109.85317   L 267.35544,109.85317   L 270.23367,109.85317   L 273.1119,110.17345   L 275.67033,110.81399   L 277.90895,111.7748   L 279.18816,112.73562   L 280.14757,113.69643   L 280.78718,114.65725   L 281.42678,115.93834   L 282.706,116.89915   L 283.66541,117.85997   L 284.62482,119.14105   L 285.26442,120.74241   L 286.54363,123.62486   L 287.18324,126.82757   L 287.18324,130.35056   L 287.18324,133.87355   L 286.86344,137.39654   L 286.54363,140.59925   L 277.58915,157.57365   L 260.95938,163.33854  z "
     style="fill:#ffffff;fill-rule:evenodd;fill-opacity:1;stroke:none;" />
  <path
     id="path33"
     d="  M 175.25213,162.37772   L 173.97292,161.41691   L 174.29272,160.4561   L 174.93233,159.49528   L 175.89174,158.85474   L 176.85115,158.21419   L 178.13036,158.21419   L 179.08977,158.53447   L 180.04918,159.17501   L 180.36898,160.4561   L 175.25213,162.37772  z "
     style="fill:#ffffff;fill-rule:evenodd;fill-opacity:1;stroke:none;" />
  <path
     id="path35"
     d="  M 205.95324,162.05745   L 202.1156,160.4561   L 201.47599,157.89392   L 200.83639,155.01148   L 200.83639,151.80876   L 201.15619,148.60604   L 201.47599,145.40333   L 201.7958,142.20061   L 201.7958,138.67762   L 201.47599,135.79518   L 206.59284,134.51409   L 205.95324,162.05745  z "
     style="fill:#ffffff;fill-rule:evenodd;fill-opacity:1;stroke:none;" />
  <path
     id="path37"
     d="  M 88.905279,149.24659   L 87.626067,147.9655   L 86.98646,147.00469   L 86.027051,145.40333   L 85.707248,144.12224   L 85.387445,142.52088   L 85.387445,140.91952   L 85.707248,139.31817   L 86.346854,137.71681   L 86.98646,136.43572   L 87.626067,135.47491   L 88.905279,134.51409   L 89.864689,133.55328   L 91.463705,132.91273   L 93.062721,132.59246   L 94.661736,132.27219   L 96.580555,132.59246   L 97.859768,133.87355   L 98.819178,135.47491   L 99.138981,137.39654   L 99.138981,139.31817   L 99.138981,141.2398   L 98.499374,142.84115   L 97.859768,144.44251   L 96.580555,146.04387   L 88.905279,149.24659  z "
     style="fill:#000000;fill-rule:evenodd;fill-opacity:1;stroke:none;" />
  <path
     id="path39"
     d="  M 135.59654,147.32496   L 134.63713,146.68441   L 133.67772,146.04387   L 133.03812,145.08306   L 132.71831,143.80197   L 132.07871,142.52088   L 132.07871,141.2398   L 132.07871,139.63844   L 132.39851,138.35735   L 136.23615,133.87355   L 145.19064,138.35735   L 145.19064,139.95871   L 144.55103,141.88034   L 143.91142,143.4817   L 142.63221,144.76278   L 141.0332,146.04387   L 139.43418,146.68441   L 137.51536,147.32496   L 135.59654,147.32496  z "
     style="fill:#000000;fill-rule:evenodd;fill-opacity:1;stroke:none;" />
  <path
     id="path41"
     d="  M 259.68017,147.32496   L 254.56332,138.35735   L 254.88312,136.75599   L 255.20292,135.47491   L 256.16233,133.87355   L 257.12174,132.91273   L 258.08115,131.63165   L 259.36037,130.67083   L 260.95938,129.71002   L 262.23859,129.38975   L 263.83761,129.06947   L 265.11682,129.06947   L 266.39604,129.38975   L 267.35544,130.03029   L 268.31485,130.9911   L 269.27426,131.95192   L 269.91387,133.23301   L 270.55348,134.51409   L 270.87328,136.75599   L 270.55348,138.99789   L 269.91387,141.2398   L 268.95446,143.16143   L 267.35544,144.76278   L 265.75643,146.04387   L 263.51781,147.00469   L 260.95938,147.32496   L 259.68017,147.32496  z "
     style="fill:#000000;fill-rule:evenodd;fill-opacity:1;stroke:none;" />
  <path
     id="path43"
     d="  M 91.463705,146.36414   L 94.02213,136.43572   L 94.661736,137.07626   L 94.98154,138.35735   L 94.98154,139.63844   L 94.661736,141.56007   L 94.02213,143.16143   L 93.382524,144.44251   L 92.423114,145.7236   L 91.463705,146.36414  z "
     style="fill:#ffffff;fill-rule:evenodd;fill-opacity:1;stroke:none;" />
  <path
     id="path45"
     d="  M 89.544886,146.04387   L 88.905279,145.40333   L 88.265673,144.76278   L 88.265673,143.80197   L 88.265673,142.84115   L 88.585476,141.88034   L 88.905279,140.59925   L 89.225083,139.31817   L 89.544886,138.35735   L 90.824098,138.35735   L 91.463705,138.99789   L 91.463705,139.63844   L 91.463705,140.59925   L 91.143902,141.56007   L 90.824098,142.52088   L 90.504295,143.80197   L 90.184492,144.76278   L 89.544886,146.04387  z "
     style="fill:#ffffff;fill-rule:evenodd;fill-opacity:1;stroke:none;" />
  <path
     id="path47"
     d="  M 136.23615,144.76278   L 135.59654,142.84115   L 139.43418,136.75599   L 141.353,139.63844   L 136.23615,144.76278  z "
     style="fill:#ffffff;fill-rule:evenodd;fill-opacity:1;stroke:none;" />
  <path
     id="path49"
     d="  M 153.50552,144.76278   L 147.74906,138.99789   L 148.06886,137.07626   L 148.70847,135.47491   L 149.66788,134.19382   L 150.94709,132.91273   L 152.54611,132.27219   L 154.14512,131.95192   L 156.06394,131.95192   L 157.98276,132.59246   L 163.73922,138.35735   L 163.41942,139.63844   L 162.77981,140.91952   L 161.8204,141.88034   L 160.86099,142.52088   L 159.58178,143.16143   L 157.98276,143.80197   L 156.38375,144.12224   L 154.78473,144.76278   L 153.50552,144.76278  z "
     style="fill:#000000;fill-rule:evenodd;fill-opacity:1;stroke:none;" />
  <path
     id="path51"
     d="  M 260.31978,144.12224   L 258.40096,142.84115   L 258.40096,134.83436   L 259.04056,134.19382   L 259.99997,133.87355   L 261.27918,133.23301   L 262.5584,132.91273   L 263.83761,132.91273   L 264.79702,133.23301   L 266.07623,133.55328   L 267.03564,134.51409   L 260.31978,144.12224  z "
     style="fill:#ffffff;fill-rule:evenodd;fill-opacity:1;stroke:none;" />
  <path
     id="path53"
     d="  M 170.13528,143.4817   L 169.49568,142.52088   L 168.85607,140.91952   L 168.53627,139.31817   L 168.21646,137.71681   L 168.21646,135.79518   L 168.85607,134.51409   L 169.17587,133.87355   L 169.81548,133.23301   L 170.45509,132.91273   L 171.4145,132.59246   L 172.37391,133.23301   L 173.33331,134.19382   L 173.97292,135.79518   L 174.29272,137.71681   L 174.29272,139.63844   L 173.65312,141.2398   L 173.33331,141.88034   L 172.69371,142.52088   L 172.0541,143.16143   L 171.4145,143.4817   L 170.13528,143.4817  z "
     style="fill:#000000;fill-rule:evenodd;fill-opacity:1;stroke:none;" />
  <path
     id="path55"
     d="  M 152.22631,141.56007   L 151.2669,140.91952   L 150.94709,140.27898   L 150.94709,139.63844   L 151.5867,138.99789   L 152.22631,138.67762   L 152.86591,138.03708   L 153.50552,137.39654   L 154.14512,136.75599   L 154.46493,136.43572   L 155.10453,136.11545   L 155.74414,135.79518   L 156.38375,136.11545   L 157.34316,136.43572   L 157.98276,136.75599   L 158.62237,137.07626   L 159.26198,137.71681   L 159.26198,138.67762   L 158.62237,139.31817   L 158.30257,139.95871   L 157.34316,140.27898   L 156.70355,140.27898   L 155.74414,140.59925   L 155.10453,140.91952   L 154.14512,141.56007   L 152.22631,141.56007  z "
     style="fill:#ffffff;fill-rule:evenodd;fill-opacity:1;stroke:none;" />
  <path
     id="path57"
     d="  M 33.899135,138.35735   L 32.619923,137.71681   L 31.660513,136.75599   L 31.020907,135.47491   L 30.381301,133.87355   L 30.061497,132.27219   L 30.061497,130.67083   L 30.061497,129.06947   L 30.061497,127.14784   L 30.701104,126.18703   L 31.34071,124.58567   L 31.980316,123.30458   L 32.619923,121.70323   L 32.939726,120.42214   L 32.939726,118.82078   L 31.980316,117.21942   L 30.701104,115.93834   L 22.386221,103.12747   L 22.706025,101.84638   L 23.985237,100.5653   L 25.26445,99.604482   L 26.863466,98.643667   L 28.462482,98.003124   L 30.061497,97.362581   L 31.980316,97.362581   L 33.259529,98.003124   L 32.939726,98.963939   L 31.980316,99.604482   L 30.701104,100.24503   L 29.421891,100.88557   L 28.142678,101.20584   L 27.183269,102.16666   L 27.183269,102.8072   L 26.863466,103.44774   L 27.183269,104.08829   L 27.503072,105.0491   L 36.457561,104.40856   L 30.701104,108.25182   L 32.30012,111.7748   L 34.218938,115.29779   L 36.137757,119.14105   L 38.056576,123.30458   L 38.696183,125.22621   L 39.015986,127.14784   L 39.015986,129.06947   L 39.015986,130.9911   L 38.37638,132.91273   L 37.41697,134.83436   L 35.817954,136.43572   L 33.899135,138.35735  z "
     style="fill:#000000;fill-rule:evenodd;fill-opacity:1;stroke:none;" />
  <path
     id="path59"
     d="  M 131.1193,126.18703   L 136.87575,124.2654   L 131.1193,126.18703  z "
     style="fill:#000000;fill-rule:evenodd;fill-opacity:1;stroke:none;" />
  <path
     id="path61"
     d="  M 140.71339,126.18703   L 141.353,124.90594   L 141.9926,124.2654   L 142.95201,123.62486   L 143.91142,123.30458   L 145.19064,123.30458   L 146.46985,123.30458   L 147.74906,123.62486   L 149.02827,124.2654   L 140.71339,126.18703  z "
     style="fill:#000000;fill-rule:evenodd;fill-opacity:1;stroke:none;" />
  <path
     id="path63"
     d="  M 153.50552,125.54649   L 159.90158,123.62486   L 153.50552,125.54649  z "
     style="fill:#000000;fill-rule:evenodd;fill-opacity:1;stroke:none;" />
  <path
     id="path65"
     d="  M 42.214018,124.2654   L 41.574411,119.14105   L 42.214018,124.2654  z "
     style="fill:#000000;fill-rule:evenodd;fill-opacity:1;stroke:none;" />
  <path
     id="path67"
     d="  M 131.7589,122.34377   L 131.1193,121.38295   L 130.47969,120.74241   L 129.84008,119.7816   L 129.52028,118.82078   L 128.88067,116.25861   L 128.56087,113.37616   L 128.56087,110.49372   L 128.56087,107.291   L 128.56087,104.40856   L 128.56087,101.52611   L 157.34316,99.924754   L 158.30257,101.84638   L 159.26198,104.08829   L 159.90158,106.65046   L 160.54119,108.89236   L 160.86099,111.7748   L 160.86099,114.33698   L 160.86099,116.89915   L 160.54119,119.7816   L 131.7589,122.34377  z "
     style="fill:#000000;fill-rule:evenodd;fill-opacity:1;stroke:none;" />
  <path
     id="path69"
     d="  M 173.33331,120.42214   L 175.25213,100.5653   L 173.33331,120.42214  z "
     style="fill:#000000;fill-rule:evenodd;fill-opacity:1;stroke:none;" />
  <path
     id="path71"
     d="  M 131.7589,119.7816   L 131.1193,103.76801   L 155.42434,101.52611   L 156.06394,103.12747   L 156.70355,104.40856   L 157.02335,106.33019   L 157.02335,107.93154   L 157.02335,109.85317   L 157.02335,111.7748   L 157.34316,113.37616   L 157.34316,115.29779   L 154.78473,116.57888   L 151.5867,117.85997   L 148.70847,118.50051   L 145.51044,118.82078   L 141.9926,119.14105   L 138.79457,119.46132   L 135.27674,119.46132   L 131.7589,119.7816  z "
     style="fill:#ffffff;fill-rule:evenodd;fill-opacity:1;stroke:none;" />
  <path
     id="path73"
     d="  M 188.04426,119.7816   L 189.96308,98.003124   L 188.04426,119.7816  z "
     style="fill:#000000;fill-rule:evenodd;fill-opacity:1;stroke:none;" />
  <path
     id="path75"
     d="  M 181.00859,118.50051   L 181.00859,98.003124   L 181.6482,100.5653   L 181.968,103.12747   L 182.60761,106.00992   L 182.92741,108.89236   L 182.92741,111.7748   L 182.92741,114.33698   L 182.2878,116.57888   L 181.00859,118.50051  z "
     style="fill:#000000;fill-rule:evenodd;fill-opacity:1;stroke:none;" />
  <path
     id="path77"
     d="  M 196.35914,118.50051   L 196.35914,98.003124   L 196.99875,100.24503   L 197.31855,102.8072   L 197.63836,105.0491   L 197.63836,107.291   L 197.63836,109.5329   L 197.63836,112.09508   L 197.95816,114.65725   L 198.27796,117.21942   L 196.35914,118.50051  z "
     style="fill:#000000;fill-rule:evenodd;fill-opacity:1;stroke:none;" />
  <path
     id="path79"
     d="  M 204.03442,116.57888   L 205.31363,96.722037   L 205.63343,98.643667   L 205.95324,101.20584   L 206.27304,103.76801   L 206.27304,106.33019   L 206.27304,108.89236   L 205.95324,111.7748   L 205.31363,114.33698   L 204.03442,116.57888  z "
     style="fill:#000000;fill-rule:evenodd;fill-opacity:1;stroke:none;" />
  <path
     id="path81"
     d="  M 103.61622,103.12747   L 93.382524,54.44618   L 103.61622,103.12747  z "
     style="fill:#000000;fill-rule:evenodd;fill-opacity:1;stroke:none;" />
  <path
     id="path83"
     d="  M 236.01473,103.12747   L 240.49198,44.197487   L 273.1119,42.916401   L 271.83269,43.556944   L 270.55348,44.197487   L 268.95446,44.517759   L 267.67525,44.838031   L 264.47722,44.838031   L 261.27918,44.517759   L 257.76135,44.517759   L 254.56332,44.197487   L 251.04548,44.517759   L 247.84745,45.478574   L 245.60883,48.040747   L 244.00981,51.243463   L 242.7306,54.44618   L 241.77119,57.969168   L 241.13159,61.492156   L 240.81178,65.015144   L 240.81178,68.858404   L 240.81178,72.701664   L 240.49198,80.708455   L 240.17218,88.394975   L 239.53257,92.238234   L 238.89296,96.081494   L 237.61375,99.604482   L 236.01473,103.12747  z "
     style="fill:#000000;fill-rule:evenodd;fill-opacity:1;stroke:none;" />
  <path
     id="path85"
     d="  M 340.91017,96.722037   L 338.99135,96.081494   L 338.67155,94.480136   L 338.67155,93.199049   L 338.99135,91.597691   L 339.95076,90.316604   L 340.91017,89.355789   L 341.86958,88.074703   L 343.14879,87.113888   L 344.1082,86.473345   L 349.86466,83.270628   L 348.58545,60.21107   L 363.936,51.243463   L 363.936,52.204278   L 363.6162,53.165093   L 363.29639,54.125908   L 362.65679,54.766452   L 361.37757,56.047538   L 359.45876,57.008353   L 357.85974,57.969168   L 356.26072,59.250255   L 355.30131,59.890798   L 354.66171,60.851613   L 354.34191,61.812428   L 353.7023,62.773243   L 354.34191,63.734058   L 354.66171,64.374601   L 355.30131,64.694873   L 355.62112,64.694873   L 356.58053,64.054329   L 357.53994,62.773243   L 358.81915,61.812428   L 359.77856,60.851613   L 360.41817,60.851613   L 361.05777,60.851613   L 361.37757,61.492156   L 362.01718,62.132699   L 360.73797,62.773243   L 359.77856,63.413786   L 358.81915,64.374601   L 357.85974,65.335416   L 356.26072,67.577317   L 355.30131,69.819219   L 354.34191,75.263837   L 353.3825,81.028727   L 353.06269,83.911171   L 352.42309,86.473345   L 351.78348,89.035518   L 350.50427,91.277419   L 348.90525,93.199049   L 346.98643,94.800407   L 345.70722,95.440951   L 344.42801,96.081494   L 342.82899,96.401766   L 340.91017,96.722037  z "
     style="fill:#000000;fill-rule:evenodd;fill-opacity:1;stroke:none;" />
  <path
     id="path87"
     d="  M 51.168506,85.832801   L 43.49323,78.146282   L 45.412049,69.178676   L 47.011065,68.538132   L 48.929884,68.217861   L 50.5289,68.217861   L 52.447719,68.217861   L 54.046735,68.858404   L 55.64575,69.498947   L 56.924963,70.459762   L 58.204176,71.740849   L 58.843782,72.701664   L 59.163585,73.662479   L 59.163585,75.263837   L 59.163585,76.865195   L 59.163585,78.466553   L 58.843782,80.067912   L 58.204176,81.348998   L 57.564569,82.309813   L 51.168506,85.832801  z "
     style="fill:#000000;fill-rule:evenodd;fill-opacity:1;stroke:none;" />
  <path
     id="path89"
     d="  M 51.808112,83.911171   L 50.848703,83.5909   L 49.889293,83.270628   L 49.249687,82.630085   L 48.610081,81.989542   L 47.650671,80.388183   L 46.691262,78.466553   L 46.691262,76.224652   L 46.691262,74.303022   L 47.330868,72.381392   L 48.610081,71.100306   L 52.447719,71.100306   L 53.407128,71.420577   L 54.046735,72.061121   L 54.686341,73.021935   L 55.006144,73.662479   L 55.325947,75.263837   L 55.325947,77.185467   L 54.686341,79.107097   L 54.046735,80.708455   L 52.767522,82.309813   L 51.808112,83.911171  z "
     style="fill:#ffffff;fill-rule:evenodd;fill-opacity:1;stroke:none;" />
  <path
     id="path91"
     d="  M 298.05655,77.505739   L 289.10206,72.381392   L 288.46245,70.139491   L 288.46245,68.217861   L 288.78226,66.296231   L 289.42186,64.374601   L 290.38127,62.452971   L 291.66049,60.851613   L 292.9397,59.250255   L 294.21891,57.648896   L 296.13773,57.328625   L 298.05655,57.008353   L 299.97537,57.328625   L 302.21399,57.648896   L 304.13281,57.969168   L 305.73182,58.609711   L 307.65064,59.570526   L 308.92986,60.851613   L 311.48828,67.897589   L 311.48828,69.178676   L 311.16848,70.459762   L 310.84867,71.420577   L 310.20907,72.381392   L 308.92986,73.662479   L 307.33084,74.623294   L 305.09222,75.263837   L 302.8536,75.90438   L 300.61497,76.544924   L 298.05655,77.505739  z "
     style="fill:#000000;fill-rule:evenodd;fill-opacity:1;stroke:none;" />
  <path
     id="path93"
     d="  M 298.05655,73.662479   L 292.9397,65.335416   L 293.2595,64.054329   L 293.89911,62.773243   L 294.85852,61.812428   L 296.13773,60.851613   L 297.41694,60.21107   L 298.69615,59.890798   L 300.29517,59.570526   L 301.89419,59.570526   L 307.65064,67.897589   L 307.33084,69.178676   L 306.69123,70.139491   L 305.41202,71.100306   L 304.45261,71.740849   L 302.8536,72.381392   L 301.25458,72.701664   L 299.65556,73.021935   L 298.05655,73.662479  z "
     style="fill:#ffffff;fill-rule:evenodd;fill-opacity:1;stroke:none;" />
  <path
     id="path95"
     d="  M 120.24599,64.694873   L 118.64697,63.734058   L 117.04796,62.452971   L 115.76875,60.531341   L 115.12914,58.609711   L 114.80934,56.688081   L 114.80934,54.44618   L 115.12914,52.204278   L 115.76875,49.962377   L 120.8856,49.962377   L 122.16481,47.400204   L 122.80441,44.838031   L 123.12422,42.275857   L 123.12422,39.393413   L 123.44402,36.831239   L 123.44402,34.269066   L 123.44402,31.386621   L 124.08363,28.824448   L 132.39851,38.432598   L 132.07871,38.752869   L 131.7589,39.073141   L 131.1193,39.393413   L 130.79949,39.073141   L 130.15989,38.752869   L 129.20048,37.792054   L 128.24107,36.831239   L 127.28166,35.550153   L 126.32225,34.589338   L 125.36284,33.948795   L 120.24599,64.694873  z "
     style="fill:#000000;fill-rule:evenodd;fill-opacity:1;stroke:none;" />
  <path
     id="path97"
     d="  M 204.03442,62.773243   L 196.35914,56.36781   L 198.91757,48.040747   L 207.23245,52.52455   L 219.38497,26.262275   L 226.42064,35.229881   L 221.9434,37.151511   L 221.30379,37.471783   L 220.66418,37.792054   L 220.34438,38.432598   L 220.34438,39.073141   L 220.66418,40.033956   L 221.30379,41.315042   L 221.9434,42.596129   L 222.2632,43.877216   L 222.583,44.517759   L 222.2632,45.158302   L 221.9434,45.478574   L 221.30379,46.119117   L 216.82654,40.354228   L 204.03442,62.773243  z "
     style="fill:#000000;fill-rule:evenodd;fill-opacity:1;stroke:none;" />
  <path
     id="path99"
     d="  M 62.041814,62.132699   L 61.722011,60.851613   L 62.041814,59.890798   L 62.361617,58.929983   L 63.321026,57.969168   L 64.280436,57.008353   L 65.239845,56.36781   L 66.519058,55.406995   L 67.798271,55.086723   L 90.184492,49.962377   L 62.041814,62.132699  z "
     style="fill:#000000;fill-rule:evenodd;fill-opacity:1;stroke:none;" />
</svg>
