<?xml version="1.0" encoding="UTF-8" standalone="no"?>
<svg
   xmlns:dc="http://purl.org/dc/elements/1.1/"
   xmlns:cc="http://creativecommons.org/ns#"
   xmlns:rdf="http://www.w3.org/1999/02/22-rdf-syntax-ns#"
   xmlns:svg="http://www.w3.org/2000/svg"
   xmlns="http://www.w3.org/2000/svg"
   id="svg95"
   height="171.09372mm"
   width="129.80825mm"
   version="1.0">
  <metadata
     id="metadata99">
    <rdf:RDF>
      <cc:Work
         rdf:about="">
        <dc:format>image/svg+xml</dc:format>
        <dc:type
           rdf:resource="http://purl.org/dc/dcmitype/StillImage" />
        <dc:title></dc:title>
      </cc:Work>
    </rdf:RDF>
  </metadata>
  <defs
     id="defs3">
    <pattern
       y="0"
       x="0"
       height="6"
       width="6"
       patternUnits="userSpaceOnUse"
       id="WMFhbasepattern" />
  </defs>
  <path
     id="path5"
     d="  M 349.37881,616.76371   L 399.79795,574.42887   L 400.44435,570.38928   L 402.70674,559.72478   L 406.10034,543.72803   L 410.78674,523.85327   L 415.95793,501.55477   L 421.93712,478.77152   L 428.23952,456.47301   L 434.86511,436.43667   L 441.9755,416.88509   L 450.21709,396.84875   L 458.45868,376.48924   L 466.70027,355.96816   L 473.48746,335.44707   L 478.98186,315.24915   L 482.05226,295.53598   L 482.37545,276.63072   L 475.42666,232.03371   L 464.43787,198.58596   L 451.02509,174.18687   L 436.64271,157.70537   L 422.74512,147.36403   L 410.94834,142.03178   L 402.70674,139.76961   L 399.79795,139.44645   L 331.76442,121.99544   L 335.15802,124.09603   L 344.53081,130.23619   L 357.6204,140.09278   L 372.64918,153.34261   L 387.19316,169.33937   L 399.95955,187.92146   L 408.52434,208.60413   L 411.10994,231.2258   L 408.20114,255.78647   L 402.70674,281.80139   L 395.59635,307.65473   L 387.67796,332.05382   L 379.75957,353.38282   L 373.13398,370.51066   L 368.44758,381.65991   L 366.83159,385.86108   L 366.83159,436.43667   L 365.70039,436.43667   L 362.62999,436.43667   L 357.782,436.27509   L 351.4796,435.95192   L 343.88441,434.82084   L 335.31962,433.20501   L 326.10843,430.61967   L 316.41244,427.06484   L 305.10046,422.70209   L 292.01087,419.47042   L 277.79009,416.88509   L 263.8925,415.26925   L 250.96452,413.815   L 240.46053,413.16867   L 233.35014,412.68392   L 230.76454,412.68392   L 231.08774,419.79359   L 231.57254,438.53726   L 231.08774,464.3906   L 228.82534,493.63718   L 223.16935,521.59111   L 213.79656,544.37436   L 199.09097,557.46261   L 178.2446,556.97786   L 156.91342,547.28286   L 141.39984,537.10311   L 130.57265,526.76177   L 123.94706,517.06677   L 120.06866,508.17969   L 118.61427,501.39319   L 118.29107,496.70727   L 118.45267,495.09144   L 127.66386,403.31208   L 29.734366,397.17191   L 29.087967,397.81825   L 27.471969,400.242   L 25.047972,404.28158   L 22.785574,410.42175   L 20.523177,418.33934   L 18.745579,428.84225   L 17.93758,441.60734   L 18.422379,456.95776   L 19.553578,472.63135   L 21.331176,487.01227   L 23.270374,499.45419   L 25.209572,510.11869   L 26.82557,518.52102   L 28.279968,524.82277   L 29.249567,528.70078   L 29.734366,530.15503   L 86.455902,545.66703   L 89.526299,601.25171   L 287.48607,631.14463   L 284.41568,577.49895   L 337.90522,583.8007   L 349.37881,616.76371  z "
     style="fill:#733300;fill-rule:evenodd;fill-opacity:1;stroke:none;" />
  <path
     id="path7"
     d="  M 103.90868,332.2154   L 110.69587,332.2154   L 117.80627,332.2154   L 124.59346,332.2154   L 131.70385,332.53857   L 138.65264,332.70015   L 145.60144,333.34649   L 152.55023,334.1544   L 159.66062,335.28549   L 169.51821,336.41657   L 178.5678,337.22449   L 186.80939,337.70924   L 195.05098,338.35557   L 202.96937,339.0019   L 211.37256,340.13299   L 220.09895,341.9104   L 229.79494,344.65732   L 236.90533,346.43474   L 243.53092,348.37374   L 249.67172,350.31274   L 255.65091,352.57491   L 261.3069,354.99866   L 267.2861,357.90716   L 273.42689,361.13882   L 280.21408,365.17841   L 282.15328,366.47108   L 284.09248,368.08691   L 285.70848,369.70274   L 287.48607,371.48016   L 289.10207,372.93441   L 291.04127,374.22708   L 293.14207,375.03499   L 295.72767,375.51974   L 301.22206,374.71183   L 306.07005,372.61124   L 309.94845,369.37958   L 313.50365,365.33999   L 316.41244,360.65407   L 319.32124,355.48341   L 321.90684,349.98957   L 324.65403,344.65732   L 328.37083,335.60865   L 332.08762,327.3679   L 335.48122,319.45032   L 338.71322,311.8559   L 341.29881,303.93831   L 343.39961,295.85914   L 344.69241,286.97206   L 345.17721,277.60022   L 342.43001,257.88705   L 334.83482,240.59763   L 323.19963,225.89355   L 308.33245,213.93638   L 290.55647,204.24138   L 271.16449,197.61646   L 250.64132,193.41529   L 229.79494,192.12262   L 217.19015,192.28421   L 205.55497,193.41529   L 194.56618,195.19271   L 184.38539,198.26279   L 174.6894,202.30237   L 165.63981,207.95779   L 157.23662,215.06746   L 149.31823,223.95455   L 139.94544,237.36597   L 132.83505,250.29263   L 127.17906,262.73455   L 122.65426,275.33806   L 118.45267,288.10314   L 114.41267,301.83773   L 109.56468,316.21865   L 103.90868,332.2154  z "
     style="fill:#ffb00f;fill-rule:evenodd;fill-opacity:1;stroke:none;" />
  <path
     id="path9"
     d="  M 235.93573,345.62682   L 238.03653,341.74882   L 240.13733,338.35557   L 242.07653,334.96232   L 243.85412,331.73065   L 245.14692,328.17582   L 246.27812,324.4594   L 246.92452,320.25823   L 247.24772,315.7339   L 245.63172,304.74623   L 241.10693,295.69756   L 234.31974,288.42631   L 225.75494,282.60931   L 215.57416,277.92339   L 204.42377,274.20697   L 192.78858,270.97531   L 181.315,268.38997   L 151.41903,268.38997   L 146.57103,270.65214   L 142.69264,273.56064   L 139.13744,276.63072   L 136.39025,280.18556   L 133.80465,283.90198   L 131.54225,288.26473   L 129.60305,292.95064   L 127.66386,298.28289   L 130.41105,297.31339   L 132.99665,296.50548   L 135.42065,295.69756   L 138.00624,294.88964   L 140.26864,293.92014   L 142.69264,292.95064   L 145.27824,291.98114   L 148.34863,291.01164   L 181.315,291.01164   L 185.67819,291.65798   L 189.71819,292.46589   L 193.43498,293.43539   L 197.15178,294.40489   L 200.70697,295.37439   L 204.74697,296.50548   L 208.78696,297.63656   L 213.31176,299.25239   L 167.90221,299.25239   L 161.43822,299.89873   L 155.45902,300.86823   L 149.80303,302.1609   L 144.79344,303.93831   L 139.94544,306.0389   L 135.74385,309.10898   L 132.02705,312.8254   L 128.79505,317.83448   L 143.98544,320.25823   L 158.04462,322.84357   L 170.97261,325.26732   L 183.41579,328.17582   L 195.53578,331.2459   L 208.14056,335.28549   L 221.39175,339.80982   L 235.93573,345.62682  z "
     style="fill:#999999;fill-rule:evenodd;fill-opacity:1;stroke:none;" />
  <path
     id="path11"
     d="  M 217.35175,267.25889   L 216.22056,266.93572   L 215.41256,266.28939   L 214.76616,265.31989   L 214.60456,264.02722   L 214.28136,262.41139   L 214.28136,260.95714   L 214.28136,259.50289   L 214.28136,258.04864   L 214.60456,255.14014   L 215.89736,252.71639   L 217.83655,250.77738   L 220.42215,249.32313   L 223.16935,247.86888   L 226.40134,246.7378   L 229.63334,245.60672   L 232.86534,244.63722   L 256.62051,244.63722   L 256.29731,247.38413   L 256.13571,250.29263   L 255.65091,252.87797   L 255.48931,255.4633   L 255.32771,257.72547   L 255.48931,259.98764   L 256.13571,262.08822   L 257.59011,264.1888   L 260.01411,266.1278   L 262.9229,267.25889   L 266.1549,267.42047   L 269.5485,267.58205   L 272.94209,267.42047   L 276.49729,267.74364   L 279.89088,268.55156   L 283.28448,270.49056   L 285.70848,272.75272   L 287.97087,275.17647   L 290.07167,277.43864   L 292.33407,279.86239   L 294.27327,281.80139   L 296.85886,283.41722   L 299.60606,284.38673   L 302.99966,284.87148   L 306.39325,285.35623   L 309.30205,286.81048   L 311.56445,289.23423   L 313.50365,292.30431   L 314.79644,295.69756   L 315.60444,299.57556   L 316.08924,303.45356   L 316.41244,307.49315   L 315.44284,311.69431   L 313.01885,315.08756   L 309.30205,317.51132   L 304.77726,319.12715   L 299.44446,320.09665   L 293.95007,320.5814   L 288.29407,320.74298   L 283.28448,320.90457   L 280.05248,320.5814   L 277.30529,319.77348   L 274.55809,318.31923   L 272.45729,316.86498   L 270.51809,314.7644   L 269.0637,312.50223   L 268.0941,309.9169   L 267.9325,307.49315   L 268.0941,305.23098   L 268.7405,303.29198   L 269.5485,301.35298   L 270.51809,299.73714   L 271.48769,297.79814   L 272.61889,296.02073   L 273.42689,294.08173   L 274.07329,291.98114   L 266.6397,287.61839   L 259.85251,283.25564   L 253.38851,279.05447   L 247.08612,275.33806   L 240.62213,271.94481   L 233.67334,269.35947   L 225.91654,267.74364   L 217.35175,267.25889  z "
     style="fill:#999999;fill-rule:evenodd;fill-opacity:1;stroke:none;" />
  <path
     id="path13"
     d="  M 327.72443,396.20241   L 329.17883,393.4555   L 333.70362,386.50741   L 339.84442,376.00449   L 347.27801,363.07782   L 354.55,348.53532   L 361.49879,333.50807   L 366.83159,318.6424   L 369.90198,305.39256   L 371.51798,292.95064   L 373.29558,280.34714   L 374.74998,267.42047   L 375.88118,254.81697   L 376.04277,242.21347   L 375.23478,230.41788   L 372.81078,219.26863   L 368.93238,209.57363   L 362.14519,199.39387   L 353.0956,188.56779   L 342.59161,177.41854   L 331.76442,166.75403   L 321.42204,157.22062   L 313.01885,149.6262   L 307.03965,144.45553   L 304.93886,142.67811   L 304.61566,142.51653   L 303.96926,142.35495   L 302.99966,142.19336   L 301.70686,142.51653   L 299.76766,143.32445   L 297.50526,145.10186   L 294.59647,147.6872   L 291.52607,151.88836   L 288.61727,155.76637   L 286.67808,159.15962   L 285.06208,161.90653   L 284.25408,164.33028   L 283.60768,165.94612   L 283.28448,167.23878   L 283.28448,168.0467   L 283.28448,168.36987   L 284.09248,168.53145   L 286.51648,169.66253   L 290.07167,171.60154   L 294.75807,174.51004   L 299.76766,178.22645   L 305.42365,183.07395   L 310.91805,188.89096   L 316.41244,196.16221   L 321.09884,204.24138   L 325.78523,213.29004   L 329.98683,222.82346   L 333.86522,233.1648   L 336.77402,243.66772   L 338.87482,254.65539   L 340.00602,265.64305   L 340.00602,276.63072   L 338.06682,288.91106   L 333.70362,304.0999   L 327.72443,320.90457   L 321.09884,338.0324   L 314.31164,353.54441   L 308.49405,366.47108   L 304.45406,375.19658   L 302.99966,378.58983   L 302.67646,378.58983   L 302.35326,379.07458   L 302.03006,379.55933   L 302.19166,380.69041   L 302.51486,381.8215   L 303.64606,383.27575   L 305.74685,384.89158   L 309.14045,386.83058   L 312.85725,388.93116   L 316.25084,390.87016   L 319.32124,392.32441   L 322.23004,393.77866   L 324.33083,394.74816   L 326.10843,395.55608   L 327.23963,395.87925   L 327.72443,396.20241  z "
     style="fill:#61faff;fill-rule:evenodd;fill-opacity:1;stroke:none;" />
  <path
     id="path15"
     d="  M 365.86199,396.20241   L 367.31638,392.486   L 371.51798,382.95258   L 377.49717,368.73324   L 384.44597,351.60541   L 391.23316,332.70015   L 397.37395,313.95648   L 401.89875,296.34389   L 403.99954,281.80139   L 404.16114,268.06681   L 403.35314,253.20114   L 401.89875,237.68913   L 399.79795,222.33871   L 396.88915,207.79621   L 393.65715,194.70796   L 390.10196,183.72029   L 386.38516,175.64112   L 380.72917,167.88512   L 372.48758,158.99803   L 362.46839,149.46461   L 352.126,140.09278   L 342.10681,131.36728   L 333.54202,124.25761   L 327.72443,119.41011   L 325.62363,117.79427   L 304.93886,134.43736   L 306.39325,135.40686   L 310.75645,138.47695   L 317.05884,143.00128   L 324.81563,148.81828   L 332.73402,155.28162   L 340.49082,162.2297   L 347.27801,169.0162   L 352.4492,175.64112   L 356.3276,181.94287   L 360.52919,188.89096   L 364.73079,196.16221   L 368.60918,204.56454   L 371.84118,213.61321   L 374.58838,223.79296   L 376.36597,234.94221   L 377.17397,247.7073   L 376.52757,261.92664   L 375.07318,277.60022   L 372.81078,293.75856   L 370.22518,309.9169   L 366.83159,324.78257   L 363.11479,337.87082   L 359.23639,348.53532   L 355.5196,355.96816   L 351.6412,361.94674   L 347.92441,368.24849   L 344.36921,374.38866   L 341.29881,380.36724   L 338.55162,385.37633   L 336.61242,389.41591   L 335.15802,392.00125   L 334.83482,393.13233   L 365.86199,396.20241  z "
     style="fill:#b0ff59;fill-rule:evenodd;fill-opacity:1;stroke:none;" />
  <path
     id="path17"
     d="  M 77.244713,346.7579   L 77.729512,343.68782   L 79.18391,335.93182   L 81.607908,324.62098   L 84.678304,311.20956   L 88.2335,296.66706   L 92.273496,282.60931   L 96.475091,270.32897   L 100.83829,261.11872   L 105.52468,253.03955   L 110.85747,243.8293   L 116.67507,233.48796   L 122.97746,223.14663   L 129.44145,212.80529   L 136.39025,203.59504   L 143.66224,195.67746   L 151.41903,190.02204   L 159.66062,185.4977   L 168.87181,180.81179   L 178.5678,176.12587   L 187.94059,171.76312   L 196.02058,167.88512   L 202.80777,164.81503   L 207.33257,162.87603   L 209.11016,162.2297   L 206.03977,137.50744   L 204.10057,137.83061   L 198.92938,138.9617   L 191.33418,140.9007   L 182.28459,143.97078   L 172.26541,147.6872   L 162.40782,152.5347   L 153.35823,158.3517   L 146.24783,165.29978   L 139.94544,172.40945   L 132.99665,179.6807   L 125.56306,186.95196   L 118.12947,194.54637   L 110.53428,202.30237   L 103.58548,210.54313   L 97.12149,219.26863   L 91.627096,229.12521   L 86.132703,241.56713   L 80.476709,258.3718   L 74.659116,277.60022   L 69.487921,297.63656   L 64.639927,316.21865   L 60.923131,331.89223   L 58.337534,342.71832   L 57.529535,346.7579   L 77.244713,346.7579  z "
     style="fill:#61faff;fill-rule:evenodd;fill-opacity:1;stroke:none;" />
  <path
     id="path19"
     d="  M 39.107156,349.82799   L 39.107156,346.91949   L 39.591955,339.32507   L 40.561554,327.85265   L 42.339152,313.47173   L 44.763149,296.82864   L 48.479945,279.21606   L 53.32794,261.44189   L 59.630333,244.63722   L 66.255925,229.2868   L 73.204717,215.22904   L 80.315109,202.30237   L 87.748701,190.66837   L 95.182292,180.00387   L 102.93908,170.79362   L 110.69587,162.55287   L 118.45267,155.92795   L 127.98706,149.14145   L 140.75344,141.8702   L 154.97422,134.43736   L 169.84141,127.48928   L 183.57739,121.18752   L 195.21258,116.17844   L 202.96937,112.78519   L 206.03977,111.65411   L 203.93897,134.43736   L 201.35337,134.92211   L 194.72778,136.69953   L 184.70859,139.9312   L 172.5886,144.94028   L 159.01422,151.5652   L 145.27824,160.45228   L 132.02705,171.27837   L 120.55346,184.85137   L 110.04948,198.42437   L 100.83829,211.02788   L 92.596695,222.5003   L 85.809503,233.32638   L 79.99191,243.18297   L 75.467115,252.71639   L 71.911919,261.60347   L 69.972721,270.49056   L 67.871923,279.86239   L 65.447926,291.81956   L 62.700729,304.90781   L 60.115132,318.15765   L 57.529535,330.2764   L 55.428737,340.29457   L 53.974339,347.24265   L 53.48954,349.82799   L 39.107156,349.82799  z "
     style="fill:#b0ff59;fill-rule:evenodd;fill-opacity:1;stroke:none;" />
  <path
     id="path21"
     d="  M 390.58676,135.40686   L 327.72443,119.89486   L 326.59323,120.05644   L 324.00763,120.70277   L 320.12924,121.67228   L 315.60444,123.61128   L 310.27165,125.87344   L 304.93886,128.94353   L 299.92926,132.65994   L 295.72767,137.50744   L 291.84927,142.67811   L 288.13247,148.49511   L 284.57728,154.31212   L 281.50688,159.96753   L 278.75968,164.81503   L 276.82049,168.85462   L 275.36609,171.43995   L 275.04289,172.57104   L 216.38216,172.57104   L 215.89736,171.76312   L 215.08936,169.9857   L 213.63496,167.0772   L 212.34216,163.1992   L 210.72616,158.19012   L 209.27176,152.37311   L 207.81737,145.7482   L 207.00937,138.47695   L 207.00937,130.39778   L 207.97896,122.15703   L 209.27176,113.91627   L 211.21096,106.48344   L 212.98856,99.696937   L 214.76616,94.526269   L 215.89736,91.133019   L 216.38216,90.001935   L 247.24772,87.901351   L 256.62051,103.41335   L 271.00289,106.48344   L 300.89886,90.001935   L 392.68756,121.02594   L 390.58676,135.40686  z "
     style="fill:#999999;fill-rule:evenodd;fill-opacity:1;stroke:none;" />
  <path
     id="path23"
     d="  M 100.83829,345.62682   L 15.351983,351.76699   L 15.351983,410.58333   L 94.697493,410.58333   L 100.83829,345.62682  z "
     style="fill:#999999;fill-rule:evenodd;fill-opacity:1;stroke:none;" />
  <path
     id="path25"
     d="  M 294.75807,378.58983   L 281.34528,428.03434   L 282.15328,428.19592   L 284.90048,429.00384   L 288.77887,430.13492   L 293.78847,431.91234   L 299.28286,433.68976   L 305.10046,435.79034   L 310.91805,438.05251   L 316.41244,440.47626   L 321.90684,442.09209   L 328.69403,443.06159   L 335.64282,443.38476   L 342.91481,443.22317   L 349.21721,442.57684   L 354.55,442.09209   L 358.1052,441.60734   L 359.55959,441.44576   L 368.93238,397.17191   L 368.12438,397.49508   L 366.18519,398.46458   L 363.11479,399.75725   L 359.23639,401.37308   L 354.55,402.66575   L 349.5404,403.63525   L 344.20761,403.95842   L 339.03642,403.31208   L 332.89562,401.2115   L 325.94683,397.97983   L 318.51324,393.94025   L 311.40285,389.73908   L 304.77726,385.37633   L 299.60606,381.98308   L 295.88927,379.39774   L 294.75807,378.58983  z "
     style="fill:#999999;fill-rule:evenodd;fill-opacity:1;stroke:none;" />
  <path
     id="path27"
     d="  M 120.55346,412.68392   L 115.38227,499.2926   L 115.70547,502.2011   L 116.99827,510.44185   L 119.58386,521.91427   L 124.10866,535.16411   L 130.73425,548.09078   L 139.94544,559.5632   L 152.22703,567.48078   L 167.90221,570.38928   L 183.73899,568.12712   L 197.63658,563.4412   L 209.43336,556.97786   L 219.29095,549.70661   L 226.88614,542.43536   L 232.38054,536.13361   L 235.61253,531.77086   L 236.90533,530.15503   L 238.03653,431.26601   L 236.42053,430.45809   L 232.05734,428.84225   L 225.43175,426.4185   L 217.51335,423.67159   L 208.62536,420.6015   L 199.57577,418.01617   L 190.84938,415.91559   L 183.41579,414.7845   L 175.4974,414.29975   L 165.96301,413.815   L 155.62062,413.49183   L 145.27824,413.16867   L 135.58225,412.8455   L 127.82546,412.68392   L 122.49266,412.68392   L 120.55346,412.68392  z "
     style="fill:#999999;fill-rule:evenodd;fill-opacity:1;stroke:none;" />
  <path
     id="path29"
     d="  M 26.66397,535.32569   L 16.321582,601.25171   L 90.657498,616.76371   L 91.627096,543.56645   L 26.66397,535.32569  z "
     style="fill:#999999;fill-rule:evenodd;fill-opacity:1;stroke:none;" />
  <path
     id="path31"
     d="  M 273.10369,569.2582   L 274.07329,630.17513   L 343.07641,635.3458   L 351.318,571.35878   L 273.10369,569.2582  z "
     style="fill:#999999;fill-rule:evenodd;fill-opacity:1;stroke:none;" />
  <path
     id="path33"
     d="  M 110.21108,406.54375   L 111.82707,406.22058   L 116.51347,405.57425   L 123.62386,404.76633   L 132.67345,404.28158   L 142.53104,403.95842   L 153.03503,404.12   L 163.37742,405.25108   L 173.0734,407.51325   L 184.06219,410.74492   L 198.76778,415.26925   L 215.25096,420.27834   L 232.38054,425.61059   L 248.21732,430.29651   L 261.4685,434.49767   L 270.67969,437.24459   L 274.07329,438.37567   L 288.45567,382.791   L 286.83968,381.33675   L 282.79968,377.45874   L 276.33569,371.96491   L 268.2557,365.66316   L 258.39811,358.87666   L 247.57092,352.73649   L 235.61253,347.7274   L 223.49255,344.65732   L 209.43336,342.39515   L 192.78858,340.61774   L 174.5278,339.16349   L 156.42862,338.19399   L 139.62224,337.22449   L 125.88626,336.73974   L 116.67507,336.41657   L 113.28147,336.41657   L 112.95827,336.90132   L 112.15027,338.67874   L 111.01907,341.42565   L 109.88788,345.14207   L 108.43348,349.34324   L 107.14068,354.51391   L 105.84788,360.16932   L 105.03988,366.30949   L 104.87828,372.61124   L 105.20148,379.39774   L 106.00948,386.02266   L 107.14068,392.486   L 108.11028,397.97983   L 109.07988,402.50417   L 109.88788,405.41267   L 110.21108,406.54375  z "
     style="fill:#ffde36;fill-rule:evenodd;fill-opacity:1;stroke:none;" />
  <path
     id="path35"
     d="  M 189.55659,539.36528   L 194.88938,538.23419   L 199.09097,535.48728   L 202.16137,531.28611   L 204.42377,526.11544   L 205.71657,519.97527   L 206.52457,513.67352   L 206.84777,507.21019   L 207.00937,501.2316   L 206.20137,495.25302   L 204.26217,489.92077   L 201.03017,485.39643   L 197.15178,481.68002   L 192.30378,478.44835   L 186.97099,476.34776   L 181.1534,474.89351   L 175.1742,474.57035   L 168.54861,475.0551   L 162.40782,476.67093   L 156.75182,479.25627   L 151.90383,482.8111   L 147.70223,487.01227   L 144.63184,492.18293   L 142.69264,497.99994   L 142.04624,504.46327   L 143.01584,512.38086   L 146.24783,519.32894   L 150.93423,525.30752   L 157.23662,530.31661   L 164.34701,534.03303   L 172.42701,536.94153   L 180.9918,538.71894   L 189.55659,539.36528  z "
     style="fill:#ff2b3b;fill-rule:evenodd;fill-opacity:1;stroke:none;" />
  <path
     id="path37"
     d="  M 322.55324,219.91496   L 321.42204,218.62229   L 318.35164,215.55221   L 313.01885,211.02788   L 305.26205,206.01879   L 294.91967,200.68654   L 281.99168,195.83904   L 265.9933,191.96104   L 247.24772,190.02204   L 227.85574,190.02204   L 211.37256,191.63787   L 197.31338,194.22321   L 186.00139,197.45487   L 176.9518,200.52496   L 170.81101,203.59504   L 166.93261,205.53404   L 165.80141,206.50354   L 122.49266,268.38997   L 100.83829,346.7579   L 77.244713,348.6969   L 77.244713,346.43474   L 77.567912,340.61774   L 78.537511,331.89223   L 80.315109,320.90457   L 83.062306,308.13948   L 87.102302,294.72806   L 92.596695,281.15506   L 99.868687,268.38997   L 107.78708,255.4633   L 116.35187,241.56713   L 125.23986,227.50938   L 134.45105,213.93638   L 143.50064,201.33287   L 152.71183,191.15312   L 161.43822,183.5587   L 170.00301,179.6807   L 178.4062,177.90329   L 186.80939,176.28745   L 194.72778,174.34845   L 202.16137,172.8942   L 208.14056,171.27837   L 212.98856,170.30887   L 216.05896,169.50095   L 217.35175,169.33937   L 278.27489,181.78129   L 280.21408,172.57104   L 306.07005,187.92146   L 322.55324,219.91496  z "
     style="fill:#702b00;fill-rule:evenodd;fill-opacity:1;stroke:none;" />
  <path
     id="path39"
     d="  M 418.38193,26.176505   L 418.38193,28.277089   L 418.54353,30.862423   L 418.70513,33.60934   L 418.86673,36.356257   L 418.38193,38.618425   L 417.41233,40.719008   L 415.63473,42.011675   L 413.21073,42.658009   L 403.99954,37.487341   L 403.19154,41.850092   L 403.51474,46.859176   L 404.16114,52.029844   L 404.64594,57.362095   L 404.32274,62.209596   L 403.02994,66.73393   L 399.79795,70.611931   L 394.62675,73.520432   L 392.20276,73.520432   L 389.77876,73.843599   L 387.19316,74.166765   L 384.76917,74.651515   L 382.18357,74.651515   L 379.75957,74.651515   L 377.33557,74.166765   L 375.07318,73.520432   L 373.29558,71.743015   L 372.00278,69.965598   L 370.87158,68.026597   L 370.38678,66.087597   L 369.74038,63.987013   L 369.41718,61.886429   L 369.09398,59.947429   L 368.93238,58.008429   L 369.74038,56.069428   L 371.03318,54.615178   L 372.48758,53.160928   L 374.26518,52.191427   L 375.88118,50.89876   L 377.65877,49.92926   L 379.43637,48.798177   L 381.21397,47.828676   L 382.34517,47.828676   L 383.47637,47.99026   L 384.60757,48.313427   L 386.06196,48.636593   L 387.19316,48.798177   L 388.48596,48.95976   L 389.94036,48.798177   L 391.55636,48.798177   L 391.87956,44.273842   L 391.87956,39.587925   L 391.55636,34.57884   L 391.39476,29.731339   L 391.07156,24.883838   L 391.39476,20.197921   L 392.04116,15.673587   L 393.65715,11.634002   L 396.56595,12.765086   L 399.79795,14.219336   L 402.70674,15.673587   L 405.93874,17.612587   L 409.00914,19.551587   L 412.07953,21.652171   L 415.14993,23.752755   L 418.38193,26.176505  z "
     style="fill:#000000;fill-rule:evenodd;fill-opacity:1;stroke:none;" />
  <path
     id="path41"
     d="  M 131.86545,89.032435   L 130.73425,89.678768   L 129.60305,90.001935   L 128.14866,89.840352   L 126.85586,89.678768   L 125.07826,89.194018   L 123.62386,88.870852   L 122.00786,88.709268   L 120.55346,89.032435   L 121.52306,93.395186   L 123.13906,98.565854   L 124.75506,103.73652   L 126.04786,109.23036   L 126.37106,114.40102   L 125.88626,119.24852   L 123.62386,123.44969   L 119.42226,127.16611   L 116.83667,127.16611   L 114.41267,127.65086   L 111.82707,127.97403   L 109.40308,128.45878   L 106.81748,128.45878   L 104.55508,128.29719   L 102.45428,127.48928   L 100.83829,126.03503   L 99.545487,124.58078   L 98.252689,123.28811   L 97.12149,121.67228   L 96.313491,120.05644   L 95.505492,118.11744   L 95.182292,116.34002   L 95.182292,114.56261   L 95.667092,112.78519   L 96.798291,111.00777   L 97.929489,109.23036   L 99.222288,107.45294   L 100.67669,105.83711   L 101.96948,104.05969   L 103.58548,102.76702   L 105.20148,101.79752   L 107.14068,101.31277   L 113.28147,100.34327   L 112.79667,97.111603   L 111.82707,94.203103   L 110.37268,91.294602   L 108.75668,88.386101   L 106.97908,85.316018   L 105.36308,82.407517   L 103.90868,79.499016   L 102.93908,76.590516   L 105.52468,75.621016   L 108.27188,74.651515   L 110.85747,73.520432   L 113.76627,72.550932   L 116.51347,71.581431   L 119.42226,71.096681   L 122.33106,70.935098   L 125.56306,71.419848   L 127.01746,73.358848   L 127.98706,75.459432   L 128.47185,77.721599   L 128.95665,80.14535   L 129.11825,82.407517   L 129.76465,84.669684   L 130.41105,86.931851   L 131.86545,89.032435  z "
     style="fill:#000000;fill-rule:evenodd;fill-opacity:1;stroke:none;" />
  <path
     id="path43"
     d="  M 254.51971,85.962351   L 256.13571,87.093435   L 256.94371,89.032435   L 257.10531,91.294602   L 257.42851,94.041519   L 257.75171,96.303686   L 258.72131,98.242687   L 260.49891,99.37377   L 263.7309,99.37377   L 265.9933,99.696937   L 268.7405,99.212187   L 271.48769,98.081103   L 274.23489,97.111603   L 276.49729,96.303686   L 278.43649,96.46527   L 279.72928,97.91952   L 280.21408,101.31277   L 275.36609,103.73652   L 270.51809,106.32186   L 265.5085,108.74561   L 260.66051,111.33094   L 255.81251,114.07786   L 251.44932,117.47111   L 247.40932,121.34911   L 244.17732,126.03503   L 236.90533,129.26669   L 235.28933,124.41919   L 234.80453,119.57169   L 235.12773,114.56261   L 236.25893,109.71511   L 237.71333,104.70602   L 239.65253,100.0201   L 241.75333,95.334186   L 244.17732,91.133019   L 241.10693,87.901351   L 237.39013,87.416601   L 233.83494,87.255018   L 230.27974,87.255018   L 226.88614,87.578185   L 223.33095,87.901351   L 220.09895,88.547685   L 217.02855,89.517185   L 214.28136,91.133019   L 211.21096,97.273187   L 210.56456,104.54444   L 209.91816,112.30044   L 209.11016,120.05644   L 208.78696,127.97403   L 208.62536,135.56844   L 209.27176,143.32445   L 210.72616,150.75728   L 213.31176,158.02853   L 212.18056,158.99803   L 211.21096,159.3212   L 209.91816,159.15962   L 209.11016,159.15962   L 205.55497,151.24203   L 203.61577,142.8397   L 202.80777,133.79103   L 203.13097,124.58078   L 203.93897,115.04736   L 205.23177,105.67552   L 206.68617,96.46527   L 208.14056,87.901351   L 213.15016,84.992851   L 218.80615,83.05385   L 224.62375,81.5996   L 230.76454,81.11485   L 236.74373,80.953267   L 242.88453,81.922767   L 248.70212,83.377017   L 254.51971,85.962351  z "
     style="fill:#000000;fill-rule:evenodd;fill-opacity:1;stroke:none;" />
  <path
     id="path45"
     d="  M 379.27477,110.68461   L 387.51636,119.89486   L 383.31477,124.09603   L 374.91158,119.24852   L 366.50839,115.69369   L 357.9436,112.94677   L 349.37881,110.84619   L 340.32922,108.90719   L 331.44123,107.12977   L 322.23004,105.02919   L 313.18045,102.44385   L 311.88765,101.9591   L 310.59485,101.63594   L 309.30205,101.15119   L 308.17085,100.82802   L 306.87805,100.18169   L 305.74685,99.535354   L 304.77726,98.40427   L 303.96926,97.273187   L 303.48446,95.818936   L 303.48446,94.526269   L 303.48446,93.072019   L 303.96926,91.779352   L 304.45406,90.325102   L 305.42365,89.355602   L 306.39325,88.386101   L 308.00925,87.901351   L 315.11964,87.739768   L 322.39164,88.709268   L 329.34043,90.163519   L 336.28922,92.425686   L 343.07641,94.687853   L 349.8636,97.273187   L 356.6508,99.858521   L 363.76119,102.44385   L 379.27477,110.68461  z "
     style="fill:#000000;fill-rule:evenodd;fill-opacity:1;stroke:none;" />
  <path
     id="path47"
     d="  M 327.72443,116.82477   L 325.30043,117.14794   L 323.03803,118.11744   L 320.93724,119.24852   L 318.99804,120.86436   L 316.89724,122.31861   L 314.95804,124.25761   L 313.01885,126.19661   L 311.24125,128.13561   L 308.33245,131.52886   L 306.39325,135.73003   L 305.10046,140.09278   L 304.13086,144.45553   L 302.67646,148.17195   L 300.57566,151.40361   L 297.34366,153.34261   L 292.65727,153.98895   L 288.77887,157.05903   L 286.51648,161.09862   L 285.06208,165.62295   L 284.25408,170.47045   L 283.12288,174.99479   L 281.34528,179.19595   L 278.11329,182.42762   L 273.10369,184.85137   L 265.6701,183.72029   L 258.23651,182.42762   L 250.80292,180.97337   L 243.53092,179.51912   L 236.09733,177.7417   L 228.82534,176.12587   L 221.55335,174.67162   L 214.28136,173.54054   L 213.31176,170.47045   L 215.89736,168.85462   L 218.48295,168.20828   L 220.90695,168.0467   L 223.81575,168.36987   L 226.40134,168.69303   L 229.31014,169.17778   L 232.38054,169.33937   L 235.93573,169.33937   L 266.8013,175.64112   L 268.0941,170.63204   L 269.5485,165.62295   L 271.00289,160.61387   L 272.78049,156.08953   L 275.04289,151.72678   L 278.11329,148.01036   L 282.15328,145.26345   L 287.48607,143.64761   L 291.20287,138.80011   L 295.24287,134.11419   L 299.12126,129.26669   L 303.48446,124.90394   L 307.84765,120.54119   L 312.69565,116.50161   L 317.86684,112.78519   L 323.52283,109.55352   L 324.16923,110.52302   L 324.97723,111.49252   L 325.62363,112.30044   L 326.27003,113.10836   L 326.75483,113.75469   L 327.23963,114.72419   L 327.56283,115.69369   L 327.72443,116.82477  z "
     style="fill:#000000;fill-rule:evenodd;fill-opacity:1;stroke:none;" />
  <path
     id="path49"
     d="  M 183.41579,124.09603   L 181.315,127.16611   L 168.38701,132.49836   L 155.62062,138.9617   L 143.17744,146.23295   L 131.38065,154.63528   L 119.90706,163.68395   L 109.56468,173.70212   L 99.868687,184.36662   L 91.627096,196.16221   L 82.415907,213.12846   L 73.689517,230.2563   L 65.771126,247.38413   L 58.822334,264.99672   L 52.68154,282.60931   L 47.995146,300.70665   L 44.60155,319.28873   L 43.147151,338.51715   L 42.177552,339.48665   L 41.369553,340.13299   L 40.238355,340.29457   L 39.107156,340.45615   L 37.329558,332.86174   L 36.844758,325.4289   L 37.167958,317.99607   L 38.460757,310.56323   L 39.753555,302.96881   L 41.531153,295.53598   L 42.985551,287.94156   L 44.11675,280.67031   L 48.318345,260.79555   L 54.620738,241.40555   L 62.377529,222.66188   L 71.911919,204.72613   L 82.415907,187.27512   L 94.535893,170.9552   L 107.46388,155.28162   L 121.52306,140.57753   L 127.66386,135.73003   L 133.96625,131.20569   L 140.43024,126.84294   L 147.37903,123.12653   L 154.16623,119.89486   L 161.43822,117.79427   L 169.03341,116.50161   L 177.1134,116.82477   L 183.41579,124.09603  z "
     style="fill:#000000;fill-rule:evenodd;fill-opacity:1;stroke:none;" />
  <path
     id="path51"
     d="  M 412.24113,211.67421   L 415.14993,224.27771   L 416.76593,237.0428   L 417.08913,249.80788   L 416.44273,262.73455   L 414.98833,275.49964   L 413.21073,288.42631   L 411.10994,301.51456   L 409.17074,314.7644   L 406.90834,321.87407   L 404.48434,329.14532   L 401.57555,336.0934   L 398.50515,343.20307   L 394.94995,349.98957   L 391.39476,356.93766   L 387.35476,363.56257   L 383.31477,370.34908   L 380.89077,371.96491   L 378.95157,373.74233   L 376.85077,375.51974   L 374.91158,377.29716   L 372.64918,378.58983   L 370.54838,379.55933   L 368.28598,379.88249   L 365.86199,379.72091   L 365.21559,376.32766   L 365.70039,373.41916   L 367.15478,370.83383   L 369.09398,368.41008   L 371.03318,365.82474   L 373.13398,363.40099   L 374.91158,360.81566   L 376.20437,358.06874   L 379.75957,346.43474   L 383.96117,335.28549   L 388.16276,324.13623   L 392.36436,312.98698   L 395.59635,301.51456   L 398.18195,289.71898   L 399.15155,277.27706   L 398.82835,264.1888   L 397.85875,247.86888   L 396.40435,232.03371   L 393.81875,216.36013   L 390.10196,201.33287   L 384.60757,186.79037   L 377.65877,173.21737   L 368.77078,160.45228   L 357.6204,148.81828   L 354.7116,147.04086   L 351.9644,145.26345   L 349.05561,143.16286   L 346.30841,141.06228   L 343.39961,138.63853   L 340.81401,136.37636   L 338.22842,133.79103   L 335.96602,131.20569   L 335.96602,130.55936   L 335.96602,129.91303   L 335.96602,128.94353   L 336.28922,128.13561   L 336.45082,127.16611   L 337.09722,126.51978   L 337.90522,126.03503   L 339.03642,126.03503   L 352.4492,131.20569   L 365.05399,138.80011   L 376.52757,148.01036   L 386.70836,158.83645   L 395.43475,170.79362   L 402.86834,183.72029   L 408.36274,197.45487   L 412.24113,211.67421  z "
     style="fill:#000000;fill-rule:evenodd;fill-opacity:1;stroke:none;" />
  <path
     id="path53"
     d="  M 465.73067,212.64371   L 470.90187,238.33547   L 472.67947,264.1888   L 471.06347,289.55739   L 467.02347,314.7644   L 460.72108,339.32507   L 453.12589,363.56257   L 444.5611,387.31533   L 435.83471,410.58333   L 429.53231,430.94284   L 424.36112,451.78709   L 419.67473,472.79293   L 415.95793,494.12193   L 412.72593,515.45094   L 410.30194,537.26469   L 408.36274,559.24003   L 407.06994,581.70012   L 403.19154,587.03237   L 398.98995,591.87987   L 394.46515,596.24262   L 389.61716,600.12062   L 384.28437,603.35229   L 379.11317,606.42237   L 373.45718,609.00771   L 367.80118,611.59304   L 366.83159,611.26988   L 365.70039,610.94671   L 364.56919,610.13879   L 363.76119,609.49246   L 363.59959,607.23029   L 364.24599,605.45287   L 365.37719,603.83704   L 366.99319,602.54437   L 368.60918,601.25171   L 370.54838,600.28221   L 372.32598,599.15112   L 374.10358,598.18162   L 383.31477,588.80979   L 389.61716,578.14529   L 393.49556,566.3497   L 395.75795,554.06936   L 397.05075,540.98111   L 398.18195,527.89286   L 399.79795,514.80461   L 402.86834,502.36269   L 406.26194,486.6891   L 409.65554,471.1771   L 413.04913,455.66509   L 416.76593,440.31467   L 420.48272,424.80267   L 424.52272,409.937   L 428.88592,395.07133   L 433.89551,380.69041   L 438.4203,364.20891   L 443.5915,347.7274   L 448.76269,330.92273   L 453.44909,314.27965   L 456.84268,297.15181   L 458.78188,280.02397   L 458.45868,262.73455   L 455.54989,245.60672   L 453.44909,232.51846   L 450.70189,219.75338   L 446.82349,207.31146   L 442.2987,195.35429   L 436.48111,183.72029   L 429.69391,172.73262   L 421.45232,162.39128   L 412.24113,152.85786   L 409.00914,150.91886   L 405.45394,149.14145   L 401.73715,147.20245   L 398.18195,145.42503   L 394.78835,143.16286   L 392.36436,140.73911   L 390.74836,137.83061   L 390.58676,134.43736   L 403.02994,139.44645   L 415.14993,146.39453   L 426.46192,154.63528   L 436.96591,164.49187   L 446.1771,175.31795   L 454.25709,187.11354   L 460.88268,199.55546   L 465.73067,212.64371  z "
     style="fill:#000000;fill-rule:evenodd;fill-opacity:1;stroke:none;" />
  <path
     id="path55"
     d="  M 196.82858,166.26928   L 197.15178,171.11679   L 195.85898,174.99479   L 193.11178,178.06487   L 189.39499,180.81179   L 184.70859,182.91237   L 180.1838,185.17454   L 175.659,187.27512   L 171.94221,190.02204   L 158.04462,198.58596   L 145.92464,208.76571   L 135.09745,220.23813   L 125.88626,232.68005   L 117.32147,245.7683   L 109.88788,259.3413   L 103.10068,273.07589   L 96.798291,286.97206   L 94.535893,293.59698   L 92.435096,300.38348   L 90.172698,307.0084   L 88.0719,313.7949   L 86.132703,320.5814   L 84.678304,327.69107   L 83.708705,334.80074   L 83.385506,342.55674   L 81.607908,342.39515   L 80.476709,341.58724   L 79.50711,340.13299   L 79.022311,338.35557   L 78.537511,336.25499   L 78.214312,334.31599   L 77.729512,332.53857   L 77.244713,331.2459   L 78.375911,316.7034   L 81.284708,303.29198   L 85.324704,290.20373   L 90.495898,277.76181   L 95.990291,265.48147   L 101.96948,253.36272   L 107.78708,241.24397   L 113.28147,229.12521   L 118.61427,219.75338   L 124.91666,211.35104   L 131.86545,203.59504   L 139.46064,196.32379   L 147.21743,189.05254   L 155.45902,181.94287   L 163.70061,174.67162   L 171.94221,167.40037   L 173.8814,165.94612   L 175.8206,164.65345   L 177.7598,163.1992   L 179.8606,162.06812   L 181.96139,160.77545   L 184.38539,159.80595   L 186.80939,159.15962   L 189.55659,159.15962   L 190.20298,159.48278   L 191.17258,160.12912   L 192.14218,160.93703   L 193.11178,161.90653   L 193.91978,162.87603   L 194.88938,163.84553   L 195.85898,164.97662   L 196.82858,166.26928  z "
     style="fill:#000000;fill-rule:evenodd;fill-opacity:1;stroke:none;" />
  <path
     id="path57"
     d="  M 357.6204,186.95196   L 362.46839,194.86954   L 366.18519,203.59504   L 368.60918,212.80529   L 370.54838,222.5003   L 371.67958,232.1953   L 372.64918,242.21347   L 373.61878,252.23164   L 375.07318,262.08822   L 374.91158,266.93572   L 374.74998,272.10639   L 374.58838,276.95389   L 374.42678,282.12456   L 373.94198,287.13364   L 373.61878,292.14273   L 373.29558,297.15181   L 372.97238,302.32248   L 370.54838,311.69431   L 367.31638,320.90457   L 363.59959,329.79165   L 359.39799,338.84032   L 354.8732,347.56582   L 350.51,356.29132   L 345.98521,365.17841   L 342.10681,374.55024   L 341.13721,374.55024   L 340.32922,375.03499   L 339.19802,375.19658   L 337.90522,375.51974   L 344.85401,360.49249   L 351.8028,345.46524   L 358.1052,329.95323   L 363.76119,313.95648   L 367.80118,297.47498   L 370.38678,280.67031   L 370.87158,263.38089   L 368.93238,245.60672   L 367.15478,238.0123   L 365.86199,230.57946   L 364.56919,222.82346   L 363.43799,215.55221   L 361.82199,208.11938   L 359.88279,201.00971   L 356.974,194.22321   L 353.4188,187.92146   L 352.934,186.62879   L 352.6108,185.33612   L 352.126,184.04345   L 351.9644,182.91237   L 351.4796,181.6197   L 351.318,180.48862   L 351.318,179.51912   L 351.318,178.7112   L 352.2876,178.87279   L 353.0956,179.51912   L 353.742,180.32704   L 354.3884,181.6197   L 354.8732,182.75079   L 355.6812,184.20504   L 356.4892,185.4977   L 357.6204,186.95196  z "
     style="fill:#000000;fill-rule:evenodd;fill-opacity:1;stroke:none;" />
  <path
     id="path59"
     d="  M 344.20761,240.59763   L 344.53081,256.4328   L 344.04601,272.91431   L 342.43001,289.23423   L 339.84442,305.71573   L 335.48122,321.38932   L 329.66363,336.41657   L 321.90684,350.31274   L 312.21085,363.23941   L 309.14045,363.23941   L 309.94845,360.33091   L 311.40285,357.58399   L 312.85725,354.83707   L 314.79644,352.09016   L 316.57404,349.18166   L 318.35164,346.27315   L 319.96764,343.36465   L 321.42204,340.45615   L 326.91643,326.07523   L 331.60283,310.40165   L 334.67322,293.92014   L 336.28922,277.27706   L 335.80442,260.47239   L 333.21882,244.31405   L 328.04763,229.2868   L 320.45244,215.71379   L 317.86684,211.02788   L 314.31164,206.66513   L 310.43325,202.46396   L 307.03965,198.26279   L 304.13086,193.90004   L 302.67646,189.69887   L 303.16126,185.17454   L 306.07005,180.81179   L 314.95804,184.20504   L 322.23004,189.69887   L 327.72443,196.64696   L 332.41082,204.88771   L 335.80442,213.61321   L 338.87482,222.98505   L 341.46041,232.03371   L 344.20761,240.59763  z "
     style="fill:#000000;fill-rule:evenodd;fill-opacity:1;stroke:none;" />
  <path
     id="path61"
     d="  M 114.25107,189.05254   L 112.31187,193.09212   L 114.25107,189.05254  z "
     style="fill:#000000;fill-rule:evenodd;fill-opacity:1;stroke:none;" />
  <path
     id="path63"
     d="  M 239.00613,194.06162   L 239.32933,195.19271   L 240.29893,196.16221   L 241.10693,196.97012   L 241.10693,198.26279   L 239.65253,199.23229   L 238.35973,199.87862   L 236.74373,200.04021   L 235.12773,199.71704   L 233.18854,199.23229   L 231.41094,198.74754   L 229.47174,198.26279   L 227.69414,198.26279   L 213.63496,198.26279   L 200.06057,201.00971   L 187.29419,205.69563   L 175.3358,212.48213   L 164.02381,220.5613   L 154.00463,229.93313   L 144.79344,239.9513   L 137.03665,250.77738   L 132.67345,258.85655   L 128.95665,267.25889   L 125.23986,275.82281   L 122.00786,284.54831   L 118.93747,293.27381   L 116.02867,301.99931   L 113.44307,310.8864   L 111.18067,319.93507   L 111.18067,326.07523   L 115.05907,325.91365   L 119.09907,325.75207   L 123.30066,325.59048   L 127.66386,325.4289   L 132.02705,324.94415   L 136.39025,324.62098   L 140.75344,324.29782   L 145.27824,323.97465   L 160.79182,324.78257   L 176.3054,326.55998   L 191.33418,329.3069   L 206.36297,332.70015   L 220.90695,336.57815   L 235.45093,340.9409   L 249.51012,345.62682   L 263.7309,350.79749   L 264.8621,351.76699   L 266.1549,352.89807   L 267.6093,353.86757   L 269.0637,354.99866   L 270.19489,355.96816   L 271.48769,357.26082   L 272.29569,358.39191   L 273.10369,360.00774   L 272.61889,362.43149   L 271.64929,363.72416   L 270.19489,364.20891   L 268.4173,364.20891   L 266.3165,363.72416   L 264.2157,363.23941   L 262.2765,362.91624   L 260.66051,363.23941   L 250.15652,357.74557   L 239.32933,353.22124   L 228.17894,349.34324   L 216.70536,346.27315   L 204.90857,343.36465   L 193.27338,340.9409   L 181.47659,338.51715   L 170.00301,336.41657   L 161.76142,334.80074   L 153.84303,334.1544   L 145.76304,334.1544   L 137.84464,334.63915   L 129.76465,335.44707   L 121.68466,336.41657   L 113.28147,337.38607   L 105.03988,338.51715   L 101.48469,337.0629   L 99.707087,335.1239   L 98.899088,332.37698   L 99.060688,329.46848   L 99.545487,326.07523   L 100.19189,322.84357   L 100.67669,319.6119   L 100.83829,316.86498   L 107.14068,296.02073   L 115.05907,274.69172   L 124.75506,253.84747   L 136.71345,234.45746   L 150.93423,217.16804   L 168.06381,203.43346   L 188.26379,194.06162   L 212.18056,190.02204   L 215.25096,190.34521   L 218.64455,190.66837   L 222.03815,191.15312   L 225.59334,191.63787   L 228.98694,192.12262   L 232.38054,192.60737   L 235.61253,193.25371   L 239.00613,194.06162  z "
     style="fill:#000000;fill-rule:evenodd;fill-opacity:1;stroke:none;" />
  <path
     id="path65"
     d="  M 111.18067,196.16221   L 109.07988,196.16221   L 110.21108,194.06162   L 110.69587,194.22321   L 111.01907,195.03112   L 111.01907,195.67746   L 111.18067,196.16221  z "
     style="fill:#000000;fill-rule:evenodd;fill-opacity:1;stroke:none;" />
  <path
     id="path67"
     d="  M 110.21108,199.23229   L 105.03988,208.28096   L 99.868687,218.29913   L 94.697493,228.47888   L 89.849498,239.30497   L 84.678304,249.96947   L 79.83031,260.79555   L 75.143915,271.46006   L 70.94232,281.80139   L 69.164722,287.13364   L 67.548724,292.62748   L 65.932725,298.12131   L 64.316727,303.93831   L 62.700729,309.59373   L 61.246331,315.41073   L 59.791932,321.22773   L 58.660734,327.04473   L 56.559936,329.14532   L 55.913537,325.10573   L 56.075137,321.06615   L 56.559936,316.7034   L 57.529535,312.50223   L 58.499134,308.13948   L 59.630333,303.77673   L 60.599931,299.41398   L 61.73113,295.21281   L 66.255925,282.44772   L 71.10392,269.84422   L 76.113514,257.56389   L 81.607908,245.44513   L 87.102302,233.32638   L 93.404694,221.5308   L 99.868687,209.73521   L 107.14068,198.26279   L 110.21108,199.23229  z "
     style="fill:#000000;fill-rule:evenodd;fill-opacity:1;stroke:none;" />
  <path
     id="path69"
     d="  M 266.8013,248.83838   L 267.9325,260.14922   L 271.81089,260.95714   L 275.85089,262.2498   L 279.56768,263.86564   L 283.28448,265.96622   L 286.51648,268.38997   L 289.26367,271.62164   L 291.20287,275.17647   L 292.65727,279.70081   L 293.46527,280.34714   L 294.75807,280.83189   L 296.21247,280.83189   L 297.82846,280.99347   L 299.44446,280.83189   L 301.06046,280.83189   L 302.51486,280.99347   L 303.96926,281.80139   L 306.71645,283.74039   L 309.30205,286.00256   L 311.56445,288.26473   L 313.66525,290.85006   L 315.44284,293.27381   L 317.22044,296.18231   L 318.83644,299.09081   L 320.45244,302.32248   L 320.45244,305.71573   L 320.45244,309.10898   L 319.96764,312.34065   L 319.15964,315.41073   L 317.86684,317.99607   L 316.08924,320.41982   L 313.82685,322.35882   L 311.24125,323.97465   L 307.03965,326.3984   L 302.67646,327.85265   L 297.82846,328.49898   L 293.14207,328.3374   L 288.29407,327.3679   L 283.60768,325.91365   L 279.08288,323.97465   L 275.04289,321.87407   L 273.42689,320.5814   L 271.97249,319.28873   L 270.51809,317.83448   L 269.7101,316.38023   L 268.9021,314.7644   L 268.7405,313.14856   L 268.9021,311.37115   L 269.87169,309.59373   L 270.35649,307.65473   L 271.32609,306.20048   L 272.45729,304.74623   L 273.91169,303.93831   L 275.36609,303.1304   L 276.98209,302.64565   L 278.43649,302.32248   L 280.21408,302.32248   L 281.66848,302.32248   L 283.28448,302.48406   L 284.73888,302.64565   L 286.35488,303.1304   L 287.80927,303.45356   L 289.42527,303.93831   L 291.04127,304.58465   L 292.65727,305.39256   L 291.36447,307.9779   L 289.74847,309.43215   L 287.80927,309.75531   L 285.54688,309.9169   L 283.12288,309.75531   L 280.86048,310.07848   L 278.75968,311.20956   L 277.14369,313.63331   L 280.37568,315.24915   L 284.41568,316.54182   L 288.61727,317.18815   L 293.14207,317.51132   L 297.66686,317.34973   L 302.03006,316.86498   L 306.23165,315.89548   L 310.11005,314.7644   L 311.88765,312.8254   L 313.18045,311.04798   L 313.66525,308.9474   L 313.82685,307.0084   L 313.34205,304.74623   L 313.01885,302.80723   L 312.53405,300.86823   L 312.21085,299.25239   L 311.07965,297.63656   L 310.11005,296.02073   L 308.97885,294.56648   L 307.68605,293.27381   L 306.23165,291.81956   L 304.77726,290.68848   L 303.32286,289.71898   L 301.86846,288.91106   L 290.55647,291.01164   L 287.32448,286.97206   L 283.93088,283.41722   L 280.05248,280.34714   L 275.85089,277.92339   L 271.32609,275.49964   L 266.8013,273.72222   L 262.1149,271.94481   L 257.59011,270.49056   L 256.45891,267.74364   L 255.97411,264.99672   L 255.48931,261.92664   L 255.00451,259.01814   L 254.03491,256.10964   L 252.74211,253.68589   L 250.47972,251.74689   L 247.24772,250.77738   L 243.36932,248.99997   L 239.49093,248.51522   L 235.61253,248.6768   L 231.73414,249.6463   L 227.85574,250.6158   L 223.97735,251.90847   L 220.09895,253.03955   L 216.38216,253.84747   L 215.57416,252.5548   L 215.08936,251.26213   L 214.76616,249.96947   L 214.92776,248.83838   L 214.92776,247.54572   L 215.41256,246.41463   L 216.22056,245.44513   L 217.35175,244.63722   L 221.06855,241.72872   L 225.43175,239.46655   L 230.11814,237.68913   L 235.28933,236.71963   L 240.29893,236.0733   L 245.63172,235.91172   L 250.64132,236.39647   L 255.48931,237.36597   L 257.26691,238.17388   L 259.20611,239.30497   L 260.9837,240.59763   L 262.5997,242.21347   L 263.8925,243.66772   L 265.1853,245.44513   L 266.1549,247.06097   L 266.8013,248.83838  z "
     style="fill:#000000;fill-rule:evenodd;fill-opacity:1;stroke:none;" />
  <path
     id="path71"
     d="  M 253.38851,301.35298   L 253.71171,305.55415   L 253.71171,309.9169   L 253.22691,314.27965   L 252.41891,318.6424   L 251.12612,322.84357   L 249.83332,327.20632   L 248.05572,331.2459   L 246.27812,335.28549   L 245.30852,335.77024   L 244.50052,336.25499   L 243.36932,336.25499   L 242.07653,336.41657   L 241.43013,331.56907   L 241.26853,327.04473   L 241.26853,322.68198   L 241.59173,318.31923   L 241.43013,313.95648   L 241.26853,309.75531   L 240.46053,305.55415   L 239.00613,301.35298   L 234.31974,295.21281   L 229.31014,290.36531   L 223.97735,286.48731   L 218.32135,283.41722   L 212.34216,280.67031   L 206.52457,278.24656   L 200.54537,275.98439   L 194.72778,273.56064   L 187.29419,273.56064   L 180.3454,273.56064   L 173.3966,273.39906   L 166.60941,273.39906   L 159.82222,273.39906   L 153.51983,274.04539   L 147.21743,275.01489   L 141.07664,276.63072   L 140.59184,275.01489   L 140.59184,273.88381   L 140.59184,272.91431   L 140.91504,272.10639   L 141.72304,270.65214   L 143.17744,269.35947   L 156.10542,264.83514   L 169.84141,262.73455   L 183.73899,262.57297   L 197.79818,264.35039   L 211.21096,267.58205   L 224.30055,272.91431   L 236.25893,279.53922   L 247.24772,287.94156   L 253.38851,301.35298  z "
     style="fill:#000000;fill-rule:evenodd;fill-opacity:1;stroke:none;" />
  <path
     id="path73"
     d="  M 72.073519,345.62682   L 72.719918,346.27315   L 73.043117,347.08107   L 72.881518,347.7274   L 72.558318,348.53532   L 71.427119,349.82799   L 70.94232,350.79749   L 68.841522,351.44382   L 66.740725,352.09016   L 64.478327,352.73649   L 62.21593,353.38282   L 59.791932,353.86757   L 57.529535,354.35232   L 55.428737,354.99866   L 53.48954,355.96816   L 49.287944,357.09924   L 44.924749,357.74557   L 40.399954,358.23032   L 36.036759,359.03824   L 31.673564,359.84616   L 27.956768,361.62357   L 24.724772,364.20891   L 22.623974,368.41008   L 21.815975,372.12649   L 20.846376,376.32766   L 19.715178,380.85199   L 19.068778,385.53791   L 18.907179,389.90066   L 19.715178,394.26341   L 21.815975,397.97983   L 25.694371,401.37308   L 29.087967,401.53467   L 32.966363,401.69625   L 36.844758,401.53467   L 41.046354,401.37308   L 44.924749,400.88833   L 48.964745,400.56517   L 52.84314,399.91883   L 56.559936,399.2725   L 56.236736,401.37308   L 55.751937,403.47367   L 54.782338,405.41267   L 53.812739,407.35167   L 52.358341,408.9675   L 50.903942,410.42175   L 49.126344,411.55283   L 47.348746,412.68392   L 42.500752,413.49183   L 37.652757,414.46134   L 32.643163,415.10767   L 27.795169,415.754   L 22.785574,415.59242   L 18.09918,414.94609   L 13.412785,413.16867   L 9.2111896,410.58333   L 5.9791932,404.76633   L 4.3631951,398.78775   L 3.7167958,392.486   L 4.2015953,386.18425   L 5.1711942,379.55933   L 6.6255925,373.25758   L 8.4031905,366.95583   L 10.180788,361.13882   L 15.998382,354.67549   L 22.785574,350.47432   L 30.219166,347.7274   L 38.299157,346.43474   L 46.540747,345.7884   L 55.105538,345.62682   L 63.670328,345.62682   L 72.073519,345.62682  z "
     style="fill:#000000;fill-rule:evenodd;fill-opacity:1;stroke:none;" />
  <path
     id="path75"
     d="  M 102.93908,353.86757   L 100.51509,359.36141   L 99.060688,365.33999   L 98.252689,371.64174   L 98.414289,377.94349   L 99.060688,384.08366   L 100.51509,390.22383   L 102.45428,395.87925   L 105.03988,401.37308   L 123.94706,399.91883   L 143.17744,399.75725   L 162.24622,400.72675   L 181.1534,403.47367   L 199.57577,407.51325   L 217.67495,413.49183   L 234.96613,421.40942   L 251.44932,431.26601   L 251.12612,432.07392   L 250.64132,433.04342   L 249.83332,433.68976   L 249.02532,434.49767   L 247.89412,434.98242   L 246.92452,435.46717   L 245.95492,435.95192   L 245.14692,436.43667   L 228.66374,430.29651   L 212.34216,425.12584   L 195.69738,420.6015   L 179.2142,417.04667   L 162.24622,414.29975   L 145.43984,412.68392   L 128.31025,412.03758   L 111.18067,412.68392   L 109.24148,413.97659   L 107.30228,414.62292   L 105.36308,414.29975   L 103.42388,413.815   L 101.48469,412.68392   L 99.868687,411.55283   L 98.252689,410.42175   L 96.798291,409.61383   L 92.435096,404.12   L 90.011098,398.46458   L 88.7183,392.16283   L 88.5567,386.02266   L 89.203099,379.55933   L 90.495898,373.25758   L 91.950296,366.95583   L 93.727894,361.13882   L 94.535893,360.00774   L 95.505492,358.71507   L 96.475091,357.26082   L 97.44469,355.80657   L 98.414289,354.51391   L 99.707087,353.70599   L 100.99989,353.22124   L 102.93908,353.86757  z "
     style="fill:#000000;fill-rule:evenodd;fill-opacity:1;stroke:none;" />
  <path
     id="path77"
     d="  M 318.35164,387.96166   L 324.65403,388.608   L 330.95643,389.41591   L 336.93562,390.22383   L 343.07641,390.87016   L 348.89401,391.19333   L 355.0348,391.19333   L 361.33719,390.70858   L 367.80118,389.90066   L 371.35638,394.425   L 373.94198,399.91883   L 375.39638,405.57425   L 375.88118,411.876   L 375.39638,418.17775   L 374.58838,424.4795   L 372.97238,430.61967   L 371.03318,436.43667   L 367.80118,437.89092   L 364.56919,439.34517   L 361.01399,440.79942   L 357.6204,442.25367   L 353.9036,443.06159   L 350.1868,443.70792   L 346.14681,443.86951   L 342.10681,443.54634   L 342.26841,442.90001   L 341.94521,442.41526   L 341.29881,441.93051   L 341.13721,441.44576   L 342.10681,439.34517   L 343.72281,438.21409   L 345.50041,437.89092   L 347.76281,437.89092   L 349.8636,437.89092   L 352.126,437.72934   L 353.9036,436.92142   L 355.5196,435.30559   L 357.4588,431.91234   L 359.07479,428.3575   L 360.20599,424.4795   L 361.17559,420.76309   L 361.49879,416.7235   L 361.49879,412.8455   L 361.17559,408.9675   L 360.69079,405.41267   L 351.6412,404.76633   L 342.59161,403.95842   L 333.86522,402.34258   L 325.46203,400.242   L 317.38204,397.01033   L 310.27165,392.64758   L 303.96926,386.83058   L 298.79806,379.72091   L 298.47486,378.42824   L 298.95966,377.62033   L 299.76766,377.13558   L 300.89886,376.65083   L 303.32286,377.29716   L 305.58525,378.58983   L 307.68605,380.20566   L 309.94845,382.14466   L 311.88765,383.92208   L 313.98845,385.6995   L 315.92764,386.99216   L 318.35164,387.96166  z "
     style="fill:#000000;fill-rule:evenodd;fill-opacity:1;stroke:none;" />
  <path
     id="path79"
     d="  M 25.694371,450.81759   L 25.209572,459.05834   L 25.371171,467.46068   L 25.694371,475.53985   L 26.66397,483.61902   L 27.795169,491.5366   L 29.734366,499.61577   L 31.996764,507.53335   L 34.905561,515.77411   L 38.622356,519.16736   L 43.147151,521.75269   L 47.995146,523.04536   L 53.32794,523.85327   L 58.660734,524.01486   L 64.316727,523.69169   L 69.811121,523.20694   L 75.143915,522.88377   L 79.83031,514.80461   L 83.547106,506.40227   L 86.132703,497.51519   L 87.748701,488.46652   L 88.2335,479.09468   L 87.910301,469.88443   L 86.455902,460.67418   L 84.355105,451.78709   L 84.355105,450.65601   L 84.678304,449.84809   L 85.163104,449.20176   L 85.971103,448.87859   L 87.263901,448.23226   L 88.5567,447.74751   L 90.819097,452.27184   L 92.758295,457.11934   L 94.051094,461.96684   L 95.182292,467.13751   L 95.667092,472.1466   L 95.828692,477.64043   L 95.828692,483.13427   L 95.667092,488.95127   L 96.798291,489.75918   L 97.60629,491.05185   L 98.091089,492.5061   L 98.252689,494.12193   L 98.091089,495.4146   L 97.929489,496.86885   L 97.767889,498.16152   L 97.767889,499.2926   L 96.475091,503.97852   L 95.182292,509.31077   L 93.566294,514.64302   L 91.465497,520.13686   L 88.5567,525.30752   L 85.163104,529.99344   L 80.638309,534.03303   L 75.143915,537.42628   L 69.326322,539.85003   L 63.023929,541.46586   L 56.236736,541.95061   L 49.611144,541.78903   L 42.985551,540.65794   L 36.844758,538.88053   L 31.188765,536.29519   L 26.66397,533.22511   L 22.947174,528.86236   L 20.523177,524.17644   L 18.745579,519.00577   L 17.77598,513.67352   L 17.129581,508.0181   L 16.644781,502.52427   L 15.998382,497.03044   L 15.351983,492.02135   L 14.059184,483.45743   L 13.574385,475.37826   L 13.735984,467.13751   L 14.543984,459.38151   L 15.836782,451.46393   L 17.61438,443.86951   L 19.876778,436.43667   L 22.623974,429.16542   L 26.66397,427.06484   L 28.118368,429.65017   L 28.764767,432.55867   L 28.764767,435.46717   L 28.441568,438.53726   L 27.633569,441.44576   L 26.82557,444.51584   L 26.017571,447.58593   L 25.694371,450.81759  z "
     style="fill:#000000;fill-rule:evenodd;fill-opacity:1;stroke:none;" />
  <path
     id="path81"
     d="  M 291.52607,470.36918   L 290.71807,471.33868   L 289.91007,472.63135   L 289.26367,473.76243   L 288.77887,475.0551   L 288.29407,476.18618   L 288.13247,477.64043   L 288.13247,479.09468   L 288.45567,480.71052   L 287.64767,480.22577   L 287.00128,480.71052   L 286.51648,481.19527   L 286.51648,481.68002   L 284.25408,489.27443   L 282.63808,496.86885   L 281.34528,504.46327   L 280.69888,512.21927   L 280.21408,519.81369   L 280.21408,527.56969   L 280.53728,535.32569   L 281.34528,543.56645   L 281.83008,547.60603   L 283.76928,550.99928   L 286.35488,553.58461   L 289.74847,556.00836   L 293.30367,557.78578   L 296.85886,559.5632   L 300.09086,561.17903   L 302.99966,563.11803   L 303.64606,563.27962   L 304.77726,563.4412   L 305.74685,563.4412   L 307.03965,563.60278   L 308.33245,563.60278   L 309.62525,563.60278   L 310.91805,563.76437   L 312.21085,564.24912   L 311.24125,565.54178   L 310.27165,566.83445   L 309.30205,567.80395   L 308.33245,568.93503   L 307.03965,569.58137   L 305.74685,570.38928   L 304.29246,570.87403   L 302.99966,571.35878   L 298.47486,571.03562   L 294.27327,570.38928   L 289.91007,569.09662   L 286.03168,567.48078   L 281.99168,565.3802   L 278.59809,562.95645   L 275.52769,560.04795   L 273.10369,556.97786   L 265.8317,513.67352   L 267.4477,505.43277   L 269.0637,497.19202   L 270.35649,488.95127   L 271.97249,481.03368   L 273.58849,472.95451   L 275.68929,465.3601   L 278.11329,457.76568   L 281.34528,450.81759   L 282.79968,450.00968   L 284.41568,449.04018   L 286.03168,447.74751   L 287.80927,446.93959   L 289.26367,446.13168   L 290.87967,446.13168   L 292.17247,446.93959   L 293.62687,448.71701   L 294.27327,451.46393   L 294.75807,454.37243   L 294.75807,457.11934   L 294.43487,459.86626   L 293.78847,462.29001   L 292.98047,464.87535   L 292.17247,467.46068   L 291.52607,470.36918  z "
     style="fill:#000000;fill-rule:evenodd;fill-opacity:1;stroke:none;" />
  <path
     id="path83"
     d="  M 364.73079,471.33868   L 364.73079,483.29585   L 364.40759,495.4146   L 363.27639,507.37177   L 361.49879,519.32894   L 358.42839,530.47819   L 354.3884,541.46586   L 348.89401,551.48403   L 342.10681,561.01745   L 341.13721,561.82537   L 339.84442,562.79487   L 338.39002,563.27962   L 336.93562,563.11803   L 337.90522,555.6852   L 340.00602,548.41395   L 342.59161,541.14269   L 345.82361,534.03303   L 348.57081,526.76177   L 350.9948,519.49052   L 352.2876,511.89611   L 352.4492,504.46327   L 353.2572,499.2926   L 354.0652,494.4451   L 354.55,489.5976   L 354.8732,484.91168   L 354.7116,480.06418   L 354.3884,475.53985   L 353.9036,470.85393   L 353.4188,466.3296   L 355.1964,463.25951   L 356.8124,462.29001   L 358.26679,462.4516   L 359.72119,463.74426   L 361.01399,465.3601   L 362.30679,467.62226   L 363.43799,469.72285   L 364.73079,471.33868  z "
     style="fill:#000000;fill-rule:evenodd;fill-opacity:1;stroke:none;" />
  <path
     id="path85"
     d="  M 242.07653,473.43926   L 243.69252,486.20435   L 244.33892,499.13102   L 243.69252,512.05769   L 241.59173,524.82277   L 237.71333,536.94153   L 232.54214,548.57553   L 225.27015,559.24003   L 216.38216,569.2582   L 209.59496,573.29778   L 202.32297,575.88312   L 194.24298,577.0142   L 186.16299,577.17579   L 177.5982,575.88312   L 169.51821,574.1057   L 161.59982,571.35878   L 154.48943,568.2887   L 146.57103,563.27962   L 139.62224,557.46261   L 133.64305,550.67611   L 128.79505,543.24328   L 124.27026,535.16411   L 120.23026,527.08494   L 116.67507,518.68261   L 113.28147,510.60344   L 113.11987,509.14919   L 113.11987,507.85652   L 112.95827,506.40227   L 112.95827,504.94802   L 112.95827,503.33219   L 113.11987,501.87794   L 113.60467,500.42369   L 114.25107,499.2926   L 115.54387,499.45419   L 116.67507,500.2621   L 117.48307,501.2316   L 118.45267,502.36269   L 118.45267,506.40227   L 121.19986,513.51194   L 124.43186,520.46002   L 128.14866,527.24653   L 132.51185,533.70986   L 137.19824,539.68844   L 142.36944,545.50545   L 148.18703,550.8377   L 154.48943,555.84678   L 161.11502,558.5937   L 167.90221,560.5327   L 174.851,561.66378   L 181.96139,562.14853   L 188.74859,561.5022   L 195.53578,560.04795   L 201.99977,557.46261   L 208.14056,553.90778   L 214.92776,546.31336   L 220.42215,538.23419   L 224.62375,529.50869   L 228.01734,520.46002   L 230.44134,510.76502   L 232.54214,501.2316   L 234.15814,491.37502   L 235.93573,481.68002   L 234.96613,466.3296   L 236.74373,465.68326   L 238.19813,466.16801   L 239.16773,466.97593   L 239.97573,468.2686   L 240.29893,469.56126   L 240.78373,471.01551   L 241.26853,472.30818   L 242.07653,473.43926  z "
     style="fill:#000000;fill-rule:evenodd;fill-opacity:1;stroke:none;" />
  <path
     id="path87"
     d="  M 206.03977,484.7501   L 207.49417,488.6281   L 209.11016,492.5061   L 210.40296,496.54569   L 211.69576,500.74685   L 212.34216,504.62485   L 212.66536,508.66444   L 212.18056,512.70402   L 211.21096,516.74361   L 209.75656,516.42044   L 208.78696,515.93569   L 208.14056,515.12777   L 207.81737,514.31986   L 207.49417,513.35036   L 207.33257,512.38086   L 207.17097,511.41136   L 207.00937,510.60344   L 206.84777,506.24069   L 206.36297,502.36269   L 205.07017,498.64627   L 203.29257,495.25302   L 200.86857,491.85977   L 198.44458,488.95127   L 195.53578,486.04277   L 192.62698,483.7806   L 190.36458,482.16477   L 188.10219,481.19527   L 185.51659,480.22577   L 183.09259,479.9026   L 180.3454,479.74102   L 177.9214,480.06418   L 175.3358,480.54893   L 173.0734,481.68002   L 168.22541,483.94218   L 163.86221,487.17385   L 159.66062,491.05185   L 156.10542,495.73777   L 152.87343,500.42369   L 150.77263,505.75594   L 149.47983,511.08819   L 149.31823,516.74361   L 148.18703,517.71311   L 146.57103,518.35944   L 145.60144,518.19786   L 144.79344,518.19786   L 143.82384,517.87469   L 143.17744,517.71311   L 141.56144,513.02719   L 140.59184,508.34127   L 140.43024,503.49377   L 141.07664,498.96944   L 142.04624,494.12193   L 143.66224,489.75918   L 145.60144,485.55802   L 148.34863,481.68002   L 150.44943,479.25627   L 152.71183,476.9941   L 154.81262,474.89351   L 157.23662,472.95451   L 159.49902,471.01551   L 162.08462,469.39968   L 164.83181,468.10701   L 167.90221,467.2991   L 173.7198,466.49118   L 179.5374,466.81435   L 184.87019,468.10701   L 190.04139,470.2076   L 194.56618,472.95451   L 198.76778,476.34776   L 202.64617,480.22577   L 206.03977,484.7501  z "
     style="fill:#000000;fill-rule:evenodd;fill-opacity:1;stroke:none;" />
  <path
     id="path89"
     d="  M 25.694371,553.90778   L 25.209572,560.85587   L 24.239973,568.45028   L 23.270374,576.0447   L 22.947174,583.63912   L 23.270374,590.5872   L 25.047972,596.88896   L 28.764767,602.05962   L 34.905561,606.42237   L 40.561554,608.68454   L 46.055948,610.62354   L 51.550342,611.75463   L 57.044736,612.56254   L 62.377529,612.56254   L 67.871923,612.07779   L 73.366317,610.94671   L 79.18391,609.49246   L 82.577507,604.80654   L 85.001504,599.63587   L 86.294302,593.81887   L 87.263901,588.16345   L 87.910301,582.18487   L 88.5567,576.52945   L 89.687899,571.03562   L 91.627096,566.18812   L 92.758295,566.67287   L 93.889494,567.64237   L 94.535893,568.93503   L 95.343892,570.71245   L 95.828692,572.1667   L 96.313491,574.1057   L 96.95989,575.72153   L 97.767889,577.49895   L 98.575889,582.34645   L 99.060688,587.51712   L 99.060688,592.52621   L 98.575889,597.69687   L 97.28309,602.38279   L 95.505492,607.06871   L 92.919895,611.43146   L 89.526299,615.63263   L 81.446308,620.48013   L 73.204717,623.22704   L 64.478327,624.03496   L 55.913537,623.55021   L 47.025547,621.61121   L 38.299157,619.18746   L 29.572767,616.44054   L 21.492776,613.69363   L 15.513582,608.84613   L 11.958386,603.02912   L 10.019189,596.56579   L 9.695989,589.77929   L 10.180788,582.50804   L 11.473587,575.39837   L 12.927985,568.45028   L 14.382384,562.14853   L 20.523177,550.8377   L 21.815975,550.99928   L 23.108774,551.8072   L 24.078373,552.7767   L 25.694371,553.90778  z "
     style="fill:#000000;fill-rule:evenodd;fill-opacity:1;stroke:none;" />
  <path
     id="path91"
     d="  M 346.30841,643.58655   L 337.90522,646.49505   L 329.01723,648.43405   L 319.32124,649.08038   L 309.78685,648.9188   L 300.09086,647.14138   L 290.87967,644.23288   L 282.47648,639.87013   L 275.04289,634.21471   L 272.29569,631.95255   L 270.67969,629.20563   L 269.7101,626.13555   L 269.2253,622.90388   L 268.7405,619.34904   L 268.2557,615.95579   L 267.2861,612.56254   L 265.8317,609.49246   L 266.3165,606.74554   L 266.6397,603.83704   L 266.8013,600.44379   L 267.1245,597.05054   L 267.4477,593.49571   L 268.2557,590.26404   L 269.2253,587.19395   L 271.00289,584.7702   L 271.81089,584.12387   L 272.78049,583.96229   L 273.42689,584.12387   L 274.23489,584.60862   L 274.71969,585.09337   L 275.20449,586.06287   L 275.68929,586.87079   L 276.17409,587.84029   L 276.49729,593.17254   L 276.98209,598.82796   L 277.79009,604.32179   L 279.08288,609.81563   L 280.69888,614.98629   L 283.12288,619.83379   L 286.35488,624.19654   L 290.55647,628.07455   L 295.40447,630.01355   L 300.89886,631.62938   L 306.55485,632.59888   L 312.69565,633.24521   L 318.51324,633.24521   L 324.33083,632.76046   L 329.82523,631.62938   L 334.83482,630.17513   L 339.68282,625.16605   L 343.72281,619.99538   L 346.63161,614.50154   L 349.05561,608.84613   L 350.1868,602.86754   L 350.6716,597.05054   L 350.3484,590.91037   L 349.37881,584.7702   L 353.4188,579.59954   L 355.1964,587.6787   L 356.6508,596.08104   L 357.1356,604.48337   L 357.1356,613.04729   L 355.8428,621.12646   L 353.742,629.04405   L 350.51,636.47688   L 346.30841,643.58655  z "
     style="fill:#000000;fill-rule:evenodd;fill-opacity:1;stroke:none;" />
  <path
     id="path93"
     d="  M 157.55982,607.39187   L 157.55982,606.42237   L 169.84141,608.52296   L 182.44619,610.78513   L 195.05098,613.04729   L 207.81737,615.47104   L 220.42215,617.89479   L 233.02694,620.64171   L 245.30852,623.55021   L 257.59011,627.10505   L 256.94371,628.23613   L 256.78211,629.5288   L 256.78211,630.98305   L 257.10531,632.4373   L 256.94371,633.56838   L 256.78211,634.86105   L 255.97411,635.66896   L 254.51971,636.3153   L 238.84453,634.69946   L 223.33095,632.59888   L 207.65577,630.17513   L 192.14218,627.42821   L 176.3054,624.35813   L 160.63022,621.28804   L 145.11664,618.37954   L 129.76465,615.63263   L 128.47185,615.63263   L 127.50226,615.63263   L 126.53266,615.30946   L 125.72466,614.98629   L 123.94706,614.01679   L 122.49266,613.69363   L 120.06866,613.53204   L 118.12947,613.37046   L 116.19027,613.04729   L 114.57427,612.72413   L 112.63507,612.07779   L 111.18067,611.26988   L 109.56468,610.30038   L 108.11028,609.49246   L 107.78708,608.36138   L 107.94868,607.55346   L 108.27188,606.90712   L 108.91828,606.42237   L 110.04948,605.45287   L 111.18067,604.32179   L 116.99827,603.83704   L 122.97746,603.67546   L 128.63345,603.67546   L 134.28945,603.83704   L 139.78384,604.16021   L 145.60144,604.96812   L 151.41903,605.93762   L 157.55982,607.39187  z "
     style="fill:#000000;fill-rule:evenodd;fill-opacity:1;stroke:none;" />
</svg>
