<?xml version="1.0" encoding="UTF-8" standalone="no"?>
<svg
   xmlns:dc="http://purl.org/dc/elements/1.1/"
   xmlns:cc="http://creativecommons.org/ns#"
   xmlns:rdf="http://www.w3.org/1999/02/22-rdf-syntax-ns#"
   xmlns:svg="http://www.w3.org/2000/svg"
   xmlns="http://www.w3.org/2000/svg"
   id="svg63"
   height="62.165359mm"
   width="128.95396mm"
   version="1.0">
  <metadata
     id="metadata67">
    <rdf:RDF>
      <cc:Work
         rdf:about="">
        <dc:format>image/svg+xml</dc:format>
        <dc:type
           rdf:resource="http://purl.org/dc/dcmitype/StillImage" />
        <dc:title></dc:title>
      </cc:Work>
    </rdf:RDF>
  </metadata>
  <defs
     id="defs3">
    <pattern
       y="0"
       x="0"
       height="6"
       width="6"
       patternUnits="userSpaceOnUse"
       id="WMFhbasepattern" />
  </defs>
  <g
     transform="translate(3.3935962,-14.381744)"
     id="g98">
    <path
       style="fill:#ffff00;fill-opacity:1;fill-rule:evenodd;stroke:none"
       d="m 125.07826,156.90644 -2.5856,0.32319 -2.1008,0.96955 -1.93919,1.45434 -1.616,1.93911 -1.7776,1.61593 -1.4544,1.45433 -1.616,1.13115 -1.45439,0.48478 -1.7776,2.1007 -1.2928,2.2623 -0.9696,2.42389 -0.4848,2.42389 -0.4848,2.42389 -0.1616,2.74707 v 2.90867 3.23185 l 1.7776,2.58548 h 1.7776 l 0.808,1.77752 h 2.58559 v 1.61593 l 1.9392,0.16159 2.1008,-0.32319 1.7776,-0.96955 1.93919,-0.80796 1.4544,-1.29275 1.616,-0.80796 1.4544,-0.80796 1.4544,-0.16159 0.3232,-2.74708 0.808,-2.58548 1.29279,-2.74708 1.2928,-2.58548 1.1312,-3.07026 0.808,-3.07026 0.1616,-3.23185 -0.6464,-3.23185 -0.3232,-0.96956 -0.3232,-0.80796 -0.6464,-1.13115 -0.4848,-0.96956 -0.808,-1.13114 -0.48479,-0.96956 -0.4848,-0.96956 v -0.64637 l -0.808,-0.96955 -0.808,-0.80797 h -0.9696 -0.808 v 0.80797 z"
       id="path5" />
    <path
       style="fill:#ffff00;fill-opacity:1;fill-rule:evenodd;stroke:none"
       d="m 134.61265,112.30688 9.04959,-1.77752 8.07999,-3.07026 6.62559,-4.363 5.65599,-5.332559 4.04,-6.625298 2.5856,-7.433261 0.808,-8.564409 -0.9696,-9.049187 -1.616,0.64637 -1.4544,1.292741 -1.4544,1.292741 -1.4544,1.615927 -1.45439,1.454333 -0.9696,1.777519 -0.808,1.454334 -0.1616,1.615926 -3.8784,2.262297 -4.52479,3.07026 -5.1712,3.231852 -5.33279,3.555038 -5.49439,3.07026 -5.1712,2.747075 -4.52479,1.777519 -3.5552,0.807963 0.808,0.484778 1.4544,1.615926 1.7776,2.262295 2.10079,2.90867 1.7776,2.58548 1.616,2.2623 1.1312,1.61592 z"
       id="path7" />
    <path
       style="fill:#00ff00;fill-opacity:1;fill-rule:evenodd;stroke:none"
       d="m 350.51,122.64881 -6.78719,2.74707 -4.84799,4.84778 -3.232,5.81733 -1.1312,6.30212 0.808,5.65574 3.232,4.363 5.49439,1.93911 8.07999,-0.80796 1.616,-3.71663 1.2928,-3.71663 0.6464,-3.71663 0.3232,-3.55504 -0.1616,-3.71663 -0.1616,-3.71663 -0.1616,-3.71663 v -3.39345 l -1.4544,-0.64637 -1.616,-0.48478 -1.616,-0.48477 h -1.2928 z"
       id="path9" />
    <path
       style="fill:#00ff00;fill-opacity:1;fill-rule:evenodd;stroke:none"
       d="m 359.07479,88.391169 5.1712,-2.100705 6.62559,-2.747074 7.43359,-3.555038 7.43359,-3.878223 6.6256,-4.686187 5.81759,-5.170964 3.8784,-5.494149 1.45439,-5.817335 -5.81759,1.777519 -5.81759,2.585482 -6.1408,2.747075 -5.97919,2.908667 -6.46399,2.747075 -6.30239,2.262297 -6.3024,1.454333 -5.97919,0.646371 0.4848,0.323185 0.6464,0.969556 0.3232,1.131148 0.3232,0.969556 0.3232,0.484778 0.6464,1.454334 0.6464,1.777519 0.96959,2.100704 0.808,1.777519 0.808,1.777519 0.808,1.292741 0.9696,0.484778 v 1.131148 l -0.1616,0.969556 -0.4848,0.161592 -0.4848,0.161593 -0.9696,-0.323185 z"
       id="path11" />
    <path
       style="fill:#6666ff;fill-opacity:1;fill-rule:evenodd;stroke:none"
       d="m 216.86695,79.826759 h -1.13119 -1.1312 l -1.1312,0.161593 -0.9696,0.161592 h -1.2928 l -1.1312,0.161593 -0.9696,0.161593 -0.808,0.161592 -0.96959,0.646371 -0.808,0.969556 -0.808,0.969555 -0.808,1.292741 -0.9696,0.969556 -0.808,1.131149 -0.6464,0.807963 -0.3232,0.969556 -2.1008,7.594853 1.9392,4.524598 4.6864,1.45433 6.30239,-0.80796 6.30239,-2.908671 5.0096,-4.201408 2.42399,-5.332557 -1.29279,-5.49415 -0.9696,-1.292741 -0.9696,-0.807963 -1.2928,-0.484778 h -1.1312 z"
       id="path13" />
    <path
       style="fill:#6666ff;fill-opacity:1;fill-rule:evenodd;stroke:none"
       d="m 291.36447,80.634722 h 0.808 0.808 v 0.807963 0.969556 h 0.9696 l 3.87839,6.463705 0.3232,5.49415 -2.58559,4.524593 -4.3632,3.716631 -6.14079,2.74707 -6.3024,1.93912 -6.30239,1.13114 -5.17119,0.48478 v -5.97892 l 0.3232,-5.009376 0.6464,-4.363001 1.61599,-3.878223 2.2624,-3.393446 3.3936,-2.585482 4.52479,-2.262297 6.1408,-1.615926 z"
       id="path15" />
    <path
       style="fill:#ff0000;fill-opacity:1;fill-rule:evenodd;stroke:none"
       d="m 215.89736,150.92752 6.78719,1.29274 7.43359,1.13115 7.43359,0.80796 7.75679,0.96955 7.27199,0.64638 7.4336,0.96955 6.78719,1.13115 6.46399,1.61593 -1.9392,12.44263 -5.00959,8.24122 -7.59519,4.5246 -9.21119,2.1007 h -10.66559 l -11.15039,-0.80796 -11.15038,-1.29274 -10.01919,-0.48478 -0.6464,-0.64637 -1.2928,-0.48478 -1.4544,-0.48478 h -0.9696 v -1.77752 h 0.9696 l 1.1312,-2.42389 1.2928,-2.42389 1.2928,-2.58548 1.45439,-2.42389 1.2928,-2.42389 1.4544,-2.42389 1.4544,-2.26229 1.7776,-1.77752 v -2.58548 l 0.6464,-0.32319 0.1616,-0.16159 v -0.48478 h 0.808 v -1.13115 l 0.4848,-1.29274 0.48479,-1.29274 0.808,-0.48478 -0.1616,-0.96955 -0.1616,-1.13115 -0.4848,-0.96956 z"
       id="path17" />
    <path
       style="fill:#ff0000;fill-opacity:1;fill-rule:evenodd;stroke:none"
       d="m 241.59173,216.85731 -1.2928,0.32318 -1.7776,0.96956 -1.9392,0.96956 -1.9392,1.29274 -2.10079,1.13115 -1.9392,0.96955 -1.616,0.80796 -0.9696,0.32319 -0.808,1.77752 -0.808,1.61592 -0.96959,1.45434 -0.4848,1.61592 -0.6464,1.45434 -0.3232,1.45433 v 1.61593 l 0.4848,1.93911 h 12.11998 l 1.9392,-2.42389 1.9392,-2.2623 1.4544,-2.42389 1.45439,-2.42389 0.9696,-2.74707 0.808,-2.74707 0.4848,-3.23186 0.3232,-3.23185 h -1.4544 l -1.1312,0.16159 -0.96959,0.48478 z"
       id="path19" />
    <path
       style="fill:#ff0000;fill-opacity:1;fill-rule:evenodd;stroke:none"
       d="m 174.043,188.5786 -1.61599,1.29274 -1.9392,2.42389 -2.1008,2.90867 -1.9392,3.23185 -1.9392,2.90867 -1.61599,2.58548 -1.2928,1.77752 -0.4848,0.80796 -0.1616,0.96956 -0.1616,0.96955 -0.1616,1.13115 v 1.13115 l -0.1616,0.96956 -0.1616,1.13114 v 1.13115 1.13115 l 4.20159,1.45433 4.2016,0.1616 3.7168,-1.13115 3.39359,-2.10071 2.7472,-3.07026 2.1008,-3.55503 1.45439,-4.363 0.4848,-4.5246 -0.9696,-0.64637 -0.80799,-0.80796 -1.1312,-1.13115 -0.9696,-1.13115 -1.1312,-1.29274 -0.9696,-0.96956 -0.6464,-0.64637 -0.3232,-0.16159 h -0.808 z"
       id="path21" />
    <path
       style="fill:#000000;fill-opacity:1;fill-rule:evenodd;stroke:none"
       d="m 227.04774,249.33743 -7.43359,-4.68619 -3.39359,-5.97893 -0.4848,-6.94848 2.58559,-6.78689 4.3632,-6.4637 5.81759,-4.84778 6.78719,-2.90867 7.272,0.16159 -0.1616,0.80797 v 1.29274 l -0.3232,1.45433 -0.4848,1.45433 -4.848,0.80797 -3.87839,1.45433 -3.232,2.1007 -2.424,2.74708 -1.93919,3.07026 -1.1312,3.71663 -0.6464,4.363 0.1616,5.00937 1.7776,-0.32318 2.26239,-0.48478 2.5856,-1.13115 2.5856,-1.13115 2.10079,-1.61592 1.7776,-1.61593 1.1312,-2.1007 0.3232,-1.93912 -0.9696,-0.48477 -0.6464,-0.1616 h -0.4848 -0.4848 -0.808 l -0.80799,0.64637 -0.3232,1.13115 -0.4848,1.13115 -0.808,0.80796 -0.9696,0.32319 -0.9696,-3.55504 0.808,-3.07026 2.1008,-2.42389 2.90879,-1.29274 2.9088,-0.32318 2.9088,1.29274 2.10079,3.07026 0.9696,5.49415 -1.4544,2.1007 -1.77759,2.74707 -2.2624,2.90867 -2.424,3.07026 -2.7472,2.74708 -2.58559,2.26229 -2.5856,1.45434 z"
       id="path23" />
    <path
       style="fill:#000000;fill-opacity:1;fill-rule:evenodd;stroke:none"
       d="m 161.11502,228.0072 -2.2624,-1.13115 -1.9392,-1.29274 -1.616,-1.77752 -1.45439,-1.77752 -1.4544,-2.26229 -0.9696,-1.93911 -0.9696,-1.93912 -0.4848,-1.61592 0.4848,-6.30212 1.2928,-5.49414 2.1008,-4.84778 3.07039,-4.03982 3.5552,-3.39344 4.68639,-2.2623 5.4944,-1.45434 6.78719,-0.48477 0.6464,1.13115 0.9696,1.45433 0.808,1.13115 0.9696,1.45433 -1.4544,0.48478 -1.7776,0.48478 -2.424,0.48477 -2.2624,0.64638 -2.58559,0.48477 -2.424,0.80797 -1.9392,0.80796 -1.4544,0.96956 -1.45439,2.1007 -1.1312,2.2623 -1.1312,2.42389 -0.9696,2.42389 -0.9696,2.42388 -0.6464,2.74708 -0.4848,2.90867 v 3.23185 l 2.9088,1.93911 3.39359,0.48478 3.0704,-0.80796 3.232,-1.77752 2.58559,-2.90867 2.1008,-3.23185 1.1312,-3.71663 0.3232,-3.71663 h -1.616 -0.9696 l -0.9696,0.16159 -0.48479,0.32318 -0.9696,0.80797 -0.9696,1.29274 -0.1616,1.13115 v 1.29274 l -0.1616,1.13115 -0.3232,1.13114 -0.6464,0.80797 -0.6464,0.96955 -0.9696,0.64637 -1.2928,0.64637 -2.2624,-3.71663 -0.3232,-3.87822 1.2928,-3.55504 2.5856,-2.90866 3.232,-1.77752 3.87839,0.16159 4.04,2.1007 3.87839,5.00937 -0.4848,4.20141 -1.45439,4.363 -2.1008,3.87823 -2.5856,3.55504 -3.3936,2.74707 -3.55519,2.2623 -4.04,1.45433 z"
       id="path25" />
    <path
       style="fill:#000000;fill-opacity:1;fill-rule:evenodd;stroke:none"
       d="m 255.32771,223.6442 -3.71679,-3.39345 -0.6464,-5.65574 1.29279,-7.27167 2.9088,-7.91803 3.5552,-8.24123 3.87839,-7.43326 3.3936,-5.97893 2.2624,-3.71663 0.4848,-0.96955 1.77759,-2.10071 2.2624,-3.07026 3.0704,-3.39344 2.7472,-3.55504 2.90879,-2.90867 2.2624,-2.26229 1.616,-0.64638 v 0.80797 0.64637 l 0.1616,0.48478 0.1616,0.64637 v 0.48477 l 0.1616,0.80797 0.1616,0.80796 0.1616,1.29274 -4.04,6.46371 -3.55519,6.78689 -3.232,6.94848 -2.9088,7.27167 -3.07039,7.27167 -2.9088,7.27167 -3.3936,7.27166 -3.39359,7.27167 -0.4848,1.29274 -0.1616,1.29274 -0.4848,0.96956 -0.1616,0.96956 -0.6464,0.48477 -0.6464,0.48478 -0.808,0.32319 z"
       id="path27" />
    <path
       style="fill:#000000;fill-opacity:1;fill-rule:evenodd;stroke:none"
       d="m 188.58699,213.46386 -2.9088,-2.58548 -1.2928,-2.58548 -0.1616,-2.90867 0.9696,-2.90866 1.2928,-3.07026 1.7776,-2.90867 1.616,-2.74708 1.29279,-2.58548 2.5856,-5.97893 2.5856,-5.81733 2.2624,-5.81734 2.42399,-5.81733 2.424,-5.81733 2.7472,-5.65575 2.90879,-5.33255 3.3936,-5.17097 h 7.11039 7.75679 7.75679 l 8.24159,0.48478 8.08,0.32319 8.07999,0.80796 7.75679,0.96955 7.75679,1.61593 -0.4848,6.30211 -2.5856,4.20141 -4.36319,2.10071 -5.3328,0.80796 -6.30239,-0.48478 -5.97919,-0.96955 -5.656,-1.29275 -4.36319,-1.13114 -2.7472,-0.96956 -2.90879,-1.13115 -3.232,-1.29274 -3.232,-1.13115 -3.39359,-1.29274 -3.232,-0.80796 -2.9088,-0.48478 -2.42399,0.16159 -0.808,1.45434 -0.6464,1.61592 -0.808,1.45434 -0.4848,1.61592 -0.6464,1.45434 -0.4848,1.61592 -0.3232,1.77752 v 1.93911 l 5.97919,0.80797 6.3024,0.80796 6.30239,0.80796 6.46399,0.80797 6.3024,0.64637 6.62559,0.64637 6.62559,0.64637 6.78719,0.80796 v 0.96956 0.96955 0.64637 0.80797 l -1.9392,0.96955 -1.45439,0.96956 -1.2928,0.80796 -0.9696,0.64637 -1.2928,0.32319 -1.1312,0.32318 -1.4544,0.16159 -1.61599,0.1616 -3.8784,2.58548 -5.17119,1.13115 h -6.3024 l -6.46399,-0.96956 -6.62559,-1.77752 -5.9792,-2.26229 -5.00959,-2.58549 -3.3936,-2.26229 h -0.9696 -0.80799 l -0.4848,0.80796 -0.3232,0.96956 -0.4848,0.80796 -0.3232,0.96955 -0.3232,0.80797 v 0.96955 0.96956 l 0.3232,1.45433 5.49439,1.13115 5.97919,1.45433 6.1408,1.13115 6.30239,1.29274 6.30239,0.64637 6.3024,0.48478 6.14079,-0.32318 6.14079,-0.64637 h 1.1312 l 1.4544,0.80796 v 0.80796 0.80797 0.80796 0.96956 l -5.97919,1.29274 -6.6256,1.13114 -7.27199,0.48478 -7.27199,0.1616 -7.43359,-0.64638 -6.62559,-1.13114 -5.8176,-2.10071 -4.36319,-2.58548 h -0.9696 -0.808 -0.9696 -0.808 l -1.4544,3.39345 -1.4544,3.39344 -1.61599,3.39345 -1.616,3.39344 -1.7776,3.23185 -1.616,3.23186 -1.7776,3.23185 -1.45439,3.39344 z"
       id="path29" />
    <path
       style="fill:#000000;fill-opacity:1;fill-rule:evenodd;stroke:none"
       d="m 333.38042,203.9299 -2.42399,-0.48478 -1.9392,-0.48478 -1.9392,-0.48477 -1.7776,-0.48478 -1.9392,-0.80797 -1.61599,-0.80796 -1.616,-0.80796 -1.4544,-0.80797 1.7776,-1.45433 1.616,-0.80796 1.61599,-0.64637 h 1.616 1.4544 l 1.9392,0.16159 2.1008,0.16159 2.58559,0.1616 0.9696,-0.80797 1.1312,-0.48478 0.9696,-0.48477 1.1312,-0.32319 0.9696,-0.48478 0.9696,-0.32318 0.9696,-0.48478 1.45439,-0.16159 8.40319,-4.84778 8.07999,-4.363 7.4336,-3.87823 7.59519,-3.07026 7.59519,-2.42389 8.24159,-1.29274 8.72639,-0.16159 9.85759,1.29274 3.3936,0.80797 3.55519,0.96955 3.5552,0.80796 3.71679,0.96956 3.5552,0.48478 3.87839,0.64637 3.8784,0.32318 4.3632,0.1616 -0.3232,0.64637 -0.1616,0.96955 -0.3232,0.80797 v 0.96955 h 0.96959 0.9696 0.6464 0.808 v 1.13115 1.45433 l -5.81759,5.33256 -5.3328,3.55504 -5.49439,1.93911 -5.49439,0.80796 -5.8176,-0.32318 -6.14079,-1.13115 -6.78719,-1.61593 -7.11039,-1.77752 -1.9392,-0.16159 -1.9392,-0.16159 -1.9392,-0.16159 h -1.93919 l -1.9392,-0.1616 -1.9392,-0.16159 h -1.9392 -1.7776 l -5.81759,1.29274 -5.65599,1.93911 -5.4944,1.93912 -5.33279,2.1007 -5.33279,1.77752 -5.3328,1.77752 -5.33279,1.13115 z"
       id="path31" />
    <path
       style="fill:#000000;fill-opacity:1;fill-rule:evenodd;stroke:none"
       d="m 118.29107,200.53645 -3.0704,-1.61592 -2.5856,-1.61593 -2.26239,-1.93911 -1.9392,-1.93911 -1.9392,-2.2623 -1.4544,-2.1007 -1.616,-2.10071 -1.4544,-1.77752 -2.100793,-6.62529 -0.646399,-6.6253 0.484799,-6.30211 1.939203,-5.49415 3.07039,-4.84778 4.5248,-3.39345 5.97919,-1.93911 h 7.43359 l 1.4544,0.96956 0.9696,1.13114 0.4848,0.96956 v 0.96956 l -0.4848,0.96955 -0.808,1.29274 -1.2928,1.29274 -1.2928,1.93912 -0.4848,0.80796 -0.1616,0.64637 -0.3232,0.48478 -0.1616,0.64637 -0.4848,0.48478 -0.3232,0.80796 -0.64639,0.80796 -0.808,1.29274 -2.7472,2.10071 -2.1008,2.58548 -1.4544,2.90867 -0.9696,3.39344 -0.48479,3.39345 v 3.39344 l 0.64639,3.39345 1.1312,3.55504 4.3632,1.13114 3.87839,0.1616 3.232,-1.13115 2.9088,-1.77752 2.10079,-2.74708 1.9392,-3.23185 1.1312,-3.87822 0.9696,-3.87822 -0.4848,-2.10071 -0.1616,-1.61592 -0.3232,-1.13115 -0.1616,-0.80797 -0.6464,-0.64637 -0.6464,-0.32318 -0.808,-0.16159 h -0.9696 l -0.96959,1.13114 -0.808,1.13115 -0.808,1.13115 -0.4848,1.45433 -0.4848,1.29274 -0.3232,1.45434 v 1.61592 l 0.3232,1.93912 h 0.4848 1.2928 l 0.4848,0.32318 0.6464,0.64637 0.1616,0.32319 0.16159,0.48478 0.1616,0.64637 0.1616,0.96955 -1.29279,0.96956 -1.1312,0.80796 -0.6464,0.16159 -0.4848,0.32319 -0.808,0.16159 -0.808,0.16159 -2.1008,-3.07026 -1.2928,-2.90866 -0.4848,-3.07026 0.1616,-2.74708 0.808,-2.90867 1.616,-2.42388 2.2624,-2.42389 3.232,-1.93912 5.33279,1.45434 3.7168,2.74707 2.10079,3.39345 0.9696,4.20141 -0.3232,4.52459 -1.1312,5.00937 -1.77759,4.68619 -1.9392,4.84778 -2.2624,1.77752 -1.7776,1.45433 -1.616,1.13115 -1.61599,0.80796 -1.9392,0.32319 -1.9392,0.32318 h -2.424 z"
       id="path33" />
    <path
       style="fill:#000000;fill-opacity:1;fill-rule:evenodd;stroke:none"
       d="m 19.715178,164.5013 -4.039996,-0.80797 -3.555196,-0.64637 -3.231996,-0.96955 -2.7471969,-0.96956 -2.7471969,-1.45433 -2.2623975,-1.61593 -2.4239972,-2.1007 -2.1007977,-2.42389 0.4847995,-0.96956 0.4847994,-0.80796 0.4847995,-0.80796 0.4847994,-0.48478 0.1615999,-0.80796 0.1615998,-0.64638 0.1615998,-0.80796 0.16159981,-0.80796 H 0.48479945 1.777598 2.7471969 4.0399954 5.1711942 6.9487921 9.0495898 12.119986 l 8.88799,-3.07026 7.918391,-2.42389 7.433592,-1.77752 7.110392,-0.80796 6.948792,-0.1616 7.433592,0.80797 8.24159,1.93911 9.37279,3.07026 4.039995,2.1007 4.039996,1.45434 4.039995,0.64637 4.039995,0.16159 3.878396,-0.80796 4.039995,-1.29274 4.039993,-2.10071 4.3632,-2.74707 v 0.80796 0.80796 l -5.9792,3.39345 -5.817589,2.42389 -5.979193,1.29274 -5.979193,0.80796 -6.302393,0.16159 h -6.140793 l -6.302393,-0.32318 h -6.302393 l -4.686395,1.93911 -4.847994,2.10071 -5.009594,2.1007 -4.847995,2.1007 -5.171194,1.77752 -5.009594,1.45434 -5.009595,0.80796 z"
       id="path35" />
    <path
       style="fill:#000000;fill-opacity:1;fill-rule:evenodd;stroke:none"
       d="m 346.14681,162.07741 -7.91839,-2.2623 -5.3328,-3.23185 -3.55519,-4.03982 -1.4544,-4.68618 -0.3232,-5.65575 1.1312,-5.81733 1.9392,-6.46371 2.74719,-6.4637 1.1312,-1.29274 1.7776,-1.29274 1.9392,-1.45434 2.42399,-0.96955 2.2624,-0.80797 2.2624,-0.16159 1.7776,0.80797 1.7776,1.77751 -3.8784,3.39345 -3.232,3.39344 -2.90879,3.23186 -2.2624,3.55503 -1.616,3.55504 -0.6464,4.363 0.1616,5.00938 1.4544,5.97892 2.7472,2.42389 2.58559,1.13115 2.424,-0.48478 2.424,-1.29274 1.9392,-2.2623 1.93919,-2.58548 1.4544,-2.90866 1.616,-2.58549 -0.4848,-1.77752 -0.1616,-1.29274 -0.1616,-1.13115 -0.1616,-0.64637 -0.3232,-0.80796 -0.3232,-0.64637 -0.4848,-0.64637 -0.3232,-0.80796 h -0.9696 -0.80799 l -0.4848,0.32318 v 0.96956 0.96955 1.45434 l -0.1616,1.29274 v 1.29274 l -0.1616,1.29274 v 1.13115 l -0.4848,0.32318 -0.4848,0.48478 -1.616,-0.48478 -0.9696,-0.16159 -0.9696,-0.16159 -0.4848,-0.16159 -0.9696,-0.64637 -0.9696,-0.96956 v -2.74707 -2.10071 l 0.1616,-1.77752 0.4848,-1.29274 0.4848,-1.45433 0.9696,-1.29274 1.2928,-1.45434 1.7776,-1.61592 4.20159,1.13114 3.232,2.2623 2.2624,2.90867 1.4544,3.87822 0.4848,4.03982 -0.4848,4.363 -1.4544,4.363 -1.9392,4.52459 -0.9696,0.96956 -0.808,0.96956 -0.9696,0.80796 -0.9696,0.64637 -1.13119,0.48478 -0.9696,0.48477 -0.9696,0.32319 z"
       id="path37" />
    <path
       style="fill:#000000;fill-opacity:1;fill-rule:evenodd;stroke:none"
       d="m 134.61265,157.71441 -0.9696,-0.80797 -0.808,-0.48477 -0.9696,-0.80797 -0.6464,-0.48478 -1.4544,-6.94848 -1.4544,-6.78689 -1.61599,-6.78689 -1.4544,-6.78689 -1.9392,-6.78689 -1.7776,-6.46371 -2.1008,-6.4637 -1.93919,-6.14052 -2.2624,-2.585483 0.6464,-2.262296 2.424,-2.100705 3.87839,-1.777519 4.2016,-1.777519 4.36319,-1.292741 3.3936,-1.131148 2.1008,-0.64637 4.20159,-3.393446 4.5248,-2.908667 4.68639,-3.231853 4.6864,-3.07026 4.20159,-3.555037 4.3632,-3.555038 3.87839,-4.201409 3.7168,-4.363001 h 1.1312 l 0.6464,0.807963 -0.1616,1.131149 -0.3232,1.615926 -0.4848,1.777519 -0.3232,1.939112 -0.4848,1.777519 -0.4848,1.939111 -0.3232,1.454334 v 1.292741 l 0.808,-0.807963 0.9696,0.807963 -1.9392,0.64637 -1.7776,0.969556 -1.616,0.969556 -1.4544,1.292741 -1.45439,1.131148 -1.2928,1.292741 -1.4544,1.131149 -1.1312,1.131148 -4.5248,2.100704 -4.36319,2.747075 -4.52479,2.908667 -4.3632,3.07026 -4.52479,2.747075 -4.3632,2.42389 -4.68639,1.777518 -4.5248,0.96956 0.4848,1.45433 0.9696,1.77752 0.9696,1.77752 1.2928,1.93911 1.13119,1.77752 1.4544,1.93911 1.4544,1.93911 1.616,1.93911 1.2928,4.20141 1.9392,5.00937 1.61599,5.49415 1.7776,5.97893 0.808,5.65574 0.1616,5.65574 -0.9696,5.17097 -2.2624,4.84778 h -1.45439 z"
       id="path39" />
    <path
       style="fill:#000000;fill-opacity:1;fill-rule:evenodd;stroke:none"
       d="m 365.86199,137.19214 -3.7168,-2.42389 -2.424,-2.90866 -1.77759,-3.55504 -0.808,-3.71663 -0.6464,-4.20141 -0.3232,-3.87822 -0.3232,-4.03982 -0.3232,-3.55504 -1.4544,-4.84778 -1.4544,-5.170961 -1.4544,-5.655742 -1.2928,-5.655742 -1.13119,-5.817334 -0.6464,-5.332557 v -4.847779 l 0.6464,-3.878223 1.29279,-0.161593 1.616,0.161593 h 0.6464 l 0.808,0.64637 0.808,0.646371 0.808,1.292741 0.9696,3.71663 2.2624,8.079632 3.07039,10.665114 3.0704,12.28104 2.424,11.79626 1.61599,10.34193 -0.1616,7.11008 z"
       id="path41" />
    <path
       style="fill:#000000;fill-opacity:1;fill-rule:evenodd;stroke:none"
       d="m 145.76304,120.87129 -0.9696,-0.96956 -1.1312,-0.96955 -1.2928,-0.96956 -1.2928,-0.96956 -1.4544,-0.96955 -1.1312,-0.64637 -0.9696,-0.80797 -0.3232,-0.48477 0.6464,-0.96956 0.9696,-0.80796 0.808,-0.96956 0.9696,-0.80796 3.5552,-2.42389 3.71679,-2.42389 3.3936,-2.58548 3.3936,-2.42389 2.90879,-2.908669 3.0704,-2.908667 2.7472,-3.231853 2.90879,-3.231852 0.808,-2.100705 0.808,-1.939111 0.808,-2.100704 0.9696,-1.939112 0.9696,-1.939112 0.9696,-1.615926 0.96959,-1.615926 1.4544,-1.292741 0.6464,3.555038 0.4848,4.039815 0.1616,4.201409 v 4.524593 l -0.6464,4.363001 -0.9696,4.363001 -1.45439,4.039821 -1.7776,4.2014 -2.9088,2.74708 -2.7472,2.58548 -2.74719,2.2623 -2.7472,2.1007 -3.0704,1.45434 -3.07039,1.45433 -3.5552,0.80796 z"
       id="path43" />
    <path
       style="fill:#000000;fill-opacity:1;fill-rule:evenodd;stroke:none"
       d="m 211.69576,116.66988 -4.52479,-1.29274 -3.7168,-1.61593 -2.9088,-2.42389 -2.26239,-2.58548 -1.9392,-3.39345 -1.4544,-3.23185 -1.1312,-3.555036 -0.9696,-3.393445 0.6464,-5.170964 1.7776,-5.332557 2.5856,-5.009371 3.55519,-4.363001 4.04,-3.555038 4.84799,-1.939112 5.1712,-0.161593 5.65599,2.42389 0.3232,0.807963 0.4848,0.969556 -4.6864,1.131148 -4.03999,2.42389 -3.5552,3.231852 -2.90879,4.201409 -2.424,4.524593 -1.616,4.847779 -0.9696,4.686186 -0.3232,4.847781 1.9392,1.29274 1.9392,1.13115 1.9392,0.48478 1.93919,0.32318 1.9392,-0.48478 2.1008,-0.80796 2.1008,-1.61593 2.42399,-2.1007 v -0.16159 -0.64637 l -0.96959,0.48477 -0.808,0.48478 -0.6464,0.16159 -0.4848,0.32319 -1.1312,0.16159 -1.1312,0.1616 -0.808,-0.96956 -0.4848,-0.80796 -0.4848,-0.64637 -0.4848,-0.48478 -0.9696,-0.807965 -0.9696,-0.646371 0.1616,-4.363001 0.6464,-3.71663 0.9696,-3.231853 1.7776,-2.747075 2.1008,-2.262296 2.90879,-1.615927 3.3936,-1.292741 4.2016,-0.484778 1.29279,1.292741 1.2928,1.454334 0.808,1.292741 0.808,1.454334 0.4848,1.454333 0.4848,1.939112 0.3232,2.100704 0.4848,2.747075 -0.9696,3.393445 -1.1312,3.878223 -1.7776,3.878225 -1.93919,4.03981 -2.5856,3.39345 -3.0704,2.90867 -3.39359,1.77752 z"
       id="path45" />
    <path
       style="fill:#000000;fill-opacity:1;fill-rule:evenodd;stroke:none"
       d="m 269.87169,116.66988 -5.17119,-2.2623 -3.5552,-2.90867 -2.26239,-3.71663 -1.1312,-4.03981 -0.4848,-4.524595 0.6464,-4.363001 0.9696,-4.363001 1.616,-3.878223 1.77759,-2.747075 2.424,-2.908667 2.7472,-2.908668 3.39359,-2.585482 3.3936,-2.100704 3.7168,-0.969556 3.71679,0.161593 3.7168,2.100704 h 1.1312 1.45439 v 0.323185 l 0.1616,0.484778 0.1616,0.161593 0.4848,0.484778 0.6464,0.323185 0.9696,0.807963 v 0.969556 0.64637 l -5.33279,1.292741 -4.3632,1.939112 -3.71679,2.585482 -2.9088,3.231853 -2.7472,3.71663 -2.26239,4.201409 -2.2624,4.52459 -2.1008,5.17097 v 0.48478 1.13114 l 3.0704,1.61593 3.23199,0.48478 3.0704,-0.64637 3.0704,-1.61593 2.42399,-2.58548 2.1008,-2.90867 1.616,-3.231851 1.1312,-3.07026 h -0.9696 l -0.9696,0.484778 -0.9696,0.484778 -0.808,0.807963 -0.808,0.807963 -0.6464,0.807963 -0.4848,0.807963 -0.32319,0.969553 -0.9696,-0.16159 -0.9696,-0.323185 -0.808,-0.484778 -0.4848,-0.323185 -1.1312,-0.969556 -0.808,-0.323185 0.4848,-1.454334 0.808,-1.131148 0.6464,-1.292741 0.808,-1.131148 0.808,-1.131149 0.9696,-0.969556 0.96959,-0.969555 1.4544,-0.484778 5.4944,0.484778 2.90879,2.908667 0.4848,4.363001 -1.2928,5.170962 -3.07039,5.17097 -4.2016,4.68618 -5.17119,3.23186 z"
       id="path47" />
    <path
       style="fill:#000000;fill-opacity:1;fill-rule:evenodd;stroke:none"
       d="m 453.28749,106.32795 -7.59519,-1.77752 -7.1104,-1.61592 -6.78719,-1.45434 -6.46399,-0.96955 -6.62559,-0.807967 -6.464,-0.161593 -6.78719,0.323185 -7.11039,1.292745 -2.5856,0.48477 -2.42399,0.80797 -2.424,0.64637 -2.2624,0.80796 -2.424,0.48478 -2.26239,0.64637 -2.2624,0.32318 -2.1008,0.1616 3.5552,-3.23186 4.68639,-2.74707 5.3328,-2.585482 5.97919,-2.262297 5.81759,-2.423889 5.9792,-2.262297 5.49439,-2.100704 5.00959,-2.100705 3.7168,-0.807963 3.87839,-0.484778 3.8784,-0.484777 h 3.8784 3.87839 l 3.8784,0.64637 3.87839,0.969556 3.8784,1.777519 3.0704,0.484778 3.23199,0.807963 3.232,0.64637 3.39359,0.807963 3.232,0.323186 3.3936,0.323185 3.39359,0.161593 h 3.7168 l 0.9696,-0.807964 0.808,-0.323185 0.6464,-0.484778 0.6464,-0.161592 0.80799,-0.484778 1.1312,-0.323185 -0.808,3.878223 -0.808,3.555038 -1.29279,2.585482 -1.616,2.423888 -2.424,1.61593 -2.7472,1.61592 -3.71679,1.13115 -4.5248,1.13115 h -1.77759 -1.4544 -1.7776 -1.4544 -1.616 -1.616 -1.61599 z"
       id="path49" />
    <path
       style="fill:#6666ff;fill-opacity:1;fill-rule:evenodd;stroke:none"
       d="m 221.06855,99.54106 -1.4544,-1.292741 -0.6464,-0.969556 -0.4848,-0.807963 -0.1616,-0.484778 -0.6464,-0.484778 h -0.4848 -1.29279 l -1.616,0.484778 0.808,-2.423889 0.9696,-1.939112 0.80799,-1.939111 1.1312,-1.615927 0.9696,-1.615926 1.616,-1.131148 1.616,-0.969556 2.2624,-0.323185 0.3232,1.939111 0.1616,1.939112 -0.3232,1.939111 -0.3232,1.939112 -0.6464,1.939111 -0.808,1.939112 -0.9696,1.939111 z"
       id="path51" />
    <path
       style="fill:#000000;fill-opacity:1;fill-rule:evenodd;stroke:none"
       d="m 300.73726,98.571504 -2.5856,-2.585482 -1.7776,-1.454334 -1.29279,-1.131148 -0.4848,-0.969556 -0.3232,-1.454333 0.3232,-1.939112 0.3232,-2.747075 0.6464,-3.878223 1.45439,-4.363001 1.616,-4.039816 1.616,-4.039815 1.7776,-3.878223 1.616,-4.201409 1.77759,-4.039816 1.9392,-4.039815 1.9392,-4.039816 -4.20159,0.969556 -4.3632,1.454333 -4.52479,1.292741 -4.5248,1.292742 -4.52479,0.64637 -4.3632,0.323185 -4.20159,-0.484778 -3.5552,-1.131148 -2.424,-0.646371 -2.7472,-0.807963 -3.07039,-0.969555 -2.9088,-0.969556 -3.07039,-1.131149 -2.424,-0.807963 -2.1008,-0.64637 h -0.9696 l -1.2928,3.71663 -1.4544,4.686186 -2.10079,5.009372 -2.1008,5.332557 -2.5856,4.686186 -2.74719,4.363001 -3.232,3.07026 -3.232,1.615926 -0.9696,-0.969555 -0.808,-0.807964 -0.80799,-0.64637 -0.4848,-0.323185 -1.1312,-0.646371 h -0.9696 l 0.4848,-2.100704 0.6464,-2.100704 0.4848,-2.100704 0.6464,-1.939112 0.4848,-2.100704 0.96959,-1.615927 0.9696,-1.615926 1.2928,-0.969556 2.1008,-5.817334 1.9392,-4.686187 1.4544,-4.201408 1.61599,-4.039816 1.4544,-4.847779 1.9392,-5.817334 2.424,-7.433261 3.39359,-9.533965 1.7776,-1.292741 2.9088,-0.484778 3.71679,-0.161593 4.2016,0.484778 4.03999,0.484778 4.2016,0.64637 3.5552,0.646371 2.90879,0.64637 3.0704,-0.64637 5.17119,-0.646371 6.1408,-0.969555 6.94879,-0.323186 6.78719,-0.323185 6.62559,0.484778 5.4944,1.131148 4.36319,2.100705 -0.6464,1.131148 -0.3232,1.454334 v 1.131148 1.454334 l 0.4848,0.64637 1.2928,0.161593 -2.2624,9.21078 -2.58559,9.533965 -3.3936,9.21078 -3.3936,9.533965 -3.55519,9.372373 -3.232,9.372372 -2.7472,9.049187 -1.93919,9.21078 h -1.2928 z"
       id="path53" />
    <path
       style="fill:#000000;fill-opacity:1;fill-rule:evenodd;stroke:none"
       d="m 369.25558,95.178059 -1.616,-0.807963 -1.13119,-0.646371 -0.9696,-0.64637 -0.6464,-0.484778 -1.2928,-1.454334 -1.1312,-1.131148 1.4544,-2.747075 3.55519,-3.231852 4.5248,-3.716631 5.49439,-3.71663 5.4944,-3.716631 5.49439,-3.231853 4.6864,-2.747074 3.55519,-1.615927 0.9696,-1.939111 1.1312,-1.939112 0.9696,-1.777519 0.9696,-1.615926 0.808,-1.777519 0.96959,-1.615926 0.808,-1.615926 0.9696,-1.454334 0.4848,0.807963 0.4848,0.646371 0.3232,0.323185 0.4848,0.484778 0.6464,0.484778 1.1312,0.64637 -1.9392,7.271668 -2.7472,7.110076 -3.87839,6.625298 -4.5248,6.14052 -5.49439,5.009371 -5.97919,4.039816 -6.7872,2.747075 z"
       id="path55" />
    <path
       style="fill:#000000;fill-opacity:1;fill-rule:evenodd;stroke:none"
       d="m 360.69079,72.070313 -0.9696,-1.292741 -0.6464,-0.807963 -0.4848,-0.807963 -0.1616,-0.484778 -0.32319,-0.646371 v -0.484778 -0.64637 -0.807963 l 1.13119,-0.807964 1.1312,-0.64637 1.1312,-0.646371 1.2928,-0.484777 0.9696,-0.807964 1.2928,-0.64637 1.1312,-0.646371 1.45439,-0.484778 3.5552,-0.807963 3.8784,-0.64637 3.87839,-0.807963 4.04,-0.807964 3.87839,-1.292741 4.04,-1.454333 3.71679,-2.100704 3.7168,-2.42389 0.4848,0.484778 0.4848,0.484778 0.4848,0.484778 1.1312,1.131148 -4.3632,4.363001 -4.36319,3.716631 -4.5248,2.908667 -4.68639,2.585482 -5.1712,1.777519 -5.33279,1.615926 -5.65599,0.969556 z"
       id="path57" />
    <path
       style="fill:#000000;fill-opacity:1;fill-rule:evenodd;stroke:none"
       d="m 178.2446,52.356012 -6.94879,-2.100704 -5.8176,-2.100704 -5.17119,-2.42389 -4.6864,-1.777519 -4.84799,-1.292741 h -5.00959 l -5.656,1.292741 -6.46399,3.231853 -5.1712,0.64637 -5.49439,0.161593 -5.65599,-0.323185 -5.4944,-0.807963 -5.49439,-1.615927 -5.00959,-2.100704 -4.3632,-2.908667 -3.555196,-3.231853 0.4848,-0.64637 1.131199,-0.161593 1.292798,-0.161593 1.615998,0.323186 1.615998,0.161592 1.777603,0.484778 1.61599,0.323185 1.616,0.484778 0.4848,-0.969555 0.808,-0.807964 0.9696,-0.969555 1.1312,-0.646371 -0.808,-1.454334 -0.808,-1.131148 1.4544,-0.64637 1.616,-0.646371 1.61599,-0.807963 1.616,-0.807963 1.4544,-1.131149 1.7776,-0.969555 1.4544,-0.969556 1.7776,-0.969556 5.17119,-1.939112 5.81759,-0.969555 5.8176,-0.161593 5.97919,0.807963 5.65599,1.454334 5.656,2.423889 5.00959,2.908668 4.6864,4.039815 2.58559,1.292741 2.5856,1.454334 2.2624,1.131148 2.42399,1.131149 2.424,0.807963 2.7472,0.646371 2.9088,0.323185 3.39359,0.161592 1.7776,-0.807963 2.9088,-0.807963 3.71679,-1.131148 4.2016,-0.969556 4.03999,-0.969556 3.8784,-0.323185 3.39359,0.323185 2.5856,1.292741 1.2928,-0.969556 h 1.2928 l -1.2928,2.747075 -3.3936,2.908668 -4.84799,2.747074 -5.49439,2.585482 -6.1408,1.939112 -5.65599,1.777519 -4.848,1.131148 z"
       id="path59" />
    <path
       style="fill:#6666ff;fill-opacity:1;fill-rule:evenodd;stroke:none"
       d="m 271.64929,42.98364 h -1.7776 -1.77759 -1.7776 -1.7776 -1.9392 -1.77759 -1.9392 -1.7776 v -2.42389 l 0.3232,-2.100704 0.4848,-2.262297 0.4848,-2.100704 0.4848,-2.262297 0.6464,-2.100704 0.4848,-1.939112 0.4848,-1.939111 h 0.80799 l 0.808,0.161592 0.9696,0.161593 1.1312,0.484778 1.4544,0.484778 1.9392,0.64637 2.42399,0.969556 3.232,1.292741 3.232,1.615926 5.00959,1.131149 5.8176,0.323185 6.46399,0.161593 6.46399,-0.323186 6.46399,-0.323185 5.656,-0.323185 4.68639,0.323185 -1.2928,1.777519 -0.808,1.615926 -0.6464,0.969556 -0.48479,1.131149 -0.4848,0.64637 -0.4848,0.807963 -0.4848,0.646371 -0.4848,0.969556 -0.9696,-0.484778 -0.808,-0.161593 -0.6464,-0.161593 h -0.4848 -1.1312 -1.1312 l -4.84799,0.161593 -4.5248,0.484778 -4.52479,0.323185 -4.3632,0.484778 -4.36319,0.323185 -4.2016,0.484778 -4.20159,0.161593 z"
       id="path61" />
  </g>
</svg>
