<?xml version="1.0" encoding="UTF-8" standalone="no"?>
<svg
   xmlns:dc="http://purl.org/dc/elements/1.1/"
   xmlns:cc="http://creativecommons.org/ns#"
   xmlns:rdf="http://www.w3.org/1999/02/22-rdf-syntax-ns#"
   xmlns:svg="http://www.w3.org/2000/svg"
   xmlns="http://www.w3.org/2000/svg"
   id="svg33"
   height="84.750496mm"
   width="129.80825mm"
   version="1.0">
  <metadata
     id="metadata37">
    <rdf:RDF>
      <cc:Work
         rdf:about="">
        <dc:format>image/svg+xml</dc:format>
        <dc:type
           rdf:resource="http://purl.org/dc/dcmitype/StillImage" />
        <dc:title></dc:title>
      </cc:Work>
    </rdf:RDF>
  </metadata>
  <defs
     id="defs3">
    <pattern
       y="0"
       x="0"
       height="6"
       width="6"
       patternUnits="userSpaceOnUse"
       id="WMFhbasepattern" />
  </defs>
  <path
     id="path5"
     d="  M 184.70859,9.5352582   L 188.58699,9.3736437   L 192.46538,9.3736437   L 196.02058,9.6968728   L 199.73737,10.181716   L 203.13097,10.66656   L 206.68617,11.313018   L 210.07976,11.959476   L 213.79656,12.767549   L 214.92776,13.575622   L 215.89736,14.545309   L 216.70536,15.353382   L 217.67495,15.99984   L 217.19015,19.878589   L 217.02855,24.242182   L 216.86695,28.605775   L 216.70536,33.130982   L 216.38216,37.494575   L 216.05896,41.858167   L 215.41256,46.060146   L 214.44296,50.262124   L 222.36135,49.77728   L 230.60294,49.938895   L 238.52133,50.262124   L 246.60132,50.262124   L 254.19651,49.454051   L 261.4685,47.676291   L 268.2557,44.444   L 274.55809,39.272335   L 279.72928,36.201658   L 284.57728,32.807753   L 289.10207,29.090618   L 293.78847,25.858327   L 298.47486,22.949266   L 303.80766,21.33312   L 309.62525,21.171506   L 316.57404,23.11088   L 319.80604,23.757338   L 323.03803,24.88864   L 326.10843,25.858327   L 329.34043,27.151244   L 332.41082,28.44416   L 335.48122,29.898691   L 338.55162,31.353222   L 341.78361,32.807753   L 340.97561,36.363273   L 340.65241,39.918793   L 340.49082,43.474313   L 340.65241,47.029833   L 340.81401,50.585353   L 341.13721,54.302487   L 341.13721,58.019622   L 341.13721,61.898371   L 341.78361,62.2216   L 342.43001,62.544829   L 351.1564,62.383215   L 360.52919,62.2216   L 369.90198,61.898371   L 379.43637,61.736757   L 388.64756,61.251913   L 398.02035,60.767069   L 406.90834,60.282226   L 415.47313,59.958997   L 418.38193,57.858008   L 421.29072,55.918633   L 424.19952,53.979258   L 427.26992,52.201498   L 430.17871,50.262124   L 433.41071,48.807593   L 436.64271,47.353062   L 440.0363,46.383375   L 441.8139,43.959157   L 444.2379,42.827855   L 446.6619,42.343011   L 449.57069,42.504626   L 452.47949,42.827855   L 455.38829,43.312698   L 457.97388,43.474313   L 460.72108,43.151084   L 463.62988,43.797542   L 466.86187,44.120771   L 470.09387,44.282386   L 473.32586,44.605615   L 476.07306,45.090458   L 478.65866,46.22176   L 480.59786,47.99952   L 482.05226,50.908582   L 481.40586,67.231651   L 481.24426,83.55472   L 481.24426,99.877789   L 481.56746,116.20086   L 481.72906,132.36231   L 482.05226,148.68538   L 482.05226,165.00845   L 482.05226,181.49314   L 475.74986,190.05871   L 469.44747,198.94751   L 463.14508,207.83631   L 457.00428,217.04834   L 450.54029,225.93714   L 444.2379,234.98755   L 437.61231,243.87635   L 430.98671,252.60354   L 431.47151,253.24999   L 431.30991,253.41161   L 430.82511,253.24999   L 430.34031,253.24999   L 424.84592,259.39135   L 419.99793,266.01754   L 415.31153,272.80535   L 410.78674,279.75478   L 405.93874,286.38098   L 401.25235,292.84556   L 395.91955,298.8253   L 390.26356,304.32019   L 388.80916,303.99696   L 388.00116,304.32019   L 387.19316,304.80503   L 386.70836,305.77472   L 386.22356,306.74441   L 385.90036,307.87571   L 385.41556,309.00701   L 385.09236,310.13831   L 383.31477,311.91607   L 381.53717,314.01706   L 379.59797,316.11805   L 377.82037,318.05743   L 375.55798,319.51196   L 373.13398,320.48164   L 370.54838,320.64326   L 367.63958,319.83519   L 360.20599,317.57258   L 352.7724,315.30998   L 345.33881,312.72415   L 337.90522,309.9767   L 330.31003,306.90602   L 322.87643,303.99696   L 315.44284,300.92628   L 308.17085,297.85561   L 287.00128,295.26978   L 266.3165,290.90618   L 245.79332,285.08806   L 225.59334,278.46186   L 205.23177,271.35082   L 185.03179,264.23978   L 164.50861,257.61359   L 143.98544,251.95708   L 134.77425,248.23994   L 125.72466,245.00765   L 116.35187,241.77536   L 106.97908,239.02791   L 97.44469,236.44208   L 87.910301,234.17948   L 78.375911,232.07849   L 69.003122,230.62396   L 66.579125,229.65427   L 64.316727,229.00781   L 62.05433,228.52297   L 59.791932,228.03812   L 57.367935,227.39167   L 55.267138,226.58359   L 53.32794,225.61391   L 51.550342,224.15938   L 47.187147,222.70484   L 42.985551,221.57354   L 38.460757,220.60386   L 33.935962,219.63417   L 29.249567,218.50287   L 24.886372,217.53318   L 20.361577,216.40188   L 15.998382,215.10896   L 15.028783,214.30089   L 14.059184,213.65443   L 13.251185,213.00797   L 12.443186,212.36151   L 11.635187,211.55344   L 10.988788,210.90698   L 10.180788,210.09891   L 9.5343892,209.29084   L 8.88799,210.26052   L 8.0799909,211.23021   L 7.110392,211.87667   L 6.3023929,211.87667   L 5.0095943,211.87667   L 4.2015953,211.55344   L 3.2319963,210.90698   L 2.7471969,210.26052   L 2.1007976,209.29084   L 1.6159982,208.32115   L 1.2927985,207.35146   L 1.1311987,206.705   L 0.64639927,200.40204   L 0.16159982,194.09907   L -0.48479945,187.95772   L -0.9695989,181.97798   L -1.4543984,175.83663   L -1.4543984,169.85689   L -1.1311987,164.03876   L -0.16159982,158.22064   L -0.48479945,157.25095   L -0.80799909,156.28127   L -1.1311987,155.47319   L -1.2927985,154.66512   L -1.4543984,153.21059   L -0.80799909,151.75606   L 0.64639927,151.27122   L 1.777598,150.46314   L 2.5855971,149.00861   L 3.3935962,147.39247   L 3.8783956,145.45309   L 4.3631951,143.51372   L 4.8479945,141.57434   L 5.6559936,140.11981   L 12.927985,136.07945   L 20.361577,132.03908   L 27.633569,127.99872   L 35.22876,123.95836   L 42.500752,119.91799   L 49.772744,115.87763   L 56.883136,111.99888   L 63.831928,108.44336   L 62.539129,101.65555   L 63.023929,95.675811   L 64.478327,90.019302   L 66.902324,84.686022   L 69.164722,79.352742   L 71.427119,74.019462   L 72.719918,68.524568   L 72.881518,62.544829   L 73.204717,61.898371   L 73.527917,61.090298   L 73.851117,60.282226   L 74.174316,59.474153   L 74.659116,57.858008   L 75.467115,57.373164   L 88.5567,49.938895   L 101.80788,42.827855   L 115.22067,35.5552   L 128.79505,28.929004   L 142.20784,22.464422   L 155.78222,16.646298   L 169.19501,11.313018   L 182.76939,6.9494255   L 182.60779,8.0807273   L 183.25419,8.7271855   L 183.90059,9.0504146   L 184.70859,9.5352582  z "
     style="fill:#000080;fill-rule:evenodd;fill-opacity:1;stroke:none;" />
  <path
     id="path7"
     d="  M 173.7198,22.464422   L 176.6286,22.464422   L 179.5374,22.626036   L 182.28459,22.626036   L 185.03179,22.626036   L 187.77899,22.302807   L 190.68778,22.141193   L 193.59658,21.979578   L 196.99018,21.817964   L 186.32459,26.019942   L 175.659,30.545149   L 165.15501,35.231971   L 154.97422,40.403637   L 144.79344,45.575302   L 134.77425,51.393426   L 125.07826,57.373164   L 115.54387,63.837746   L 113.60467,63.837746   L 112.15027,64.322589   L 110.69587,64.969048   L 109.72628,66.100349   L 108.75668,67.231651   L 108.27188,68.686182   L 107.78708,70.302328   L 107.78708,72.241702   L 108.11028,73.373004   L 108.27188,74.66592   L 108.27188,75.958837   L 108.27188,77.251753   L 107.78708,78.383055   L 107.30228,79.514357   L 106.65588,80.322429   L 105.84788,81.292117   L 105.20148,83.55472   L 104.39348,85.817324   L 103.58548,88.079928   L 102.93908,90.504146   L 102.29268,92.766749   L 101.96948,95.190968   L 101.96948,97.7768   L 102.61588,100.68586   L 100.35349,100.52425   L 98.091089,100.36263   L 95.828692,99.877789   L 93.727894,99.55456   L 91.465497,98.908102   L 89.526299,98.423259   L 87.425501,97.938415   L 85.809503,97.453571   L 84.839904,98.100029   L 84.355105,98.423259   L 83.708705,98.261644   L 83.385506,97.938415   L 82.900706,97.291957   L 82.415907,96.968728   L 81.607908,96.968728   L 80.638309,97.453571   L 80.961508,93.898051   L 81.446308,90.342531   L 82.092707,86.787011   L 82.900706,83.231491   L 83.547106,79.514357   L 84.193505,75.958837   L 84.678304,72.403317   L 85.163104,69.009411   L 85.486303,68.524568   L 85.809503,67.716495   L 84.678304,66.908422   L 84.678304,66.100349   L 85.324704,65.292277   L 86.617502,64.484204   L 87.910301,63.676131   L 89.526299,63.029673   L 90.980697,62.383215   L 92.273496,61.898371   L 102.61588,57.696393   L 112.63507,52.686342   L 122.33106,47.029833   L 132.18865,41.373324   L 141.72304,35.393586   L 151.58063,29.898691   L 161.43822,24.727026   L 171.78061,20.525047   L 172.7502,21.494735   L 173.7198,22.464422  z "
     style="fill:#ffffff;fill-rule:evenodd;fill-opacity:1;stroke:none;" />
  <path
     id="path9"
     d="  M 323.03803,37.979418   L 312.21085,46.060146   L 301.22206,53.494415   L 289.74847,60.120611   L 278.43649,66.585193   L 266.8013,72.88816   L 255.48931,79.675971   L 244.33892,86.787011   L 233.83494,94.867739   L 231.08774,94.382895   L 228.66374,94.22128   L 226.23974,94.22128   L 223.81575,94.22128   L 221.23015,94.059666   L 218.80615,94.059666   L 216.22056,93.898051   L 213.79656,93.574822   L 223.65415,86.463782   L 233.83494,79.837586   L 244.01572,73.534618   L 254.35811,67.393266   L 264.5389,61.090298   L 274.71969,54.787331   L 284.73888,48.161135   L 294.59647,41.211709   L 296.85886,40.080407   L 299.12126,38.787491   L 301.22206,37.33296   L 303.32286,35.878429   L 305.42365,34.585513   L 307.68605,33.77744   L 310.11005,33.454211   L 312.69565,34.100669   L 313.82685,34.100669   L 315.11964,34.585513   L 316.41244,35.070357   L 317.86684,35.716815   L 319.15964,36.363273   L 320.45244,37.009731   L 321.74524,37.494575   L 323.03803,37.979418  z "
     style="fill:#ffffff;fill-rule:evenodd;fill-opacity:1;stroke:none;" />
  <path
     id="path11"
     d="  M 463.30668,56.080247   L 454.41869,62.059986   L 445.5307,68.201338   L 436.64271,74.019462   L 427.91632,79.837586   L 419.02833,85.655709   L 410.30194,91.635448   L 401.73715,97.7768   L 393.49556,104.56461   L 389.29396,107.63529   L 385.41556,110.86758   L 381.53717,113.93826   L 377.82037,117.17055   L 373.94198,119.91799   L 370.06358,122.82706   L 366.02359,125.41289   L 361.82199,127.83711   L 361.33719,128.80679   L 360.85239,129.45325   L 360.36759,129.77648   L 360.04439,130.26132   L 359.39799,130.42294   L 358.91319,130.74617   L 358.1052,131.0694   L 357.2972,131.71586   L 357.2972,135.10976   L 356.974,138.50367   L 356.4892,141.89757   L 355.8428,145.45309   L 354.8732,148.847   L 354.0652,152.2409   L 353.0956,155.47319   L 352.126,158.8671   L 348.73241,158.70548   L 345.33881,158.54387   L 342.10681,158.22064   L 338.87482,158.05903   L 335.64282,157.7358   L 332.57242,157.41257   L 329.34043,157.08934   L 326.27003,156.92772   L 327.40123,153.53382   L 328.53243,150.13991   L 329.66363,146.74601   L 330.79483,143.51372   L 331.60283,140.11981   L 332.41082,136.72591   L 332.89562,133.17039   L 333.38042,129.77648   L 338.87482,127.67549   L 344.36921,124.76643   L 349.5404,121.0493   L 354.8732,116.84732   L 359.88279,112.48372   L 365.21559,108.12013   L 370.54838,104.07977   L 376.04277,100.68586   L 378.46677,99.069717   L 381.05237,97.453571   L 383.31477,95.675811   L 385.73876,94.059666   L 388.16276,92.44352   L 390.58676,90.988989   L 393.17236,89.857688   L 396.08115,89.049615   L 401.57555,84.362793   L 407.39314,79.675971   L 413.21073,74.989149   L 419.18993,70.463942   L 425.16912,65.938735   L 431.30991,61.575142   L 437.61231,57.373164   L 443.9147,53.494415   L 445.8539,54.787331   L 448.11629,55.595404   L 450.54029,56.080247   L 453.12589,56.241862   L 455.54989,56.080247   L 458.13548,55.918633   L 460.72108,55.918633   L 463.30668,56.080247  z "
     style="fill:#ffffff;fill-rule:evenodd;fill-opacity:1;stroke:none;" />
  <path
     id="path13"
     d="  M 187.94059,98.746488   L 187.29419,104.72623   L 186.80939,110.86758   L 186.32459,117.00893   L 186.00139,123.15028   L 185.35499,129.13002   L 184.54699,135.27138   L 183.57739,141.25111   L 182.12299,147.23085   L 176.6286,151.75606   L 171.45741,156.28127   L 166.44781,160.80647   L 161.59982,165.33168   L 156.59022,169.85689   L 151.58063,174.54371   L 146.24783,179.23053   L 140.75344,184.07897   L 140.75344,184.72543   L 140.43024,185.37188   L 139.94544,185.85673   L 140.10704,186.6648   L 134.93585,185.21027   L 129.76465,184.07897   L 124.59346,182.94767   L 119.42226,181.97798   L 114.08947,180.68506   L 108.91828,179.55376   L 103.74708,177.93762   L 98.737488,176.32147   L 103.58548,170.0185   L 108.59508,163.71554   L 113.92787,157.57418   L 119.42226,151.75606   L 125.07826,145.93794   L 131.05745,140.28143   L 137.19824,134.94815   L 143.98544,129.77648   L 153.19663,120.56445   L 163.21582,111.83727   L 173.5582,103.27169   L 184.54699,95.352582   L 195.37418,87.271855   L 206.52457,79.514357   L 217.35175,71.595244   L 228.01734,63.837746   L 228.98694,63.029673   L 230.11814,62.544829   L 231.24934,62.059986   L 232.54214,61.575142   L 233.83494,61.090298   L 235.12773,60.767069   L 236.42053,60.282226   L 237.71333,59.958997   L 231.24934,63.676131   L 224.94695,67.878109   L 218.64455,72.241702   L 212.34216,77.090138   L 206.03977,82.100189   L 199.89897,87.433469   L 193.75818,92.928364   L 187.94059,98.746488  z "
     style="fill:#bfbfbf;fill-rule:evenodd;fill-opacity:1;stroke:none;" />
  <path
     id="path15"
     d="  M 211.21096,63.837746   L 192.78858,75.797222   L 175.3358,88.564771   L 158.69102,101.81716   L 142.53104,115.71602   L 126.37106,129.61487   L 110.21108,143.67533   L 93.727894,157.57418   L 76.759913,171.1498   L 72.396718,170.0185   L 68.195123,169.04882   L 63.831928,167.91751   L 59.630333,166.78621   L 55.267138,165.4933   L 51.065542,164.36199   L 47.025547,163.23069   L 43.147151,162.09939   L 47.671946,156.28127   L 52.68154,151.27122   L 57.852735,146.74601   L 63.508728,142.54403   L 69.003122,138.34205   L 74.659116,134.14007   L 80.315109,129.61487   L 85.809503,124.60482   L 89.203099,125.73612   L 92.758295,126.38258   L 96.313491,126.7058   L 100.03029,127.02903   L 103.58548,127.02903   L 107.14068,127.19065   L 110.69587,127.67549   L 114.25107,128.48356   L 115.05907,127.67549   L 115.05907,126.7058   L 114.73587,125.5745   L 114.89747,124.60482   L 118.61427,121.53414   L 122.81586,119.10992   L 127.17906,116.6857   L 131.86545,114.26148   L 136.06705,111.67565   L 140.43024,108.60497   L 144.30864,105.04945   L 147.86383,100.68586   L 153.19663,97.7768   L 158.04462,94.544509   L 162.56942,90.827375   L 166.93261,87.11024   L 171.13421,83.231491   L 175.659,79.514357   L 180.507,76.282066   L 186.00139,73.534618   L 188.42539,70.625557   L 191.17258,68.362953   L 194.08138,66.585193   L 197.31338,65.453891   L 200.54537,64.484204   L 203.93897,64.160975   L 207.49417,63.837746   L 211.21096,63.837746  z "
     style="fill:#bfbfbf;fill-rule:evenodd;fill-opacity:1;stroke:none;" />
  <path
     id="path17"
     d="  M 389.61716,75.473993   L 381.53717,79.837586   L 373.94198,84.847637   L 366.18519,90.019302   L 358.75159,95.675811   L 351.1564,101.17071   L 343.72281,106.6656   L 336.28922,111.83727   L 328.85563,116.84732   L 334.02682,111.02919   L 339.35962,105.5343   L 344.85401,100.0394   L 350.51,95.029353   L 356.166,89.857688   L 361.82199,85.170866   L 367.31638,80.484044   L 372.81078,76.120451   L 375.07318,75.958837   L 377.17397,75.958837   L 379.11317,75.797222   L 381.21397,75.797222   L 383.15317,75.635608   L 385.09236,75.473993   L 387.19316,75.473993   L 389.61716,75.473993  z "
     style="fill:#ffffff;fill-rule:evenodd;fill-opacity:1;stroke:none;" />
  <path
     id="path19"
     d="  M 353.4188,77.413368   L 345.82361,84.524408   L 338.06682,91.312219   L 329.98683,97.615186   L 322.06844,104.07977   L 313.82685,110.22112   L 305.90845,116.6857   L 297.99006,123.3119   L 290.71807,130.42294   L 281.02208,138.98851   L 271.48769,148.03892   L 261.7917,157.08934   L 252.41891,166.6246   L 243.04613,175.99824   L 234.15814,185.69511   L 225.59334,195.23037   L 217.67495,204.76563   L 210.07976,203.47271   L 202.64617,202.1798   L 195.21258,200.56365   L 187.94059,198.94751   L 180.6686,197.16975   L 173.3966,195.39199   L 166.12461,193.45261   L 158.85262,191.83647   L 164.02381,186.82642   L 168.71021,181.65475   L 173.0734,176.32147   L 177.275,171.1498   L 181.315,165.81652   L 185.67819,160.80647   L 190.36458,155.79642   L 195.69738,151.1096   L 199.73737,151.75606   L 204.26217,152.56413   L 208.94856,153.21059   L 213.95816,154.18028   L 218.80615,154.98835   L 223.81575,155.95804   L 228.50214,156.92772   L 233.18854,158.22064   L 233.83494,157.25095   L 234.64293,156.6045   L 235.12773,155.79642   L 235.12773,154.98835   L 234.80453,154.34189   L 234.48133,154.34189   L 248.21732,147.23085   L 261.4685,138.8269   L 274.39649,129.45325   L 287.16288,119.59476   L 299.76766,109.57466   L 312.53405,99.877789   L 325.30043,90.66576   L 338.55162,82.585033   L 339.84442,80.645659   L 341.29881,79.352742   L 343.07641,78.544669   L 345.01561,78.22144   L 346.95481,77.898211   L 349.05561,77.898211   L 351.1564,77.574982   L 353.4188,77.413368  z "
     style="fill:#bfbfbf;fill-rule:evenodd;fill-opacity:1;stroke:none;" />
  <path
     id="path21"
     d="  M 477.52746,100.68586   L 477.52746,98.746488   L 477.52746,96.968728   L 477.68906,95.352582   L 478.17386,93.898051   L 478.49706,92.281906   L 479.14346,90.827375   L 479.78986,89.211229   L 480.75946,87.756699   L 480.59786,89.372844   L 480.75946,91.312219   L 480.92106,93.089979   L 481.08266,94.867739   L 480.92106,96.483884   L 480.27466,98.100029   L 479.14346,99.392946   L 477.52746,100.68586  z "
     style="fill:#ffffff;fill-rule:evenodd;fill-opacity:1;stroke:none;" />
  <path
     id="path23"
     d="  M 474.94186,93.574822   L 475.74986,94.059666   L 475.58826,93.736437   L 475.10346,93.251593   L 474.94186,93.574822   L 475.10346,94.706124   L 475.42666,95.99904   L 475.74986,97.291957   L 476.07306,98.584873   L 476.07306,99.716175   L 476.07306,101.00909   L 475.58826,102.14039   L 474.94186,103.27169   L 475.10346,102.62524   L 474.94186,101.97878   L 475.42666,101.81716   L 475.58826,101.49393   L 475.42666,100.52425   L 475.26506,99.716175   L 475.10346,98.584873   L 475.10346,97.615186   L 475.42666,96.645499   L 476.23466,96.160655   L 475.10346,95.029353   L 474.61866,94.867739   L 474.13386,95.190968   L 474.13386,95.99904   L 474.13386,96.968728   L 474.13386,97.938415   L 473.81066,98.746488   L 473.64906,99.392946   L 473.64906,100.36263   L 473.64906,101.33232   L 473.48746,100.0394   L 473.32586,98.584873   L 473.00267,96.968728   L 473.00267,95.514197   L 473.00267,94.059666   L 473.32586,93.251593   L 473.81066,92.928364   L 474.94186,93.574822  z "
     style="fill:#ffffff;fill-rule:evenodd;fill-opacity:1;stroke:none;" />
  <path
     id="path25"
     d="  M 467.83147,111.67565   L 454.74189,125.5745   L 441.3291,139.31174   L 427.75472,153.04898   L 414.34193,166.78621   L 400.92915,180.36183   L 388.16276,194.26068   L 375.88118,208.32115   L 364.40759,222.86646   L 363.59959,225.12906   L 362.95319,227.39167   L 362.14519,229.49266   L 361.66039,231.59364   L 361.17559,233.69463   L 360.85239,235.95724   L 360.52919,238.38146   L 360.52919,240.96729   L 354.0652,239.35114   L 347.43961,237.89661   L 340.65241,236.6037   L 333.86522,235.47239   L 326.91643,234.17948   L 320.12924,232.88656   L 313.34205,231.43203   L 306.87805,229.9775   L 306.23165,229.33104   L 306.39325,228.68458   L 306.55485,227.87651   L 306.87805,227.39167   L 310.59485,220.44224   L 315.28124,214.13927   L 320.45244,207.99792   L 326.10843,202.1798   L 331.60283,196.03844   L 336.93562,190.05871   L 341.94521,183.59412   L 346.30841,176.96793   L 347.60121,176.6447   L 349.21721,176.48308   L 351.1564,176.32147   L 353.2572,176.32147   L 355.1964,176.32147   L 357.2972,176.32147   L 359.23639,176.32147   L 361.17559,176.32147   L 363.59959,173.41241   L 366.66999,170.50335   L 369.74038,167.59428   L 373.29558,165.17007   L 376.68917,162.58423   L 380.56757,160.48324   L 384.44597,158.38226   L 388.32436,156.92772   L 391.71796,154.66512   L 394.94995,151.91767   L 397.85875,148.847   L 400.92915,145.77632   L 403.83794,142.70564   L 407.06994,139.9582   L 410.30194,137.69559   L 414.18033,136.24106   L 416.60433,133.49362   L 419.18993,131.23101   L 421.93712,129.13002   L 424.84592,127.35226   L 427.59312,125.5745   L 430.50191,123.95836   L 433.24911,122.01898   L 436.15791,120.07961   L 440.8443,116.36247   L 445.3691,112.96857   L 449.73229,109.73628   L 454.25709,106.50399   L 458.62028,103.27169   L 462.98348,100.0394   L 467.50827,96.807113   L 472.35627,93.574822   L 471.87147,96.160655   L 471.87147,98.746488   L 471.87147,101.17071   L 472.03307,103.59492   L 471.70987,105.69591   L 471.06347,107.7969   L 469.77067,109.73628   L 467.83147,111.67565  z "
     style="fill:#bfbfbf;fill-rule:evenodd;fill-opacity:1;stroke:none;" />
  <path
     id="path27"
     d="  M 225.43175,131.0694   L 222.52295,131.23101   L 219.45255,131.39263   L 216.05896,131.39263   L 212.66536,131.39263   L 208.94856,131.23101   L 205.55497,131.0694   L 202.16137,130.74617   L 198.92938,130.42294   L 199.41417,127.51388   L 199.89897,124.60482   L 200.54537,121.85737   L 201.51497,119.27154   L 202.32297,116.52409   L 203.45417,113.93826   L 204.58537,111.51404   L 206.03977,109.08982   L 209.27176,109.41305   L 212.50376,109.57466   L 215.73576,109.41305   L 218.96775,109.25143   L 222.03815,108.76659   L 225.27015,108.44336   L 228.50214,107.7969   L 231.89574,107.15044   L 231.08774,109.89789   L 230.27974,112.80695   L 229.14854,115.87763   L 228.17894,119.10992   L 227.04774,122.1806   L 226.23974,125.25127   L 225.59334,128.16034   L 225.43175,131.0694  z "
     style="fill:#ffffff;fill-rule:evenodd;fill-opacity:1;stroke:none;" />
  <path
     id="path29"
     d="  M 78.052712,122.01898   L 72.235118,126.38258   L 66.740725,130.74617   L 61.407931,135.10976   L 56.075137,139.47335   L 50.580743,143.83695   L 45.247949,148.52377   L 39.753555,153.3722   L 34.097561,158.8671   L 31.350365,158.05903   L 28.603168,157.41257   L 25.855971,156.76611   L 23.108774,156.28127   L 20.199977,155.63481   L 17.45278,154.98835   L 14.705583,154.34189   L 12.119986,153.69543   L 17.93758,149.00861   L 24.239973,144.4834   L 30.703965,139.79658   L 37.491158,135.27138   L 44.11675,130.74617   L 50.742343,126.22096   L 57.367935,121.85737   L 63.831928,117.49378   L 65.447926,118.14023   L 67.225524,118.78669   L 68.841522,119.27154   L 70.61912,119.91799   L 72.396718,120.40284   L 74.174316,120.88768   L 76.113514,121.37252   L 78.052712,122.01898  z "
     style="fill:#bfbfbf;fill-rule:evenodd;fill-opacity:1;stroke:none;" />
  <path
     id="path31"
     d="  M 312.04925,158.22064   L 311.40285,160.16002   L 310.91805,162.261   L 310.43325,164.20038   L 310.27165,166.46298   L 309.94845,168.56397   L 310.11005,170.66496   L 310.43325,172.44272   L 311.40285,174.3821   L 313.01885,176.48308   L 315.11964,177.61439   L 317.05884,177.776   L 319.32124,177.45277   L 321.42204,176.80631   L 323.68443,176.48308   L 325.94683,176.48308   L 328.20923,177.61439   L 321.74524,183.2709   L 315.76604,189.08902   L 309.94845,194.90714   L 304.61566,200.72527   L 299.12126,206.38178   L 293.78847,212.1999   L 288.29407,217.85641   L 282.96128,223.51292   L 277.95169,222.05839   L 272.78049,220.76547   L 267.4477,219.31094   L 262.1149,218.01802   L 256.45891,216.56349   L 251.12612,215.10896   L 245.63172,213.65443   L 240.29893,212.52313   L 243.69252,207.51308   L 247.24772,202.50303   L 250.80292,197.49298   L 254.84291,192.64454   L 258.88291,187.7961   L 263.2461,183.43251   L 267.9325,179.23053   L 273.26529,175.67501   L 278.27489,168.72559   L 283.93088,161.93778   L 289.91007,155.31158   L 296.21247,149.00861   L 302.51486,142.54403   L 308.81725,136.07945   L 314.95804,129.61487   L 321.09884,123.3119   L 321.09884,127.67549   L 320.29084,132.03908   L 318.83644,136.24106   L 317.05884,140.44304   L 314.95804,144.64502   L 313.34205,149.00861   L 312.21085,153.3722   L 312.04925,158.22064  z "
     style="fill:#bfbfbf;fill-rule:evenodd;fill-opacity:1;stroke:none;" />
</svg>
