<?xml version="1.0" encoding="UTF-8" standalone="no"?>
<svg
   xmlns:dc="http://purl.org/dc/elements/1.1/"
   xmlns:cc="http://creativecommons.org/ns#"
   xmlns:rdf="http://www.w3.org/1999/02/22-rdf-syntax-ns#"
   xmlns:svg="http://www.w3.org/2000/svg"
   xmlns="http://www.w3.org/2000/svg"
   id="svg65"
   height="124.98812mm"
   width="129.80825mm"
   version="1.0">
  <metadata
     id="metadata69">
    <rdf:RDF>
      <cc:Work
         rdf:about="">
        <dc:format>image/svg+xml</dc:format>
        <dc:type
           rdf:resource="http://purl.org/dc/dcmitype/StillImage" />
        <dc:title></dc:title>
      </cc:Work>
    </rdf:RDF>
  </metadata>
  <defs
     id="defs3">
    <pattern
       y="0"
       x="0"
       height="6"
       width="6"
       patternUnits="userSpaceOnUse"
       id="WMFhbasepattern" />
  </defs>
  <path
     id="path5"
     d="  M 463.95308,30.534694   L 464.27628,29.40378   L 464.76107,29.24222   L 465.40747,29.24222   L 466.05387,29.888457   L 466.70027,30.373135   L 467.50827,31.180931   L 468.31627,31.827168   L 469.12427,32.311846   L 473.16427,36.997063   L 475.91146,42.490077   L 476.88106,48.467768   L 476.88106,54.930138   L 475.74986,61.069388   L 474.45706,67.370198   L 472.67947,73.34789   L 471.06347,79.002463   L 470.25547,79.971818   L 469.12427,80.779614   L 467.83147,80.618055   L 466.70027,79.971818   L 465.08427,82.233647   L 463.30668,84.333917   L 461.36748,86.111069   L 459.58988,87.726661   L 457.32748,89.180694   L 455.22669,90.634727   L 452.96429,92.250319   L 450.70189,94.027471   L 454.58029,95.804622   L 458.78188,97.904892   L 462.49868,100.32828   L 466.37707,103.39791   L 469.60907,106.46753   L 472.51787,110.02183   L 474.61866,113.89926   L 476.23466,118.42291   L 477.20426,120.36162   L 478.17386,122.46189   L 479.14346,124.56216   L 480.11306,126.98555   L 480.43626,129.24738   L 480.59786,131.67077   L 480.27466,133.9326   L 479.46666,136.35599   L 480.11306,139.58717   L 480.75946,142.97992   L 481.08266,146.2111   L 481.56746,149.44229   L 481.56746,152.51191   L 481.72906,155.58154   L 481.72906,158.65116   L 481.89066,161.88235   L 481.56746,162.20547   L 481.40586,162.69014   L 481.89066,163.33638   L 481.72906,164.14418   L 481.08266,164.95197   L 480.92106,166.08289   L 480.43626,168.50627   L 480.11306,171.41434   L 479.46666,174.48397   L 478.98186,177.71515   L 478.17386,180.78478   L 477.36586,184.01596   L 476.23466,186.76247   L 475.26506,189.50897   L 475.42666,190.47833   L 475.26506,192.09392   L 474.94186,192.90172   L 474.61866,193.87107   L 474.29546,195.00199   L 474.29546,196.1329   L 473.48746,201.14124   L 473.64906,206.31113   L 474.13386,211.31947   L 474.94186,216.48937   L 475.58826,221.4977   L 475.91146,226.82916   L 475.58826,231.99905   L 474.29546,237.65362   L 473.97226,242.01572   L 473.48746,246.70094   L 472.67947,251.2246   L 471.87147,255.90982   L 470.57867,260.43348   L 469.60907,264.95713   L 468.47787,269.31923   L 467.66987,273.84289   L 465.08427,282.40553   L 462.01388,290.80661   L 458.62028,298.88457   L 454.90349,306.96253   L 450.86349,314.87894   L 446.82349,322.79534   L 442.7835,330.55018   L 439.0667,338.7897   L 440.0363,340.56685   L 441.0059,342.344   L 442.1371,343.9596   L 443.4299,345.57519   L 444.3995,347.19078   L 445.6923,348.96793   L 446.6619,350.90664   L 447.95469,353.00691   L 449.89389,360.43864   L 450.05549,367.87036   L 448.27789,375.14053   L 445.3691,382.57225   L 441.3291,389.68086   L 437.12751,396.78946   L 432.76431,403.57495   L 429.04751,410.36044   L 428.72432,411.32979   L 428.40112,412.29915   L 428.07792,413.26851   L 427.75472,414.39942   L 427.43152,415.36878   L 427.43152,416.33813   L 427.43152,417.46905   L 427.75472,418.92308   L 430.50191,421.50803   L 434.05711,424.09297   L 437.61231,426.67792   L 441.3291,429.42443   L 444.3995,432.17094   L 446.98509,435.40212   L 448.60109,438.95642   L 448.92429,443.31852   L 448.43949,445.74191   L 448.27789,448.48842   L 448.11629,451.39648   L 447.79309,454.30455   L 447.14669,456.8895   L 446.0155,459.47444   L 444.3995,461.57471   L 442.2987,463.51343   L 440.8443,463.35187   L 439.8747,463.83654   L 438.9051,464.32122   L 438.0971,465.12902   L 437.28911,465.93681   L 436.48111,466.74461   L 435.51151,467.55241   L 434.70351,468.3602   L 431.14831,468.52176   L 428.07792,469.32956   L 425.16912,470.13735   L 422.42192,471.10671   L 419.51313,471.75295   L 416.76593,472.07606   L 413.85713,471.59139   L 410.78674,470.62203   L 408.68594,470.46047   L 406.58514,470.29891   L 404.48434,469.81424   L 402.54514,469.32956   L 400.44435,468.3602   L 398.34355,467.55241   L 396.40435,466.74461   L 394.78835,465.93681   L 392.36436,463.9981   L 390.42516,462.22095   L 388.48596,460.28224   L 386.86996,458.34353   L 385.25396,456.0817   L 384.28437,453.81987   L 383.31477,451.39648   L 382.99157,448.97309   L 382.34517,445.25723   L 382.34517,441.86449   L 382.82997,438.14863   L 383.96117,434.75588   L 385.25396,431.36314   L 387.03156,428.13195   L 388.97076,424.90077   L 391.39476,422.15426   L 391.07156,416.82281   L 390.10196,411.65291   L 388.48596,406.48302   L 386.38516,401.63624   L 383.47637,396.62791   L 380.08277,392.26581   L 376.20437,388.38838   L 372.16438,384.99564   L 368.28598,381.76446   L 364.73079,378.53327   L 361.33719,374.81741   L 358.42839,371.10155   L 355.6812,367.06257   L 353.742,362.86203   L 351.9644,358.49993   L 350.9948,354.29939   L 350.6716,351.55288   L 350.6716,349.29105   L 350.51,346.86766   L 350.8332,344.92895   L 350.8332,342.66712   L 351.318,340.56685   L 351.8028,338.46658   L 352.7724,336.52787   L 351.9644,335.55852   L 352.7724,334.91228   L 353.5804,334.26604   L 353.2572,333.13513   L 353.9036,332.00421   L 354.2268,330.8733   L 353.5804,329.90394   L 352.2876,329.41927   L 347.92441,326.83432   L 343.56121,324.89561   L 338.87482,323.28002   L 334.18842,321.98754   L 329.17883,320.53351   L 324.33083,319.40259   L 319.32124,317.94856   L 314.63484,316.65609   L 303.32286,314.07114   L 292.17247,311.48619   L 281.18368,308.90124   L 270.35649,306.47786   L 259.20611,303.89291   L 248.21732,301.79264   L 236.90533,300.01549   L 225.59334,298.88457   L 217.99815,297.10742   L 210.40296,295.49183   L 202.64617,294.0378   L 195.05098,292.74532   L 187.29419,291.12973   L 179.5374,289.51414   L 171.78061,287.41387   L 164.50861,285.15204   L 156.91342,284.02112   L 149.64143,282.89021   L 142.36944,281.75929   L 135.25905,280.62838   L 127.82546,279.33591   L 120.55346,278.20499   L 113.28147,276.91252   L 106.00948,275.7816   L 104.55508,275.45848   L 103.26228,275.29692   L 101.80788,274.97381   L 100.35349,274.81225   L 98.737488,274.32757   L 97.12149,274.16601   L 95.667092,273.84289   L 94.212693,273.84289   L 93.243095,274.32757   L 92.435096,275.29692   L 91.142297,280.46682   L 90.011098,285.79827   L 88.7183,290.80661   L 87.425501,295.97651   L 85.809503,300.98484   L 84.355105,305.99318   L 82.415907,311.00151   L 80.638309,316.17141   L 83.062306,317.62544   L 85.647903,319.40259   L 88.0719,321.3413   L 90.334298,323.60313   L 91.950296,326.02652   L 93.404694,328.77303   L 94.212693,331.6811   L 94.697493,335.07384   L 94.374293,337.01255   L 93.889494,338.95126   L 92.919895,340.72841   L 91.950296,342.66712   L 90.334298,343.9596   L 88.8799,345.41363   L 87.102302,346.7061   L 85.324704,347.83702   L 82.577507,350.26041   L 79.99191,352.68379   L 77.244713,355.10718   L 74.659116,357.53057   L 71.588719,359.46928   L 68.356723,361.40799   L 64.963127,362.53891   L 61.246331,363.3467   L 59.307133,363.02359   L 57.367935,362.53891   L 55.428737,361.73111   L 53.974339,360.76176   L 52.358341,359.30772   L 50.903942,358.01525   L 49.611144,356.39966   L 48.641545,354.78406   L 47.995146,352.84535   L 47.025547,350.90664   L 45.894348,349.12949   L 44.924749,347.35234   L 43.631951,345.41363   L 42.823952,343.63648   L 42.177552,341.69777   L 42.015953,339.75906   L 41.692753,335.72008   L 42.823952,332.32733   L 44.60155,329.09615   L 46.863947,326.18808   L 48.641545,323.11846   L 49.934344,320.04883   L 49.611144,316.81765   L 47.671946,313.4249   L 45.732748,310.03216   L 43.95515,306.63941   L 42.339152,303.24667   L 40.884754,300.01549   L 39.107156,296.62274   L 37.491158,293.23   L 35.55196,289.99881   L 33.612762,287.09075   L 33.127963,286.12139   L 32.804763,285.15204   L 32.319963,284.34424   L 31.996764,283.53645   L 30.865565,281.92085   L 29.734366,280.46682   L 27.795169,277.55875   L 26.17917,274.65069   L 24.563172,271.58106   L 23.108774,268.673   L 21.492776,265.44181   L 19.876778,262.53375   L 17.77598,259.46412   L 15.675182,256.87917   L 13.897584,252.67863   L 11.473587,249.12433   L 8.4031905,245.89315   L 5.4943938,242.98508   L 2.7471969,239.75389   L 0.80799909,236.36115   L 0,232.32217   L 0.64639927,227.79851   L 1.2927985,227.47539   L 1.777598,226.6676   L 1.9391978,225.69824   L 2.4239973,224.89045   L 2.2623974,223.59797   L 1.9391978,222.95173   L 5.332794,220.52835   L 8.7263901,218.26652   L 11.958386,215.84313   L 15.190383,213.41974   L 18.260779,210.83479   L 21.492776,208.4114   L 24.563172,205.98802   L 27.956768,203.72619   L 27.471969,200.65656   L 27.148769,197.7485   L 26.50237,194.84043   L 26.017571,191.93236   L 25.209572,189.0243   L 24.401572,186.43935   L 23.270374,183.69284   L 22.300775,181.10789   L 22.785574,177.39203   L 24.239973,174.32241   L 26.17917,171.41434   L 28.764767,168.99095   L 31.350365,166.56756   L 34.259161,164.46729   L 37.167958,162.20547   L 40.076755,159.94364   L 41.531153,158.32804   L 43.470351,156.87401   L 45.247949,155.58154   L 47.025547,154.45062   L 48.479945,153.15815   L 50.095943,152.02723   L 51.550342,150.73476   L 52.84314,149.60385   L 53.00474,142.81836   L 53.16634,136.03287   L 53.00474,129.24738   L 52.84314,122.62345   L 52.358341,115.83797   L 51.711942,109.3756   L 50.742343,102.91323   L 49.611144,96.773978   L 49.772744,93.542793   L 49.449544,90.311609   L 48.803145,86.918865   L 48.318345,83.849239   L 47.995146,80.456496   L 48.479945,77.709989   L 49.611144,75.2866   L 51.873541,73.34789   L 61.89273,68.98579   L 72.558318,65.108369   L 83.223906,61.392507   L 94.051094,57.999763   L 104.87828,54.607019   L 115.86707,51.537394   L 126.53266,48.14465   L 137.19824,45.075025   L 146.24783,42.490077   L 155.45902,40.066689   L 164.83181,37.481741   L 174.2046,35.058352   L 183.41579,32.473405   L 192.95018,30.373135   L 202.32297,28.434424   L 212.01896,27.14195   L 212.34216,26.495713   L 212.98856,26.657273   L 213.63496,26.657273   L 214.44296,26.172595   L 238.84453,21.648937   L 263.8925,17.933074   L 289.10207,14.863449   L 314.47324,13.086297   L 339.68282,12.278501   L 365.05399,12.924738   L 390.10196,14.863449   L 414.98833,18.74087   L 420.80592,19.710226   L 426.94672,20.679581   L 433.08751,21.648937   L 439.3899,23.10297   L 445.5307,24.395443   L 451.83309,26.172595   L 457.97388,28.111306   L 463.95308,30.534694  z "
     style="fill:#40409f;fill-rule:evenodd;fill-opacity:1;stroke:none;" />
  <path
     id="path7"
     d="  M 451.67149,38.451096   L 442.9451,42.005399   L 434.05711,45.398143   L 425.00752,48.467768   L 416.11953,51.537394   L 406.90834,54.607019   L 398.02035,58.161322   L 389.29396,61.877184   L 381.05237,66.239284   L 378.78997,68.177994   L 376.20437,70.278264   L 373.45718,72.055416   L 371.19478,74.155686   L 369.09398,76.094396   L 367.80118,78.679344   L 367.47798,81.58741   L 368.28598,85.141713   L 369.09398,86.111069   L 370.06358,87.080424   L 371.19478,87.88822   L 372.64918,88.696016   L 373.94198,89.342253   L 375.23478,90.150049   L 376.52757,90.957845   L 377.82037,92.08876   L 381.21397,93.058115   L 384.60757,93.865912   L 387.67796,94.512148   L 390.90996,95.158385   L 393.98035,95.319945   L 397.21235,95.643063   L 400.44435,95.804622   L 404.16114,96.2893   L 409.33234,96.612418   L 414.66513,97.420215   L 419.67473,98.38957   L 424.68432,99.843603   L 429.53231,101.13608   L 434.54191,103.07479   L 439.3899,104.85194   L 444.7227,107.27533   L 446.0155,108.24468   L 447.46989,109.21404   L 448.76269,110.34495   L 450.05549,111.47587   L 451.18669,112.44522   L 452.47949,113.57614   L 453.61069,114.70705   L 455.06509,116.16109   L 442.2987,116.64576   L 429.53231,115.99953   L 416.92753,114.54549   L 404.48434,112.76834   L 391.87956,110.50651   L 379.43637,108.24468   L 366.99319,106.46753   L 354.7116,105.33662   L 322.71484,101.62075   L 290.87967,98.38957   L 258.55971,95.319945   L 226.40134,92.573438   L 194.08138,89.826931   L 161.92302,87.241983   L 129.92625,84.495476   L 98.091089,81.748969   L 96.798291,81.425851   L 95.828692,80.941173   L 95.020693,80.779614   L 95.182292,81.748969   L 91.303897,81.102733   L 87.425501,80.618055   L 83.708705,80.133377   L 80.153509,79.971818   L 76.275114,79.48714   L 72.558318,79.002463   L 68.841522,78.356226   L 65.124726,77.548429   L 74.820715,74.317245   L 84.516704,71.732297   L 94.212693,69.308909   L 103.90868,67.208639   L 113.60467,64.94681   L 123.46226,62.84654   L 133.31985,60.584711   L 143.33904,58.161322   L 162.24622,52.829868   L 181.63819,47.983091   L 201.03017,43.620992   L 220.74535,39.74357   L 240.13733,36.027708   L 260.01411,32.796523   L 279.72928,29.888457   L 299.60606,27.626628   L 302.83806,26.657273   L 306.39325,26.334154   L 310.11005,26.011036   L 313.82685,26.011036   L 317.54364,25.687917   L 321.26044,25.526358   L 324.81563,25.04168   L 328.37083,24.395443   L 344.04601,24.395443   L 359.55959,25.04168   L 374.91158,26.011036   L 390.42516,27.626628   L 405.61554,29.565339   L 420.96752,31.988727   L 436.15791,34.896793   L 451.67149,38.451096  z "
     style="fill:#9f9f40;fill-rule:evenodd;fill-opacity:1;stroke:none;" />
  <path
     id="path9"
     d="  M 462.01388,63.815895   L 459.10508,66.562402   L 456.51948,69.955146   L 453.77229,73.18633   L 451.18669,76.579074   L 448.27789,79.48714   L 445.2075,82.233647   L 441.8139,84.495476   L 438.0971,86.434187   L 437.12751,87.403542   L 436.31951,88.049779   L 435.02671,88.211339   L 433.89551,88.211339   L 432.44111,87.726661   L 431.14831,87.403542   L 429.85551,87.080424   L 429.04751,86.918865   L 424.36112,85.141713   L 419.83633,83.68768   L 415.14993,82.395206   L 410.62514,81.425851   L 405.93874,80.294936   L 401.41395,79.48714   L 397.05075,78.679344   L 392.84916,78.033107   L 395.59635,75.932837   L 398.82835,73.994126   L 402.06035,72.378534   L 405.61554,70.924501   L 409.00914,69.470468   L 412.88753,68.177994   L 416.76593,67.04708   L 420.64432,66.239284   L 423.22992,64.94681   L 425.97712,63.977454   L 428.56272,63.169658   L 431.47151,62.361862   L 434.05711,61.392507   L 436.80431,60.423151   L 439.5515,59.292237   L 442.2987,58.161322   L 445.3691,57.191967   L 448.60109,56.222611   L 451.67149,54.930138   L 454.90349,53.637664   L 457.81228,52.183631   L 460.88268,50.729598   L 463.95308,49.275565   L 467.18507,47.821532   L 467.34667,49.760242   L 467.02347,51.698953   L 466.21547,53.637664   L 465.40747,55.737934   L 464.27628,57.676644   L 463.30668,59.615355   L 462.33708,61.554066   L 462.01388,63.815895  z "
     style="fill:#808000;fill-rule:evenodd;fill-opacity:1;stroke:none;" />
  <path
     id="path11"
     d="  M 181.47659,103.39791   L 168.06381,102.59011   L 154.81262,101.94387   L 141.23824,101.13608   L 127.66386,100.6514   L 113.92787,100.00516   L 100.35349,99.520485   L 86.779102,99.035807   L 73.527917,98.712688   L 72.073519,98.874248   L 71.10392,98.551129   L 70.45752,97.743333   L 70.134321,96.935537   L 69.811121,95.643063   L 69.649521,94.512148   L 69.487921,93.058115   L 69.326322,92.08876   L 82.900706,93.865912   L 96.798291,95.481504   L 110.69587,96.935537   L 124.75506,98.551129   L 138.81424,99.843603   L 152.87343,101.13608   L 167.09421,102.26699   L 181.47659,103.39791  z "
     style="fill:#454500;fill-rule:evenodd;fill-opacity:1;stroke:none;" />
  <path
     id="path13"
     d="  M 332.57242,118.0998   L 342.10681,118.90759   L 351.4796,119.87695   L 360.69079,121.00786   L 370.06358,122.30034   L 379.27477,123.26969   L 388.48596,124.56216   L 397.69715,125.69308   L 407.39314,126.98555   L 413.69553,128.11647   L 419.99793,129.40894   L 426.46192,130.53986   L 433.24911,131.83233   L 439.7131,132.80169   L 446.5003,133.77104   L 453.28749,134.57884   L 460.23628,135.38663   L 460.07468,136.19443   L 459.91308,137.16378   L 459.42828,137.97158   L 459.10508,138.94094   L 458.29708,139.42561   L 457.65068,139.74873   L 456.68108,139.74873   L 455.87308,139.26405   L 443.2683,137.4869   L 430.82511,135.87131   L 417.89713,134.09416   L 404.96914,132.64013   L 391.71796,131.02453   L 378.62837,129.5705   L 365.53879,128.11647   L 352.7724,126.98555   L 334.35002,123.10813   L 315.60444,119.87695   L 296.69726,117.13044   L 277.79009,114.86861   L 258.55971,112.44522   L 239.65253,110.34495   L 220.74535,108.08312   L 202.16137,105.82129   L 199.73737,105.65974   L 197.31338,105.49818   L 194.72778,105.17506   L 192.14218,104.85194   L 189.39499,104.36726   L 186.80939,104.04414   L 184.38539,103.72102   L 182.28459,103.39791   L 201.19177,105.0135   L 219.93735,106.62909   L 238.19813,108.24468   L 256.62051,110.02183   L 275.04289,111.63743   L 293.78847,113.57614   L 312.85725,115.51485   L 332.57242,118.0998  z "
     style="fill:#454500;fill-rule:evenodd;fill-opacity:1;stroke:none;" />
  <path
     id="path15"
     d="  M 140.91504,119.39227   L 149.15663,120.36162   L 158.04462,120.8463   L 166.93261,121.16942   L 176.1438,121.49254   L 185.19339,121.6541   L 194.08138,121.97722   L 202.48457,122.62345   L 210.56456,123.75437   L 223.16935,123.91593   L 235.93573,124.72372   L 248.54052,125.69308   L 261.1453,127.14711   L 273.75009,128.43959   L 286.83968,129.73206   L 299.92926,130.70142   L 313.66525,131.67077   L 331.44123,134.09416   L 349.37881,136.19443   L 367.47798,138.13314   L 385.73876,140.07185   L 403.67634,142.01056   L 421.45232,144.27239   L 438.7435,146.85734   L 455.54989,150.08852   L 454.74189,152.99659   L 454.09549,155.90466   L 453.28749,158.97428   L 452.80269,162.04391   L 452.31789,164.95197   L 451.99469,167.86004   L 451.67149,170.92966   L 451.67149,173.99929   L 452.15629,174.80708   L 452.64109,175.45332   L 450.21709,174.96864   L 448.27789,174.64553   L 446.3387,174.16085   L 444.3995,173.67617   L 442.4603,173.19149   L 440.6827,172.70681   L 438.9051,172.54526   L 437.12751,172.70681   L 429.85551,171.5759   L 422.58352,170.60654   L 415.31153,169.63719   L 408.03954,168.66783   L 400.76755,167.53692   L 393.49556,166.406   L 386.38516,165.43665   L 379.59797,164.62885   L 378.95157,163.49794   L 377.98197,162.69014   L 376.85077,162.20547   L 375.88118,161.88235   L 375.55798,162.52858   L 375.23478,163.01326   L 374.74998,163.17482   L 374.42678,163.33638   L 373.29558,163.01326   L 372.16438,163.17482   L 370.54838,162.69014   L 368.93238,162.52858   L 367.47798,162.20547   L 366.02359,162.04391   L 364.40759,161.88235   L 362.95319,161.88235   L 361.33719,161.88235   L 359.88279,161.88235   L 359.39799,161.55923   L 358.91319,160.91299   L 350.1868,159.78208   L 341.62201,158.65116   L 333.21882,157.35869   L 324.81563,156.06621   L 316.25084,154.61218   L 307.68605,153.31971   L 298.95966,152.02723   L 290.23327,151.05788   L 289.26367,149.7654   L 288.13247,148.79605   L 286.51648,147.98825   L 285.06208,147.66513   L 284.57728,148.95761   L 284.57728,149.60385   L 281.99168,149.60385   L 279.56768,149.7654   L 276.98209,149.44229   L 274.39649,149.28073   L 271.64929,148.79605   L 269.0637,148.47293   L 266.3165,147.98825   L 263.8925,147.66513   L 262.9229,146.53422   L 261.7917,146.04954   L 260.49891,146.2111   L 259.52931,147.18046   L 247.73252,145.56486   L 236.58213,143.94927   L 225.75494,142.49524   L 215.08936,141.20277   L 204.26217,139.74873   L 193.59658,138.61782   L 182.60779,137.32534   L 171.45741,136.35599   L 171.45741,135.06351   L 171.45741,134.09416   L 170.81101,133.28636   L 170.16461,132.64013   L 166.12461,134.09416   L 161.92302,134.90196   L 157.55982,135.06351   L 153.35823,135.06351   L 148.83343,134.57884   L 144.47024,134.09416   L 140.26864,133.60948   L 136.22865,133.60948   L 129.27985,132.96324   L 122.00786,132.47857   L 114.25107,131.67077   L 106.65588,131.02453   L 98.899088,130.21674   L 91.465497,129.73206   L 84.355105,129.24738   L 77.729512,129.24738   L 76.598313,129.5705   L 75.628715,129.89362   L 74.659116,130.05518   L 73.851117,130.3783   L 72.881518,130.53986   L 71.911919,130.70142   L 70.78072,130.70142   L 69.811121,130.70142   L 70.134321,129.24738   L 70.45752,127.95491   L 70.45752,126.82399   L 70.61912,125.69308   L 70.61912,124.40061   L 70.78072,123.26969   L 70.78072,121.97722   L 71.265519,120.8463   L 77.083113,120.20007   L 83.062306,119.55383   L 89.041499,119.06915   L 95.182292,118.90759   L 101.16149,118.42291   L 107.14068,118.58447   L 112.95827,118.74603   L 118.77587,119.39227   L 121.36146,118.90759   L 124.10866,118.90759   L 126.85586,118.90759   L 129.60305,119.06915   L 132.18865,119.23071   L 134.93585,119.39227   L 137.84464,119.39227   L 140.91504,119.39227  z "
     style="fill:#9f9f40;fill-rule:evenodd;fill-opacity:1;stroke:none;" />
  <path
     id="path17"
     d="  M 81.607908,141.04121   L 81.284708,141.849   L 80.961508,142.49524   L 80.476709,142.81836   L 79.99191,143.30304   L 78.860711,143.78771   L 78.214312,144.91863   L 77.406312,144.59551   L 77.083113,145.08019   L 76.759913,145.72642   L 76.436714,146.69578   L 73.851117,148.31137   L 71.427119,150.25008   L 68.841522,152.18879   L 66.417525,154.45062   L 63.670328,156.55089   L 61.084731,158.65116   L 58.499134,160.58987   L 56.075137,162.69014   L 58.499134,160.26675   L 61.084731,157.52025   L 63.347128,154.28906   L 65.771126,151.21944   L 68.033523,147.82669   L 70.78072,144.91863   L 73.851117,142.33368   L 77.406312,140.55653   L 78.052712,140.87965   L 79.18391,141.04121   L 80.315109,141.04121   L 81.607908,141.04121  z "
     style="fill:#ffffff;fill-rule:evenodd;fill-opacity:1;stroke:none;" />
  <path
     id="path19"
     d="  M 115.86707,144.43395   L 115.05907,144.43395   L 114.73587,145.40331   L 114.25107,145.88798   L 113.60467,145.72642   L 111.98867,147.18046   L 110.37268,148.63449   L 108.59508,149.60385   L 106.97908,150.73476   L 105.03988,151.70412   L 103.42388,152.67347   L 101.80788,153.96594   L 100.35349,155.7431   L 97.60629,157.52025   L 94.859093,159.62052   L 91.950296,161.55923   L 89.364699,164.14418   L 87.102302,166.72912   L 85.486303,169.96031   L 84.678304,173.83773   L 85.324704,178.36139   L 85.324704,179.81542   L 85.647903,181.26945   L 85.971103,182.56193   L 86.617502,183.8544   L 87.263901,184.98532   L 88.3951,186.11623   L 89.526299,187.08559   L 90.980697,188.2165   L 92.111896,188.2165   L 93.404694,187.89338   L 94.535893,187.08559   L 95.667092,186.27779   L 96.636691,184.98532   L 97.767889,184.01596   L 98.899088,183.04661   L 100.35349,182.56193   L 100.51509,181.10789   L 101.16149,180.13854   L 101.96948,179.16918   L 103.10068,178.52295   L 104.23188,177.87671   L 105.52468,177.23047   L 106.49428,176.26112   L 107.46388,175.45332   L 109.07988,173.99929   L 110.85747,172.3837   L 112.47347,170.60654   L 114.25107,168.82939   L 115.86707,166.89068   L 117.48307,164.95197   L 119.09907,163.01326   L 120.71506,161.39767   L 120.39186,161.23611   L 120.23026,160.91299   L 121.19986,158.97428   L 122.33106,157.03557   L 123.30066,155.09686   L 124.27026,153.31971   L 125.07826,151.21944   L 126.04786,149.28073   L 127.01746,147.34202   L 128.14866,145.40331   L 130.57265,145.08019   L 133.48145,145.08019   L 136.55185,145.08019   L 139.94544,145.24175   L 142.85424,145.40331   L 145.76304,145.72642   L 148.18703,146.2111   L 150.28783,146.69578   L 148.99503,147.0189   L 147.86383,147.82669   L 146.73263,148.47293   L 145.76304,149.44229   L 144.63184,150.08852   L 143.50064,150.89632   L 142.36944,151.381   L 141.39984,151.86567   L 140.10704,153.31971   L 138.81424,154.77374   L 137.03665,156.22777   L 135.42065,157.68181   L 133.64305,159.13584   L 132.02705,160.58987   L 130.41105,162.04391   L 129.11825,163.6595   L 127.17906,165.43665   L 125.40146,167.2138   L 123.46226,168.99095   L 121.84626,170.92966   L 120.23026,172.86837   L 119.26067,174.96864   L 118.77587,177.39203   L 119.26067,180.13854   L 119.58386,181.10789   L 120.06866,182.40037   L 120.55346,183.69284   L 121.19986,185.14688   L 121.68466,186.11623   L 122.49266,187.24715   L 123.46226,188.05494   L 124.91666,188.70118   L 128.14866,188.2165   L 131.21905,187.24715   L 133.80465,185.79311   L 136.39025,184.01596   L 138.65264,181.91569   L 141.07664,179.81542   L 143.50064,177.71515   L 146.57103,175.938   L 147.54063,174.80708   L 148.67183,173.99929   L 149.64143,173.02993   L 150.77263,172.3837   L 151.74223,171.41434   L 152.71183,170.60654   L 153.51983,169.47563   L 154.48943,168.34472   L 155.94382,165.92133   L 157.55982,163.49794   L 159.01422,161.07455   L 160.46862,158.81272   L 161.43822,156.22777   L 162.40782,153.80439   L 163.05422,151.21944   L 163.53902,148.63449   L 164.83181,147.98825   L 166.60941,147.66513   L 168.22541,147.66513   L 170.16461,147.82669   L 172.10381,147.98825   L 174.043,148.31137   L 175.9822,148.47293   L 178.083,148.63449   L 179.2142,148.63449   L 180.3454,148.79605   L 181.47659,149.11917   L 182.76939,149.44229   L 183.73899,149.60385   L 184.87019,149.92696   L 186.00139,149.92696   L 187.13259,150.08852   L 186.00139,151.05788   L 185.03179,151.86567   L 184.06219,152.35035   L 183.09259,152.99659   L 182.12299,153.48127   L 181.1534,154.1275   L 180.1838,154.9353   L 179.5374,156.22777   L 177.5982,157.19713   L 175.8206,158.16648   L 173.8814,159.13584   L 172.26541,160.1052   L 170.48781,161.07455   L 169.19501,162.04391   L 168.06381,163.01326   L 167.25581,164.14418   L 165.96301,164.30573   L 165.15501,164.79041   L 164.50861,165.27509   L 164.18541,165.92133   L 163.53902,166.406   L 163.05422,167.05224   L 162.24622,167.53692   L 161.11502,167.86004   L 160.63022,168.66783   L 159.98382,169.63719   L 159.01422,170.28343   L 158.20622,170.92966   L 157.23662,171.41434   L 156.59022,172.22214   L 155.94382,172.86837   L 155.94382,173.99929   L 154.32783,175.77644   L 153.35823,177.87671   L 152.87343,180.3001   L 152.87343,182.72349   L 153.03503,184.98532   L 153.35823,187.24715   L 153.84303,189.34742   L 154.48943,191.44769   L 155.29742,192.09392   L 156.26702,192.74016   L 157.23662,193.06328   L 158.36782,193.3864   L 159.33742,193.22484   L 160.30702,193.06328   L 161.43822,192.74016   L 162.56942,192.41704   L 164.34701,191.12457   L 166.12461,189.83209   L 167.74061,188.53962   L 169.35661,187.24715   L 170.81101,185.79311   L 172.5886,184.50064   L 174.5278,183.36972   L 176.6286,182.56193   L 178.083,180.94634   L 179.8606,179.4923   L 181.1534,177.87671   L 182.28459,176.42268   L 183.25419,175.61488   L 184.22379,174.80708   L 185.03179,173.83773   L 185.83979,173.02993   L 186.48619,172.06058   L 187.29419,171.09122   L 187.77899,169.96031   L 188.42539,168.82939   L 189.23339,168.18316   L 189.87979,167.37536   L 190.20298,166.406   L 190.52618,165.43665   L 190.68778,164.46729   L 191.01098,163.49794   L 191.49578,162.69014   L 192.62698,162.20547   L 193.43498,160.58987   L 194.08138,158.4896   L 194.72778,156.22777   L 195.53578,154.1275   L 196.50538,152.35035   L 197.95978,151.21944   L 200.06057,150.89632   L 203.13097,151.86567   L 204.74697,152.35035   L 207.81737,152.67347   L 211.21096,152.83503   L 214.60456,153.15815   L 217.02855,153.48127   L 217.99815,154.45062   L 217.02855,155.7431   L 213.47336,158.00493   L 211.85736,158.65116   L 210.56456,159.45896   L 209.27176,160.26675   L 208.30216,161.23611   L 207.00937,162.04391   L 205.87817,162.8517   L 204.58537,163.6595   L 203.13097,164.62885   L 201.19177,165.92133   L 199.41417,167.37536   L 197.63658,168.66783   L 195.85898,170.12187   L 194.08138,171.25278   L 192.30378,172.54526   L 190.52618,173.67617   L 188.91019,174.96864   L 187.61739,176.42268   L 186.32459,177.87671   L 184.87019,179.33074   L 183.90059,181.10789   L 183.09259,182.56193   L 182.76939,184.50064   L 182.93099,186.43935   L 184.22379,188.70118   L 184.06219,189.67053   L 184.54699,190.80145   L 185.35499,191.93236   L 186.16299,192.90172   L 191.01098,193.3864   L 195.69738,192.74016   L 200.06057,190.96301   L 204.42377,188.37806   L 208.14056,185.14688   L 212.01896,181.59257   L 215.25096,177.87671   L 218.64455,174.48397   L 220.26055,172.3837   L 221.87655,170.28343   L 223.33095,167.86004   L 224.94695,165.59821   L 226.23974,163.01326   L 227.53254,160.58987   L 228.66374,158.16648   L 229.95654,155.7431   L 232.05734,155.90466   L 234.48133,156.22777   L 236.58213,156.55089   L 239.00613,157.03557   L 241.10693,157.35869   L 243.36932,157.68181   L 245.47012,158.00493   L 247.73252,158.4896   L 246.60132,158.97428   L 245.47012,159.94364   L 245.14692,158.97428   L 244.98532,158.97428   L 243.04613,160.58987   L 241.26853,162.36702   L 239.32933,163.82106   L 237.55173,165.27509   L 235.61253,166.56756   L 233.67334,168.0216   L 231.73414,169.47563   L 229.95654,171.25278   L 227.53254,173.19149   L 225.10855,175.1302   L 222.68455,177.06891   L 220.74535,179.16918   L 218.80615,181.26945   L 217.35175,184.01596   L 216.38216,187.08559   L 216.22056,190.96301   L 215.89736,192.41704   L 216.05896,194.03263   L 216.05896,194.84043   L 216.22056,195.64823   L 216.38216,196.61758   L 216.70536,197.58694   L 217.02855,197.10226   L 216.70536,197.58694   L 217.19015,198.55629   L 217.99815,199.36409   L 218.96775,199.84877   L 220.09895,200.495   L 221.06855,200.495   L 222.36135,200.495   L 223.49255,200.33344   L 224.78535,200.01032   L 225.75494,198.71785   L 227.04774,197.7485   L 228.34054,196.61758   L 229.79494,195.64823   L 231.08774,194.51731   L 232.38054,193.70951   L 233.51174,192.90172   L 234.64293,192.41704   L 235.61253,190.63989   L 237.06693,189.34742   L 238.52133,188.37806   L 240.13733,187.57026   L 241.59173,186.60091   L 243.04613,185.63155   L 244.33892,184.17752   L 245.47012,182.56193   L 246.92452,182.40037   L 247.57092,182.72349   L 247.24772,183.20816   L 246.60132,184.33908   L 245.47012,185.30843   L 244.50052,186.43935   L 243.85412,187.57026   L 244.01572,188.70118   L 243.69252,188.70118   L 243.53092,188.70118   L 243.04613,190.63989   L 243.04613,192.74016   L 243.04613,194.67887   L 243.53092,196.61758   L 244.01572,198.23317   L 245.14692,200.01032   L 246.43972,201.62592   L 248.21732,203.24151   L 251.77252,202.11059   L 255.32771,200.65656   L 258.55971,198.55629   L 261.7917,196.29446   L 264.7005,193.54796   L 267.7709,190.96301   L 270.67969,188.37806   L 273.75009,186.27779   L 275.04289,185.30843   L 276.49729,184.17752   L 277.79009,182.88505   L 279.08288,181.75413   L 280.21408,180.46166   L 281.34528,179.16918   L 282.63808,177.87671   L 284.09248,176.90735   L 284.57728,174.96864   L 285.38528,173.51461   L 286.19328,172.06058   L 287.16288,170.7681   L 287.97087,169.15251   L 288.77887,167.69848   L 289.26367,166.08289   L 289.74847,164.62885   L 291.04127,163.6595   L 292.65727,163.49794   L 294.27327,163.49794   L 296.05087,163.98262   L 297.82846,164.30573   L 299.60606,164.79041   L 301.38366,164.95197   L 303.32286,165.11353   L 302.51486,166.24445   L 301.38366,166.89068   L 299.92926,167.53692   L 299.12126,168.34472   L 298.31326,169.15251   L 297.66686,170.12187   L 296.69726,170.7681   L 295.88927,171.5759   L 294.75807,172.06058   L 293.78847,172.70681   L 292.81887,173.02993   L 292.01087,173.51461   L 289.42527,176.09956   L 286.83968,179.00762   L 284.09248,181.75413   L 281.66848,184.6622   L 278.92128,187.24715   L 276.65889,189.99365   L 274.39649,192.41704   L 272.78049,194.84043   L 272.45729,196.1329   L 272.45729,197.58694   L 272.45729,199.04097   L 272.45729,200.65656   L 272.45729,202.11059   L 272.61889,203.56463   L 272.61889,205.01866   L 272.78049,206.47269   L 273.26529,207.60361   L 274.55809,209.2192   L 275.85089,210.51167   L 277.46689,211.31947   L 279.89088,210.83479   L 282.31488,209.86544   L 284.25408,208.4114   L 286.19328,206.63425   L 287.97087,204.53398   L 289.91007,202.43371   L 291.84927,200.33344   L 294.43487,198.55629   L 298.15166,195.16355   L 301.70686,191.60924   L 304.93886,187.73182   L 308.00925,183.8544   L 310.43325,179.65386   L 313.01885,175.77644   L 314.95804,171.89902   L 317.05884,168.34472   L 319.32124,168.34472   L 321.58364,168.50627   L 323.84603,168.82939   L 326.10843,169.31407   L 328.20923,169.79875   L 330.47163,170.28343   L 332.57242,170.7681   L 334.99642,171.25278   L 333.54202,172.22214   L 332.24922,173.19149   L 330.95643,174.16085   L 329.98683,175.29176   L 328.85563,176.09956   L 327.72443,177.06891   L 326.59323,177.87671   L 325.46203,178.68451   L 325.46203,179.65386   L 324.81563,180.3001   L 323.52283,180.62322   L 322.71484,181.59257   L 321.58364,181.75413   L 320.45244,182.56193   L 319.15964,183.20816   L 318.51324,184.01596   L 317.86684,184.50064   L 317.38204,185.30843   L 316.73564,185.63155   L 316.08924,184.82376   L 315.28124,184.98532   L 315.28124,185.79311   L 315.44284,186.43935   L 315.11964,187.24715   L 313.50365,188.2165   L 312.21085,189.18586   L 310.91805,190.31677   L 309.94845,191.44769   L 308.81725,192.5786   L 307.84765,193.87107   L 306.71645,195.16355   L 305.74685,196.61758   L 305.42365,198.87941   L 305.26205,201.46436   L 304.93886,203.88775   L 305.10046,206.47269   L 305.26205,208.73452   L 305.90845,210.99635   L 307.20125,212.7735   L 309.46365,214.55065   L 312.21085,214.06598   L 314.79644,213.25818   L 317.05884,211.96571   L 319.32124,210.51167   L 321.26044,208.73452   L 323.19963,207.11893   L 325.13883,205.50334   L 327.40123,204.21086   L 327.40123,203.24151   L 327.72443,202.75683   L 328.04763,202.43371   L 328.53243,202.43371   L 329.17883,202.27215   L 329.66363,201.3028   L 330.63323,200.81812   L 331.27963,200.17188   L 331.60283,199.36409   L 332.08762,198.71785   L 332.41082,197.7485   L 332.89562,196.9407   L 333.70362,196.29446   L 334.99642,196.1329   L 336.61242,193.22484   L 338.22842,190.47833   L 339.84442,187.57026   L 341.62201,184.82376   L 343.23801,181.75413   L 344.85401,178.68451   L 346.47001,175.77644   L 348.08601,173.02993   L 349.5404,173.35305   L 351.1564,173.67617   L 352.7724,173.99929   L 354.3884,174.48397   L 355.8428,174.80708   L 357.6204,175.1302   L 359.07479,175.45332   L 360.85239,175.938   L 360.04439,176.58424   L 358.91319,177.39203   L 357.6204,178.19983   L 356.974,179.16918   L 354.3884,180.94634   L 352.126,182.88505   L 349.8636,184.82376   L 347.92441,186.92403   L 345.82361,188.86274   L 343.88441,190.96301   L 341.78361,193.06328   L 339.68282,195.16355   L 338.55162,196.61758   L 337.25882,198.07161   L 335.96602,199.52565   L 334.83482,201.46436   L 333.70362,203.07995   L 332.89562,205.18022   L 332.24922,207.28049   L 332.08762,209.86544   L 332.08762,210.83479   L 332.41082,211.96571   L 332.73402,212.93506   L 333.21882,214.06598   L 333.70362,214.87377   L 334.35002,215.84313   L 334.99642,216.81248   L 335.80442,217.78184   L 336.45082,217.45872   L 337.58202,217.78184   L 338.39002,217.78184   L 338.71322,217.78184   L 339.35962,218.42808   L 340.32922,218.58964   L 341.29881,218.10496   L 342.26841,217.62028   L 343.23801,216.81248   L 344.36921,216.16625   L 345.50041,215.68157   L 346.63161,215.52001   L 348.08601,214.06598   L 349.5404,212.7735   L 350.9948,211.48103   L 352.4492,210.18856   L 353.742,208.73452   L 355.1964,207.60361   L 356.4892,206.31113   L 357.9436,205.18022   L 359.23639,204.37242   L 360.69079,203.24151   L 361.98359,201.94904   L 363.11479,200.81812   L 364.56919,199.36409   L 366.34679,197.91005   L 367.15478,197.10226   L 368.12438,196.29446   L 368.93238,195.48667   L 369.74038,194.84043   L 369.41718,194.51731   L 369.90198,194.51731   L 370.54838,194.19419   L 371.19478,193.87107   L 372.00278,192.25548   L 373.13398,190.80145   L 374.10358,189.18586   L 375.39638,187.73182   L 376.36597,185.95467   L 377.49717,184.33908   L 378.30517,182.72349   L 379.11317,181.10789   L 380.24437,181.10789   L 381.37557,181.10789   L 382.50677,181.10789   L 383.63797,181.43101   L 384.60757,181.43101   L 385.57716,181.75413   L 386.70836,182.07725   L 388.16276,182.56193   L 385.57716,184.50064   L 383.31477,186.92403   L 381.05237,189.18586   L 378.95157,191.7708   L 376.52757,194.03263   L 374.26518,196.45602   L 371.84118,198.55629   L 369.25558,200.495   L 367.31638,202.43371   L 365.70039,204.69554   L 364.08439,206.95737   L 362.79159,209.54232   L 361.66039,212.12727   L 361.01399,215.03533   L 360.85239,217.9434   L 361.33719,221.17458   L 361.82199,221.98238   L 362.30679,222.79018   L 362.95319,223.43641   L 363.92279,224.08265   L 364.73079,224.56733   L 365.53879,225.052   L 366.50839,225.37512   L 367.47798,225.8598   L 368.28598,225.37512   L 369.41718,224.89045   L 370.54838,224.24421   L 371.84118,223.75953   L 372.81078,222.95173   L 373.94198,222.14394   L 374.74998,221.33614   L 375.39638,220.68991   L 377.82037,219.39743   L 380.08277,217.78184   L 382.02197,215.68157   L 383.96117,213.74286   L 385.73876,211.31947   L 387.67796,209.05764   L 389.61716,206.95737   L 391.87956,205.18022   L 393.65715,202.91839   L 395.43475,200.65656   L 397.05075,198.23317   L 398.82835,195.80978   L 400.44435,193.22484   L 402.06035,190.80145   L 403.67634,188.37806   L 405.61554,186.27779   L 406.74674,186.60091   L 408.03954,186.92403   L 409.49394,187.08559   L 410.94834,187.4087   L 412.24113,187.57026   L 413.69553,188.05494   L 414.98833,188.37806   L 416.44273,189.18586   L 414.66513,190.31677   L 413.37233,191.60924   L 411.91793,192.74016   L 410.78674,193.87107   L 409.49394,194.84043   L 408.36274,195.97134   L 407.23154,197.10226   L 406.10034,198.55629   L 405.29234,199.20253   L 403.99954,200.01032   L 402.70674,200.81812   L 402.70674,202.27215   L 402.22195,202.27215   L 401.73715,202.27215   L 399.47475,204.69554   L 397.21235,207.11893   L 395.11155,209.70388   L 393.33396,212.61194   L 391.87956,215.35845   L 391.07156,218.42808   L 391.07156,221.65926   L 391.87956,225.37512   L 392.20276,226.34448   L 393.01076,227.47539   L 393.81875,228.44475   L 395.27315,229.09099   L 395.91955,229.57566   L 397.37395,229.73722   L 398.18195,229.57566   L 399.15155,229.57566   L 399.95955,229.25254   L 400.92915,229.09099   L 401.89875,228.28319   L 403.19154,227.63695   L 404.32274,226.6676   L 405.13074,225.8598   L 406.42354,224.56733   L 408.03954,223.27485   L 409.65554,221.82082   L 411.43313,220.36679   L 412.88753,218.75119   L 414.50353,217.29716   L 416.11953,215.84313   L 417.73553,214.55065   L 418.86673,213.74286   L 419.83633,213.09662   L 420.32112,212.12727   L 420.80592,211.31947   L 420.96752,210.35011   L 421.45232,209.54232   L 422.09872,208.57296   L 423.39152,207.92673   L 423.22992,207.44205   L 422.90672,206.95737   L 424.52272,205.50334   L 425.97712,203.88775   L 427.26992,201.78748   L 428.56272,199.84877   L 429.69391,197.58694   L 430.82511,195.64823   L 431.95631,193.70951   L 433.41071,191.93236   L 434.21871,191.7708   L 435.18831,192.09392   L 436.15791,192.41704   L 437.61231,192.41704   L 436.80431,194.03263   L 435.99631,195.48667   L 434.70351,196.77914   L 433.73391,198.07161   L 433.08751,199.20253   L 432.44111,200.495   L 431.63311,201.94904   L 430.98671,203.40307   L 430.01711,204.69554   L 429.04751,206.14958   L 428.07792,207.44205   L 427.26992,208.89608   L 426.13872,209.86544   L 425.16912,210.83479   L 424.36112,211.96571   L 423.55312,213.09662   L 422.58352,214.06598   L 421.77552,215.03533   L 420.64432,216.16625   L 419.67473,217.29716   L 419.35153,218.10496   L 419.18993,218.91275   L 418.70513,219.39743   L 418.22033,220.04367   L 417.08913,220.85146   L 416.44273,222.14394   L 415.47313,223.11329   L 414.50353,224.24421   L 413.69553,225.53668   L 412.88753,226.82916   L 411.91793,227.79851   L 410.94834,228.92943   L 409.81714,229.73722   L 408.84754,230.54502   L 408.84754,231.35281   L 408.84754,232.32217   L 408.20114,232.96841   L 407.39314,233.7762   L 407.06994,234.09932   L 406.58514,234.42244   L 406.10034,234.90712   L 406.42354,235.71491   L 405.29234,236.52271   L 404.64594,237.49207   L 404.16114,238.62298   L 403.67634,239.91545   L 403.02994,241.20793   L 402.54514,242.5004   L 401.89875,243.46976   L 401.25235,244.60067   L 386.06196,241.53105   L 370.87158,238.9461   L 355.5196,236.52271   L 340.32922,234.584   L 324.81563,232.64529   L 309.62525,230.70658   L 294.27327,228.76787   L 279.40608,226.82916   L 267.4477,224.40577   L 255.81251,222.14394   L 244.17732,219.72055   L 232.70374,217.45872   L 221.23015,215.03533   L 209.75656,212.7735   L 198.12138,210.67323   L 186.64779,208.89608   L 185.67819,207.76517   L 184.87019,207.28049   L 184.06219,207.28049   L 183.41579,207.60361   L 182.60779,207.76517   L 181.79979,208.08829   L 180.8302,207.92673   L 180.0222,207.44205   L 168.54861,204.21086   L 156.91342,201.94904   L 145.11664,200.01032   L 133.31985,198.55629   L 121.36146,196.77914   L 109.72628,194.84043   L 98.252689,192.09392   L 87.263901,188.70118   L 83.870305,187.73182   L 80.799909,186.92403   L 77.406312,186.27779   L 74.335916,185.79311   L 70.94232,185.30843   L 67.710323,184.82376   L 64.316727,184.33908   L 60.923131,184.01596   L 66.094325,178.68451   L 71.265519,173.67617   L 76.113514,168.50627   L 80.961508,163.49794   L 85.647903,158.32804   L 90.334298,153.15815   L 95.182292,147.98825   L 100.35349,142.97992   L 101.96948,142.97992   L 103.90868,142.97992   L 105.84788,142.97992   L 107.94868,143.14148   L 109.88788,143.14148   L 111.98867,143.46459   L 113.92787,143.78771   L 115.86707,144.43395  z "
     style="fill:#ffffff;fill-rule:evenodd;fill-opacity:1;stroke:none;" />
  <path
     id="path21"
     d="  M 272.78049,161.88235   L 271.32609,162.52858   L 270.03329,163.49794   L 268.5789,164.46729   L 267.4477,165.75977   L 266.1549,166.72912   L 264.8621,167.86004   L 263.4077,168.66783   L 261.9533,169.31407   L 260.49891,170.7681   L 259.20611,171.89902   L 257.91331,172.70681   L 256.62051,173.67617   L 255.16611,174.48397   L 254.03491,175.61488   L 252.74211,176.90735   L 251.61092,178.68451   L 250.96452,179.00762   L 250.15652,180.13854   L 249.02532,181.10789   L 247.73252,181.59257   L 249.67172,179.16918   L 251.77252,176.7458   L 253.55011,173.99929   L 255.32771,171.41434   L 256.78211,168.50627   L 258.39811,165.59821   L 259.85251,162.69014   L 261.4685,159.94364   L 262.7613,159.94364   L 264.2157,159.94364   L 265.6701,160.1052   L 267.1245,160.42831   L 268.4173,160.42831   L 269.87169,160.58987   L 271.32609,160.75143   L 272.78049,160.91299   L 272.78049,161.55923   L 272.78049,161.88235  z "
     style="fill:#ffffff;fill-rule:evenodd;fill-opacity:1;stroke:none;" />
  <path
     id="path23"
     d="  M 54.297539,182.56193   L 52.519941,181.91569   L 51.065542,181.43101   L 49.287944,181.10789   L 47.833546,180.78478   L 46.055948,180.3001   L 44.43995,179.97698   L 42.662352,179.4923   L 41.046354,179.16918   L 42.662352,177.23047   L 44.27835,175.61488   L 45.894348,173.83773   L 47.510346,172.22214   L 48.964745,170.44499   L 50.580743,168.66783   L 52.196741,166.89068   L 53.812739,165.11353   L 53.651139,167.05224   L 53.32794,168.99095   L 52.84314,171.09122   L 52.519941,173.35305   L 52.196741,175.61488   L 52.358341,177.87671   L 53.00474,180.13854   L 54.297539,182.56193  z "
     style="fill:#ffffff;fill-rule:evenodd;fill-opacity:1;stroke:none;" />
  <path
     id="path25"
     d="  M 56.075137,196.61758   L 55.913537,197.91005   L 55.913537,199.20253   L 55.913537,200.495   L 55.913537,201.78748   L 55.751937,202.75683   L 55.751937,204.04931   L 55.590337,205.18022   L 55.590337,206.47269   L 53.48954,205.98802   L 51.550342,205.98802   L 49.611144,205.98802   L 47.671946,205.98802   L 45.732748,205.82646   L 43.95515,205.34178   L 42.500752,204.53398   L 41.531153,203.24151   L 41.692753,202.27215   L 41.531153,201.46436   L 41.046354,200.65656   L 40.723154,199.84877   L 40.238355,198.87941   L 39.915155,197.91005   L 39.753555,196.9407   L 40.076755,196.1329   L 39.268756,195.00199   L 38.945556,194.03263   L 38.460757,192.90172   L 38.299157,191.7708   L 37.814357,190.47833   L 37.491158,189.34742   L 37.167958,188.2165   L 36.844758,187.24715   L 39.430355,188.05494   L 42.662352,188.37806   L 45.894348,188.53962   L 49.287944,188.86274   L 52.035141,189.34742   L 54.297539,190.80145   L 55.590337,192.90172   L 56.075137,196.61758  z "
     style="fill:#bfbfbf;fill-rule:evenodd;fill-opacity:1;stroke:none;" />
  <path
     id="path27"
     d="  M 79.66871,195.16355   L 78.537511,196.9407   L 77.729512,198.71785   L 77.083113,200.33344   L 76.759913,202.11059   L 76.275114,203.56463   L 76.113514,205.34178   L 75.951914,207.28049   L 75.951914,209.38076   L 74.335916,209.38076   L 72.881518,209.38076   L 71.265519,209.05764   L 69.811121,208.89608   L 68.195123,208.4114   L 66.740725,208.08829   L 65.286326,207.92673   L 64.155127,207.92673   L 63.670328,205.82646   L 63.670328,203.72619   L 63.508728,201.46436   L 63.347128,199.36409   L 62.700729,197.10226   L 62.05433,195.16355   L 60.923131,193.22484   L 59.468733,191.93236   L 62.05433,192.09392   L 64.639927,192.41704   L 67.225524,192.5786   L 69.811121,193.06328   L 72.235118,193.22484   L 74.820715,193.70951   L 77.244713,194.19419   L 79.66871,195.16355  z "
     style="fill:#bfbfbf;fill-rule:evenodd;fill-opacity:1;stroke:none;" />
  <path
     id="path29"
     d="  M 454.58029,193.87107   L 455.38829,205.6649   L 455.87308,217.62028   L 455.71148,229.25254   L 455.22669,240.88481   L 453.77229,252.0324   L 451.83309,263.34154   L 448.92429,274.32757   L 445.5307,285.15204   L 443.5915,287.57543   L 441.9755,290.16037   L 440.3595,292.90688   L 439.0667,295.65339   L 437.61231,298.23834   L 436.31951,300.82328   L 435.02671,303.24667   L 433.73391,305.83162   L 431.95631,308.73968   L 430.17871,311.48619   L 428.40112,314.07114   L 426.62352,316.65609   L 424.68432,318.91792   L 422.90672,321.50286   L 421.12912,323.92625   L 419.67473,326.99588   L 419.18993,326.99588   L 418.70513,326.99588   L 417.41233,328.93459   L 415.79633,330.8733   L 413.69553,332.65045   L 411.75633,334.4276   L 409.97874,336.04319   L 409.17074,338.14346   L 409.17074,340.24373   L 410.78674,342.99024   L 411.91793,343.47492   L 413.21073,344.12116   L 414.34193,344.44427   L 415.63473,344.92895   L 416.76593,345.25207   L 418.05873,345.57519   L 419.18993,345.89831   L 420.64432,346.38299   L 422.90672,348.16014   L 425.65392,349.93729   L 428.56272,351.55288   L 431.47151,353.33003   L 433.73391,355.10718   L 435.51151,357.53057   L 435.99631,360.43864   L 435.18831,364.31606   L 434.21871,365.77009   L 433.57231,367.54724   L 432.92591,369.00128   L 432.27951,370.77843   L 431.47151,372.23246   L 430.66351,373.84805   L 429.53231,375.14053   L 428.56272,376.433   L 427.91632,377.72548   L 427.43152,379.17951   L 426.78512,380.63354   L 426.13872,382.08757   L 425.33072,383.38005   L 424.68432,384.67252   L 424.03792,385.965   L 423.39152,387.25747   L 422.09872,388.06527   L 421.29072,389.03462   L 420.80592,390.00398   L 420.64432,390.97333   L 420.32112,391.94269   L 419.99793,393.0736   L 419.51313,394.20452   L 418.70513,395.33543   L 417.57393,398.08194   L 416.92753,401.15156   L 416.28113,404.22119   L 416.11953,407.61393   L 415.95793,410.84512   L 416.11953,414.0763   L 416.60433,417.30749   L 417.73553,420.70023   L 418.22033,422.63894   L 419.18993,424.57765   L 419.99793,426.67792   L 420.96752,428.93975   L 421.29072,431.04002   L 421.45232,433.30185   L 420.80592,435.40212   L 419.67473,437.66395   L 418.86673,438.6333   L 418.05873,439.60266   L 417.08913,440.57202   L 416.44273,441.54137   L 415.63473,442.51073   L 415.47313,443.64164   L 415.47313,444.77255   L 415.95793,446.22659   L 416.28113,447.19594   L 417.25073,448.32686   L 418.22033,449.13465   L 419.67473,449.45777   L 421.45232,448.32686   L 423.22992,447.03438   L 424.68432,445.41879   L 426.30032,443.96476   L 427.26992,442.18761   L 428.40112,440.41046   L 429.20911,438.47175   L 430.01711,436.69459   L 430.01711,435.56368   L 430.17871,434.59432   L 430.01711,433.62497   L 429.85551,432.65561   L 429.20911,430.87846   L 429.04751,429.26287   L 429.53231,430.23222   L 430.34031,431.20158   L 431.14831,432.33249   L 432.11791,433.62497   L 432.76431,434.91744   L 433.41071,436.53303   L 433.57231,438.14863   L 433.41071,440.08734   L 431.63311,442.83384   L 429.37071,445.41879   L 426.78512,447.84218   L 424.03792,450.26557   L 420.96752,452.20428   L 417.89713,454.30455   L 414.82673,456.0817   L 412.07953,457.85885   L 410.14034,457.37417   L 408.20114,456.8895   L 406.26194,456.40482   L 404.32274,455.92014   L 402.38355,455.2739   L 400.76755,454.62767   L 398.98995,453.65831   L 397.53555,452.68896   L 397.21235,451.39648   L 397.05075,450.26557   L 397.05075,449.13465   L 397.05075,448.1653   L 397.05075,446.87282   L 397.05075,445.74191   L 397.21235,444.44944   L 397.53555,443.31852   L 398.50515,444.12632   L 399.63635,445.09567   L 400.76755,446.06503   L 402.06035,447.03438   L 403.19154,447.51906   L 404.48434,448.00374   L 405.93874,447.84218   L 407.39314,447.51906   L 408.20114,446.38815   L 409.17074,445.25723   L 409.81714,443.96476   L 410.62514,442.67229   L 410.94834,441.21825   L 411.43313,439.76422   L 411.59473,438.31019   L 411.75633,437.17927   L 410.62514,436.20992   L 409.49394,435.72524   L 408.20114,435.079   L 407.23154,434.59432   L 405.93874,433.94809   L 405.13074,433.30185   L 404.32274,432.17094   L 404.16114,431.04002   L 404.48434,426.67792   L 404.64594,422.47738   L 404.48434,418.11528   L 404.32274,414.0763   L 403.67634,409.7142   L 402.86834,405.83678   L 401.73715,401.7978   L 400.44435,398.08194   L 399.15155,395.65855   L 397.85875,393.39672   L 396.24275,390.97333   L 394.78835,388.87306   L 393.01076,386.61123   L 391.55636,384.3494   L 389.94036,382.08757   L 388.64756,379.82575   L 387.03156,379.01795   L 385.90036,378.21015   L 385.09236,377.07924   L 384.60757,376.10988   L 383.79957,374.97897   L 382.99157,374.17117   L 381.86037,373.36338   L 380.56757,373.20182   L 379.59797,371.58622   L 378.62837,369.97063   L 377.65877,368.35504   L 376.85077,366.90101   L 375.71958,365.28541   L 374.74998,363.83138   L 373.61878,362.37735   L 372.64918,360.92332   L 372.64918,358.9846   L 372.64918,357.04589   L 372.64918,355.10718   L 372.81078,353.16847   L 372.81078,351.22976   L 373.29558,349.61417   L 373.78038,347.83702   L 374.91158,346.38299   L 377.98197,344.44427   L 381.05237,342.66712   L 384.12277,340.72841   L 387.35476,338.95126   L 390.42516,337.01255   L 393.81875,335.55852   L 397.21235,334.26604   L 400.92915,333.61981   L 401.41395,331.6811   L 401.25235,330.22706   L 400.28275,328.77303   L 399.15155,327.80367   L 397.69715,326.67276   L 396.24275,325.54184   L 394.78835,324.41093   L 393.81875,323.28002   L 381.21397,319.40259   L 368.60918,315.68673   L 355.5196,311.97087   L 342.43001,308.25501   L 329.01723,304.53914   L 315.60444,300.98484   L 302.35326,297.43054   L 289.26367,294.0378   L 281.02208,291.93753   L 272.94209,289.99881   L 264.8621,288.22166   L 256.78211,286.60607   L 248.54052,284.82892   L 240.46053,283.05177   L 232.54214,280.9515   L 224.78535,279.01279   L 218.32135,277.88187   L 212.34216,276.91252   L 206.52457,275.7816   L 200.70697,274.81225   L 194.72778,273.51977   L 188.74859,272.38886   L 182.76939,271.4195   L 176.6286,270.61171   L 174.043,270.45015   L 171.61901,270.28859   L 169.19501,269.80391   L 166.77101,269.48079   L 164.34701,268.83456   L 161.92302,268.34988   L 159.66062,267.8652   L 157.39822,267.70364   L 155.78222,266.73429   L 154.16623,266.24961   L 152.38863,266.08805   L 150.77263,265.92649   L 144.30864,264.3109   L 138.00624,263.01842   L 131.70385,261.72595   L 125.40146,260.59503   L 119.09907,259.30256   L 112.95827,258.17165   L 106.97908,256.71761   L 101.32309,255.42514   L 98.252689,254.94046   L 95.182292,254.45578   L 92.111896,253.80955   L 89.203099,253.32487   L 85.971103,252.67863   L 82.739106,252.19396   L 79.50711,251.87084   L 76.436714,251.70928   L 74.982315,252.35551   L 73.527917,253.00175   L 72.073519,253.16331   L 70.61912,253.32487   L 69.164722,253.32487   L 67.871923,253.48643   L 66.417525,253.80955   L 65.124726,254.61734   L 64.155127,255.42514   L 63.347128,256.3945   L 62.539129,257.36385   L 61.73113,258.33321   L 61.084731,259.30256   L 60.923131,260.27192   L 61.407931,261.24127   L 62.700729,262.53375   L 63.508728,267.8652   L 64.478327,273.35821   L 65.124726,278.85123   L 65.771126,284.34424   L 65.771126,289.6757   L 65.771126,295.00715   L 65.286326,300.33861   L 64.639927,305.83162   L 64.478327,306.80097   L 64.316727,308.09345   L 64.155127,309.22436   L 63.993528,310.51684   L 63.670328,311.80931   L 63.347128,313.10178   L 63.023929,314.39426   L 62.700729,315.68673   L 59.630333,306.47786   L 56.398336,297.75366   L 52.68154,289.02946   L 48.964745,280.62838   L 44.924749,271.90418   L 40.723154,263.5031   L 36.359959,254.94046   L 32.158364,246.53938   L 32.319963,245.89315   L 31.996764,245.57003   L 31.350365,245.24691   L 31.188765,245.08535   L 30.703965,243.95443   L 30.380766,242.98508   L 29.734366,241.85416   L 29.249567,240.88481   L 32.643163,240.72325   L 36.036759,240.88481   L 39.107156,241.04637   L 42.339152,241.53105   L 45.247949,241.85416   L 48.479945,242.17728   L 51.711942,242.17728   L 55.267138,242.33884   L 55.267138,243.14664   L 55.590337,243.79288   L 55.751937,243.14664   L 56.075137,242.33884   L 62.377529,241.85416   L 69.003122,241.85416   L 75.628715,242.01572   L 82.254307,242.5004   L 88.7183,242.98508   L 95.182292,243.46976   L 101.32309,243.79288   L 107.46388,244.27755   L 120.39186,245.73159   L 133.31985,247.18562   L 145.92464,248.63965   L 158.52942,250.25524   L 170.97261,251.87084   L 183.57739,253.97111   L 196.02058,256.3945   L 208.78696,259.30256   L 215.73576,260.27192   L 222.84615,261.88751   L 229.79494,263.66466   L 236.74373,265.60337   L 243.53092,267.54208   L 250.47972,269.48079   L 257.26691,271.09638   L 264.2157,272.87354   L 277.30529,276.75096   L 290.71807,280.62838   L 304.13086,284.18268   L 317.54364,287.89854   L 330.79483,291.61441   L 343.88441,295.65339   L 356.6508,300.01549   L 369.25558,304.86226   L 375.23478,306.47786   L 381.37557,308.25501   L 387.19316,309.8706   L 393.17236,311.64775   L 398.98995,313.10178   L 404.96914,314.55582   L 410.94834,315.84829   L 417.25073,317.14076   L 418.54353,317.14076   L 419.83633,316.81765   L 420.96752,316.17141   L 422.09872,315.36361   L 421.77552,312.45555   L 420.96752,310.19372   L 419.67473,308.09345   L 418.38193,306.15474   L 416.60433,304.21603   L 414.82673,302.43888   L 412.88753,300.66172   L 411.27154,298.88457   L 409.33234,299.53081   L 407.39314,299.69237   L 405.61554,299.36925   L 403.83794,299.04613   L 401.89875,298.23834   L 399.95955,297.75366   L 398.02035,297.10742   L 396.08115,296.94586   L 387.83956,294.84559   L 379.75957,292.90688   L 371.67958,290.80661   L 363.76119,288.54478   L 355.6812,285.95983   L 347.60121,283.37489   L 339.52122,280.62838   L 331.60283,278.04343   L 329.66363,277.55875   L 327.72443,277.07408   L 325.94683,276.5894   L 324.33083,276.26628   L 322.39164,275.7816   L 320.61404,275.29692   L 318.83644,274.48913   L 317.05884,273.84289   L 310.43325,272.38886   L 303.80766,271.09638   L 297.02046,269.31923   L 290.39487,267.70364   L 283.60768,265.60337   L 276.98209,263.66466   L 270.35649,261.72595   L 264.2157,259.78724   L 256.29731,258.49476   L 248.54052,256.87917   L 240.94533,254.94046   L 233.67334,253.16331   L 226.07814,251.2246   L 218.48295,249.44745   L 210.72616,247.99342   L 203.13097,247.02406   L 192.95018,245.08535   L 182.93099,243.3082   L 172.9118,241.69261   L 162.89262,240.40013   L 152.71183,238.9461   L 142.69264,237.81518   L 132.67345,236.84583   L 122.97746,236.19959   L 117.15987,235.71491   L 111.50387,235.23024   L 105.84788,234.42244   L 100.35349,233.61464   L 94.535893,232.48373   L 89.203099,231.51437   L 83.708705,230.38346   L 78.699111,229.57566   L 74.982315,228.76787   L 71.427119,228.44475   L 67.710323,228.44475   L 63.993528,228.44475   L 60.115132,228.28319   L 56.236736,228.28319   L 52.358341,228.12163   L 48.641545,227.79851   L 45.571148,227.63695   L 42.339152,227.31383   L 39.107156,226.82916   L 35.875159,226.50604   L 32.481563,225.8598   L 29.087967,225.21356   L 25.855971,224.56733   L 23.108774,223.92109   L 24.078373,222.95173   L 25.209572,222.14394   L 26.17917,221.17458   L 27.310369,220.36679   L 28.441568,219.39743   L 29.572767,218.58964   L 30.703965,217.78184   L 32.158364,217.29716   L 32.319963,218.42808   L 32.804763,219.55899   L 33.127963,220.68991   L 33.774362,221.82082   L 34.259161,222.79018   L 34.905561,223.75953   L 35.71356,224.72889   L 36.844758,225.8598   L 38.137557,226.02136   L 39.591955,226.02136   L 40.884754,225.8598   L 42.339152,225.69824   L 43.470351,225.21356   L 44.763149,224.89045   L 45.894348,224.40577   L 47.187147,223.92109   L 51.550342,224.24421   L 56.398336,224.40577   L 61.56953,224.08265   L 67.063924,223.92109   L 72.558318,223.43641   L 78.052712,223.27485   L 83.223906,223.27485   L 88.5567,223.92109   L 91.303897,224.24421   L 94.374293,224.72889   L 97.60629,225.21356   L 100.99989,225.69824   L 104.23188,225.8598   L 107.62548,226.18292   L 111.01907,226.50604   L 114.57427,226.82916   L 115.54387,227.47539   L 116.67507,227.79851   L 117.64467,227.63695   L 118.93747,227.47539   L 120.06866,227.15227   L 121.36146,226.99072   L 122.65426,227.15227   L 123.94706,227.79851   L 135.58225,229.4141   L 147.54063,231.19126   L 159.49902,233.12997   L 171.61901,235.06868   L 183.57739,237.00739   L 195.69738,239.10766   L 207.65577,241.20793   L 219.61415,243.79288   L 220.09895,244.76223   L 221.06855,245.24691   L 222.03815,245.24691   L 223.16935,245.40847   L 224.13895,245.08535   L 225.27015,244.92379   L 226.40134,244.92379   L 227.53254,245.57003   L 229.31014,246.0547   L 231.24934,246.53938   L 233.35014,246.8625   L 235.61253,247.34718   L 237.55173,247.83186   L 239.49093,248.80121   L 241.26853,249.93213   L 243.04613,251.70928   L 244.01572,250.90148   L 244.98532,250.57836   L 245.95492,250.25524   L 247.08612,250.4168   L 248.05572,250.4168   L 249.02532,250.90148   L 249.99492,251.2246   L 251.12612,251.70928   L 262.9229,254.7789   L 274.71969,257.84853   L 286.35488,260.91815   L 297.99006,264.14934   L 309.30205,267.0574   L 320.93724,269.96547   L 332.57242,272.55042   L 344.85401,275.29692   L 346.14681,275.94316   L 347.43961,276.5894   L 348.73241,276.91252   L 350.1868,277.23564   L 351.4796,277.39719   L 352.934,277.55875   L 354.3884,277.55875   L 356.166,278.04343   L 362.46839,279.33591   L 369.09398,280.78994   L 375.39638,282.08241   L 382.02197,283.37489   L 388.32436,284.66736   L 394.78835,286.28295   L 401.09075,288.0601   L 407.39314,290.32193   L 408.84754,290.16037   L 410.62514,290.16037   L 412.24113,290.16037   L 414.01873,290.16037   L 415.31153,289.6757   L 416.60433,289.02946   L 417.73553,287.73699   L 418.70513,286.12139   L 419.35153,283.85956   L 420.32112,281.92085   L 421.29072,279.98214   L 422.74512,278.20499   L 423.87632,276.26628   L 425.33072,274.48913   L 426.78512,272.71198   L 428.23952,271.09638   L 428.72432,269.15767   L 429.37071,267.54208   L 430.01711,265.76493   L 430.98671,264.14934   L 431.63311,262.37219   L 432.44111,260.75659   L 433.08751,258.97944   L 433.73391,257.36385   L 435.02671,253.16331   L 436.31951,249.12433   L 437.45071,245.24691   L 438.7435,241.53105   L 439.7131,237.65362   L 440.6827,233.93776   L 441.6523,230.2219   L 442.7835,226.82916   L 442.1371,225.37512   L 442.4603,224.08265   L 442.9451,222.62862   L 442.7835,221.65926   L 442.7835,220.04367   L 443.1067,218.58964   L 443.2683,216.81248   L 443.7531,215.03533   L 444.0763,212.93506   L 444.5611,210.99635   L 445.0459,209.05764   L 445.5307,207.44205   L 445.5307,205.82646   L 445.6923,204.21086   L 446.0155,202.43371   L 446.5003,200.65656   L 446.98509,198.71785   L 447.95469,196.9407   L 448.76269,195.16355   L 449.89389,193.87107   L 450.86349,193.87107   L 451.99469,194.03263   L 453.12589,193.87107   L 454.58029,193.87107  z "
     style="fill:#808000;fill-rule:evenodd;fill-opacity:1;stroke:none;" />
  <path
     id="path31"
     d="  M 95.667092,204.21086   L 95.182292,205.01866   L 95.020693,205.98802   L 94.697493,206.95737   L 94.697493,208.08829   L 94.535893,209.2192   L 94.374293,210.35011   L 94.212693,211.48103   L 94.212693,212.61194   L 92.596695,212.45038   L 90.980697,212.28883   L 89.526299,211.96571   L 88.0719,211.64259   L 86.455902,211.15791   L 85.001504,210.99635   L 83.547106,210.83479   L 82.092707,210.83479   L 82.577507,208.89608   L 83.385506,207.11893   L 84.031905,205.18022   L 84.839904,203.40307   L 85.324704,201.46436   L 85.809503,199.52565   L 85.647903,197.58694   L 85.324704,195.64823   L 86.940702,196.29446   L 89.041499,196.77914   L 91.303897,196.9407   L 93.727894,197.42538   L 95.343892,198.07161   L 96.636691,199.20253   L 96.798291,201.14124   L 95.667092,204.21086  z "
     style="fill:#bfbfbf;fill-rule:evenodd;fill-opacity:1;stroke:none;" />
  <path
     id="path33"
     d="  M 113.60467,215.52001   L 112.15027,214.87377   L 110.69587,214.55065   L 109.24148,214.55065   L 107.94868,214.55065   L 106.49428,214.3891   L 105.03988,214.3891   L 103.58548,214.06598   L 102.29268,213.5813   L 101.96948,211.96571   L 101.64629,210.35011   L 101.32309,208.57296   L 101.16149,206.95737   L 100.83829,205.01866   L 100.83829,203.24151   L 100.83829,201.46436   L 101.32309,200.01032   L 102.93908,200.17188   L 104.55508,200.65656   L 106.17108,200.97968   L 107.94868,201.46436   L 109.40308,201.78748   L 111.01907,202.27215   L 112.63507,202.75683   L 114.57427,203.24151   L 114.25107,204.37242   L 114.08947,205.82646   L 114.08947,207.28049   L 114.08947,208.89608   L 113.92787,210.51167   L 113.76627,212.12727   L 113.60467,213.74286   L 113.60467,215.52001  z "
     style="fill:#bfbfbf;fill-rule:evenodd;fill-opacity:1;stroke:none;" />
  <path
     id="path35"
     d="  M 135.25905,205.98802   L 135.42065,207.44205   L 135.74385,208.89608   L 135.90545,210.35011   L 136.06705,211.96571   L 136.06705,213.41974   L 136.06705,215.03533   L 136.06705,216.65092   L 136.22865,218.26652   L 133.96625,218.10496   L 132.02705,217.9434   L 130.08785,217.62028   L 128.14866,217.45872   L 126.20946,216.97404   L 124.43186,216.81248   L 122.49266,216.48937   L 120.71506,216.48937   L 120.39186,214.55065   L 120.39186,213.09662   L 120.39186,211.64259   L 120.39186,210.18856   L 120.23026,208.73452   L 120.06866,207.28049   L 119.90706,205.6649   L 119.74546,204.21086   L 121.68466,204.53398   L 123.62386,204.8571   L 125.56306,204.8571   L 127.66386,205.01866   L 129.44145,205.01866   L 131.38065,205.18022   L 133.31985,205.50334   L 135.25905,205.98802  z "
     style="fill:#bfbfbf;fill-rule:evenodd;fill-opacity:1;stroke:none;" />
  <path
     id="path37"
     d="  M 159.82222,210.35011   L 159.33742,211.80415   L 159.17582,213.41974   L 159.01422,215.03533   L 159.01422,216.65092   L 158.85262,218.10496   L 158.85262,219.55899   L 158.85262,221.01302   L 158.85262,222.95173   L 156.91342,222.46706   L 155.13582,222.14394   L 153.19663,221.65926   L 151.41903,221.33614   L 149.47983,220.68991   L 147.54063,220.20523   L 145.60144,219.72055   L 143.66224,219.72055   L 143.17744,217.9434   L 142.69264,216.32781   L 142.20784,214.71221   L 141.88464,213.09662   L 141.39984,211.31947   L 141.23824,209.70388   L 140.91504,207.92673   L 140.91504,206.47269   L 142.85424,206.47269   L 145.11664,206.95737   L 147.37903,207.44205   L 149.80303,207.92673   L 152.22703,208.4114   L 154.65103,209.05764   L 157.23662,209.70388   L 159.82222,210.35011  z "
     style="fill:#bfbfbf;fill-rule:evenodd;fill-opacity:1;stroke:none;" />
  <path
     id="path39"
     d="  M 182.28459,215.52001   L 181.96139,216.81248   L 181.96139,218.26652   L 181.96139,219.55899   L 181.96139,221.01302   L 181.79979,222.3055   L 181.79979,223.59797   L 181.63819,224.89045   L 181.47659,226.34448   L 179.8606,226.02136   L 178.2446,225.8598   L 176.3054,225.69824   L 174.3662,225.53668   L 172.26541,225.21356   L 170.32621,224.89045   L 168.38701,224.56733   L 166.77101,224.40577   L 166.12461,222.62862   L 166.12461,221.01302   L 165.96301,219.23587   L 166.12461,217.62028   L 165.96301,215.84313   L 165.96301,214.3891   L 165.47821,212.7735   L 164.99341,211.64259   L 166.93261,211.80415   L 169.03341,212.28883   L 171.13421,212.7735   L 173.3966,213.5813   L 175.4974,214.06598   L 177.7598,214.71221   L 179.8606,215.03533   L 182.28459,215.52001  z "
     style="fill:#bfbfbf;fill-rule:evenodd;fill-opacity:1;stroke:none;" />
  <path
     id="path41"
     d="  M 204.90857,221.17458   L 204.90857,222.46706   L 205.07017,223.75953   L 204.90857,225.052   L 204.90857,226.50604   L 204.58537,227.63695   L 204.58537,228.76787   L 204.58537,229.57566   L 204.90857,230.54502   L 202.64617,230.06034   L 200.70697,229.73722   L 198.76778,229.4141   L 196.99018,229.09099   L 195.05098,228.60631   L 193.27338,228.28319   L 191.49578,227.96007   L 189.87979,227.79851   L 189.55659,226.34448   L 189.39499,225.21356   L 189.23339,223.75953   L 189.07179,222.62862   L 188.74859,221.33614   L 188.74859,220.04367   L 188.42539,218.58964   L 188.42539,217.29716   L 190.36458,217.62028   L 192.78858,217.9434   L 195.05098,218.26652   L 197.31338,218.75119   L 199.25257,219.07431   L 201.35337,219.55899   L 203.13097,220.20523   L 204.90857,221.17458  z "
     style="fill:#bfbfbf;fill-rule:evenodd;fill-opacity:1;stroke:none;" />
  <path
     id="path43"
     d="  M 219.12935,222.46706   L 219.12935,223.75953   L 219.12935,225.21356   L 219.12935,226.50604   L 219.29095,227.79851   L 219.12935,229.09099   L 218.96775,230.38346   L 218.64455,231.83749   L 218.15975,233.29153   L 215.25096,233.45308   L 213.47336,232.64529   L 212.34216,231.19126   L 211.85736,229.4141   L 211.37256,227.15227   L 211.21096,225.052   L 211.04936,222.79018   L 210.56456,221.17458   L 211.53416,221.17458   L 212.66536,221.4977   L 213.63496,221.4977   L 214.76616,221.82082   L 215.73576,221.82082   L 216.86695,222.14394   L 217.99815,222.14394   L 219.12935,222.46706  z "
     style="fill:#bfbfbf;fill-rule:evenodd;fill-opacity:1;stroke:none;" />
  <path
     id="path45"
     d="  M 238.84453,226.82916   L 238.84453,228.12163   L 238.84453,229.57566   L 238.84453,230.70658   L 238.84453,231.99905   L 238.68293,233.12997   L 238.52133,234.42244   L 238.52133,235.87647   L 238.84453,237.65362   L 237.22853,237.33051   L 235.61253,237.00739   L 233.99654,236.68427   L 232.38054,236.52271   L 230.60294,236.19959   L 228.98694,235.87647   L 227.20934,235.55335   L 225.59334,235.23024   L 225.59334,233.7762   L 225.59334,232.32217   L 225.59334,231.0297   L 225.59334,229.73722   L 225.27015,228.28319   L 225.10855,226.82916   L 224.94695,225.37512   L 224.78535,223.92109   L 226.40134,224.08265   L 228.17894,224.40577   L 229.95654,224.72889   L 231.73414,225.052   L 233.35014,225.37512   L 235.28933,225.69824   L 236.90533,226.18292   L 238.84453,226.82916  z "
     style="fill:#bfbfbf;fill-rule:evenodd;fill-opacity:1;stroke:none;" />
  <path
     id="path47"
     d="  M 260.49891,238.1383   L 260.17571,238.9461   L 260.01411,240.23857   L 260.01411,241.53105   L 260.49891,242.82352   L 258.55971,242.01572   L 256.62051,241.53105   L 254.68131,241.36949   L 252.74211,241.20793   L 250.80292,240.72325   L 249.02532,240.23857   L 247.40932,239.10766   L 246.43972,237.65362   L 246.27812,236.19959   L 246.11652,235.06868   L 245.79332,233.93776   L 245.47012,232.80685   L 244.98532,231.51437   L 244.66212,230.2219   L 244.50052,228.92943   L 244.50052,227.79851   L 246.92452,228.60631   L 250.15652,228.92943   L 253.55011,229.09099   L 257.10531,229.57566   L 259.69091,230.2219   L 261.4685,231.67593   L 261.7917,234.09932   L 260.49891,238.1383  z "
     style="fill:#bfbfbf;fill-rule:evenodd;fill-opacity:1;stroke:none;" />
  <path
     id="path49"
     d="  M 283.12288,236.19959   L 283.12288,237.65362   L 283.28448,239.10766   L 283.12288,240.56169   L 283.12288,242.01572   L 282.79968,243.46976   L 282.79968,244.92379   L 282.79968,246.37782   L 283.12288,247.99342   L 281.02208,247.50874   L 279.08288,247.18562   L 277.14369,246.70094   L 275.52769,246.21626   L 273.75009,245.57003   L 272.13409,245.08535   L 270.35649,244.76223   L 268.5789,244.60067   L 267.9325,243.14664   L 267.7709,241.85416   L 267.4477,240.23857   L 267.4477,238.62298   L 267.1245,236.68427   L 266.8013,235.06868   L 266.1549,233.29153   L 265.6701,231.99905   L 267.9325,232.48373   L 270.19489,232.96841   L 272.45729,233.45308   L 274.71969,233.93776   L 276.65889,234.42244   L 278.75968,235.06868   L 280.86048,235.55335   L 283.12288,236.19959  z "
     style="fill:#bfbfbf;fill-rule:evenodd;fill-opacity:1;stroke:none;" />
  <path
     id="path51"
     d="  M 304.77726,238.9461   L 304.29246,240.72325   L 304.13086,242.66196   L 303.80766,244.27755   L 303.80766,245.89315   L 303.48446,247.34718   L 303.32286,248.96277   L 302.99966,250.73992   L 302.83806,252.67863   L 301.22206,252.35551   L 299.60606,252.0324   L 298.15166,251.54772   L 296.69726,251.2246   L 295.24287,250.73992   L 293.95007,250.25524   L 292.49567,249.77057   L 291.20287,249.44745   L 290.87967,247.6703   L 290.55647,246.21626   L 290.23327,244.60067   L 290.07167,243.14664   L 289.58687,241.53105   L 289.10207,240.07701   L 288.61727,238.62298   L 288.29407,237.16895   L 290.23327,237.33051   L 292.17247,237.65362   L 294.11167,237.97674   L 296.21247,238.29986   L 298.31326,238.46142   L 300.41406,238.62298   L 302.51486,238.78454   L 304.77726,238.9461  z "
     style="fill:#bfbfbf;fill-rule:evenodd;fill-opacity:1;stroke:none;" />
  <path
     id="path53"
     d="  M 330.14843,242.33884   L 329.82523,244.43911   L 329.66363,246.53938   L 329.50203,248.47809   L 329.34043,250.57836   L 328.85563,252.51707   L 328.53243,254.45578   L 328.04763,256.3945   L 327.40123,258.33321   L 325.46203,257.52541   L 323.84603,257.20229   L 321.90684,256.71761   L 320.29084,256.55605   L 318.35164,256.07138   L 316.57404,255.74826   L 314.63484,255.10202   L 312.85725,254.61734   L 312.04925,252.84019   L 311.56445,251.06304   L 311.07965,249.12433   L 310.75645,247.34718   L 310.27165,245.40847   L 310.11005,243.46976   L 309.62525,241.53105   L 309.46365,239.91545   L 312.04925,239.91545   L 314.63484,240.23857   L 317.22044,240.40013   L 319.96764,240.88481   L 322.55324,241.20793   L 325.13883,241.53105   L 327.56283,241.85416   L 330.14843,242.33884  z "
     style="fill:#bfbfbf;fill-rule:evenodd;fill-opacity:1;stroke:none;" />
  <path
     id="path55"
     d="  M 347.60121,244.60067   L 347.43961,246.53938   L 347.27801,248.80121   L 346.79321,250.90148   L 346.47001,253.16331   L 345.82361,255.26358   L 345.33881,257.36385   L 345.17721,259.46412   L 345.33881,261.56439   L 344.36921,261.40283   L 343.56121,261.24127   L 342.75321,261.07971   L 341.94521,261.07971   L 340.16762,260.75659   L 338.71322,260.75659   L 338.22842,258.17165   L 337.90522,255.90982   L 337.42042,253.64799   L 337.09722,251.54772   L 336.61242,249.28589   L 336.12762,247.18562   L 335.64282,244.92379   L 335.31962,242.82352   L 336.77402,242.82352   L 338.39002,242.98508   L 339.84442,243.14664   L 341.46041,243.63132   L 342.91481,243.95443   L 344.36921,244.27755   L 345.98521,244.43911   L 347.60121,244.60067  z "
     style="fill:#bfbfbf;fill-rule:evenodd;fill-opacity:1;stroke:none;" />
  <path
     id="path57"
     d="  M 367.47798,247.99342   L 366.99319,249.60901   L 366.66999,251.54772   L 366.18519,253.48643   L 365.70039,255.42514   L 365.05399,257.20229   L 364.56919,259.141   L 363.76119,261.07971   L 363.11479,263.01842   L 363.11479,263.66466   L 363.11479,264.47246   L 362.62999,264.95713   L 362.30679,265.92649   L 358.91319,265.44181   L 356.8124,264.3109   L 355.5196,262.53375   L 355.0348,260.27192   L 354.55,257.52541   L 354.3884,254.94046   L 353.742,252.35551   L 352.7724,250.25524   L 352.4492,248.96277   L 352.6108,247.83186   L 352.6108,246.70094   L 352.2876,245.57003   L 354.0652,245.89315   L 356.0044,246.21626   L 357.9436,246.53938   L 359.88279,246.8625   L 361.66039,247.02406   L 363.59959,247.34718   L 365.53879,247.6703   L 367.47798,247.99342  z "
     style="fill:#bfbfbf;fill-rule:evenodd;fill-opacity:1;stroke:none;" />
  <path
     id="path59"
     d="  M 383.47637,251.2246   L 383.31477,252.51707   L 382.99157,253.97111   L 382.50677,255.42514   L 382.02197,256.87917   L 381.37557,258.17165   L 380.89077,259.62568   L 380.40597,261.07971   L 380.08277,262.53375   L 379.92117,263.5031   L 379.75957,264.47246   L 379.43637,265.28025   L 379.11317,266.08805   L 378.46677,267.54208   L 378.30517,269.15767   L 375.71958,269.31923   L 374.26518,268.673   L 373.45718,267.54208   L 373.29558,265.92649   L 373.13398,263.98778   L 373.13398,262.04907   L 372.97238,260.43348   L 372.64918,259.30256   L 372.32598,257.84853   L 372.32598,256.3945   L 372.32598,255.10202   L 372.32598,254.13267   L 372.16438,252.84019   L 372.16438,251.70928   L 372.16438,250.57836   L 372.16438,249.44745   L 373.45718,249.44745   L 374.91158,249.60901   L 376.20437,249.77057   L 377.65877,250.09369   L 379.11317,250.25524   L 380.56757,250.57836   L 382.02197,250.90148   L 383.47637,251.2246  z "
     style="fill:#bfbfbf;fill-rule:evenodd;fill-opacity:1;stroke:none;" />
  <path
     id="path61"
     d="  M 400.92915,253.64799   L 401.57555,255.5867   L 401.73715,257.52541   L 401.57555,259.46412   L 401.41395,261.56439   L 400.92915,263.34154   L 400.60595,265.28025   L 400.44435,267.21896   L 400.92915,269.15767   L 400.92915,269.64235   L 400.92915,270.77327   L 400.92915,271.90418   L 400.92915,272.87354   L 398.98995,272.38886   L 397.21235,272.2273   L 395.27315,271.90418   L 393.49556,271.74262   L 391.55636,271.4195   L 389.61716,271.25794   L 387.83956,270.93483   L 386.22356,270.61171   L 387.03156,268.18832   L 387.67796,265.92649   L 388.16276,263.66466   L 388.64756,261.56439   L 388.80916,259.30256   L 389.13236,257.04073   L 389.45556,254.7789   L 389.94036,252.67863   L 391.23316,252.84019   L 392.68756,253.00175   L 393.98035,253.16331   L 395.43475,253.32487   L 396.72755,253.32487   L 398.02035,253.32487   L 399.47475,253.32487   L 400.92915,253.64799  z "
     style="fill:#bfbfbf;fill-rule:evenodd;fill-opacity:1;stroke:none;" />
  <path
     id="path63"
     d="  M 82.092707,327.96523   L 80.961508,330.38862   L 79.66871,332.65045   L 77.729512,334.4276   L 75.790314,336.36631   L 73.366317,337.82035   L 71.10392,339.43594   L 68.679922,340.72841   L 66.579125,342.18245   L 65.124726,342.18245   L 63.993528,342.18245   L 62.539129,342.18245   L 61.407931,342.344   L 60.115132,342.18245   L 58.822334,342.18245   L 57.367935,342.02089   L 56.075137,341.69777   L 56.721536,340.24373   L 57.529535,338.7897   L 58.014334,337.33567   L 58.014334,336.04319   L 58.983933,336.52787   L 59.953532,337.33567   L 60.761531,337.98191   L 61.73113,338.62814   L 62.700729,338.95126   L 63.670328,339.43594   L 64.639927,339.5975   L 66.094325,339.75906   L 66.902324,339.11282   L 67.710323,338.46658   L 68.356723,337.49723   L 69.003122,336.68943   L 69.487921,335.39696   L 69.972721,334.4276   L 70.295921,333.13513   L 70.78072,332.16577   L 71.588719,331.35798   L 72.558318,330.55018   L 73.689517,329.58083   L 74.820715,328.61147   L 75.790314,327.48056   L 76.759913,326.5112   L 77.567912,325.38029   L 78.214312,324.24937   L 79.18391,324.73405   L 80.315109,325.7034   L 81.123108,326.67276   L 82.092707,327.96523  z "
     style="fill:#454500;fill-rule:evenodd;fill-opacity:1;stroke:none;" />
</svg>
