<?xml version="1.0" encoding="UTF-8" standalone="no"?>
<svg
   xmlns:dc="http://purl.org/dc/elements/1.1/"
   xmlns:cc="http://creativecommons.org/ns#"
   xmlns:rdf="http://www.w3.org/1999/02/22-rdf-syntax-ns#"
   xmlns:svg="http://www.w3.org/2000/svg"
   xmlns="http://www.w3.org/2000/svg"
   id="svg87"
   height="116.94059mm"
   width="129.80825mm"
   version="1.0">
  <metadata
     id="metadata91">
    <rdf:RDF>
      <cc:Work
         rdf:about="">
        <dc:format>image/svg+xml</dc:format>
        <dc:type
           rdf:resource="http://purl.org/dc/dcmitype/StillImage" />
      </cc:Work>
    </rdf:RDF>
  </metadata>
  <defs
     id="defs3">
    <pattern
       y="0"
       x="0"
       height="6"
       width="6"
       patternUnits="userSpaceOnUse"
       id="WMFhbasepattern" />
  </defs>
  <path
     id="path5"
     d="  M 370.70998,30.219705   L 375.07318,30.219705   L 380.08277,30.219705   L 385.09236,30.219705   L 390.42516,30.219705   L 395.75795,30.219705   L 401.25235,30.54291   L 406.74674,30.866116   L 412.24113,31.835732   L 415.14993,33.936567   L 417.25073,36.360608   L 418.86673,38.946251   L 419.99793,42.016702   L 420.80592,44.925551   L 421.77552,48.157605   L 422.58352,51.551261   L 423.87632,54.944918   L 423.55312,58.176972   L 423.71472,61.570629   L 424.03792,64.802683   L 424.52272,68.196339   L 424.68432,71.589996   L 424.84592,74.983653   L 424.52272,78.37731   L 423.87632,82.255774   L 424.36112,83.225391   L 424.36112,84.518212   L 424.03792,85.811034   L 423.87632,87.265458   L 423.39152,88.719882   L 423.39152,90.174307   L 423.71472,91.467128   L 424.84592,92.921553   L 423.39152,95.022388   L 422.90672,97.446428   L 423.22992,100.19367   L 424.03792,103.10252   L 424.84592,106.01137   L 425.81552,109.08182   L 426.46192,111.99067   L 426.78512,115.06112   L 426.62352,116.83875   L 426.62352,118.45478   L 426.30032,119.9092   L 425.97712,121.52523   L 425.33072,122.97965   L 424.84592,124.43408   L 424.36112,125.8885   L 423.87632,127.66613   L 424.03792,129.76697   L 424.68432,132.02941   L 425.49232,134.45345   L 426.46192,137.03909   L 426.94672,139.30153   L 427.10832,141.72557   L 426.46192,143.8264   L 425.33072,145.92724   L 426.13872,148.35128   L 425.97712,150.77532   L 425.16912,153.03776   L 424.36112,155.4618   L 423.22992,157.72424   L 422.90672,160.30988   L 423.39152,162.73392   L 425.33072,165.64277   L 425.00752,170.49085   L 425.00752,175.82374   L 424.84592,181.31823   L 424.84592,186.97432   L 424.68432,192.30721   L 424.52272,197.8017   L 424.19952,202.97299   L 423.87632,207.98268   L 423.22992,213.47717   L 422.90672,219.45647   L 422.74512,225.59737   L 422.90672,231.89987   L 423.22992,237.87917   L 424.03792,243.85847   L 425.16912,249.67617   L 426.78512,255.00906   L 426.13872,256.62509   L 425.65392,258.24111   L 425.33072,259.69554   L 425.16912,261.14996   L 424.52272,262.28118   L 423.87632,263.73561   L 422.74512,265.02843   L 421.29072,266.64446   L 420.96752,267.77567   L 419.83633,268.26048   L 419.02833,268.42208   L 418.38193,268.74529   L 417.73553,269.2301   L 417.73553,270.19971   L 414.98833,272.94696   L 412.07953,275.371   L 409.00914,277.31023   L 405.77714,278.76466   L 402.06035,279.73427   L 398.34355,280.54229   L 394.30355,280.70389   L 390.42516,280.70389   L 388.64756,282.15831   L 386.86996,283.28953   L 384.93076,283.61274   L 382.99157,283.61274   L 380.89077,283.12793   L 378.95157,282.80473   L 377.01237,282.31992   L 375.39638,282.31992   L 374.42678,281.3503   L 373.78038,281.3503   L 373.13398,281.5119   L 372.48758,282.31992   L 371.67958,282.80473   L 370.87158,283.61274   L 370.06358,283.93594   L 369.25558,284.25915   L 365.70039,284.09755   L 361.98359,284.25915   L 358.1052,284.42075   L 354.3884,284.74396   L 350.51,284.74396   L 346.63161,284.90556   L 342.91481,284.90556   L 339.52122,284.74396   L 338.22842,285.39037   L 337.25882,285.87518   L 336.28922,285.87518   L 335.48122,286.03678   L 334.51162,285.71357   L 333.54202,285.39037   L 332.73402,285.06716   L 331.92602,284.74396   L 329.17883,284.25915   L 326.59323,284.58235   L 323.84603,284.90556   L 321.26044,285.71357   L 318.35164,286.03678   L 315.44284,286.19838   L 312.53405,285.71357   L 309.62525,284.74396   L 307.03965,285.71357   L 304.45406,286.03678   L 301.70686,285.71357   L 299.12126,285.55197   L 296.21247,285.06716   L 293.30367,284.90556   L 290.39487,285.06716   L 287.48607,286.35998   L 285.54688,285.06716   L 283.76928,284.74396   L 281.83008,284.90556   L 280.21408,285.55197   L 278.11329,286.03678   L 276.17409,286.52159   L 274.07329,286.68319   L 271.81089,286.35998   L 271.48769,294.11691   L 271.32609,302.35865   L 271.16449,310.9236   L 271.16449,319.65014   L 270.84129,328.21508   L 270.19489,336.94163   L 269.2253,345.34497   L 267.7709,353.42511   L 267.7709,358.11158   L 267.7709,363.12127   L 267.6093,368.13095   L 267.4477,373.30224   L 267.1245,378.31192   L 266.9629,383.3216   L 266.8013,388.00808   L 266.8013,392.85616   L 267.2861,393.66418   L 268.0941,394.63379   L 268.9021,395.44181   L 269.87169,396.24982   L 270.35649,396.89623   L 270.84129,397.86585   L 271.00289,398.83546   L 270.84129,400.45149   L 268.7405,400.9363   L 266.6397,401.0979   L 264.5389,400.7747   L 262.4381,400.61309   L 260.33731,400.28989   L 258.39811,400.45149   L 256.62051,400.9363   L 255.16611,402.39072   L 254.03491,402.55233   L 253.22691,402.39072   L 252.58051,401.90592   L 252.09572,401.58271   L 251.44932,401.0979   L 250.96452,401.0979   L 250.31812,401.2595   L 249.51012,402.39072   L 245.14692,403.03713   L 241.43013,403.36034   L 237.71333,403.03713   L 234.15814,402.87553   L 230.44134,402.39072   L 226.72454,402.22912   L 222.84615,402.22912   L 218.80615,403.03713   L 216.70536,405.29957   L 214.92776,406.10759   L 213.31176,405.78438   L 211.85736,404.81476   L 209.91816,403.36034   L 208.14056,402.22912   L 205.71657,401.58271   L 203.13097,402.39072   L 202.64617,401.90592   L 202.16137,401.42111   L 201.19177,401.0979   L 200.70697,401.42111   L 200.22217,401.74431   L 200.22217,402.55233   L 199.89897,403.68354   L 199.57577,404.49156   L 197.95978,403.52194   L 196.82858,402.71393   L 195.69738,401.42111   L 195.05098,400.12829   L 194.56618,398.67386   L 194.56618,397.38104   L 195.05098,395.92662   L 196.02058,394.957   L 197.47498,389.3009   L 198.44458,383.64481   L 198.92938,377.50391   L 199.41417,371.52461   L 199.41417,365.2221   L 199.57577,359.2428   L 199.89897,353.1019   L 200.54537,347.44581   L 200.54537,340.82009   L 201.19177,334.51759   L 201.67657,328.05348   L 202.48457,321.75098   L 202.96937,315.44847   L 203.45417,309.30757   L 203.45417,303.16667   L 203.13097,297.34897   L 203.13097,288.78403   L 199.89897,288.78403   L 197.31338,288.62242   L 194.88938,288.13761   L 192.95018,287.81441   L 190.84938,287.4912   L 188.74859,287.65281   L 186.32459,288.29922   L 183.90059,289.91524   L 181.96139,290.07685   L 180.3454,289.91524   L 178.891,289.43044   L 177.4366,289.10723   L 175.9822,288.62242   L 174.851,288.46082   L 173.3966,288.78403   L 172.26541,289.91524   L 169.19501,288.13761   L 166.60941,288.13761   L 164.02381,288.94563   L 161.59982,290.23845   L 159.17582,291.20807   L 156.75182,291.85448   L 154.16623,291.04646   L 151.58063,288.78403   L 148.34863,288.78403   L 145.43984,289.59204   L 142.20784,290.56165   L 139.29904,291.69287   L 136.22865,292.50089   L 133.31985,292.82409   L 130.41105,292.50089   L 127.82546,291.36967   L 120.87666,291.36967   L 120.23026,290.40005   L 119.74546,290.07685   L 119.26067,290.23845   L 118.77587,290.88486   L 118.12947,291.36967   L 117.64467,291.85448   L 116.99827,292.17768   L 116.19027,292.33928   L 113.11987,291.85448   L 110.04948,291.69287   L 106.65588,291.53127   L 103.26228,291.53127   L 99.545487,291.53127   L 96.151891,291.69287   L 92.758295,291.85448   L 89.526299,292.33928   L 86.132703,293.4705   L 82.415907,294.44012   L 78.214312,295.08653   L 74.012716,295.73294   L 69.326322,295.73294   L 64.963127,295.73294   L 60.599931,295.57134   L 56.721536,295.40974   L 54.943938,292.9857   L 52.84314,291.85448   L 50.257543,291.36967   L 47.671946,291.53127   L 44.924749,291.53127   L 42.339152,291.36967   L 40.076755,290.56165   L 38.460757,288.78403   L 37.652757,287.0064   L 36.844758,285.71357   L 35.875159,284.58235   L 34.905561,283.77434   L 33.612762,282.80473   L 32.643163,281.83511   L 31.673564,280.70389   L 30.865565,279.24947   L 29.572767,271.65414   L 28.926367,264.54362   L 28.764767,257.5947   L 29.087967,250.64579   L 29.411167,243.21206   L 29.734366,235.93994   L 29.895966,228.18301   L 29.895966,220.10288   L 28.603168,217.35563   L 28.118368,214.76999   L 27.956768,211.86114   L 28.279968,208.95229   L 28.279968,206.04344   L 28.118368,203.13459   L 27.148769,200.38735   L 25.371171,197.96331   L 25.371171,193.92324   L 25.532771,190.04478   L 25.532771,186.32791   L 25.694371,182.77265   L 25.532771,179.05579   L 25.209572,175.33893   L 24.724772,171.62207   L 23.916773,168.06681   L 25.047972,162.73392   L 25.371171,157.40103   L 24.563172,151.74494   L 23.916773,146.08884   L 23.270374,140.27114   L 23.270374,134.61505   L 24.239973,129.28216   L 26.82557,124.27248   L 26.987169,119.4244   L 26.66397,115.22273   L 26.017571,111.34426   L 25.371171,107.789   L 24.724772,103.91054   L 24.563172,100.03207   L 25.209572,95.830401   L 26.82557,91.305526   L 25.532771,87.588663   L 24.724772,83.710199   L 24.239973,79.346926   L 24.401572,75.145256   L 24.886372,70.781983   L 26.017571,66.580312   L 27.471969,62.540245   L 29.895966,58.984986   L 29.734366,57.368959   L 30.057566,56.23774   L 30.542365,55.268123   L 31.350365,54.46011   L 31.996764,53.490494   L 32.804763,52.844083   L 33.612762,52.197672   L 34.420761,51.551261   L 35.875159,51.551261   L 36.844758,51.389659   L 37.652757,50.743248   L 38.460757,50.25844   L 39.107156,49.288824   L 39.915155,48.642413   L 40.723154,47.834399   L 42.015953,47.511194   L 42.985551,47.672797   L 44.27835,47.996002   L 45.409549,47.996002   L 46.702347,47.996002   L 47.671946,47.672797   L 48.803145,47.349591   L 49.611144,46.864783   L 50.580743,46.379975   L 50.580743,45.895167   L 58.499134,45.410359   L 66.417525,44.602345   L 74.335916,43.309524   L 82.415907,42.016702   L 90.495898,40.562278   L 98.899088,39.754264   L 107.62548,39.269456   L 116.83667,39.915867   L 117.96787,39.269456   L 119.90706,38.946251   L 122.33106,38.461443   L 125.23986,38.461443   L 128.14866,38.29984   L 131.38065,38.29984   L 134.12785,38.29984   L 137.03665,38.29984   L 137.03665,36.845416   L 140.91504,37.491826   L 144.79344,37.815032   L 148.34863,37.815032   L 152.06543,37.815032   L 155.45902,37.491826   L 159.17582,37.168621   L 162.89262,36.845416   L 167.25581,36.845416   L 169.35661,35.714197   L 171.45741,35.390991   L 173.235,35.390991   L 175.0126,35.714197   L 176.6286,35.875799   L 178.4062,35.875799   L 180.3454,35.552594   L 182.93099,34.744581   L 187.13259,35.714197   L 191.49578,36.52221   L 195.85898,36.845416   L 200.22217,37.007018   L 204.42377,36.845416   L 208.62536,36.845416   L 212.50376,36.845416   L 216.22056,36.845416   L 217.99815,36.199005   L 220.09895,36.037402   L 222.19975,36.360608   L 224.46215,37.007018   L 226.56294,37.330224   L 228.66374,37.653429   L 230.76454,37.491826   L 232.86534,36.845416   L 233.67334,37.815032   L 234.48133,38.138237   L 235.28933,37.815032   L 236.25893,37.491826   L 237.22853,36.683813   L 238.19813,36.360608   L 239.32933,36.199005   L 240.94533,36.845416   L 246.27812,36.683813   L 251.28772,36.360608   L 255.97411,35.714197   L 260.66051,35.229389   L 265.0237,34.421375   L 269.5485,33.774964   L 274.23489,33.290156   L 279.40608,33.290156   L 281.66848,33.451759   L 284.90048,33.451759   L 288.61727,33.290156   L 292.49567,33.290156   L 296.05087,32.805348   L 299.44446,32.482143   L 302.19166,32.158937   L 304.13086,31.835732   L 306.23165,31.997335   L 308.65565,32.32054   L 311.07965,32.482143   L 313.82685,32.643745   L 316.41244,32.643745   L 318.99804,32.643745   L 321.42204,32.643745   L 323.84603,32.805348   L 324.16923,31.835732   L 324.81563,31.512527   L 325.46203,31.189321   L 326.43163,31.350924   L 327.40123,31.350924   L 328.37083,31.512527   L 329.34043,31.674129   L 330.31003,31.835732   L 330.31003,32.158937   L 330.95643,32.482143   L 331.60283,32.643745   L 332.57242,32.805348   L 333.54202,32.805348   L 334.51162,32.805348   L 335.48122,32.805348   L 336.45082,32.805348   L 337.58202,33.128554   L 339.03642,32.966951   L 340.49082,32.482143   L 342.43001,31.835732   L 344.04601,31.027718   L 345.98521,30.54291   L 347.76281,30.219705   L 349.5404,30.704513   L 351.8028,31.027718   L 354.0652,31.027718   L 356.166,30.704513   L 358.42839,30.381308   L 360.36759,29.8965   L 362.46839,29.734897   L 364.56919,29.8965   L 366.66999,30.704513   L 370.70998,30.219705  z "
     style="fill:#000000;fill-rule:evenodd;fill-opacity:1;stroke:none;" />
  <path
     id="path7"
     d="  M 408.20114,37.330224   L 408.20114,36.845416   L 409.00914,36.845416   L 409.97874,37.330224   L 410.78674,37.815032   L 411.75633,38.784648   L 412.24113,39.592662   L 412.88753,40.72388   L 413.04913,41.855099   L 413.21073,43.471126   L 413.69553,44.925551   L 414.50353,46.541578   L 415.31153,48.319207   L 416.28113,50.25844   L 416.76593,52.197672   L 417.25073,54.136905   L 417.41233,56.076137   L 417.25073,58.015369   L 418.05873,60.277807   L 418.38193,62.540245   L 417.89713,64.802683   L 417.41233,67.226723   L 416.76593,69.327558   L 416.60433,71.589996   L 416.92753,73.690831   L 418.22033,75.791666   L 417.08913,78.054104   L 416.92753,80.154939   L 417.08913,82.255774   L 417.57393,84.356609   L 418.05873,86.295842   L 418.54353,88.55828   L 418.54353,90.98232   L 418.22033,93.891169   L 417.73553,93.891169   L 417.73553,96.315209   L 418.22033,98.73925   L 419.02833,101.16329   L 419.83633,103.74893   L 420.32112,106.17297   L 420.48272,108.59701   L 419.99793,111.02105   L 418.70513,113.6067   L 418.70513,117.32356   L 418.86673,121.04042   L 419.18993,124.43408   L 419.67473,127.98934   L 419.99793,131.383   L 420.48272,134.77665   L 420.80592,138.33191   L 421.29072,142.37198   L 419.51313,145.44243   L 418.54353,148.83609   L 417.89713,152.22974   L 417.89713,155.94661   L 417.73553,159.34026   L 418.05873,163.05712   L 418.38193,166.77399   L 418.70513,170.65245   L 418.38193,171.62207   L 417.89713,172.75329   L 417.25073,174.04611   L 416.76593,175.50053   L 416.28113,176.79335   L 416.28113,178.08618   L 416.76593,179.379   L 418.22033,180.83342   L 417.73553,180.83342   L 417.08913,185.84311   L 417.08913,190.85279   L 417.08913,195.86247   L 417.25073,201.03376   L 417.08913,206.04344   L 416.92753,211.05313   L 416.44273,216.06281   L 415.79633,221.2341   L 414.66513,224.46615   L 414.34193,228.02141   L 414.50353,231.89987   L 414.98833,235.93994   L 415.47313,239.81841   L 415.95793,244.02008   L 416.28113,247.89854   L 416.28113,251.93861   L 416.60433,252.74662   L 417.08913,253.39303   L 417.73553,253.71624   L 418.54353,254.03944   L 419.83633,254.03944   L 421.29072,253.55464   L 420.80592,257.91791   L 419.35153,261.63477   L 416.60433,264.70522   L 413.53393,267.45247   L 409.81714,269.5533   L 406.26194,271.65414   L 402.86834,273.43177   L 400.12115,275.2094   L 400.12115,274.72459   L 395.59635,275.5326   L 391.07156,275.69421   L 386.38516,275.5326   L 381.86037,275.371   L 377.17397,275.2094   L 372.81078,275.69421   L 368.44758,276.82543   L 364.24599,279.24947   L 362.14519,278.11825   L 360.04439,277.63344   L 357.782,277.63344   L 355.6812,278.11825   L 353.2572,278.44145   L 350.8332,279.08786   L 348.40921,279.41107   L 345.98521,279.73427   L 309.62525,279.24947   L 308.65565,279.24947   L 308.00925,279.73427   L 307.36285,280.05748   L 306.71645,280.54229   L 305.90845,280.70389   L 305.26205,280.86549   L 304.13086,280.86549   L 303.16126,280.70389   L 300.57566,279.24947   L 297.82846,279.41107   L 295.40447,279.57267   L 292.65727,279.57267   L 290.23327,279.57267   L 287.48607,279.41107   L 284.90048,279.57267   L 282.31488,279.89588   L 279.89088,280.70389   L 277.62849,279.57267   L 275.20449,279.57267   L 272.61889,280.05748   L 270.19489,280.86549   L 267.4477,281.0271   L 265.1853,280.86549   L 263.0845,279.57267   L 261.6301,277.14863   L 260.49891,276.66382   L 259.85251,276.98703   L 259.36771,277.47184   L 258.88291,278.27985   L 258.39811,279.08786   L 257.91331,279.89588   L 257.26691,280.38068   L 256.62051,280.70389   L 253.22691,280.38068   L 250.47972,280.54229   L 247.89412,281.0271   L 245.63172,281.5119   L 243.20773,281.83511   L 240.78373,282.31992   L 238.19813,282.31992   L 235.45093,282.31992   L 228.01734,282.96633   L 220.90695,282.96633   L 213.95816,282.15831   L 207.17097,281.5119   L 200.38377,280.86549   L 194.08138,280.70389   L 187.61739,281.3503   L 181.47659,283.28953   L 175.8206,283.28953   L 170.48781,283.45114   L 165.31661,283.61274   L 160.46862,284.09755   L 155.45902,284.58235   L 150.61103,285.06716   L 145.76304,285.71357   L 141.07664,286.35998   L 138.00624,284.90556   L 134.77425,284.42075   L 131.54225,284.25915   L 128.47185,284.74396   L 125.07826,285.06716   L 122.33106,285.39037   L 119.74546,285.22877   L 117.80627,284.74396   L 116.35187,284.74396   L 115.54387,284.90556   L 114.89747,285.06716   L 114.57427,285.39037   L 114.08947,285.39037   L 113.60467,285.55197   L 112.95827,285.22877   L 112.15027,284.74396   L 106.81748,284.90556   L 101.96948,285.55197   L 97.28309,286.35998   L 92.919895,287.168   L 88.3951,287.81441   L 83.870305,288.13761   L 79.34551,287.81441   L 74.820715,286.84479   L 73.366317,287.65281   L 71.911919,287.65281   L 70.94232,287.3296   L 70.134321,287.0064   L 69.164722,286.68319   L 68.356723,286.35998   L 64.801527,286.19838   L 61.407931,286.52159   L 57.691135,286.84479   L 54.297539,287.168   L 50.742343,287.168   L 47.510346,286.84479   L 44.43995,285.71357   L 42.015953,284.25915   L 39.430355,281.0271   L 37.814357,277.63344   L 36.683159,273.75497   L 36.036759,269.87651   L 35.71356,265.67484   L 35.71356,261.63477   L 35.875159,257.4331   L 36.036759,253.55464   L 37.006358,251.6154   L 37.167958,250.16098   L 36.844758,248.86816   L 36.359959,247.89854   L 35.55196,246.76732   L 34.905561,245.6361   L 34.582361,244.34328   L 34.905561,242.88886   L 35.06716,234.32392   L 35.06716,226.08218   L 34.905561,218.00204   L 34.582361,210.24511   L 33.935962,202.16498   L 33.127963,194.24645   L 31.996764,186.00471   L 30.865565,177.76297   L 31.188765,174.20771   L 31.511964,170.65245   L 31.673564,166.93559   L 31.835164,163.21873   L 31.673564,159.34026   L 31.350365,155.6234   L 30.703965,151.90654   L 29.895966,148.51288   L 30.542365,143.01839   L 31.350365,137.5239   L 31.996764,131.8678   L 32.643163,126.37331   L 32.804763,120.71722   L 32.804763,115.22273   L 32.481563,109.72823   L 31.996764,104.55695   L 32.643163,100.51688   L 32.319963,96.638415   L 31.350365,92.75995   L 30.380766,88.881485   L 29.572767,85.00302   L 29.734366,81.124555   L 31.350365,77.407693   L 34.905561,73.690831   L 32.966363,71.913202   L 32.319963,70.135572   L 32.643163,68.357942   L 33.774362,66.580312   L 34.743961,64.64108   L 35.875159,62.701848   L 36.198359,60.762615   L 36.036759,58.984986   L 38.783956,57.207356   L 41.692753,55.591329   L 44.60155,53.975302   L 47.995146,52.68248   L 51.227142,51.551261   L 54.943938,50.904851   L 58.822334,50.904851   L 63.185529,51.551261   L 67.225524,50.420042   L 71.588719,49.935234   L 76.275114,49.612029   L 81.123108,49.612029   L 85.971103,49.288824   L 90.819097,48.965618   L 95.667092,48.48081   L 100.67669,47.511194   L 105.36308,47.672797   L 109.88788,47.349591   L 114.25107,46.864783   L 118.77587,46.218372   L 122.97746,45.571961   L 127.17906,45.248756   L 131.54225,45.248756   L 135.90545,45.895167   L 141.23824,44.925551   L 146.89423,43.955934   L 152.38863,42.986318   L 158.04462,42.339907   L 163.53902,41.693497   L 169.03341,41.208689   L 174.3662,40.885483   L 179.8606,40.885483   L 185.35499,41.693497   L 190.84938,42.339907   L 195.85898,42.824716   L 201.03017,43.309524   L 205.87817,43.794332   L 210.88776,44.27914   L 215.89736,44.925551   L 221.23015,45.895167   L 225.43175,46.05677   L 229.63334,45.895167   L 233.67334,45.410359   L 237.87493,44.925551   L 241.59173,44.440743   L 245.47012,44.27914   L 249.02532,44.602345   L 252.58051,45.895167   L 255.48931,43.471126   L 258.88291,42.178305   L 262.5997,41.531894   L 266.4781,41.370291   L 270.19489,41.208689   L 274.07329,41.208689   L 277.46689,40.72388   L 280.86048,39.915867   L 292.98047,40.885483   L 294.59647,40.562278   L 296.37406,40.239072   L 298.31326,39.592662   L 300.41406,39.107853   L 302.35326,38.623045   L 304.61566,38.138237   L 306.71645,37.976635   L 309.14045,38.29984   L 309.14045,39.431059   L 316.89724,39.269456   L 324.81563,38.946251   L 332.73402,38.29984   L 340.81401,37.653429   L 348.73241,37.007018   L 356.8124,36.52221   L 364.89239,36.360608   L 373.29558,36.845416   L 375.55798,37.653429   L 378.30517,37.976635   L 381.05237,37.491826   L 383.96117,37.007018   L 386.54676,36.199005   L 389.13236,35.875799   L 391.55636,35.875799   L 393.49556,36.845416   L 395.11155,36.845416   L 396.88915,37.168621   L 398.50515,37.491826   L 400.28275,37.815032   L 402.06035,37.815032   L 403.99954,37.976635   L 405.93874,37.815032   L 408.20114,37.330224  z "
     style="fill:#ffffff;fill-rule:evenodd;fill-opacity:1;stroke:none;" />
  <path
     id="path9"
     d="  M 260.17571,50.904851   L 261.7917,50.096837   L 263.7309,49.773632   L 265.9933,49.450426   L 268.4173,49.450426   L 270.67969,49.450426   L 273.10369,49.773632   L 275.36609,50.096837   L 277.30529,50.904851   L 287.00128,50.743248   L 296.69726,51.228056   L 305.90845,51.712864   L 315.28124,52.520878   L 324.16923,52.844083   L 333.21882,52.68248   L 342.10681,51.712864   L 351.1564,49.935234   L 352.2876,50.743248   L 353.4188,51.066453   L 354.55,50.581645   L 355.8428,50.25844   L 356.974,49.612029   L 358.1052,49.288824   L 359.07479,49.288824   L 360.20599,49.935234   L 365.86199,49.450426   L 371.67958,49.450426   L 377.17397,49.612029   L 382.66837,50.25844   L 387.83956,51.066453   L 393.17236,52.036069   L 398.02035,53.328891   L 403.02994,54.944918   L 404.96914,57.530561   L 406.26194,60.601013   L 407.06994,63.509861   L 407.71634,66.741915   L 408.03954,69.812366   L 408.36274,73.206023   L 408.84754,76.438077   L 409.65554,79.831734   L 408.68594,81.609364   L 408.36274,83.871801   L 408.36274,85.972636   L 408.84754,88.396677   L 409.17074,90.497512   L 409.49394,92.75995   L 409.49394,94.860785   L 409.17074,96.96162   L 409.81714,100.19367   L 410.30194,103.74893   L 410.30194,107.30419   L 410.46354,111.02105   L 410.46354,114.73792   L 410.62514,118.45478   L 411.10994,122.17164   L 412.24113,125.7269   L 410.78674,127.98934   L 410.46354,130.41338   L 410.78674,132.67582   L 411.59473,135.09986   L 412.24113,137.20069   L 412.88753,139.46313   L 412.88753,141.56397   L 412.24113,143.8264   L 412.24113,144.79602   L 412.40273,145.92724   L 412.40273,147.22006   L 412.56433,148.51288   L 412.40273,149.6441   L 412.24113,150.77532   L 411.75633,151.58333   L 411.10994,152.55295   L 411.91793,167.09719   L 412.07953,181.64143   L 411.59473,196.18568   L 410.78674,210.72992   L 409.33234,225.11256   L 407.39314,239.6568   L 405.29234,254.20105   L 403.02994,269.0685   L 399.95955,270.19971   L 396.88915,271.00773   L 393.65715,271.33093   L 390.42516,271.49254   L 386.70836,271.33093   L 383.15317,271.33093   L 379.43637,271.33093   L 375.88118,271.65414   L 374.74998,270.52292   L 373.78038,270.19971   L 372.64918,270.36132   L 371.67958,270.84613   L 370.38678,271.16933   L 369.25558,271.65414   L 367.96278,271.81574   L 366.66999,271.65414   L 365.37719,271.33093   L 363.92279,271.33093   L 362.14519,271.33093   L 360.36759,271.65414   L 358.26679,271.65414   L 356.3276,271.65414   L 354.3884,271.16933   L 352.6108,270.68452   L 351.1564,271.65414   L 300.57566,271.65414   L 300.57566,270.68452   L 296.21247,271.00773   L 291.36447,271.33093   L 286.03168,271.49254   L 280.86048,271.65414   L 275.20449,271.49254   L 270.03329,271.49254   L 264.8621,271.16933   L 260.17571,270.68452   L 256.78211,271.49254   L 253.38851,271.81574   L 250.15652,271.49254   L 247.08612,271.16933   L 243.85412,270.52292   L 240.78373,270.19971   L 237.55173,270.36132   L 234.48133,271.65414   L 232.21894,270.52292   L 229.95654,270.19971   L 227.53254,270.36132   L 225.27015,270.84613   L 222.68455,271.16933   L 220.09895,271.65414   L 217.35175,271.81574   L 214.76616,271.65414   L 205.87817,273.27017   L 196.82858,274.40138   L 187.45579,274.88619   L 178.083,275.5326   L 168.54861,275.69421   L 159.17582,275.85581   L 149.96463,276.34062   L 141.07664,277.14863   L 139.13744,275.85581   L 137.19824,275.69421   L 135.25905,275.85581   L 133.31985,276.34062   L 131.21905,276.66382   L 129.27985,276.98703   L 127.34066,276.66382   L 125.40146,275.69421   L 123.46226,275.85581   L 121.52306,276.50222   L 119.74546,277.31023   L 118.12947,278.11825   L 116.35187,278.60306   L 114.57427,278.76466   L 112.79667,278.27985   L 111.18067,277.14863   L 109.24148,278.27985   L 107.30228,278.60306   L 105.36308,278.44145   L 103.42388,278.27985   L 101.48469,277.79504   L 99.707087,277.79504   L 98.091089,278.27985   L 96.636691,279.73427   L 93.243095,280.21908   L 90.334298,280.38068   L 87.425501,280.21908   L 84.516704,280.21908   L 81.607908,279.89588   L 78.699111,279.57267   L 75.628715,279.24947   L 72.396718,279.24947   L 72.396718,278.27985   L 70.61912,278.76466   L 69.003122,278.76466   L 67.387124,278.44145   L 65.771126,278.11825   L 63.993528,277.63344   L 62.377529,277.63344   L 60.923131,277.95664   L 59.630333,279.24947   L 57.529535,279.08786   L 55.751937,278.92626   L 54.135939,278.44145   L 52.84314,277.95664   L 51.550342,276.98703   L 50.419143,276.17901   L 49.449544,275.2094   L 48.641545,274.23978   L 49.772744,271.16933   L 49.934344,268.26048   L 49.449544,265.35163   L 48.641545,262.44279   L 47.510346,259.37233   L 46.540747,256.46349   L 45.894348,253.39303   L 46.055948,250.48419   L 44.924749,248.22175   L 44.43995,245.79771   L 44.27835,243.05046   L 44.43995,240.30322   L 44.27835,237.39437   L 44.11675,234.48552   L 43.470351,231.89987   L 42.500752,229.79904   L 41.369553,226.40538   L 40.884754,223.01173   L 40.723154,219.61807   L 40.884754,216.38602   L 40.723154,212.99236   L 40.561554,209.5987   L 39.753555,206.36665   L 38.460757,203.4578   L 37.652757,195.70087   L 37.329558,187.78234   L 37.167958,179.5406   L 37.329558,171.46046   L 37.167958,163.21873   L 37.167958,155.4618   L 36.683159,147.86647   L 36.036759,140.91755   L 37.167958,139.13992   L 37.652757,137.3623   L 37.329558,135.42306   L 36.844758,133.48383   L 36.198359,131.383   L 36.198359,129.60537   L 36.683159,127.66613   L 38.460757,126.21171   L 38.299157,119.4244   L 37.975957,113.12189   L 37.652757,106.81938   L 37.329558,100.84008   L 36.844758,94.53758   L 36.683159,88.235074   L 36.683159,81.447761   L 37.006358,74.660447   L 37.652757,73.690831   L 38.299157,72.559612   L 38.783956,71.105188   L 39.268756,69.489161   L 39.268756,67.549929   L 39.268756,65.610696   L 39.107156,63.671464   L 38.945556,62.055437   L 41.854353,60.277807   L 44.763149,59.954602   L 47.348746,60.601013   L 50.095943,61.732231   L 52.68154,62.86345   L 55.590337,63.671464   L 58.660734,63.509861   L 62.21593,62.055437   L 63.185529,61.893834   L 64.155127,62.21704   L 65.124726,62.701848   L 66.255925,63.186656   L 67.063924,63.348258   L 68.033523,63.348258   L 68.679922,62.86345   L 69.326322,62.055437   L 72.235118,62.540245   L 75.143915,62.378642   L 78.052712,61.893834   L 81.123108,61.247423   L 84.031905,60.43941   L 86.940702,60.116204   L 90.011098,60.277807   L 93.081495,61.570629   L 99.707087,60.116204   L 106.17108,59.146588   L 112.63507,58.176972   L 119.09907,57.530561   L 125.40146,56.560945   L 132.02705,56.076137   L 138.81424,55.429726   L 146.08623,54.944918   L 147.86383,53.652096   L 149.64143,53.005686   L 151.25743,52.359275   L 152.87343,52.359275   L 154.48943,52.197672   L 156.26702,52.359275   L 158.20622,52.359275   L 160.63022,52.520878   L 165.15501,51.389659   L 169.84141,51.228056   L 174.2046,51.389659   L 178.5678,52.036069   L 182.60779,52.520878   L 186.64779,53.005686   L 190.52618,53.005686   L 194.56618,52.520878   L 202.80777,51.712864   L 211.21096,51.066453   L 219.29095,50.420042   L 227.53254,50.096837   L 235.45093,49.612029   L 243.69252,49.773632   L 251.77252,50.096837   L 260.17571,50.904851  z "
     style="fill:#000000;fill-rule:evenodd;fill-opacity:1;stroke:none;" />
  <path
     id="path11"
     d="  M 268.2557,53.005686   L 271.00289,53.975302   L 274.07329,54.621713   L 277.14369,54.783315   L 280.37568,54.944918   L 283.44608,54.783315   L 286.67808,54.944918   L 289.74847,54.944918   L 292.98047,55.591329   L 302.67646,56.560945   L 312.53405,56.722548   L 322.23004,56.399342   L 332.24922,55.914534   L 341.94521,55.106521   L 351.6412,54.621713   L 361.17559,54.46011   L 370.70998,54.944918   L 372.81078,53.005686   L 376.85077,54.136905   L 381.53717,54.621713   L 386.06196,54.944918   L 390.74836,55.429726   L 394.78835,56.23774   L 398.50515,58.015369   L 401.25235,60.924218   L 403.02994,65.610696   L 403.99954,68.681148   L 404.48434,71.751599   L 404.48434,74.498845   L 404.48434,77.407693   L 404.16114,79.993337   L 404.16114,82.740582   L 404.48434,85.649431   L 405.61554,88.881485   L 405.29234,92.436744   L 405.29234,96.315209   L 405.29234,100.35528   L 405.61554,104.71855   L 405.61554,108.92022   L 405.77714,113.12189   L 405.61554,117.16196   L 405.61554,121.20203   L 405.93874,124.59568   L 406.26194,128.15094   L 406.58514,131.7062   L 407.06994,135.58467   L 407.06994,139.13992   L 406.90834,142.85679   L 406.42354,146.41205   L 405.61554,149.96731   L 406.10034,152.87615   L 406.58514,156.26981   L 406.90834,159.50187   L 407.39314,162.73392   L 407.55474,165.80437   L 407.71634,169.03642   L 407.39314,171.78367   L 407.06994,174.69252   L 407.39314,186.48952   L 407.39314,198.12491   L 406.90834,209.4371   L 406.26194,220.74929   L 404.96914,231.73827   L 403.67634,242.88886   L 401.89875,253.87784   L 400.12115,265.02843   L 395.75795,266.80606   L 391.71796,267.61407   L 387.51636,267.77567   L 383.47637,267.45247   L 379.27477,266.80606   L 375.07318,266.48285   L 370.87158,266.64446   L 366.66999,267.61407   L 357.1356,268.26048   L 347.76281,268.74529   L 338.22842,268.58369   L 328.85563,268.42208   L 319.32124,267.93728   L 309.94845,267.77567   L 300.57566,267.61407   L 291.52607,268.09888   L 287.97087,266.80606   L 284.25408,266.64446   L 280.37568,266.80606   L 276.49729,267.29087   L 272.61889,267.61407   L 268.7405,267.93728   L 265.0237,267.61407   L 261.6301,266.64446   L 258.07491,266.96766   L 254.84291,267.12926   L 251.93412,267.12926   L 249.02532,267.12926   L 245.95492,266.80606   L 243.04613,266.48285   L 239.81413,266.15965   L 236.42053,266.15965   L 234.48133,266.48285   L 232.54214,266.80606   L 230.44134,266.96766   L 228.34054,267.12926   L 226.23974,267.12926   L 224.30055,267.29087   L 222.52295,267.45247   L 221.23015,268.09888   L 216.05896,267.77567   L 211.04936,268.09888   L 205.87817,268.58369   L 200.86857,269.5533   L 195.85898,270.19971   L 191.01098,270.84613   L 186.16299,271.00773   L 181.47659,270.68452   L 167.74061,271.00773   L 154.65103,271.65414   L 141.56144,272.30055   L 128.63345,273.10856   L 115.54387,273.75497   L 102.45428,274.40138   L 89.041499,274.72459   L 75.790314,275.2094   L 73.366317,274.40138   L 71.10392,273.91658   L 68.679922,273.43177   L 66.417525,273.27017   L 63.993528,273.10856   L 61.56953,273.10856   L 59.145533,273.10856   L 56.721536,273.10856   L 53.00474,262.60439   L 50.257543,251.77701   L 47.995146,240.62642   L 46.379148,229.31423   L 44.763149,217.84044   L 43.631951,206.36665   L 42.339152,194.89286   L 41.046354,183.74227   L 41.531153,179.7022   L 42.015953,175.82374   L 42.015953,171.62207   L 42.177552,167.582   L 41.854353,163.38033   L 41.854353,159.17866   L 41.854353,155.13859   L 42.015953,151.42173   L 41.046354,148.83609   L 40.884754,146.41205   L 41.207953,143.98801   L 41.854353,141.56397   L 42.177552,139.13992   L 42.339152,136.87749   L 41.692753,134.45345   L 40.076755,132.35261   L 41.531153,124.27248   L 42.015953,116.19234   L 41.692753,108.11221   L 41.369553,100.35528   L 40.884754,92.436744   L 41.207953,84.679815   L 42.339152,76.922885   L 45.086349,69.650764   L 46.379148,68.034737   L 48.318345,67.226723   L 50.419143,66.741915   L 52.68154,66.741915   L 54.782338,66.741915   L 56.883136,66.903518   L 58.822334,66.903518   L 60.761531,66.580312   L 68.356723,64.964285   L 75.951914,64.317875   L 83.223906,63.994669   L 90.657498,64.156272   L 97.767889,63.994669   L 104.87828,63.833067   L 111.82707,63.025053   L 118.77587,61.570629   L 120.23026,61.085821   L 121.84626,60.762615   L 123.62386,60.43941   L 125.56306,60.116204   L 127.50226,59.631396   L 129.44145,59.469794   L 131.38065,59.146588   L 133.48145,58.984986   L 136.22865,58.66178   L 139.13744,58.338575   L 142.04624,57.692164   L 144.95504,57.207356   L 147.70223,56.722548   L 150.44943,56.560945   L 153.03503,56.722548   L 155.62062,57.530561   L 156.59022,57.207356   L 157.72142,56.88415   L 159.01422,56.560945   L 160.46862,56.23774   L 161.59982,55.914534   L 162.73102,56.076137   L 163.53902,56.722548   L 164.18541,58.015369   L 165.80141,56.560945   L 187.45579,56.560945   L 187.45579,57.530561   L 189.55659,56.722548   L 191.98058,56.399342   L 194.40458,56.23774   L 197.15178,56.23774   L 199.89897,56.076137   L 202.80777,56.076137   L 205.71657,55.591329   L 208.62536,54.944918   L 211.21096,56.560945   L 216.38216,55.268123   L 221.87655,54.621713   L 227.53254,54.46011   L 233.51174,54.46011   L 239.32933,54.46011   L 245.30852,54.46011   L 251.12612,53.975302   L 257.10531,53.005686   L 258.23651,53.490494   L 259.52931,53.975302   L 260.9837,54.298507   L 262.5997,54.46011   L 264.0541,54.298507   L 265.5085,53.975302   L 266.8013,53.490494   L 268.2557,53.005686  z "
     style="fill:#cc3300;fill-rule:evenodd;fill-opacity:1;stroke:none;" />
  <path
     id="path13"
     d="  M 173.3966,91.305526   L 173.3966,90.335909   L 173.7198,90.012704   L 174.043,89.851101   L 174.5278,90.012704   L 175.3358,90.497512   L 176.3054,91.305526   L 176.7902,92.598347   L 176.7902,93.891169   L 176.467,95.18399   L 176.1438,96.638415   L 175.3358,97.769634   L 174.6894,99.062455   L 173.8814,100.35528   L 173.3966,101.9713   L 172.10381,106.98099   L 170.64941,112.15227   L 168.87181,117.00035   L 167.41741,122.01004   L 165.96301,126.85812   L 164.99341,132.19101   L 164.34701,137.5239   L 164.67021,143.3416   L 162.24622,142.85679   L 160.14542,143.17999   L 158.04462,143.5032   L 156.26702,144.31121   L 154.32783,144.63442   L 152.38863,144.79602   L 150.44943,144.31121   L 148.51023,143.3416   L 147.05583,140.27114   L 146.08623,137.20069   L 145.11664,134.13024   L 144.30864,131.05979   L 143.33904,127.82774   L 142.69264,124.75728   L 141.72304,121.52523   L 141.07664,118.61638   L 139.46064,120.23241   L 138.16784,122.49485   L 137.03665,124.91889   L 136.06705,127.82774   L 134.93585,130.73658   L 134.12785,133.80704   L 133.48145,136.71588   L 132.99665,139.78634   L 134.28945,140.91755   L 134.93585,142.04877   L 134.61265,142.85679   L 134.12785,143.8264   L 133.15825,144.47281   L 132.35025,145.28083   L 131.70385,146.25044   L 131.86545,147.38166   L 130.57265,148.35128   L 129.11825,148.83609   L 127.34066,148.83609   L 125.72466,148.99769   L 123.78546,148.83609   L 122.33106,149.32089   L 121.03826,150.45211   L 120.23026,152.55295   L 117.96787,150.29051   L 116.19027,147.54327   L 114.57427,144.47281   L 113.44307,141.40236   L 112.31187,138.17031   L 111.18067,135.26146   L 110.04948,132.51421   L 108.75668,130.25178   L 107.46388,127.82774   L 106.33268,125.7269   L 105.36308,123.62607   L 104.39348,121.68683   L 103.42388,119.586   L 102.45428,117.64677   L 101.48469,115.54593   L 100.67669,113.6067   L 99.707087,111.82907   L 98.899088,110.37464   L 97.929489,108.75862   L 97.28309,107.30419   L 96.313491,105.84977   L 95.505492,104.55695   L 94.374293,103.58733   L 93.081495,102.94092   L 92.596695,101.8097   L 92.111896,100.67848   L 91.788696,99.547263   L 91.788696,98.577647   L 91.627096,97.446428   L 92.111896,96.476812   L 92.758295,95.668798   L 94.051094,95.345593   L 97.44469,95.345593   L 100.83829,93.891169   L 104.07028,91.628731   L 107.30228,89.527896   L 110.04948,88.073472   L 112.79667,88.396677   L 114.89747,90.98232   L 116.83667,96.96162   L 116.35187,98.254442   L 116.35187,99.385661   L 116.67507,100.35528   L 117.15987,101.4865   L 117.64467,102.29451   L 118.12947,103.26413   L 118.45267,104.39534   L 118.77587,106.01137   L 118.93747,107.6274   L 119.42226,109.40503   L 120.06866,111.02105   L 121.03826,112.79868   L 121.84626,114.41471   L 122.65426,116.19234   L 123.13906,118.13157   L 123.78546,120.23241   L 125.72466,117.16196   L 127.17906,114.09151   L 128.31025,110.69785   L 129.11825,107.4658   L 129.44145,103.74893   L 129.92625,100.19367   L 130.08785,96.476812   L 130.41105,92.921553   L 132.67345,92.598347   L 135.09745,91.790334   L 137.19824,90.98232   L 139.46064,90.174307   L 141.39984,89.527896   L 143.50064,89.527896   L 145.43984,90.174307   L 147.54063,91.951936   L 146.89423,94.375977   L 147.05583,97.123223   L 147.54063,99.870469   L 148.67183,102.77932   L 149.96463,105.52656   L 151.41903,108.27381   L 152.71183,110.85945   L 154.16623,113.6067   L 154.81262,109.56663   L 155.45902,105.68817   L 155.94382,101.8097   L 156.59022,97.931236   L 157.07502,94.052771   L 157.55982,90.335909   L 158.20622,86.942253   L 159.17582,83.871801   L 160.63022,84.841418   L 162.56942,85.487828   L 164.34701,85.811034   L 166.44781,86.295842   L 168.22541,86.619047   L 170.16461,87.427061   L 171.78061,88.881485   L 173.3966,91.305526  z "
     style="fill:#000000;fill-rule:evenodd;fill-opacity:1;stroke:none;" />
  <path
     id="path15"
     d="  M 307.20125,92.921553   L 308.65565,94.699182   L 309.94845,97.123223   L 310.91805,99.547263   L 312.21085,102.13291   L 313.18045,104.39534   L 314.79644,106.49618   L 316.41244,108.27381   L 318.83644,109.56663   L 319.15964,106.81938   L 319.48284,104.07214   L 319.64444,101.16329   L 319.80604,98.254442   L 319.80604,95.18399   L 319.96764,92.275142   L 319.96764,89.366293   L 320.29084,86.78065   L 321.90684,86.78065   L 323.68443,86.942253   L 325.46203,86.78065   L 327.40123,86.78065   L 329.17883,86.78065   L 330.95643,87.103855   L 332.57242,87.750266   L 334.35002,88.881485   L 335.31962,87.911869   L 336.77402,87.103855   L 337.25882,86.942253   L 337.74362,87.103855   L 338.06682,87.750266   L 338.39002,88.881485   L 337.42042,95.022388   L 336.45082,101.6481   L 335.31962,108.11221   L 334.18842,114.89952   L 332.89562,121.36363   L 331.92602,127.98934   L 330.95643,134.45345   L 330.31003,140.91755   L 329.17883,141.40236   L 328.04763,141.24076   L 326.91643,140.43275   L 326.27003,139.78634   L 324.65403,139.78634   L 323.36123,140.43275   L 322.23004,141.24076   L 321.09884,142.04877   L 319.80604,142.69518   L 318.67484,143.01839   L 317.22044,142.85679   L 315.76604,141.88717   L 313.82685,139.78634   L 312.53405,137.5239   L 311.24125,135.09986   L 310.27165,132.83742   L 309.14045,130.09017   L 308.00925,127.66613   L 306.87805,125.08049   L 305.58525,122.65645   L 305.26205,123.94927   L 305.26205,125.7269   L 305.26205,127.66613   L 305.42365,129.76697   L 305.26205,131.5446   L 304.93886,133.48383   L 304.29246,135.26146   L 303.16126,136.87749   L 301.22206,136.23108   L 299.60606,136.06947   L 297.99006,136.39268   L 296.69726,137.03909   L 295.24287,137.8471   L 294.11167,138.81672   L 292.65727,139.78634   L 291.52607,140.91755   L 291.04127,139.78634   L 290.71807,140.43275   L 290.39487,140.75595   L 289.91007,140.75595   L 289.58687,140.75595   L 288.45567,140.10954   L 287.48607,139.78634   L 288.45567,133.96864   L 288.94047,128.31254   L 288.94047,122.65645   L 288.94047,117.16196   L 288.61727,111.66747   L 288.29407,106.17297   L 288.13247,100.67848   L 288.45567,95.345593   L 287.64767,94.53758   L 287.16288,93.729566   L 286.67808,92.598347   L 286.51648,91.628731   L 286.35488,90.335909   L 286.51648,89.366293   L 286.83968,88.396677   L 287.48607,87.911869   L 289.42527,87.265458   L 291.68767,86.78065   L 293.78847,86.457445   L 296.21247,86.295842   L 298.47486,85.972636   L 300.89886,85.811034   L 303.16126,85.487828   L 305.58525,85.326226   L 307.20125,92.921553  z "
     style="fill:#000000;fill-rule:evenodd;fill-opacity:1;stroke:none;" />
  <path
     id="path17"
     d="  M 278.43649,95.345593   L 279.56768,97.284825   L 280.53728,99.385661   L 281.02208,101.6481   L 281.34528,104.07214   L 281.34528,106.49618   L 281.50688,109.24343   L 281.50688,111.99067   L 281.83008,115.06112   L 279.89088,117.96997   L 278.27489,121.36363   L 276.65889,124.75728   L 275.04289,128.15094   L 272.94209,131.05979   L 270.67969,133.80704   L 267.6093,135.58467   L 264.2157,136.87749   L 263.4077,137.5239   L 262.5997,138.49351   L 261.4685,139.13992   L 260.33731,140.10954   L 258.88291,140.75595   L 257.59011,141.56397   L 256.13571,142.37198   L 254.68131,143.3416   L 246.11652,143.3416   L 246.11652,142.37198   L 243.69252,143.17999   L 242.07653,143.17999   L 240.62213,142.37198   L 239.49093,141.40236   L 238.03653,140.10954   L 236.58213,139.13992   L 234.96613,138.65512   L 232.86534,139.30153   L 232.38054,138.17031   L 232.05734,137.20069   L 231.73414,136.23108   L 231.41094,135.42306   L 230.76454,134.61505   L 230.11814,134.29184   L 228.98694,133.96864   L 227.85574,134.29184   L 227.69414,132.83742   L 227.53254,131.5446   L 227.20934,130.25178   L 227.04774,129.12056   L 226.56294,127.82774   L 226.23974,126.69652   L 225.75494,125.4037   L 225.27015,124.27248   L 224.78535,126.21171   L 223.97735,127.98934   L 222.84615,129.60537   L 221.71495,131.383   L 220.42215,132.83742   L 219.45255,134.61505   L 218.64455,136.23108   L 218.32135,138.33191   L 216.86695,139.13992   L 216.05896,140.27114   L 215.41256,140.59435   L 214.76616,140.91755   L 213.95816,140.91755   L 213.15016,140.91755   L 211.53416,139.62473   L 210.07976,138.00871   L 208.62536,136.06947   L 207.49417,134.29184   L 206.03977,132.67582   L 204.58537,131.5446   L 202.64617,131.05979   L 200.54537,131.7062   L 201.19177,132.83742   L 201.35337,134.13024   L 201.03017,135.26146   L 200.70697,136.55428   L 200.06057,137.6855   L 199.41417,138.81672   L 198.60618,139.78634   L 198.12138,140.91755   L 196.18218,140.43275   L 194.40458,140.10954   L 192.46538,139.78634   L 190.52618,139.78634   L 188.42539,139.78634   L 186.64779,139.94794   L 185.19339,140.27114   L 184.38539,140.91755   L 183.41579,140.27114   L 182.44619,139.62473   L 181.47659,138.97832   L 180.6686,138.33191   L 179.699,137.20069   L 179.2142,136.23108   L 178.7294,134.77665   L 178.891,133.32223   L 179.8606,130.09017   L 180.507,126.85812   L 180.6686,123.30286   L 180.9918,119.7476   L 180.9918,116.03074   L 181.315,112.63708   L 181.79979,109.56663   L 182.93099,106.98099   L 182.76939,104.88015   L 182.76939,102.94092   L 182.76939,100.84008   L 183.09259,98.900852   L 183.09259,96.638415   L 183.25419,94.53758   L 183.09259,92.113539   L 182.93099,89.851101   L 184.87019,87.911869   L 189.87979,87.588663   L 195.21258,87.265458   L 200.54537,86.942253   L 206.03977,86.942253   L 211.21096,87.103855   L 216.22056,88.235074   L 220.90695,90.012704   L 225.27015,92.921553   L 225.10855,97.123223   L 223.33095,101.32489   L 220.58375,105.20336   L 217.99815,109.08182   L 216.05896,112.47548   L 215.57416,115.86914   L 217.35175,118.77798   L 222.36135,121.68683   L 225.27015,124.27248   L 225.75494,118.77798   L 226.40134,113.6067   L 227.37094,108.59701   L 228.66374,104.07214   L 230.44134,99.547263   L 232.86534,95.668798   L 236.09733,91.951936   L 240.46053,88.881485   L 243.04613,87.265458   L 246.11652,86.295842   L 249.34852,85.487828   L 252.90371,85.164623   L 256.13571,85.00302   L 259.52931,85.164623   L 262.7613,85.649431   L 265.6701,86.78065   L 267.2861,87.427061   L 269.2253,88.073472   L 271.00289,88.55828   L 272.78049,89.527896   L 274.23489,90.335909   L 275.85089,91.628731   L 277.14369,93.244758   L 278.43649,95.345593  z "
     style="fill:#000000;fill-rule:evenodd;fill-opacity:1;stroke:none;" />
  <path
     id="path19"
     d="  M 378.30517,88.881485   L 378.78997,87.911869   L 379.75957,87.427061   L 380.56757,86.942253   L 381.53717,86.942253   L 382.34517,86.942253   L 383.31477,87.103855   L 384.12277,87.427061   L 384.93076,87.911869   L 384.44597,89.689499   L 384.76917,91.467128   L 385.09236,93.244758   L 385.90036,95.18399   L 386.22356,96.800017   L 386.38516,98.577647   L 385.90036,100.19367   L 384.93076,101.9713   L 382.99157,101.4865   L 381.69877,101.6481   L 380.40597,101.9713   L 379.43637,102.45611   L 378.46677,102.61771   L 377.82037,102.45611   L 377.33557,101.8097   L 376.85077,100.51688   L 374.91158,100.51688   L 372.97238,100.84008   L 370.87158,101.32489   L 368.93238,102.13291   L 366.83159,102.94092   L 364.73079,104.07214   L 362.79159,105.36496   L 361.17559,106.98099   L 360.69079,107.9506   L 360.36759,108.92022   L 359.88279,109.88984   L 359.72119,111.18266   L 359.39799,112.15227   L 359.39799,113.4451   L 359.55959,114.73792   L 360.20599,116.19234   L 360.85239,116.35394   L 361.33719,117.00035   L 361.49879,117.96997   L 361.66039,119.10119   L 362.79159,120.71722   L 364.24599,122.33324   L 365.53879,123.46446   L 366.99319,124.59568   L 368.44758,125.24209   L 370.38678,126.05011   L 372.32598,126.85812   L 374.74998,127.66613   L 375.07318,126.69652   L 375.23478,125.7269   L 375.07318,124.43408   L 375.39638,123.14126   L 373.94198,122.65645   L 372.97238,122.33324   L 372.16438,121.52523   L 371.84118,120.23241   L 371.67958,117.80837   L 371.51798,115.38433   L 371.19478,112.79868   L 371.19478,110.37464   L 371.35638,108.11221   L 372.32598,106.33458   L 374.10358,104.88015   L 376.85077,104.55695   L 378.62837,105.68817   L 380.89077,106.49618   L 383.15317,106.98099   L 385.57716,107.6274   L 387.67796,108.27381   L 389.45556,109.40503   L 390.74836,111.02105   L 391.55636,113.6067   L 390.26356,118.61638   L 388.64756,123.62607   L 386.70836,128.47415   L 384.28437,132.83742   L 381.21397,136.39268   L 377.82037,139.46313   L 373.78038,141.88717   L 369.25558,143.3416   L 364.89239,143.17999   L 361.17559,143.01839   L 357.6204,142.53358   L 354.55,141.72557   L 351.4796,140.43275   L 349.05561,138.81672   L 346.47001,136.71588   L 344.53081,134.29184   L 343.72281,129.28216   L 343.07641,124.43408   L 342.26841,119.586   L 342.10681,114.89952   L 342.10681,110.21304   L 343.07641,105.84977   L 345.01561,101.6481   L 348.08601,97.931236   L 348.08601,95.507196   L 348.89401,93.567963   L 350.1868,91.951936   L 351.9644,90.820717   L 353.9036,89.527896   L 356.0044,88.55828   L 358.1052,87.588663   L 360.20599,86.78065   L 362.14519,86.78065   L 364.56919,86.942253   L 366.99319,86.942253   L 369.41718,87.103855   L 371.67958,87.265458   L 374.10358,87.588663   L 376.20437,88.073472   L 378.30517,88.881485  z "
     style="fill:#000000;fill-rule:evenodd;fill-opacity:1;stroke:none;" />
  <path
     id="path21"
     d="  M 260.17571,89.366293   L 262.2765,90.497512   L 265.0237,91.628731   L 267.7709,92.598347   L 270.51809,93.891169   L 272.78049,95.18399   L 274.55809,96.96162   L 275.68929,99.062455   L 275.85089,101.9713   L 276.98209,102.77932   L 277.79009,104.07214   L 278.27489,105.84977   L 278.43649,108.11221   L 278.11329,110.05144   L 277.79009,112.31388   L 277.30529,114.25311   L 276.82049,116.19234   L 274.88129,120.87882   L 272.29569,125.08049   L 269.0637,128.47415   L 265.5085,131.383   L 261.4685,133.48383   L 257.59011,135.42306   L 253.55011,136.87749   L 250.15652,138.33191   L 247.73252,138.00871   L 245.95492,137.6855   L 244.33892,137.03909   L 242.88453,136.39268   L 241.26853,135.58467   L 239.81413,134.93825   L 238.19813,134.45345   L 236.42053,134.29184   L 234.64293,132.35261   L 233.35014,129.92857   L 232.38054,127.18133   L 231.89574,124.27248   L 231.41094,121.04042   L 231.41094,117.80837   L 231.41094,114.73792   L 231.41094,112.15227   L 231.57254,109.72823   L 232.05734,107.4658   L 232.70374,105.04176   L 233.67334,103.10252   L 234.64293,101.00169   L 236.09733,99.224058   L 237.55173,97.608031   L 239.49093,96.476812   L 241.75333,95.668798   L 244.17732,94.53758   L 246.60132,93.244758   L 249.02532,92.113539   L 251.12612,90.98232   L 253.38851,90.335909   L 255.48931,90.335909   L 257.59011,91.305526   L 260.17571,89.366293  z "
     style="fill:#ffffff;fill-rule:evenodd;fill-opacity:1;stroke:none;" />
  <path
     id="path23"
     d="  M 165.80141,91.305526   L 165.31661,92.921553   L 165.80141,94.052771   L 166.77101,94.699182   L 168.22541,95.345593   L 169.51821,95.668798   L 170.64941,96.315209   L 171.13421,97.284825   L 170.81101,98.900852   L 169.19501,100.03207   L 168.22541,101.8097   L 167.57901,103.74893   L 167.57901,105.84977   L 167.25581,107.9506   L 167.09421,110.21304   L 166.77101,112.15227   L 166.28621,114.09151   L 164.99341,117.16196   L 164.18541,120.39401   L 163.21582,123.62607   L 162.73102,127.01972   L 161.92302,130.09017   L 161.43822,133.16062   L 160.95342,136.23108   L 160.63022,139.30153   L 151.58063,139.30153   L 151.25743,134.93825   L 150.61103,131.05979   L 149.15663,127.34293   L 147.70223,123.78767   L 146.08623,119.9092   L 145.11664,116.03074   L 144.63184,111.82907   L 145.11664,107.4658   L 144.30864,106.49618   L 143.50064,106.17297   L 142.53104,106.01137   L 141.72304,106.33458   L 140.10704,106.98099   L 138.97584,108.11221   L 137.84464,109.08182   L 137.03665,110.53625   L 136.39025,111.99067   L 136.06705,113.7683   L 135.58225,115.38433   L 135.42065,117.32356   L 135.09745,119.26279   L 134.93585,121.20203   L 134.28945,124.43408   L 133.48145,127.50453   L 132.18865,130.41338   L 131.05745,133.32223   L 129.76465,135.90787   L 128.79505,138.81672   L 127.98706,141.56397   L 127.82546,144.47281   L 126.69426,143.17999   L 125.40146,143.01839   L 124.10866,143.17999   L 122.97746,143.98801   L 121.84626,144.31121   L 121.03826,144.47281   L 120.39186,143.6648   L 120.23026,141.88717   L 117.80627,137.8471   L 115.70547,133.64543   L 113.76627,129.28216   L 111.82707,124.91889   L 109.88788,120.39401   L 107.94868,116.03074   L 105.84788,111.66747   L 103.58548,107.4658   L 101.48469,106.01137   L 100.51509,104.55695   L 100.35349,102.77932   L 100.83829,101.16329   L 101.64629,99.385661   L 102.93908,97.769634   L 104.39348,96.315209   L 106.17108,95.345593   L 108.59508,95.992004   L 110.53428,97.446428   L 111.98867,99.224058   L 113.28147,101.6481   L 114.08947,104.07214   L 115.05907,106.81938   L 115.86707,109.40503   L 116.83667,112.15227   L 117.15987,114.41471   L 118.12947,116.67715   L 119.09907,118.61638   L 120.23026,120.71722   L 121.19986,122.65645   L 122.33106,124.75728   L 123.13906,126.85812   L 123.78546,129.28216   L 127.82546,125.24209   L 129.60305,121.20203   L 130.73425,116.67715   L 131.38065,111.66747   L 132.02705,106.98099   L 132.99665,102.61771   L 134.77425,99.224058   L 137.84464,97.123223   L 142.53104,96.96162   L 144.63184,100.19367   L 146.40943,103.91054   L 147.37903,107.789   L 148.34863,111.82907   L 148.99503,115.54593   L 150.12623,119.10119   L 151.58063,122.33324   L 154.16623,125.24209   L 156.26702,121.52523   L 157.72142,117.32356   L 158.36782,112.96029   L 158.85262,108.43541   L 159.01422,103.74893   L 159.33742,99.385661   L 160.14542,95.022388   L 161.76142,91.305526   L 165.80141,91.305526  z "
     style="fill:#ffffff;fill-rule:evenodd;fill-opacity:1;stroke:none;" />
  <path
     id="path25"
     d="  M 202.16137,91.951936   L 200.54537,92.113539   L 198.92938,92.921553   L 197.31338,94.052771   L 195.85898,95.830401   L 194.40458,97.608031   L 193.43498,99.870469   L 192.78858,102.29451   L 192.95018,105.04176   L 192.46538,106.65778   L 192.62698,108.43541   L 193.11178,109.88984   L 194.08138,111.50586   L 195.05098,112.47548   L 196.50538,113.4451   L 197.95978,113.7683   L 199.57577,113.6067   L 201.67657,112.63708   L 203.93897,111.66747   L 206.20137,110.69785   L 208.62536,109.88984   L 210.56456,108.75862   L 212.34216,107.30419   L 213.79656,105.52656   L 214.76616,103.42573   L 214.76616,101.6481   L 214.92776,100.35528   L 214.44296,98.900852   L 214.11976,97.931236   L 213.31176,96.800017   L 212.50376,95.830401   L 211.37256,95.022388   L 210.24136,94.375977   L 208.78696,93.891169   L 207.33257,93.891169   L 205.87817,93.891169   L 204.58537,93.891169   L 204.58537,92.921553   L 206.52457,92.75995   L 208.62536,92.75995   L 210.56456,92.598347   L 212.82696,92.75995   L 214.76616,92.75995   L 216.70536,93.406361   L 218.48295,94.052771   L 220.26055,95.345593   L 219.77575,97.931236   L 218.96775,100.67848   L 217.51335,103.26413   L 215.89736,105.84977   L 213.79656,107.9506   L 211.53416,110.21304   L 209.27176,112.15227   L 207.17097,114.09151   L 207.33257,115.22273   L 207.81737,116.51555   L 208.62536,117.48516   L 209.59496,118.61638   L 210.40296,119.4244   L 211.37256,120.23241   L 212.18056,120.87882   L 213.15016,121.68683   L 213.63496,121.04042   L 213.79656,120.23241   L 214.28136,121.04042   L 215.25096,122.01004   L 216.22056,122.97965   L 217.51335,123.94927   L 218.32135,124.91889   L 219.12935,125.8885   L 219.12935,127.01972   L 218.80615,128.31254   L 212.18056,134.29184   L 210.24136,132.51421   L 208.78696,130.73658   L 207.33257,128.79735   L 206.03977,126.85812   L 204.74697,124.75728   L 203.45417,122.65645   L 201.99977,120.71722   L 200.54537,119.10119   L 198.12138,120.07081   L 196.99018,121.52523   L 196.50538,123.30286   L 196.50538,125.5653   L 196.50538,127.66613   L 196.50538,129.92857   L 195.69738,132.19101   L 194.56618,134.29184   L 193.11178,133.80704   L 191.49578,133.80704   L 189.71819,133.96864   L 188.26379,134.13024   L 186.64779,133.96864   L 185.51659,133.64543   L 184.54699,132.51421   L 184.38539,130.73658   L 184.54699,128.47415   L 185.03179,126.37331   L 185.19339,124.11087   L 185.67819,122.01004   L 185.83979,119.7476   L 186.32459,117.80837   L 186.97099,115.70753   L 187.94059,114.09151   L 188.58699,110.37464   L 188.74859,106.65778   L 188.74859,102.94092   L 188.91019,99.547263   L 189.39499,96.315209   L 190.52618,93.729566   L 192.62698,91.951936   L 196.02058,91.305526   L 197.31338,91.143923   L 198.76778,91.951936   L 199.41417,92.113539   L 200.22217,92.436744   L 201.19177,92.275142   L 202.16137,91.951936  z "
     style="fill:#ffffff;fill-rule:evenodd;fill-opacity:1;stroke:none;" />
  <path
     id="path27"
     d="  M 305.58525,98.900852   L 307.03965,101.16329   L 308.81725,103.42573   L 310.43325,105.52656   L 312.21085,107.789   L 313.50365,109.88984   L 314.79644,112.47548   L 315.76604,115.22273   L 316.25084,118.61638   L 316.89724,118.45478   L 317.54364,118.77798   L 317.86684,119.4244   L 318.35164,120.39401   L 318.67484,121.04042   L 319.32124,121.68683   L 319.96764,121.84844   L 321.26044,121.68683   L 322.06844,118.93959   L 322.87643,116.03074   L 323.36123,112.96029   L 323.84603,110.05144   L 323.84603,106.81938   L 323.84603,103.74893   L 323.36123,100.67848   L 322.87643,97.931236   L 325.30043,92.921553   L 326.10843,94.052771   L 326.91643,94.375977   L 327.56283,94.052771   L 328.53243,93.406361   L 329.17883,92.436744   L 330.14843,91.951936   L 331.27963,91.951936   L 332.89562,92.921553   L 332.24922,98.254442   L 331.76442,103.58733   L 330.95643,108.75862   L 330.31003,114.09151   L 329.34043,119.26279   L 328.37083,124.43408   L 327.23963,129.60537   L 326.27003,134.77665   L 324.97723,134.13024   L 324.00763,134.13024   L 323.19963,134.29184   L 322.55324,134.77665   L 321.58364,135.09986   L 320.77564,135.42306   L 319.80604,135.42306   L 318.83644,135.26146   L 317.22044,132.35261   L 315.76604,129.76697   L 314.15004,127.18133   L 312.69565,124.91889   L 310.91805,122.49485   L 309.30205,120.23241   L 307.36285,118.13157   L 305.58525,116.19234   L 305.90845,114.73792   L 306.23165,113.6067   L 306.23165,112.47548   L 306.39325,111.50586   L 306.07005,110.53625   L 305.74685,109.56663   L 304.93886,108.75862   L 304.13086,108.11221   L 300.57566,110.53625   L 299.60606,114.41471   L 300.09086,118.77798   L 301.22206,123.78767   L 301.54526,128.15094   L 300.89886,131.8678   L 297.66686,133.96864   L 291.52607,134.29184   L 292.33407,130.73658   L 292.65727,127.01972   L 292.33407,123.14126   L 292.01087,119.4244   L 291.52607,115.54593   L 291.36447,111.66747   L 291.68767,107.9506   L 292.98047,104.55695   L 292.33407,103.42573   L 292.01087,102.29451   L 291.68767,101.00169   L 291.68767,99.870469   L 291.52607,98.577647   L 291.84927,97.446428   L 292.17247,96.315209   L 292.98047,95.345593   L 293.62687,93.891169   L 294.59647,92.921553   L 295.56607,92.113539   L 296.69726,91.628731   L 297.66686,91.143923   L 299.12126,90.98232   L 300.41406,90.98232   L 302.03006,91.305526   L 305.58525,98.900852  z "
     style="fill:#ffffff;fill-rule:evenodd;fill-opacity:1;stroke:none;" />
  <path
     id="path29"
     d="  M 381.86037,94.375977   L 381.86037,97.931236   L 378.46677,96.800017   L 375.23478,96.315209   L 372.00278,96.315209   L 368.93238,96.800017   L 365.70039,97.769634   L 362.79159,99.224058   L 360.04439,101.00169   L 357.6204,103.42573   L 356.6508,104.71855   L 356.0044,106.49618   L 355.358,108.27381   L 355.1964,110.37464   L 355.0348,112.31388   L 355.1964,114.41471   L 355.6812,116.51555   L 356.6508,118.61638   L 357.6204,121.36363   L 359.23639,123.78767   L 361.17559,125.8885   L 363.76119,127.82774   L 366.34679,129.28216   L 369.09398,130.73658   L 371.84118,132.02941   L 374.74998,133.32223   L 375.55798,132.83742   L 376.36597,132.35261   L 377.01237,131.7062   L 377.65877,131.05979   L 378.14357,130.25178   L 378.78997,129.44376   L 379.27477,128.47415   L 379.92117,127.66613   L 380.08277,124.91889   L 379.43637,122.65645   L 377.98197,120.55561   L 376.68917,118.61638   L 375.07318,116.51555   L 374.26518,114.41471   L 374.42678,111.99067   L 375.88118,109.56663   L 377.33557,110.05144   L 378.95157,110.53625   L 380.40597,111.02105   L 382.18357,111.66747   L 383.63797,112.15227   L 385.09236,113.12189   L 386.38516,113.9299   L 387.51636,115.06112   L 386.06196,118.77798   L 384.60757,122.65645   L 382.82997,126.37331   L 381.05237,130.09017   L 378.62837,132.99902   L 376.04277,135.74627   L 372.81078,137.8471   L 369.25558,139.30153   L 365.21559,138.97832   L 361.66039,138.33191   L 358.1052,137.3623   L 355.1964,135.90787   L 352.4492,133.96864   L 350.3484,131.5446   L 348.57081,128.63575   L 347.60121,125.24209   L 347.11641,120.71722   L 347.11641,116.35394   L 347.43961,111.82907   L 348.40921,107.6274   L 349.702,103.42573   L 351.6412,99.708866   L 354.0652,95.992004   L 357.1356,92.921553   L 360.04439,91.143923   L 362.62999,91.143923   L 365.05399,91.951936   L 367.63958,93.406361   L 370.06358,94.53758   L 372.81078,95.507196   L 375.71958,95.345593   L 379.43637,93.891169   L 381.86037,94.375977  z "
     style="fill:#ffffff;fill-rule:evenodd;fill-opacity:1;stroke:none;" />
  <path
     id="path31"
     d="  M 270.84129,108.11221   L 270.51809,111.18266   L 270.03329,114.57631   L 268.9021,117.80837   L 267.7709,121.04042   L 265.9933,123.78767   L 264.0541,126.53491   L 261.6301,128.79735   L 259.20611,130.73658   L 257.26691,131.383   L 255.32771,132.02941   L 252.90371,132.35261   L 250.64132,132.83742   L 248.21732,132.83742   L 246.11652,132.83742   L 244.33892,132.35261   L 243.04613,131.7062   L 241.43013,130.41338   L 240.13733,128.79735   L 239.00613,126.85812   L 238.19813,124.91889   L 237.55173,122.49485   L 237.06693,120.23241   L 236.90533,117.96997   L 236.90533,116.19234   L 237.87493,113.12189   L 239.00613,110.21304   L 240.13733,107.30419   L 241.75333,104.55695   L 243.36932,101.9713   L 245.30852,99.708866   L 247.57092,97.931236   L 250.15652,96.96162   L 253.06531,97.769634   L 256.45891,98.254442   L 259.85251,98.577647   L 263.2461,99.062455   L 266.1549,99.708866   L 268.5789,101.32489   L 270.19489,103.91054   L 270.84129,108.11221  z "
     style="fill:#000000;fill-rule:evenodd;fill-opacity:1;stroke:none;" />
  <path
     id="path33"
     d="  M 209.75656,101.9713   L 208.94856,103.42573   L 207.81737,104.71855   L 206.36297,105.68817   L 204.90857,106.49618   L 203.13097,106.81938   L 201.35337,107.30419   L 199.57577,107.6274   L 198.12138,108.11221   L 197.95978,106.81938   L 197.79818,105.36496   L 197.63658,103.58733   L 197.79818,101.9713   L 197.95978,100.19367   L 198.76778,99.062455   L 200.06057,98.092839   L 202.16137,97.931236   L 202.96937,99.062455   L 204.10057,99.547263   L 205.07017,99.385661   L 206.36297,99.224058   L 207.33257,98.900852   L 208.30216,99.062455   L 209.11016,99.870469   L 209.75656,101.9713  z "
     style="fill:#cc3300;fill-rule:evenodd;fill-opacity:1;stroke:none;" />
  <path
     id="path35"
     d="  M 254.19651,103.42573   L 263.7309,104.55695   L 263.4077,105.36496   L 263.7309,106.17297   L 264.0541,106.81938   L 264.7005,107.4658   L 265.1853,107.9506   L 265.8317,108.75862   L 266.3165,109.72823   L 266.8013,111.02105   L 265.5085,112.96029   L 264.7005,115.06112   L 263.8925,117.00035   L 263.2461,119.10119   L 262.2765,120.87882   L 261.1453,122.65645   L 259.52931,123.94927   L 257.59011,125.24209   L 256.45891,126.05011   L 255.16611,126.53491   L 253.55011,126.85812   L 252.09572,127.01972   L 250.31812,126.69652   L 248.54052,126.53491   L 246.92452,126.21171   L 245.47012,126.21171   L 243.69252,125.5653   L 242.72293,124.59568   L 241.91493,123.14126   L 241.75333,121.84844   L 241.59173,120.07081   L 241.75333,118.61638   L 241.91493,117.16196   L 242.07653,116.19234   L 242.07653,114.25311   L 242.39973,112.31388   L 242.72293,110.53625   L 243.53092,109.08182   L 244.33892,107.4658   L 245.30852,106.01137   L 246.27812,104.71855   L 247.57092,103.42573   L 248.21732,103.42573   L 249.02532,103.91054   L 249.99492,104.39534   L 250.96452,104.88015   L 251.77252,105.04176   L 252.58051,105.04176   L 253.38851,104.39534   L 254.19651,103.42573  z "
     style="fill:#cc3300;fill-rule:evenodd;fill-opacity:1;stroke:none;" />
  <path
     id="path37"
     d="  M 295.08127,180.18701   L 297.82846,177.60137   L 299.60606,174.04611   L 300.89886,169.84444   L 302.19166,165.80437   L 303.48446,162.08751   L 305.58525,159.50187   L 308.65565,158.37065   L 313.18045,159.50187   L 314.95804,159.98667   L 316.41244,161.11789   L 317.54364,162.57232   L 318.83644,164.18834   L 319.80604,165.48116   L 321.09884,166.77399   L 322.71484,167.582   L 324.81563,168.06681   L 323.68443,173.07649   L 321.74524,177.60137   L 318.99804,181.64143   L 316.08924,185.84311   L 312.85725,189.72157   L 310.27165,194.08484   L 308.17085,198.93292   L 307.20125,204.42742   L 306.55485,207.17466   L 306.55485,209.92191   L 306.71645,212.66915   L 307.03965,215.578   L 307.20125,218.00204   L 307.36285,220.58769   L 307.20125,222.85012   L 306.71645,225.27416   L 303.96926,225.75897   L 301.38366,226.24378   L 298.47486,226.24378   L 295.72767,226.40538   L 292.81887,226.40538   L 290.07167,226.56699   L 287.32448,226.89019   L 284.90048,227.6982   L 284.09248,221.2341   L 283.93088,214.60839   L 284.09248,207.49787   L 283.93088,200.54895   L 282.96128,193.92324   L 281.02208,188.10554   L 277.30529,183.09586   L 271.81089,179.7022   L 268.9021,175.98534   L 268.2557,172.91489   L 269.2253,170.32925   L 271.48769,168.22841   L 274.23489,165.96597   L 277.46689,163.86514   L 280.21408,161.4411   L 282.47648,159.01706   L 285.22368,160.47148   L 287.16288,162.73392   L 288.45567,165.31956   L 289.58687,168.22841   L 290.39487,171.13726   L 291.52607,174.36931   L 292.81887,177.27816   L 295.08127,180.18701  z "
     style="fill:#000000;fill-rule:evenodd;fill-opacity:1;stroke:none;" />
  <path
     id="path39"
     d="  M 357.6204,165.64277   L 357.4588,166.61238   L 357.1356,167.582   L 356.6508,168.55162   L 356.166,169.52123   L 355.5196,170.32925   L 355.0348,171.29886   L 354.3884,172.26848   L 354.0652,173.23809   L 351.1564,201.03376   L 348.89401,200.87216   L 346.79321,201.35696   L 344.53081,201.84177   L 342.59161,202.48818   L 340.65241,202.81139   L 338.71322,202.81139   L 336.93562,202.16498   L 335.48122,201.03376   L 334.35002,196.18568   L 333.86522,191.17599   L 333.70362,186.00471   L 334.18842,180.83342   L 334.67322,175.33893   L 335.48122,170.00604   L 336.12762,164.67315   L 336.93562,159.50187   L 339.84442,159.98667   L 343.07641,160.14828   L 345.98521,159.98667   L 349.05561,159.82507   L 351.6412,159.82507   L 354.0652,160.63308   L 356.0044,162.41071   L 357.6204,165.64277  z "
     style="fill:#000000;fill-rule:evenodd;fill-opacity:1;stroke:none;" />
  <path
     id="path41"
     d="  M 296.53566,191.3376   L 298.63646,188.59035   L 300.25246,185.3583   L 301.54526,181.96464   L 302.83806,178.57098   L 303.80766,175.01572   L 305.26205,171.78367   L 306.87805,168.87482   L 309.14045,166.61238   L 310.11005,165.64277   L 311.24125,165.31956   L 312.37245,165.15796   L 313.66525,165.31956   L 314.63484,165.64277   L 315.76604,166.28918   L 316.73564,167.09719   L 317.70524,168.06681   L 318.83644,171.13726   L 318.83644,173.7229   L 317.70524,175.66214   L 316.25084,177.43976   L 314.15004,178.89419   L 312.21085,180.83342   L 310.43325,183.25746   L 309.14045,186.32791   L 306.87805,190.04478   L 304.93886,194.24645   L 303.32286,198.60972   L 302.35326,203.13459   L 301.54526,207.49787   L 301.38366,212.18435   L 301.86846,216.70922   L 303.16126,221.2341   L 301.38366,221.07249   L 299.60606,221.07249   L 297.82846,221.07249   L 296.05087,221.07249   L 294.11167,221.07249   L 292.49567,221.3957   L 291.04127,221.88051   L 289.91007,222.68852   L 288.94047,219.45647   L 288.61727,216.38602   L 288.29407,213.15396   L 288.13247,210.24511   L 287.64767,207.01306   L 287.32448,204.10421   L 286.67808,201.35696   L 285.87008,198.93292   L 286.19328,197.3169   L 286.35488,195.86247   L 286.03168,194.24645   L 285.87008,192.63042   L 285.54688,190.85279   L 285.22368,189.23676   L 284.90048,187.62073   L 284.90048,186.32791   L 283.60768,184.71189   L 281.99168,183.09586   L 280.05248,181.47983   L 278.27489,179.86381   L 276.49729,177.76297   L 275.36609,175.82374   L 274.55809,173.5613   L 274.88129,171.13726   L 282.47648,165.64277   L 283.76928,168.71322   L 285.22368,172.10688   L 286.51648,175.50053   L 288.13247,179.21739   L 289.58687,182.44945   L 291.52607,185.84311   L 293.78847,188.75195   L 296.53566,191.3376  z "
     style="fill:#ffffff;fill-rule:evenodd;fill-opacity:1;stroke:none;" />
  <path
     id="path43"
     d="  M 351.1564,166.61238   L 350.1868,170.32925   L 349.702,174.20771   L 349.37881,177.92457   L 349.21721,181.64143   L 348.89401,185.19669   L 348.73241,188.91356   L 348.08601,192.46882   L 347.60121,196.34728   L 345.98521,196.83209   L 344.69241,196.99369   L 343.39961,196.83209   L 342.43001,196.50888   L 341.29881,196.02408   L 340.32922,195.70087   L 339.35962,195.37766   L 338.39002,195.37766   L 337.58202,193.11523   L 337.42042,191.17599   L 337.74362,188.91356   L 338.22842,186.97432   L 338.55162,184.87349   L 339.03642,182.93426   L 338.87482,181.15663   L 338.39002,179.7022   L 338.39002,177.76297   L 338.39002,175.82374   L 338.39002,174.04611   L 338.55162,172.26848   L 338.71322,170.32925   L 339.19802,168.71322   L 339.68282,167.09719   L 340.49082,165.64277   L 351.1564,166.61238  z "
     style="fill:#ffffff;fill-rule:evenodd;fill-opacity:1;stroke:none;" />
  <path
     id="path45"
     d="  M 247.57092,182.28785   L 248.54052,184.87349   L 249.67172,187.94394   L 250.80292,190.85279   L 252.25731,194.08484   L 253.55011,197.15529   L 254.84291,200.38735   L 256.13571,203.4578   L 257.59011,206.52825   L 258.55971,208.46748   L 260.01411,210.56832   L 261.3069,212.50755   L 262.5997,214.76999   L 263.5693,216.87082   L 264.0541,219.29486   L 264.0541,221.7189   L 263.2461,224.62775   L 260.82211,226.08218   L 258.55971,227.375   L 255.97411,228.34462   L 253.55011,229.15263   L 250.64132,229.47583   L 247.89412,229.96064   L 244.98532,230.12224   L 242.07653,230.28385   L 241.10693,228.82942   L 240.62213,227.2134   L 240.46053,225.43577   L 240.46053,223.65814   L 240.46053,221.5573   L 240.46053,219.61807   L 240.13733,217.67884   L 239.49093,216.06281   L 238.03653,215.4164   L 236.74373,215.2548   L 235.28933,215.09319   L 233.83494,215.2548   L 232.21894,215.2548   L 230.60294,215.578   L 229.14854,215.7396   L 227.85574,216.06281   L 227.20934,217.35563   L 226.72454,218.64845   L 226.07814,219.94127   L 225.59334,221.3957   L 224.94695,222.68852   L 224.62375,224.14295   L 224.46215,225.75897   L 224.78535,227.6982   L 222.03815,227.85981   L 219.29095,228.50622   L 216.22056,229.15263   L 213.47336,229.79904   L 210.56456,229.79904   L 208.30216,229.31423   L 206.36297,227.85981   L 205.07017,225.27416   L 206.03977,220.58769   L 207.49417,216.06281   L 209.11016,211.21473   L 211.21096,206.52825   L 213.15016,201.68017   L 215.41256,197.4785   L 217.83655,193.43843   L 220.26055,189.88317   L 219.77575,186.48952   L 219.93735,183.41906   L 220.42215,180.34861   L 221.55335,177.60137   L 222.68455,174.69252   L 224.13895,172.26848   L 225.91654,170.00604   L 227.85574,168.06681   L 229.14854,168.55162   L 230.44134,168.71322   L 231.73414,168.39001   L 233.18854,168.06681   L 234.48133,167.582   L 235.93573,167.25879   L 237.55173,167.4204   L 239.49093,168.06681   L 247.57092,182.28785  z "
     style="fill:#000000;fill-rule:evenodd;fill-opacity:1;stroke:none;" />
  <path
     id="path47"
     d="  M 134.93585,186.32791   L 135.25905,189.07516   L 135.74385,191.98401   L 136.22865,194.89286   L 136.87505,197.96331   L 137.35984,200.87216   L 138.16784,203.781   L 138.97584,206.68985   L 139.94544,209.5987   L 142.85424,207.33626   L 145.27824,204.58902   L 147.05583,201.35696   L 148.83343,198.12491   L 150.28783,194.56965   L 152.06543,191.3376   L 154.00463,188.42875   L 156.59022,186.32791   L 159.01422,186.16631   L 161.59982,186.00471   L 164.02381,185.6815   L 166.60941,185.5199   L 168.87181,185.19669   L 171.13421,185.19669   L 172.9118,185.19669   L 174.851,185.3583   L 174.2046,188.26715   L 174.3662,191.3376   L 175.0126,194.08484   L 176.3054,196.83209   L 177.4366,199.25613   L 178.5678,201.84177   L 179.3758,204.42742   L 179.8606,207.01306   L 182.12299,203.2962   L 183.90059,199.25613   L 185.19339,194.73125   L 186.32459,190.04478   L 187.13259,185.03509   L 188.10219,180.02541   L 189.07179,175.17733   L 190.52618,170.65245   L 192.62698,169.35963   L 194.72778,169.35963   L 196.82858,170.00604   L 199.09097,171.29886   L 201.03017,172.26848   L 203.13097,172.91489   L 205.07017,172.59168   L 207.17097,171.13726   L 209.75656,171.13726   L 209.91816,172.59168   L 209.75656,174.20771   L 209.27176,175.50053   L 208.78696,176.79335   L 207.97896,177.92457   L 207.17097,179.21739   L 206.52457,180.67182   L 206.20137,182.28785   L 204.42377,188.10554   L 202.64617,194.08484   L 200.54537,200.06414   L 198.60618,206.20505   L 196.34378,212.02274   L 194.40458,218.00204   L 192.30378,223.81974   L 190.52618,229.79904   L 190.68778,230.76866   L 191.01098,232.06148   L 191.17258,233.3543   L 191.33418,234.80872   L 191.33418,236.26315   L 191.33418,237.71757   L 191.33418,239.172   L 191.49578,240.78802   L 189.07179,240.62642   L 186.97099,239.98001   L 184.70859,239.172   L 182.60779,238.36398   L 180.3454,237.55597   L 178.2446,237.39437   L 175.9822,237.87917   L 173.8814,239.3336   L 171.13421,237.07116   L 169.03341,234.48552   L 167.41741,231.57667   L 166.28621,228.34462   L 165.15501,224.78936   L 164.02381,221.07249   L 162.89262,217.35563   L 161.76142,213.63877   L 159.98382,216.54762   L 158.20622,219.29486   L 155.94382,221.88051   L 154.00463,224.46615   L 152.06543,226.89019   L 150.61103,229.79904   L 149.47983,232.86949   L 149.15663,236.74796   L 150.61103,238.36398   L 149.47983,241.11123   L 148.02543,242.40405   L 146.08623,242.40405   L 144.30864,242.08084   L 142.04624,241.27283   L 139.94544,241.11123   L 137.84464,241.43443   L 135.90545,243.37367   L 133.96625,243.05046   L 132.67345,242.56565   L 131.54225,241.59604   L 130.89585,240.62642   L 130.24945,239.172   L 129.92625,237.87917   L 129.60305,236.58635   L 129.44145,235.29353   L 127.82546,228.18301   L 126.37106,221.07249   L 124.27026,213.96197   L 122.33106,206.85146   L 119.74546,199.90254   L 116.83667,193.60003   L 113.44307,187.78234   L 109.72628,182.77265   L 109.40308,181.47983   L 109.56468,180.67182   L 109.88788,179.7022   L 110.69587,179.21739   L 111.50387,178.57098   L 112.47347,178.24778   L 113.28147,177.76297   L 114.25107,177.76297   L 116.19027,177.92457   L 117.80627,177.43976   L 119.26067,176.14694   L 120.71506,174.85412   L 121.84626,173.23809   L 123.30066,171.78367   L 124.75506,170.49085   L 126.85586,169.68284   L 129.60305,170.32925   L 131.38065,171.78367   L 132.02705,173.5613   L 132.18865,175.98534   L 131.86545,178.40938   L 132.18865,181.15663   L 132.99665,183.74227   L 134.93585,186.32791  z "
     style="fill:#000000;fill-rule:evenodd;fill-opacity:1;stroke:none;" />
  <path
     id="path49"
     d="  M 253.55011,210.56832   L 253.55011,212.34595   L 254.51971,214.44678   L 255.65091,216.38602   L 257.10531,218.48685   L 257.75171,220.26448   L 258.07491,222.04211   L 257.10531,223.33493   L 254.68131,224.62775   L 245.47012,224.62775   L 245.47012,213.15396   L 243.36932,211.86114   L 241.26853,211.21473   L 239.16773,210.56832   L 237.06693,210.56832   L 234.64293,210.24511   L 232.38054,210.08351   L 230.11814,209.92191   L 227.85574,209.5987   L 226.07814,210.56832   L 224.78535,212.18435   L 223.65415,213.96197   L 223.00775,216.38602   L 222.36135,218.64845   L 221.71495,221.07249   L 221.06855,223.17333   L 220.26055,225.27416   L 218.80615,224.62775   L 217.51335,224.46615   L 216.05896,224.30455   L 214.76616,224.30455   L 213.31176,223.98134   L 211.85736,223.81974   L 210.56456,223.33493   L 209.75656,222.68852   L 211.21096,217.51723   L 213.47336,212.50755   L 215.89736,207.33626   L 218.64455,202.32658   L 220.90695,196.99369   L 223.00775,191.6608   L 224.30055,186.00471   L 224.78535,180.18701   L 224.94695,178.40938   L 225.59334,177.11656   L 226.40134,175.82374   L 227.69414,175.01572   L 228.98694,174.04611   L 230.60294,173.5613   L 232.05734,173.23809   L 233.99654,173.23809   L 237.55173,176.79335   L 240.46053,180.99502   L 242.88453,185.5199   L 244.98532,190.52958   L 246.76292,195.37766   L 248.70212,200.54895   L 250.80292,205.55863   L 253.55011,210.56832  z "
     style="fill:#ffffff;fill-rule:evenodd;fill-opacity:1;stroke:none;" />
  <path
     id="path51"
     d="  M 127.82546,176.14694   L 127.98706,179.05579   L 128.63345,181.96464   L 129.44145,184.38868   L 130.41105,186.97432   L 131.21905,189.39836   L 132.02705,191.98401   L 132.35025,194.73125   L 132.35025,197.96331   L 133.64305,200.71055   L 134.45105,204.10421   L 134.77425,207.49787   L 135.25905,211.05313   L 135.58225,214.28518   L 136.71345,217.51723   L 138.49104,220.26448   L 141.56144,222.68852   L 143.01584,222.68852   L 144.14704,222.52692   L 144.95504,221.88051   L 145.76304,221.2341   L 146.24783,220.26448   L 146.89423,219.45647   L 147.54063,218.64845   L 148.51023,218.16365   L 148.99503,213.80037   L 149.64143,209.7603   L 150.44943,205.72024   L 151.74223,202.00338   L 153.19663,198.44812   L 155.29742,195.53927   L 158.04462,193.11523   L 161.76142,191.3376   L 162.56942,192.30721   L 163.53902,192.63042   L 164.50861,192.30721   L 165.63981,191.98401   L 166.60941,191.3376   L 167.74061,191.01439   L 168.71021,190.85279   L 169.84141,191.3376   L 170.48781,193.11523   L 171.13421,195.53927   L 171.61901,197.96331   L 172.26541,200.54895   L 172.7502,202.97299   L 173.235,205.39703   L 173.8814,207.65947   L 174.851,209.5987   L 175.4974,210.24511   L 176.1438,211.37633   L 176.467,212.83076   L 177.1134,214.28518   L 177.5982,215.4164   L 178.7294,216.22441   L 180.1838,216.54762   L 182.44619,216.06281   L 184.54699,211.53793   L 186.16299,207.01306   L 187.29419,202.32658   L 188.42539,197.6401   L 189.07179,192.79202   L 189.87979,188.10554   L 190.52618,183.41906   L 191.49578,178.73259   L 203.61577,177.76297   L 200.86857,184.55028   L 198.44458,191.4992   L 196.02058,198.44812   L 193.75818,205.55863   L 191.49578,212.50755   L 189.87979,219.61807   L 188.42539,226.89019   L 187.45579,234.32392   L 185.83979,234.64712   L 184.06219,234.64712   L 181.96139,234.16231   L 179.8606,233.83911   L 177.7598,233.3543   L 175.9822,233.1927   L 174.3662,233.3543   L 173.3966,234.32392   L 173.0734,229.96064   L 172.42701,226.24378   L 171.45741,222.52692   L 170.64941,219.13326   L 169.51821,215.578   L 168.54861,212.02274   L 167.57901,208.30588   L 167.25581,204.42742   L 166.28621,203.13459   L 165.31661,202.16498   L 164.67021,201.68017   L 164.18541,201.84177   L 163.70061,202.16498   L 163.21582,202.97299   L 160.95342,203.2962   L 159.66062,204.26581   L 158.85262,205.72024   L 158.36782,207.49787   L 157.72142,209.11389   L 157.07502,210.56832   L 155.78222,211.53793   L 154.16623,212.02274   L 152.55023,215.09319   L 151.09583,218.00204   L 149.47983,220.58769   L 148.02543,223.33493   L 146.57103,225.75897   L 145.43984,228.66782   L 144.47024,231.73827   L 143.98544,235.29353   L 142.36944,235.29353   L 141.07664,235.61674   L 139.78384,236.10154   L 138.65264,236.58635   L 137.35984,236.74796   L 136.06705,237.07116   L 134.77425,237.07116   L 133.48145,236.74796   L 133.80465,235.61674   L 134.28945,234.48552   L 134.61265,233.1927   L 134.93585,232.22308   L 134.77425,230.93026   L 134.28945,229.96064   L 133.31985,228.99103   L 131.86545,228.66782   L 130.73425,222.85012   L 129.44145,217.51723   L 127.82546,212.18435   L 126.20946,207.01306   L 124.27026,201.68017   L 122.49266,196.67049   L 120.55346,191.3376   L 118.77587,186.32791   L 119.26067,184.22708   L 120.06866,182.61105   L 120.87666,180.99502   L 122.00786,179.86381   L 123.13906,178.57098   L 124.59346,177.76297   L 126.04786,176.79335   L 127.82546,176.14694  z "
     style="fill:#ffffff;fill-rule:evenodd;fill-opacity:1;stroke:none;" />
  <path
     id="path53"
     d="  M 238.52133,183.74227   L 238.52133,186.65112   L 239.32933,189.55997   L 240.29893,192.30721   L 241.26853,195.21606   L 241.59173,197.6401   L 241.26853,200.06414   L 239.65253,202.32658   L 236.90533,204.42742   L 234.96613,203.13459   L 233.18854,202.97299   L 231.24934,203.13459   L 229.31014,203.4578   L 227.37094,203.4578   L 225.75494,202.97299   L 224.46215,201.51857   L 223.81575,198.93292   L 224.30055,196.18568   L 224.94695,193.76164   L 225.75494,191.3376   L 226.88614,189.39836   L 227.85574,187.29753   L 229.31014,185.5199   L 230.92614,183.74227   L 232.86534,182.28785   L 233.51174,182.28785   L 234.15814,182.61105   L 234.64293,182.93426   L 235.12773,183.41906   L 235.45093,183.58067   L 236.09733,183.90387   L 237.06693,183.74227   L 238.52133,183.74227  z "
     style="fill:#000000;fill-rule:evenodd;fill-opacity:1;stroke:none;" />
  <path
     id="path55"
     d="  M 239.00613,197.96331   L 238.35973,198.28651   L 238.35973,198.77132   L 238.35973,199.25613   L 238.52133,200.38735   L 229.31014,198.93292   L 229.14854,197.15529   L 229.31014,195.70087   L 229.63334,194.24645   L 230.44134,193.11523   L 231.08774,191.82241   L 232.05734,191.01439   L 233.02694,190.04478   L 233.99654,189.39836   L 234.80453,189.55997   L 235.61253,190.20638   L 236.09733,191.17599   L 236.74373,192.63042   L 237.06693,193.92324   L 237.55173,195.37766   L 238.19813,196.67049   L 239.00613,197.96331  z "
     style="fill:#cc3300;fill-rule:evenodd;fill-opacity:1;stroke:none;" />
  <path
     id="path57"
     d="  M 349.5404,220.10288   L 349.8636,222.52692   L 349.8636,225.11256   L 349.37881,227.375   L 348.89401,229.79904   L 347.92441,231.89987   L 347.11641,234.32392   L 345.98521,236.42475   L 345.01561,238.84879   L 343.39961,238.84879   L 342.26841,239.172   L 341.29881,239.6568   L 340.32922,240.30322   L 339.35962,240.78802   L 338.55162,241.59604   L 337.74362,242.08084   L 336.93562,242.88886   L 334.83482,241.59604   L 332.57242,240.78802   L 330.31003,239.98001   L 328.20923,239.3336   L 326.10843,238.20238   L 324.49243,236.90956   L 323.03803,234.80872   L 322.23004,232.22308   L 321.90684,228.99103   L 322.06844,226.24378   L 322.39164,223.81974   L 323.36123,221.7189   L 324.33083,219.61807   L 325.78523,217.67884   L 327.56283,216.06281   L 329.82523,214.60839   L 332.41082,214.60839   L 335.15802,214.60839   L 337.90522,214.76999   L 340.65241,215.2548   L 343.07641,215.7396   L 345.50041,216.87082   L 347.60121,218.16365   L 349.5404,220.10288  z "
     style="fill:#000000;fill-rule:evenodd;fill-opacity:1;stroke:none;" />
  <path
     id="path59"
     d="  M 343.56121,224.62775   L 343.72281,226.24378   L 343.56121,227.85981   L 343.07641,229.15263   L 342.59161,230.60705   L 341.62201,231.73827   L 340.81401,232.86949   L 340.00602,234.00071   L 339.52122,235.29353   L 337.58202,235.77834   L 335.96602,235.93994   L 334.35002,235.61674   L 332.89562,235.29353   L 331.44123,234.48552   L 330.14843,233.6775   L 328.69403,232.70789   L 327.40123,232.22308   L 326.59323,230.44545   L 326.27003,229.15263   L 326.10843,227.6982   L 326.59323,226.56699   L 327.07803,225.43577   L 327.72443,224.30455   L 328.53243,223.17333   L 329.34043,222.20371   L 330.63323,220.91089   L 332.57242,220.26448   L 334.51162,220.10288   L 336.61242,220.58769   L 338.55162,221.07249   L 340.49082,222.04211   L 342.10681,223.17333   L 343.56121,224.62775  z "
     style="fill:#ffffff;fill-rule:evenodd;fill-opacity:1;stroke:none;" />
  <path
     id="path61"
     d="  M 257.10531,285.87518   L 256.13571,295.57134   L 255.65091,305.59071   L 255.16611,315.61007   L 254.84291,325.95265   L 254.35811,336.13362   L 253.87331,346.79939   L 253.22691,357.30357   L 252.58051,368.13095   L 251.12612,370.8782   L 250.47972,373.94865   L 249.99492,377.1807   L 249.99492,380.57436   L 249.67172,383.80641   L 249.51012,387.03847   L 248.70212,389.94732   L 247.57092,392.85616   L 247.40932,393.98738   L 247.40932,395.60341   L 247.24772,396.24982   L 246.92452,396.89623   L 246.27812,397.21944   L 245.47012,397.38104   L 241.91493,396.89623   L 238.35973,396.89623   L 234.48133,396.89623   L 230.76454,397.21944   L 226.56294,397.21944   L 222.68455,397.54264   L 218.64455,397.70425   L 214.76616,397.86585   L 215.57416,384.61443   L 216.70536,371.68621   L 217.67495,358.75799   L 218.96775,346.15298   L 219.93735,333.38637   L 220.90695,320.61976   L 221.71495,307.69154   L 222.36135,294.92493   L 223.33095,293.95531   L 223.65415,292.9857   L 223.33095,292.01608   L 223.00775,291.04646   L 222.52295,290.07685   L 222.36135,289.10723   L 222.52295,288.13761   L 223.81575,287.3296   L 227.20934,287.97601   L 230.60294,288.29922   L 233.99654,288.29922   L 237.39013,287.97601   L 240.78373,287.3296   L 244.17732,286.52159   L 247.57092,285.55197   L 251.12612,284.74396   L 252.25731,285.39037   L 253.87331,285.39037   L 255.48931,285.39037   L 257.10531,285.87518  z "
     style="fill:#006633;fill-rule:evenodd;fill-opacity:1;stroke:none;" />
  <path
     id="path63"
     d="  M 266.3165,287.3296   L 267.7709,301.06583   L 267.9325,314.64046   L 266.9629,327.89188   L 265.6701,341.1433   L 264.0541,354.23312   L 263.0845,367.48454   L 262.7613,381.22077   L 263.7309,395.44181   L 261.9533,394.14899   L 260.66051,393.82578   L 259.20611,393.98738   L 258.07491,394.63379   L 256.78211,395.1186   L 255.65091,395.76501   L 254.51971,395.76501   L 253.55011,395.44181   L 253.38851,389.46251   L 254.19651,383.80641   L 255.16611,377.98872   L 256.45891,372.49422   L 257.42851,366.83813   L 258.23651,361.18203   L 258.23651,355.20273   L 257.59011,349.38504   L 258.55971,341.46651   L 259.20611,333.70958   L 259.36771,325.95265   L 259.69091,318.19572   L 259.69091,310.27718   L 260.17571,302.52025   L 261.1453,294.60172   L 262.7613,286.84479   L 266.3165,287.3296  z "
     style="fill:#006633;fill-rule:evenodd;fill-opacity:1;stroke:none;" />
  <path
     id="path65"
     d="  M 217.19015,288.78403   L 217.19015,302.68186   L 216.86695,316.41809   L 215.73576,329.99271   L 214.60456,343.56734   L 212.98856,356.98036   L 211.69576,370.39339   L 210.40296,383.80641   L 209.75656,397.38104   L 202.16137,395.44181   L 202.16137,390.91693   L 202.48457,386.39206   L 202.80777,381.86718   L 203.29257,377.50391   L 203.45417,373.14063   L 203.61577,368.93896   L 203.61577,364.8989   L 203.13097,361.50524   L 203.77737,352.13228   L 204.90857,342.92093   L 206.03977,333.87118   L 207.17097,325.14463   L 207.97896,316.09488   L 208.30216,307.20673   L 208.14056,297.99538   L 207.17097,288.78403   L 217.19015,288.78403  z "
     style="fill:#006633;fill-rule:evenodd;fill-opacity:1;stroke:none;" />
  <path
     id="path67"
     d="  M 247.57092,300.41942   L 247.40932,301.71224   L 247.40932,303.16667   L 247.24772,304.62109   L 247.08612,306.07551   L 246.60132,307.20673   L 246.11652,308.49955   L 245.30852,309.79238   L 244.50052,311.0852   L 243.04613,311.2468   L 241.75333,311.73161   L 240.29893,312.37802   L 239.00613,313.02443   L 237.55173,313.34764   L 236.42053,313.34764   L 235.28933,312.86283   L 234.48133,312.05481   L 232.70374,310.60039   L 231.41094,308.98436   L 230.60294,307.20673   L 230.27974,305.4291   L 230.11814,303.32827   L 230.44134,301.38904   L 230.92614,299.2882   L 231.89574,297.34897   L 233.67334,296.21775   L 235.61253,295.89454   L 237.71333,296.05615   L 239.81413,296.70256   L 241.75333,297.34897   L 243.85412,298.31858   L 245.63172,299.2882   L 247.57092,300.41942  z "
     style="fill:#000000;fill-rule:evenodd;fill-opacity:1;stroke:none;" />
  <path
     id="path69"
     d="  M 243.53092,306.56032   L 242.72293,307.04513   L 241.91493,307.69154   L 240.78373,308.33795   L 239.81413,308.98436   L 238.52133,309.14597   L 237.55173,309.14597   L 236.42053,308.66116   L 235.45093,308.01475   L 235.45093,306.56032   L 235.28933,305.59071   L 234.80453,304.62109   L 234.48133,303.97468   L 233.99654,303.00506   L 234.15814,302.52025   L 234.64293,301.87384   L 235.93573,301.38904   L 236.74373,300.74262   L 238.03653,300.74262   L 239.32933,300.74262   L 240.78373,301.38904   L 241.91493,302.03545   L 242.88453,303.16667   L 243.36932,304.62109   L 243.53092,306.56032  z "
     style="fill:#ffffff;fill-rule:evenodd;fill-opacity:1;stroke:none;" />
  <path
     id="path71"
     d="  M 248.54052,330.31592   L 248.21732,332.25515   L 247.89412,334.19438   L 247.24772,335.81041   L 246.43972,337.42644   L 245.14692,338.71926   L 243.85412,340.17368   L 242.39973,341.46651   L 240.94533,342.92093   L 239.00613,342.43612   L 237.06693,342.43612   L 235.12773,342.59772   L 233.18854,342.75933   L 231.24934,342.59772   L 229.79494,342.11292   L 228.50214,340.82009   L 227.85574,338.88086   L 228.01734,335.64881   L 228.82534,333.06316   L 230.11814,330.96233   L 231.73414,329.3463   L 233.51174,327.73028   L 235.45093,326.27585   L 237.39013,324.98303   L 239.49093,323.69021   L 240.78373,323.69021   L 242.07653,324.17502   L 243.20773,324.82143   L 244.50052,325.79104   L 245.47012,326.76066   L 246.43972,327.89188   L 247.40932,329.0231   L 248.54052,330.31592  z "
     style="fill:#000000;fill-rule:evenodd;fill-opacity:1;stroke:none;" />
  <path
     id="path73"
     d="  M 243.53092,335.3256   L 242.23813,335.81041   L 241.26853,336.61842   L 240.13733,337.26484   L 239.16773,338.07285   L 237.71333,338.55766   L 236.42053,339.04246   L 234.64293,339.04246   L 232.86534,338.88086   L 232.70374,337.91125   L 232.70374,337.10323   L 232.54214,336.13362   L 232.54214,335.3256   L 232.70374,333.70958   L 233.99654,332.73996   L 235.45093,331.77034   L 237.39013,330.80073   L 239.16773,330.15432   L 241.10693,329.99271   L 242.56133,330.15432   L 243.53092,331.12393   L 243.85412,332.73996   L 243.53092,335.3256  z "
     style="fill:#ffffff;fill-rule:evenodd;fill-opacity:1;stroke:none;" />
  <path
     id="path75"
     d="  M 243.04613,364.09088   L 242.07653,365.38371   L 241.26853,367.16133   L 240.29893,368.93896   L 239.65253,370.71659   L 238.52133,372.17102   L 237.39013,373.46384   L 235.93573,374.27185   L 234.48133,374.75666   L 233.18854,374.59506   L 231.73414,374.43346   L 230.11814,374.11025   L 228.66374,373.78705   L 227.04774,372.97903   L 225.59334,372.00942   L 224.46215,370.55499   L 223.81575,369.10057   L 223.65415,367.16133   L 224.13895,365.54531   L 224.78535,364.09088   L 225.91654,362.95966   L 226.88614,361.66684   L 228.01734,360.69723   L 228.82534,359.56601   L 229.31014,358.59639   L 231.08774,359.0812   L 233.18854,359.40441   L 235.28933,359.56601   L 237.55173,359.72761   L 239.32933,359.88921   L 241.10693,360.69723   L 242.23813,361.82845   L 243.04613,364.09088  z "
     style="fill:#000000;fill-rule:evenodd;fill-opacity:1;stroke:none;" />
  <path
     id="path77"
     d="  M 235.93573,365.0605   L 234.64293,366.03012   L 233.51174,367.16133   L 231.89574,367.80775   L 230.44134,368.13095   L 230.11814,367.16133   L 230.27974,366.51492   L 230.60294,366.03012   L 231.57254,365.86851   L 232.38054,365.54531   L 233.51174,365.38371   L 234.64293,365.2221   L 235.93573,365.0605  z "
     style="fill:#ffffff;fill-rule:evenodd;fill-opacity:1;stroke:none;" />
  <path
     id="path79"
     d="  M 238.52133,379.76635   L 238.84453,380.57436   L 239.16773,382.02878   L 239.49093,383.64481   L 239.81413,385.42244   L 239.81413,387.03847   L 239.81413,388.65449   L 239.49093,390.10892   L 239.00613,391.40174   L 237.71333,392.20975   L 236.42053,393.01777   L 234.96613,393.82578   L 233.67334,394.47219   L 232.21894,394.7954   L 230.76454,394.7954   L 229.31014,394.47219   L 227.85574,393.82578   L 227.20934,392.69456   L 226.72454,391.56334   L 226.23974,390.27052   L 226.07814,389.1393   L 225.91654,387.68488   L 226.07814,386.39206   L 226.23974,385.09923   L 226.88614,383.80641   L 227.69414,382.19039   L 228.82534,381.22077   L 230.11814,380.41276   L 231.89574,380.08955   L 233.35014,379.60474   L 235.12773,379.44314   L 236.74373,379.44314   L 238.52133,379.76635  z "
     style="fill:#000000;fill-rule:evenodd;fill-opacity:1;stroke:none;" />
  <path
     id="path81"
     d="  M 234.48133,389.78571   L 230.44134,389.78571   L 230.44134,388.8161   L 230.44134,388.00808   L 230.60294,387.20007   L 231.08774,386.71526   L 231.73414,385.58404   L 232.86534,384.77603   L 235.45093,384.77603   L 234.48133,389.78571  z "
     style="fill:#ffffff;fill-rule:evenodd;fill-opacity:1;stroke:none;" />
  <path
     id="path83"
     d="  M 454.58029,422.10625   L 456.68108,424.6919   L 454.58029,422.10625  z "
     style="fill:#000000;fill-rule:evenodd;fill-opacity:1;stroke:none;" />
  <path
     id="path85"
     d="  M 461.69068,427.76235   L 459.10508,425.1767   L 461.69068,427.76235  z "
     style="fill:#000000;fill-rule:evenodd;fill-opacity:1;stroke:none;" />
</svg>
